<?xml version="1.0" encoding="UTF - 8"?>
<!DOCTYPE xmeml>

<xmeml version="5">
  <sequence id="序列">
    <updatebehavior>add</updatebehavior>
    <name>序列</name>
    <duration>125</duration>
    <rate>
      <ntsc>FALSE</ntsc>
      <timebase>25</timebase>
    </rate>
    <timecode>
      <rate>
        <ntsc>FALSE</ntsc>
        <timebase>25</timebase>
      </rate>
      <string>01:00:00:00</string>
      <frame>90000</frame>
      <source>source</source>
      <displayformat>NDF</displayformat>
    </timecode>
    <in>0</in>
    <out>125</out>
    <width>1920</width>
    <height>1080</height>
    <media>
      <video>
        <format>
          <samplecharacteristics>
            <rate>
              <ntsc>FALSE</ntsc>
              <timebase>25</timebase>
            </rate>
            <width>1920</width>
            <height>1080</height>
            <pixelaspectratio>Square</pixelaspectratio>
            <anamorphic>FALSE</anamorphic>
          </samplecharacteristics>
        </format>
        <track>
          <enabled>TRUE</enabled>
          <locked>FALSE</locked>
        </track>
        <track>
          <clipitem id="A.png650">
            <name>A.png</name>
            <duration>25</duration>
            <rate>
              <ntsc>FALSE</ntsc>
              <timebase>25</timebase>
            </rate>
            <in>92261</in>
            <out>92286</out>
            <start>2261</start>
            <end>2286</end>
            <pixelaspectratio>Square</pixelaspectratio>
            <stillframe>TRUE</stillframe>
            <anamorphic>FALSE</anamorphic>
            <alphatype>straight</alphatype>
            <masterclipid>A.png650</masterclipid>
            <file id="A">
              <name>A.png</name>
              <pathurl>D:/Codes/SynthLip/SynthLipN/bin/Debug/net6.0-windows/Skin/template/A.png</pathurl>
              <rate>
                <ntsc>FALSE</ntsc>
                <timebase>25</timebase>
              </rate>
              <duration>2</duration>
              <width>1920</width>
              <height>1080</height>
              <media>
                <video>
                  <duration>2</duration>
                  <stillframe>TRUE</stillframe>
                  <samplecharacteristics>
                    <rate>
                      <ntsc>FALSE</ntsc>
                      <timebase>25</timebase>
                    </rate>
                    <width>1920</width>
                    <height>1080</height>
                    <pixelaspectratio>Square</pixelaspectratio>
                    <anamorphic>FALSE</anamorphic>
                  </samplecharacteristics>
                </video>
              </media>
            </file>
            <sourcetrack>
              <mediatype>video</mediatype>
            </sourcetrack>
            <fielddominance>none</fielddominance>
          </clipitem>
          <clipitem id="F.png649">
            <name>F.png</name>
            <duration>9</duration>
            <rate>
              <ntsc>FALSE</ntsc>
              <timebase>25</timebase>
            </rate>
            <in>92251</in>
            <out>92260</out>
            <start>2251</start>
            <end>2260</end>
            <pixelaspectratio>Square</pixelaspectratio>
            <stillframe>TRUE</stillframe>
            <anamorphic>FALSE</anamorphic>
            <alphatype>straight</alphatype>
            <masterclipid>F.png649</masterclipid>
            <file id="F">
              <name>F.png</name>
              <pathurl>D:/Codes/SynthLip/SynthLipN/bin/Debug/net6.0-windows/Skin/template/F.png</pathurl>
              <rate>
                <ntsc>FALSE</ntsc>
                <timebase>25</timebase>
              </rate>
              <duration>2</duration>
              <width>1920</width>
              <height>1080</height>
              <media>
                <video>
                  <duration>2</duration>
                  <stillframe>TRUE</stillframe>
                  <samplecharacteristics>
                    <rate>
                      <ntsc>FALSE</ntsc>
                      <timebase>25</timebase>
                    </rate>
                    <width>1920</width>
                    <height>1080</height>
                    <pixelaspectratio>Square</pixelaspectratio>
                    <anamorphic>FALSE</anamorphic>
                  </samplecharacteristics>
                </video>
              </media>
            </file>
            <sourcetrack>
              <mediatype>video</mediatype>
            </sourcetrack>
            <fielddominance>none</fielddominance>
          </clipitem>
          <clipitem id="C.png646">
            <name>C.png</name>
            <duration>2</duration>
            <rate>
              <ntsc>FALSE</ntsc>
              <timebase>25</timebase>
            </rate>
            <in>92247</in>
            <out>92249</out>
            <start>2247</start>
            <end>2249</end>
            <pixelaspectratio>Square</pixelaspectratio>
            <stillframe>TRUE</stillframe>
            <anamorphic>FALSE</anamorphic>
            <alphatype>straight</alphatype>
            <masterclipid>C.png646</masterclipid>
            <file id="C">
              <name>C.png</name>
              <pathurl>D:/Codes/SynthLip/SynthLipN/bin/Debug/net6.0-windows/Skin/template/C.png</pathurl>
              <rate>
                <ntsc>FALSE</ntsc>
                <timebase>25</timebase>
              </rate>
              <duration>2</duration>
              <width>1920</width>
              <height>1080</height>
              <media>
                <video>
                  <duration>2</duration>
                  <stillframe>TRUE</stillframe>
                  <samplecharacteristics>
                    <rate>
                      <ntsc>FALSE</ntsc>
                      <timebase>25</timebase>
                    </rate>
                    <width>1920</width>
                    <height>1080</height>
                    <pixelaspectratio>Square</pixelaspectratio>
                    <anamorphic>FALSE</anamorphic>
                  </samplecharacteristics>
                </video>
              </media>
            </file>
            <sourcetrack>
              <mediatype>video</mediatype>
            </sourcetrack>
            <fielddominance>none</fielddominance>
          </clipitem>
          <clipitem id="G.png645">
            <name>G.png</name>
            <duration>2</duration>
            <rate>
              <ntsc>FALSE</ntsc>
              <timebase>25</timebase>
            </rate>
            <in>92245</in>
            <out>92247</out>
            <start>2245</start>
            <end>2247</end>
            <pixelaspectratio>Square</pixelaspectratio>
            <stillframe>TRUE</stillframe>
            <anamorphic>FALSE</anamorphic>
            <alphatype>straight</alphatype>
            <masterclipid>G.png645</masterclipid>
            <file id="G">
              <name>G.png</name>
              <pathurl>D:/Codes/SynthLip/SynthLipN/bin/Debug/net6.0-windows/Skin/template/G.png</pathurl>
              <rate>
                <ntsc>FALSE</ntsc>
                <timebase>25</timebase>
              </rate>
              <duration>2</duration>
              <width>1920</width>
              <height>1080</height>
              <media>
                <video>
                  <duration>2</duration>
                  <stillframe>TRUE</stillframe>
                  <samplecharacteristics>
                    <rate>
                      <ntsc>FALSE</ntsc>
                      <timebase>25</timebase>
                    </rate>
                    <width>1920</width>
                    <height>1080</height>
                    <pixelaspectratio>Square</pixelaspectratio>
                    <anamorphic>FALSE</anamorphic>
                  </samplecharacteristics>
                </video>
              </media>
            </file>
            <sourcetrack>
              <mediatype>video</mediatype>
            </sourcetrack>
            <fielddominance>none</fielddominance>
          </clipitem>
          <clipitem id="A.png644">
            <name>A.png</name>
            <duration>2</duration>
            <rate>
              <ntsc>FALSE</ntsc>
              <timebase>25</timebase>
            </rate>
            <in>92242</in>
            <out>92244</out>
            <start>2242</start>
            <end>2244</end>
            <pixelaspectratio>Square</pixelaspectratio>
            <stillframe>TRUE</stillframe>
            <anamorphic>FALSE</anamorphic>
            <alphatype>straight</alphatype>
            <masterclipid>A.png644</masterclipid>
            <file id="A">
              <name>A.png</name>
              <pathurl>D:/Codes/SynthLip/SynthLipN/bin/Debug/net6.0-windows/Skin/template/A.png</pathurl>
              <rate>
                <ntsc>FALSE</ntsc>
                <timebase>25</timebase>
              </rate>
              <duration>2</duration>
              <width>1920</width>
              <height>1080</height>
              <media>
                <video>
                  <duration>2</duration>
                  <stillframe>TRUE</stillframe>
                  <samplecharacteristics>
                    <rate>
                      <ntsc>FALSE</ntsc>
                      <timebase>25</timebase>
                    </rate>
                    <width>1920</width>
                    <height>1080</height>
                    <pixelaspectratio>Square</pixelaspectratio>
                    <anamorphic>FALSE</anamorphic>
                  </samplecharacteristics>
                </video>
              </media>
            </file>
            <sourcetrack>
              <mediatype>video</mediatype>
            </sourcetrack>
            <fielddominance>none</fielddominance>
          </clipitem>
          <clipitem id="A.png643">
            <name>A.png</name>
            <duration>3</duration>
            <rate>
              <ntsc>FALSE</ntsc>
              <timebase>25</timebase>
            </rate>
            <in>92238</in>
            <out>92241</out>
            <start>2238</start>
            <end>2241</end>
            <pixelaspectratio>Square</pixelaspectratio>
            <stillframe>TRUE</stillframe>
            <anamorphic>FALSE</anamorphic>
            <alphatype>straight</alphatype>
            <masterclipid>A.png643</masterclipid>
            <file id="A">
              <name>A.png</name>
              <pathurl>D:/Codes/SynthLip/SynthLipN/bin/Debug/net6.0-windows/Skin/template/A.png</pathurl>
              <rate>
                <ntsc>FALSE</ntsc>
                <timebase>25</timebase>
              </rate>
              <duration>2</duration>
              <width>1920</width>
              <height>1080</height>
              <media>
                <video>
                  <duration>2</duration>
                  <stillframe>TRUE</stillframe>
                  <samplecharacteristics>
                    <rate>
                      <ntsc>FALSE</ntsc>
                      <timebase>25</timebase>
                    </rate>
                    <width>1920</width>
                    <height>1080</height>
                    <pixelaspectratio>Square</pixelaspectratio>
                    <anamorphic>FALSE</anamorphic>
                  </samplecharacteristics>
                </video>
              </media>
            </file>
            <sourcetrack>
              <mediatype>video</mediatype>
            </sourcetrack>
            <fielddominance>none</fielddominance>
          </clipitem>
          <clipitem id="A.png642">
            <name>A.png</name>
            <duration>1</duration>
            <rate>
              <ntsc>FALSE</ntsc>
              <timebase>25</timebase>
            </rate>
            <in>92236</in>
            <out>92237</out>
            <start>2236</start>
            <end>2237</end>
            <pixelaspectratio>Square</pixelaspectratio>
            <stillframe>TRUE</stillframe>
            <anamorphic>FALSE</anamorphic>
            <alphatype>straight</alphatype>
            <masterclipid>A.png642</masterclipid>
            <file id="A">
              <name>A.png</name>
              <pathurl>D:/Codes/SynthLip/SynthLipN/bin/Debug/net6.0-windows/Skin/template/A.png</pathurl>
              <rate>
                <ntsc>FALSE</ntsc>
                <timebase>25</timebase>
              </rate>
              <duration>2</duration>
              <width>1920</width>
              <height>1080</height>
              <media>
                <video>
                  <duration>2</duration>
                  <stillframe>TRUE</stillframe>
                  <samplecharacteristics>
                    <rate>
                      <ntsc>FALSE</ntsc>
                      <timebase>25</timebase>
                    </rate>
                    <width>1920</width>
                    <height>1080</height>
                    <pixelaspectratio>Square</pixelaspectratio>
                    <anamorphic>FALSE</anamorphic>
                  </samplecharacteristics>
                </video>
              </media>
            </file>
            <sourcetrack>
              <mediatype>video</mediatype>
            </sourcetrack>
            <fielddominance>none</fielddominance>
          </clipitem>
          <clipitem id="C.png638">
            <name>C.png</name>
            <duration>5</duration>
            <rate>
              <ntsc>FALSE</ntsc>
              <timebase>25</timebase>
            </rate>
            <in>92229</in>
            <out>92234</out>
            <start>2229</start>
            <end>2234</end>
            <pixelaspectratio>Square</pixelaspectratio>
            <stillframe>TRUE</stillframe>
            <anamorphic>FALSE</anamorphic>
            <alphatype>straight</alphatype>
            <masterclipid>C.png638</masterclipid>
            <file id="C">
              <name>C.png</name>
              <pathurl>D:/Codes/SynthLip/SynthLipN/bin/Debug/net6.0-windows/Skin/template/C.png</pathurl>
              <rate>
                <ntsc>FALSE</ntsc>
                <timebase>25</timebase>
              </rate>
              <duration>2</duration>
              <width>1920</width>
              <height>1080</height>
              <media>
                <video>
                  <duration>2</duration>
                  <stillframe>TRUE</stillframe>
                  <samplecharacteristics>
                    <rate>
                      <ntsc>FALSE</ntsc>
                      <timebase>25</timebase>
                    </rate>
                    <width>1920</width>
                    <height>1080</height>
                    <pixelaspectratio>Square</pixelaspectratio>
                    <anamorphic>FALSE</anamorphic>
                  </samplecharacteristics>
                </video>
              </media>
            </file>
            <sourcetrack>
              <mediatype>video</mediatype>
            </sourcetrack>
            <fielddominance>none</fielddominance>
          </clipitem>
          <clipitem id="A.png636">
            <name>A.png</name>
            <duration>8</duration>
            <rate>
              <ntsc>FALSE</ntsc>
              <timebase>25</timebase>
            </rate>
            <in>92220</in>
            <out>92228</out>
            <start>2220</start>
            <end>2228</end>
            <pixelaspectratio>Square</pixelaspectratio>
            <stillframe>TRUE</stillframe>
            <anamorphic>FALSE</anamorphic>
            <alphatype>straight</alphatype>
            <masterclipid>A.png636</masterclipid>
            <file id="A">
              <name>A.png</name>
              <pathurl>D:/Codes/SynthLip/SynthLipN/bin/Debug/net6.0-windows/Skin/template/A.png</pathurl>
              <rate>
                <ntsc>FALSE</ntsc>
                <timebase>25</timebase>
              </rate>
              <duration>2</duration>
              <width>1920</width>
              <height>1080</height>
              <media>
                <video>
                  <duration>2</duration>
                  <stillframe>TRUE</stillframe>
                  <samplecharacteristics>
                    <rate>
                      <ntsc>FALSE</ntsc>
                      <timebase>25</timebase>
                    </rate>
                    <width>1920</width>
                    <height>1080</height>
                    <pixelaspectratio>Square</pixelaspectratio>
                    <anamorphic>FALSE</anamorphic>
                  </samplecharacteristics>
                </video>
              </media>
            </file>
            <sourcetrack>
              <mediatype>video</mediatype>
            </sourcetrack>
            <fielddominance>none</fielddominance>
          </clipitem>
          <clipitem id="A.png635">
            <name>A.png</name>
            <duration>30</duration>
            <rate>
              <ntsc>FALSE</ntsc>
              <timebase>25</timebase>
            </rate>
            <in>92190</in>
            <out>92220</out>
            <start>2190</start>
            <end>2220</end>
            <pixelaspectratio>Square</pixelaspectratio>
            <stillframe>TRUE</stillframe>
            <anamorphic>FALSE</anamorphic>
            <alphatype>straight</alphatype>
            <masterclipid>A.png635</masterclipid>
            <file id="A">
              <name>A.png</name>
              <pathurl>D:/Codes/SynthLip/SynthLipN/bin/Debug/net6.0-windows/Skin/template/A.png</pathurl>
              <rate>
                <ntsc>FALSE</ntsc>
                <timebase>25</timebase>
              </rate>
              <duration>2</duration>
              <width>1920</width>
              <height>1080</height>
              <media>
                <video>
                  <duration>2</duration>
                  <stillframe>TRUE</stillframe>
                  <samplecharacteristics>
                    <rate>
                      <ntsc>FALSE</ntsc>
                      <timebase>25</timebase>
                    </rate>
                    <width>1920</width>
                    <height>1080</height>
                    <pixelaspectratio>Square</pixelaspectratio>
                    <anamorphic>FALSE</anamorphic>
                  </samplecharacteristics>
                </video>
              </media>
            </file>
            <sourcetrack>
              <mediatype>video</mediatype>
            </sourcetrack>
            <fielddominance>none</fielddominance>
          </clipitem>
          <clipitem id="A.png634">
            <name>A.png</name>
            <duration>29</duration>
            <rate>
              <ntsc>FALSE</ntsc>
              <timebase>25</timebase>
            </rate>
            <in>92160</in>
            <out>92189</out>
            <start>2160</start>
            <end>2189</end>
            <pixelaspectratio>Square</pixelaspectratio>
            <stillframe>TRUE</stillframe>
            <anamorphic>FALSE</anamorphic>
            <alphatype>straight</alphatype>
            <masterclipid>A.png634</masterclipid>
            <file id="A">
              <name>A.png</name>
              <pathurl>D:/Codes/SynthLip/SynthLipN/bin/Debug/net6.0-windows/Skin/template/A.png</pathurl>
              <rate>
                <ntsc>FALSE</ntsc>
                <timebase>25</timebase>
              </rate>
              <duration>2</duration>
              <width>1920</width>
              <height>1080</height>
              <media>
                <video>
                  <duration>2</duration>
                  <stillframe>TRUE</stillframe>
                  <samplecharacteristics>
                    <rate>
                      <ntsc>FALSE</ntsc>
                      <timebase>25</timebase>
                    </rate>
                    <width>1920</width>
                    <height>1080</height>
                    <pixelaspectratio>Square</pixelaspectratio>
                    <anamorphic>FALSE</anamorphic>
                  </samplecharacteristics>
                </video>
              </media>
            </file>
            <sourcetrack>
              <mediatype>video</mediatype>
            </sourcetrack>
            <fielddominance>none</fielddominance>
          </clipitem>
          <clipitem id="F.png633">
            <name>F.png</name>
            <duration>28</duration>
            <rate>
              <ntsc>FALSE</ntsc>
              <timebase>25</timebase>
            </rate>
            <in>92131</in>
            <out>92159</out>
            <start>2131</start>
            <end>2159</end>
            <pixelaspectratio>Square</pixelaspectratio>
            <stillframe>TRUE</stillframe>
            <anamorphic>FALSE</anamorphic>
            <alphatype>straight</alphatype>
            <masterclipid>F.png633</masterclipid>
            <file id="F">
              <name>F.png</name>
              <pathurl>D:/Codes/SynthLip/SynthLipN/bin/Debug/net6.0-windows/Skin/template/F.png</pathurl>
              <rate>
                <ntsc>FALSE</ntsc>
                <timebase>25</timebase>
              </rate>
              <duration>2</duration>
              <width>1920</width>
              <height>1080</height>
              <media>
                <video>
                  <duration>2</duration>
                  <stillframe>TRUE</stillframe>
                  <samplecharacteristics>
                    <rate>
                      <ntsc>FALSE</ntsc>
                      <timebase>25</timebase>
                    </rate>
                    <width>1920</width>
                    <height>1080</height>
                    <pixelaspectratio>Square</pixelaspectratio>
                    <anamorphic>FALSE</anamorphic>
                  </samplecharacteristics>
                </video>
              </media>
            </file>
            <sourcetrack>
              <mediatype>video</mediatype>
            </sourcetrack>
            <fielddominance>none</fielddominance>
          </clipitem>
          <clipitem id="C.png630">
            <name>C.png</name>
            <duration>2</duration>
            <rate>
              <ntsc>FALSE</ntsc>
              <timebase>25</timebase>
            </rate>
            <in>92127</in>
            <out>92129</out>
            <start>2127</start>
            <end>2129</end>
            <pixelaspectratio>Square</pixelaspectratio>
            <stillframe>TRUE</stillframe>
            <anamorphic>FALSE</anamorphic>
            <alphatype>straight</alphatype>
            <masterclipid>C.png630</masterclipid>
            <file id="C">
              <name>C.png</name>
              <pathurl>D:/Codes/SynthLip/SynthLipN/bin/Debug/net6.0-windows/Skin/template/C.png</pathurl>
              <rate>
                <ntsc>FALSE</ntsc>
                <timebase>25</timebase>
              </rate>
              <duration>2</duration>
              <width>1920</width>
              <height>1080</height>
              <media>
                <video>
                  <duration>2</duration>
                  <stillframe>TRUE</stillframe>
                  <samplecharacteristics>
                    <rate>
                      <ntsc>FALSE</ntsc>
                      <timebase>25</timebase>
                    </rate>
                    <width>1920</width>
                    <height>1080</height>
                    <pixelaspectratio>Square</pixelaspectratio>
                    <anamorphic>FALSE</anamorphic>
                  </samplecharacteristics>
                </video>
              </media>
            </file>
            <sourcetrack>
              <mediatype>video</mediatype>
            </sourcetrack>
            <fielddominance>none</fielddominance>
          </clipitem>
          <clipitem id="G.png629">
            <name>G.png</name>
            <duration>2</duration>
            <rate>
              <ntsc>FALSE</ntsc>
              <timebase>25</timebase>
            </rate>
            <in>92125</in>
            <out>92127</out>
            <start>2125</start>
            <end>2127</end>
            <pixelaspectratio>Square</pixelaspectratio>
            <stillframe>TRUE</stillframe>
            <anamorphic>FALSE</anamorphic>
            <alphatype>straight</alphatype>
            <masterclipid>G.png629</masterclipid>
            <file id="G">
              <name>G.png</name>
              <pathurl>D:/Codes/SynthLip/SynthLipN/bin/Debug/net6.0-windows/Skin/template/G.png</pathurl>
              <rate>
                <ntsc>FALSE</ntsc>
                <timebase>25</timebase>
              </rate>
              <duration>2</duration>
              <width>1920</width>
              <height>1080</height>
              <media>
                <video>
                  <duration>2</duration>
                  <stillframe>TRUE</stillframe>
                  <samplecharacteristics>
                    <rate>
                      <ntsc>FALSE</ntsc>
                      <timebase>25</timebase>
                    </rate>
                    <width>1920</width>
                    <height>1080</height>
                    <pixelaspectratio>Square</pixelaspectratio>
                    <anamorphic>FALSE</anamorphic>
                  </samplecharacteristics>
                </video>
              </media>
            </file>
            <sourcetrack>
              <mediatype>video</mediatype>
            </sourcetrack>
            <fielddominance>none</fielddominance>
          </clipitem>
          <clipitem id="A.png628">
            <name>A.png</name>
            <duration>2</duration>
            <rate>
              <ntsc>FALSE</ntsc>
              <timebase>25</timebase>
            </rate>
            <in>92122</in>
            <out>92124</out>
            <start>2122</start>
            <end>2124</end>
            <pixelaspectratio>Square</pixelaspectratio>
            <stillframe>TRUE</stillframe>
            <anamorphic>FALSE</anamorphic>
            <alphatype>straight</alphatype>
            <masterclipid>A.png628</masterclipid>
            <file id="A">
              <name>A.png</name>
              <pathurl>D:/Codes/SynthLip/SynthLipN/bin/Debug/net6.0-windows/Skin/template/A.png</pathurl>
              <rate>
                <ntsc>FALSE</ntsc>
                <timebase>25</timebase>
              </rate>
              <duration>2</duration>
              <width>1920</width>
              <height>1080</height>
              <media>
                <video>
                  <duration>2</duration>
                  <stillframe>TRUE</stillframe>
                  <samplecharacteristics>
                    <rate>
                      <ntsc>FALSE</ntsc>
                      <timebase>25</timebase>
                    </rate>
                    <width>1920</width>
                    <height>1080</height>
                    <pixelaspectratio>Square</pixelaspectratio>
                    <anamorphic>FALSE</anamorphic>
                  </samplecharacteristics>
                </video>
              </media>
            </file>
            <sourcetrack>
              <mediatype>video</mediatype>
            </sourcetrack>
            <fielddominance>none</fielddominance>
          </clipitem>
          <clipitem id="A.png627">
            <name>A.png</name>
            <duration>5</duration>
            <rate>
              <ntsc>FALSE</ntsc>
              <timebase>25</timebase>
            </rate>
            <in>92116</in>
            <out>92121</out>
            <start>2116</start>
            <end>2121</end>
            <pixelaspectratio>Square</pixelaspectratio>
            <stillframe>TRUE</stillframe>
            <anamorphic>FALSE</anamorphic>
            <alphatype>straight</alphatype>
            <masterclipid>A.png627</masterclipid>
            <file id="A">
              <name>A.png</name>
              <pathurl>D:/Codes/SynthLip/SynthLipN/bin/Debug/net6.0-windows/Skin/template/A.png</pathurl>
              <rate>
                <ntsc>FALSE</ntsc>
                <timebase>25</timebase>
              </rate>
              <duration>2</duration>
              <width>1920</width>
              <height>1080</height>
              <media>
                <video>
                  <duration>2</duration>
                  <stillframe>TRUE</stillframe>
                  <samplecharacteristics>
                    <rate>
                      <ntsc>FALSE</ntsc>
                      <timebase>25</timebase>
                    </rate>
                    <width>1920</width>
                    <height>1080</height>
                    <pixelaspectratio>Square</pixelaspectratio>
                    <anamorphic>FALSE</anamorphic>
                  </samplecharacteristics>
                </video>
              </media>
            </file>
            <sourcetrack>
              <mediatype>video</mediatype>
            </sourcetrack>
            <fielddominance>none</fielddominance>
          </clipitem>
          <clipitem id="C.png623">
            <name>C.png</name>
            <duration>3</duration>
            <rate>
              <ntsc>FALSE</ntsc>
              <timebase>25</timebase>
            </rate>
            <in>92111</in>
            <out>92114</out>
            <start>2111</start>
            <end>2114</end>
            <pixelaspectratio>Square</pixelaspectratio>
            <stillframe>TRUE</stillframe>
            <anamorphic>FALSE</anamorphic>
            <alphatype>straight</alphatype>
            <masterclipid>C.png623</masterclipid>
            <file id="C">
              <name>C.png</name>
              <pathurl>D:/Codes/SynthLip/SynthLipN/bin/Debug/net6.0-windows/Skin/template/C.png</pathurl>
              <rate>
                <ntsc>FALSE</ntsc>
                <timebase>25</timebase>
              </rate>
              <duration>2</duration>
              <width>1920</width>
              <height>1080</height>
              <media>
                <video>
                  <duration>2</duration>
                  <stillframe>TRUE</stillframe>
                  <samplecharacteristics>
                    <rate>
                      <ntsc>FALSE</ntsc>
                      <timebase>25</timebase>
                    </rate>
                    <width>1920</width>
                    <height>1080</height>
                    <pixelaspectratio>Square</pixelaspectratio>
                    <anamorphic>FALSE</anamorphic>
                  </samplecharacteristics>
                </video>
              </media>
            </file>
            <sourcetrack>
              <mediatype>video</mediatype>
            </sourcetrack>
            <fielddominance>none</fielddominance>
          </clipitem>
          <clipitem id="A.png622">
            <name>A.png</name>
            <duration>11</duration>
            <rate>
              <ntsc>FALSE</ntsc>
              <timebase>25</timebase>
            </rate>
            <in>92100</in>
            <out>92111</out>
            <start>2100</start>
            <end>2111</end>
            <pixelaspectratio>Square</pixelaspectratio>
            <stillframe>TRUE</stillframe>
            <anamorphic>FALSE</anamorphic>
            <alphatype>straight</alphatype>
            <masterclipid>A.png622</masterclipid>
            <file id="A">
              <name>A.png</name>
              <pathurl>D:/Codes/SynthLip/SynthLipN/bin/Debug/net6.0-windows/Skin/template/A.png</pathurl>
              <rate>
                <ntsc>FALSE</ntsc>
                <timebase>25</timebase>
              </rate>
              <duration>2</duration>
              <width>1920</width>
              <height>1080</height>
              <media>
                <video>
                  <duration>2</duration>
                  <stillframe>TRUE</stillframe>
                  <samplecharacteristics>
                    <rate>
                      <ntsc>FALSE</ntsc>
                      <timebase>25</timebase>
                    </rate>
                    <width>1920</width>
                    <height>1080</height>
                    <pixelaspectratio>Square</pixelaspectratio>
                    <anamorphic>FALSE</anamorphic>
                  </samplecharacteristics>
                </video>
              </media>
            </file>
            <sourcetrack>
              <mediatype>video</mediatype>
            </sourcetrack>
            <fielddominance>none</fielddominance>
          </clipitem>
          <clipitem id="A.png621">
            <name>A.png</name>
            <duration>30</duration>
            <rate>
              <ntsc>FALSE</ntsc>
              <timebase>25</timebase>
            </rate>
            <in>92070</in>
            <out>92100</out>
            <start>2070</start>
            <end>2100</end>
            <pixelaspectratio>Square</pixelaspectratio>
            <stillframe>TRUE</stillframe>
            <anamorphic>FALSE</anamorphic>
            <alphatype>straight</alphatype>
            <masterclipid>A.png621</masterclipid>
            <file id="A">
              <name>A.png</name>
              <pathurl>D:/Codes/SynthLip/SynthLipN/bin/Debug/net6.0-windows/Skin/template/A.png</pathurl>
              <rate>
                <ntsc>FALSE</ntsc>
                <timebase>25</timebase>
              </rate>
              <duration>2</duration>
              <width>1920</width>
              <height>1080</height>
              <media>
                <video>
                  <duration>2</duration>
                  <stillframe>TRUE</stillframe>
                  <samplecharacteristics>
                    <rate>
                      <ntsc>FALSE</ntsc>
                      <timebase>25</timebase>
                    </rate>
                    <width>1920</width>
                    <height>1080</height>
                    <pixelaspectratio>Square</pixelaspectratio>
                    <anamorphic>FALSE</anamorphic>
                  </samplecharacteristics>
                </video>
              </media>
            </file>
            <sourcetrack>
              <mediatype>video</mediatype>
            </sourcetrack>
            <fielddominance>none</fielddominance>
          </clipitem>
          <clipitem id="A.png620">
            <name>A.png</name>
            <duration>3</duration>
            <rate>
              <ntsc>FALSE</ntsc>
              <timebase>25</timebase>
            </rate>
            <in>92066</in>
            <out>92069</out>
            <start>2066</start>
            <end>2069</end>
            <pixelaspectratio>Square</pixelaspectratio>
            <stillframe>TRUE</stillframe>
            <anamorphic>FALSE</anamorphic>
            <alphatype>straight</alphatype>
            <masterclipid>A.png620</masterclipid>
            <file id="A">
              <name>A.png</name>
              <pathurl>D:/Codes/SynthLip/SynthLipN/bin/Debug/net6.0-windows/Skin/template/A.png</pathurl>
              <rate>
                <ntsc>FALSE</ntsc>
                <timebase>25</timebase>
              </rate>
              <duration>2</duration>
              <width>1920</width>
              <height>1080</height>
              <media>
                <video>
                  <duration>2</duration>
                  <stillframe>TRUE</stillframe>
                  <samplecharacteristics>
                    <rate>
                      <ntsc>FALSE</ntsc>
                      <timebase>25</timebase>
                    </rate>
                    <width>1920</width>
                    <height>1080</height>
                    <pixelaspectratio>Square</pixelaspectratio>
                    <anamorphic>FALSE</anamorphic>
                  </samplecharacteristics>
                </video>
              </media>
            </file>
            <sourcetrack>
              <mediatype>video</mediatype>
            </sourcetrack>
            <fielddominance>none</fielddominance>
          </clipitem>
          <clipitem id="A.png619">
            <name>A.png</name>
            <duration>3</duration>
            <rate>
              <ntsc>FALSE</ntsc>
              <timebase>25</timebase>
            </rate>
            <in>92062</in>
            <out>92065</out>
            <start>2062</start>
            <end>2065</end>
            <pixelaspectratio>Square</pixelaspectratio>
            <stillframe>TRUE</stillframe>
            <anamorphic>FALSE</anamorphic>
            <alphatype>straight</alphatype>
            <masterclipid>A.png619</masterclipid>
            <file id="A">
              <name>A.png</name>
              <pathurl>D:/Codes/SynthLip/SynthLipN/bin/Debug/net6.0-windows/Skin/template/A.png</pathurl>
              <rate>
                <ntsc>FALSE</ntsc>
                <timebase>25</timebase>
              </rate>
              <duration>2</duration>
              <width>1920</width>
              <height>1080</height>
              <media>
                <video>
                  <duration>2</duration>
                  <stillframe>TRUE</stillframe>
                  <samplecharacteristics>
                    <rate>
                      <ntsc>FALSE</ntsc>
                      <timebase>25</timebase>
                    </rate>
                    <width>1920</width>
                    <height>1080</height>
                    <pixelaspectratio>Square</pixelaspectratio>
                    <anamorphic>FALSE</anamorphic>
                  </samplecharacteristics>
                </video>
              </media>
            </file>
            <sourcetrack>
              <mediatype>video</mediatype>
            </sourcetrack>
            <fielddominance>none</fielddominance>
          </clipitem>
          <clipitem id="A.png618">
            <name>A.png</name>
            <duration>22</duration>
            <rate>
              <ntsc>FALSE</ntsc>
              <timebase>25</timebase>
            </rate>
            <in>92039</in>
            <out>92061</out>
            <start>2039</start>
            <end>2061</end>
            <pixelaspectratio>Square</pixelaspectratio>
            <stillframe>TRUE</stillframe>
            <anamorphic>FALSE</anamorphic>
            <alphatype>straight</alphatype>
            <masterclipid>A.png618</masterclipid>
            <file id="A">
              <name>A.png</name>
              <pathurl>D:/Codes/SynthLip/SynthLipN/bin/Debug/net6.0-windows/Skin/template/A.png</pathurl>
              <rate>
                <ntsc>FALSE</ntsc>
                <timebase>25</timebase>
              </rate>
              <duration>2</duration>
              <width>1920</width>
              <height>1080</height>
              <media>
                <video>
                  <duration>2</duration>
                  <stillframe>TRUE</stillframe>
                  <samplecharacteristics>
                    <rate>
                      <ntsc>FALSE</ntsc>
                      <timebase>25</timebase>
                    </rate>
                    <width>1920</width>
                    <height>1080</height>
                    <pixelaspectratio>Square</pixelaspectratio>
                    <anamorphic>FALSE</anamorphic>
                  </samplecharacteristics>
                </video>
              </media>
            </file>
            <sourcetrack>
              <mediatype>video</mediatype>
            </sourcetrack>
            <fielddominance>none</fielddominance>
          </clipitem>
          <clipitem id="F.png617">
            <name>F.png</name>
            <duration>28</duration>
            <rate>
              <ntsc>FALSE</ntsc>
              <timebase>25</timebase>
            </rate>
            <in>92011</in>
            <out>92039</out>
            <start>2011</start>
            <end>2039</end>
            <pixelaspectratio>Square</pixelaspectratio>
            <stillframe>TRUE</stillframe>
            <anamorphic>FALSE</anamorphic>
            <alphatype>straight</alphatype>
            <masterclipid>F.png617</masterclipid>
            <file id="F">
              <name>F.png</name>
              <pathurl>D:/Codes/SynthLip/SynthLipN/bin/Debug/net6.0-windows/Skin/template/F.png</pathurl>
              <rate>
                <ntsc>FALSE</ntsc>
                <timebase>25</timebase>
              </rate>
              <duration>2</duration>
              <width>1920</width>
              <height>1080</height>
              <media>
                <video>
                  <duration>2</duration>
                  <stillframe>TRUE</stillframe>
                  <samplecharacteristics>
                    <rate>
                      <ntsc>FALSE</ntsc>
                      <timebase>25</timebase>
                    </rate>
                    <width>1920</width>
                    <height>1080</height>
                    <pixelaspectratio>Square</pixelaspectratio>
                    <anamorphic>FALSE</anamorphic>
                  </samplecharacteristics>
                </video>
              </media>
            </file>
            <sourcetrack>
              <mediatype>video</mediatype>
            </sourcetrack>
            <fielddominance>none</fielddominance>
          </clipitem>
          <clipitem id="C.png614">
            <name>C.png</name>
            <duration>2</duration>
            <rate>
              <ntsc>FALSE</ntsc>
              <timebase>25</timebase>
            </rate>
            <in>92007</in>
            <out>92009</out>
            <start>2007</start>
            <end>2009</end>
            <pixelaspectratio>Square</pixelaspectratio>
            <stillframe>TRUE</stillframe>
            <anamorphic>FALSE</anamorphic>
            <alphatype>straight</alphatype>
            <masterclipid>C.png614</masterclipid>
            <file id="C">
              <name>C.png</name>
              <pathurl>D:/Codes/SynthLip/SynthLipN/bin/Debug/net6.0-windows/Skin/template/C.png</pathurl>
              <rate>
                <ntsc>FALSE</ntsc>
                <timebase>25</timebase>
              </rate>
              <duration>2</duration>
              <width>1920</width>
              <height>1080</height>
              <media>
                <video>
                  <duration>2</duration>
                  <stillframe>TRUE</stillframe>
                  <samplecharacteristics>
                    <rate>
                      <ntsc>FALSE</ntsc>
                      <timebase>25</timebase>
                    </rate>
                    <width>1920</width>
                    <height>1080</height>
                    <pixelaspectratio>Square</pixelaspectratio>
                    <anamorphic>FALSE</anamorphic>
                  </samplecharacteristics>
                </video>
              </media>
            </file>
            <sourcetrack>
              <mediatype>video</mediatype>
            </sourcetrack>
            <fielddominance>none</fielddominance>
          </clipitem>
          <clipitem id="G.png613">
            <name>G.png</name>
            <duration>2</duration>
            <rate>
              <ntsc>FALSE</ntsc>
              <timebase>25</timebase>
            </rate>
            <in>92005</in>
            <out>92007</out>
            <start>2005</start>
            <end>2007</end>
            <pixelaspectratio>Square</pixelaspectratio>
            <stillframe>TRUE</stillframe>
            <anamorphic>FALSE</anamorphic>
            <alphatype>straight</alphatype>
            <masterclipid>G.png613</masterclipid>
            <file id="G">
              <name>G.png</name>
              <pathurl>D:/Codes/SynthLip/SynthLipN/bin/Debug/net6.0-windows/Skin/template/G.png</pathurl>
              <rate>
                <ntsc>FALSE</ntsc>
                <timebase>25</timebase>
              </rate>
              <duration>2</duration>
              <width>1920</width>
              <height>1080</height>
              <media>
                <video>
                  <duration>2</duration>
                  <stillframe>TRUE</stillframe>
                  <samplecharacteristics>
                    <rate>
                      <ntsc>FALSE</ntsc>
                      <timebase>25</timebase>
                    </rate>
                    <width>1920</width>
                    <height>1080</height>
                    <pixelaspectratio>Square</pixelaspectratio>
                    <anamorphic>FALSE</anamorphic>
                  </samplecharacteristics>
                </video>
              </media>
            </file>
            <sourcetrack>
              <mediatype>video</mediatype>
            </sourcetrack>
            <fielddominance>none</fielddominance>
          </clipitem>
          <clipitem id="A.png612">
            <name>A.png</name>
            <duration>2</duration>
            <rate>
              <ntsc>FALSE</ntsc>
              <timebase>25</timebase>
            </rate>
            <in>92002</in>
            <out>92004</out>
            <start>2002</start>
            <end>2004</end>
            <pixelaspectratio>Square</pixelaspectratio>
            <stillframe>TRUE</stillframe>
            <anamorphic>FALSE</anamorphic>
            <alphatype>straight</alphatype>
            <masterclipid>A.png612</masterclipid>
            <file id="A">
              <name>A.png</name>
              <pathurl>D:/Codes/SynthLip/SynthLipN/bin/Debug/net6.0-windows/Skin/template/A.png</pathurl>
              <rate>
                <ntsc>FALSE</ntsc>
                <timebase>25</timebase>
              </rate>
              <duration>2</duration>
              <width>1920</width>
              <height>1080</height>
              <media>
                <video>
                  <duration>2</duration>
                  <stillframe>TRUE</stillframe>
                  <samplecharacteristics>
                    <rate>
                      <ntsc>FALSE</ntsc>
                      <timebase>25</timebase>
                    </rate>
                    <width>1920</width>
                    <height>1080</height>
                    <pixelaspectratio>Square</pixelaspectratio>
                    <anamorphic>FALSE</anamorphic>
                  </samplecharacteristics>
                </video>
              </media>
            </file>
            <sourcetrack>
              <mediatype>video</mediatype>
            </sourcetrack>
            <fielddominance>none</fielddominance>
          </clipitem>
          <clipitem id="A.png611">
            <name>A.png</name>
            <duration>5</duration>
            <rate>
              <ntsc>FALSE</ntsc>
              <timebase>25</timebase>
            </rate>
            <in>91996</in>
            <out>92001</out>
            <start>1996</start>
            <end>2001</end>
            <pixelaspectratio>Square</pixelaspectratio>
            <stillframe>TRUE</stillframe>
            <anamorphic>FALSE</anamorphic>
            <alphatype>straight</alphatype>
            <masterclipid>A.png611</masterclipid>
            <file id="A">
              <name>A.png</name>
              <pathurl>D:/Codes/SynthLip/SynthLipN/bin/Debug/net6.0-windows/Skin/template/A.png</pathurl>
              <rate>
                <ntsc>FALSE</ntsc>
                <timebase>25</timebase>
              </rate>
              <duration>2</duration>
              <width>1920</width>
              <height>1080</height>
              <media>
                <video>
                  <duration>2</duration>
                  <stillframe>TRUE</stillframe>
                  <samplecharacteristics>
                    <rate>
                      <ntsc>FALSE</ntsc>
                      <timebase>25</timebase>
                    </rate>
                    <width>1920</width>
                    <height>1080</height>
                    <pixelaspectratio>Square</pixelaspectratio>
                    <anamorphic>FALSE</anamorphic>
                  </samplecharacteristics>
                </video>
              </media>
            </file>
            <sourcetrack>
              <mediatype>video</mediatype>
            </sourcetrack>
            <fielddominance>none</fielddominance>
          </clipitem>
          <clipitem id="C.png607">
            <name>C.png</name>
            <duration>3</duration>
            <rate>
              <ntsc>FALSE</ntsc>
              <timebase>25</timebase>
            </rate>
            <in>91991</in>
            <out>91994</out>
            <start>1991</start>
            <end>1994</end>
            <pixelaspectratio>Square</pixelaspectratio>
            <stillframe>TRUE</stillframe>
            <anamorphic>FALSE</anamorphic>
            <alphatype>straight</alphatype>
            <masterclipid>C.png607</masterclipid>
            <file id="C">
              <name>C.png</name>
              <pathurl>D:/Codes/SynthLip/SynthLipN/bin/Debug/net6.0-windows/Skin/template/C.png</pathurl>
              <rate>
                <ntsc>FALSE</ntsc>
                <timebase>25</timebase>
              </rate>
              <duration>2</duration>
              <width>1920</width>
              <height>1080</height>
              <media>
                <video>
                  <duration>2</duration>
                  <stillframe>TRUE</stillframe>
                  <samplecharacteristics>
                    <rate>
                      <ntsc>FALSE</ntsc>
                      <timebase>25</timebase>
                    </rate>
                    <width>1920</width>
                    <height>1080</height>
                    <pixelaspectratio>Square</pixelaspectratio>
                    <anamorphic>FALSE</anamorphic>
                  </samplecharacteristics>
                </video>
              </media>
            </file>
            <sourcetrack>
              <mediatype>video</mediatype>
            </sourcetrack>
            <fielddominance>none</fielddominance>
          </clipitem>
          <clipitem id="B.png606">
            <name>B.png</name>
            <duration>3</duration>
            <rate>
              <ntsc>FALSE</ntsc>
              <timebase>25</timebase>
            </rate>
            <in>91987</in>
            <out>91990</out>
            <start>1987</start>
            <end>1990</end>
            <pixelaspectratio>Square</pixelaspectratio>
            <stillframe>TRUE</stillframe>
            <anamorphic>FALSE</anamorphic>
            <alphatype>straight</alphatype>
            <masterclipid>B.png606</masterclipid>
            <file id="B">
              <name>B.png</name>
              <pathurl>D:/Codes/SynthLip/SynthLipN/bin/Debug/net6.0-windows/Skin/template/B.png</pathurl>
              <rate>
                <ntsc>FALSE</ntsc>
                <timebase>25</timebase>
              </rate>
              <duration>2</duration>
              <width>1920</width>
              <height>1080</height>
              <media>
                <video>
                  <duration>2</duration>
                  <stillframe>TRUE</stillframe>
                  <samplecharacteristics>
                    <rate>
                      <ntsc>FALSE</ntsc>
                      <timebase>25</timebase>
                    </rate>
                    <width>1920</width>
                    <height>1080</height>
                    <pixelaspectratio>Square</pixelaspectratio>
                    <anamorphic>FALSE</anamorphic>
                  </samplecharacteristics>
                </video>
              </media>
            </file>
            <sourcetrack>
              <mediatype>video</mediatype>
            </sourcetrack>
            <fielddominance>none</fielddominance>
          </clipitem>
          <clipitem id="C.png605">
            <name>C.png</name>
            <duration>2</duration>
            <rate>
              <ntsc>FALSE</ntsc>
              <timebase>25</timebase>
            </rate>
            <in>91985</in>
            <out>91987</out>
            <start>1985</start>
            <end>1987</end>
            <pixelaspectratio>Square</pixelaspectratio>
            <stillframe>TRUE</stillframe>
            <anamorphic>FALSE</anamorphic>
            <alphatype>straight</alphatype>
            <masterclipid>C.png605</masterclipid>
            <file id="C">
              <name>C.png</name>
              <pathurl>D:/Codes/SynthLip/SynthLipN/bin/Debug/net6.0-windows/Skin/template/C.png</pathurl>
              <rate>
                <ntsc>FALSE</ntsc>
                <timebase>25</timebase>
              </rate>
              <duration>2</duration>
              <width>1920</width>
              <height>1080</height>
              <media>
                <video>
                  <duration>2</duration>
                  <stillframe>TRUE</stillframe>
                  <samplecharacteristics>
                    <rate>
                      <ntsc>FALSE</ntsc>
                      <timebase>25</timebase>
                    </rate>
                    <width>1920</width>
                    <height>1080</height>
                    <pixelaspectratio>Square</pixelaspectratio>
                    <anamorphic>FALSE</anamorphic>
                  </samplecharacteristics>
                </video>
              </media>
            </file>
            <sourcetrack>
              <mediatype>video</mediatype>
            </sourcetrack>
            <fielddominance>none</fielddominance>
          </clipitem>
          <clipitem id="B.png604">
            <name>B.png</name>
            <duration>2</duration>
            <rate>
              <ntsc>FALSE</ntsc>
              <timebase>25</timebase>
            </rate>
            <in>91982</in>
            <out>91984</out>
            <start>1982</start>
            <end>1984</end>
            <pixelaspectratio>Square</pixelaspectratio>
            <stillframe>TRUE</stillframe>
            <anamorphic>FALSE</anamorphic>
            <alphatype>straight</alphatype>
            <masterclipid>B.png604</masterclipid>
            <file id="B">
              <name>B.png</name>
              <pathurl>D:/Codes/SynthLip/SynthLipN/bin/Debug/net6.0-windows/Skin/template/B.png</pathurl>
              <rate>
                <ntsc>FALSE</ntsc>
                <timebase>25</timebase>
              </rate>
              <duration>2</duration>
              <width>1920</width>
              <height>1080</height>
              <media>
                <video>
                  <duration>2</duration>
                  <stillframe>TRUE</stillframe>
                  <samplecharacteristics>
                    <rate>
                      <ntsc>FALSE</ntsc>
                      <timebase>25</timebase>
                    </rate>
                    <width>1920</width>
                    <height>1080</height>
                    <pixelaspectratio>Square</pixelaspectratio>
                    <anamorphic>FALSE</anamorphic>
                  </samplecharacteristics>
                </video>
              </media>
            </file>
            <sourcetrack>
              <mediatype>video</mediatype>
            </sourcetrack>
            <fielddominance>none</fielddominance>
          </clipitem>
          <clipitem id="D.png603">
            <name>D.png</name>
            <duration>2</duration>
            <rate>
              <ntsc>FALSE</ntsc>
              <timebase>25</timebase>
            </rate>
            <in>91980</in>
            <out>91982</out>
            <start>1980</start>
            <end>1982</end>
            <pixelaspectratio>Square</pixelaspectratio>
            <stillframe>TRUE</stillframe>
            <anamorphic>FALSE</anamorphic>
            <alphatype>straight</alphatype>
            <masterclipid>D.png603</masterclipid>
            <file id="D">
              <name>D.png</name>
              <pathurl>D:/Codes/SynthLip/SynthLipN/bin/Debug/net6.0-windows/Skin/template/D.png</pathurl>
              <rate>
                <ntsc>FALSE</ntsc>
                <timebase>25</timebase>
              </rate>
              <duration>2</duration>
              <width>1920</width>
              <height>1080</height>
              <media>
                <video>
                  <duration>2</duration>
                  <stillframe>TRUE</stillframe>
                  <samplecharacteristics>
                    <rate>
                      <ntsc>FALSE</ntsc>
                      <timebase>25</timebase>
                    </rate>
                    <width>1920</width>
                    <height>1080</height>
                    <pixelaspectratio>Square</pixelaspectratio>
                    <anamorphic>FALSE</anamorphic>
                  </samplecharacteristics>
                </video>
              </media>
            </file>
            <sourcetrack>
              <mediatype>video</mediatype>
            </sourcetrack>
            <fielddominance>none</fielddominance>
          </clipitem>
          <clipitem id="D.png602">
            <name>D.png</name>
            <duration>2</duration>
            <rate>
              <ntsc>FALSE</ntsc>
              <timebase>25</timebase>
            </rate>
            <in>91977</in>
            <out>91979</out>
            <start>1977</start>
            <end>1979</end>
            <pixelaspectratio>Square</pixelaspectratio>
            <stillframe>TRUE</stillframe>
            <anamorphic>FALSE</anamorphic>
            <alphatype>straight</alphatype>
            <masterclipid>D.png602</masterclipid>
            <file id="D">
              <name>D.png</name>
              <pathurl>D:/Codes/SynthLip/SynthLipN/bin/Debug/net6.0-windows/Skin/template/D.png</pathurl>
              <rate>
                <ntsc>FALSE</ntsc>
                <timebase>25</timebase>
              </rate>
              <duration>2</duration>
              <width>1920</width>
              <height>1080</height>
              <media>
                <video>
                  <duration>2</duration>
                  <stillframe>TRUE</stillframe>
                  <samplecharacteristics>
                    <rate>
                      <ntsc>FALSE</ntsc>
                      <timebase>25</timebase>
                    </rate>
                    <width>1920</width>
                    <height>1080</height>
                    <pixelaspectratio>Square</pixelaspectratio>
                    <anamorphic>FALSE</anamorphic>
                  </samplecharacteristics>
                </video>
              </media>
            </file>
            <sourcetrack>
              <mediatype>video</mediatype>
            </sourcetrack>
            <fielddominance>none</fielddominance>
          </clipitem>
          <clipitem id="A.png601">
            <name>A.png</name>
            <duration>2</duration>
            <rate>
              <ntsc>FALSE</ntsc>
              <timebase>25</timebase>
            </rate>
            <in>91975</in>
            <out>91977</out>
            <start>1975</start>
            <end>1977</end>
            <pixelaspectratio>Square</pixelaspectratio>
            <stillframe>TRUE</stillframe>
            <anamorphic>FALSE</anamorphic>
            <alphatype>straight</alphatype>
            <masterclipid>A.png601</masterclipid>
            <file id="A">
              <name>A.png</name>
              <pathurl>D:/Codes/SynthLip/SynthLipN/bin/Debug/net6.0-windows/Skin/template/A.png</pathurl>
              <rate>
                <ntsc>FALSE</ntsc>
                <timebase>25</timebase>
              </rate>
              <duration>2</duration>
              <width>1920</width>
              <height>1080</height>
              <media>
                <video>
                  <duration>2</duration>
                  <stillframe>TRUE</stillframe>
                  <samplecharacteristics>
                    <rate>
                      <ntsc>FALSE</ntsc>
                      <timebase>25</timebase>
                    </rate>
                    <width>1920</width>
                    <height>1080</height>
                    <pixelaspectratio>Square</pixelaspectratio>
                    <anamorphic>FALSE</anamorphic>
                  </samplecharacteristics>
                </video>
              </media>
            </file>
            <sourcetrack>
              <mediatype>video</mediatype>
            </sourcetrack>
            <fielddominance>none</fielddominance>
          </clipitem>
          <clipitem id="B.png600">
            <name>B.png</name>
            <duration>2</duration>
            <rate>
              <ntsc>FALSE</ntsc>
              <timebase>25</timebase>
            </rate>
            <in>91972</in>
            <out>91974</out>
            <start>1972</start>
            <end>1974</end>
            <pixelaspectratio>Square</pixelaspectratio>
            <stillframe>TRUE</stillframe>
            <anamorphic>FALSE</anamorphic>
            <alphatype>straight</alphatype>
            <masterclipid>B.png600</masterclipid>
            <file id="B">
              <name>B.png</name>
              <pathurl>D:/Codes/SynthLip/SynthLipN/bin/Debug/net6.0-windows/Skin/template/B.png</pathurl>
              <rate>
                <ntsc>FALSE</ntsc>
                <timebase>25</timebase>
              </rate>
              <duration>2</duration>
              <width>1920</width>
              <height>1080</height>
              <media>
                <video>
                  <duration>2</duration>
                  <stillframe>TRUE</stillframe>
                  <samplecharacteristics>
                    <rate>
                      <ntsc>FALSE</ntsc>
                      <timebase>25</timebase>
                    </rate>
                    <width>1920</width>
                    <height>1080</height>
                    <pixelaspectratio>Square</pixelaspectratio>
                    <anamorphic>FALSE</anamorphic>
                  </samplecharacteristics>
                </video>
              </media>
            </file>
            <sourcetrack>
              <mediatype>video</mediatype>
            </sourcetrack>
            <fielddominance>none</fielddominance>
          </clipitem>
          <clipitem id="F.png599">
            <name>F.png</name>
            <duration>2</duration>
            <rate>
              <ntsc>FALSE</ntsc>
              <timebase>25</timebase>
            </rate>
            <in>91970</in>
            <out>91972</out>
            <start>1970</start>
            <end>1972</end>
            <pixelaspectratio>Square</pixelaspectratio>
            <stillframe>TRUE</stillframe>
            <anamorphic>FALSE</anamorphic>
            <alphatype>straight</alphatype>
            <masterclipid>F.png599</masterclipid>
            <file id="F">
              <name>F.png</name>
              <pathurl>D:/Codes/SynthLip/SynthLipN/bin/Debug/net6.0-windows/Skin/template/F.png</pathurl>
              <rate>
                <ntsc>FALSE</ntsc>
                <timebase>25</timebase>
              </rate>
              <duration>2</duration>
              <width>1920</width>
              <height>1080</height>
              <media>
                <video>
                  <duration>2</duration>
                  <stillframe>TRUE</stillframe>
                  <samplecharacteristics>
                    <rate>
                      <ntsc>FALSE</ntsc>
                      <timebase>25</timebase>
                    </rate>
                    <width>1920</width>
                    <height>1080</height>
                    <pixelaspectratio>Square</pixelaspectratio>
                    <anamorphic>FALSE</anamorphic>
                  </samplecharacteristics>
                </video>
              </media>
            </file>
            <sourcetrack>
              <mediatype>video</mediatype>
            </sourcetrack>
            <fielddominance>none</fielddominance>
          </clipitem>
          <clipitem id="B.png598">
            <name>B.png</name>
            <duration>2</duration>
            <rate>
              <ntsc>FALSE</ntsc>
              <timebase>25</timebase>
            </rate>
            <in>91967</in>
            <out>91969</out>
            <start>1967</start>
            <end>1969</end>
            <pixelaspectratio>Square</pixelaspectratio>
            <stillframe>TRUE</stillframe>
            <anamorphic>FALSE</anamorphic>
            <alphatype>straight</alphatype>
            <masterclipid>B.png598</masterclipid>
            <file id="B">
              <name>B.png</name>
              <pathurl>D:/Codes/SynthLip/SynthLipN/bin/Debug/net6.0-windows/Skin/template/B.png</pathurl>
              <rate>
                <ntsc>FALSE</ntsc>
                <timebase>25</timebase>
              </rate>
              <duration>2</duration>
              <width>1920</width>
              <height>1080</height>
              <media>
                <video>
                  <duration>2</duration>
                  <stillframe>TRUE</stillframe>
                  <samplecharacteristics>
                    <rate>
                      <ntsc>FALSE</ntsc>
                      <timebase>25</timebase>
                    </rate>
                    <width>1920</width>
                    <height>1080</height>
                    <pixelaspectratio>Square</pixelaspectratio>
                    <anamorphic>FALSE</anamorphic>
                  </samplecharacteristics>
                </video>
              </media>
            </file>
            <sourcetrack>
              <mediatype>video</mediatype>
            </sourcetrack>
            <fielddominance>none</fielddominance>
          </clipitem>
          <clipitem id="A.png597">
            <name>A.png</name>
            <duration>2</duration>
            <rate>
              <ntsc>FALSE</ntsc>
              <timebase>25</timebase>
            </rate>
            <in>91964</in>
            <out>91966</out>
            <start>1964</start>
            <end>1966</end>
            <pixelaspectratio>Square</pixelaspectratio>
            <stillframe>TRUE</stillframe>
            <anamorphic>FALSE</anamorphic>
            <alphatype>straight</alphatype>
            <masterclipid>A.png597</masterclipid>
            <file id="A">
              <name>A.png</name>
              <pathurl>D:/Codes/SynthLip/SynthLipN/bin/Debug/net6.0-windows/Skin/template/A.png</pathurl>
              <rate>
                <ntsc>FALSE</ntsc>
                <timebase>25</timebase>
              </rate>
              <duration>2</duration>
              <width>1920</width>
              <height>1080</height>
              <media>
                <video>
                  <duration>2</duration>
                  <stillframe>TRUE</stillframe>
                  <samplecharacteristics>
                    <rate>
                      <ntsc>FALSE</ntsc>
                      <timebase>25</timebase>
                    </rate>
                    <width>1920</width>
                    <height>1080</height>
                    <pixelaspectratio>Square</pixelaspectratio>
                    <anamorphic>FALSE</anamorphic>
                  </samplecharacteristics>
                </video>
              </media>
            </file>
            <sourcetrack>
              <mediatype>video</mediatype>
            </sourcetrack>
            <fielddominance>none</fielddominance>
          </clipitem>
          <clipitem id="F.png596">
            <name>F.png</name>
            <duration>5</duration>
            <rate>
              <ntsc>FALSE</ntsc>
              <timebase>25</timebase>
            </rate>
            <in>91959</in>
            <out>91964</out>
            <start>1959</start>
            <end>1964</end>
            <pixelaspectratio>Square</pixelaspectratio>
            <stillframe>TRUE</stillframe>
            <anamorphic>FALSE</anamorphic>
            <alphatype>straight</alphatype>
            <masterclipid>F.png596</masterclipid>
            <file id="F">
              <name>F.png</name>
              <pathurl>D:/Codes/SynthLip/SynthLipN/bin/Debug/net6.0-windows/Skin/template/F.png</pathurl>
              <rate>
                <ntsc>FALSE</ntsc>
                <timebase>25</timebase>
              </rate>
              <duration>2</duration>
              <width>1920</width>
              <height>1080</height>
              <media>
                <video>
                  <duration>2</duration>
                  <stillframe>TRUE</stillframe>
                  <samplecharacteristics>
                    <rate>
                      <ntsc>FALSE</ntsc>
                      <timebase>25</timebase>
                    </rate>
                    <width>1920</width>
                    <height>1080</height>
                    <pixelaspectratio>Square</pixelaspectratio>
                    <anamorphic>FALSE</anamorphic>
                  </samplecharacteristics>
                </video>
              </media>
            </file>
            <sourcetrack>
              <mediatype>video</mediatype>
            </sourcetrack>
            <fielddominance>none</fielddominance>
          </clipitem>
          <clipitem id="C.png593">
            <name>C.png</name>
            <duration>3</duration>
            <rate>
              <ntsc>FALSE</ntsc>
              <timebase>25</timebase>
            </rate>
            <in>91953</in>
            <out>91956</out>
            <start>1953</start>
            <end>1956</end>
            <pixelaspectratio>Square</pixelaspectratio>
            <stillframe>TRUE</stillframe>
            <anamorphic>FALSE</anamorphic>
            <alphatype>straight</alphatype>
            <masterclipid>C.png593</masterclipid>
            <file id="C">
              <name>C.png</name>
              <pathurl>D:/Codes/SynthLip/SynthLipN/bin/Debug/net6.0-windows/Skin/template/C.png</pathurl>
              <rate>
                <ntsc>FALSE</ntsc>
                <timebase>25</timebase>
              </rate>
              <duration>2</duration>
              <width>1920</width>
              <height>1080</height>
              <media>
                <video>
                  <duration>2</duration>
                  <stillframe>TRUE</stillframe>
                  <samplecharacteristics>
                    <rate>
                      <ntsc>FALSE</ntsc>
                      <timebase>25</timebase>
                    </rate>
                    <width>1920</width>
                    <height>1080</height>
                    <pixelaspectratio>Square</pixelaspectratio>
                    <anamorphic>FALSE</anamorphic>
                  </samplecharacteristics>
                </video>
              </media>
            </file>
            <sourcetrack>
              <mediatype>video</mediatype>
            </sourcetrack>
            <fielddominance>none</fielddominance>
          </clipitem>
          <clipitem id="B.png592">
            <name>B.png</name>
            <duration>1</duration>
            <rate>
              <ntsc>FALSE</ntsc>
              <timebase>25</timebase>
            </rate>
            <in>91951</in>
            <out>91952</out>
            <start>1951</start>
            <end>1952</end>
            <pixelaspectratio>Square</pixelaspectratio>
            <stillframe>TRUE</stillframe>
            <anamorphic>FALSE</anamorphic>
            <alphatype>straight</alphatype>
            <masterclipid>B.png592</masterclipid>
            <file id="B">
              <name>B.png</name>
              <pathurl>D:/Codes/SynthLip/SynthLipN/bin/Debug/net6.0-windows/Skin/template/B.png</pathurl>
              <rate>
                <ntsc>FALSE</ntsc>
                <timebase>25</timebase>
              </rate>
              <duration>2</duration>
              <width>1920</width>
              <height>1080</height>
              <media>
                <video>
                  <duration>2</duration>
                  <stillframe>TRUE</stillframe>
                  <samplecharacteristics>
                    <rate>
                      <ntsc>FALSE</ntsc>
                      <timebase>25</timebase>
                    </rate>
                    <width>1920</width>
                    <height>1080</height>
                    <pixelaspectratio>Square</pixelaspectratio>
                    <anamorphic>FALSE</anamorphic>
                  </samplecharacteristics>
                </video>
              </media>
            </file>
            <sourcetrack>
              <mediatype>video</mediatype>
            </sourcetrack>
            <fielddominance>none</fielddominance>
          </clipitem>
          <clipitem id="F.png591">
            <name>F.png</name>
            <duration>9</duration>
            <rate>
              <ntsc>FALSE</ntsc>
              <timebase>25</timebase>
            </rate>
            <in>91942</in>
            <out>91951</out>
            <start>1942</start>
            <end>1951</end>
            <pixelaspectratio>Square</pixelaspectratio>
            <stillframe>TRUE</stillframe>
            <anamorphic>FALSE</anamorphic>
            <alphatype>straight</alphatype>
            <masterclipid>F.png591</masterclipid>
            <file id="F">
              <name>F.png</name>
              <pathurl>D:/Codes/SynthLip/SynthLipN/bin/Debug/net6.0-windows/Skin/template/F.png</pathurl>
              <rate>
                <ntsc>FALSE</ntsc>
                <timebase>25</timebase>
              </rate>
              <duration>2</duration>
              <width>1920</width>
              <height>1080</height>
              <media>
                <video>
                  <duration>2</duration>
                  <stillframe>TRUE</stillframe>
                  <samplecharacteristics>
                    <rate>
                      <ntsc>FALSE</ntsc>
                      <timebase>25</timebase>
                    </rate>
                    <width>1920</width>
                    <height>1080</height>
                    <pixelaspectratio>Square</pixelaspectratio>
                    <anamorphic>FALSE</anamorphic>
                  </samplecharacteristics>
                </video>
              </media>
            </file>
            <sourcetrack>
              <mediatype>video</mediatype>
            </sourcetrack>
            <fielddominance>none</fielddominance>
          </clipitem>
          <clipitem id="B.png590">
            <name>B.png</name>
            <duration>3</duration>
            <rate>
              <ntsc>FALSE</ntsc>
              <timebase>25</timebase>
            </rate>
            <in>91938</in>
            <out>91941</out>
            <start>1938</start>
            <end>1941</end>
            <pixelaspectratio>Square</pixelaspectratio>
            <stillframe>TRUE</stillframe>
            <anamorphic>FALSE</anamorphic>
            <alphatype>straight</alphatype>
            <masterclipid>B.png590</masterclipid>
            <file id="B">
              <name>B.png</name>
              <pathurl>D:/Codes/SynthLip/SynthLipN/bin/Debug/net6.0-windows/Skin/template/B.png</pathurl>
              <rate>
                <ntsc>FALSE</ntsc>
                <timebase>25</timebase>
              </rate>
              <duration>2</duration>
              <width>1920</width>
              <height>1080</height>
              <media>
                <video>
                  <duration>2</duration>
                  <stillframe>TRUE</stillframe>
                  <samplecharacteristics>
                    <rate>
                      <ntsc>FALSE</ntsc>
                      <timebase>25</timebase>
                    </rate>
                    <width>1920</width>
                    <height>1080</height>
                    <pixelaspectratio>Square</pixelaspectratio>
                    <anamorphic>FALSE</anamorphic>
                  </samplecharacteristics>
                </video>
              </media>
            </file>
            <sourcetrack>
              <mediatype>video</mediatype>
            </sourcetrack>
            <fielddominance>none</fielddominance>
          </clipitem>
          <clipitem id="A.png589">
            <name>A.png</name>
            <duration>3</duration>
            <rate>
              <ntsc>FALSE</ntsc>
              <timebase>25</timebase>
            </rate>
            <in>91935</in>
            <out>91938</out>
            <start>1935</start>
            <end>1938</end>
            <pixelaspectratio>Square</pixelaspectratio>
            <stillframe>TRUE</stillframe>
            <anamorphic>FALSE</anamorphic>
            <alphatype>straight</alphatype>
            <masterclipid>A.png589</masterclipid>
            <file id="A">
              <name>A.png</name>
              <pathurl>D:/Codes/SynthLip/SynthLipN/bin/Debug/net6.0-windows/Skin/template/A.png</pathurl>
              <rate>
                <ntsc>FALSE</ntsc>
                <timebase>25</timebase>
              </rate>
              <duration>2</duration>
              <width>1920</width>
              <height>1080</height>
              <media>
                <video>
                  <duration>2</duration>
                  <stillframe>TRUE</stillframe>
                  <samplecharacteristics>
                    <rate>
                      <ntsc>FALSE</ntsc>
                      <timebase>25</timebase>
                    </rate>
                    <width>1920</width>
                    <height>1080</height>
                    <pixelaspectratio>Square</pixelaspectratio>
                    <anamorphic>FALSE</anamorphic>
                  </samplecharacteristics>
                </video>
              </media>
            </file>
            <sourcetrack>
              <mediatype>video</mediatype>
            </sourcetrack>
            <fielddominance>none</fielddominance>
          </clipitem>
          <clipitem id="A.png588">
            <name>A.png</name>
            <duration>3</duration>
            <rate>
              <ntsc>FALSE</ntsc>
              <timebase>25</timebase>
            </rate>
            <in>91931</in>
            <out>91934</out>
            <start>1931</start>
            <end>1934</end>
            <pixelaspectratio>Square</pixelaspectratio>
            <stillframe>TRUE</stillframe>
            <anamorphic>FALSE</anamorphic>
            <alphatype>straight</alphatype>
            <masterclipid>A.png588</masterclipid>
            <file id="A">
              <name>A.png</name>
              <pathurl>D:/Codes/SynthLip/SynthLipN/bin/Debug/net6.0-windows/Skin/template/A.png</pathurl>
              <rate>
                <ntsc>FALSE</ntsc>
                <timebase>25</timebase>
              </rate>
              <duration>2</duration>
              <width>1920</width>
              <height>1080</height>
              <media>
                <video>
                  <duration>2</duration>
                  <stillframe>TRUE</stillframe>
                  <samplecharacteristics>
                    <rate>
                      <ntsc>FALSE</ntsc>
                      <timebase>25</timebase>
                    </rate>
                    <width>1920</width>
                    <height>1080</height>
                    <pixelaspectratio>Square</pixelaspectratio>
                    <anamorphic>FALSE</anamorphic>
                  </samplecharacteristics>
                </video>
              </media>
            </file>
            <sourcetrack>
              <mediatype>video</mediatype>
            </sourcetrack>
            <fielddominance>none</fielddominance>
          </clipitem>
          <clipitem id="F.png587">
            <name>F.png</name>
            <duration>1</duration>
            <rate>
              <ntsc>FALSE</ntsc>
              <timebase>25</timebase>
            </rate>
            <in>91929</in>
            <out>91930</out>
            <start>1929</start>
            <end>1930</end>
            <pixelaspectratio>Square</pixelaspectratio>
            <stillframe>TRUE</stillframe>
            <anamorphic>FALSE</anamorphic>
            <alphatype>straight</alphatype>
            <masterclipid>F.png587</masterclipid>
            <file id="F">
              <name>F.png</name>
              <pathurl>D:/Codes/SynthLip/SynthLipN/bin/Debug/net6.0-windows/Skin/template/F.png</pathurl>
              <rate>
                <ntsc>FALSE</ntsc>
                <timebase>25</timebase>
              </rate>
              <duration>2</duration>
              <width>1920</width>
              <height>1080</height>
              <media>
                <video>
                  <duration>2</duration>
                  <stillframe>TRUE</stillframe>
                  <samplecharacteristics>
                    <rate>
                      <ntsc>FALSE</ntsc>
                      <timebase>25</timebase>
                    </rate>
                    <width>1920</width>
                    <height>1080</height>
                    <pixelaspectratio>Square</pixelaspectratio>
                    <anamorphic>FALSE</anamorphic>
                  </samplecharacteristics>
                </video>
              </media>
            </file>
            <sourcetrack>
              <mediatype>video</mediatype>
            </sourcetrack>
            <fielddominance>none</fielddominance>
          </clipitem>
          <clipitem id="A.png584">
            <name>A.png</name>
            <duration>3</duration>
            <rate>
              <ntsc>FALSE</ntsc>
              <timebase>25</timebase>
            </rate>
            <in>91923</in>
            <out>91926</out>
            <start>1923</start>
            <end>1926</end>
            <pixelaspectratio>Square</pixelaspectratio>
            <stillframe>TRUE</stillframe>
            <anamorphic>FALSE</anamorphic>
            <alphatype>straight</alphatype>
            <masterclipid>A.png584</masterclipid>
            <file id="A">
              <name>A.png</name>
              <pathurl>D:/Codes/SynthLip/SynthLipN/bin/Debug/net6.0-windows/Skin/template/A.png</pathurl>
              <rate>
                <ntsc>FALSE</ntsc>
                <timebase>25</timebase>
              </rate>
              <duration>2</duration>
              <width>1920</width>
              <height>1080</height>
              <media>
                <video>
                  <duration>2</duration>
                  <stillframe>TRUE</stillframe>
                  <samplecharacteristics>
                    <rate>
                      <ntsc>FALSE</ntsc>
                      <timebase>25</timebase>
                    </rate>
                    <width>1920</width>
                    <height>1080</height>
                    <pixelaspectratio>Square</pixelaspectratio>
                    <anamorphic>FALSE</anamorphic>
                  </samplecharacteristics>
                </video>
              </media>
            </file>
            <sourcetrack>
              <mediatype>video</mediatype>
            </sourcetrack>
            <fielddominance>none</fielddominance>
          </clipitem>
          <clipitem id="A.png583">
            <name>A.png</name>
            <duration>3</duration>
            <rate>
              <ntsc>FALSE</ntsc>
              <timebase>25</timebase>
            </rate>
            <in>91920</in>
            <out>91923</out>
            <start>1920</start>
            <end>1923</end>
            <pixelaspectratio>Square</pixelaspectratio>
            <stillframe>TRUE</stillframe>
            <anamorphic>FALSE</anamorphic>
            <alphatype>straight</alphatype>
            <masterclipid>A.png583</masterclipid>
            <file id="A">
              <name>A.png</name>
              <pathurl>D:/Codes/SynthLip/SynthLipN/bin/Debug/net6.0-windows/Skin/template/A.png</pathurl>
              <rate>
                <ntsc>FALSE</ntsc>
                <timebase>25</timebase>
              </rate>
              <duration>2</duration>
              <width>1920</width>
              <height>1080</height>
              <media>
                <video>
                  <duration>2</duration>
                  <stillframe>TRUE</stillframe>
                  <samplecharacteristics>
                    <rate>
                      <ntsc>FALSE</ntsc>
                      <timebase>25</timebase>
                    </rate>
                    <width>1920</width>
                    <height>1080</height>
                    <pixelaspectratio>Square</pixelaspectratio>
                    <anamorphic>FALSE</anamorphic>
                  </samplecharacteristics>
                </video>
              </media>
            </file>
            <sourcetrack>
              <mediatype>video</mediatype>
            </sourcetrack>
            <fielddominance>none</fielddominance>
          </clipitem>
          <clipitem id="B.png582">
            <name>B.png</name>
            <duration>3</duration>
            <rate>
              <ntsc>FALSE</ntsc>
              <timebase>25</timebase>
            </rate>
            <in>91916</in>
            <out>91919</out>
            <start>1916</start>
            <end>1919</end>
            <pixelaspectratio>Square</pixelaspectratio>
            <stillframe>TRUE</stillframe>
            <anamorphic>FALSE</anamorphic>
            <alphatype>straight</alphatype>
            <masterclipid>B.png582</masterclipid>
            <file id="B">
              <name>B.png</name>
              <pathurl>D:/Codes/SynthLip/SynthLipN/bin/Debug/net6.0-windows/Skin/template/B.png</pathurl>
              <rate>
                <ntsc>FALSE</ntsc>
                <timebase>25</timebase>
              </rate>
              <duration>2</duration>
              <width>1920</width>
              <height>1080</height>
              <media>
                <video>
                  <duration>2</duration>
                  <stillframe>TRUE</stillframe>
                  <samplecharacteristics>
                    <rate>
                      <ntsc>FALSE</ntsc>
                      <timebase>25</timebase>
                    </rate>
                    <width>1920</width>
                    <height>1080</height>
                    <pixelaspectratio>Square</pixelaspectratio>
                    <anamorphic>FALSE</anamorphic>
                  </samplecharacteristics>
                </video>
              </media>
            </file>
            <sourcetrack>
              <mediatype>video</mediatype>
            </sourcetrack>
            <fielddominance>none</fielddominance>
          </clipitem>
          <clipitem id="C.png581">
            <name>C.png</name>
            <duration>1</duration>
            <rate>
              <ntsc>FALSE</ntsc>
              <timebase>25</timebase>
            </rate>
            <in>91915</in>
            <out>91916</out>
            <start>1915</start>
            <end>1916</end>
            <pixelaspectratio>Square</pixelaspectratio>
            <stillframe>TRUE</stillframe>
            <anamorphic>FALSE</anamorphic>
            <alphatype>straight</alphatype>
            <masterclipid>C.png581</masterclipid>
            <file id="C">
              <name>C.png</name>
              <pathurl>D:/Codes/SynthLip/SynthLipN/bin/Debug/net6.0-windows/Skin/template/C.png</pathurl>
              <rate>
                <ntsc>FALSE</ntsc>
                <timebase>25</timebase>
              </rate>
              <duration>2</duration>
              <width>1920</width>
              <height>1080</height>
              <media>
                <video>
                  <duration>2</duration>
                  <stillframe>TRUE</stillframe>
                  <samplecharacteristics>
                    <rate>
                      <ntsc>FALSE</ntsc>
                      <timebase>25</timebase>
                    </rate>
                    <width>1920</width>
                    <height>1080</height>
                    <pixelaspectratio>Square</pixelaspectratio>
                    <anamorphic>FALSE</anamorphic>
                  </samplecharacteristics>
                </video>
              </media>
            </file>
            <sourcetrack>
              <mediatype>video</mediatype>
            </sourcetrack>
            <fielddominance>none</fielddominance>
          </clipitem>
          <clipitem id="G.png580">
            <name>G.png</name>
            <duration>1</duration>
            <rate>
              <ntsc>FALSE</ntsc>
              <timebase>25</timebase>
            </rate>
            <in>91913</in>
            <out>91914</out>
            <start>1913</start>
            <end>1914</end>
            <pixelaspectratio>Square</pixelaspectratio>
            <stillframe>TRUE</stillframe>
            <anamorphic>FALSE</anamorphic>
            <alphatype>straight</alphatype>
            <masterclipid>G.png580</masterclipid>
            <file id="G">
              <name>G.png</name>
              <pathurl>D:/Codes/SynthLip/SynthLipN/bin/Debug/net6.0-windows/Skin/template/G.png</pathurl>
              <rate>
                <ntsc>FALSE</ntsc>
                <timebase>25</timebase>
              </rate>
              <duration>2</duration>
              <width>1920</width>
              <height>1080</height>
              <media>
                <video>
                  <duration>2</duration>
                  <stillframe>TRUE</stillframe>
                  <samplecharacteristics>
                    <rate>
                      <ntsc>FALSE</ntsc>
                      <timebase>25</timebase>
                    </rate>
                    <width>1920</width>
                    <height>1080</height>
                    <pixelaspectratio>Square</pixelaspectratio>
                    <anamorphic>FALSE</anamorphic>
                  </samplecharacteristics>
                </video>
              </media>
            </file>
            <sourcetrack>
              <mediatype>video</mediatype>
            </sourcetrack>
            <fielddominance>none</fielddominance>
          </clipitem>
          <clipitem id="A.png579">
            <name>A.png</name>
            <duration>1</duration>
            <rate>
              <ntsc>FALSE</ntsc>
              <timebase>25</timebase>
            </rate>
            <in>91912</in>
            <out>91913</out>
            <start>1912</start>
            <end>1913</end>
            <pixelaspectratio>Square</pixelaspectratio>
            <stillframe>TRUE</stillframe>
            <anamorphic>FALSE</anamorphic>
            <alphatype>straight</alphatype>
            <masterclipid>A.png579</masterclipid>
            <file id="A">
              <name>A.png</name>
              <pathurl>D:/Codes/SynthLip/SynthLipN/bin/Debug/net6.0-windows/Skin/template/A.png</pathurl>
              <rate>
                <ntsc>FALSE</ntsc>
                <timebase>25</timebase>
              </rate>
              <duration>2</duration>
              <width>1920</width>
              <height>1080</height>
              <media>
                <video>
                  <duration>2</duration>
                  <stillframe>TRUE</stillframe>
                  <samplecharacteristics>
                    <rate>
                      <ntsc>FALSE</ntsc>
                      <timebase>25</timebase>
                    </rate>
                    <width>1920</width>
                    <height>1080</height>
                    <pixelaspectratio>Square</pixelaspectratio>
                    <anamorphic>FALSE</anamorphic>
                  </samplecharacteristics>
                </video>
              </media>
            </file>
            <sourcetrack>
              <mediatype>video</mediatype>
            </sourcetrack>
            <fielddominance>none</fielddominance>
          </clipitem>
          <clipitem id="D.png578">
            <name>D.png</name>
            <duration>2</duration>
            <rate>
              <ntsc>FALSE</ntsc>
              <timebase>25</timebase>
            </rate>
            <in>91910</in>
            <out>91912</out>
            <start>1910</start>
            <end>1912</end>
            <pixelaspectratio>Square</pixelaspectratio>
            <stillframe>TRUE</stillframe>
            <anamorphic>FALSE</anamorphic>
            <alphatype>straight</alphatype>
            <masterclipid>D.png578</masterclipid>
            <file id="D">
              <name>D.png</name>
              <pathurl>D:/Codes/SynthLip/SynthLipN/bin/Debug/net6.0-windows/Skin/template/D.png</pathurl>
              <rate>
                <ntsc>FALSE</ntsc>
                <timebase>25</timebase>
              </rate>
              <duration>2</duration>
              <width>1920</width>
              <height>1080</height>
              <media>
                <video>
                  <duration>2</duration>
                  <stillframe>TRUE</stillframe>
                  <samplecharacteristics>
                    <rate>
                      <ntsc>FALSE</ntsc>
                      <timebase>25</timebase>
                    </rate>
                    <width>1920</width>
                    <height>1080</height>
                    <pixelaspectratio>Square</pixelaspectratio>
                    <anamorphic>FALSE</anamorphic>
                  </samplecharacteristics>
                </video>
              </media>
            </file>
            <sourcetrack>
              <mediatype>video</mediatype>
            </sourcetrack>
            <fielddominance>none</fielddominance>
          </clipitem>
          <clipitem id="B.png577">
            <name>B.png</name>
            <duration>2</duration>
            <rate>
              <ntsc>FALSE</ntsc>
              <timebase>25</timebase>
            </rate>
            <in>91907</in>
            <out>91909</out>
            <start>1907</start>
            <end>1909</end>
            <pixelaspectratio>Square</pixelaspectratio>
            <stillframe>TRUE</stillframe>
            <anamorphic>FALSE</anamorphic>
            <alphatype>straight</alphatype>
            <masterclipid>B.png577</masterclipid>
            <file id="B">
              <name>B.png</name>
              <pathurl>D:/Codes/SynthLip/SynthLipN/bin/Debug/net6.0-windows/Skin/template/B.png</pathurl>
              <rate>
                <ntsc>FALSE</ntsc>
                <timebase>25</timebase>
              </rate>
              <duration>2</duration>
              <width>1920</width>
              <height>1080</height>
              <media>
                <video>
                  <duration>2</duration>
                  <stillframe>TRUE</stillframe>
                  <samplecharacteristics>
                    <rate>
                      <ntsc>FALSE</ntsc>
                      <timebase>25</timebase>
                    </rate>
                    <width>1920</width>
                    <height>1080</height>
                    <pixelaspectratio>Square</pixelaspectratio>
                    <anamorphic>FALSE</anamorphic>
                  </samplecharacteristics>
                </video>
              </media>
            </file>
            <sourcetrack>
              <mediatype>video</mediatype>
            </sourcetrack>
            <fielddominance>none</fielddominance>
          </clipitem>
          <clipitem id="B.png576">
            <name>B.png</name>
            <duration>2</duration>
            <rate>
              <ntsc>FALSE</ntsc>
              <timebase>25</timebase>
            </rate>
            <in>91905</in>
            <out>91907</out>
            <start>1905</start>
            <end>1907</end>
            <pixelaspectratio>Square</pixelaspectratio>
            <stillframe>TRUE</stillframe>
            <anamorphic>FALSE</anamorphic>
            <alphatype>straight</alphatype>
            <masterclipid>B.png576</masterclipid>
            <file id="B">
              <name>B.png</name>
              <pathurl>D:/Codes/SynthLip/SynthLipN/bin/Debug/net6.0-windows/Skin/template/B.png</pathurl>
              <rate>
                <ntsc>FALSE</ntsc>
                <timebase>25</timebase>
              </rate>
              <duration>2</duration>
              <width>1920</width>
              <height>1080</height>
              <media>
                <video>
                  <duration>2</duration>
                  <stillframe>TRUE</stillframe>
                  <samplecharacteristics>
                    <rate>
                      <ntsc>FALSE</ntsc>
                      <timebase>25</timebase>
                    </rate>
                    <width>1920</width>
                    <height>1080</height>
                    <pixelaspectratio>Square</pixelaspectratio>
                    <anamorphic>FALSE</anamorphic>
                  </samplecharacteristics>
                </video>
              </media>
            </file>
            <sourcetrack>
              <mediatype>video</mediatype>
            </sourcetrack>
            <fielddominance>none</fielddominance>
          </clipitem>
          <clipitem id="D.png575">
            <name>D.png</name>
            <duration>2</duration>
            <rate>
              <ntsc>FALSE</ntsc>
              <timebase>25</timebase>
            </rate>
            <in>91902</in>
            <out>91904</out>
            <start>1902</start>
            <end>1904</end>
            <pixelaspectratio>Square</pixelaspectratio>
            <stillframe>TRUE</stillframe>
            <anamorphic>FALSE</anamorphic>
            <alphatype>straight</alphatype>
            <masterclipid>D.png575</masterclipid>
            <file id="D">
              <name>D.png</name>
              <pathurl>D:/Codes/SynthLip/SynthLipN/bin/Debug/net6.0-windows/Skin/template/D.png</pathurl>
              <rate>
                <ntsc>FALSE</ntsc>
                <timebase>25</timebase>
              </rate>
              <duration>2</duration>
              <width>1920</width>
              <height>1080</height>
              <media>
                <video>
                  <duration>2</duration>
                  <stillframe>TRUE</stillframe>
                  <samplecharacteristics>
                    <rate>
                      <ntsc>FALSE</ntsc>
                      <timebase>25</timebase>
                    </rate>
                    <width>1920</width>
                    <height>1080</height>
                    <pixelaspectratio>Square</pixelaspectratio>
                    <anamorphic>FALSE</anamorphic>
                  </samplecharacteristics>
                </video>
              </media>
            </file>
            <sourcetrack>
              <mediatype>video</mediatype>
            </sourcetrack>
            <fielddominance>none</fielddominance>
          </clipitem>
          <clipitem id="B.png574">
            <name>B.png</name>
            <duration>2</duration>
            <rate>
              <ntsc>FALSE</ntsc>
              <timebase>25</timebase>
            </rate>
            <in>91900</in>
            <out>91902</out>
            <start>1900</start>
            <end>1902</end>
            <pixelaspectratio>Square</pixelaspectratio>
            <stillframe>TRUE</stillframe>
            <anamorphic>FALSE</anamorphic>
            <alphatype>straight</alphatype>
            <masterclipid>B.png574</masterclipid>
            <file id="B">
              <name>B.png</name>
              <pathurl>D:/Codes/SynthLip/SynthLipN/bin/Debug/net6.0-windows/Skin/template/B.png</pathurl>
              <rate>
                <ntsc>FALSE</ntsc>
                <timebase>25</timebase>
              </rate>
              <duration>2</duration>
              <width>1920</width>
              <height>1080</height>
              <media>
                <video>
                  <duration>2</duration>
                  <stillframe>TRUE</stillframe>
                  <samplecharacteristics>
                    <rate>
                      <ntsc>FALSE</ntsc>
                      <timebase>25</timebase>
                    </rate>
                    <width>1920</width>
                    <height>1080</height>
                    <pixelaspectratio>Square</pixelaspectratio>
                    <anamorphic>FALSE</anamorphic>
                  </samplecharacteristics>
                </video>
              </media>
            </file>
            <sourcetrack>
              <mediatype>video</mediatype>
            </sourcetrack>
            <fielddominance>none</fielddominance>
          </clipitem>
          <clipitem id="F.png573">
            <name>F.png</name>
            <duration>2</duration>
            <rate>
              <ntsc>FALSE</ntsc>
              <timebase>25</timebase>
            </rate>
            <in>91897</in>
            <out>91899</out>
            <start>1897</start>
            <end>1899</end>
            <pixelaspectratio>Square</pixelaspectratio>
            <stillframe>TRUE</stillframe>
            <anamorphic>FALSE</anamorphic>
            <alphatype>straight</alphatype>
            <masterclipid>F.png573</masterclipid>
            <file id="F">
              <name>F.png</name>
              <pathurl>D:/Codes/SynthLip/SynthLipN/bin/Debug/net6.0-windows/Skin/template/F.png</pathurl>
              <rate>
                <ntsc>FALSE</ntsc>
                <timebase>25</timebase>
              </rate>
              <duration>2</duration>
              <width>1920</width>
              <height>1080</height>
              <media>
                <video>
                  <duration>2</duration>
                  <stillframe>TRUE</stillframe>
                  <samplecharacteristics>
                    <rate>
                      <ntsc>FALSE</ntsc>
                      <timebase>25</timebase>
                    </rate>
                    <width>1920</width>
                    <height>1080</height>
                    <pixelaspectratio>Square</pixelaspectratio>
                    <anamorphic>FALSE</anamorphic>
                  </samplecharacteristics>
                </video>
              </media>
            </file>
            <sourcetrack>
              <mediatype>video</mediatype>
            </sourcetrack>
            <fielddominance>none</fielddominance>
          </clipitem>
          <clipitem id="A.png572">
            <name>A.png</name>
            <duration>3</duration>
            <rate>
              <ntsc>FALSE</ntsc>
              <timebase>25</timebase>
            </rate>
            <in>91893</in>
            <out>91896</out>
            <start>1893</start>
            <end>1896</end>
            <pixelaspectratio>Square</pixelaspectratio>
            <stillframe>TRUE</stillframe>
            <anamorphic>FALSE</anamorphic>
            <alphatype>straight</alphatype>
            <masterclipid>A.png572</masterclipid>
            <file id="A">
              <name>A.png</name>
              <pathurl>D:/Codes/SynthLip/SynthLipN/bin/Debug/net6.0-windows/Skin/template/A.png</pathurl>
              <rate>
                <ntsc>FALSE</ntsc>
                <timebase>25</timebase>
              </rate>
              <duration>2</duration>
              <width>1920</width>
              <height>1080</height>
              <media>
                <video>
                  <duration>2</duration>
                  <stillframe>TRUE</stillframe>
                  <samplecharacteristics>
                    <rate>
                      <ntsc>FALSE</ntsc>
                      <timebase>25</timebase>
                    </rate>
                    <width>1920</width>
                    <height>1080</height>
                    <pixelaspectratio>Square</pixelaspectratio>
                    <anamorphic>FALSE</anamorphic>
                  </samplecharacteristics>
                </video>
              </media>
            </file>
            <sourcetrack>
              <mediatype>video</mediatype>
            </sourcetrack>
            <fielddominance>none</fielddominance>
          </clipitem>
          <clipitem id="D.png571">
            <name>D.png</name>
            <duration>1</duration>
            <rate>
              <ntsc>FALSE</ntsc>
              <timebase>25</timebase>
            </rate>
            <in>91891</in>
            <out>91892</out>
            <start>1891</start>
            <end>1892</end>
            <pixelaspectratio>Square</pixelaspectratio>
            <stillframe>TRUE</stillframe>
            <anamorphic>FALSE</anamorphic>
            <alphatype>straight</alphatype>
            <masterclipid>D.png571</masterclipid>
            <file id="D">
              <name>D.png</name>
              <pathurl>D:/Codes/SynthLip/SynthLipN/bin/Debug/net6.0-windows/Skin/template/D.png</pathurl>
              <rate>
                <ntsc>FALSE</ntsc>
                <timebase>25</timebase>
              </rate>
              <duration>2</duration>
              <width>1920</width>
              <height>1080</height>
              <media>
                <video>
                  <duration>2</duration>
                  <stillframe>TRUE</stillframe>
                  <samplecharacteristics>
                    <rate>
                      <ntsc>FALSE</ntsc>
                      <timebase>25</timebase>
                    </rate>
                    <width>1920</width>
                    <height>1080</height>
                    <pixelaspectratio>Square</pixelaspectratio>
                    <anamorphic>FALSE</anamorphic>
                  </samplecharacteristics>
                </video>
              </media>
            </file>
            <sourcetrack>
              <mediatype>video</mediatype>
            </sourcetrack>
            <fielddominance>none</fielddominance>
          </clipitem>
          <clipitem id="B.png569">
            <name>B.png</name>
            <duration>8</duration>
            <rate>
              <ntsc>FALSE</ntsc>
              <timebase>25</timebase>
            </rate>
            <in>91882</in>
            <out>91890</out>
            <start>1882</start>
            <end>1890</end>
            <pixelaspectratio>Square</pixelaspectratio>
            <stillframe>TRUE</stillframe>
            <anamorphic>FALSE</anamorphic>
            <alphatype>straight</alphatype>
            <masterclipid>B.png569</masterclipid>
            <file id="B">
              <name>B.png</name>
              <pathurl>D:/Codes/SynthLip/SynthLipN/bin/Debug/net6.0-windows/Skin/template/B.png</pathurl>
              <rate>
                <ntsc>FALSE</ntsc>
                <timebase>25</timebase>
              </rate>
              <duration>2</duration>
              <width>1920</width>
              <height>1080</height>
              <media>
                <video>
                  <duration>2</duration>
                  <stillframe>TRUE</stillframe>
                  <samplecharacteristics>
                    <rate>
                      <ntsc>FALSE</ntsc>
                      <timebase>25</timebase>
                    </rate>
                    <width>1920</width>
                    <height>1080</height>
                    <pixelaspectratio>Square</pixelaspectratio>
                    <anamorphic>FALSE</anamorphic>
                  </samplecharacteristics>
                </video>
              </media>
            </file>
            <sourcetrack>
              <mediatype>video</mediatype>
            </sourcetrack>
            <fielddominance>none</fielddominance>
          </clipitem>
          <clipitem id="D.png568">
            <name>D.png</name>
            <duration>2</duration>
            <rate>
              <ntsc>FALSE</ntsc>
              <timebase>25</timebase>
            </rate>
            <in>91880</in>
            <out>91882</out>
            <start>1880</start>
            <end>1882</end>
            <pixelaspectratio>Square</pixelaspectratio>
            <stillframe>TRUE</stillframe>
            <anamorphic>FALSE</anamorphic>
            <alphatype>straight</alphatype>
            <masterclipid>D.png568</masterclipid>
            <file id="D">
              <name>D.png</name>
              <pathurl>D:/Codes/SynthLip/SynthLipN/bin/Debug/net6.0-windows/Skin/template/D.png</pathurl>
              <rate>
                <ntsc>FALSE</ntsc>
                <timebase>25</timebase>
              </rate>
              <duration>2</duration>
              <width>1920</width>
              <height>1080</height>
              <media>
                <video>
                  <duration>2</duration>
                  <stillframe>TRUE</stillframe>
                  <samplecharacteristics>
                    <rate>
                      <ntsc>FALSE</ntsc>
                      <timebase>25</timebase>
                    </rate>
                    <width>1920</width>
                    <height>1080</height>
                    <pixelaspectratio>Square</pixelaspectratio>
                    <anamorphic>FALSE</anamorphic>
                  </samplecharacteristics>
                </video>
              </media>
            </file>
            <sourcetrack>
              <mediatype>video</mediatype>
            </sourcetrack>
            <fielddominance>none</fielddominance>
          </clipitem>
          <clipitem id="B.png567">
            <name>B.png</name>
            <duration>2</duration>
            <rate>
              <ntsc>FALSE</ntsc>
              <timebase>25</timebase>
            </rate>
            <in>91877</in>
            <out>91879</out>
            <start>1877</start>
            <end>1879</end>
            <pixelaspectratio>Square</pixelaspectratio>
            <stillframe>TRUE</stillframe>
            <anamorphic>FALSE</anamorphic>
            <alphatype>straight</alphatype>
            <masterclipid>B.png567</masterclipid>
            <file id="B">
              <name>B.png</name>
              <pathurl>D:/Codes/SynthLip/SynthLipN/bin/Debug/net6.0-windows/Skin/template/B.png</pathurl>
              <rate>
                <ntsc>FALSE</ntsc>
                <timebase>25</timebase>
              </rate>
              <duration>2</duration>
              <width>1920</width>
              <height>1080</height>
              <media>
                <video>
                  <duration>2</duration>
                  <stillframe>TRUE</stillframe>
                  <samplecharacteristics>
                    <rate>
                      <ntsc>FALSE</ntsc>
                      <timebase>25</timebase>
                    </rate>
                    <width>1920</width>
                    <height>1080</height>
                    <pixelaspectratio>Square</pixelaspectratio>
                    <anamorphic>FALSE</anamorphic>
                  </samplecharacteristics>
                </video>
              </media>
            </file>
            <sourcetrack>
              <mediatype>video</mediatype>
            </sourcetrack>
            <fielddominance>none</fielddominance>
          </clipitem>
          <clipitem id="A.png566">
            <name>A.png</name>
            <duration>2</duration>
            <rate>
              <ntsc>FALSE</ntsc>
              <timebase>25</timebase>
            </rate>
            <in>91875</in>
            <out>91877</out>
            <start>1875</start>
            <end>1877</end>
            <pixelaspectratio>Square</pixelaspectratio>
            <stillframe>TRUE</stillframe>
            <anamorphic>FALSE</anamorphic>
            <alphatype>straight</alphatype>
            <masterclipid>A.png566</masterclipid>
            <file id="A">
              <name>A.png</name>
              <pathurl>D:/Codes/SynthLip/SynthLipN/bin/Debug/net6.0-windows/Skin/template/A.png</pathurl>
              <rate>
                <ntsc>FALSE</ntsc>
                <timebase>25</timebase>
              </rate>
              <duration>2</duration>
              <width>1920</width>
              <height>1080</height>
              <media>
                <video>
                  <duration>2</duration>
                  <stillframe>TRUE</stillframe>
                  <samplecharacteristics>
                    <rate>
                      <ntsc>FALSE</ntsc>
                      <timebase>25</timebase>
                    </rate>
                    <width>1920</width>
                    <height>1080</height>
                    <pixelaspectratio>Square</pixelaspectratio>
                    <anamorphic>FALSE</anamorphic>
                  </samplecharacteristics>
                </video>
              </media>
            </file>
            <sourcetrack>
              <mediatype>video</mediatype>
            </sourcetrack>
            <fielddominance>none</fielddominance>
          </clipitem>
          <clipitem id="A.png565">
            <name>A.png</name>
            <duration>3</duration>
            <rate>
              <ntsc>FALSE</ntsc>
              <timebase>25</timebase>
            </rate>
            <in>91871</in>
            <out>91874</out>
            <start>1871</start>
            <end>1874</end>
            <pixelaspectratio>Square</pixelaspectratio>
            <stillframe>TRUE</stillframe>
            <anamorphic>FALSE</anamorphic>
            <alphatype>straight</alphatype>
            <masterclipid>A.png565</masterclipid>
            <file id="A">
              <name>A.png</name>
              <pathurl>D:/Codes/SynthLip/SynthLipN/bin/Debug/net6.0-windows/Skin/template/A.png</pathurl>
              <rate>
                <ntsc>FALSE</ntsc>
                <timebase>25</timebase>
              </rate>
              <duration>2</duration>
              <width>1920</width>
              <height>1080</height>
              <media>
                <video>
                  <duration>2</duration>
                  <stillframe>TRUE</stillframe>
                  <samplecharacteristics>
                    <rate>
                      <ntsc>FALSE</ntsc>
                      <timebase>25</timebase>
                    </rate>
                    <width>1920</width>
                    <height>1080</height>
                    <pixelaspectratio>Square</pixelaspectratio>
                    <anamorphic>FALSE</anamorphic>
                  </samplecharacteristics>
                </video>
              </media>
            </file>
            <sourcetrack>
              <mediatype>video</mediatype>
            </sourcetrack>
            <fielddominance>none</fielddominance>
          </clipitem>
          <clipitem id="F.png564">
            <name>F.png</name>
            <duration>1</duration>
            <rate>
              <ntsc>FALSE</ntsc>
              <timebase>25</timebase>
            </rate>
            <in>91869</in>
            <out>91870</out>
            <start>1869</start>
            <end>1870</end>
            <pixelaspectratio>Square</pixelaspectratio>
            <stillframe>TRUE</stillframe>
            <anamorphic>FALSE</anamorphic>
            <alphatype>straight</alphatype>
            <masterclipid>F.png564</masterclipid>
            <file id="F">
              <name>F.png</name>
              <pathurl>D:/Codes/SynthLip/SynthLipN/bin/Debug/net6.0-windows/Skin/template/F.png</pathurl>
              <rate>
                <ntsc>FALSE</ntsc>
                <timebase>25</timebase>
              </rate>
              <duration>2</duration>
              <width>1920</width>
              <height>1080</height>
              <media>
                <video>
                  <duration>2</duration>
                  <stillframe>TRUE</stillframe>
                  <samplecharacteristics>
                    <rate>
                      <ntsc>FALSE</ntsc>
                      <timebase>25</timebase>
                    </rate>
                    <width>1920</width>
                    <height>1080</height>
                    <pixelaspectratio>Square</pixelaspectratio>
                    <anamorphic>FALSE</anamorphic>
                  </samplecharacteristics>
                </video>
              </media>
            </file>
            <sourcetrack>
              <mediatype>video</mediatype>
            </sourcetrack>
            <fielddominance>none</fielddominance>
          </clipitem>
          <clipitem id="C.png561">
            <name>C.png</name>
            <duration>2</duration>
            <rate>
              <ntsc>FALSE</ntsc>
              <timebase>25</timebase>
            </rate>
            <in>91865</in>
            <out>91867</out>
            <start>1865</start>
            <end>1867</end>
            <pixelaspectratio>Square</pixelaspectratio>
            <stillframe>TRUE</stillframe>
            <anamorphic>FALSE</anamorphic>
            <alphatype>straight</alphatype>
            <masterclipid>C.png561</masterclipid>
            <file id="C">
              <name>C.png</name>
              <pathurl>D:/Codes/SynthLip/SynthLipN/bin/Debug/net6.0-windows/Skin/template/C.png</pathurl>
              <rate>
                <ntsc>FALSE</ntsc>
                <timebase>25</timebase>
              </rate>
              <duration>2</duration>
              <width>1920</width>
              <height>1080</height>
              <media>
                <video>
                  <duration>2</duration>
                  <stillframe>TRUE</stillframe>
                  <samplecharacteristics>
                    <rate>
                      <ntsc>FALSE</ntsc>
                      <timebase>25</timebase>
                    </rate>
                    <width>1920</width>
                    <height>1080</height>
                    <pixelaspectratio>Square</pixelaspectratio>
                    <anamorphic>FALSE</anamorphic>
                  </samplecharacteristics>
                </video>
              </media>
            </file>
            <sourcetrack>
              <mediatype>video</mediatype>
            </sourcetrack>
            <fielddominance>none</fielddominance>
          </clipitem>
          <clipitem id="B.png560">
            <name>B.png</name>
            <duration>2</duration>
            <rate>
              <ntsc>FALSE</ntsc>
              <timebase>25</timebase>
            </rate>
            <in>91862</in>
            <out>91864</out>
            <start>1862</start>
            <end>1864</end>
            <pixelaspectratio>Square</pixelaspectratio>
            <stillframe>TRUE</stillframe>
            <anamorphic>FALSE</anamorphic>
            <alphatype>straight</alphatype>
            <masterclipid>B.png560</masterclipid>
            <file id="B">
              <name>B.png</name>
              <pathurl>D:/Codes/SynthLip/SynthLipN/bin/Debug/net6.0-windows/Skin/template/B.png</pathurl>
              <rate>
                <ntsc>FALSE</ntsc>
                <timebase>25</timebase>
              </rate>
              <duration>2</duration>
              <width>1920</width>
              <height>1080</height>
              <media>
                <video>
                  <duration>2</duration>
                  <stillframe>TRUE</stillframe>
                  <samplecharacteristics>
                    <rate>
                      <ntsc>FALSE</ntsc>
                      <timebase>25</timebase>
                    </rate>
                    <width>1920</width>
                    <height>1080</height>
                    <pixelaspectratio>Square</pixelaspectratio>
                    <anamorphic>FALSE</anamorphic>
                  </samplecharacteristics>
                </video>
              </media>
            </file>
            <sourcetrack>
              <mediatype>video</mediatype>
            </sourcetrack>
            <fielddominance>none</fielddominance>
          </clipitem>
          <clipitem id="A.png559">
            <name>A.png</name>
            <duration>2</duration>
            <rate>
              <ntsc>FALSE</ntsc>
              <timebase>25</timebase>
            </rate>
            <in>91860</in>
            <out>91862</out>
            <start>1860</start>
            <end>1862</end>
            <pixelaspectratio>Square</pixelaspectratio>
            <stillframe>TRUE</stillframe>
            <anamorphic>FALSE</anamorphic>
            <alphatype>straight</alphatype>
            <masterclipid>A.png559</masterclipid>
            <file id="A">
              <name>A.png</name>
              <pathurl>D:/Codes/SynthLip/SynthLipN/bin/Debug/net6.0-windows/Skin/template/A.png</pathurl>
              <rate>
                <ntsc>FALSE</ntsc>
                <timebase>25</timebase>
              </rate>
              <duration>2</duration>
              <width>1920</width>
              <height>1080</height>
              <media>
                <video>
                  <duration>2</duration>
                  <stillframe>TRUE</stillframe>
                  <samplecharacteristics>
                    <rate>
                      <ntsc>FALSE</ntsc>
                      <timebase>25</timebase>
                    </rate>
                    <width>1920</width>
                    <height>1080</height>
                    <pixelaspectratio>Square</pixelaspectratio>
                    <anamorphic>FALSE</anamorphic>
                  </samplecharacteristics>
                </video>
              </media>
            </file>
            <sourcetrack>
              <mediatype>video</mediatype>
            </sourcetrack>
            <fielddominance>none</fielddominance>
          </clipitem>
          <clipitem id="B.png558">
            <name>B.png</name>
            <duration>3</duration>
            <rate>
              <ntsc>FALSE</ntsc>
              <timebase>25</timebase>
            </rate>
            <in>91856</in>
            <out>91859</out>
            <start>1856</start>
            <end>1859</end>
            <pixelaspectratio>Square</pixelaspectratio>
            <stillframe>TRUE</stillframe>
            <anamorphic>FALSE</anamorphic>
            <alphatype>straight</alphatype>
            <masterclipid>B.png558</masterclipid>
            <file id="B">
              <name>B.png</name>
              <pathurl>D:/Codes/SynthLip/SynthLipN/bin/Debug/net6.0-windows/Skin/template/B.png</pathurl>
              <rate>
                <ntsc>FALSE</ntsc>
                <timebase>25</timebase>
              </rate>
              <duration>2</duration>
              <width>1920</width>
              <height>1080</height>
              <media>
                <video>
                  <duration>2</duration>
                  <stillframe>TRUE</stillframe>
                  <samplecharacteristics>
                    <rate>
                      <ntsc>FALSE</ntsc>
                      <timebase>25</timebase>
                    </rate>
                    <width>1920</width>
                    <height>1080</height>
                    <pixelaspectratio>Square</pixelaspectratio>
                    <anamorphic>FALSE</anamorphic>
                  </samplecharacteristics>
                </video>
              </media>
            </file>
            <sourcetrack>
              <mediatype>video</mediatype>
            </sourcetrack>
            <fielddominance>none</fielddominance>
          </clipitem>
          <clipitem id="C.png557">
            <name>C.png</name>
            <duration>1</duration>
            <rate>
              <ntsc>FALSE</ntsc>
              <timebase>25</timebase>
            </rate>
            <in>91855</in>
            <out>91856</out>
            <start>1855</start>
            <end>1856</end>
            <pixelaspectratio>Square</pixelaspectratio>
            <stillframe>TRUE</stillframe>
            <anamorphic>FALSE</anamorphic>
            <alphatype>straight</alphatype>
            <masterclipid>C.png557</masterclipid>
            <file id="C">
              <name>C.png</name>
              <pathurl>D:/Codes/SynthLip/SynthLipN/bin/Debug/net6.0-windows/Skin/template/C.png</pathurl>
              <rate>
                <ntsc>FALSE</ntsc>
                <timebase>25</timebase>
              </rate>
              <duration>2</duration>
              <width>1920</width>
              <height>1080</height>
              <media>
                <video>
                  <duration>2</duration>
                  <stillframe>TRUE</stillframe>
                  <samplecharacteristics>
                    <rate>
                      <ntsc>FALSE</ntsc>
                      <timebase>25</timebase>
                    </rate>
                    <width>1920</width>
                    <height>1080</height>
                    <pixelaspectratio>Square</pixelaspectratio>
                    <anamorphic>FALSE</anamorphic>
                  </samplecharacteristics>
                </video>
              </media>
            </file>
            <sourcetrack>
              <mediatype>video</mediatype>
            </sourcetrack>
            <fielddominance>none</fielddominance>
          </clipitem>
          <clipitem id="B.png556">
            <name>B.png</name>
            <duration>1</duration>
            <rate>
              <ntsc>FALSE</ntsc>
              <timebase>25</timebase>
            </rate>
            <in>91853</in>
            <out>91854</out>
            <start>1853</start>
            <end>1854</end>
            <pixelaspectratio>Square</pixelaspectratio>
            <stillframe>TRUE</stillframe>
            <anamorphic>FALSE</anamorphic>
            <alphatype>straight</alphatype>
            <masterclipid>B.png556</masterclipid>
            <file id="B">
              <name>B.png</name>
              <pathurl>D:/Codes/SynthLip/SynthLipN/bin/Debug/net6.0-windows/Skin/template/B.png</pathurl>
              <rate>
                <ntsc>FALSE</ntsc>
                <timebase>25</timebase>
              </rate>
              <duration>2</duration>
              <width>1920</width>
              <height>1080</height>
              <media>
                <video>
                  <duration>2</duration>
                  <stillframe>TRUE</stillframe>
                  <samplecharacteristics>
                    <rate>
                      <ntsc>FALSE</ntsc>
                      <timebase>25</timebase>
                    </rate>
                    <width>1920</width>
                    <height>1080</height>
                    <pixelaspectratio>Square</pixelaspectratio>
                    <anamorphic>FALSE</anamorphic>
                  </samplecharacteristics>
                </video>
              </media>
            </file>
            <sourcetrack>
              <mediatype>video</mediatype>
            </sourcetrack>
            <fielddominance>none</fielddominance>
          </clipitem>
          <clipitem id="C.png555">
            <name>C.png</name>
            <duration>1</duration>
            <rate>
              <ntsc>FALSE</ntsc>
              <timebase>25</timebase>
            </rate>
            <in>91852</in>
            <out>91853</out>
            <start>1852</start>
            <end>1853</end>
            <pixelaspectratio>Square</pixelaspectratio>
            <stillframe>TRUE</stillframe>
            <anamorphic>FALSE</anamorphic>
            <alphatype>straight</alphatype>
            <masterclipid>C.png555</masterclipid>
            <file id="C">
              <name>C.png</name>
              <pathurl>D:/Codes/SynthLip/SynthLipN/bin/Debug/net6.0-windows/Skin/template/C.png</pathurl>
              <rate>
                <ntsc>FALSE</ntsc>
                <timebase>25</timebase>
              </rate>
              <duration>2</duration>
              <width>1920</width>
              <height>1080</height>
              <media>
                <video>
                  <duration>2</duration>
                  <stillframe>TRUE</stillframe>
                  <samplecharacteristics>
                    <rate>
                      <ntsc>FALSE</ntsc>
                      <timebase>25</timebase>
                    </rate>
                    <width>1920</width>
                    <height>1080</height>
                    <pixelaspectratio>Square</pixelaspectratio>
                    <anamorphic>FALSE</anamorphic>
                  </samplecharacteristics>
                </video>
              </media>
            </file>
            <sourcetrack>
              <mediatype>video</mediatype>
            </sourcetrack>
            <fielddominance>none</fielddominance>
          </clipitem>
          <clipitem id="B.png554">
            <name>B.png</name>
            <duration>3</duration>
            <rate>
              <ntsc>FALSE</ntsc>
              <timebase>25</timebase>
            </rate>
            <in>91848</in>
            <out>91851</out>
            <start>1848</start>
            <end>1851</end>
            <pixelaspectratio>Square</pixelaspectratio>
            <stillframe>TRUE</stillframe>
            <anamorphic>FALSE</anamorphic>
            <alphatype>straight</alphatype>
            <masterclipid>B.png554</masterclipid>
            <file id="B">
              <name>B.png</name>
              <pathurl>D:/Codes/SynthLip/SynthLipN/bin/Debug/net6.0-windows/Skin/template/B.png</pathurl>
              <rate>
                <ntsc>FALSE</ntsc>
                <timebase>25</timebase>
              </rate>
              <duration>2</duration>
              <width>1920</width>
              <height>1080</height>
              <media>
                <video>
                  <duration>2</duration>
                  <stillframe>TRUE</stillframe>
                  <samplecharacteristics>
                    <rate>
                      <ntsc>FALSE</ntsc>
                      <timebase>25</timebase>
                    </rate>
                    <width>1920</width>
                    <height>1080</height>
                    <pixelaspectratio>Square</pixelaspectratio>
                    <anamorphic>FALSE</anamorphic>
                  </samplecharacteristics>
                </video>
              </media>
            </file>
            <sourcetrack>
              <mediatype>video</mediatype>
            </sourcetrack>
            <fielddominance>none</fielddominance>
          </clipitem>
          <clipitem id="A.png553">
            <name>A.png</name>
            <duration>3</duration>
            <rate>
              <ntsc>FALSE</ntsc>
              <timebase>25</timebase>
            </rate>
            <in>91845</in>
            <out>91848</out>
            <start>1845</start>
            <end>1848</end>
            <pixelaspectratio>Square</pixelaspectratio>
            <stillframe>TRUE</stillframe>
            <anamorphic>FALSE</anamorphic>
            <alphatype>straight</alphatype>
            <masterclipid>A.png553</masterclipid>
            <file id="A">
              <name>A.png</name>
              <pathurl>D:/Codes/SynthLip/SynthLipN/bin/Debug/net6.0-windows/Skin/template/A.png</pathurl>
              <rate>
                <ntsc>FALSE</ntsc>
                <timebase>25</timebase>
              </rate>
              <duration>2</duration>
              <width>1920</width>
              <height>1080</height>
              <media>
                <video>
                  <duration>2</duration>
                  <stillframe>TRUE</stillframe>
                  <samplecharacteristics>
                    <rate>
                      <ntsc>FALSE</ntsc>
                      <timebase>25</timebase>
                    </rate>
                    <width>1920</width>
                    <height>1080</height>
                    <pixelaspectratio>Square</pixelaspectratio>
                    <anamorphic>FALSE</anamorphic>
                  </samplecharacteristics>
                </video>
              </media>
            </file>
            <sourcetrack>
              <mediatype>video</mediatype>
            </sourcetrack>
            <fielddominance>none</fielddominance>
          </clipitem>
          <clipitem id="F.png552">
            <name>F.png</name>
            <duration>5</duration>
            <rate>
              <ntsc>FALSE</ntsc>
              <timebase>25</timebase>
            </rate>
            <in>91839</in>
            <out>91844</out>
            <start>1839</start>
            <end>1844</end>
            <pixelaspectratio>Square</pixelaspectratio>
            <stillframe>TRUE</stillframe>
            <anamorphic>FALSE</anamorphic>
            <alphatype>straight</alphatype>
            <masterclipid>F.png552</masterclipid>
            <file id="F">
              <name>F.png</name>
              <pathurl>D:/Codes/SynthLip/SynthLipN/bin/Debug/net6.0-windows/Skin/template/F.png</pathurl>
              <rate>
                <ntsc>FALSE</ntsc>
                <timebase>25</timebase>
              </rate>
              <duration>2</duration>
              <width>1920</width>
              <height>1080</height>
              <media>
                <video>
                  <duration>2</duration>
                  <stillframe>TRUE</stillframe>
                  <samplecharacteristics>
                    <rate>
                      <ntsc>FALSE</ntsc>
                      <timebase>25</timebase>
                    </rate>
                    <width>1920</width>
                    <height>1080</height>
                    <pixelaspectratio>Square</pixelaspectratio>
                    <anamorphic>FALSE</anamorphic>
                  </samplecharacteristics>
                </video>
              </media>
            </file>
            <sourcetrack>
              <mediatype>video</mediatype>
            </sourcetrack>
            <fielddominance>none</fielddominance>
          </clipitem>
          <clipitem id="C.png549">
            <name>C.png</name>
            <duration>3</duration>
            <rate>
              <ntsc>FALSE</ntsc>
              <timebase>25</timebase>
            </rate>
            <in>91833</in>
            <out>91836</out>
            <start>1833</start>
            <end>1836</end>
            <pixelaspectratio>Square</pixelaspectratio>
            <stillframe>TRUE</stillframe>
            <anamorphic>FALSE</anamorphic>
            <alphatype>straight</alphatype>
            <masterclipid>C.png549</masterclipid>
            <file id="C">
              <name>C.png</name>
              <pathurl>D:/Codes/SynthLip/SynthLipN/bin/Debug/net6.0-windows/Skin/template/C.png</pathurl>
              <rate>
                <ntsc>FALSE</ntsc>
                <timebase>25</timebase>
              </rate>
              <duration>2</duration>
              <width>1920</width>
              <height>1080</height>
              <media>
                <video>
                  <duration>2</duration>
                  <stillframe>TRUE</stillframe>
                  <samplecharacteristics>
                    <rate>
                      <ntsc>FALSE</ntsc>
                      <timebase>25</timebase>
                    </rate>
                    <width>1920</width>
                    <height>1080</height>
                    <pixelaspectratio>Square</pixelaspectratio>
                    <anamorphic>FALSE</anamorphic>
                  </samplecharacteristics>
                </video>
              </media>
            </file>
            <sourcetrack>
              <mediatype>video</mediatype>
            </sourcetrack>
            <fielddominance>none</fielddominance>
          </clipitem>
          <clipitem id="B.png548">
            <name>B.png</name>
            <duration>1</duration>
            <rate>
              <ntsc>FALSE</ntsc>
              <timebase>25</timebase>
            </rate>
            <in>91831</in>
            <out>91832</out>
            <start>1831</start>
            <end>1832</end>
            <pixelaspectratio>Square</pixelaspectratio>
            <stillframe>TRUE</stillframe>
            <anamorphic>FALSE</anamorphic>
            <alphatype>straight</alphatype>
            <masterclipid>B.png548</masterclipid>
            <file id="B">
              <name>B.png</name>
              <pathurl>D:/Codes/SynthLip/SynthLipN/bin/Debug/net6.0-windows/Skin/template/B.png</pathurl>
              <rate>
                <ntsc>FALSE</ntsc>
                <timebase>25</timebase>
              </rate>
              <duration>2</duration>
              <width>1920</width>
              <height>1080</height>
              <media>
                <video>
                  <duration>2</duration>
                  <stillframe>TRUE</stillframe>
                  <samplecharacteristics>
                    <rate>
                      <ntsc>FALSE</ntsc>
                      <timebase>25</timebase>
                    </rate>
                    <width>1920</width>
                    <height>1080</height>
                    <pixelaspectratio>Square</pixelaspectratio>
                    <anamorphic>FALSE</anamorphic>
                  </samplecharacteristics>
                </video>
              </media>
            </file>
            <sourcetrack>
              <mediatype>video</mediatype>
            </sourcetrack>
            <fielddominance>none</fielddominance>
          </clipitem>
          <clipitem id="B.png547">
            <name>B.png</name>
            <duration>9</duration>
            <rate>
              <ntsc>FALSE</ntsc>
              <timebase>25</timebase>
            </rate>
            <in>91822</in>
            <out>91831</out>
            <start>1822</start>
            <end>1831</end>
            <pixelaspectratio>Square</pixelaspectratio>
            <stillframe>TRUE</stillframe>
            <anamorphic>FALSE</anamorphic>
            <alphatype>straight</alphatype>
            <masterclipid>B.png547</masterclipid>
            <file id="B">
              <name>B.png</name>
              <pathurl>D:/Codes/SynthLip/SynthLipN/bin/Debug/net6.0-windows/Skin/template/B.png</pathurl>
              <rate>
                <ntsc>FALSE</ntsc>
                <timebase>25</timebase>
              </rate>
              <duration>2</duration>
              <width>1920</width>
              <height>1080</height>
              <media>
                <video>
                  <duration>2</duration>
                  <stillframe>TRUE</stillframe>
                  <samplecharacteristics>
                    <rate>
                      <ntsc>FALSE</ntsc>
                      <timebase>25</timebase>
                    </rate>
                    <width>1920</width>
                    <height>1080</height>
                    <pixelaspectratio>Square</pixelaspectratio>
                    <anamorphic>FALSE</anamorphic>
                  </samplecharacteristics>
                </video>
              </media>
            </file>
            <sourcetrack>
              <mediatype>video</mediatype>
            </sourcetrack>
            <fielddominance>none</fielddominance>
          </clipitem>
          <clipitem id="D.png546">
            <name>D.png</name>
            <duration>2</duration>
            <rate>
              <ntsc>FALSE</ntsc>
              <timebase>25</timebase>
            </rate>
            <in>91820</in>
            <out>91822</out>
            <start>1820</start>
            <end>1822</end>
            <pixelaspectratio>Square</pixelaspectratio>
            <stillframe>TRUE</stillframe>
            <anamorphic>FALSE</anamorphic>
            <alphatype>straight</alphatype>
            <masterclipid>D.png546</masterclipid>
            <file id="D">
              <name>D.png</name>
              <pathurl>D:/Codes/SynthLip/SynthLipN/bin/Debug/net6.0-windows/Skin/template/D.png</pathurl>
              <rate>
                <ntsc>FALSE</ntsc>
                <timebase>25</timebase>
              </rate>
              <duration>2</duration>
              <width>1920</width>
              <height>1080</height>
              <media>
                <video>
                  <duration>2</duration>
                  <stillframe>TRUE</stillframe>
                  <samplecharacteristics>
                    <rate>
                      <ntsc>FALSE</ntsc>
                      <timebase>25</timebase>
                    </rate>
                    <width>1920</width>
                    <height>1080</height>
                    <pixelaspectratio>Square</pixelaspectratio>
                    <anamorphic>FALSE</anamorphic>
                  </samplecharacteristics>
                </video>
              </media>
            </file>
            <sourcetrack>
              <mediatype>video</mediatype>
            </sourcetrack>
            <fielddominance>none</fielddominance>
          </clipitem>
          <clipitem id="B.png545">
            <name>B.png</name>
            <duration>2</duration>
            <rate>
              <ntsc>FALSE</ntsc>
              <timebase>25</timebase>
            </rate>
            <in>91817</in>
            <out>91819</out>
            <start>1817</start>
            <end>1819</end>
            <pixelaspectratio>Square</pixelaspectratio>
            <stillframe>TRUE</stillframe>
            <anamorphic>FALSE</anamorphic>
            <alphatype>straight</alphatype>
            <masterclipid>B.png545</masterclipid>
            <file id="B">
              <name>B.png</name>
              <pathurl>D:/Codes/SynthLip/SynthLipN/bin/Debug/net6.0-windows/Skin/template/B.png</pathurl>
              <rate>
                <ntsc>FALSE</ntsc>
                <timebase>25</timebase>
              </rate>
              <duration>2</duration>
              <width>1920</width>
              <height>1080</height>
              <media>
                <video>
                  <duration>2</duration>
                  <stillframe>TRUE</stillframe>
                  <samplecharacteristics>
                    <rate>
                      <ntsc>FALSE</ntsc>
                      <timebase>25</timebase>
                    </rate>
                    <width>1920</width>
                    <height>1080</height>
                    <pixelaspectratio>Square</pixelaspectratio>
                    <anamorphic>FALSE</anamorphic>
                  </samplecharacteristics>
                </video>
              </media>
            </file>
            <sourcetrack>
              <mediatype>video</mediatype>
            </sourcetrack>
            <fielddominance>none</fielddominance>
          </clipitem>
          <clipitem id="A.png544">
            <name>A.png</name>
            <duration>2</duration>
            <rate>
              <ntsc>FALSE</ntsc>
              <timebase>25</timebase>
            </rate>
            <in>91814</in>
            <out>91816</out>
            <start>1814</start>
            <end>1816</end>
            <pixelaspectratio>Square</pixelaspectratio>
            <stillframe>TRUE</stillframe>
            <anamorphic>FALSE</anamorphic>
            <alphatype>straight</alphatype>
            <masterclipid>A.png544</masterclipid>
            <file id="A">
              <name>A.png</name>
              <pathurl>D:/Codes/SynthLip/SynthLipN/bin/Debug/net6.0-windows/Skin/template/A.png</pathurl>
              <rate>
                <ntsc>FALSE</ntsc>
                <timebase>25</timebase>
              </rate>
              <duration>2</duration>
              <width>1920</width>
              <height>1080</height>
              <media>
                <video>
                  <duration>2</duration>
                  <stillframe>TRUE</stillframe>
                  <samplecharacteristics>
                    <rate>
                      <ntsc>FALSE</ntsc>
                      <timebase>25</timebase>
                    </rate>
                    <width>1920</width>
                    <height>1080</height>
                    <pixelaspectratio>Square</pixelaspectratio>
                    <anamorphic>FALSE</anamorphic>
                  </samplecharacteristics>
                </video>
              </media>
            </file>
            <sourcetrack>
              <mediatype>video</mediatype>
            </sourcetrack>
            <fielddominance>none</fielddominance>
          </clipitem>
          <clipitem id="A.png543">
            <name>A.png</name>
            <duration>3</duration>
            <rate>
              <ntsc>FALSE</ntsc>
              <timebase>25</timebase>
            </rate>
            <in>91811</in>
            <out>91814</out>
            <start>1811</start>
            <end>1814</end>
            <pixelaspectratio>Square</pixelaspectratio>
            <stillframe>TRUE</stillframe>
            <anamorphic>FALSE</anamorphic>
            <alphatype>straight</alphatype>
            <masterclipid>A.png543</masterclipid>
            <file id="A">
              <name>A.png</name>
              <pathurl>D:/Codes/SynthLip/SynthLipN/bin/Debug/net6.0-windows/Skin/template/A.png</pathurl>
              <rate>
                <ntsc>FALSE</ntsc>
                <timebase>25</timebase>
              </rate>
              <duration>2</duration>
              <width>1920</width>
              <height>1080</height>
              <media>
                <video>
                  <duration>2</duration>
                  <stillframe>TRUE</stillframe>
                  <samplecharacteristics>
                    <rate>
                      <ntsc>FALSE</ntsc>
                      <timebase>25</timebase>
                    </rate>
                    <width>1920</width>
                    <height>1080</height>
                    <pixelaspectratio>Square</pixelaspectratio>
                    <anamorphic>FALSE</anamorphic>
                  </samplecharacteristics>
                </video>
              </media>
            </file>
            <sourcetrack>
              <mediatype>video</mediatype>
            </sourcetrack>
            <fielddominance>none</fielddominance>
          </clipitem>
          <clipitem id="F.png542">
            <name>F.png</name>
            <duration>1</duration>
            <rate>
              <ntsc>FALSE</ntsc>
              <timebase>25</timebase>
            </rate>
            <in>91809</in>
            <out>91810</out>
            <start>1809</start>
            <end>1810</end>
            <pixelaspectratio>Square</pixelaspectratio>
            <stillframe>TRUE</stillframe>
            <anamorphic>FALSE</anamorphic>
            <alphatype>straight</alphatype>
            <masterclipid>F.png542</masterclipid>
            <file id="F">
              <name>F.png</name>
              <pathurl>D:/Codes/SynthLip/SynthLipN/bin/Debug/net6.0-windows/Skin/template/F.png</pathurl>
              <rate>
                <ntsc>FALSE</ntsc>
                <timebase>25</timebase>
              </rate>
              <duration>2</duration>
              <width>1920</width>
              <height>1080</height>
              <media>
                <video>
                  <duration>2</duration>
                  <stillframe>TRUE</stillframe>
                  <samplecharacteristics>
                    <rate>
                      <ntsc>FALSE</ntsc>
                      <timebase>25</timebase>
                    </rate>
                    <width>1920</width>
                    <height>1080</height>
                    <pixelaspectratio>Square</pixelaspectratio>
                    <anamorphic>FALSE</anamorphic>
                  </samplecharacteristics>
                </video>
              </media>
            </file>
            <sourcetrack>
              <mediatype>video</mediatype>
            </sourcetrack>
            <fielddominance>none</fielddominance>
          </clipitem>
          <clipitem id="A.png539">
            <name>A.png</name>
            <duration>3</duration>
            <rate>
              <ntsc>FALSE</ntsc>
              <timebase>25</timebase>
            </rate>
            <in>91803</in>
            <out>91806</out>
            <start>1803</start>
            <end>1806</end>
            <pixelaspectratio>Square</pixelaspectratio>
            <stillframe>TRUE</stillframe>
            <anamorphic>FALSE</anamorphic>
            <alphatype>straight</alphatype>
            <masterclipid>A.png539</masterclipid>
            <file id="A">
              <name>A.png</name>
              <pathurl>D:/Codes/SynthLip/SynthLipN/bin/Debug/net6.0-windows/Skin/template/A.png</pathurl>
              <rate>
                <ntsc>FALSE</ntsc>
                <timebase>25</timebase>
              </rate>
              <duration>2</duration>
              <width>1920</width>
              <height>1080</height>
              <media>
                <video>
                  <duration>2</duration>
                  <stillframe>TRUE</stillframe>
                  <samplecharacteristics>
                    <rate>
                      <ntsc>FALSE</ntsc>
                      <timebase>25</timebase>
                    </rate>
                    <width>1920</width>
                    <height>1080</height>
                    <pixelaspectratio>Square</pixelaspectratio>
                    <anamorphic>FALSE</anamorphic>
                  </samplecharacteristics>
                </video>
              </media>
            </file>
            <sourcetrack>
              <mediatype>video</mediatype>
            </sourcetrack>
            <fielddominance>none</fielddominance>
          </clipitem>
          <clipitem id="A.png538">
            <name>A.png</name>
            <duration>3</duration>
            <rate>
              <ntsc>FALSE</ntsc>
              <timebase>25</timebase>
            </rate>
            <in>91800</in>
            <out>91803</out>
            <start>1800</start>
            <end>1803</end>
            <pixelaspectratio>Square</pixelaspectratio>
            <stillframe>TRUE</stillframe>
            <anamorphic>FALSE</anamorphic>
            <alphatype>straight</alphatype>
            <masterclipid>A.png538</masterclipid>
            <file id="A">
              <name>A.png</name>
              <pathurl>D:/Codes/SynthLip/SynthLipN/bin/Debug/net6.0-windows/Skin/template/A.png</pathurl>
              <rate>
                <ntsc>FALSE</ntsc>
                <timebase>25</timebase>
              </rate>
              <duration>2</duration>
              <width>1920</width>
              <height>1080</height>
              <media>
                <video>
                  <duration>2</duration>
                  <stillframe>TRUE</stillframe>
                  <samplecharacteristics>
                    <rate>
                      <ntsc>FALSE</ntsc>
                      <timebase>25</timebase>
                    </rate>
                    <width>1920</width>
                    <height>1080</height>
                    <pixelaspectratio>Square</pixelaspectratio>
                    <anamorphic>FALSE</anamorphic>
                  </samplecharacteristics>
                </video>
              </media>
            </file>
            <sourcetrack>
              <mediatype>video</mediatype>
            </sourcetrack>
            <fielddominance>none</fielddominance>
          </clipitem>
          <clipitem id="B.png537">
            <name>B.png</name>
            <duration>3</duration>
            <rate>
              <ntsc>FALSE</ntsc>
              <timebase>25</timebase>
            </rate>
            <in>91796</in>
            <out>91799</out>
            <start>1796</start>
            <end>1799</end>
            <pixelaspectratio>Square</pixelaspectratio>
            <stillframe>TRUE</stillframe>
            <anamorphic>FALSE</anamorphic>
            <alphatype>straight</alphatype>
            <masterclipid>B.png537</masterclipid>
            <file id="B">
              <name>B.png</name>
              <pathurl>D:/Codes/SynthLip/SynthLipN/bin/Debug/net6.0-windows/Skin/template/B.png</pathurl>
              <rate>
                <ntsc>FALSE</ntsc>
                <timebase>25</timebase>
              </rate>
              <duration>2</duration>
              <width>1920</width>
              <height>1080</height>
              <media>
                <video>
                  <duration>2</duration>
                  <stillframe>TRUE</stillframe>
                  <samplecharacteristics>
                    <rate>
                      <ntsc>FALSE</ntsc>
                      <timebase>25</timebase>
                    </rate>
                    <width>1920</width>
                    <height>1080</height>
                    <pixelaspectratio>Square</pixelaspectratio>
                    <anamorphic>FALSE</anamorphic>
                  </samplecharacteristics>
                </video>
              </media>
            </file>
            <sourcetrack>
              <mediatype>video</mediatype>
            </sourcetrack>
            <fielddominance>none</fielddominance>
          </clipitem>
          <clipitem id="C.png536">
            <name>C.png</name>
            <duration>1</duration>
            <rate>
              <ntsc>FALSE</ntsc>
              <timebase>25</timebase>
            </rate>
            <in>91795</in>
            <out>91796</out>
            <start>1795</start>
            <end>1796</end>
            <pixelaspectratio>Square</pixelaspectratio>
            <stillframe>TRUE</stillframe>
            <anamorphic>FALSE</anamorphic>
            <alphatype>straight</alphatype>
            <masterclipid>C.png536</masterclipid>
            <file id="C">
              <name>C.png</name>
              <pathurl>D:/Codes/SynthLip/SynthLipN/bin/Debug/net6.0-windows/Skin/template/C.png</pathurl>
              <rate>
                <ntsc>FALSE</ntsc>
                <timebase>25</timebase>
              </rate>
              <duration>2</duration>
              <width>1920</width>
              <height>1080</height>
              <media>
                <video>
                  <duration>2</duration>
                  <stillframe>TRUE</stillframe>
                  <samplecharacteristics>
                    <rate>
                      <ntsc>FALSE</ntsc>
                      <timebase>25</timebase>
                    </rate>
                    <width>1920</width>
                    <height>1080</height>
                    <pixelaspectratio>Square</pixelaspectratio>
                    <anamorphic>FALSE</anamorphic>
                  </samplecharacteristics>
                </video>
              </media>
            </file>
            <sourcetrack>
              <mediatype>video</mediatype>
            </sourcetrack>
            <fielddominance>none</fielddominance>
          </clipitem>
          <clipitem id="G.png535">
            <name>G.png</name>
            <duration>1</duration>
            <rate>
              <ntsc>FALSE</ntsc>
              <timebase>25</timebase>
            </rate>
            <in>91793</in>
            <out>91794</out>
            <start>1793</start>
            <end>1794</end>
            <pixelaspectratio>Square</pixelaspectratio>
            <stillframe>TRUE</stillframe>
            <anamorphic>FALSE</anamorphic>
            <alphatype>straight</alphatype>
            <masterclipid>G.png535</masterclipid>
            <file id="G">
              <name>G.png</name>
              <pathurl>D:/Codes/SynthLip/SynthLipN/bin/Debug/net6.0-windows/Skin/template/G.png</pathurl>
              <rate>
                <ntsc>FALSE</ntsc>
                <timebase>25</timebase>
              </rate>
              <duration>2</duration>
              <width>1920</width>
              <height>1080</height>
              <media>
                <video>
                  <duration>2</duration>
                  <stillframe>TRUE</stillframe>
                  <samplecharacteristics>
                    <rate>
                      <ntsc>FALSE</ntsc>
                      <timebase>25</timebase>
                    </rate>
                    <width>1920</width>
                    <height>1080</height>
                    <pixelaspectratio>Square</pixelaspectratio>
                    <anamorphic>FALSE</anamorphic>
                  </samplecharacteristics>
                </video>
              </media>
            </file>
            <sourcetrack>
              <mediatype>video</mediatype>
            </sourcetrack>
            <fielddominance>none</fielddominance>
          </clipitem>
          <clipitem id="A.png534">
            <name>A.png</name>
            <duration>1</duration>
            <rate>
              <ntsc>FALSE</ntsc>
              <timebase>25</timebase>
            </rate>
            <in>91792</in>
            <out>91793</out>
            <start>1792</start>
            <end>1793</end>
            <pixelaspectratio>Square</pixelaspectratio>
            <stillframe>TRUE</stillframe>
            <anamorphic>FALSE</anamorphic>
            <alphatype>straight</alphatype>
            <masterclipid>A.png534</masterclipid>
            <file id="A">
              <name>A.png</name>
              <pathurl>D:/Codes/SynthLip/SynthLipN/bin/Debug/net6.0-windows/Skin/template/A.png</pathurl>
              <rate>
                <ntsc>FALSE</ntsc>
                <timebase>25</timebase>
              </rate>
              <duration>2</duration>
              <width>1920</width>
              <height>1080</height>
              <media>
                <video>
                  <duration>2</duration>
                  <stillframe>TRUE</stillframe>
                  <samplecharacteristics>
                    <rate>
                      <ntsc>FALSE</ntsc>
                      <timebase>25</timebase>
                    </rate>
                    <width>1920</width>
                    <height>1080</height>
                    <pixelaspectratio>Square</pixelaspectratio>
                    <anamorphic>FALSE</anamorphic>
                  </samplecharacteristics>
                </video>
              </media>
            </file>
            <sourcetrack>
              <mediatype>video</mediatype>
            </sourcetrack>
            <fielddominance>none</fielddominance>
          </clipitem>
          <clipitem id="D.png533">
            <name>D.png</name>
            <duration>2</duration>
            <rate>
              <ntsc>FALSE</ntsc>
              <timebase>25</timebase>
            </rate>
            <in>91790</in>
            <out>91792</out>
            <start>1790</start>
            <end>1792</end>
            <pixelaspectratio>Square</pixelaspectratio>
            <stillframe>TRUE</stillframe>
            <anamorphic>FALSE</anamorphic>
            <alphatype>straight</alphatype>
            <masterclipid>D.png533</masterclipid>
            <file id="D">
              <name>D.png</name>
              <pathurl>D:/Codes/SynthLip/SynthLipN/bin/Debug/net6.0-windows/Skin/template/D.png</pathurl>
              <rate>
                <ntsc>FALSE</ntsc>
                <timebase>25</timebase>
              </rate>
              <duration>2</duration>
              <width>1920</width>
              <height>1080</height>
              <media>
                <video>
                  <duration>2</duration>
                  <stillframe>TRUE</stillframe>
                  <samplecharacteristics>
                    <rate>
                      <ntsc>FALSE</ntsc>
                      <timebase>25</timebase>
                    </rate>
                    <width>1920</width>
                    <height>1080</height>
                    <pixelaspectratio>Square</pixelaspectratio>
                    <anamorphic>FALSE</anamorphic>
                  </samplecharacteristics>
                </video>
              </media>
            </file>
            <sourcetrack>
              <mediatype>video</mediatype>
            </sourcetrack>
            <fielddominance>none</fielddominance>
          </clipitem>
          <clipitem id="B.png532">
            <name>B.png</name>
            <duration>2</duration>
            <rate>
              <ntsc>FALSE</ntsc>
              <timebase>25</timebase>
            </rate>
            <in>91787</in>
            <out>91789</out>
            <start>1787</start>
            <end>1789</end>
            <pixelaspectratio>Square</pixelaspectratio>
            <stillframe>TRUE</stillframe>
            <anamorphic>FALSE</anamorphic>
            <alphatype>straight</alphatype>
            <masterclipid>B.png532</masterclipid>
            <file id="B">
              <name>B.png</name>
              <pathurl>D:/Codes/SynthLip/SynthLipN/bin/Debug/net6.0-windows/Skin/template/B.png</pathurl>
              <rate>
                <ntsc>FALSE</ntsc>
                <timebase>25</timebase>
              </rate>
              <duration>2</duration>
              <width>1920</width>
              <height>1080</height>
              <media>
                <video>
                  <duration>2</duration>
                  <stillframe>TRUE</stillframe>
                  <samplecharacteristics>
                    <rate>
                      <ntsc>FALSE</ntsc>
                      <timebase>25</timebase>
                    </rate>
                    <width>1920</width>
                    <height>1080</height>
                    <pixelaspectratio>Square</pixelaspectratio>
                    <anamorphic>FALSE</anamorphic>
                  </samplecharacteristics>
                </video>
              </media>
            </file>
            <sourcetrack>
              <mediatype>video</mediatype>
            </sourcetrack>
            <fielddominance>none</fielddominance>
          </clipitem>
          <clipitem id="B.png531">
            <name>B.png</name>
            <duration>2</duration>
            <rate>
              <ntsc>FALSE</ntsc>
              <timebase>25</timebase>
            </rate>
            <in>91785</in>
            <out>91787</out>
            <start>1785</start>
            <end>1787</end>
            <pixelaspectratio>Square</pixelaspectratio>
            <stillframe>TRUE</stillframe>
            <anamorphic>FALSE</anamorphic>
            <alphatype>straight</alphatype>
            <masterclipid>B.png531</masterclipid>
            <file id="B">
              <name>B.png</name>
              <pathurl>D:/Codes/SynthLip/SynthLipN/bin/Debug/net6.0-windows/Skin/template/B.png</pathurl>
              <rate>
                <ntsc>FALSE</ntsc>
                <timebase>25</timebase>
              </rate>
              <duration>2</duration>
              <width>1920</width>
              <height>1080</height>
              <media>
                <video>
                  <duration>2</duration>
                  <stillframe>TRUE</stillframe>
                  <samplecharacteristics>
                    <rate>
                      <ntsc>FALSE</ntsc>
                      <timebase>25</timebase>
                    </rate>
                    <width>1920</width>
                    <height>1080</height>
                    <pixelaspectratio>Square</pixelaspectratio>
                    <anamorphic>FALSE</anamorphic>
                  </samplecharacteristics>
                </video>
              </media>
            </file>
            <sourcetrack>
              <mediatype>video</mediatype>
            </sourcetrack>
            <fielddominance>none</fielddominance>
          </clipitem>
          <clipitem id="D.png530">
            <name>D.png</name>
            <duration>2</duration>
            <rate>
              <ntsc>FALSE</ntsc>
              <timebase>25</timebase>
            </rate>
            <in>91782</in>
            <out>91784</out>
            <start>1782</start>
            <end>1784</end>
            <pixelaspectratio>Square</pixelaspectratio>
            <stillframe>TRUE</stillframe>
            <anamorphic>FALSE</anamorphic>
            <alphatype>straight</alphatype>
            <masterclipid>D.png530</masterclipid>
            <file id="D">
              <name>D.png</name>
              <pathurl>D:/Codes/SynthLip/SynthLipN/bin/Debug/net6.0-windows/Skin/template/D.png</pathurl>
              <rate>
                <ntsc>FALSE</ntsc>
                <timebase>25</timebase>
              </rate>
              <duration>2</duration>
              <width>1920</width>
              <height>1080</height>
              <media>
                <video>
                  <duration>2</duration>
                  <stillframe>TRUE</stillframe>
                  <samplecharacteristics>
                    <rate>
                      <ntsc>FALSE</ntsc>
                      <timebase>25</timebase>
                    </rate>
                    <width>1920</width>
                    <height>1080</height>
                    <pixelaspectratio>Square</pixelaspectratio>
                    <anamorphic>FALSE</anamorphic>
                  </samplecharacteristics>
                </video>
              </media>
            </file>
            <sourcetrack>
              <mediatype>video</mediatype>
            </sourcetrack>
            <fielddominance>none</fielddominance>
          </clipitem>
          <clipitem id="B.png529">
            <name>B.png</name>
            <duration>2</duration>
            <rate>
              <ntsc>FALSE</ntsc>
              <timebase>25</timebase>
            </rate>
            <in>91780</in>
            <out>91782</out>
            <start>1780</start>
            <end>1782</end>
            <pixelaspectratio>Square</pixelaspectratio>
            <stillframe>TRUE</stillframe>
            <anamorphic>FALSE</anamorphic>
            <alphatype>straight</alphatype>
            <masterclipid>B.png529</masterclipid>
            <file id="B">
              <name>B.png</name>
              <pathurl>D:/Codes/SynthLip/SynthLipN/bin/Debug/net6.0-windows/Skin/template/B.png</pathurl>
              <rate>
                <ntsc>FALSE</ntsc>
                <timebase>25</timebase>
              </rate>
              <duration>2</duration>
              <width>1920</width>
              <height>1080</height>
              <media>
                <video>
                  <duration>2</duration>
                  <stillframe>TRUE</stillframe>
                  <samplecharacteristics>
                    <rate>
                      <ntsc>FALSE</ntsc>
                      <timebase>25</timebase>
                    </rate>
                    <width>1920</width>
                    <height>1080</height>
                    <pixelaspectratio>Square</pixelaspectratio>
                    <anamorphic>FALSE</anamorphic>
                  </samplecharacteristics>
                </video>
              </media>
            </file>
            <sourcetrack>
              <mediatype>video</mediatype>
            </sourcetrack>
            <fielddominance>none</fielddominance>
          </clipitem>
          <clipitem id="A.png528">
            <name>A.png</name>
            <duration>2</duration>
            <rate>
              <ntsc>FALSE</ntsc>
              <timebase>25</timebase>
            </rate>
            <in>91777</in>
            <out>91779</out>
            <start>1777</start>
            <end>1779</end>
            <pixelaspectratio>Square</pixelaspectratio>
            <stillframe>TRUE</stillframe>
            <anamorphic>FALSE</anamorphic>
            <alphatype>straight</alphatype>
            <masterclipid>A.png528</masterclipid>
            <file id="A">
              <name>A.png</name>
              <pathurl>D:/Codes/SynthLip/SynthLipN/bin/Debug/net6.0-windows/Skin/template/A.png</pathurl>
              <rate>
                <ntsc>FALSE</ntsc>
                <timebase>25</timebase>
              </rate>
              <duration>2</duration>
              <width>1920</width>
              <height>1080</height>
              <media>
                <video>
                  <duration>2</duration>
                  <stillframe>TRUE</stillframe>
                  <samplecharacteristics>
                    <rate>
                      <ntsc>FALSE</ntsc>
                      <timebase>25</timebase>
                    </rate>
                    <width>1920</width>
                    <height>1080</height>
                    <pixelaspectratio>Square</pixelaspectratio>
                    <anamorphic>FALSE</anamorphic>
                  </samplecharacteristics>
                </video>
              </media>
            </file>
            <sourcetrack>
              <mediatype>video</mediatype>
            </sourcetrack>
            <fielddominance>none</fielddominance>
          </clipitem>
          <clipitem id="E.png527">
            <name>E.png</name>
            <duration>5</duration>
            <rate>
              <ntsc>FALSE</ntsc>
              <timebase>25</timebase>
            </rate>
            <in>91771</in>
            <out>91776</out>
            <start>1771</start>
            <end>1776</end>
            <pixelaspectratio>Square</pixelaspectratio>
            <stillframe>TRUE</stillframe>
            <anamorphic>FALSE</anamorphic>
            <alphatype>straight</alphatype>
            <masterclipid>E.png527</masterclipid>
            <file id="E">
              <name>E.png</name>
              <pathurl>D:/Codes/SynthLip/SynthLipN/bin/Debug/net6.0-windows/Skin/template/E.png</pathurl>
              <rate>
                <ntsc>FALSE</ntsc>
                <timebase>25</timebase>
              </rate>
              <duration>2</duration>
              <width>1920</width>
              <height>1080</height>
              <media>
                <video>
                  <duration>2</duration>
                  <stillframe>TRUE</stillframe>
                  <samplecharacteristics>
                    <rate>
                      <ntsc>FALSE</ntsc>
                      <timebase>25</timebase>
                    </rate>
                    <width>1920</width>
                    <height>1080</height>
                    <pixelaspectratio>Square</pixelaspectratio>
                    <anamorphic>FALSE</anamorphic>
                  </samplecharacteristics>
                </video>
              </media>
            </file>
            <sourcetrack>
              <mediatype>video</mediatype>
            </sourcetrack>
            <fielddominance>none</fielddominance>
          </clipitem>
          <clipitem id="B.png524">
            <name>B.png</name>
            <duration>3</duration>
            <rate>
              <ntsc>FALSE</ntsc>
              <timebase>25</timebase>
            </rate>
            <in>91766</in>
            <out>91769</out>
            <start>1766</start>
            <end>1769</end>
            <pixelaspectratio>Square</pixelaspectratio>
            <stillframe>TRUE</stillframe>
            <anamorphic>FALSE</anamorphic>
            <alphatype>straight</alphatype>
            <masterclipid>B.png524</masterclipid>
            <file id="B">
              <name>B.png</name>
              <pathurl>D:/Codes/SynthLip/SynthLipN/bin/Debug/net6.0-windows/Skin/template/B.png</pathurl>
              <rate>
                <ntsc>FALSE</ntsc>
                <timebase>25</timebase>
              </rate>
              <duration>2</duration>
              <width>1920</width>
              <height>1080</height>
              <media>
                <video>
                  <duration>2</duration>
                  <stillframe>TRUE</stillframe>
                  <samplecharacteristics>
                    <rate>
                      <ntsc>FALSE</ntsc>
                      <timebase>25</timebase>
                    </rate>
                    <width>1920</width>
                    <height>1080</height>
                    <pixelaspectratio>Square</pixelaspectratio>
                    <anamorphic>FALSE</anamorphic>
                  </samplecharacteristics>
                </video>
              </media>
            </file>
            <sourcetrack>
              <mediatype>video</mediatype>
            </sourcetrack>
            <fielddominance>none</fielddominance>
          </clipitem>
          <clipitem id="A.png523">
            <name>A.png</name>
            <duration>3</duration>
            <rate>
              <ntsc>FALSE</ntsc>
              <timebase>25</timebase>
            </rate>
            <in>91762</in>
            <out>91765</out>
            <start>1762</start>
            <end>1765</end>
            <pixelaspectratio>Square</pixelaspectratio>
            <stillframe>TRUE</stillframe>
            <anamorphic>FALSE</anamorphic>
            <alphatype>straight</alphatype>
            <masterclipid>A.png523</masterclipid>
            <file id="A">
              <name>A.png</name>
              <pathurl>D:/Codes/SynthLip/SynthLipN/bin/Debug/net6.0-windows/Skin/template/A.png</pathurl>
              <rate>
                <ntsc>FALSE</ntsc>
                <timebase>25</timebase>
              </rate>
              <duration>2</duration>
              <width>1920</width>
              <height>1080</height>
              <media>
                <video>
                  <duration>2</duration>
                  <stillframe>TRUE</stillframe>
                  <samplecharacteristics>
                    <rate>
                      <ntsc>FALSE</ntsc>
                      <timebase>25</timebase>
                    </rate>
                    <width>1920</width>
                    <height>1080</height>
                    <pixelaspectratio>Square</pixelaspectratio>
                    <anamorphic>FALSE</anamorphic>
                  </samplecharacteristics>
                </video>
              </media>
            </file>
            <sourcetrack>
              <mediatype>video</mediatype>
            </sourcetrack>
            <fielddominance>none</fielddominance>
          </clipitem>
          <clipitem id="E.png522">
            <name>E.png</name>
            <duration>5</duration>
            <rate>
              <ntsc>FALSE</ntsc>
              <timebase>25</timebase>
            </rate>
            <in>91756</in>
            <out>91761</out>
            <start>1756</start>
            <end>1761</end>
            <pixelaspectratio>Square</pixelaspectratio>
            <stillframe>TRUE</stillframe>
            <anamorphic>FALSE</anamorphic>
            <alphatype>straight</alphatype>
            <masterclipid>E.png522</masterclipid>
            <file id="E">
              <name>E.png</name>
              <pathurl>D:/Codes/SynthLip/SynthLipN/bin/Debug/net6.0-windows/Skin/template/E.png</pathurl>
              <rate>
                <ntsc>FALSE</ntsc>
                <timebase>25</timebase>
              </rate>
              <duration>2</duration>
              <width>1920</width>
              <height>1080</height>
              <media>
                <video>
                  <duration>2</duration>
                  <stillframe>TRUE</stillframe>
                  <samplecharacteristics>
                    <rate>
                      <ntsc>FALSE</ntsc>
                      <timebase>25</timebase>
                    </rate>
                    <width>1920</width>
                    <height>1080</height>
                    <pixelaspectratio>Square</pixelaspectratio>
                    <anamorphic>FALSE</anamorphic>
                  </samplecharacteristics>
                </video>
              </media>
            </file>
            <sourcetrack>
              <mediatype>video</mediatype>
            </sourcetrack>
            <fielddominance>none</fielddominance>
          </clipitem>
          <clipitem id="C.png519">
            <name>C.png</name>
            <duration>2</duration>
            <rate>
              <ntsc>FALSE</ntsc>
              <timebase>25</timebase>
            </rate>
            <in>91752</in>
            <out>91754</out>
            <start>1752</start>
            <end>1754</end>
            <pixelaspectratio>Square</pixelaspectratio>
            <stillframe>TRUE</stillframe>
            <anamorphic>FALSE</anamorphic>
            <alphatype>straight</alphatype>
            <masterclipid>C.png519</masterclipid>
            <file id="C">
              <name>C.png</name>
              <pathurl>D:/Codes/SynthLip/SynthLipN/bin/Debug/net6.0-windows/Skin/template/C.png</pathurl>
              <rate>
                <ntsc>FALSE</ntsc>
                <timebase>25</timebase>
              </rate>
              <duration>2</duration>
              <width>1920</width>
              <height>1080</height>
              <media>
                <video>
                  <duration>2</duration>
                  <stillframe>TRUE</stillframe>
                  <samplecharacteristics>
                    <rate>
                      <ntsc>FALSE</ntsc>
                      <timebase>25</timebase>
                    </rate>
                    <width>1920</width>
                    <height>1080</height>
                    <pixelaspectratio>Square</pixelaspectratio>
                    <anamorphic>FALSE</anamorphic>
                  </samplecharacteristics>
                </video>
              </media>
            </file>
            <sourcetrack>
              <mediatype>video</mediatype>
            </sourcetrack>
            <fielddominance>none</fielddominance>
          </clipitem>
          <clipitem id="A.png518">
            <name>A.png</name>
            <duration>2</duration>
            <rate>
              <ntsc>FALSE</ntsc>
              <timebase>25</timebase>
            </rate>
            <in>91750</in>
            <out>91752</out>
            <start>1750</start>
            <end>1752</end>
            <pixelaspectratio>Square</pixelaspectratio>
            <stillframe>TRUE</stillframe>
            <anamorphic>FALSE</anamorphic>
            <alphatype>straight</alphatype>
            <masterclipid>A.png518</masterclipid>
            <file id="A">
              <name>A.png</name>
              <pathurl>D:/Codes/SynthLip/SynthLipN/bin/Debug/net6.0-windows/Skin/template/A.png</pathurl>
              <rate>
                <ntsc>FALSE</ntsc>
                <timebase>25</timebase>
              </rate>
              <duration>2</duration>
              <width>1920</width>
              <height>1080</height>
              <media>
                <video>
                  <duration>2</duration>
                  <stillframe>TRUE</stillframe>
                  <samplecharacteristics>
                    <rate>
                      <ntsc>FALSE</ntsc>
                      <timebase>25</timebase>
                    </rate>
                    <width>1920</width>
                    <height>1080</height>
                    <pixelaspectratio>Square</pixelaspectratio>
                    <anamorphic>FALSE</anamorphic>
                  </samplecharacteristics>
                </video>
              </media>
            </file>
            <sourcetrack>
              <mediatype>video</mediatype>
            </sourcetrack>
            <fielddominance>none</fielddominance>
          </clipitem>
          <clipitem id="A.png517">
            <name>A.png</name>
            <duration>2</duration>
            <rate>
              <ntsc>FALSE</ntsc>
              <timebase>25</timebase>
            </rate>
            <in>91747</in>
            <out>91749</out>
            <start>1747</start>
            <end>1749</end>
            <pixelaspectratio>Square</pixelaspectratio>
            <stillframe>TRUE</stillframe>
            <anamorphic>FALSE</anamorphic>
            <alphatype>straight</alphatype>
            <masterclipid>A.png517</masterclipid>
            <file id="A">
              <name>A.png</name>
              <pathurl>D:/Codes/SynthLip/SynthLipN/bin/Debug/net6.0-windows/Skin/template/A.png</pathurl>
              <rate>
                <ntsc>FALSE</ntsc>
                <timebase>25</timebase>
              </rate>
              <duration>2</duration>
              <width>1920</width>
              <height>1080</height>
              <media>
                <video>
                  <duration>2</duration>
                  <stillframe>TRUE</stillframe>
                  <samplecharacteristics>
                    <rate>
                      <ntsc>FALSE</ntsc>
                      <timebase>25</timebase>
                    </rate>
                    <width>1920</width>
                    <height>1080</height>
                    <pixelaspectratio>Square</pixelaspectratio>
                    <anamorphic>FALSE</anamorphic>
                  </samplecharacteristics>
                </video>
              </media>
            </file>
            <sourcetrack>
              <mediatype>video</mediatype>
            </sourcetrack>
            <fielddominance>none</fielddominance>
          </clipitem>
          <clipitem id="C.png516">
            <name>C.png</name>
            <duration>5</duration>
            <rate>
              <ntsc>FALSE</ntsc>
              <timebase>25</timebase>
            </rate>
            <in>91741</in>
            <out>91746</out>
            <start>1741</start>
            <end>1746</end>
            <pixelaspectratio>Square</pixelaspectratio>
            <stillframe>TRUE</stillframe>
            <anamorphic>FALSE</anamorphic>
            <alphatype>straight</alphatype>
            <masterclipid>C.png516</masterclipid>
            <file id="C">
              <name>C.png</name>
              <pathurl>D:/Codes/SynthLip/SynthLipN/bin/Debug/net6.0-windows/Skin/template/C.png</pathurl>
              <rate>
                <ntsc>FALSE</ntsc>
                <timebase>25</timebase>
              </rate>
              <duration>2</duration>
              <width>1920</width>
              <height>1080</height>
              <media>
                <video>
                  <duration>2</duration>
                  <stillframe>TRUE</stillframe>
                  <samplecharacteristics>
                    <rate>
                      <ntsc>FALSE</ntsc>
                      <timebase>25</timebase>
                    </rate>
                    <width>1920</width>
                    <height>1080</height>
                    <pixelaspectratio>Square</pixelaspectratio>
                    <anamorphic>FALSE</anamorphic>
                  </samplecharacteristics>
                </video>
              </media>
            </file>
            <sourcetrack>
              <mediatype>video</mediatype>
            </sourcetrack>
            <fielddominance>none</fielddominance>
          </clipitem>
          <clipitem id="B.png511">
            <name>B.png</name>
            <duration>1</duration>
            <rate>
              <ntsc>FALSE</ntsc>
              <timebase>25</timebase>
            </rate>
            <in>91738</in>
            <out>91739</out>
            <start>1738</start>
            <end>1739</end>
            <pixelaspectratio>Square</pixelaspectratio>
            <stillframe>TRUE</stillframe>
            <anamorphic>FALSE</anamorphic>
            <alphatype>straight</alphatype>
            <masterclipid>B.png511</masterclipid>
            <file id="B">
              <name>B.png</name>
              <pathurl>D:/Codes/SynthLip/SynthLipN/bin/Debug/net6.0-windows/Skin/template/B.png</pathurl>
              <rate>
                <ntsc>FALSE</ntsc>
                <timebase>25</timebase>
              </rate>
              <duration>2</duration>
              <width>1920</width>
              <height>1080</height>
              <media>
                <video>
                  <duration>2</duration>
                  <stillframe>TRUE</stillframe>
                  <samplecharacteristics>
                    <rate>
                      <ntsc>FALSE</ntsc>
                      <timebase>25</timebase>
                    </rate>
                    <width>1920</width>
                    <height>1080</height>
                    <pixelaspectratio>Square</pixelaspectratio>
                    <anamorphic>FALSE</anamorphic>
                  </samplecharacteristics>
                </video>
              </media>
            </file>
            <sourcetrack>
              <mediatype>video</mediatype>
            </sourcetrack>
            <fielddominance>none</fielddominance>
          </clipitem>
          <clipitem id="B.png510">
            <name>B.png</name>
            <duration>1</duration>
            <rate>
              <ntsc>FALSE</ntsc>
              <timebase>25</timebase>
            </rate>
            <in>91736</in>
            <out>91737</out>
            <start>1736</start>
            <end>1737</end>
            <pixelaspectratio>Square</pixelaspectratio>
            <stillframe>TRUE</stillframe>
            <anamorphic>FALSE</anamorphic>
            <alphatype>straight</alphatype>
            <masterclipid>B.png510</masterclipid>
            <file id="B">
              <name>B.png</name>
              <pathurl>D:/Codes/SynthLip/SynthLipN/bin/Debug/net6.0-windows/Skin/template/B.png</pathurl>
              <rate>
                <ntsc>FALSE</ntsc>
                <timebase>25</timebase>
              </rate>
              <duration>2</duration>
              <width>1920</width>
              <height>1080</height>
              <media>
                <video>
                  <duration>2</duration>
                  <stillframe>TRUE</stillframe>
                  <samplecharacteristics>
                    <rate>
                      <ntsc>FALSE</ntsc>
                      <timebase>25</timebase>
                    </rate>
                    <width>1920</width>
                    <height>1080</height>
                    <pixelaspectratio>Square</pixelaspectratio>
                    <anamorphic>FALSE</anamorphic>
                  </samplecharacteristics>
                </video>
              </media>
            </file>
            <sourcetrack>
              <mediatype>video</mediatype>
            </sourcetrack>
            <fielddominance>none</fielddominance>
          </clipitem>
          <clipitem id="C.png509">
            <name>C.png</name>
            <duration>1</duration>
            <rate>
              <ntsc>FALSE</ntsc>
              <timebase>25</timebase>
            </rate>
            <in>91735</in>
            <out>91736</out>
            <start>1735</start>
            <end>1736</end>
            <pixelaspectratio>Square</pixelaspectratio>
            <stillframe>TRUE</stillframe>
            <anamorphic>FALSE</anamorphic>
            <alphatype>straight</alphatype>
            <masterclipid>C.png509</masterclipid>
            <file id="C">
              <name>C.png</name>
              <pathurl>D:/Codes/SynthLip/SynthLipN/bin/Debug/net6.0-windows/Skin/template/C.png</pathurl>
              <rate>
                <ntsc>FALSE</ntsc>
                <timebase>25</timebase>
              </rate>
              <duration>2</duration>
              <width>1920</width>
              <height>1080</height>
              <media>
                <video>
                  <duration>2</duration>
                  <stillframe>TRUE</stillframe>
                  <samplecharacteristics>
                    <rate>
                      <ntsc>FALSE</ntsc>
                      <timebase>25</timebase>
                    </rate>
                    <width>1920</width>
                    <height>1080</height>
                    <pixelaspectratio>Square</pixelaspectratio>
                    <anamorphic>FALSE</anamorphic>
                  </samplecharacteristics>
                </video>
              </media>
            </file>
            <sourcetrack>
              <mediatype>video</mediatype>
            </sourcetrack>
            <fielddominance>none</fielddominance>
          </clipitem>
          <clipitem id="A.png508">
            <name>A.png</name>
            <duration>1</duration>
            <rate>
              <ntsc>FALSE</ntsc>
              <timebase>25</timebase>
            </rate>
            <in>91734</in>
            <out>91735</out>
            <start>1734</start>
            <end>1735</end>
            <pixelaspectratio>Square</pixelaspectratio>
            <stillframe>TRUE</stillframe>
            <anamorphic>FALSE</anamorphic>
            <alphatype>straight</alphatype>
            <masterclipid>A.png508</masterclipid>
            <file id="A">
              <name>A.png</name>
              <pathurl>D:/Codes/SynthLip/SynthLipN/bin/Debug/net6.0-windows/Skin/template/A.png</pathurl>
              <rate>
                <ntsc>FALSE</ntsc>
                <timebase>25</timebase>
              </rate>
              <duration>2</duration>
              <width>1920</width>
              <height>1080</height>
              <media>
                <video>
                  <duration>2</duration>
                  <stillframe>TRUE</stillframe>
                  <samplecharacteristics>
                    <rate>
                      <ntsc>FALSE</ntsc>
                      <timebase>25</timebase>
                    </rate>
                    <width>1920</width>
                    <height>1080</height>
                    <pixelaspectratio>Square</pixelaspectratio>
                    <anamorphic>FALSE</anamorphic>
                  </samplecharacteristics>
                </video>
              </media>
            </file>
            <sourcetrack>
              <mediatype>video</mediatype>
            </sourcetrack>
            <fielddominance>none</fielddominance>
          </clipitem>
          <clipitem id="A.png507">
            <name>A.png</name>
            <duration>1</duration>
            <rate>
              <ntsc>FALSE</ntsc>
              <timebase>25</timebase>
            </rate>
            <in>91732</in>
            <out>91733</out>
            <start>1732</start>
            <end>1733</end>
            <pixelaspectratio>Square</pixelaspectratio>
            <stillframe>TRUE</stillframe>
            <anamorphic>FALSE</anamorphic>
            <alphatype>straight</alphatype>
            <masterclipid>A.png507</masterclipid>
            <file id="A">
              <name>A.png</name>
              <pathurl>D:/Codes/SynthLip/SynthLipN/bin/Debug/net6.0-windows/Skin/template/A.png</pathurl>
              <rate>
                <ntsc>FALSE</ntsc>
                <timebase>25</timebase>
              </rate>
              <duration>2</duration>
              <width>1920</width>
              <height>1080</height>
              <media>
                <video>
                  <duration>2</duration>
                  <stillframe>TRUE</stillframe>
                  <samplecharacteristics>
                    <rate>
                      <ntsc>FALSE</ntsc>
                      <timebase>25</timebase>
                    </rate>
                    <width>1920</width>
                    <height>1080</height>
                    <pixelaspectratio>Square</pixelaspectratio>
                    <anamorphic>FALSE</anamorphic>
                  </samplecharacteristics>
                </video>
              </media>
            </file>
            <sourcetrack>
              <mediatype>video</mediatype>
            </sourcetrack>
            <fielddominance>none</fielddominance>
          </clipitem>
          <clipitem id="C.png506">
            <name>C.png</name>
            <duration>5</duration>
            <rate>
              <ntsc>FALSE</ntsc>
              <timebase>25</timebase>
            </rate>
            <in>91726</in>
            <out>91731</out>
            <start>1726</start>
            <end>1731</end>
            <pixelaspectratio>Square</pixelaspectratio>
            <stillframe>TRUE</stillframe>
            <anamorphic>FALSE</anamorphic>
            <alphatype>straight</alphatype>
            <masterclipid>C.png506</masterclipid>
            <file id="C">
              <name>C.png</name>
              <pathurl>D:/Codes/SynthLip/SynthLipN/bin/Debug/net6.0-windows/Skin/template/C.png</pathurl>
              <rate>
                <ntsc>FALSE</ntsc>
                <timebase>25</timebase>
              </rate>
              <duration>2</duration>
              <width>1920</width>
              <height>1080</height>
              <media>
                <video>
                  <duration>2</duration>
                  <stillframe>TRUE</stillframe>
                  <samplecharacteristics>
                    <rate>
                      <ntsc>FALSE</ntsc>
                      <timebase>25</timebase>
                    </rate>
                    <width>1920</width>
                    <height>1080</height>
                    <pixelaspectratio>Square</pixelaspectratio>
                    <anamorphic>FALSE</anamorphic>
                  </samplecharacteristics>
                </video>
              </media>
            </file>
            <sourcetrack>
              <mediatype>video</mediatype>
            </sourcetrack>
            <fielddominance>none</fielddominance>
          </clipitem>
          <clipitem id="C.png501">
            <name>C.png</name>
            <duration>3</duration>
            <rate>
              <ntsc>FALSE</ntsc>
              <timebase>25</timebase>
            </rate>
            <in>91721</in>
            <out>91724</out>
            <start>1721</start>
            <end>1724</end>
            <pixelaspectratio>Square</pixelaspectratio>
            <stillframe>TRUE</stillframe>
            <anamorphic>FALSE</anamorphic>
            <alphatype>straight</alphatype>
            <masterclipid>C.png501</masterclipid>
            <file id="C">
              <name>C.png</name>
              <pathurl>D:/Codes/SynthLip/SynthLipN/bin/Debug/net6.0-windows/Skin/template/C.png</pathurl>
              <rate>
                <ntsc>FALSE</ntsc>
                <timebase>25</timebase>
              </rate>
              <duration>2</duration>
              <width>1920</width>
              <height>1080</height>
              <media>
                <video>
                  <duration>2</duration>
                  <stillframe>TRUE</stillframe>
                  <samplecharacteristics>
                    <rate>
                      <ntsc>FALSE</ntsc>
                      <timebase>25</timebase>
                    </rate>
                    <width>1920</width>
                    <height>1080</height>
                    <pixelaspectratio>Square</pixelaspectratio>
                    <anamorphic>FALSE</anamorphic>
                  </samplecharacteristics>
                </video>
              </media>
            </file>
            <sourcetrack>
              <mediatype>video</mediatype>
            </sourcetrack>
            <fielddominance>none</fielddominance>
          </clipitem>
          <clipitem id="A.png500">
            <name>A.png</name>
            <duration>3</duration>
            <rate>
              <ntsc>FALSE</ntsc>
              <timebase>25</timebase>
            </rate>
            <in>91717</in>
            <out>91720</out>
            <start>1717</start>
            <end>1720</end>
            <pixelaspectratio>Square</pixelaspectratio>
            <stillframe>TRUE</stillframe>
            <anamorphic>FALSE</anamorphic>
            <alphatype>straight</alphatype>
            <masterclipid>A.png500</masterclipid>
            <file id="A">
              <name>A.png</name>
              <pathurl>D:/Codes/SynthLip/SynthLipN/bin/Debug/net6.0-windows/Skin/template/A.png</pathurl>
              <rate>
                <ntsc>FALSE</ntsc>
                <timebase>25</timebase>
              </rate>
              <duration>2</duration>
              <width>1920</width>
              <height>1080</height>
              <media>
                <video>
                  <duration>2</duration>
                  <stillframe>TRUE</stillframe>
                  <samplecharacteristics>
                    <rate>
                      <ntsc>FALSE</ntsc>
                      <timebase>25</timebase>
                    </rate>
                    <width>1920</width>
                    <height>1080</height>
                    <pixelaspectratio>Square</pixelaspectratio>
                    <anamorphic>FALSE</anamorphic>
                  </samplecharacteristics>
                </video>
              </media>
            </file>
            <sourcetrack>
              <mediatype>video</mediatype>
            </sourcetrack>
            <fielddominance>none</fielddominance>
          </clipitem>
          <clipitem id="A.png499">
            <name>A.png</name>
            <duration>5</duration>
            <rate>
              <ntsc>FALSE</ntsc>
              <timebase>25</timebase>
            </rate>
            <in>91711</in>
            <out>91716</out>
            <start>1711</start>
            <end>1716</end>
            <pixelaspectratio>Square</pixelaspectratio>
            <stillframe>TRUE</stillframe>
            <anamorphic>FALSE</anamorphic>
            <alphatype>straight</alphatype>
            <masterclipid>A.png499</masterclipid>
            <file id="A">
              <name>A.png</name>
              <pathurl>D:/Codes/SynthLip/SynthLipN/bin/Debug/net6.0-windows/Skin/template/A.png</pathurl>
              <rate>
                <ntsc>FALSE</ntsc>
                <timebase>25</timebase>
              </rate>
              <duration>2</duration>
              <width>1920</width>
              <height>1080</height>
              <media>
                <video>
                  <duration>2</duration>
                  <stillframe>TRUE</stillframe>
                  <samplecharacteristics>
                    <rate>
                      <ntsc>FALSE</ntsc>
                      <timebase>25</timebase>
                    </rate>
                    <width>1920</width>
                    <height>1080</height>
                    <pixelaspectratio>Square</pixelaspectratio>
                    <anamorphic>FALSE</anamorphic>
                  </samplecharacteristics>
                </video>
              </media>
            </file>
            <sourcetrack>
              <mediatype>video</mediatype>
            </sourcetrack>
            <fielddominance>none</fielddominance>
          </clipitem>
          <clipitem id="C.png494">
            <name>C.png</name>
            <duration>2</duration>
            <rate>
              <ntsc>FALSE</ntsc>
              <timebase>25</timebase>
            </rate>
            <in>91707</in>
            <out>91709</out>
            <start>1707</start>
            <end>1709</end>
            <pixelaspectratio>Square</pixelaspectratio>
            <stillframe>TRUE</stillframe>
            <anamorphic>FALSE</anamorphic>
            <alphatype>straight</alphatype>
            <masterclipid>C.png494</masterclipid>
            <file id="C">
              <name>C.png</name>
              <pathurl>D:/Codes/SynthLip/SynthLipN/bin/Debug/net6.0-windows/Skin/template/C.png</pathurl>
              <rate>
                <ntsc>FALSE</ntsc>
                <timebase>25</timebase>
              </rate>
              <duration>2</duration>
              <width>1920</width>
              <height>1080</height>
              <media>
                <video>
                  <duration>2</duration>
                  <stillframe>TRUE</stillframe>
                  <samplecharacteristics>
                    <rate>
                      <ntsc>FALSE</ntsc>
                      <timebase>25</timebase>
                    </rate>
                    <width>1920</width>
                    <height>1080</height>
                    <pixelaspectratio>Square</pixelaspectratio>
                    <anamorphic>FALSE</anamorphic>
                  </samplecharacteristics>
                </video>
              </media>
            </file>
            <sourcetrack>
              <mediatype>video</mediatype>
            </sourcetrack>
            <fielddominance>none</fielddominance>
          </clipitem>
          <clipitem id="A.png493">
            <name>A.png</name>
            <duration>2</duration>
            <rate>
              <ntsc>FALSE</ntsc>
              <timebase>25</timebase>
            </rate>
            <in>91705</in>
            <out>91707</out>
            <start>1705</start>
            <end>1707</end>
            <pixelaspectratio>Square</pixelaspectratio>
            <stillframe>TRUE</stillframe>
            <anamorphic>FALSE</anamorphic>
            <alphatype>straight</alphatype>
            <masterclipid>A.png493</masterclipid>
            <file id="A">
              <name>A.png</name>
              <pathurl>D:/Codes/SynthLip/SynthLipN/bin/Debug/net6.0-windows/Skin/template/A.png</pathurl>
              <rate>
                <ntsc>FALSE</ntsc>
                <timebase>25</timebase>
              </rate>
              <duration>2</duration>
              <width>1920</width>
              <height>1080</height>
              <media>
                <video>
                  <duration>2</duration>
                  <stillframe>TRUE</stillframe>
                  <samplecharacteristics>
                    <rate>
                      <ntsc>FALSE</ntsc>
                      <timebase>25</timebase>
                    </rate>
                    <width>1920</width>
                    <height>1080</height>
                    <pixelaspectratio>Square</pixelaspectratio>
                    <anamorphic>FALSE</anamorphic>
                  </samplecharacteristics>
                </video>
              </media>
            </file>
            <sourcetrack>
              <mediatype>video</mediatype>
            </sourcetrack>
            <fielddominance>none</fielddominance>
          </clipitem>
          <clipitem id="D.png492">
            <name>D.png</name>
            <duration>2</duration>
            <rate>
              <ntsc>FALSE</ntsc>
              <timebase>25</timebase>
            </rate>
            <in>91702</in>
            <out>91704</out>
            <start>1702</start>
            <end>1704</end>
            <pixelaspectratio>Square</pixelaspectratio>
            <stillframe>TRUE</stillframe>
            <anamorphic>FALSE</anamorphic>
            <alphatype>straight</alphatype>
            <masterclipid>D.png492</masterclipid>
            <file id="D">
              <name>D.png</name>
              <pathurl>D:/Codes/SynthLip/SynthLipN/bin/Debug/net6.0-windows/Skin/template/D.png</pathurl>
              <rate>
                <ntsc>FALSE</ntsc>
                <timebase>25</timebase>
              </rate>
              <duration>2</duration>
              <width>1920</width>
              <height>1080</height>
              <media>
                <video>
                  <duration>2</duration>
                  <stillframe>TRUE</stillframe>
                  <samplecharacteristics>
                    <rate>
                      <ntsc>FALSE</ntsc>
                      <timebase>25</timebase>
                    </rate>
                    <width>1920</width>
                    <height>1080</height>
                    <pixelaspectratio>Square</pixelaspectratio>
                    <anamorphic>FALSE</anamorphic>
                  </samplecharacteristics>
                </video>
              </media>
            </file>
            <sourcetrack>
              <mediatype>video</mediatype>
            </sourcetrack>
            <fielddominance>none</fielddominance>
          </clipitem>
          <clipitem id="C.png491">
            <name>C.png</name>
            <duration>3</duration>
            <rate>
              <ntsc>FALSE</ntsc>
              <timebase>25</timebase>
            </rate>
            <in>91698</in>
            <out>91701</out>
            <start>1698</start>
            <end>1701</end>
            <pixelaspectratio>Square</pixelaspectratio>
            <stillframe>TRUE</stillframe>
            <anamorphic>FALSE</anamorphic>
            <alphatype>straight</alphatype>
            <masterclipid>C.png491</masterclipid>
            <file id="C">
              <name>C.png</name>
              <pathurl>D:/Codes/SynthLip/SynthLipN/bin/Debug/net6.0-windows/Skin/template/C.png</pathurl>
              <rate>
                <ntsc>FALSE</ntsc>
                <timebase>25</timebase>
              </rate>
              <duration>2</duration>
              <width>1920</width>
              <height>1080</height>
              <media>
                <video>
                  <duration>2</duration>
                  <stillframe>TRUE</stillframe>
                  <samplecharacteristics>
                    <rate>
                      <ntsc>FALSE</ntsc>
                      <timebase>25</timebase>
                    </rate>
                    <width>1920</width>
                    <height>1080</height>
                    <pixelaspectratio>Square</pixelaspectratio>
                    <anamorphic>FALSE</anamorphic>
                  </samplecharacteristics>
                </video>
              </media>
            </file>
            <sourcetrack>
              <mediatype>video</mediatype>
            </sourcetrack>
            <fielddominance>none</fielddominance>
          </clipitem>
          <clipitem id="C.png490">
            <name>C.png</name>
            <duration>3</duration>
            <rate>
              <ntsc>FALSE</ntsc>
              <timebase>25</timebase>
            </rate>
            <in>91695</in>
            <out>91698</out>
            <start>1695</start>
            <end>1698</end>
            <pixelaspectratio>Square</pixelaspectratio>
            <stillframe>TRUE</stillframe>
            <anamorphic>FALSE</anamorphic>
            <alphatype>straight</alphatype>
            <masterclipid>C.png490</masterclipid>
            <file id="C">
              <name>C.png</name>
              <pathurl>D:/Codes/SynthLip/SynthLipN/bin/Debug/net6.0-windows/Skin/template/C.png</pathurl>
              <rate>
                <ntsc>FALSE</ntsc>
                <timebase>25</timebase>
              </rate>
              <duration>2</duration>
              <width>1920</width>
              <height>1080</height>
              <media>
                <video>
                  <duration>2</duration>
                  <stillframe>TRUE</stillframe>
                  <samplecharacteristics>
                    <rate>
                      <ntsc>FALSE</ntsc>
                      <timebase>25</timebase>
                    </rate>
                    <width>1920</width>
                    <height>1080</height>
                    <pixelaspectratio>Square</pixelaspectratio>
                    <anamorphic>FALSE</anamorphic>
                  </samplecharacteristics>
                </video>
              </media>
            </file>
            <sourcetrack>
              <mediatype>video</mediatype>
            </sourcetrack>
            <fielddominance>none</fielddominance>
          </clipitem>
          <clipitem id="C.png489">
            <name>C.png</name>
            <duration>3</duration>
            <rate>
              <ntsc>FALSE</ntsc>
              <timebase>25</timebase>
            </rate>
            <in>91691</in>
            <out>91694</out>
            <start>1691</start>
            <end>1694</end>
            <pixelaspectratio>Square</pixelaspectratio>
            <stillframe>TRUE</stillframe>
            <anamorphic>FALSE</anamorphic>
            <alphatype>straight</alphatype>
            <masterclipid>C.png489</masterclipid>
            <file id="C">
              <name>C.png</name>
              <pathurl>D:/Codes/SynthLip/SynthLipN/bin/Debug/net6.0-windows/Skin/template/C.png</pathurl>
              <rate>
                <ntsc>FALSE</ntsc>
                <timebase>25</timebase>
              </rate>
              <duration>2</duration>
              <width>1920</width>
              <height>1080</height>
              <media>
                <video>
                  <duration>2</duration>
                  <stillframe>TRUE</stillframe>
                  <samplecharacteristics>
                    <rate>
                      <ntsc>FALSE</ntsc>
                      <timebase>25</timebase>
                    </rate>
                    <width>1920</width>
                    <height>1080</height>
                    <pixelaspectratio>Square</pixelaspectratio>
                    <anamorphic>FALSE</anamorphic>
                  </samplecharacteristics>
                </video>
              </media>
            </file>
            <sourcetrack>
              <mediatype>video</mediatype>
            </sourcetrack>
            <fielddominance>none</fielddominance>
          </clipitem>
          <clipitem id="A.png488">
            <name>A.png</name>
            <duration>3</duration>
            <rate>
              <ntsc>FALSE</ntsc>
              <timebase>25</timebase>
            </rate>
            <in>91687</in>
            <out>91690</out>
            <start>1687</start>
            <end>1690</end>
            <pixelaspectratio>Square</pixelaspectratio>
            <stillframe>TRUE</stillframe>
            <anamorphic>FALSE</anamorphic>
            <alphatype>straight</alphatype>
            <masterclipid>A.png488</masterclipid>
            <file id="A">
              <name>A.png</name>
              <pathurl>D:/Codes/SynthLip/SynthLipN/bin/Debug/net6.0-windows/Skin/template/A.png</pathurl>
              <rate>
                <ntsc>FALSE</ntsc>
                <timebase>25</timebase>
              </rate>
              <duration>2</duration>
              <width>1920</width>
              <height>1080</height>
              <media>
                <video>
                  <duration>2</duration>
                  <stillframe>TRUE</stillframe>
                  <samplecharacteristics>
                    <rate>
                      <ntsc>FALSE</ntsc>
                      <timebase>25</timebase>
                    </rate>
                    <width>1920</width>
                    <height>1080</height>
                    <pixelaspectratio>Square</pixelaspectratio>
                    <anamorphic>FALSE</anamorphic>
                  </samplecharacteristics>
                </video>
              </media>
            </file>
            <sourcetrack>
              <mediatype>video</mediatype>
            </sourcetrack>
            <fielddominance>none</fielddominance>
          </clipitem>
          <clipitem id="B.png487">
            <name>B.png</name>
            <duration>5</duration>
            <rate>
              <ntsc>FALSE</ntsc>
              <timebase>25</timebase>
            </rate>
            <in>91681</in>
            <out>91686</out>
            <start>1681</start>
            <end>1686</end>
            <pixelaspectratio>Square</pixelaspectratio>
            <stillframe>TRUE</stillframe>
            <anamorphic>FALSE</anamorphic>
            <alphatype>straight</alphatype>
            <masterclipid>B.png487</masterclipid>
            <file id="B">
              <name>B.png</name>
              <pathurl>D:/Codes/SynthLip/SynthLipN/bin/Debug/net6.0-windows/Skin/template/B.png</pathurl>
              <rate>
                <ntsc>FALSE</ntsc>
                <timebase>25</timebase>
              </rate>
              <duration>2</duration>
              <width>1920</width>
              <height>1080</height>
              <media>
                <video>
                  <duration>2</duration>
                  <stillframe>TRUE</stillframe>
                  <samplecharacteristics>
                    <rate>
                      <ntsc>FALSE</ntsc>
                      <timebase>25</timebase>
                    </rate>
                    <width>1920</width>
                    <height>1080</height>
                    <pixelaspectratio>Square</pixelaspectratio>
                    <anamorphic>FALSE</anamorphic>
                  </samplecharacteristics>
                </video>
              </media>
            </file>
            <sourcetrack>
              <mediatype>video</mediatype>
            </sourcetrack>
            <fielddominance>none</fielddominance>
          </clipitem>
          <clipitem id="C.png483">
            <name>C.png</name>
            <duration>3</duration>
            <rate>
              <ntsc>FALSE</ntsc>
              <timebase>25</timebase>
            </rate>
            <in>91676</in>
            <out>91679</out>
            <start>1676</start>
            <end>1679</end>
            <pixelaspectratio>Square</pixelaspectratio>
            <stillframe>TRUE</stillframe>
            <anamorphic>FALSE</anamorphic>
            <alphatype>straight</alphatype>
            <masterclipid>C.png483</masterclipid>
            <file id="C">
              <name>C.png</name>
              <pathurl>D:/Codes/SynthLip/SynthLipN/bin/Debug/net6.0-windows/Skin/template/C.png</pathurl>
              <rate>
                <ntsc>FALSE</ntsc>
                <timebase>25</timebase>
              </rate>
              <duration>2</duration>
              <width>1920</width>
              <height>1080</height>
              <media>
                <video>
                  <duration>2</duration>
                  <stillframe>TRUE</stillframe>
                  <samplecharacteristics>
                    <rate>
                      <ntsc>FALSE</ntsc>
                      <timebase>25</timebase>
                    </rate>
                    <width>1920</width>
                    <height>1080</height>
                    <pixelaspectratio>Square</pixelaspectratio>
                    <anamorphic>FALSE</anamorphic>
                  </samplecharacteristics>
                </video>
              </media>
            </file>
            <sourcetrack>
              <mediatype>video</mediatype>
            </sourcetrack>
            <fielddominance>none</fielddominance>
          </clipitem>
          <clipitem id="A.png482">
            <name>A.png</name>
            <duration>3</duration>
            <rate>
              <ntsc>FALSE</ntsc>
              <timebase>25</timebase>
            </rate>
            <in>91672</in>
            <out>91675</out>
            <start>1672</start>
            <end>1675</end>
            <pixelaspectratio>Square</pixelaspectratio>
            <stillframe>TRUE</stillframe>
            <anamorphic>FALSE</anamorphic>
            <alphatype>straight</alphatype>
            <masterclipid>A.png482</masterclipid>
            <file id="A">
              <name>A.png</name>
              <pathurl>D:/Codes/SynthLip/SynthLipN/bin/Debug/net6.0-windows/Skin/template/A.png</pathurl>
              <rate>
                <ntsc>FALSE</ntsc>
                <timebase>25</timebase>
              </rate>
              <duration>2</duration>
              <width>1920</width>
              <height>1080</height>
              <media>
                <video>
                  <duration>2</duration>
                  <stillframe>TRUE</stillframe>
                  <samplecharacteristics>
                    <rate>
                      <ntsc>FALSE</ntsc>
                      <timebase>25</timebase>
                    </rate>
                    <width>1920</width>
                    <height>1080</height>
                    <pixelaspectratio>Square</pixelaspectratio>
                    <anamorphic>FALSE</anamorphic>
                  </samplecharacteristics>
                </video>
              </media>
            </file>
            <sourcetrack>
              <mediatype>video</mediatype>
            </sourcetrack>
            <fielddominance>none</fielddominance>
          </clipitem>
          <clipitem id="B.png481">
            <name>B.png</name>
            <duration>3</duration>
            <rate>
              <ntsc>FALSE</ntsc>
              <timebase>25</timebase>
            </rate>
            <in>91668</in>
            <out>91671</out>
            <start>1668</start>
            <end>1671</end>
            <pixelaspectratio>Square</pixelaspectratio>
            <stillframe>TRUE</stillframe>
            <anamorphic>FALSE</anamorphic>
            <alphatype>straight</alphatype>
            <masterclipid>B.png481</masterclipid>
            <file id="B">
              <name>B.png</name>
              <pathurl>D:/Codes/SynthLip/SynthLipN/bin/Debug/net6.0-windows/Skin/template/B.png</pathurl>
              <rate>
                <ntsc>FALSE</ntsc>
                <timebase>25</timebase>
              </rate>
              <duration>2</duration>
              <width>1920</width>
              <height>1080</height>
              <media>
                <video>
                  <duration>2</duration>
                  <stillframe>TRUE</stillframe>
                  <samplecharacteristics>
                    <rate>
                      <ntsc>FALSE</ntsc>
                      <timebase>25</timebase>
                    </rate>
                    <width>1920</width>
                    <height>1080</height>
                    <pixelaspectratio>Square</pixelaspectratio>
                    <anamorphic>FALSE</anamorphic>
                  </samplecharacteristics>
                </video>
              </media>
            </file>
            <sourcetrack>
              <mediatype>video</mediatype>
            </sourcetrack>
            <fielddominance>none</fielddominance>
          </clipitem>
          <clipitem id="C.png475">
            <name>C.png</name>
            <duration>3</duration>
            <rate>
              <ntsc>FALSE</ntsc>
              <timebase>25</timebase>
            </rate>
            <in>91661</in>
            <out>91664</out>
            <start>1661</start>
            <end>1664</end>
            <pixelaspectratio>Square</pixelaspectratio>
            <stillframe>TRUE</stillframe>
            <anamorphic>FALSE</anamorphic>
            <alphatype>straight</alphatype>
            <masterclipid>C.png475</masterclipid>
            <file id="C">
              <name>C.png</name>
              <pathurl>D:/Codes/SynthLip/SynthLipN/bin/Debug/net6.0-windows/Skin/template/C.png</pathurl>
              <rate>
                <ntsc>FALSE</ntsc>
                <timebase>25</timebase>
              </rate>
              <duration>2</duration>
              <width>1920</width>
              <height>1080</height>
              <media>
                <video>
                  <duration>2</duration>
                  <stillframe>TRUE</stillframe>
                  <samplecharacteristics>
                    <rate>
                      <ntsc>FALSE</ntsc>
                      <timebase>25</timebase>
                    </rate>
                    <width>1920</width>
                    <height>1080</height>
                    <pixelaspectratio>Square</pixelaspectratio>
                    <anamorphic>FALSE</anamorphic>
                  </samplecharacteristics>
                </video>
              </media>
            </file>
            <sourcetrack>
              <mediatype>video</mediatype>
            </sourcetrack>
            <fielddominance>none</fielddominance>
          </clipitem>
          <clipitem id="A.png474">
            <name>A.png</name>
            <duration>3</duration>
            <rate>
              <ntsc>FALSE</ntsc>
              <timebase>25</timebase>
            </rate>
            <in>91657</in>
            <out>91660</out>
            <start>1657</start>
            <end>1660</end>
            <pixelaspectratio>Square</pixelaspectratio>
            <stillframe>TRUE</stillframe>
            <anamorphic>FALSE</anamorphic>
            <alphatype>straight</alphatype>
            <masterclipid>A.png474</masterclipid>
            <file id="A">
              <name>A.png</name>
              <pathurl>D:/Codes/SynthLip/SynthLipN/bin/Debug/net6.0-windows/Skin/template/A.png</pathurl>
              <rate>
                <ntsc>FALSE</ntsc>
                <timebase>25</timebase>
              </rate>
              <duration>2</duration>
              <width>1920</width>
              <height>1080</height>
              <media>
                <video>
                  <duration>2</duration>
                  <stillframe>TRUE</stillframe>
                  <samplecharacteristics>
                    <rate>
                      <ntsc>FALSE</ntsc>
                      <timebase>25</timebase>
                    </rate>
                    <width>1920</width>
                    <height>1080</height>
                    <pixelaspectratio>Square</pixelaspectratio>
                    <anamorphic>FALSE</anamorphic>
                  </samplecharacteristics>
                </video>
              </media>
            </file>
            <sourcetrack>
              <mediatype>video</mediatype>
            </sourcetrack>
            <fielddominance>none</fielddominance>
          </clipitem>
          <clipitem id="F.png473">
            <name>F.png</name>
            <duration>5</duration>
            <rate>
              <ntsc>FALSE</ntsc>
              <timebase>25</timebase>
            </rate>
            <in>91651</in>
            <out>91656</out>
            <start>1651</start>
            <end>1656</end>
            <pixelaspectratio>Square</pixelaspectratio>
            <stillframe>TRUE</stillframe>
            <anamorphic>FALSE</anamorphic>
            <alphatype>straight</alphatype>
            <masterclipid>F.png473</masterclipid>
            <file id="F">
              <name>F.png</name>
              <pathurl>D:/Codes/SynthLip/SynthLipN/bin/Debug/net6.0-windows/Skin/template/F.png</pathurl>
              <rate>
                <ntsc>FALSE</ntsc>
                <timebase>25</timebase>
              </rate>
              <duration>2</duration>
              <width>1920</width>
              <height>1080</height>
              <media>
                <video>
                  <duration>2</duration>
                  <stillframe>TRUE</stillframe>
                  <samplecharacteristics>
                    <rate>
                      <ntsc>FALSE</ntsc>
                      <timebase>25</timebase>
                    </rate>
                    <width>1920</width>
                    <height>1080</height>
                    <pixelaspectratio>Square</pixelaspectratio>
                    <anamorphic>FALSE</anamorphic>
                  </samplecharacteristics>
                </video>
              </media>
            </file>
            <sourcetrack>
              <mediatype>video</mediatype>
            </sourcetrack>
            <fielddominance>none</fielddominance>
          </clipitem>
          <clipitem id="C.png471">
            <name>C.png</name>
            <duration>2</duration>
            <rate>
              <ntsc>FALSE</ntsc>
              <timebase>25</timebase>
            </rate>
            <in>91648</in>
            <out>91650</out>
            <start>1648</start>
            <end>1650</end>
            <pixelaspectratio>Square</pixelaspectratio>
            <stillframe>TRUE</stillframe>
            <anamorphic>FALSE</anamorphic>
            <alphatype>straight</alphatype>
            <masterclipid>C.png471</masterclipid>
            <file id="C">
              <name>C.png</name>
              <pathurl>D:/Codes/SynthLip/SynthLipN/bin/Debug/net6.0-windows/Skin/template/C.png</pathurl>
              <rate>
                <ntsc>FALSE</ntsc>
                <timebase>25</timebase>
              </rate>
              <duration>2</duration>
              <width>1920</width>
              <height>1080</height>
              <media>
                <video>
                  <duration>2</duration>
                  <stillframe>TRUE</stillframe>
                  <samplecharacteristics>
                    <rate>
                      <ntsc>FALSE</ntsc>
                      <timebase>25</timebase>
                    </rate>
                    <width>1920</width>
                    <height>1080</height>
                    <pixelaspectratio>Square</pixelaspectratio>
                    <anamorphic>FALSE</anamorphic>
                  </samplecharacteristics>
                </video>
              </media>
            </file>
            <sourcetrack>
              <mediatype>video</mediatype>
            </sourcetrack>
            <fielddominance>none</fielddominance>
          </clipitem>
          <clipitem id="A.png470">
            <name>A.png</name>
            <duration>2</duration>
            <rate>
              <ntsc>FALSE</ntsc>
              <timebase>25</timebase>
            </rate>
            <in>91645</in>
            <out>91647</out>
            <start>1645</start>
            <end>1647</end>
            <pixelaspectratio>Square</pixelaspectratio>
            <stillframe>TRUE</stillframe>
            <anamorphic>FALSE</anamorphic>
            <alphatype>straight</alphatype>
            <masterclipid>A.png470</masterclipid>
            <file id="A">
              <name>A.png</name>
              <pathurl>D:/Codes/SynthLip/SynthLipN/bin/Debug/net6.0-windows/Skin/template/A.png</pathurl>
              <rate>
                <ntsc>FALSE</ntsc>
                <timebase>25</timebase>
              </rate>
              <duration>2</duration>
              <width>1920</width>
              <height>1080</height>
              <media>
                <video>
                  <duration>2</duration>
                  <stillframe>TRUE</stillframe>
                  <samplecharacteristics>
                    <rate>
                      <ntsc>FALSE</ntsc>
                      <timebase>25</timebase>
                    </rate>
                    <width>1920</width>
                    <height>1080</height>
                    <pixelaspectratio>Square</pixelaspectratio>
                    <anamorphic>FALSE</anamorphic>
                  </samplecharacteristics>
                </video>
              </media>
            </file>
            <sourcetrack>
              <mediatype>video</mediatype>
            </sourcetrack>
            <fielddominance>none</fielddominance>
          </clipitem>
          <clipitem id="A.png469">
            <name>A.png</name>
            <duration>2</duration>
            <rate>
              <ntsc>FALSE</ntsc>
              <timebase>25</timebase>
            </rate>
            <in>91642</in>
            <out>91644</out>
            <start>1642</start>
            <end>1644</end>
            <pixelaspectratio>Square</pixelaspectratio>
            <stillframe>TRUE</stillframe>
            <anamorphic>FALSE</anamorphic>
            <alphatype>straight</alphatype>
            <masterclipid>A.png469</masterclipid>
            <file id="A">
              <name>A.png</name>
              <pathurl>D:/Codes/SynthLip/SynthLipN/bin/Debug/net6.0-windows/Skin/template/A.png</pathurl>
              <rate>
                <ntsc>FALSE</ntsc>
                <timebase>25</timebase>
              </rate>
              <duration>2</duration>
              <width>1920</width>
              <height>1080</height>
              <media>
                <video>
                  <duration>2</duration>
                  <stillframe>TRUE</stillframe>
                  <samplecharacteristics>
                    <rate>
                      <ntsc>FALSE</ntsc>
                      <timebase>25</timebase>
                    </rate>
                    <width>1920</width>
                    <height>1080</height>
                    <pixelaspectratio>Square</pixelaspectratio>
                    <anamorphic>FALSE</anamorphic>
                  </samplecharacteristics>
                </video>
              </media>
            </file>
            <sourcetrack>
              <mediatype>video</mediatype>
            </sourcetrack>
            <fielddominance>none</fielddominance>
          </clipitem>
          <clipitem id="C.png468">
            <name>C.png</name>
            <duration>5</duration>
            <rate>
              <ntsc>FALSE</ntsc>
              <timebase>25</timebase>
            </rate>
            <in>91636</in>
            <out>91641</out>
            <start>1636</start>
            <end>1641</end>
            <pixelaspectratio>Square</pixelaspectratio>
            <stillframe>TRUE</stillframe>
            <anamorphic>FALSE</anamorphic>
            <alphatype>straight</alphatype>
            <masterclipid>C.png468</masterclipid>
            <file id="C">
              <name>C.png</name>
              <pathurl>D:/Codes/SynthLip/SynthLipN/bin/Debug/net6.0-windows/Skin/template/C.png</pathurl>
              <rate>
                <ntsc>FALSE</ntsc>
                <timebase>25</timebase>
              </rate>
              <duration>2</duration>
              <width>1920</width>
              <height>1080</height>
              <media>
                <video>
                  <duration>2</duration>
                  <stillframe>TRUE</stillframe>
                  <samplecharacteristics>
                    <rate>
                      <ntsc>FALSE</ntsc>
                      <timebase>25</timebase>
                    </rate>
                    <width>1920</width>
                    <height>1080</height>
                    <pixelaspectratio>Square</pixelaspectratio>
                    <anamorphic>FALSE</anamorphic>
                  </samplecharacteristics>
                </video>
              </media>
            </file>
            <sourcetrack>
              <mediatype>video</mediatype>
            </sourcetrack>
            <fielddominance>none</fielddominance>
          </clipitem>
          <clipitem id="C.png463">
            <name>C.png</name>
            <duration>2</duration>
            <rate>
              <ntsc>FALSE</ntsc>
              <timebase>25</timebase>
            </rate>
            <in>91632</in>
            <out>91634</out>
            <start>1632</start>
            <end>1634</end>
            <pixelaspectratio>Square</pixelaspectratio>
            <stillframe>TRUE</stillframe>
            <anamorphic>FALSE</anamorphic>
            <alphatype>straight</alphatype>
            <masterclipid>C.png463</masterclipid>
            <file id="C">
              <name>C.png</name>
              <pathurl>D:/Codes/SynthLip/SynthLipN/bin/Debug/net6.0-windows/Skin/template/C.png</pathurl>
              <rate>
                <ntsc>FALSE</ntsc>
                <timebase>25</timebase>
              </rate>
              <duration>2</duration>
              <width>1920</width>
              <height>1080</height>
              <media>
                <video>
                  <duration>2</duration>
                  <stillframe>TRUE</stillframe>
                  <samplecharacteristics>
                    <rate>
                      <ntsc>FALSE</ntsc>
                      <timebase>25</timebase>
                    </rate>
                    <width>1920</width>
                    <height>1080</height>
                    <pixelaspectratio>Square</pixelaspectratio>
                    <anamorphic>FALSE</anamorphic>
                  </samplecharacteristics>
                </video>
              </media>
            </file>
            <sourcetrack>
              <mediatype>video</mediatype>
            </sourcetrack>
            <fielddominance>none</fielddominance>
          </clipitem>
          <clipitem id="G.png462">
            <name>G.png</name>
            <duration>2</duration>
            <rate>
              <ntsc>FALSE</ntsc>
              <timebase>25</timebase>
            </rate>
            <in>91630</in>
            <out>91632</out>
            <start>1630</start>
            <end>1632</end>
            <pixelaspectratio>Square</pixelaspectratio>
            <stillframe>TRUE</stillframe>
            <anamorphic>FALSE</anamorphic>
            <alphatype>straight</alphatype>
            <masterclipid>G.png462</masterclipid>
            <file id="G">
              <name>G.png</name>
              <pathurl>D:/Codes/SynthLip/SynthLipN/bin/Debug/net6.0-windows/Skin/template/G.png</pathurl>
              <rate>
                <ntsc>FALSE</ntsc>
                <timebase>25</timebase>
              </rate>
              <duration>2</duration>
              <width>1920</width>
              <height>1080</height>
              <media>
                <video>
                  <duration>2</duration>
                  <stillframe>TRUE</stillframe>
                  <samplecharacteristics>
                    <rate>
                      <ntsc>FALSE</ntsc>
                      <timebase>25</timebase>
                    </rate>
                    <width>1920</width>
                    <height>1080</height>
                    <pixelaspectratio>Square</pixelaspectratio>
                    <anamorphic>FALSE</anamorphic>
                  </samplecharacteristics>
                </video>
              </media>
            </file>
            <sourcetrack>
              <mediatype>video</mediatype>
            </sourcetrack>
            <fielddominance>none</fielddominance>
          </clipitem>
          <clipitem id="A.png461">
            <name>A.png</name>
            <duration>2</duration>
            <rate>
              <ntsc>FALSE</ntsc>
              <timebase>25</timebase>
            </rate>
            <in>91627</in>
            <out>91629</out>
            <start>1627</start>
            <end>1629</end>
            <pixelaspectratio>Square</pixelaspectratio>
            <stillframe>TRUE</stillframe>
            <anamorphic>FALSE</anamorphic>
            <alphatype>straight</alphatype>
            <masterclipid>A.png461</masterclipid>
            <file id="A">
              <name>A.png</name>
              <pathurl>D:/Codes/SynthLip/SynthLipN/bin/Debug/net6.0-windows/Skin/template/A.png</pathurl>
              <rate>
                <ntsc>FALSE</ntsc>
                <timebase>25</timebase>
              </rate>
              <duration>2</duration>
              <width>1920</width>
              <height>1080</height>
              <media>
                <video>
                  <duration>2</duration>
                  <stillframe>TRUE</stillframe>
                  <samplecharacteristics>
                    <rate>
                      <ntsc>FALSE</ntsc>
                      <timebase>25</timebase>
                    </rate>
                    <width>1920</width>
                    <height>1080</height>
                    <pixelaspectratio>Square</pixelaspectratio>
                    <anamorphic>FALSE</anamorphic>
                  </samplecharacteristics>
                </video>
              </media>
            </file>
            <sourcetrack>
              <mediatype>video</mediatype>
            </sourcetrack>
            <fielddominance>none</fielddominance>
          </clipitem>
          <clipitem id="C.png460">
            <name>C.png</name>
            <duration>5</duration>
            <rate>
              <ntsc>FALSE</ntsc>
              <timebase>25</timebase>
            </rate>
            <in>91621</in>
            <out>91626</out>
            <start>1621</start>
            <end>1626</end>
            <pixelaspectratio>Square</pixelaspectratio>
            <stillframe>TRUE</stillframe>
            <anamorphic>FALSE</anamorphic>
            <alphatype>straight</alphatype>
            <masterclipid>C.png460</masterclipid>
            <file id="C">
              <name>C.png</name>
              <pathurl>D:/Codes/SynthLip/SynthLipN/bin/Debug/net6.0-windows/Skin/template/C.png</pathurl>
              <rate>
                <ntsc>FALSE</ntsc>
                <timebase>25</timebase>
              </rate>
              <duration>2</duration>
              <width>1920</width>
              <height>1080</height>
              <media>
                <video>
                  <duration>2</duration>
                  <stillframe>TRUE</stillframe>
                  <samplecharacteristics>
                    <rate>
                      <ntsc>FALSE</ntsc>
                      <timebase>25</timebase>
                    </rate>
                    <width>1920</width>
                    <height>1080</height>
                    <pixelaspectratio>Square</pixelaspectratio>
                    <anamorphic>FALSE</anamorphic>
                  </samplecharacteristics>
                </video>
              </media>
            </file>
            <sourcetrack>
              <mediatype>video</mediatype>
            </sourcetrack>
            <fielddominance>none</fielddominance>
          </clipitem>
          <clipitem id="B.png459">
            <name>B.png</name>
            <duration>1</duration>
            <rate>
              <ntsc>FALSE</ntsc>
              <timebase>25</timebase>
            </rate>
            <in>91620</in>
            <out>91621</out>
            <start>1620</start>
            <end>1621</end>
            <pixelaspectratio>Square</pixelaspectratio>
            <stillframe>TRUE</stillframe>
            <anamorphic>FALSE</anamorphic>
            <alphatype>straight</alphatype>
            <masterclipid>B.png459</masterclipid>
            <file id="B">
              <name>B.png</name>
              <pathurl>D:/Codes/SynthLip/SynthLipN/bin/Debug/net6.0-windows/Skin/template/B.png</pathurl>
              <rate>
                <ntsc>FALSE</ntsc>
                <timebase>25</timebase>
              </rate>
              <duration>2</duration>
              <width>1920</width>
              <height>1080</height>
              <media>
                <video>
                  <duration>2</duration>
                  <stillframe>TRUE</stillframe>
                  <samplecharacteristics>
                    <rate>
                      <ntsc>FALSE</ntsc>
                      <timebase>25</timebase>
                    </rate>
                    <width>1920</width>
                    <height>1080</height>
                    <pixelaspectratio>Square</pixelaspectratio>
                    <anamorphic>FALSE</anamorphic>
                  </samplecharacteristics>
                </video>
              </media>
            </file>
            <sourcetrack>
              <mediatype>video</mediatype>
            </sourcetrack>
            <fielddominance>none</fielddominance>
          </clipitem>
          <clipitem id="C.png458">
            <name>C.png</name>
            <duration>2</duration>
            <rate>
              <ntsc>FALSE</ntsc>
              <timebase>25</timebase>
            </rate>
            <in>91617</in>
            <out>91619</out>
            <start>1617</start>
            <end>1619</end>
            <pixelaspectratio>Square</pixelaspectratio>
            <stillframe>TRUE</stillframe>
            <anamorphic>FALSE</anamorphic>
            <alphatype>straight</alphatype>
            <masterclipid>C.png458</masterclipid>
            <file id="C">
              <name>C.png</name>
              <pathurl>D:/Codes/SynthLip/SynthLipN/bin/Debug/net6.0-windows/Skin/template/C.png</pathurl>
              <rate>
                <ntsc>FALSE</ntsc>
                <timebase>25</timebase>
              </rate>
              <duration>2</duration>
              <width>1920</width>
              <height>1080</height>
              <media>
                <video>
                  <duration>2</duration>
                  <stillframe>TRUE</stillframe>
                  <samplecharacteristics>
                    <rate>
                      <ntsc>FALSE</ntsc>
                      <timebase>25</timebase>
                    </rate>
                    <width>1920</width>
                    <height>1080</height>
                    <pixelaspectratio>Square</pixelaspectratio>
                    <anamorphic>FALSE</anamorphic>
                  </samplecharacteristics>
                </video>
              </media>
            </file>
            <sourcetrack>
              <mediatype>video</mediatype>
            </sourcetrack>
            <fielddominance>none</fielddominance>
          </clipitem>
          <clipitem id="G.png457">
            <name>G.png</name>
            <duration>2</duration>
            <rate>
              <ntsc>FALSE</ntsc>
              <timebase>25</timebase>
            </rate>
            <in>91614</in>
            <out>91616</out>
            <start>1614</start>
            <end>1616</end>
            <pixelaspectratio>Square</pixelaspectratio>
            <stillframe>TRUE</stillframe>
            <anamorphic>FALSE</anamorphic>
            <alphatype>straight</alphatype>
            <masterclipid>G.png457</masterclipid>
            <file id="G">
              <name>G.png</name>
              <pathurl>D:/Codes/SynthLip/SynthLipN/bin/Debug/net6.0-windows/Skin/template/G.png</pathurl>
              <rate>
                <ntsc>FALSE</ntsc>
                <timebase>25</timebase>
              </rate>
              <duration>2</duration>
              <width>1920</width>
              <height>1080</height>
              <media>
                <video>
                  <duration>2</duration>
                  <stillframe>TRUE</stillframe>
                  <samplecharacteristics>
                    <rate>
                      <ntsc>FALSE</ntsc>
                      <timebase>25</timebase>
                    </rate>
                    <width>1920</width>
                    <height>1080</height>
                    <pixelaspectratio>Square</pixelaspectratio>
                    <anamorphic>FALSE</anamorphic>
                  </samplecharacteristics>
                </video>
              </media>
            </file>
            <sourcetrack>
              <mediatype>video</mediatype>
            </sourcetrack>
            <fielddominance>none</fielddominance>
          </clipitem>
          <clipitem id="A.png456">
            <name>A.png</name>
            <duration>2</duration>
            <rate>
              <ntsc>FALSE</ntsc>
              <timebase>25</timebase>
            </rate>
            <in>91612</in>
            <out>91614</out>
            <start>1612</start>
            <end>1614</end>
            <pixelaspectratio>Square</pixelaspectratio>
            <stillframe>TRUE</stillframe>
            <anamorphic>FALSE</anamorphic>
            <alphatype>straight</alphatype>
            <masterclipid>A.png456</masterclipid>
            <file id="A">
              <name>A.png</name>
              <pathurl>D:/Codes/SynthLip/SynthLipN/bin/Debug/net6.0-windows/Skin/template/A.png</pathurl>
              <rate>
                <ntsc>FALSE</ntsc>
                <timebase>25</timebase>
              </rate>
              <duration>2</duration>
              <width>1920</width>
              <height>1080</height>
              <media>
                <video>
                  <duration>2</duration>
                  <stillframe>TRUE</stillframe>
                  <samplecharacteristics>
                    <rate>
                      <ntsc>FALSE</ntsc>
                      <timebase>25</timebase>
                    </rate>
                    <width>1920</width>
                    <height>1080</height>
                    <pixelaspectratio>Square</pixelaspectratio>
                    <anamorphic>FALSE</anamorphic>
                  </samplecharacteristics>
                </video>
              </media>
            </file>
            <sourcetrack>
              <mediatype>video</mediatype>
            </sourcetrack>
            <fielddominance>none</fielddominance>
          </clipitem>
          <clipitem id="A.png455">
            <name>A.png</name>
            <duration>3</duration>
            <rate>
              <ntsc>FALSE</ntsc>
              <timebase>25</timebase>
            </rate>
            <in>91608</in>
            <out>91611</out>
            <start>1608</start>
            <end>1611</end>
            <pixelaspectratio>Square</pixelaspectratio>
            <stillframe>TRUE</stillframe>
            <anamorphic>FALSE</anamorphic>
            <alphatype>straight</alphatype>
            <masterclipid>A.png455</masterclipid>
            <file id="A">
              <name>A.png</name>
              <pathurl>D:/Codes/SynthLip/SynthLipN/bin/Debug/net6.0-windows/Skin/template/A.png</pathurl>
              <rate>
                <ntsc>FALSE</ntsc>
                <timebase>25</timebase>
              </rate>
              <duration>2</duration>
              <width>1920</width>
              <height>1080</height>
              <media>
                <video>
                  <duration>2</duration>
                  <stillframe>TRUE</stillframe>
                  <samplecharacteristics>
                    <rate>
                      <ntsc>FALSE</ntsc>
                      <timebase>25</timebase>
                    </rate>
                    <width>1920</width>
                    <height>1080</height>
                    <pixelaspectratio>Square</pixelaspectratio>
                    <anamorphic>FALSE</anamorphic>
                  </samplecharacteristics>
                </video>
              </media>
            </file>
            <sourcetrack>
              <mediatype>video</mediatype>
            </sourcetrack>
            <fielddominance>none</fielddominance>
          </clipitem>
          <clipitem id="D.png454">
            <name>D.png</name>
            <duration>1</duration>
            <rate>
              <ntsc>FALSE</ntsc>
              <timebase>25</timebase>
            </rate>
            <in>91607</in>
            <out>91608</out>
            <start>1607</start>
            <end>1608</end>
            <pixelaspectratio>Square</pixelaspectratio>
            <stillframe>TRUE</stillframe>
            <anamorphic>FALSE</anamorphic>
            <alphatype>straight</alphatype>
            <masterclipid>D.png454</masterclipid>
            <file id="D">
              <name>D.png</name>
              <pathurl>D:/Codes/SynthLip/SynthLipN/bin/Debug/net6.0-windows/Skin/template/D.png</pathurl>
              <rate>
                <ntsc>FALSE</ntsc>
                <timebase>25</timebase>
              </rate>
              <duration>2</duration>
              <width>1920</width>
              <height>1080</height>
              <media>
                <video>
                  <duration>2</duration>
                  <stillframe>TRUE</stillframe>
                  <samplecharacteristics>
                    <rate>
                      <ntsc>FALSE</ntsc>
                      <timebase>25</timebase>
                    </rate>
                    <width>1920</width>
                    <height>1080</height>
                    <pixelaspectratio>Square</pixelaspectratio>
                    <anamorphic>FALSE</anamorphic>
                  </samplecharacteristics>
                </video>
              </media>
            </file>
            <sourcetrack>
              <mediatype>video</mediatype>
            </sourcetrack>
            <fielddominance>none</fielddominance>
          </clipitem>
          <clipitem id="B.png453">
            <name>B.png</name>
            <duration>1</duration>
            <rate>
              <ntsc>FALSE</ntsc>
              <timebase>25</timebase>
            </rate>
            <in>91606</in>
            <out>91607</out>
            <start>1606</start>
            <end>1607</end>
            <pixelaspectratio>Square</pixelaspectratio>
            <stillframe>TRUE</stillframe>
            <anamorphic>FALSE</anamorphic>
            <alphatype>straight</alphatype>
            <masterclipid>B.png453</masterclipid>
            <file id="B">
              <name>B.png</name>
              <pathurl>D:/Codes/SynthLip/SynthLipN/bin/Debug/net6.0-windows/Skin/template/B.png</pathurl>
              <rate>
                <ntsc>FALSE</ntsc>
                <timebase>25</timebase>
              </rate>
              <duration>2</duration>
              <width>1920</width>
              <height>1080</height>
              <media>
                <video>
                  <duration>2</duration>
                  <stillframe>TRUE</stillframe>
                  <samplecharacteristics>
                    <rate>
                      <ntsc>FALSE</ntsc>
                      <timebase>25</timebase>
                    </rate>
                    <width>1920</width>
                    <height>1080</height>
                    <pixelaspectratio>Square</pixelaspectratio>
                    <anamorphic>FALSE</anamorphic>
                  </samplecharacteristics>
                </video>
              </media>
            </file>
            <sourcetrack>
              <mediatype>video</mediatype>
            </sourcetrack>
            <fielddominance>none</fielddominance>
          </clipitem>
          <clipitem id="B.png452">
            <name>B.png</name>
            <duration>1</duration>
            <rate>
              <ntsc>FALSE</ntsc>
              <timebase>25</timebase>
            </rate>
            <in>91605</in>
            <out>91606</out>
            <start>1605</start>
            <end>1606</end>
            <pixelaspectratio>Square</pixelaspectratio>
            <stillframe>TRUE</stillframe>
            <anamorphic>FALSE</anamorphic>
            <alphatype>straight</alphatype>
            <masterclipid>B.png452</masterclipid>
            <file id="B">
              <name>B.png</name>
              <pathurl>D:/Codes/SynthLip/SynthLipN/bin/Debug/net6.0-windows/Skin/template/B.png</pathurl>
              <rate>
                <ntsc>FALSE</ntsc>
                <timebase>25</timebase>
              </rate>
              <duration>2</duration>
              <width>1920</width>
              <height>1080</height>
              <media>
                <video>
                  <duration>2</duration>
                  <stillframe>TRUE</stillframe>
                  <samplecharacteristics>
                    <rate>
                      <ntsc>FALSE</ntsc>
                      <timebase>25</timebase>
                    </rate>
                    <width>1920</width>
                    <height>1080</height>
                    <pixelaspectratio>Square</pixelaspectratio>
                    <anamorphic>FALSE</anamorphic>
                  </samplecharacteristics>
                </video>
              </media>
            </file>
            <sourcetrack>
              <mediatype>video</mediatype>
            </sourcetrack>
            <fielddominance>none</fielddominance>
          </clipitem>
          <clipitem id="C.png451">
            <name>C.png</name>
            <duration>2</duration>
            <rate>
              <ntsc>FALSE</ntsc>
              <timebase>25</timebase>
            </rate>
            <in>91602</in>
            <out>91604</out>
            <start>1602</start>
            <end>1604</end>
            <pixelaspectratio>Square</pixelaspectratio>
            <stillframe>TRUE</stillframe>
            <anamorphic>FALSE</anamorphic>
            <alphatype>straight</alphatype>
            <masterclipid>C.png451</masterclipid>
            <file id="C">
              <name>C.png</name>
              <pathurl>D:/Codes/SynthLip/SynthLipN/bin/Debug/net6.0-windows/Skin/template/C.png</pathurl>
              <rate>
                <ntsc>FALSE</ntsc>
                <timebase>25</timebase>
              </rate>
              <duration>2</duration>
              <width>1920</width>
              <height>1080</height>
              <media>
                <video>
                  <duration>2</duration>
                  <stillframe>TRUE</stillframe>
                  <samplecharacteristics>
                    <rate>
                      <ntsc>FALSE</ntsc>
                      <timebase>25</timebase>
                    </rate>
                    <width>1920</width>
                    <height>1080</height>
                    <pixelaspectratio>Square</pixelaspectratio>
                    <anamorphic>FALSE</anamorphic>
                  </samplecharacteristics>
                </video>
              </media>
            </file>
            <sourcetrack>
              <mediatype>video</mediatype>
            </sourcetrack>
            <fielddominance>none</fielddominance>
          </clipitem>
          <clipitem id="B.png450">
            <name>B.png</name>
            <duration>2</duration>
            <rate>
              <ntsc>FALSE</ntsc>
              <timebase>25</timebase>
            </rate>
            <in>91600</in>
            <out>91602</out>
            <start>1600</start>
            <end>1602</end>
            <pixelaspectratio>Square</pixelaspectratio>
            <stillframe>TRUE</stillframe>
            <anamorphic>FALSE</anamorphic>
            <alphatype>straight</alphatype>
            <masterclipid>B.png450</masterclipid>
            <file id="B">
              <name>B.png</name>
              <pathurl>D:/Codes/SynthLip/SynthLipN/bin/Debug/net6.0-windows/Skin/template/B.png</pathurl>
              <rate>
                <ntsc>FALSE</ntsc>
                <timebase>25</timebase>
              </rate>
              <duration>2</duration>
              <width>1920</width>
              <height>1080</height>
              <media>
                <video>
                  <duration>2</duration>
                  <stillframe>TRUE</stillframe>
                  <samplecharacteristics>
                    <rate>
                      <ntsc>FALSE</ntsc>
                      <timebase>25</timebase>
                    </rate>
                    <width>1920</width>
                    <height>1080</height>
                    <pixelaspectratio>Square</pixelaspectratio>
                    <anamorphic>FALSE</anamorphic>
                  </samplecharacteristics>
                </video>
              </media>
            </file>
            <sourcetrack>
              <mediatype>video</mediatype>
            </sourcetrack>
            <fielddominance>none</fielddominance>
          </clipitem>
          <clipitem id="A.png449">
            <name>A.png</name>
            <duration>2</duration>
            <rate>
              <ntsc>FALSE</ntsc>
              <timebase>25</timebase>
            </rate>
            <in>91597</in>
            <out>91599</out>
            <start>1597</start>
            <end>1599</end>
            <pixelaspectratio>Square</pixelaspectratio>
            <stillframe>TRUE</stillframe>
            <anamorphic>FALSE</anamorphic>
            <alphatype>straight</alphatype>
            <masterclipid>A.png449</masterclipid>
            <file id="A">
              <name>A.png</name>
              <pathurl>D:/Codes/SynthLip/SynthLipN/bin/Debug/net6.0-windows/Skin/template/A.png</pathurl>
              <rate>
                <ntsc>FALSE</ntsc>
                <timebase>25</timebase>
              </rate>
              <duration>2</duration>
              <width>1920</width>
              <height>1080</height>
              <media>
                <video>
                  <duration>2</duration>
                  <stillframe>TRUE</stillframe>
                  <samplecharacteristics>
                    <rate>
                      <ntsc>FALSE</ntsc>
                      <timebase>25</timebase>
                    </rate>
                    <width>1920</width>
                    <height>1080</height>
                    <pixelaspectratio>Square</pixelaspectratio>
                    <anamorphic>FALSE</anamorphic>
                  </samplecharacteristics>
                </video>
              </media>
            </file>
            <sourcetrack>
              <mediatype>video</mediatype>
            </sourcetrack>
            <fielddominance>none</fielddominance>
          </clipitem>
          <clipitem id="C.png448">
            <name>C.png</name>
            <duration>5</duration>
            <rate>
              <ntsc>FALSE</ntsc>
              <timebase>25</timebase>
            </rate>
            <in>91591</in>
            <out>91596</out>
            <start>1591</start>
            <end>1596</end>
            <pixelaspectratio>Square</pixelaspectratio>
            <stillframe>TRUE</stillframe>
            <anamorphic>FALSE</anamorphic>
            <alphatype>straight</alphatype>
            <masterclipid>C.png448</masterclipid>
            <file id="C">
              <name>C.png</name>
              <pathurl>D:/Codes/SynthLip/SynthLipN/bin/Debug/net6.0-windows/Skin/template/C.png</pathurl>
              <rate>
                <ntsc>FALSE</ntsc>
                <timebase>25</timebase>
              </rate>
              <duration>2</duration>
              <width>1920</width>
              <height>1080</height>
              <media>
                <video>
                  <duration>2</duration>
                  <stillframe>TRUE</stillframe>
                  <samplecharacteristics>
                    <rate>
                      <ntsc>FALSE</ntsc>
                      <timebase>25</timebase>
                    </rate>
                    <width>1920</width>
                    <height>1080</height>
                    <pixelaspectratio>Square</pixelaspectratio>
                    <anamorphic>FALSE</anamorphic>
                  </samplecharacteristics>
                </video>
              </media>
            </file>
            <sourcetrack>
              <mediatype>video</mediatype>
            </sourcetrack>
            <fielddominance>none</fielddominance>
          </clipitem>
          <clipitem id="B.png445">
            <name>B.png</name>
            <duration>3</duration>
            <rate>
              <ntsc>FALSE</ntsc>
              <timebase>25</timebase>
            </rate>
            <in>91586</in>
            <out>91589</out>
            <start>1586</start>
            <end>1589</end>
            <pixelaspectratio>Square</pixelaspectratio>
            <stillframe>TRUE</stillframe>
            <anamorphic>FALSE</anamorphic>
            <alphatype>straight</alphatype>
            <masterclipid>B.png445</masterclipid>
            <file id="B">
              <name>B.png</name>
              <pathurl>D:/Codes/SynthLip/SynthLipN/bin/Debug/net6.0-windows/Skin/template/B.png</pathurl>
              <rate>
                <ntsc>FALSE</ntsc>
                <timebase>25</timebase>
              </rate>
              <duration>2</duration>
              <width>1920</width>
              <height>1080</height>
              <media>
                <video>
                  <duration>2</duration>
                  <stillframe>TRUE</stillframe>
                  <samplecharacteristics>
                    <rate>
                      <ntsc>FALSE</ntsc>
                      <timebase>25</timebase>
                    </rate>
                    <width>1920</width>
                    <height>1080</height>
                    <pixelaspectratio>Square</pixelaspectratio>
                    <anamorphic>FALSE</anamorphic>
                  </samplecharacteristics>
                </video>
              </media>
            </file>
            <sourcetrack>
              <mediatype>video</mediatype>
            </sourcetrack>
            <fielddominance>none</fielddominance>
          </clipitem>
          <clipitem id="A.png444">
            <name>A.png</name>
            <duration>3</duration>
            <rate>
              <ntsc>FALSE</ntsc>
              <timebase>25</timebase>
            </rate>
            <in>91582</in>
            <out>91585</out>
            <start>1582</start>
            <end>1585</end>
            <pixelaspectratio>Square</pixelaspectratio>
            <stillframe>TRUE</stillframe>
            <anamorphic>FALSE</anamorphic>
            <alphatype>straight</alphatype>
            <masterclipid>A.png444</masterclipid>
            <file id="A">
              <name>A.png</name>
              <pathurl>D:/Codes/SynthLip/SynthLipN/bin/Debug/net6.0-windows/Skin/template/A.png</pathurl>
              <rate>
                <ntsc>FALSE</ntsc>
                <timebase>25</timebase>
              </rate>
              <duration>2</duration>
              <width>1920</width>
              <height>1080</height>
              <media>
                <video>
                  <duration>2</duration>
                  <stillframe>TRUE</stillframe>
                  <samplecharacteristics>
                    <rate>
                      <ntsc>FALSE</ntsc>
                      <timebase>25</timebase>
                    </rate>
                    <width>1920</width>
                    <height>1080</height>
                    <pixelaspectratio>Square</pixelaspectratio>
                    <anamorphic>FALSE</anamorphic>
                  </samplecharacteristics>
                </video>
              </media>
            </file>
            <sourcetrack>
              <mediatype>video</mediatype>
            </sourcetrack>
            <fielddominance>none</fielddominance>
          </clipitem>
          <clipitem id="C.png443">
            <name>C.png</name>
            <duration>5</duration>
            <rate>
              <ntsc>FALSE</ntsc>
              <timebase>25</timebase>
            </rate>
            <in>91576</in>
            <out>91581</out>
            <start>1576</start>
            <end>1581</end>
            <pixelaspectratio>Square</pixelaspectratio>
            <stillframe>TRUE</stillframe>
            <anamorphic>FALSE</anamorphic>
            <alphatype>straight</alphatype>
            <masterclipid>C.png443</masterclipid>
            <file id="C">
              <name>C.png</name>
              <pathurl>D:/Codes/SynthLip/SynthLipN/bin/Debug/net6.0-windows/Skin/template/C.png</pathurl>
              <rate>
                <ntsc>FALSE</ntsc>
                <timebase>25</timebase>
              </rate>
              <duration>2</duration>
              <width>1920</width>
              <height>1080</height>
              <media>
                <video>
                  <duration>2</duration>
                  <stillframe>TRUE</stillframe>
                  <samplecharacteristics>
                    <rate>
                      <ntsc>FALSE</ntsc>
                      <timebase>25</timebase>
                    </rate>
                    <width>1920</width>
                    <height>1080</height>
                    <pixelaspectratio>Square</pixelaspectratio>
                    <anamorphic>FALSE</anamorphic>
                  </samplecharacteristics>
                </video>
              </media>
            </file>
            <sourcetrack>
              <mediatype>video</mediatype>
            </sourcetrack>
            <fielddominance>none</fielddominance>
          </clipitem>
          <clipitem id="C.png439">
            <name>C.png</name>
            <duration>3</duration>
            <rate>
              <ntsc>FALSE</ntsc>
              <timebase>25</timebase>
            </rate>
            <in>91571</in>
            <out>91574</out>
            <start>1571</start>
            <end>1574</end>
            <pixelaspectratio>Square</pixelaspectratio>
            <stillframe>TRUE</stillframe>
            <anamorphic>FALSE</anamorphic>
            <alphatype>straight</alphatype>
            <masterclipid>C.png439</masterclipid>
            <file id="C">
              <name>C.png</name>
              <pathurl>D:/Codes/SynthLip/SynthLipN/bin/Debug/net6.0-windows/Skin/template/C.png</pathurl>
              <rate>
                <ntsc>FALSE</ntsc>
                <timebase>25</timebase>
              </rate>
              <duration>2</duration>
              <width>1920</width>
              <height>1080</height>
              <media>
                <video>
                  <duration>2</duration>
                  <stillframe>TRUE</stillframe>
                  <samplecharacteristics>
                    <rate>
                      <ntsc>FALSE</ntsc>
                      <timebase>25</timebase>
                    </rate>
                    <width>1920</width>
                    <height>1080</height>
                    <pixelaspectratio>Square</pixelaspectratio>
                    <anamorphic>FALSE</anamorphic>
                  </samplecharacteristics>
                </video>
              </media>
            </file>
            <sourcetrack>
              <mediatype>video</mediatype>
            </sourcetrack>
            <fielddominance>none</fielddominance>
          </clipitem>
          <clipitem id="A.png438">
            <name>A.png</name>
            <duration>3</duration>
            <rate>
              <ntsc>FALSE</ntsc>
              <timebase>25</timebase>
            </rate>
            <in>91567</in>
            <out>91570</out>
            <start>1567</start>
            <end>1570</end>
            <pixelaspectratio>Square</pixelaspectratio>
            <stillframe>TRUE</stillframe>
            <anamorphic>FALSE</anamorphic>
            <alphatype>straight</alphatype>
            <masterclipid>A.png438</masterclipid>
            <file id="A">
              <name>A.png</name>
              <pathurl>D:/Codes/SynthLip/SynthLipN/bin/Debug/net6.0-windows/Skin/template/A.png</pathurl>
              <rate>
                <ntsc>FALSE</ntsc>
                <timebase>25</timebase>
              </rate>
              <duration>2</duration>
              <width>1920</width>
              <height>1080</height>
              <media>
                <video>
                  <duration>2</duration>
                  <stillframe>TRUE</stillframe>
                  <samplecharacteristics>
                    <rate>
                      <ntsc>FALSE</ntsc>
                      <timebase>25</timebase>
                    </rate>
                    <width>1920</width>
                    <height>1080</height>
                    <pixelaspectratio>Square</pixelaspectratio>
                    <anamorphic>FALSE</anamorphic>
                  </samplecharacteristics>
                </video>
              </media>
            </file>
            <sourcetrack>
              <mediatype>video</mediatype>
            </sourcetrack>
            <fielddominance>none</fielddominance>
          </clipitem>
          <clipitem id="B.png437">
            <name>B.png</name>
            <duration>5</duration>
            <rate>
              <ntsc>FALSE</ntsc>
              <timebase>25</timebase>
            </rate>
            <in>91561</in>
            <out>91566</out>
            <start>1561</start>
            <end>1566</end>
            <pixelaspectratio>Square</pixelaspectratio>
            <stillframe>TRUE</stillframe>
            <anamorphic>FALSE</anamorphic>
            <alphatype>straight</alphatype>
            <masterclipid>B.png437</masterclipid>
            <file id="B">
              <name>B.png</name>
              <pathurl>D:/Codes/SynthLip/SynthLipN/bin/Debug/net6.0-windows/Skin/template/B.png</pathurl>
              <rate>
                <ntsc>FALSE</ntsc>
                <timebase>25</timebase>
              </rate>
              <duration>2</duration>
              <width>1920</width>
              <height>1080</height>
              <media>
                <video>
                  <duration>2</duration>
                  <stillframe>TRUE</stillframe>
                  <samplecharacteristics>
                    <rate>
                      <ntsc>FALSE</ntsc>
                      <timebase>25</timebase>
                    </rate>
                    <width>1920</width>
                    <height>1080</height>
                    <pixelaspectratio>Square</pixelaspectratio>
                    <anamorphic>FALSE</anamorphic>
                  </samplecharacteristics>
                </video>
              </media>
            </file>
            <sourcetrack>
              <mediatype>video</mediatype>
            </sourcetrack>
            <fielddominance>none</fielddominance>
          </clipitem>
          <clipitem id="A.png433">
            <name>A.png</name>
            <duration>7</duration>
            <rate>
              <ntsc>FALSE</ntsc>
              <timebase>25</timebase>
            </rate>
            <in>91552</in>
            <out>91559</out>
            <start>1552</start>
            <end>1559</end>
            <pixelaspectratio>Square</pixelaspectratio>
            <stillframe>TRUE</stillframe>
            <anamorphic>FALSE</anamorphic>
            <alphatype>straight</alphatype>
            <masterclipid>A.png433</masterclipid>
            <file id="A">
              <name>A.png</name>
              <pathurl>D:/Codes/SynthLip/SynthLipN/bin/Debug/net6.0-windows/Skin/template/A.png</pathurl>
              <rate>
                <ntsc>FALSE</ntsc>
                <timebase>25</timebase>
              </rate>
              <duration>2</duration>
              <width>1920</width>
              <height>1080</height>
              <media>
                <video>
                  <duration>2</duration>
                  <stillframe>TRUE</stillframe>
                  <samplecharacteristics>
                    <rate>
                      <ntsc>FALSE</ntsc>
                      <timebase>25</timebase>
                    </rate>
                    <width>1920</width>
                    <height>1080</height>
                    <pixelaspectratio>Square</pixelaspectratio>
                    <anamorphic>FALSE</anamorphic>
                  </samplecharacteristics>
                </video>
              </media>
            </file>
            <sourcetrack>
              <mediatype>video</mediatype>
            </sourcetrack>
            <fielddominance>none</fielddominance>
          </clipitem>
          <clipitem id="B.png432">
            <name>B.png</name>
            <duration>3</duration>
            <rate>
              <ntsc>FALSE</ntsc>
              <timebase>25</timebase>
            </rate>
            <in>91548</in>
            <out>91551</out>
            <start>1548</start>
            <end>1551</end>
            <pixelaspectratio>Square</pixelaspectratio>
            <stillframe>TRUE</stillframe>
            <anamorphic>FALSE</anamorphic>
            <alphatype>straight</alphatype>
            <masterclipid>B.png432</masterclipid>
            <file id="B">
              <name>B.png</name>
              <pathurl>D:/Codes/SynthLip/SynthLipN/bin/Debug/net6.0-windows/Skin/template/B.png</pathurl>
              <rate>
                <ntsc>FALSE</ntsc>
                <timebase>25</timebase>
              </rate>
              <duration>2</duration>
              <width>1920</width>
              <height>1080</height>
              <media>
                <video>
                  <duration>2</duration>
                  <stillframe>TRUE</stillframe>
                  <samplecharacteristics>
                    <rate>
                      <ntsc>FALSE</ntsc>
                      <timebase>25</timebase>
                    </rate>
                    <width>1920</width>
                    <height>1080</height>
                    <pixelaspectratio>Square</pixelaspectratio>
                    <anamorphic>FALSE</anamorphic>
                  </samplecharacteristics>
                </video>
              </media>
            </file>
            <sourcetrack>
              <mediatype>video</mediatype>
            </sourcetrack>
            <fielddominance>none</fielddominance>
          </clipitem>
          <clipitem id="C.png427">
            <name>C.png</name>
            <duration>3</duration>
            <rate>
              <ntsc>FALSE</ntsc>
              <timebase>25</timebase>
            </rate>
            <in>91541</in>
            <out>91544</out>
            <start>1541</start>
            <end>1544</end>
            <pixelaspectratio>Square</pixelaspectratio>
            <stillframe>TRUE</stillframe>
            <anamorphic>FALSE</anamorphic>
            <alphatype>straight</alphatype>
            <masterclipid>C.png427</masterclipid>
            <file id="C">
              <name>C.png</name>
              <pathurl>D:/Codes/SynthLip/SynthLipN/bin/Debug/net6.0-windows/Skin/template/C.png</pathurl>
              <rate>
                <ntsc>FALSE</ntsc>
                <timebase>25</timebase>
              </rate>
              <duration>2</duration>
              <width>1920</width>
              <height>1080</height>
              <media>
                <video>
                  <duration>2</duration>
                  <stillframe>TRUE</stillframe>
                  <samplecharacteristics>
                    <rate>
                      <ntsc>FALSE</ntsc>
                      <timebase>25</timebase>
                    </rate>
                    <width>1920</width>
                    <height>1080</height>
                    <pixelaspectratio>Square</pixelaspectratio>
                    <anamorphic>FALSE</anamorphic>
                  </samplecharacteristics>
                </video>
              </media>
            </file>
            <sourcetrack>
              <mediatype>video</mediatype>
            </sourcetrack>
            <fielddominance>none</fielddominance>
          </clipitem>
          <clipitem id="A.png426">
            <name>A.png</name>
            <duration>3</duration>
            <rate>
              <ntsc>FALSE</ntsc>
              <timebase>25</timebase>
            </rate>
            <in>91537</in>
            <out>91540</out>
            <start>1537</start>
            <end>1540</end>
            <pixelaspectratio>Square</pixelaspectratio>
            <stillframe>TRUE</stillframe>
            <anamorphic>FALSE</anamorphic>
            <alphatype>straight</alphatype>
            <masterclipid>A.png426</masterclipid>
            <file id="A">
              <name>A.png</name>
              <pathurl>D:/Codes/SynthLip/SynthLipN/bin/Debug/net6.0-windows/Skin/template/A.png</pathurl>
              <rate>
                <ntsc>FALSE</ntsc>
                <timebase>25</timebase>
              </rate>
              <duration>2</duration>
              <width>1920</width>
              <height>1080</height>
              <media>
                <video>
                  <duration>2</duration>
                  <stillframe>TRUE</stillframe>
                  <samplecharacteristics>
                    <rate>
                      <ntsc>FALSE</ntsc>
                      <timebase>25</timebase>
                    </rate>
                    <width>1920</width>
                    <height>1080</height>
                    <pixelaspectratio>Square</pixelaspectratio>
                    <anamorphic>FALSE</anamorphic>
                  </samplecharacteristics>
                </video>
              </media>
            </file>
            <sourcetrack>
              <mediatype>video</mediatype>
            </sourcetrack>
            <fielddominance>none</fielddominance>
          </clipitem>
          <clipitem id="B.png425">
            <name>B.png</name>
            <duration>5</duration>
            <rate>
              <ntsc>FALSE</ntsc>
              <timebase>25</timebase>
            </rate>
            <in>91531</in>
            <out>91536</out>
            <start>1531</start>
            <end>1536</end>
            <pixelaspectratio>Square</pixelaspectratio>
            <stillframe>TRUE</stillframe>
            <anamorphic>FALSE</anamorphic>
            <alphatype>straight</alphatype>
            <masterclipid>B.png425</masterclipid>
            <file id="B">
              <name>B.png</name>
              <pathurl>D:/Codes/SynthLip/SynthLipN/bin/Debug/net6.0-windows/Skin/template/B.png</pathurl>
              <rate>
                <ntsc>FALSE</ntsc>
                <timebase>25</timebase>
              </rate>
              <duration>2</duration>
              <width>1920</width>
              <height>1080</height>
              <media>
                <video>
                  <duration>2</duration>
                  <stillframe>TRUE</stillframe>
                  <samplecharacteristics>
                    <rate>
                      <ntsc>FALSE</ntsc>
                      <timebase>25</timebase>
                    </rate>
                    <width>1920</width>
                    <height>1080</height>
                    <pixelaspectratio>Square</pixelaspectratio>
                    <anamorphic>FALSE</anamorphic>
                  </samplecharacteristics>
                </video>
              </media>
            </file>
            <sourcetrack>
              <mediatype>video</mediatype>
            </sourcetrack>
            <fielddominance>none</fielddominance>
          </clipitem>
          <clipitem id="F.png421">
            <name>F.png</name>
            <duration>7</duration>
            <rate>
              <ntsc>FALSE</ntsc>
              <timebase>25</timebase>
            </rate>
            <in>91522</in>
            <out>91529</out>
            <start>1522</start>
            <end>1529</end>
            <pixelaspectratio>Square</pixelaspectratio>
            <stillframe>TRUE</stillframe>
            <anamorphic>FALSE</anamorphic>
            <alphatype>straight</alphatype>
            <masterclipid>F.png421</masterclipid>
            <file id="F">
              <name>F.png</name>
              <pathurl>D:/Codes/SynthLip/SynthLipN/bin/Debug/net6.0-windows/Skin/template/F.png</pathurl>
              <rate>
                <ntsc>FALSE</ntsc>
                <timebase>25</timebase>
              </rate>
              <duration>2</duration>
              <width>1920</width>
              <height>1080</height>
              <media>
                <video>
                  <duration>2</duration>
                  <stillframe>TRUE</stillframe>
                  <samplecharacteristics>
                    <rate>
                      <ntsc>FALSE</ntsc>
                      <timebase>25</timebase>
                    </rate>
                    <width>1920</width>
                    <height>1080</height>
                    <pixelaspectratio>Square</pixelaspectratio>
                    <anamorphic>FALSE</anamorphic>
                  </samplecharacteristics>
                </video>
              </media>
            </file>
            <sourcetrack>
              <mediatype>video</mediatype>
            </sourcetrack>
            <fielddominance>none</fielddominance>
          </clipitem>
          <clipitem id="G.png420">
            <name>G.png</name>
            <duration>2</duration>
            <rate>
              <ntsc>FALSE</ntsc>
              <timebase>25</timebase>
            </rate>
            <in>91520</in>
            <out>91522</out>
            <start>1520</start>
            <end>1522</end>
            <pixelaspectratio>Square</pixelaspectratio>
            <stillframe>TRUE</stillframe>
            <anamorphic>FALSE</anamorphic>
            <alphatype>straight</alphatype>
            <masterclipid>G.png420</masterclipid>
            <file id="G">
              <name>G.png</name>
              <pathurl>D:/Codes/SynthLip/SynthLipN/bin/Debug/net6.0-windows/Skin/template/G.png</pathurl>
              <rate>
                <ntsc>FALSE</ntsc>
                <timebase>25</timebase>
              </rate>
              <duration>2</duration>
              <width>1920</width>
              <height>1080</height>
              <media>
                <video>
                  <duration>2</duration>
                  <stillframe>TRUE</stillframe>
                  <samplecharacteristics>
                    <rate>
                      <ntsc>FALSE</ntsc>
                      <timebase>25</timebase>
                    </rate>
                    <width>1920</width>
                    <height>1080</height>
                    <pixelaspectratio>Square</pixelaspectratio>
                    <anamorphic>FALSE</anamorphic>
                  </samplecharacteristics>
                </video>
              </media>
            </file>
            <sourcetrack>
              <mediatype>video</mediatype>
            </sourcetrack>
            <fielddominance>none</fielddominance>
          </clipitem>
          <clipitem id="G.png419">
            <name>G.png</name>
            <duration>2</duration>
            <rate>
              <ntsc>FALSE</ntsc>
              <timebase>25</timebase>
            </rate>
            <in>91517</in>
            <out>91519</out>
            <start>1517</start>
            <end>1519</end>
            <pixelaspectratio>Square</pixelaspectratio>
            <stillframe>TRUE</stillframe>
            <anamorphic>FALSE</anamorphic>
            <alphatype>straight</alphatype>
            <masterclipid>G.png419</masterclipid>
            <file id="G">
              <name>G.png</name>
              <pathurl>D:/Codes/SynthLip/SynthLipN/bin/Debug/net6.0-windows/Skin/template/G.png</pathurl>
              <rate>
                <ntsc>FALSE</ntsc>
                <timebase>25</timebase>
              </rate>
              <duration>2</duration>
              <width>1920</width>
              <height>1080</height>
              <media>
                <video>
                  <duration>2</duration>
                  <stillframe>TRUE</stillframe>
                  <samplecharacteristics>
                    <rate>
                      <ntsc>FALSE</ntsc>
                      <timebase>25</timebase>
                    </rate>
                    <width>1920</width>
                    <height>1080</height>
                    <pixelaspectratio>Square</pixelaspectratio>
                    <anamorphic>FALSE</anamorphic>
                  </samplecharacteristics>
                </video>
              </media>
            </file>
            <sourcetrack>
              <mediatype>video</mediatype>
            </sourcetrack>
            <fielddominance>none</fielddominance>
          </clipitem>
          <clipitem id="C.png418">
            <name>C.png</name>
            <duration>2</duration>
            <rate>
              <ntsc>FALSE</ntsc>
              <timebase>25</timebase>
            </rate>
            <in>91515</in>
            <out>91517</out>
            <start>1515</start>
            <end>1517</end>
            <pixelaspectratio>Square</pixelaspectratio>
            <stillframe>TRUE</stillframe>
            <anamorphic>FALSE</anamorphic>
            <alphatype>straight</alphatype>
            <masterclipid>C.png418</masterclipid>
            <file id="C">
              <name>C.png</name>
              <pathurl>D:/Codes/SynthLip/SynthLipN/bin/Debug/net6.0-windows/Skin/template/C.png</pathurl>
              <rate>
                <ntsc>FALSE</ntsc>
                <timebase>25</timebase>
              </rate>
              <duration>2</duration>
              <width>1920</width>
              <height>1080</height>
              <media>
                <video>
                  <duration>2</duration>
                  <stillframe>TRUE</stillframe>
                  <samplecharacteristics>
                    <rate>
                      <ntsc>FALSE</ntsc>
                      <timebase>25</timebase>
                    </rate>
                    <width>1920</width>
                    <height>1080</height>
                    <pixelaspectratio>Square</pixelaspectratio>
                    <anamorphic>FALSE</anamorphic>
                  </samplecharacteristics>
                </video>
              </media>
            </file>
            <sourcetrack>
              <mediatype>video</mediatype>
            </sourcetrack>
            <fielddominance>none</fielddominance>
          </clipitem>
          <clipitem id="F.png417">
            <name>F.png</name>
            <duration>3</duration>
            <rate>
              <ntsc>FALSE</ntsc>
              <timebase>25</timebase>
            </rate>
            <in>91511</in>
            <out>91514</out>
            <start>1511</start>
            <end>1514</end>
            <pixelaspectratio>Square</pixelaspectratio>
            <stillframe>TRUE</stillframe>
            <anamorphic>FALSE</anamorphic>
            <alphatype>straight</alphatype>
            <masterclipid>F.png417</masterclipid>
            <file id="F">
              <name>F.png</name>
              <pathurl>D:/Codes/SynthLip/SynthLipN/bin/Debug/net6.0-windows/Skin/template/F.png</pathurl>
              <rate>
                <ntsc>FALSE</ntsc>
                <timebase>25</timebase>
              </rate>
              <duration>2</duration>
              <width>1920</width>
              <height>1080</height>
              <media>
                <video>
                  <duration>2</duration>
                  <stillframe>TRUE</stillframe>
                  <samplecharacteristics>
                    <rate>
                      <ntsc>FALSE</ntsc>
                      <timebase>25</timebase>
                    </rate>
                    <width>1920</width>
                    <height>1080</height>
                    <pixelaspectratio>Square</pixelaspectratio>
                    <anamorphic>FALSE</anamorphic>
                  </samplecharacteristics>
                </video>
              </media>
            </file>
            <sourcetrack>
              <mediatype>video</mediatype>
            </sourcetrack>
            <fielddominance>none</fielddominance>
          </clipitem>
          <clipitem id="A.png416">
            <name>A.png</name>
            <duration>3</duration>
            <rate>
              <ntsc>FALSE</ntsc>
              <timebase>25</timebase>
            </rate>
            <in>91507</in>
            <out>91510</out>
            <start>1507</start>
            <end>1510</end>
            <pixelaspectratio>Square</pixelaspectratio>
            <stillframe>TRUE</stillframe>
            <anamorphic>FALSE</anamorphic>
            <alphatype>straight</alphatype>
            <masterclipid>A.png416</masterclipid>
            <file id="A">
              <name>A.png</name>
              <pathurl>D:/Codes/SynthLip/SynthLipN/bin/Debug/net6.0-windows/Skin/template/A.png</pathurl>
              <rate>
                <ntsc>FALSE</ntsc>
                <timebase>25</timebase>
              </rate>
              <duration>2</duration>
              <width>1920</width>
              <height>1080</height>
              <media>
                <video>
                  <duration>2</duration>
                  <stillframe>TRUE</stillframe>
                  <samplecharacteristics>
                    <rate>
                      <ntsc>FALSE</ntsc>
                      <timebase>25</timebase>
                    </rate>
                    <width>1920</width>
                    <height>1080</height>
                    <pixelaspectratio>Square</pixelaspectratio>
                    <anamorphic>FALSE</anamorphic>
                  </samplecharacteristics>
                </video>
              </media>
            </file>
            <sourcetrack>
              <mediatype>video</mediatype>
            </sourcetrack>
            <fielddominance>none</fielddominance>
          </clipitem>
          <clipitem id="G.png415">
            <name>G.png</name>
            <duration>5</duration>
            <rate>
              <ntsc>FALSE</ntsc>
              <timebase>25</timebase>
            </rate>
            <in>91501</in>
            <out>91506</out>
            <start>1501</start>
            <end>1506</end>
            <pixelaspectratio>Square</pixelaspectratio>
            <stillframe>TRUE</stillframe>
            <anamorphic>FALSE</anamorphic>
            <alphatype>straight</alphatype>
            <masterclipid>G.png415</masterclipid>
            <file id="G">
              <name>G.png</name>
              <pathurl>D:/Codes/SynthLip/SynthLipN/bin/Debug/net6.0-windows/Skin/template/G.png</pathurl>
              <rate>
                <ntsc>FALSE</ntsc>
                <timebase>25</timebase>
              </rate>
              <duration>2</duration>
              <width>1920</width>
              <height>1080</height>
              <media>
                <video>
                  <duration>2</duration>
                  <stillframe>TRUE</stillframe>
                  <samplecharacteristics>
                    <rate>
                      <ntsc>FALSE</ntsc>
                      <timebase>25</timebase>
                    </rate>
                    <width>1920</width>
                    <height>1080</height>
                    <pixelaspectratio>Square</pixelaspectratio>
                    <anamorphic>FALSE</anamorphic>
                  </samplecharacteristics>
                </video>
              </media>
            </file>
            <sourcetrack>
              <mediatype>video</mediatype>
            </sourcetrack>
            <fielddominance>none</fielddominance>
          </clipitem>
          <clipitem id="F.png411">
            <name>F.png</name>
            <duration>1</duration>
            <rate>
              <ntsc>FALSE</ntsc>
              <timebase>25</timebase>
            </rate>
            <in>91498</in>
            <out>91499</out>
            <start>1498</start>
            <end>1499</end>
            <pixelaspectratio>Square</pixelaspectratio>
            <stillframe>TRUE</stillframe>
            <anamorphic>FALSE</anamorphic>
            <alphatype>straight</alphatype>
            <masterclipid>F.png411</masterclipid>
            <file id="F">
              <name>F.png</name>
              <pathurl>D:/Codes/SynthLip/SynthLipN/bin/Debug/net6.0-windows/Skin/template/F.png</pathurl>
              <rate>
                <ntsc>FALSE</ntsc>
                <timebase>25</timebase>
              </rate>
              <duration>2</duration>
              <width>1920</width>
              <height>1080</height>
              <media>
                <video>
                  <duration>2</duration>
                  <stillframe>TRUE</stillframe>
                  <samplecharacteristics>
                    <rate>
                      <ntsc>FALSE</ntsc>
                      <timebase>25</timebase>
                    </rate>
                    <width>1920</width>
                    <height>1080</height>
                    <pixelaspectratio>Square</pixelaspectratio>
                    <anamorphic>FALSE</anamorphic>
                  </samplecharacteristics>
                </video>
              </media>
            </file>
            <sourcetrack>
              <mediatype>video</mediatype>
            </sourcetrack>
            <fielddominance>none</fielddominance>
          </clipitem>
          <clipitem id="B.png410">
            <name>B.png</name>
            <duration>1</duration>
            <rate>
              <ntsc>FALSE</ntsc>
              <timebase>25</timebase>
            </rate>
            <in>91497</in>
            <out>91498</out>
            <start>1497</start>
            <end>1498</end>
            <pixelaspectratio>Square</pixelaspectratio>
            <stillframe>TRUE</stillframe>
            <anamorphic>FALSE</anamorphic>
            <alphatype>straight</alphatype>
            <masterclipid>B.png410</masterclipid>
            <file id="B">
              <name>B.png</name>
              <pathurl>D:/Codes/SynthLip/SynthLipN/bin/Debug/net6.0-windows/Skin/template/B.png</pathurl>
              <rate>
                <ntsc>FALSE</ntsc>
                <timebase>25</timebase>
              </rate>
              <duration>2</duration>
              <width>1920</width>
              <height>1080</height>
              <media>
                <video>
                  <duration>2</duration>
                  <stillframe>TRUE</stillframe>
                  <samplecharacteristics>
                    <rate>
                      <ntsc>FALSE</ntsc>
                      <timebase>25</timebase>
                    </rate>
                    <width>1920</width>
                    <height>1080</height>
                    <pixelaspectratio>Square</pixelaspectratio>
                    <anamorphic>FALSE</anamorphic>
                  </samplecharacteristics>
                </video>
              </media>
            </file>
            <sourcetrack>
              <mediatype>video</mediatype>
            </sourcetrack>
            <fielddominance>none</fielddominance>
          </clipitem>
          <clipitem id="B.png409">
            <name>B.png</name>
            <duration>4</duration>
            <rate>
              <ntsc>FALSE</ntsc>
              <timebase>25</timebase>
            </rate>
            <in>91492</in>
            <out>91496</out>
            <start>1492</start>
            <end>1496</end>
            <pixelaspectratio>Square</pixelaspectratio>
            <stillframe>TRUE</stillframe>
            <anamorphic>FALSE</anamorphic>
            <alphatype>straight</alphatype>
            <masterclipid>B.png409</masterclipid>
            <file id="B">
              <name>B.png</name>
              <pathurl>D:/Codes/SynthLip/SynthLipN/bin/Debug/net6.0-windows/Skin/template/B.png</pathurl>
              <rate>
                <ntsc>FALSE</ntsc>
                <timebase>25</timebase>
              </rate>
              <duration>2</duration>
              <width>1920</width>
              <height>1080</height>
              <media>
                <video>
                  <duration>2</duration>
                  <stillframe>TRUE</stillframe>
                  <samplecharacteristics>
                    <rate>
                      <ntsc>FALSE</ntsc>
                      <timebase>25</timebase>
                    </rate>
                    <width>1920</width>
                    <height>1080</height>
                    <pixelaspectratio>Square</pixelaspectratio>
                    <anamorphic>FALSE</anamorphic>
                  </samplecharacteristics>
                </video>
              </media>
            </file>
            <sourcetrack>
              <mediatype>video</mediatype>
            </sourcetrack>
            <fielddominance>none</fielddominance>
          </clipitem>
          <clipitem id="B.png408">
            <name>B.png</name>
            <duration>1</duration>
            <rate>
              <ntsc>FALSE</ntsc>
              <timebase>25</timebase>
            </rate>
            <in>91490</in>
            <out>91491</out>
            <start>1490</start>
            <end>1491</end>
            <pixelaspectratio>Square</pixelaspectratio>
            <stillframe>TRUE</stillframe>
            <anamorphic>FALSE</anamorphic>
            <alphatype>straight</alphatype>
            <masterclipid>B.png408</masterclipid>
            <file id="B">
              <name>B.png</name>
              <pathurl>D:/Codes/SynthLip/SynthLipN/bin/Debug/net6.0-windows/Skin/template/B.png</pathurl>
              <rate>
                <ntsc>FALSE</ntsc>
                <timebase>25</timebase>
              </rate>
              <duration>2</duration>
              <width>1920</width>
              <height>1080</height>
              <media>
                <video>
                  <duration>2</duration>
                  <stillframe>TRUE</stillframe>
                  <samplecharacteristics>
                    <rate>
                      <ntsc>FALSE</ntsc>
                      <timebase>25</timebase>
                    </rate>
                    <width>1920</width>
                    <height>1080</height>
                    <pixelaspectratio>Square</pixelaspectratio>
                    <anamorphic>FALSE</anamorphic>
                  </samplecharacteristics>
                </video>
              </media>
            </file>
            <sourcetrack>
              <mediatype>video</mediatype>
            </sourcetrack>
            <fielddominance>none</fielddominance>
          </clipitem>
          <clipitem id="F.png407">
            <name>F.png</name>
            <duration>1</duration>
            <rate>
              <ntsc>FALSE</ntsc>
              <timebase>25</timebase>
            </rate>
            <in>91488</in>
            <out>91489</out>
            <start>1488</start>
            <end>1489</end>
            <pixelaspectratio>Square</pixelaspectratio>
            <stillframe>TRUE</stillframe>
            <anamorphic>FALSE</anamorphic>
            <alphatype>straight</alphatype>
            <masterclipid>F.png407</masterclipid>
            <file id="F">
              <name>F.png</name>
              <pathurl>D:/Codes/SynthLip/SynthLipN/bin/Debug/net6.0-windows/Skin/template/F.png</pathurl>
              <rate>
                <ntsc>FALSE</ntsc>
                <timebase>25</timebase>
              </rate>
              <duration>2</duration>
              <width>1920</width>
              <height>1080</height>
              <media>
                <video>
                  <duration>2</duration>
                  <stillframe>TRUE</stillframe>
                  <samplecharacteristics>
                    <rate>
                      <ntsc>FALSE</ntsc>
                      <timebase>25</timebase>
                    </rate>
                    <width>1920</width>
                    <height>1080</height>
                    <pixelaspectratio>Square</pixelaspectratio>
                    <anamorphic>FALSE</anamorphic>
                  </samplecharacteristics>
                </video>
              </media>
            </file>
            <sourcetrack>
              <mediatype>video</mediatype>
            </sourcetrack>
            <fielddominance>none</fielddominance>
          </clipitem>
          <clipitem id="C.png406">
            <name>C.png</name>
            <duration>1</duration>
            <rate>
              <ntsc>FALSE</ntsc>
              <timebase>25</timebase>
            </rate>
            <in>91486</in>
            <out>91487</out>
            <start>1486</start>
            <end>1487</end>
            <pixelaspectratio>Square</pixelaspectratio>
            <stillframe>TRUE</stillframe>
            <anamorphic>FALSE</anamorphic>
            <alphatype>straight</alphatype>
            <masterclipid>C.png406</masterclipid>
            <file id="C">
              <name>C.png</name>
              <pathurl>D:/Codes/SynthLip/SynthLipN/bin/Debug/net6.0-windows/Skin/template/C.png</pathurl>
              <rate>
                <ntsc>FALSE</ntsc>
                <timebase>25</timebase>
              </rate>
              <duration>2</duration>
              <width>1920</width>
              <height>1080</height>
              <media>
                <video>
                  <duration>2</duration>
                  <stillframe>TRUE</stillframe>
                  <samplecharacteristics>
                    <rate>
                      <ntsc>FALSE</ntsc>
                      <timebase>25</timebase>
                    </rate>
                    <width>1920</width>
                    <height>1080</height>
                    <pixelaspectratio>Square</pixelaspectratio>
                    <anamorphic>FALSE</anamorphic>
                  </samplecharacteristics>
                </video>
              </media>
            </file>
            <sourcetrack>
              <mediatype>video</mediatype>
            </sourcetrack>
            <fielddominance>none</fielddominance>
          </clipitem>
          <clipitem id="C.png405">
            <name>C.png</name>
            <duration>1</duration>
            <rate>
              <ntsc>FALSE</ntsc>
              <timebase>25</timebase>
            </rate>
            <in>91485</in>
            <out>91486</out>
            <start>1485</start>
            <end>1486</end>
            <pixelaspectratio>Square</pixelaspectratio>
            <stillframe>TRUE</stillframe>
            <anamorphic>FALSE</anamorphic>
            <alphatype>straight</alphatype>
            <masterclipid>C.png405</masterclipid>
            <file id="C">
              <name>C.png</name>
              <pathurl>D:/Codes/SynthLip/SynthLipN/bin/Debug/net6.0-windows/Skin/template/C.png</pathurl>
              <rate>
                <ntsc>FALSE</ntsc>
                <timebase>25</timebase>
              </rate>
              <duration>2</duration>
              <width>1920</width>
              <height>1080</height>
              <media>
                <video>
                  <duration>2</duration>
                  <stillframe>TRUE</stillframe>
                  <samplecharacteristics>
                    <rate>
                      <ntsc>FALSE</ntsc>
                      <timebase>25</timebase>
                    </rate>
                    <width>1920</width>
                    <height>1080</height>
                    <pixelaspectratio>Square</pixelaspectratio>
                    <anamorphic>FALSE</anamorphic>
                  </samplecharacteristics>
                </video>
              </media>
            </file>
            <sourcetrack>
              <mediatype>video</mediatype>
            </sourcetrack>
            <fielddominance>none</fielddominance>
          </clipitem>
          <clipitem id="B.png404">
            <name>B.png</name>
            <duration>1</duration>
            <rate>
              <ntsc>FALSE</ntsc>
              <timebase>25</timebase>
            </rate>
            <in>91483</in>
            <out>91484</out>
            <start>1483</start>
            <end>1484</end>
            <pixelaspectratio>Square</pixelaspectratio>
            <stillframe>TRUE</stillframe>
            <anamorphic>FALSE</anamorphic>
            <alphatype>straight</alphatype>
            <masterclipid>B.png404</masterclipid>
            <file id="B">
              <name>B.png</name>
              <pathurl>D:/Codes/SynthLip/SynthLipN/bin/Debug/net6.0-windows/Skin/template/B.png</pathurl>
              <rate>
                <ntsc>FALSE</ntsc>
                <timebase>25</timebase>
              </rate>
              <duration>2</duration>
              <width>1920</width>
              <height>1080</height>
              <media>
                <video>
                  <duration>2</duration>
                  <stillframe>TRUE</stillframe>
                  <samplecharacteristics>
                    <rate>
                      <ntsc>FALSE</ntsc>
                      <timebase>25</timebase>
                    </rate>
                    <width>1920</width>
                    <height>1080</height>
                    <pixelaspectratio>Square</pixelaspectratio>
                    <anamorphic>FALSE</anamorphic>
                  </samplecharacteristics>
                </video>
              </media>
            </file>
            <sourcetrack>
              <mediatype>video</mediatype>
            </sourcetrack>
            <fielddominance>none</fielddominance>
          </clipitem>
          <clipitem id="B.png403">
            <name>B.png</name>
            <duration>1</duration>
            <rate>
              <ntsc>FALSE</ntsc>
              <timebase>25</timebase>
            </rate>
            <in>91482</in>
            <out>91483</out>
            <start>1482</start>
            <end>1483</end>
            <pixelaspectratio>Square</pixelaspectratio>
            <stillframe>TRUE</stillframe>
            <anamorphic>FALSE</anamorphic>
            <alphatype>straight</alphatype>
            <masterclipid>B.png403</masterclipid>
            <file id="B">
              <name>B.png</name>
              <pathurl>D:/Codes/SynthLip/SynthLipN/bin/Debug/net6.0-windows/Skin/template/B.png</pathurl>
              <rate>
                <ntsc>FALSE</ntsc>
                <timebase>25</timebase>
              </rate>
              <duration>2</duration>
              <width>1920</width>
              <height>1080</height>
              <media>
                <video>
                  <duration>2</duration>
                  <stillframe>TRUE</stillframe>
                  <samplecharacteristics>
                    <rate>
                      <ntsc>FALSE</ntsc>
                      <timebase>25</timebase>
                    </rate>
                    <width>1920</width>
                    <height>1080</height>
                    <pixelaspectratio>Square</pixelaspectratio>
                    <anamorphic>FALSE</anamorphic>
                  </samplecharacteristics>
                </video>
              </media>
            </file>
            <sourcetrack>
              <mediatype>video</mediatype>
            </sourcetrack>
            <fielddominance>none</fielddominance>
          </clipitem>
          <clipitem id="E.png402">
            <name>E.png</name>
            <duration>4</duration>
            <rate>
              <ntsc>FALSE</ntsc>
              <timebase>25</timebase>
            </rate>
            <in>91477</in>
            <out>91481</out>
            <start>1477</start>
            <end>1481</end>
            <pixelaspectratio>Square</pixelaspectratio>
            <stillframe>TRUE</stillframe>
            <anamorphic>FALSE</anamorphic>
            <alphatype>straight</alphatype>
            <masterclipid>E.png402</masterclipid>
            <file id="E">
              <name>E.png</name>
              <pathurl>D:/Codes/SynthLip/SynthLipN/bin/Debug/net6.0-windows/Skin/template/E.png</pathurl>
              <rate>
                <ntsc>FALSE</ntsc>
                <timebase>25</timebase>
              </rate>
              <duration>2</duration>
              <width>1920</width>
              <height>1080</height>
              <media>
                <video>
                  <duration>2</duration>
                  <stillframe>TRUE</stillframe>
                  <samplecharacteristics>
                    <rate>
                      <ntsc>FALSE</ntsc>
                      <timebase>25</timebase>
                    </rate>
                    <width>1920</width>
                    <height>1080</height>
                    <pixelaspectratio>Square</pixelaspectratio>
                    <anamorphic>FALSE</anamorphic>
                  </samplecharacteristics>
                </video>
              </media>
            </file>
            <sourcetrack>
              <mediatype>video</mediatype>
            </sourcetrack>
            <fielddominance>none</fielddominance>
          </clipitem>
          <clipitem id="B.png401">
            <name>B.png</name>
            <duration>3</duration>
            <rate>
              <ntsc>FALSE</ntsc>
              <timebase>25</timebase>
            </rate>
            <in>91473</in>
            <out>91476</out>
            <start>1473</start>
            <end>1476</end>
            <pixelaspectratio>Square</pixelaspectratio>
            <stillframe>TRUE</stillframe>
            <anamorphic>FALSE</anamorphic>
            <alphatype>straight</alphatype>
            <masterclipid>B.png401</masterclipid>
            <file id="B">
              <name>B.png</name>
              <pathurl>D:/Codes/SynthLip/SynthLipN/bin/Debug/net6.0-windows/Skin/template/B.png</pathurl>
              <rate>
                <ntsc>FALSE</ntsc>
                <timebase>25</timebase>
              </rate>
              <duration>2</duration>
              <width>1920</width>
              <height>1080</height>
              <media>
                <video>
                  <duration>2</duration>
                  <stillframe>TRUE</stillframe>
                  <samplecharacteristics>
                    <rate>
                      <ntsc>FALSE</ntsc>
                      <timebase>25</timebase>
                    </rate>
                    <width>1920</width>
                    <height>1080</height>
                    <pixelaspectratio>Square</pixelaspectratio>
                    <anamorphic>FALSE</anamorphic>
                  </samplecharacteristics>
                </video>
              </media>
            </file>
            <sourcetrack>
              <mediatype>video</mediatype>
            </sourcetrack>
            <fielddominance>none</fielddominance>
          </clipitem>
          <clipitem id="A.png400">
            <name>A.png</name>
            <duration>3</duration>
            <rate>
              <ntsc>FALSE</ntsc>
              <timebase>25</timebase>
            </rate>
            <in>91470</in>
            <out>91473</out>
            <start>1470</start>
            <end>1473</end>
            <pixelaspectratio>Square</pixelaspectratio>
            <stillframe>TRUE</stillframe>
            <anamorphic>FALSE</anamorphic>
            <alphatype>straight</alphatype>
            <masterclipid>A.png400</masterclipid>
            <file id="A">
              <name>A.png</name>
              <pathurl>D:/Codes/SynthLip/SynthLipN/bin/Debug/net6.0-windows/Skin/template/A.png</pathurl>
              <rate>
                <ntsc>FALSE</ntsc>
                <timebase>25</timebase>
              </rate>
              <duration>2</duration>
              <width>1920</width>
              <height>1080</height>
              <media>
                <video>
                  <duration>2</duration>
                  <stillframe>TRUE</stillframe>
                  <samplecharacteristics>
                    <rate>
                      <ntsc>FALSE</ntsc>
                      <timebase>25</timebase>
                    </rate>
                    <width>1920</width>
                    <height>1080</height>
                    <pixelaspectratio>Square</pixelaspectratio>
                    <anamorphic>FALSE</anamorphic>
                  </samplecharacteristics>
                </video>
              </media>
            </file>
            <sourcetrack>
              <mediatype>video</mediatype>
            </sourcetrack>
            <fielddominance>none</fielddominance>
          </clipitem>
          <clipitem id="D.png399">
            <name>D.png</name>
            <duration>1</duration>
            <rate>
              <ntsc>FALSE</ntsc>
              <timebase>25</timebase>
            </rate>
            <in>91468</in>
            <out>91469</out>
            <start>1468</start>
            <end>1469</end>
            <pixelaspectratio>Square</pixelaspectratio>
            <stillframe>TRUE</stillframe>
            <anamorphic>FALSE</anamorphic>
            <alphatype>straight</alphatype>
            <masterclipid>D.png399</masterclipid>
            <file id="D">
              <name>D.png</name>
              <pathurl>D:/Codes/SynthLip/SynthLipN/bin/Debug/net6.0-windows/Skin/template/D.png</pathurl>
              <rate>
                <ntsc>FALSE</ntsc>
                <timebase>25</timebase>
              </rate>
              <duration>2</duration>
              <width>1920</width>
              <height>1080</height>
              <media>
                <video>
                  <duration>2</duration>
                  <stillframe>TRUE</stillframe>
                  <samplecharacteristics>
                    <rate>
                      <ntsc>FALSE</ntsc>
                      <timebase>25</timebase>
                    </rate>
                    <width>1920</width>
                    <height>1080</height>
                    <pixelaspectratio>Square</pixelaspectratio>
                    <anamorphic>FALSE</anamorphic>
                  </samplecharacteristics>
                </video>
              </media>
            </file>
            <sourcetrack>
              <mediatype>video</mediatype>
            </sourcetrack>
            <fielddominance>none</fielddominance>
          </clipitem>
          <clipitem id="G.png398">
            <name>G.png</name>
            <duration>1</duration>
            <rate>
              <ntsc>FALSE</ntsc>
              <timebase>25</timebase>
            </rate>
            <in>91466</in>
            <out>91467</out>
            <start>1466</start>
            <end>1467</end>
            <pixelaspectratio>Square</pixelaspectratio>
            <stillframe>TRUE</stillframe>
            <anamorphic>FALSE</anamorphic>
            <alphatype>straight</alphatype>
            <masterclipid>G.png398</masterclipid>
            <file id="G">
              <name>G.png</name>
              <pathurl>D:/Codes/SynthLip/SynthLipN/bin/Debug/net6.0-windows/Skin/template/G.png</pathurl>
              <rate>
                <ntsc>FALSE</ntsc>
                <timebase>25</timebase>
              </rate>
              <duration>2</duration>
              <width>1920</width>
              <height>1080</height>
              <media>
                <video>
                  <duration>2</duration>
                  <stillframe>TRUE</stillframe>
                  <samplecharacteristics>
                    <rate>
                      <ntsc>FALSE</ntsc>
                      <timebase>25</timebase>
                    </rate>
                    <width>1920</width>
                    <height>1080</height>
                    <pixelaspectratio>Square</pixelaspectratio>
                    <anamorphic>FALSE</anamorphic>
                  </samplecharacteristics>
                </video>
              </media>
            </file>
            <sourcetrack>
              <mediatype>video</mediatype>
            </sourcetrack>
            <fielddominance>none</fielddominance>
          </clipitem>
          <clipitem id="G.png397">
            <name>G.png</name>
            <duration>1</duration>
            <rate>
              <ntsc>FALSE</ntsc>
              <timebase>25</timebase>
            </rate>
            <in>91464</in>
            <out>91465</out>
            <start>1464</start>
            <end>1465</end>
            <pixelaspectratio>Square</pixelaspectratio>
            <stillframe>TRUE</stillframe>
            <anamorphic>FALSE</anamorphic>
            <alphatype>straight</alphatype>
            <masterclipid>G.png397</masterclipid>
            <file id="G">
              <name>G.png</name>
              <pathurl>D:/Codes/SynthLip/SynthLipN/bin/Debug/net6.0-windows/Skin/template/G.png</pathurl>
              <rate>
                <ntsc>FALSE</ntsc>
                <timebase>25</timebase>
              </rate>
              <duration>2</duration>
              <width>1920</width>
              <height>1080</height>
              <media>
                <video>
                  <duration>2</duration>
                  <stillframe>TRUE</stillframe>
                  <samplecharacteristics>
                    <rate>
                      <ntsc>FALSE</ntsc>
                      <timebase>25</timebase>
                    </rate>
                    <width>1920</width>
                    <height>1080</height>
                    <pixelaspectratio>Square</pixelaspectratio>
                    <anamorphic>FALSE</anamorphic>
                  </samplecharacteristics>
                </video>
              </media>
            </file>
            <sourcetrack>
              <mediatype>video</mediatype>
            </sourcetrack>
            <fielddominance>none</fielddominance>
          </clipitem>
          <clipitem id="A.png396">
            <name>A.png</name>
            <duration>1</duration>
            <rate>
              <ntsc>FALSE</ntsc>
              <timebase>25</timebase>
            </rate>
            <in>91462</in>
            <out>91463</out>
            <start>1462</start>
            <end>1463</end>
            <pixelaspectratio>Square</pixelaspectratio>
            <stillframe>TRUE</stillframe>
            <anamorphic>FALSE</anamorphic>
            <alphatype>straight</alphatype>
            <masterclipid>A.png396</masterclipid>
            <file id="A">
              <name>A.png</name>
              <pathurl>D:/Codes/SynthLip/SynthLipN/bin/Debug/net6.0-windows/Skin/template/A.png</pathurl>
              <rate>
                <ntsc>FALSE</ntsc>
                <timebase>25</timebase>
              </rate>
              <duration>2</duration>
              <width>1920</width>
              <height>1080</height>
              <media>
                <video>
                  <duration>2</duration>
                  <stillframe>TRUE</stillframe>
                  <samplecharacteristics>
                    <rate>
                      <ntsc>FALSE</ntsc>
                      <timebase>25</timebase>
                    </rate>
                    <width>1920</width>
                    <height>1080</height>
                    <pixelaspectratio>Square</pixelaspectratio>
                    <anamorphic>FALSE</anamorphic>
                  </samplecharacteristics>
                </video>
              </media>
            </file>
            <sourcetrack>
              <mediatype>video</mediatype>
            </sourcetrack>
            <fielddominance>none</fielddominance>
          </clipitem>
          <clipitem id="C.png395">
            <name>C.png</name>
            <duration>5</duration>
            <rate>
              <ntsc>FALSE</ntsc>
              <timebase>25</timebase>
            </rate>
            <in>91456</in>
            <out>91461</out>
            <start>1456</start>
            <end>1461</end>
            <pixelaspectratio>Square</pixelaspectratio>
            <stillframe>TRUE</stillframe>
            <anamorphic>FALSE</anamorphic>
            <alphatype>straight</alphatype>
            <masterclipid>C.png395</masterclipid>
            <file id="C">
              <name>C.png</name>
              <pathurl>D:/Codes/SynthLip/SynthLipN/bin/Debug/net6.0-windows/Skin/template/C.png</pathurl>
              <rate>
                <ntsc>FALSE</ntsc>
                <timebase>25</timebase>
              </rate>
              <duration>2</duration>
              <width>1920</width>
              <height>1080</height>
              <media>
                <video>
                  <duration>2</duration>
                  <stillframe>TRUE</stillframe>
                  <samplecharacteristics>
                    <rate>
                      <ntsc>FALSE</ntsc>
                      <timebase>25</timebase>
                    </rate>
                    <width>1920</width>
                    <height>1080</height>
                    <pixelaspectratio>Square</pixelaspectratio>
                    <anamorphic>FALSE</anamorphic>
                  </samplecharacteristics>
                </video>
              </media>
            </file>
            <sourcetrack>
              <mediatype>video</mediatype>
            </sourcetrack>
            <fielddominance>none</fielddominance>
          </clipitem>
          <clipitem id="C.png389">
            <name>C.png</name>
            <duration>1</duration>
            <rate>
              <ntsc>FALSE</ntsc>
              <timebase>25</timebase>
            </rate>
            <in>91453</in>
            <out>91454</out>
            <start>1453</start>
            <end>1454</end>
            <pixelaspectratio>Square</pixelaspectratio>
            <stillframe>TRUE</stillframe>
            <anamorphic>FALSE</anamorphic>
            <alphatype>straight</alphatype>
            <masterclipid>C.png389</masterclipid>
            <file id="C">
              <name>C.png</name>
              <pathurl>D:/Codes/SynthLip/SynthLipN/bin/Debug/net6.0-windows/Skin/template/C.png</pathurl>
              <rate>
                <ntsc>FALSE</ntsc>
                <timebase>25</timebase>
              </rate>
              <duration>2</duration>
              <width>1920</width>
              <height>1080</height>
              <media>
                <video>
                  <duration>2</duration>
                  <stillframe>TRUE</stillframe>
                  <samplecharacteristics>
                    <rate>
                      <ntsc>FALSE</ntsc>
                      <timebase>25</timebase>
                    </rate>
                    <width>1920</width>
                    <height>1080</height>
                    <pixelaspectratio>Square</pixelaspectratio>
                    <anamorphic>FALSE</anamorphic>
                  </samplecharacteristics>
                </video>
              </media>
            </file>
            <sourcetrack>
              <mediatype>video</mediatype>
            </sourcetrack>
            <fielddominance>none</fielddominance>
          </clipitem>
          <clipitem id="C.png388">
            <name>C.png</name>
            <duration>1</duration>
            <rate>
              <ntsc>FALSE</ntsc>
              <timebase>25</timebase>
            </rate>
            <in>91451</in>
            <out>91452</out>
            <start>1451</start>
            <end>1452</end>
            <pixelaspectratio>Square</pixelaspectratio>
            <stillframe>TRUE</stillframe>
            <anamorphic>FALSE</anamorphic>
            <alphatype>straight</alphatype>
            <masterclipid>C.png388</masterclipid>
            <file id="C">
              <name>C.png</name>
              <pathurl>D:/Codes/SynthLip/SynthLipN/bin/Debug/net6.0-windows/Skin/template/C.png</pathurl>
              <rate>
                <ntsc>FALSE</ntsc>
                <timebase>25</timebase>
              </rate>
              <duration>2</duration>
              <width>1920</width>
              <height>1080</height>
              <media>
                <video>
                  <duration>2</duration>
                  <stillframe>TRUE</stillframe>
                  <samplecharacteristics>
                    <rate>
                      <ntsc>FALSE</ntsc>
                      <timebase>25</timebase>
                    </rate>
                    <width>1920</width>
                    <height>1080</height>
                    <pixelaspectratio>Square</pixelaspectratio>
                    <anamorphic>FALSE</anamorphic>
                  </samplecharacteristics>
                </video>
              </media>
            </file>
            <sourcetrack>
              <mediatype>video</mediatype>
            </sourcetrack>
            <fielddominance>none</fielddominance>
          </clipitem>
          <clipitem id="H.png387">
            <name>H.png</name>
            <duration>1</duration>
            <rate>
              <ntsc>FALSE</ntsc>
              <timebase>25</timebase>
            </rate>
            <in>91449</in>
            <out>91450</out>
            <start>1449</start>
            <end>1450</end>
            <pixelaspectratio>Square</pixelaspectratio>
            <stillframe>TRUE</stillframe>
            <anamorphic>FALSE</anamorphic>
            <alphatype>straight</alphatype>
            <masterclipid>H.png387</masterclipid>
            <file id="H">
              <name>H.png</name>
              <pathurl>D:/Codes/SynthLip/SynthLipN/bin/Debug/net6.0-windows/Skin/template/H.png</pathurl>
              <rate>
                <ntsc>FALSE</ntsc>
                <timebase>25</timebase>
              </rate>
              <duration>2</duration>
              <width>1920</width>
              <height>1080</height>
              <media>
                <video>
                  <duration>2</duration>
                  <stillframe>TRUE</stillframe>
                  <samplecharacteristics>
                    <rate>
                      <ntsc>FALSE</ntsc>
                      <timebase>25</timebase>
                    </rate>
                    <width>1920</width>
                    <height>1080</height>
                    <pixelaspectratio>Square</pixelaspectratio>
                    <anamorphic>FALSE</anamorphic>
                  </samplecharacteristics>
                </video>
              </media>
            </file>
            <sourcetrack>
              <mediatype>video</mediatype>
            </sourcetrack>
            <fielddominance>none</fielddominance>
          </clipitem>
          <clipitem id="B.png386">
            <name>B.png</name>
            <duration>28</duration>
            <rate>
              <ntsc>FALSE</ntsc>
              <timebase>25</timebase>
            </rate>
            <in>91421</in>
            <out>91449</out>
            <start>1421</start>
            <end>1449</end>
            <pixelaspectratio>Square</pixelaspectratio>
            <stillframe>TRUE</stillframe>
            <anamorphic>FALSE</anamorphic>
            <alphatype>straight</alphatype>
            <masterclipid>B.png386</masterclipid>
            <file id="B">
              <name>B.png</name>
              <pathurl>D:/Codes/SynthLip/SynthLipN/bin/Debug/net6.0-windows/Skin/template/B.png</pathurl>
              <rate>
                <ntsc>FALSE</ntsc>
                <timebase>25</timebase>
              </rate>
              <duration>2</duration>
              <width>1920</width>
              <height>1080</height>
              <media>
                <video>
                  <duration>2</duration>
                  <stillframe>TRUE</stillframe>
                  <samplecharacteristics>
                    <rate>
                      <ntsc>FALSE</ntsc>
                      <timebase>25</timebase>
                    </rate>
                    <width>1920</width>
                    <height>1080</height>
                    <pixelaspectratio>Square</pixelaspectratio>
                    <anamorphic>FALSE</anamorphic>
                  </samplecharacteristics>
                </video>
              </media>
            </file>
            <sourcetrack>
              <mediatype>video</mediatype>
            </sourcetrack>
            <fielddominance>none</fielddominance>
          </clipitem>
          <clipitem id="C.png385">
            <name>C.png</name>
            <duration>3</duration>
            <rate>
              <ntsc>FALSE</ntsc>
              <timebase>25</timebase>
            </rate>
            <in>91417</in>
            <out>91420</out>
            <start>1417</start>
            <end>1420</end>
            <pixelaspectratio>Square</pixelaspectratio>
            <stillframe>TRUE</stillframe>
            <anamorphic>FALSE</anamorphic>
            <alphatype>straight</alphatype>
            <masterclipid>C.png385</masterclipid>
            <file id="C">
              <name>C.png</name>
              <pathurl>D:/Codes/SynthLip/SynthLipN/bin/Debug/net6.0-windows/Skin/template/C.png</pathurl>
              <rate>
                <ntsc>FALSE</ntsc>
                <timebase>25</timebase>
              </rate>
              <duration>2</duration>
              <width>1920</width>
              <height>1080</height>
              <media>
                <video>
                  <duration>2</duration>
                  <stillframe>TRUE</stillframe>
                  <samplecharacteristics>
                    <rate>
                      <ntsc>FALSE</ntsc>
                      <timebase>25</timebase>
                    </rate>
                    <width>1920</width>
                    <height>1080</height>
                    <pixelaspectratio>Square</pixelaspectratio>
                    <anamorphic>FALSE</anamorphic>
                  </samplecharacteristics>
                </video>
              </media>
            </file>
            <sourcetrack>
              <mediatype>video</mediatype>
            </sourcetrack>
            <fielddominance>none</fielddominance>
          </clipitem>
          <clipitem id="F.png384">
            <name>F.png</name>
            <duration>3</duration>
            <rate>
              <ntsc>FALSE</ntsc>
              <timebase>25</timebase>
            </rate>
            <in>91413</in>
            <out>91416</out>
            <start>1413</start>
            <end>1416</end>
            <pixelaspectratio>Square</pixelaspectratio>
            <stillframe>TRUE</stillframe>
            <anamorphic>FALSE</anamorphic>
            <alphatype>straight</alphatype>
            <masterclipid>F.png384</masterclipid>
            <file id="F">
              <name>F.png</name>
              <pathurl>D:/Codes/SynthLip/SynthLipN/bin/Debug/net6.0-windows/Skin/template/F.png</pathurl>
              <rate>
                <ntsc>FALSE</ntsc>
                <timebase>25</timebase>
              </rate>
              <duration>2</duration>
              <width>1920</width>
              <height>1080</height>
              <media>
                <video>
                  <duration>2</duration>
                  <stillframe>TRUE</stillframe>
                  <samplecharacteristics>
                    <rate>
                      <ntsc>FALSE</ntsc>
                      <timebase>25</timebase>
                    </rate>
                    <width>1920</width>
                    <height>1080</height>
                    <pixelaspectratio>Square</pixelaspectratio>
                    <anamorphic>FALSE</anamorphic>
                  </samplecharacteristics>
                </video>
              </media>
            </file>
            <sourcetrack>
              <mediatype>video</mediatype>
            </sourcetrack>
            <fielddominance>none</fielddominance>
          </clipitem>
          <clipitem id="A.png383">
            <name>A.png</name>
            <duration>3</duration>
            <rate>
              <ntsc>FALSE</ntsc>
              <timebase>25</timebase>
            </rate>
            <in>91410</in>
            <out>91413</out>
            <start>1410</start>
            <end>1413</end>
            <pixelaspectratio>Square</pixelaspectratio>
            <stillframe>TRUE</stillframe>
            <anamorphic>FALSE</anamorphic>
            <alphatype>straight</alphatype>
            <masterclipid>A.png383</masterclipid>
            <file id="A">
              <name>A.png</name>
              <pathurl>D:/Codes/SynthLip/SynthLipN/bin/Debug/net6.0-windows/Skin/template/A.png</pathurl>
              <rate>
                <ntsc>FALSE</ntsc>
                <timebase>25</timebase>
              </rate>
              <duration>2</duration>
              <width>1920</width>
              <height>1080</height>
              <media>
                <video>
                  <duration>2</duration>
                  <stillframe>TRUE</stillframe>
                  <samplecharacteristics>
                    <rate>
                      <ntsc>FALSE</ntsc>
                      <timebase>25</timebase>
                    </rate>
                    <width>1920</width>
                    <height>1080</height>
                    <pixelaspectratio>Square</pixelaspectratio>
                    <anamorphic>FALSE</anamorphic>
                  </samplecharacteristics>
                </video>
              </media>
            </file>
            <sourcetrack>
              <mediatype>video</mediatype>
            </sourcetrack>
            <fielddominance>none</fielddominance>
          </clipitem>
          <clipitem id="A.png382">
            <name>A.png</name>
            <duration>3</duration>
            <rate>
              <ntsc>FALSE</ntsc>
              <timebase>25</timebase>
            </rate>
            <in>91406</in>
            <out>91409</out>
            <start>1406</start>
            <end>1409</end>
            <pixelaspectratio>Square</pixelaspectratio>
            <stillframe>TRUE</stillframe>
            <anamorphic>FALSE</anamorphic>
            <alphatype>straight</alphatype>
            <masterclipid>A.png382</masterclipid>
            <file id="A">
              <name>A.png</name>
              <pathurl>D:/Codes/SynthLip/SynthLipN/bin/Debug/net6.0-windows/Skin/template/A.png</pathurl>
              <rate>
                <ntsc>FALSE</ntsc>
                <timebase>25</timebase>
              </rate>
              <duration>2</duration>
              <width>1920</width>
              <height>1080</height>
              <media>
                <video>
                  <duration>2</duration>
                  <stillframe>TRUE</stillframe>
                  <samplecharacteristics>
                    <rate>
                      <ntsc>FALSE</ntsc>
                      <timebase>25</timebase>
                    </rate>
                    <width>1920</width>
                    <height>1080</height>
                    <pixelaspectratio>Square</pixelaspectratio>
                    <anamorphic>FALSE</anamorphic>
                  </samplecharacteristics>
                </video>
              </media>
            </file>
            <sourcetrack>
              <mediatype>video</mediatype>
            </sourcetrack>
            <fielddominance>none</fielddominance>
          </clipitem>
          <clipitem id="F.png381">
            <name>F.png</name>
            <duration>1</duration>
            <rate>
              <ntsc>FALSE</ntsc>
              <timebase>25</timebase>
            </rate>
            <in>91404</in>
            <out>91405</out>
            <start>1404</start>
            <end>1405</end>
            <pixelaspectratio>Square</pixelaspectratio>
            <stillframe>TRUE</stillframe>
            <anamorphic>FALSE</anamorphic>
            <alphatype>straight</alphatype>
            <masterclipid>F.png381</masterclipid>
            <file id="F">
              <name>F.png</name>
              <pathurl>D:/Codes/SynthLip/SynthLipN/bin/Debug/net6.0-windows/Skin/template/F.png</pathurl>
              <rate>
                <ntsc>FALSE</ntsc>
                <timebase>25</timebase>
              </rate>
              <duration>2</duration>
              <width>1920</width>
              <height>1080</height>
              <media>
                <video>
                  <duration>2</duration>
                  <stillframe>TRUE</stillframe>
                  <samplecharacteristics>
                    <rate>
                      <ntsc>FALSE</ntsc>
                      <timebase>25</timebase>
                    </rate>
                    <width>1920</width>
                    <height>1080</height>
                    <pixelaspectratio>Square</pixelaspectratio>
                    <anamorphic>FALSE</anamorphic>
                  </samplecharacteristics>
                </video>
              </media>
            </file>
            <sourcetrack>
              <mediatype>video</mediatype>
            </sourcetrack>
            <fielddominance>none</fielddominance>
          </clipitem>
          <clipitem id="B.png378">
            <name>B.png</name>
            <duration>5</duration>
            <rate>
              <ntsc>FALSE</ntsc>
              <timebase>25</timebase>
            </rate>
            <in>91396</in>
            <out>91401</out>
            <start>1396</start>
            <end>1401</end>
            <pixelaspectratio>Square</pixelaspectratio>
            <stillframe>TRUE</stillframe>
            <anamorphic>FALSE</anamorphic>
            <alphatype>straight</alphatype>
            <masterclipid>B.png378</masterclipid>
            <file id="B">
              <name>B.png</name>
              <pathurl>D:/Codes/SynthLip/SynthLipN/bin/Debug/net6.0-windows/Skin/template/B.png</pathurl>
              <rate>
                <ntsc>FALSE</ntsc>
                <timebase>25</timebase>
              </rate>
              <duration>2</duration>
              <width>1920</width>
              <height>1080</height>
              <media>
                <video>
                  <duration>2</duration>
                  <stillframe>TRUE</stillframe>
                  <samplecharacteristics>
                    <rate>
                      <ntsc>FALSE</ntsc>
                      <timebase>25</timebase>
                    </rate>
                    <width>1920</width>
                    <height>1080</height>
                    <pixelaspectratio>Square</pixelaspectratio>
                    <anamorphic>FALSE</anamorphic>
                  </samplecharacteristics>
                </video>
              </media>
            </file>
            <sourcetrack>
              <mediatype>video</mediatype>
            </sourcetrack>
            <fielddominance>none</fielddominance>
          </clipitem>
          <clipitem id="F.png375">
            <name>F.png</name>
            <duration>11</duration>
            <rate>
              <ntsc>FALSE</ntsc>
              <timebase>25</timebase>
            </rate>
            <in>91383</in>
            <out>91394</out>
            <start>1383</start>
            <end>1394</end>
            <pixelaspectratio>Square</pixelaspectratio>
            <stillframe>TRUE</stillframe>
            <anamorphic>FALSE</anamorphic>
            <alphatype>straight</alphatype>
            <masterclipid>F.png375</masterclipid>
            <file id="F">
              <name>F.png</name>
              <pathurl>D:/Codes/SynthLip/SynthLipN/bin/Debug/net6.0-windows/Skin/template/F.png</pathurl>
              <rate>
                <ntsc>FALSE</ntsc>
                <timebase>25</timebase>
              </rate>
              <duration>2</duration>
              <width>1920</width>
              <height>1080</height>
              <media>
                <video>
                  <duration>2</duration>
                  <stillframe>TRUE</stillframe>
                  <samplecharacteristics>
                    <rate>
                      <ntsc>FALSE</ntsc>
                      <timebase>25</timebase>
                    </rate>
                    <width>1920</width>
                    <height>1080</height>
                    <pixelaspectratio>Square</pixelaspectratio>
                    <anamorphic>FALSE</anamorphic>
                  </samplecharacteristics>
                </video>
              </media>
            </file>
            <sourcetrack>
              <mediatype>video</mediatype>
            </sourcetrack>
            <fielddominance>none</fielddominance>
          </clipitem>
          <clipitem id="B.png374">
            <name>B.png</name>
            <duration>1</duration>
            <rate>
              <ntsc>FALSE</ntsc>
              <timebase>25</timebase>
            </rate>
            <in>91381</in>
            <out>91382</out>
            <start>1381</start>
            <end>1382</end>
            <pixelaspectratio>Square</pixelaspectratio>
            <stillframe>TRUE</stillframe>
            <anamorphic>FALSE</anamorphic>
            <alphatype>straight</alphatype>
            <masterclipid>B.png374</masterclipid>
            <file id="B">
              <name>B.png</name>
              <pathurl>D:/Codes/SynthLip/SynthLipN/bin/Debug/net6.0-windows/Skin/template/B.png</pathurl>
              <rate>
                <ntsc>FALSE</ntsc>
                <timebase>25</timebase>
              </rate>
              <duration>2</duration>
              <width>1920</width>
              <height>1080</height>
              <media>
                <video>
                  <duration>2</duration>
                  <stillframe>TRUE</stillframe>
                  <samplecharacteristics>
                    <rate>
                      <ntsc>FALSE</ntsc>
                      <timebase>25</timebase>
                    </rate>
                    <width>1920</width>
                    <height>1080</height>
                    <pixelaspectratio>Square</pixelaspectratio>
                    <anamorphic>FALSE</anamorphic>
                  </samplecharacteristics>
                </video>
              </media>
            </file>
            <sourcetrack>
              <mediatype>video</mediatype>
            </sourcetrack>
            <fielddominance>none</fielddominance>
          </clipitem>
          <clipitem id="A.png373">
            <name>A.png</name>
            <duration>1</duration>
            <rate>
              <ntsc>FALSE</ntsc>
              <timebase>25</timebase>
            </rate>
            <in>91380</in>
            <out>91381</out>
            <start>1380</start>
            <end>1381</end>
            <pixelaspectratio>Square</pixelaspectratio>
            <stillframe>TRUE</stillframe>
            <anamorphic>FALSE</anamorphic>
            <alphatype>straight</alphatype>
            <masterclipid>A.png373</masterclipid>
            <file id="A">
              <name>A.png</name>
              <pathurl>D:/Codes/SynthLip/SynthLipN/bin/Debug/net6.0-windows/Skin/template/A.png</pathurl>
              <rate>
                <ntsc>FALSE</ntsc>
                <timebase>25</timebase>
              </rate>
              <duration>2</duration>
              <width>1920</width>
              <height>1080</height>
              <media>
                <video>
                  <duration>2</duration>
                  <stillframe>TRUE</stillframe>
                  <samplecharacteristics>
                    <rate>
                      <ntsc>FALSE</ntsc>
                      <timebase>25</timebase>
                    </rate>
                    <width>1920</width>
                    <height>1080</height>
                    <pixelaspectratio>Square</pixelaspectratio>
                    <anamorphic>FALSE</anamorphic>
                  </samplecharacteristics>
                </video>
              </media>
            </file>
            <sourcetrack>
              <mediatype>video</mediatype>
            </sourcetrack>
            <fielddominance>none</fielddominance>
          </clipitem>
          <clipitem id="B.png372">
            <name>B.png</name>
            <duration>3</duration>
            <rate>
              <ntsc>FALSE</ntsc>
              <timebase>25</timebase>
            </rate>
            <in>91376</in>
            <out>91379</out>
            <start>1376</start>
            <end>1379</end>
            <pixelaspectratio>Square</pixelaspectratio>
            <stillframe>TRUE</stillframe>
            <anamorphic>FALSE</anamorphic>
            <alphatype>straight</alphatype>
            <masterclipid>B.png372</masterclipid>
            <file id="B">
              <name>B.png</name>
              <pathurl>D:/Codes/SynthLip/SynthLipN/bin/Debug/net6.0-windows/Skin/template/B.png</pathurl>
              <rate>
                <ntsc>FALSE</ntsc>
                <timebase>25</timebase>
              </rate>
              <duration>2</duration>
              <width>1920</width>
              <height>1080</height>
              <media>
                <video>
                  <duration>2</duration>
                  <stillframe>TRUE</stillframe>
                  <samplecharacteristics>
                    <rate>
                      <ntsc>FALSE</ntsc>
                      <timebase>25</timebase>
                    </rate>
                    <width>1920</width>
                    <height>1080</height>
                    <pixelaspectratio>Square</pixelaspectratio>
                    <anamorphic>FALSE</anamorphic>
                  </samplecharacteristics>
                </video>
              </media>
            </file>
            <sourcetrack>
              <mediatype>video</mediatype>
            </sourcetrack>
            <fielddominance>none</fielddominance>
          </clipitem>
          <clipitem id="C.png371">
            <name>C.png</name>
            <duration>1</duration>
            <rate>
              <ntsc>FALSE</ntsc>
              <timebase>25</timebase>
            </rate>
            <in>91374</in>
            <out>91375</out>
            <start>1374</start>
            <end>1375</end>
            <pixelaspectratio>Square</pixelaspectratio>
            <stillframe>TRUE</stillframe>
            <anamorphic>FALSE</anamorphic>
            <alphatype>straight</alphatype>
            <masterclipid>C.png371</masterclipid>
            <file id="C">
              <name>C.png</name>
              <pathurl>D:/Codes/SynthLip/SynthLipN/bin/Debug/net6.0-windows/Skin/template/C.png</pathurl>
              <rate>
                <ntsc>FALSE</ntsc>
                <timebase>25</timebase>
              </rate>
              <duration>2</duration>
              <width>1920</width>
              <height>1080</height>
              <media>
                <video>
                  <duration>2</duration>
                  <stillframe>TRUE</stillframe>
                  <samplecharacteristics>
                    <rate>
                      <ntsc>FALSE</ntsc>
                      <timebase>25</timebase>
                    </rate>
                    <width>1920</width>
                    <height>1080</height>
                    <pixelaspectratio>Square</pixelaspectratio>
                    <anamorphic>FALSE</anamorphic>
                  </samplecharacteristics>
                </video>
              </media>
            </file>
            <sourcetrack>
              <mediatype>video</mediatype>
            </sourcetrack>
            <fielddominance>none</fielddominance>
          </clipitem>
          <clipitem id="A.png370">
            <name>A.png</name>
            <duration>1</duration>
            <rate>
              <ntsc>FALSE</ntsc>
              <timebase>25</timebase>
            </rate>
            <in>91372</in>
            <out>91373</out>
            <start>1372</start>
            <end>1373</end>
            <pixelaspectratio>Square</pixelaspectratio>
            <stillframe>TRUE</stillframe>
            <anamorphic>FALSE</anamorphic>
            <alphatype>straight</alphatype>
            <masterclipid>A.png370</masterclipid>
            <file id="A">
              <name>A.png</name>
              <pathurl>D:/Codes/SynthLip/SynthLipN/bin/Debug/net6.0-windows/Skin/template/A.png</pathurl>
              <rate>
                <ntsc>FALSE</ntsc>
                <timebase>25</timebase>
              </rate>
              <duration>2</duration>
              <width>1920</width>
              <height>1080</height>
              <media>
                <video>
                  <duration>2</duration>
                  <stillframe>TRUE</stillframe>
                  <samplecharacteristics>
                    <rate>
                      <ntsc>FALSE</ntsc>
                      <timebase>25</timebase>
                    </rate>
                    <width>1920</width>
                    <height>1080</height>
                    <pixelaspectratio>Square</pixelaspectratio>
                    <anamorphic>FALSE</anamorphic>
                  </samplecharacteristics>
                </video>
              </media>
            </file>
            <sourcetrack>
              <mediatype>video</mediatype>
            </sourcetrack>
            <fielddominance>none</fielddominance>
          </clipitem>
          <clipitem id="B.png369">
            <name>B.png</name>
            <duration>5</duration>
            <rate>
              <ntsc>FALSE</ntsc>
              <timebase>25</timebase>
            </rate>
            <in>91366</in>
            <out>91371</out>
            <start>1366</start>
            <end>1371</end>
            <pixelaspectratio>Square</pixelaspectratio>
            <stillframe>TRUE</stillframe>
            <anamorphic>FALSE</anamorphic>
            <alphatype>straight</alphatype>
            <masterclipid>B.png369</masterclipid>
            <file id="B">
              <name>B.png</name>
              <pathurl>D:/Codes/SynthLip/SynthLipN/bin/Debug/net6.0-windows/Skin/template/B.png</pathurl>
              <rate>
                <ntsc>FALSE</ntsc>
                <timebase>25</timebase>
              </rate>
              <duration>2</duration>
              <width>1920</width>
              <height>1080</height>
              <media>
                <video>
                  <duration>2</duration>
                  <stillframe>TRUE</stillframe>
                  <samplecharacteristics>
                    <rate>
                      <ntsc>FALSE</ntsc>
                      <timebase>25</timebase>
                    </rate>
                    <width>1920</width>
                    <height>1080</height>
                    <pixelaspectratio>Square</pixelaspectratio>
                    <anamorphic>FALSE</anamorphic>
                  </samplecharacteristics>
                </video>
              </media>
            </file>
            <sourcetrack>
              <mediatype>video</mediatype>
            </sourcetrack>
            <fielddominance>none</fielddominance>
          </clipitem>
          <clipitem id="B.png366">
            <name>B.png</name>
            <duration>3</duration>
            <rate>
              <ntsc>FALSE</ntsc>
              <timebase>25</timebase>
            </rate>
            <in>91361</in>
            <out>91364</out>
            <start>1361</start>
            <end>1364</end>
            <pixelaspectratio>Square</pixelaspectratio>
            <stillframe>TRUE</stillframe>
            <anamorphic>FALSE</anamorphic>
            <alphatype>straight</alphatype>
            <masterclipid>B.png366</masterclipid>
            <file id="B">
              <name>B.png</name>
              <pathurl>D:/Codes/SynthLip/SynthLipN/bin/Debug/net6.0-windows/Skin/template/B.png</pathurl>
              <rate>
                <ntsc>FALSE</ntsc>
                <timebase>25</timebase>
              </rate>
              <duration>2</duration>
              <width>1920</width>
              <height>1080</height>
              <media>
                <video>
                  <duration>2</duration>
                  <stillframe>TRUE</stillframe>
                  <samplecharacteristics>
                    <rate>
                      <ntsc>FALSE</ntsc>
                      <timebase>25</timebase>
                    </rate>
                    <width>1920</width>
                    <height>1080</height>
                    <pixelaspectratio>Square</pixelaspectratio>
                    <anamorphic>FALSE</anamorphic>
                  </samplecharacteristics>
                </video>
              </media>
            </file>
            <sourcetrack>
              <mediatype>video</mediatype>
            </sourcetrack>
            <fielddominance>none</fielddominance>
          </clipitem>
          <clipitem id="B.png365">
            <name>B.png</name>
            <duration>3</duration>
            <rate>
              <ntsc>FALSE</ntsc>
              <timebase>25</timebase>
            </rate>
            <in>91357</in>
            <out>91360</out>
            <start>1357</start>
            <end>1360</end>
            <pixelaspectratio>Square</pixelaspectratio>
            <stillframe>TRUE</stillframe>
            <anamorphic>FALSE</anamorphic>
            <alphatype>straight</alphatype>
            <masterclipid>B.png365</masterclipid>
            <file id="B">
              <name>B.png</name>
              <pathurl>D:/Codes/SynthLip/SynthLipN/bin/Debug/net6.0-windows/Skin/template/B.png</pathurl>
              <rate>
                <ntsc>FALSE</ntsc>
                <timebase>25</timebase>
              </rate>
              <duration>2</duration>
              <width>1920</width>
              <height>1080</height>
              <media>
                <video>
                  <duration>2</duration>
                  <stillframe>TRUE</stillframe>
                  <samplecharacteristics>
                    <rate>
                      <ntsc>FALSE</ntsc>
                      <timebase>25</timebase>
                    </rate>
                    <width>1920</width>
                    <height>1080</height>
                    <pixelaspectratio>Square</pixelaspectratio>
                    <anamorphic>FALSE</anamorphic>
                  </samplecharacteristics>
                </video>
              </media>
            </file>
            <sourcetrack>
              <mediatype>video</mediatype>
            </sourcetrack>
            <fielddominance>none</fielddominance>
          </clipitem>
          <clipitem id="A.png364">
            <name>A.png</name>
            <duration>3</duration>
            <rate>
              <ntsc>FALSE</ntsc>
              <timebase>25</timebase>
            </rate>
            <in>91353</in>
            <out>91356</out>
            <start>1353</start>
            <end>1356</end>
            <pixelaspectratio>Square</pixelaspectratio>
            <stillframe>TRUE</stillframe>
            <anamorphic>FALSE</anamorphic>
            <alphatype>straight</alphatype>
            <masterclipid>A.png364</masterclipid>
            <file id="A">
              <name>A.png</name>
              <pathurl>D:/Codes/SynthLip/SynthLipN/bin/Debug/net6.0-windows/Skin/template/A.png</pathurl>
              <rate>
                <ntsc>FALSE</ntsc>
                <timebase>25</timebase>
              </rate>
              <duration>2</duration>
              <width>1920</width>
              <height>1080</height>
              <media>
                <video>
                  <duration>2</duration>
                  <stillframe>TRUE</stillframe>
                  <samplecharacteristics>
                    <rate>
                      <ntsc>FALSE</ntsc>
                      <timebase>25</timebase>
                    </rate>
                    <width>1920</width>
                    <height>1080</height>
                    <pixelaspectratio>Square</pixelaspectratio>
                    <anamorphic>FALSE</anamorphic>
                  </samplecharacteristics>
                </video>
              </media>
            </file>
            <sourcetrack>
              <mediatype>video</mediatype>
            </sourcetrack>
            <fielddominance>none</fielddominance>
          </clipitem>
          <clipitem id="F.png363">
            <name>F.png</name>
            <duration>5</duration>
            <rate>
              <ntsc>FALSE</ntsc>
              <timebase>25</timebase>
            </rate>
            <in>91348</in>
            <out>91353</out>
            <start>1348</start>
            <end>1353</end>
            <pixelaspectratio>Square</pixelaspectratio>
            <stillframe>TRUE</stillframe>
            <anamorphic>FALSE</anamorphic>
            <alphatype>straight</alphatype>
            <masterclipid>F.png363</masterclipid>
            <file id="F">
              <name>F.png</name>
              <pathurl>D:/Codes/SynthLip/SynthLipN/bin/Debug/net6.0-windows/Skin/template/F.png</pathurl>
              <rate>
                <ntsc>FALSE</ntsc>
                <timebase>25</timebase>
              </rate>
              <duration>2</duration>
              <width>1920</width>
              <height>1080</height>
              <media>
                <video>
                  <duration>2</duration>
                  <stillframe>TRUE</stillframe>
                  <samplecharacteristics>
                    <rate>
                      <ntsc>FALSE</ntsc>
                      <timebase>25</timebase>
                    </rate>
                    <width>1920</width>
                    <height>1080</height>
                    <pixelaspectratio>Square</pixelaspectratio>
                    <anamorphic>FALSE</anamorphic>
                  </samplecharacteristics>
                </video>
              </media>
            </file>
            <sourcetrack>
              <mediatype>video</mediatype>
            </sourcetrack>
            <fielddominance>none</fielddominance>
          </clipitem>
          <clipitem id="C.png360">
            <name>C.png</name>
            <duration>1</duration>
            <rate>
              <ntsc>FALSE</ntsc>
              <timebase>25</timebase>
            </rate>
            <in>91345</in>
            <out>91346</out>
            <start>1345</start>
            <end>1346</end>
            <pixelaspectratio>Square</pixelaspectratio>
            <stillframe>TRUE</stillframe>
            <anamorphic>FALSE</anamorphic>
            <alphatype>straight</alphatype>
            <masterclipid>C.png360</masterclipid>
            <file id="C">
              <name>C.png</name>
              <pathurl>D:/Codes/SynthLip/SynthLipN/bin/Debug/net6.0-windows/Skin/template/C.png</pathurl>
              <rate>
                <ntsc>FALSE</ntsc>
                <timebase>25</timebase>
              </rate>
              <duration>2</duration>
              <width>1920</width>
              <height>1080</height>
              <media>
                <video>
                  <duration>2</duration>
                  <stillframe>TRUE</stillframe>
                  <samplecharacteristics>
                    <rate>
                      <ntsc>FALSE</ntsc>
                      <timebase>25</timebase>
                    </rate>
                    <width>1920</width>
                    <height>1080</height>
                    <pixelaspectratio>Square</pixelaspectratio>
                    <anamorphic>FALSE</anamorphic>
                  </samplecharacteristics>
                </video>
              </media>
            </file>
            <sourcetrack>
              <mediatype>video</mediatype>
            </sourcetrack>
            <fielddominance>none</fielddominance>
          </clipitem>
          <clipitem id="B.png359">
            <name>B.png</name>
            <duration>1</duration>
            <rate>
              <ntsc>FALSE</ntsc>
              <timebase>25</timebase>
            </rate>
            <in>91343</in>
            <out>91344</out>
            <start>1343</start>
            <end>1344</end>
            <pixelaspectratio>Square</pixelaspectratio>
            <stillframe>TRUE</stillframe>
            <anamorphic>FALSE</anamorphic>
            <alphatype>straight</alphatype>
            <masterclipid>B.png359</masterclipid>
            <file id="B">
              <name>B.png</name>
              <pathurl>D:/Codes/SynthLip/SynthLipN/bin/Debug/net6.0-windows/Skin/template/B.png</pathurl>
              <rate>
                <ntsc>FALSE</ntsc>
                <timebase>25</timebase>
              </rate>
              <duration>2</duration>
              <width>1920</width>
              <height>1080</height>
              <media>
                <video>
                  <duration>2</duration>
                  <stillframe>TRUE</stillframe>
                  <samplecharacteristics>
                    <rate>
                      <ntsc>FALSE</ntsc>
                      <timebase>25</timebase>
                    </rate>
                    <width>1920</width>
                    <height>1080</height>
                    <pixelaspectratio>Square</pixelaspectratio>
                    <anamorphic>FALSE</anamorphic>
                  </samplecharacteristics>
                </video>
              </media>
            </file>
            <sourcetrack>
              <mediatype>video</mediatype>
            </sourcetrack>
            <fielddominance>none</fielddominance>
          </clipitem>
          <clipitem id="B.png358">
            <name>B.png</name>
            <duration>8</duration>
            <rate>
              <ntsc>FALSE</ntsc>
              <timebase>25</timebase>
            </rate>
            <in>91335</in>
            <out>91343</out>
            <start>1335</start>
            <end>1343</end>
            <pixelaspectratio>Square</pixelaspectratio>
            <stillframe>TRUE</stillframe>
            <anamorphic>FALSE</anamorphic>
            <alphatype>straight</alphatype>
            <masterclipid>B.png358</masterclipid>
            <file id="B">
              <name>B.png</name>
              <pathurl>D:/Codes/SynthLip/SynthLipN/bin/Debug/net6.0-windows/Skin/template/B.png</pathurl>
              <rate>
                <ntsc>FALSE</ntsc>
                <timebase>25</timebase>
              </rate>
              <duration>2</duration>
              <width>1920</width>
              <height>1080</height>
              <media>
                <video>
                  <duration>2</duration>
                  <stillframe>TRUE</stillframe>
                  <samplecharacteristics>
                    <rate>
                      <ntsc>FALSE</ntsc>
                      <timebase>25</timebase>
                    </rate>
                    <width>1920</width>
                    <height>1080</height>
                    <pixelaspectratio>Square</pixelaspectratio>
                    <anamorphic>FALSE</anamorphic>
                  </samplecharacteristics>
                </video>
              </media>
            </file>
            <sourcetrack>
              <mediatype>video</mediatype>
            </sourcetrack>
            <fielddominance>none</fielddominance>
          </clipitem>
          <clipitem id="F.png357">
            <name>F.png</name>
            <duration>4</duration>
            <rate>
              <ntsc>FALSE</ntsc>
              <timebase>25</timebase>
            </rate>
            <in>91330</in>
            <out>91334</out>
            <start>1330</start>
            <end>1334</end>
            <pixelaspectratio>Square</pixelaspectratio>
            <stillframe>TRUE</stillframe>
            <anamorphic>FALSE</anamorphic>
            <alphatype>straight</alphatype>
            <masterclipid>F.png357</masterclipid>
            <file id="F">
              <name>F.png</name>
              <pathurl>D:/Codes/SynthLip/SynthLipN/bin/Debug/net6.0-windows/Skin/template/F.png</pathurl>
              <rate>
                <ntsc>FALSE</ntsc>
                <timebase>25</timebase>
              </rate>
              <duration>2</duration>
              <width>1920</width>
              <height>1080</height>
              <media>
                <video>
                  <duration>2</duration>
                  <stillframe>TRUE</stillframe>
                  <samplecharacteristics>
                    <rate>
                      <ntsc>FALSE</ntsc>
                      <timebase>25</timebase>
                    </rate>
                    <width>1920</width>
                    <height>1080</height>
                    <pixelaspectratio>Square</pixelaspectratio>
                    <anamorphic>FALSE</anamorphic>
                  </samplecharacteristics>
                </video>
              </media>
            </file>
            <sourcetrack>
              <mediatype>video</mediatype>
            </sourcetrack>
            <fielddominance>none</fielddominance>
          </clipitem>
          <clipitem id="F.png356">
            <name>F.png</name>
            <duration>4</duration>
            <rate>
              <ntsc>FALSE</ntsc>
              <timebase>25</timebase>
            </rate>
            <in>91325</in>
            <out>91329</out>
            <start>1325</start>
            <end>1329</end>
            <pixelaspectratio>Square</pixelaspectratio>
            <stillframe>TRUE</stillframe>
            <anamorphic>FALSE</anamorphic>
            <alphatype>straight</alphatype>
            <masterclipid>F.png356</masterclipid>
            <file id="F">
              <name>F.png</name>
              <pathurl>D:/Codes/SynthLip/SynthLipN/bin/Debug/net6.0-windows/Skin/template/F.png</pathurl>
              <rate>
                <ntsc>FALSE</ntsc>
                <timebase>25</timebase>
              </rate>
              <duration>2</duration>
              <width>1920</width>
              <height>1080</height>
              <media>
                <video>
                  <duration>2</duration>
                  <stillframe>TRUE</stillframe>
                  <samplecharacteristics>
                    <rate>
                      <ntsc>FALSE</ntsc>
                      <timebase>25</timebase>
                    </rate>
                    <width>1920</width>
                    <height>1080</height>
                    <pixelaspectratio>Square</pixelaspectratio>
                    <anamorphic>FALSE</anamorphic>
                  </samplecharacteristics>
                </video>
              </media>
            </file>
            <sourcetrack>
              <mediatype>video</mediatype>
            </sourcetrack>
            <fielddominance>none</fielddominance>
          </clipitem>
          <clipitem id="B.png355">
            <name>B.png</name>
            <duration>4</duration>
            <rate>
              <ntsc>FALSE</ntsc>
              <timebase>25</timebase>
            </rate>
            <in>91320</in>
            <out>91324</out>
            <start>1320</start>
            <end>1324</end>
            <pixelaspectratio>Square</pixelaspectratio>
            <stillframe>TRUE</stillframe>
            <anamorphic>FALSE</anamorphic>
            <alphatype>straight</alphatype>
            <masterclipid>B.png355</masterclipid>
            <file id="B">
              <name>B.png</name>
              <pathurl>D:/Codes/SynthLip/SynthLipN/bin/Debug/net6.0-windows/Skin/template/B.png</pathurl>
              <rate>
                <ntsc>FALSE</ntsc>
                <timebase>25</timebase>
              </rate>
              <duration>2</duration>
              <width>1920</width>
              <height>1080</height>
              <media>
                <video>
                  <duration>2</duration>
                  <stillframe>TRUE</stillframe>
                  <samplecharacteristics>
                    <rate>
                      <ntsc>FALSE</ntsc>
                      <timebase>25</timebase>
                    </rate>
                    <width>1920</width>
                    <height>1080</height>
                    <pixelaspectratio>Square</pixelaspectratio>
                    <anamorphic>FALSE</anamorphic>
                  </samplecharacteristics>
                </video>
              </media>
            </file>
            <sourcetrack>
              <mediatype>video</mediatype>
            </sourcetrack>
            <fielddominance>none</fielddominance>
          </clipitem>
          <clipitem id="G.png354">
            <name>G.png</name>
            <duration>4</duration>
            <rate>
              <ntsc>FALSE</ntsc>
              <timebase>25</timebase>
            </rate>
            <in>91316</in>
            <out>91320</out>
            <start>1316</start>
            <end>1320</end>
            <pixelaspectratio>Square</pixelaspectratio>
            <stillframe>TRUE</stillframe>
            <anamorphic>FALSE</anamorphic>
            <alphatype>straight</alphatype>
            <masterclipid>G.png354</masterclipid>
            <file id="G">
              <name>G.png</name>
              <pathurl>D:/Codes/SynthLip/SynthLipN/bin/Debug/net6.0-windows/Skin/template/G.png</pathurl>
              <rate>
                <ntsc>FALSE</ntsc>
                <timebase>25</timebase>
              </rate>
              <duration>2</duration>
              <width>1920</width>
              <height>1080</height>
              <media>
                <video>
                  <duration>2</duration>
                  <stillframe>TRUE</stillframe>
                  <samplecharacteristics>
                    <rate>
                      <ntsc>FALSE</ntsc>
                      <timebase>25</timebase>
                    </rate>
                    <width>1920</width>
                    <height>1080</height>
                    <pixelaspectratio>Square</pixelaspectratio>
                    <anamorphic>FALSE</anamorphic>
                  </samplecharacteristics>
                </video>
              </media>
            </file>
            <sourcetrack>
              <mediatype>video</mediatype>
            </sourcetrack>
            <fielddominance>none</fielddominance>
          </clipitem>
          <clipitem id="D.png353">
            <name>D.png</name>
            <duration>5</duration>
            <rate>
              <ntsc>FALSE</ntsc>
              <timebase>25</timebase>
            </rate>
            <in>91310</in>
            <out>91315</out>
            <start>1310</start>
            <end>1315</end>
            <pixelaspectratio>Square</pixelaspectratio>
            <stillframe>TRUE</stillframe>
            <anamorphic>FALSE</anamorphic>
            <alphatype>straight</alphatype>
            <masterclipid>D.png353</masterclipid>
            <file id="D">
              <name>D.png</name>
              <pathurl>D:/Codes/SynthLip/SynthLipN/bin/Debug/net6.0-windows/Skin/template/D.png</pathurl>
              <rate>
                <ntsc>FALSE</ntsc>
                <timebase>25</timebase>
              </rate>
              <duration>2</duration>
              <width>1920</width>
              <height>1080</height>
              <media>
                <video>
                  <duration>2</duration>
                  <stillframe>TRUE</stillframe>
                  <samplecharacteristics>
                    <rate>
                      <ntsc>FALSE</ntsc>
                      <timebase>25</timebase>
                    </rate>
                    <width>1920</width>
                    <height>1080</height>
                    <pixelaspectratio>Square</pixelaspectratio>
                    <anamorphic>FALSE</anamorphic>
                  </samplecharacteristics>
                </video>
              </media>
            </file>
            <sourcetrack>
              <mediatype>video</mediatype>
            </sourcetrack>
            <fielddominance>none</fielddominance>
          </clipitem>
          <clipitem id="A.png352">
            <name>A.png</name>
            <duration>5</duration>
            <rate>
              <ntsc>FALSE</ntsc>
              <timebase>25</timebase>
            </rate>
            <in>91305</in>
            <out>91310</out>
            <start>1305</start>
            <end>1310</end>
            <pixelaspectratio>Square</pixelaspectratio>
            <stillframe>TRUE</stillframe>
            <anamorphic>FALSE</anamorphic>
            <alphatype>straight</alphatype>
            <masterclipid>A.png352</masterclipid>
            <file id="A">
              <name>A.png</name>
              <pathurl>D:/Codes/SynthLip/SynthLipN/bin/Debug/net6.0-windows/Skin/template/A.png</pathurl>
              <rate>
                <ntsc>FALSE</ntsc>
                <timebase>25</timebase>
              </rate>
              <duration>2</duration>
              <width>1920</width>
              <height>1080</height>
              <media>
                <video>
                  <duration>2</duration>
                  <stillframe>TRUE</stillframe>
                  <samplecharacteristics>
                    <rate>
                      <ntsc>FALSE</ntsc>
                      <timebase>25</timebase>
                    </rate>
                    <width>1920</width>
                    <height>1080</height>
                    <pixelaspectratio>Square</pixelaspectratio>
                    <anamorphic>FALSE</anamorphic>
                  </samplecharacteristics>
                </video>
              </media>
            </file>
            <sourcetrack>
              <mediatype>video</mediatype>
            </sourcetrack>
            <fielddominance>none</fielddominance>
          </clipitem>
          <clipitem id="A.png351">
            <name>A.png</name>
            <duration>3</duration>
            <rate>
              <ntsc>FALSE</ntsc>
              <timebase>25</timebase>
            </rate>
            <in>91301</in>
            <out>91304</out>
            <start>1301</start>
            <end>1304</end>
            <pixelaspectratio>Square</pixelaspectratio>
            <stillframe>TRUE</stillframe>
            <anamorphic>FALSE</anamorphic>
            <alphatype>straight</alphatype>
            <masterclipid>A.png351</masterclipid>
            <file id="A">
              <name>A.png</name>
              <pathurl>D:/Codes/SynthLip/SynthLipN/bin/Debug/net6.0-windows/Skin/template/A.png</pathurl>
              <rate>
                <ntsc>FALSE</ntsc>
                <timebase>25</timebase>
              </rate>
              <duration>2</duration>
              <width>1920</width>
              <height>1080</height>
              <media>
                <video>
                  <duration>2</duration>
                  <stillframe>TRUE</stillframe>
                  <samplecharacteristics>
                    <rate>
                      <ntsc>FALSE</ntsc>
                      <timebase>25</timebase>
                    </rate>
                    <width>1920</width>
                    <height>1080</height>
                    <pixelaspectratio>Square</pixelaspectratio>
                    <anamorphic>FALSE</anamorphic>
                  </samplecharacteristics>
                </video>
              </media>
            </file>
            <sourcetrack>
              <mediatype>video</mediatype>
            </sourcetrack>
            <fielddominance>none</fielddominance>
          </clipitem>
          <clipitem id="C.png350">
            <name>C.png</name>
            <duration>9</duration>
            <rate>
              <ntsc>FALSE</ntsc>
              <timebase>25</timebase>
            </rate>
            <in>91291</in>
            <out>91300</out>
            <start>1291</start>
            <end>1300</end>
            <pixelaspectratio>Square</pixelaspectratio>
            <stillframe>TRUE</stillframe>
            <anamorphic>FALSE</anamorphic>
            <alphatype>straight</alphatype>
            <masterclipid>C.png350</masterclipid>
            <file id="C">
              <name>C.png</name>
              <pathurl>D:/Codes/SynthLip/SynthLipN/bin/Debug/net6.0-windows/Skin/template/C.png</pathurl>
              <rate>
                <ntsc>FALSE</ntsc>
                <timebase>25</timebase>
              </rate>
              <duration>2</duration>
              <width>1920</width>
              <height>1080</height>
              <media>
                <video>
                  <duration>2</duration>
                  <stillframe>TRUE</stillframe>
                  <samplecharacteristics>
                    <rate>
                      <ntsc>FALSE</ntsc>
                      <timebase>25</timebase>
                    </rate>
                    <width>1920</width>
                    <height>1080</height>
                    <pixelaspectratio>Square</pixelaspectratio>
                    <anamorphic>FALSE</anamorphic>
                  </samplecharacteristics>
                </video>
              </media>
            </file>
            <sourcetrack>
              <mediatype>video</mediatype>
            </sourcetrack>
            <fielddominance>none</fielddominance>
          </clipitem>
          <clipitem id="D.png346">
            <name>D.png</name>
            <duration>2</duration>
            <rate>
              <ntsc>FALSE</ntsc>
              <timebase>25</timebase>
            </rate>
            <in>91287</in>
            <out>91289</out>
            <start>1287</start>
            <end>1289</end>
            <pixelaspectratio>Square</pixelaspectratio>
            <stillframe>TRUE</stillframe>
            <anamorphic>FALSE</anamorphic>
            <alphatype>straight</alphatype>
            <masterclipid>D.png346</masterclipid>
            <file id="D">
              <name>D.png</name>
              <pathurl>D:/Codes/SynthLip/SynthLipN/bin/Debug/net6.0-windows/Skin/template/D.png</pathurl>
              <rate>
                <ntsc>FALSE</ntsc>
                <timebase>25</timebase>
              </rate>
              <duration>2</duration>
              <width>1920</width>
              <height>1080</height>
              <media>
                <video>
                  <duration>2</duration>
                  <stillframe>TRUE</stillframe>
                  <samplecharacteristics>
                    <rate>
                      <ntsc>FALSE</ntsc>
                      <timebase>25</timebase>
                    </rate>
                    <width>1920</width>
                    <height>1080</height>
                    <pixelaspectratio>Square</pixelaspectratio>
                    <anamorphic>FALSE</anamorphic>
                  </samplecharacteristics>
                </video>
              </media>
            </file>
            <sourcetrack>
              <mediatype>video</mediatype>
            </sourcetrack>
            <fielddominance>none</fielddominance>
          </clipitem>
          <clipitem id="B.png345">
            <name>B.png</name>
            <duration>2</duration>
            <rate>
              <ntsc>FALSE</ntsc>
              <timebase>25</timebase>
            </rate>
            <in>91285</in>
            <out>91287</out>
            <start>1285</start>
            <end>1287</end>
            <pixelaspectratio>Square</pixelaspectratio>
            <stillframe>TRUE</stillframe>
            <anamorphic>FALSE</anamorphic>
            <alphatype>straight</alphatype>
            <masterclipid>B.png345</masterclipid>
            <file id="B">
              <name>B.png</name>
              <pathurl>D:/Codes/SynthLip/SynthLipN/bin/Debug/net6.0-windows/Skin/template/B.png</pathurl>
              <rate>
                <ntsc>FALSE</ntsc>
                <timebase>25</timebase>
              </rate>
              <duration>2</duration>
              <width>1920</width>
              <height>1080</height>
              <media>
                <video>
                  <duration>2</duration>
                  <stillframe>TRUE</stillframe>
                  <samplecharacteristics>
                    <rate>
                      <ntsc>FALSE</ntsc>
                      <timebase>25</timebase>
                    </rate>
                    <width>1920</width>
                    <height>1080</height>
                    <pixelaspectratio>Square</pixelaspectratio>
                    <anamorphic>FALSE</anamorphic>
                  </samplecharacteristics>
                </video>
              </media>
            </file>
            <sourcetrack>
              <mediatype>video</mediatype>
            </sourcetrack>
            <fielddominance>none</fielddominance>
          </clipitem>
          <clipitem id="A.png344">
            <name>A.png</name>
            <duration>2</duration>
            <rate>
              <ntsc>FALSE</ntsc>
              <timebase>25</timebase>
            </rate>
            <in>91282</in>
            <out>91284</out>
            <start>1282</start>
            <end>1284</end>
            <pixelaspectratio>Square</pixelaspectratio>
            <stillframe>TRUE</stillframe>
            <anamorphic>FALSE</anamorphic>
            <alphatype>straight</alphatype>
            <masterclipid>A.png344</masterclipid>
            <file id="A">
              <name>A.png</name>
              <pathurl>D:/Codes/SynthLip/SynthLipN/bin/Debug/net6.0-windows/Skin/template/A.png</pathurl>
              <rate>
                <ntsc>FALSE</ntsc>
                <timebase>25</timebase>
              </rate>
              <duration>2</duration>
              <width>1920</width>
              <height>1080</height>
              <media>
                <video>
                  <duration>2</duration>
                  <stillframe>TRUE</stillframe>
                  <samplecharacteristics>
                    <rate>
                      <ntsc>FALSE</ntsc>
                      <timebase>25</timebase>
                    </rate>
                    <width>1920</width>
                    <height>1080</height>
                    <pixelaspectratio>Square</pixelaspectratio>
                    <anamorphic>FALSE</anamorphic>
                  </samplecharacteristics>
                </video>
              </media>
            </file>
            <sourcetrack>
              <mediatype>video</mediatype>
            </sourcetrack>
            <fielddominance>none</fielddominance>
          </clipitem>
          <clipitem id="B.png343">
            <name>B.png</name>
            <duration>5</duration>
            <rate>
              <ntsc>FALSE</ntsc>
              <timebase>25</timebase>
            </rate>
            <in>91276</in>
            <out>91281</out>
            <start>1276</start>
            <end>1281</end>
            <pixelaspectratio>Square</pixelaspectratio>
            <stillframe>TRUE</stillframe>
            <anamorphic>FALSE</anamorphic>
            <alphatype>straight</alphatype>
            <masterclipid>B.png343</masterclipid>
            <file id="B">
              <name>B.png</name>
              <pathurl>D:/Codes/SynthLip/SynthLipN/bin/Debug/net6.0-windows/Skin/template/B.png</pathurl>
              <rate>
                <ntsc>FALSE</ntsc>
                <timebase>25</timebase>
              </rate>
              <duration>2</duration>
              <width>1920</width>
              <height>1080</height>
              <media>
                <video>
                  <duration>2</duration>
                  <stillframe>TRUE</stillframe>
                  <samplecharacteristics>
                    <rate>
                      <ntsc>FALSE</ntsc>
                      <timebase>25</timebase>
                    </rate>
                    <width>1920</width>
                    <height>1080</height>
                    <pixelaspectratio>Square</pixelaspectratio>
                    <anamorphic>FALSE</anamorphic>
                  </samplecharacteristics>
                </video>
              </media>
            </file>
            <sourcetrack>
              <mediatype>video</mediatype>
            </sourcetrack>
            <fielddominance>none</fielddominance>
          </clipitem>
          <clipitem id="A.png339">
            <name>A.png</name>
            <duration>3</duration>
            <rate>
              <ntsc>FALSE</ntsc>
              <timebase>25</timebase>
            </rate>
            <in>91271</in>
            <out>91274</out>
            <start>1271</start>
            <end>1274</end>
            <pixelaspectratio>Square</pixelaspectratio>
            <stillframe>TRUE</stillframe>
            <anamorphic>FALSE</anamorphic>
            <alphatype>straight</alphatype>
            <masterclipid>A.png339</masterclipid>
            <file id="A">
              <name>A.png</name>
              <pathurl>D:/Codes/SynthLip/SynthLipN/bin/Debug/net6.0-windows/Skin/template/A.png</pathurl>
              <rate>
                <ntsc>FALSE</ntsc>
                <timebase>25</timebase>
              </rate>
              <duration>2</duration>
              <width>1920</width>
              <height>1080</height>
              <media>
                <video>
                  <duration>2</duration>
                  <stillframe>TRUE</stillframe>
                  <samplecharacteristics>
                    <rate>
                      <ntsc>FALSE</ntsc>
                      <timebase>25</timebase>
                    </rate>
                    <width>1920</width>
                    <height>1080</height>
                    <pixelaspectratio>Square</pixelaspectratio>
                    <anamorphic>FALSE</anamorphic>
                  </samplecharacteristics>
                </video>
              </media>
            </file>
            <sourcetrack>
              <mediatype>video</mediatype>
            </sourcetrack>
            <fielddominance>none</fielddominance>
          </clipitem>
          <clipitem id="A.png338">
            <name>A.png</name>
            <duration>3</duration>
            <rate>
              <ntsc>FALSE</ntsc>
              <timebase>25</timebase>
            </rate>
            <in>91267</in>
            <out>91270</out>
            <start>1267</start>
            <end>1270</end>
            <pixelaspectratio>Square</pixelaspectratio>
            <stillframe>TRUE</stillframe>
            <anamorphic>FALSE</anamorphic>
            <alphatype>straight</alphatype>
            <masterclipid>A.png338</masterclipid>
            <file id="A">
              <name>A.png</name>
              <pathurl>D:/Codes/SynthLip/SynthLipN/bin/Debug/net6.0-windows/Skin/template/A.png</pathurl>
              <rate>
                <ntsc>FALSE</ntsc>
                <timebase>25</timebase>
              </rate>
              <duration>2</duration>
              <width>1920</width>
              <height>1080</height>
              <media>
                <video>
                  <duration>2</duration>
                  <stillframe>TRUE</stillframe>
                  <samplecharacteristics>
                    <rate>
                      <ntsc>FALSE</ntsc>
                      <timebase>25</timebase>
                    </rate>
                    <width>1920</width>
                    <height>1080</height>
                    <pixelaspectratio>Square</pixelaspectratio>
                    <anamorphic>FALSE</anamorphic>
                  </samplecharacteristics>
                </video>
              </media>
            </file>
            <sourcetrack>
              <mediatype>video</mediatype>
            </sourcetrack>
            <fielddominance>none</fielddominance>
          </clipitem>
          <clipitem id="H.png337">
            <name>H.png</name>
            <duration>5</duration>
            <rate>
              <ntsc>FALSE</ntsc>
              <timebase>25</timebase>
            </rate>
            <in>91261</in>
            <out>91266</out>
            <start>1261</start>
            <end>1266</end>
            <pixelaspectratio>Square</pixelaspectratio>
            <stillframe>TRUE</stillframe>
            <anamorphic>FALSE</anamorphic>
            <alphatype>straight</alphatype>
            <masterclipid>H.png337</masterclipid>
            <file id="H">
              <name>H.png</name>
              <pathurl>D:/Codes/SynthLip/SynthLipN/bin/Debug/net6.0-windows/Skin/template/H.png</pathurl>
              <rate>
                <ntsc>FALSE</ntsc>
                <timebase>25</timebase>
              </rate>
              <duration>2</duration>
              <width>1920</width>
              <height>1080</height>
              <media>
                <video>
                  <duration>2</duration>
                  <stillframe>TRUE</stillframe>
                  <samplecharacteristics>
                    <rate>
                      <ntsc>FALSE</ntsc>
                      <timebase>25</timebase>
                    </rate>
                    <width>1920</width>
                    <height>1080</height>
                    <pixelaspectratio>Square</pixelaspectratio>
                    <anamorphic>FALSE</anamorphic>
                  </samplecharacteristics>
                </video>
              </media>
            </file>
            <sourcetrack>
              <mediatype>video</mediatype>
            </sourcetrack>
            <fielddominance>none</fielddominance>
          </clipitem>
          <clipitem id="A.png333">
            <name>A.png</name>
            <duration>3</duration>
            <rate>
              <ntsc>FALSE</ntsc>
              <timebase>25</timebase>
            </rate>
            <in>91256</in>
            <out>91259</out>
            <start>1256</start>
            <end>1259</end>
            <pixelaspectratio>Square</pixelaspectratio>
            <stillframe>TRUE</stillframe>
            <anamorphic>FALSE</anamorphic>
            <alphatype>straight</alphatype>
            <masterclipid>A.png333</masterclipid>
            <file id="A">
              <name>A.png</name>
              <pathurl>D:/Codes/SynthLip/SynthLipN/bin/Debug/net6.0-windows/Skin/template/A.png</pathurl>
              <rate>
                <ntsc>FALSE</ntsc>
                <timebase>25</timebase>
              </rate>
              <duration>2</duration>
              <width>1920</width>
              <height>1080</height>
              <media>
                <video>
                  <duration>2</duration>
                  <stillframe>TRUE</stillframe>
                  <samplecharacteristics>
                    <rate>
                      <ntsc>FALSE</ntsc>
                      <timebase>25</timebase>
                    </rate>
                    <width>1920</width>
                    <height>1080</height>
                    <pixelaspectratio>Square</pixelaspectratio>
                    <anamorphic>FALSE</anamorphic>
                  </samplecharacteristics>
                </video>
              </media>
            </file>
            <sourcetrack>
              <mediatype>video</mediatype>
            </sourcetrack>
            <fielddominance>none</fielddominance>
          </clipitem>
          <clipitem id="B.png332">
            <name>B.png</name>
            <duration>11</duration>
            <rate>
              <ntsc>FALSE</ntsc>
              <timebase>25</timebase>
            </rate>
            <in>91245</in>
            <out>91256</out>
            <start>1245</start>
            <end>1256</end>
            <pixelaspectratio>Square</pixelaspectratio>
            <stillframe>TRUE</stillframe>
            <anamorphic>FALSE</anamorphic>
            <alphatype>straight</alphatype>
            <masterclipid>B.png332</masterclipid>
            <file id="B">
              <name>B.png</name>
              <pathurl>D:/Codes/SynthLip/SynthLipN/bin/Debug/net6.0-windows/Skin/template/B.png</pathurl>
              <rate>
                <ntsc>FALSE</ntsc>
                <timebase>25</timebase>
              </rate>
              <duration>2</duration>
              <width>1920</width>
              <height>1080</height>
              <media>
                <video>
                  <duration>2</duration>
                  <stillframe>TRUE</stillframe>
                  <samplecharacteristics>
                    <rate>
                      <ntsc>FALSE</ntsc>
                      <timebase>25</timebase>
                    </rate>
                    <width>1920</width>
                    <height>1080</height>
                    <pixelaspectratio>Square</pixelaspectratio>
                    <anamorphic>FALSE</anamorphic>
                  </samplecharacteristics>
                </video>
              </media>
            </file>
            <sourcetrack>
              <mediatype>video</mediatype>
            </sourcetrack>
            <fielddominance>none</fielddominance>
          </clipitem>
          <clipitem id="A.png331">
            <name>A.png</name>
            <duration>3</duration>
            <rate>
              <ntsc>FALSE</ntsc>
              <timebase>25</timebase>
            </rate>
            <in>91241</in>
            <out>91244</out>
            <start>1241</start>
            <end>1244</end>
            <pixelaspectratio>Square</pixelaspectratio>
            <stillframe>TRUE</stillframe>
            <anamorphic>FALSE</anamorphic>
            <alphatype>straight</alphatype>
            <masterclipid>A.png331</masterclipid>
            <file id="A">
              <name>A.png</name>
              <pathurl>D:/Codes/SynthLip/SynthLipN/bin/Debug/net6.0-windows/Skin/template/A.png</pathurl>
              <rate>
                <ntsc>FALSE</ntsc>
                <timebase>25</timebase>
              </rate>
              <duration>2</duration>
              <width>1920</width>
              <height>1080</height>
              <media>
                <video>
                  <duration>2</duration>
                  <stillframe>TRUE</stillframe>
                  <samplecharacteristics>
                    <rate>
                      <ntsc>FALSE</ntsc>
                      <timebase>25</timebase>
                    </rate>
                    <width>1920</width>
                    <height>1080</height>
                    <pixelaspectratio>Square</pixelaspectratio>
                    <anamorphic>FALSE</anamorphic>
                  </samplecharacteristics>
                </video>
              </media>
            </file>
            <sourcetrack>
              <mediatype>video</mediatype>
            </sourcetrack>
            <fielddominance>none</fielddominance>
          </clipitem>
          <clipitem id="C.png330">
            <name>C.png</name>
            <duration>3</duration>
            <rate>
              <ntsc>FALSE</ntsc>
              <timebase>25</timebase>
            </rate>
            <in>91237</in>
            <out>91240</out>
            <start>1237</start>
            <end>1240</end>
            <pixelaspectratio>Square</pixelaspectratio>
            <stillframe>TRUE</stillframe>
            <anamorphic>FALSE</anamorphic>
            <alphatype>straight</alphatype>
            <masterclipid>C.png330</masterclipid>
            <file id="C">
              <name>C.png</name>
              <pathurl>D:/Codes/SynthLip/SynthLipN/bin/Debug/net6.0-windows/Skin/template/C.png</pathurl>
              <rate>
                <ntsc>FALSE</ntsc>
                <timebase>25</timebase>
              </rate>
              <duration>2</duration>
              <width>1920</width>
              <height>1080</height>
              <media>
                <video>
                  <duration>2</duration>
                  <stillframe>TRUE</stillframe>
                  <samplecharacteristics>
                    <rate>
                      <ntsc>FALSE</ntsc>
                      <timebase>25</timebase>
                    </rate>
                    <width>1920</width>
                    <height>1080</height>
                    <pixelaspectratio>Square</pixelaspectratio>
                    <anamorphic>FALSE</anamorphic>
                  </samplecharacteristics>
                </video>
              </media>
            </file>
            <sourcetrack>
              <mediatype>video</mediatype>
            </sourcetrack>
            <fielddominance>none</fielddominance>
          </clipitem>
          <clipitem id="B.png329">
            <name>B.png</name>
            <duration>3</duration>
            <rate>
              <ntsc>FALSE</ntsc>
              <timebase>25</timebase>
            </rate>
            <in>91233</in>
            <out>91236</out>
            <start>1233</start>
            <end>1236</end>
            <pixelaspectratio>Square</pixelaspectratio>
            <stillframe>TRUE</stillframe>
            <anamorphic>FALSE</anamorphic>
            <alphatype>straight</alphatype>
            <masterclipid>B.png329</masterclipid>
            <file id="B">
              <name>B.png</name>
              <pathurl>D:/Codes/SynthLip/SynthLipN/bin/Debug/net6.0-windows/Skin/template/B.png</pathurl>
              <rate>
                <ntsc>FALSE</ntsc>
                <timebase>25</timebase>
              </rate>
              <duration>2</duration>
              <width>1920</width>
              <height>1080</height>
              <media>
                <video>
                  <duration>2</duration>
                  <stillframe>TRUE</stillframe>
                  <samplecharacteristics>
                    <rate>
                      <ntsc>FALSE</ntsc>
                      <timebase>25</timebase>
                    </rate>
                    <width>1920</width>
                    <height>1080</height>
                    <pixelaspectratio>Square</pixelaspectratio>
                    <anamorphic>FALSE</anamorphic>
                  </samplecharacteristics>
                </video>
              </media>
            </file>
            <sourcetrack>
              <mediatype>video</mediatype>
            </sourcetrack>
            <fielddominance>none</fielddominance>
          </clipitem>
          <clipitem id="B.png328">
            <name>B.png</name>
            <duration>3</duration>
            <rate>
              <ntsc>FALSE</ntsc>
              <timebase>25</timebase>
            </rate>
            <in>91230</in>
            <out>91233</out>
            <start>1230</start>
            <end>1233</end>
            <pixelaspectratio>Square</pixelaspectratio>
            <stillframe>TRUE</stillframe>
            <anamorphic>FALSE</anamorphic>
            <alphatype>straight</alphatype>
            <masterclipid>B.png328</masterclipid>
            <file id="B">
              <name>B.png</name>
              <pathurl>D:/Codes/SynthLip/SynthLipN/bin/Debug/net6.0-windows/Skin/template/B.png</pathurl>
              <rate>
                <ntsc>FALSE</ntsc>
                <timebase>25</timebase>
              </rate>
              <duration>2</duration>
              <width>1920</width>
              <height>1080</height>
              <media>
                <video>
                  <duration>2</duration>
                  <stillframe>TRUE</stillframe>
                  <samplecharacteristics>
                    <rate>
                      <ntsc>FALSE</ntsc>
                      <timebase>25</timebase>
                    </rate>
                    <width>1920</width>
                    <height>1080</height>
                    <pixelaspectratio>Square</pixelaspectratio>
                    <anamorphic>FALSE</anamorphic>
                  </samplecharacteristics>
                </video>
              </media>
            </file>
            <sourcetrack>
              <mediatype>video</mediatype>
            </sourcetrack>
            <fielddominance>none</fielddominance>
          </clipitem>
          <clipitem id="C.png327">
            <name>C.png</name>
            <duration>2</duration>
            <rate>
              <ntsc>FALSE</ntsc>
              <timebase>25</timebase>
            </rate>
            <in>91227</in>
            <out>91229</out>
            <start>1227</start>
            <end>1229</end>
            <pixelaspectratio>Square</pixelaspectratio>
            <stillframe>TRUE</stillframe>
            <anamorphic>FALSE</anamorphic>
            <alphatype>straight</alphatype>
            <masterclipid>C.png327</masterclipid>
            <file id="C">
              <name>C.png</name>
              <pathurl>D:/Codes/SynthLip/SynthLipN/bin/Debug/net6.0-windows/Skin/template/C.png</pathurl>
              <rate>
                <ntsc>FALSE</ntsc>
                <timebase>25</timebase>
              </rate>
              <duration>2</duration>
              <width>1920</width>
              <height>1080</height>
              <media>
                <video>
                  <duration>2</duration>
                  <stillframe>TRUE</stillframe>
                  <samplecharacteristics>
                    <rate>
                      <ntsc>FALSE</ntsc>
                      <timebase>25</timebase>
                    </rate>
                    <width>1920</width>
                    <height>1080</height>
                    <pixelaspectratio>Square</pixelaspectratio>
                    <anamorphic>FALSE</anamorphic>
                  </samplecharacteristics>
                </video>
              </media>
            </file>
            <sourcetrack>
              <mediatype>video</mediatype>
            </sourcetrack>
            <fielddominance>none</fielddominance>
          </clipitem>
          <clipitem id="F.png326">
            <name>F.png</name>
            <duration>2</duration>
            <rate>
              <ntsc>FALSE</ntsc>
              <timebase>25</timebase>
            </rate>
            <in>91225</in>
            <out>91227</out>
            <start>1225</start>
            <end>1227</end>
            <pixelaspectratio>Square</pixelaspectratio>
            <stillframe>TRUE</stillframe>
            <anamorphic>FALSE</anamorphic>
            <alphatype>straight</alphatype>
            <masterclipid>F.png326</masterclipid>
            <file id="F">
              <name>F.png</name>
              <pathurl>D:/Codes/SynthLip/SynthLipN/bin/Debug/net6.0-windows/Skin/template/F.png</pathurl>
              <rate>
                <ntsc>FALSE</ntsc>
                <timebase>25</timebase>
              </rate>
              <duration>2</duration>
              <width>1920</width>
              <height>1080</height>
              <media>
                <video>
                  <duration>2</duration>
                  <stillframe>TRUE</stillframe>
                  <samplecharacteristics>
                    <rate>
                      <ntsc>FALSE</ntsc>
                      <timebase>25</timebase>
                    </rate>
                    <width>1920</width>
                    <height>1080</height>
                    <pixelaspectratio>Square</pixelaspectratio>
                    <anamorphic>FALSE</anamorphic>
                  </samplecharacteristics>
                </video>
              </media>
            </file>
            <sourcetrack>
              <mediatype>video</mediatype>
            </sourcetrack>
            <fielddominance>none</fielddominance>
          </clipitem>
          <clipitem id="A.png325">
            <name>A.png</name>
            <duration>2</duration>
            <rate>
              <ntsc>FALSE</ntsc>
              <timebase>25</timebase>
            </rate>
            <in>91222</in>
            <out>91224</out>
            <start>1222</start>
            <end>1224</end>
            <pixelaspectratio>Square</pixelaspectratio>
            <stillframe>TRUE</stillframe>
            <anamorphic>FALSE</anamorphic>
            <alphatype>straight</alphatype>
            <masterclipid>A.png325</masterclipid>
            <file id="A">
              <name>A.png</name>
              <pathurl>D:/Codes/SynthLip/SynthLipN/bin/Debug/net6.0-windows/Skin/template/A.png</pathurl>
              <rate>
                <ntsc>FALSE</ntsc>
                <timebase>25</timebase>
              </rate>
              <duration>2</duration>
              <width>1920</width>
              <height>1080</height>
              <media>
                <video>
                  <duration>2</duration>
                  <stillframe>TRUE</stillframe>
                  <samplecharacteristics>
                    <rate>
                      <ntsc>FALSE</ntsc>
                      <timebase>25</timebase>
                    </rate>
                    <width>1920</width>
                    <height>1080</height>
                    <pixelaspectratio>Square</pixelaspectratio>
                    <anamorphic>FALSE</anamorphic>
                  </samplecharacteristics>
                </video>
              </media>
            </file>
            <sourcetrack>
              <mediatype>video</mediatype>
            </sourcetrack>
            <fielddominance>none</fielddominance>
          </clipitem>
          <clipitem id="G.png324">
            <name>G.png</name>
            <duration>5</duration>
            <rate>
              <ntsc>FALSE</ntsc>
              <timebase>25</timebase>
            </rate>
            <in>91216</in>
            <out>91221</out>
            <start>1216</start>
            <end>1221</end>
            <pixelaspectratio>Square</pixelaspectratio>
            <stillframe>TRUE</stillframe>
            <anamorphic>FALSE</anamorphic>
            <alphatype>straight</alphatype>
            <masterclipid>G.png324</masterclipid>
            <file id="G">
              <name>G.png</name>
              <pathurl>D:/Codes/SynthLip/SynthLipN/bin/Debug/net6.0-windows/Skin/template/G.png</pathurl>
              <rate>
                <ntsc>FALSE</ntsc>
                <timebase>25</timebase>
              </rate>
              <duration>2</duration>
              <width>1920</width>
              <height>1080</height>
              <media>
                <video>
                  <duration>2</duration>
                  <stillframe>TRUE</stillframe>
                  <samplecharacteristics>
                    <rate>
                      <ntsc>FALSE</ntsc>
                      <timebase>25</timebase>
                    </rate>
                    <width>1920</width>
                    <height>1080</height>
                    <pixelaspectratio>Square</pixelaspectratio>
                    <anamorphic>FALSE</anamorphic>
                  </samplecharacteristics>
                </video>
              </media>
            </file>
            <sourcetrack>
              <mediatype>video</mediatype>
            </sourcetrack>
            <fielddominance>none</fielddominance>
          </clipitem>
          <clipitem id="B.png321">
            <name>B.png</name>
            <duration>1</duration>
            <rate>
              <ntsc>FALSE</ntsc>
              <timebase>25</timebase>
            </rate>
            <in>91213</in>
            <out>91214</out>
            <start>1213</start>
            <end>1214</end>
            <pixelaspectratio>Square</pixelaspectratio>
            <stillframe>TRUE</stillframe>
            <anamorphic>FALSE</anamorphic>
            <alphatype>straight</alphatype>
            <masterclipid>B.png321</masterclipid>
            <file id="B">
              <name>B.png</name>
              <pathurl>D:/Codes/SynthLip/SynthLipN/bin/Debug/net6.0-windows/Skin/template/B.png</pathurl>
              <rate>
                <ntsc>FALSE</ntsc>
                <timebase>25</timebase>
              </rate>
              <duration>2</duration>
              <width>1920</width>
              <height>1080</height>
              <media>
                <video>
                  <duration>2</duration>
                  <stillframe>TRUE</stillframe>
                  <samplecharacteristics>
                    <rate>
                      <ntsc>FALSE</ntsc>
                      <timebase>25</timebase>
                    </rate>
                    <width>1920</width>
                    <height>1080</height>
                    <pixelaspectratio>Square</pixelaspectratio>
                    <anamorphic>FALSE</anamorphic>
                  </samplecharacteristics>
                </video>
              </media>
            </file>
            <sourcetrack>
              <mediatype>video</mediatype>
            </sourcetrack>
            <fielddominance>none</fielddominance>
          </clipitem>
          <clipitem id="C.png320">
            <name>C.png</name>
            <duration>1</duration>
            <rate>
              <ntsc>FALSE</ntsc>
              <timebase>25</timebase>
            </rate>
            <in>91211</in>
            <out>91212</out>
            <start>1211</start>
            <end>1212</end>
            <pixelaspectratio>Square</pixelaspectratio>
            <stillframe>TRUE</stillframe>
            <anamorphic>FALSE</anamorphic>
            <alphatype>straight</alphatype>
            <masterclipid>C.png320</masterclipid>
            <file id="C">
              <name>C.png</name>
              <pathurl>D:/Codes/SynthLip/SynthLipN/bin/Debug/net6.0-windows/Skin/template/C.png</pathurl>
              <rate>
                <ntsc>FALSE</ntsc>
                <timebase>25</timebase>
              </rate>
              <duration>2</duration>
              <width>1920</width>
              <height>1080</height>
              <media>
                <video>
                  <duration>2</duration>
                  <stillframe>TRUE</stillframe>
                  <samplecharacteristics>
                    <rate>
                      <ntsc>FALSE</ntsc>
                      <timebase>25</timebase>
                    </rate>
                    <width>1920</width>
                    <height>1080</height>
                    <pixelaspectratio>Square</pixelaspectratio>
                    <anamorphic>FALSE</anamorphic>
                  </samplecharacteristics>
                </video>
              </media>
            </file>
            <sourcetrack>
              <mediatype>video</mediatype>
            </sourcetrack>
            <fielddominance>none</fielddominance>
          </clipitem>
          <clipitem id="B.png319">
            <name>B.png</name>
            <duration>1</duration>
            <rate>
              <ntsc>FALSE</ntsc>
              <timebase>25</timebase>
            </rate>
            <in>91209</in>
            <out>91210</out>
            <start>1209</start>
            <end>1210</end>
            <pixelaspectratio>Square</pixelaspectratio>
            <stillframe>TRUE</stillframe>
            <anamorphic>FALSE</anamorphic>
            <alphatype>straight</alphatype>
            <masterclipid>B.png319</masterclipid>
            <file id="B">
              <name>B.png</name>
              <pathurl>D:/Codes/SynthLip/SynthLipN/bin/Debug/net6.0-windows/Skin/template/B.png</pathurl>
              <rate>
                <ntsc>FALSE</ntsc>
                <timebase>25</timebase>
              </rate>
              <duration>2</duration>
              <width>1920</width>
              <height>1080</height>
              <media>
                <video>
                  <duration>2</duration>
                  <stillframe>TRUE</stillframe>
                  <samplecharacteristics>
                    <rate>
                      <ntsc>FALSE</ntsc>
                      <timebase>25</timebase>
                    </rate>
                    <width>1920</width>
                    <height>1080</height>
                    <pixelaspectratio>Square</pixelaspectratio>
                    <anamorphic>FALSE</anamorphic>
                  </samplecharacteristics>
                </video>
              </media>
            </file>
            <sourcetrack>
              <mediatype>video</mediatype>
            </sourcetrack>
            <fielddominance>none</fielddominance>
          </clipitem>
          <clipitem id="C.png318">
            <name>C.png</name>
            <duration>1</duration>
            <rate>
              <ntsc>FALSE</ntsc>
              <timebase>25</timebase>
            </rate>
            <in>91207</in>
            <out>91208</out>
            <start>1207</start>
            <end>1208</end>
            <pixelaspectratio>Square</pixelaspectratio>
            <stillframe>TRUE</stillframe>
            <anamorphic>FALSE</anamorphic>
            <alphatype>straight</alphatype>
            <masterclipid>C.png318</masterclipid>
            <file id="C">
              <name>C.png</name>
              <pathurl>D:/Codes/SynthLip/SynthLipN/bin/Debug/net6.0-windows/Skin/template/C.png</pathurl>
              <rate>
                <ntsc>FALSE</ntsc>
                <timebase>25</timebase>
              </rate>
              <duration>2</duration>
              <width>1920</width>
              <height>1080</height>
              <media>
                <video>
                  <duration>2</duration>
                  <stillframe>TRUE</stillframe>
                  <samplecharacteristics>
                    <rate>
                      <ntsc>FALSE</ntsc>
                      <timebase>25</timebase>
                    </rate>
                    <width>1920</width>
                    <height>1080</height>
                    <pixelaspectratio>Square</pixelaspectratio>
                    <anamorphic>FALSE</anamorphic>
                  </samplecharacteristics>
                </video>
              </media>
            </file>
            <sourcetrack>
              <mediatype>video</mediatype>
            </sourcetrack>
            <fielddominance>none</fielddominance>
          </clipitem>
          <clipitem id="C.png317">
            <name>C.png</name>
            <duration>7</duration>
            <rate>
              <ntsc>FALSE</ntsc>
              <timebase>25</timebase>
            </rate>
            <in>91200</in>
            <out>91207</out>
            <start>1200</start>
            <end>1207</end>
            <pixelaspectratio>Square</pixelaspectratio>
            <stillframe>TRUE</stillframe>
            <anamorphic>FALSE</anamorphic>
            <alphatype>straight</alphatype>
            <masterclipid>C.png317</masterclipid>
            <file id="C">
              <name>C.png</name>
              <pathurl>D:/Codes/SynthLip/SynthLipN/bin/Debug/net6.0-windows/Skin/template/C.png</pathurl>
              <rate>
                <ntsc>FALSE</ntsc>
                <timebase>25</timebase>
              </rate>
              <duration>2</duration>
              <width>1920</width>
              <height>1080</height>
              <media>
                <video>
                  <duration>2</duration>
                  <stillframe>TRUE</stillframe>
                  <samplecharacteristics>
                    <rate>
                      <ntsc>FALSE</ntsc>
                      <timebase>25</timebase>
                    </rate>
                    <width>1920</width>
                    <height>1080</height>
                    <pixelaspectratio>Square</pixelaspectratio>
                    <anamorphic>FALSE</anamorphic>
                  </samplecharacteristics>
                </video>
              </media>
            </file>
            <sourcetrack>
              <mediatype>video</mediatype>
            </sourcetrack>
            <fielddominance>none</fielddominance>
          </clipitem>
          <clipitem id="B.png316">
            <name>B.png</name>
            <duration>3</duration>
            <rate>
              <ntsc>FALSE</ntsc>
              <timebase>25</timebase>
            </rate>
            <in>91196</in>
            <out>91199</out>
            <start>1196</start>
            <end>1199</end>
            <pixelaspectratio>Square</pixelaspectratio>
            <stillframe>TRUE</stillframe>
            <anamorphic>FALSE</anamorphic>
            <alphatype>straight</alphatype>
            <masterclipid>B.png316</masterclipid>
            <file id="B">
              <name>B.png</name>
              <pathurl>D:/Codes/SynthLip/SynthLipN/bin/Debug/net6.0-windows/Skin/template/B.png</pathurl>
              <rate>
                <ntsc>FALSE</ntsc>
                <timebase>25</timebase>
              </rate>
              <duration>2</duration>
              <width>1920</width>
              <height>1080</height>
              <media>
                <video>
                  <duration>2</duration>
                  <stillframe>TRUE</stillframe>
                  <samplecharacteristics>
                    <rate>
                      <ntsc>FALSE</ntsc>
                      <timebase>25</timebase>
                    </rate>
                    <width>1920</width>
                    <height>1080</height>
                    <pixelaspectratio>Square</pixelaspectratio>
                    <anamorphic>FALSE</anamorphic>
                  </samplecharacteristics>
                </video>
              </media>
            </file>
            <sourcetrack>
              <mediatype>video</mediatype>
            </sourcetrack>
            <fielddominance>none</fielddominance>
          </clipitem>
          <clipitem id="A.png315">
            <name>A.png</name>
            <duration>3</duration>
            <rate>
              <ntsc>FALSE</ntsc>
              <timebase>25</timebase>
            </rate>
            <in>91192</in>
            <out>91195</out>
            <start>1192</start>
            <end>1195</end>
            <pixelaspectratio>Square</pixelaspectratio>
            <stillframe>TRUE</stillframe>
            <anamorphic>FALSE</anamorphic>
            <alphatype>straight</alphatype>
            <masterclipid>A.png315</masterclipid>
            <file id="A">
              <name>A.png</name>
              <pathurl>D:/Codes/SynthLip/SynthLipN/bin/Debug/net6.0-windows/Skin/template/A.png</pathurl>
              <rate>
                <ntsc>FALSE</ntsc>
                <timebase>25</timebase>
              </rate>
              <duration>2</duration>
              <width>1920</width>
              <height>1080</height>
              <media>
                <video>
                  <duration>2</duration>
                  <stillframe>TRUE</stillframe>
                  <samplecharacteristics>
                    <rate>
                      <ntsc>FALSE</ntsc>
                      <timebase>25</timebase>
                    </rate>
                    <width>1920</width>
                    <height>1080</height>
                    <pixelaspectratio>Square</pixelaspectratio>
                    <anamorphic>FALSE</anamorphic>
                  </samplecharacteristics>
                </video>
              </media>
            </file>
            <sourcetrack>
              <mediatype>video</mediatype>
            </sourcetrack>
            <fielddominance>none</fielddominance>
          </clipitem>
          <clipitem id="C.png314">
            <name>C.png</name>
            <duration>5</duration>
            <rate>
              <ntsc>FALSE</ntsc>
              <timebase>25</timebase>
            </rate>
            <in>91186</in>
            <out>91191</out>
            <start>1186</start>
            <end>1191</end>
            <pixelaspectratio>Square</pixelaspectratio>
            <stillframe>TRUE</stillframe>
            <anamorphic>FALSE</anamorphic>
            <alphatype>straight</alphatype>
            <masterclipid>C.png314</masterclipid>
            <file id="C">
              <name>C.png</name>
              <pathurl>D:/Codes/SynthLip/SynthLipN/bin/Debug/net6.0-windows/Skin/template/C.png</pathurl>
              <rate>
                <ntsc>FALSE</ntsc>
                <timebase>25</timebase>
              </rate>
              <duration>2</duration>
              <width>1920</width>
              <height>1080</height>
              <media>
                <video>
                  <duration>2</duration>
                  <stillframe>TRUE</stillframe>
                  <samplecharacteristics>
                    <rate>
                      <ntsc>FALSE</ntsc>
                      <timebase>25</timebase>
                    </rate>
                    <width>1920</width>
                    <height>1080</height>
                    <pixelaspectratio>Square</pixelaspectratio>
                    <anamorphic>FALSE</anamorphic>
                  </samplecharacteristics>
                </video>
              </media>
            </file>
            <sourcetrack>
              <mediatype>video</mediatype>
            </sourcetrack>
            <fielddominance>none</fielddominance>
          </clipitem>
          <clipitem id="B.png311">
            <name>B.png</name>
            <duration>3</duration>
            <rate>
              <ntsc>FALSE</ntsc>
              <timebase>25</timebase>
            </rate>
            <in>91181</in>
            <out>91184</out>
            <start>1181</start>
            <end>1184</end>
            <pixelaspectratio>Square</pixelaspectratio>
            <stillframe>TRUE</stillframe>
            <anamorphic>FALSE</anamorphic>
            <alphatype>straight</alphatype>
            <masterclipid>B.png311</masterclipid>
            <file id="B">
              <name>B.png</name>
              <pathurl>D:/Codes/SynthLip/SynthLipN/bin/Debug/net6.0-windows/Skin/template/B.png</pathurl>
              <rate>
                <ntsc>FALSE</ntsc>
                <timebase>25</timebase>
              </rate>
              <duration>2</duration>
              <width>1920</width>
              <height>1080</height>
              <media>
                <video>
                  <duration>2</duration>
                  <stillframe>TRUE</stillframe>
                  <samplecharacteristics>
                    <rate>
                      <ntsc>FALSE</ntsc>
                      <timebase>25</timebase>
                    </rate>
                    <width>1920</width>
                    <height>1080</height>
                    <pixelaspectratio>Square</pixelaspectratio>
                    <anamorphic>FALSE</anamorphic>
                  </samplecharacteristics>
                </video>
              </media>
            </file>
            <sourcetrack>
              <mediatype>video</mediatype>
            </sourcetrack>
            <fielddominance>none</fielddominance>
          </clipitem>
          <clipitem id="A.png310">
            <name>A.png</name>
            <duration>3</duration>
            <rate>
              <ntsc>FALSE</ntsc>
              <timebase>25</timebase>
            </rate>
            <in>91177</in>
            <out>91180</out>
            <start>1177</start>
            <end>1180</end>
            <pixelaspectratio>Square</pixelaspectratio>
            <stillframe>TRUE</stillframe>
            <anamorphic>FALSE</anamorphic>
            <alphatype>straight</alphatype>
            <masterclipid>A.png310</masterclipid>
            <file id="A">
              <name>A.png</name>
              <pathurl>D:/Codes/SynthLip/SynthLipN/bin/Debug/net6.0-windows/Skin/template/A.png</pathurl>
              <rate>
                <ntsc>FALSE</ntsc>
                <timebase>25</timebase>
              </rate>
              <duration>2</duration>
              <width>1920</width>
              <height>1080</height>
              <media>
                <video>
                  <duration>2</duration>
                  <stillframe>TRUE</stillframe>
                  <samplecharacteristics>
                    <rate>
                      <ntsc>FALSE</ntsc>
                      <timebase>25</timebase>
                    </rate>
                    <width>1920</width>
                    <height>1080</height>
                    <pixelaspectratio>Square</pixelaspectratio>
                    <anamorphic>FALSE</anamorphic>
                  </samplecharacteristics>
                </video>
              </media>
            </file>
            <sourcetrack>
              <mediatype>video</mediatype>
            </sourcetrack>
            <fielddominance>none</fielddominance>
          </clipitem>
          <clipitem id="F.png309">
            <name>F.png</name>
            <duration>5</duration>
            <rate>
              <ntsc>FALSE</ntsc>
              <timebase>25</timebase>
            </rate>
            <in>91171</in>
            <out>91176</out>
            <start>1171</start>
            <end>1176</end>
            <pixelaspectratio>Square</pixelaspectratio>
            <stillframe>TRUE</stillframe>
            <anamorphic>FALSE</anamorphic>
            <alphatype>straight</alphatype>
            <masterclipid>F.png309</masterclipid>
            <file id="F">
              <name>F.png</name>
              <pathurl>D:/Codes/SynthLip/SynthLipN/bin/Debug/net6.0-windows/Skin/template/F.png</pathurl>
              <rate>
                <ntsc>FALSE</ntsc>
                <timebase>25</timebase>
              </rate>
              <duration>2</duration>
              <width>1920</width>
              <height>1080</height>
              <media>
                <video>
                  <duration>2</duration>
                  <stillframe>TRUE</stillframe>
                  <samplecharacteristics>
                    <rate>
                      <ntsc>FALSE</ntsc>
                      <timebase>25</timebase>
                    </rate>
                    <width>1920</width>
                    <height>1080</height>
                    <pixelaspectratio>Square</pixelaspectratio>
                    <anamorphic>FALSE</anamorphic>
                  </samplecharacteristics>
                </video>
              </media>
            </file>
            <sourcetrack>
              <mediatype>video</mediatype>
            </sourcetrack>
            <fielddominance>none</fielddominance>
          </clipitem>
          <clipitem id="G.png305">
            <name>G.png</name>
            <duration>3</duration>
            <rate>
              <ntsc>FALSE</ntsc>
              <timebase>25</timebase>
            </rate>
            <in>91166</in>
            <out>91169</out>
            <start>1166</start>
            <end>1169</end>
            <pixelaspectratio>Square</pixelaspectratio>
            <stillframe>TRUE</stillframe>
            <anamorphic>FALSE</anamorphic>
            <alphatype>straight</alphatype>
            <masterclipid>G.png305</masterclipid>
            <file id="G">
              <name>G.png</name>
              <pathurl>D:/Codes/SynthLip/SynthLipN/bin/Debug/net6.0-windows/Skin/template/G.png</pathurl>
              <rate>
                <ntsc>FALSE</ntsc>
                <timebase>25</timebase>
              </rate>
              <duration>2</duration>
              <width>1920</width>
              <height>1080</height>
              <media>
                <video>
                  <duration>2</duration>
                  <stillframe>TRUE</stillframe>
                  <samplecharacteristics>
                    <rate>
                      <ntsc>FALSE</ntsc>
                      <timebase>25</timebase>
                    </rate>
                    <width>1920</width>
                    <height>1080</height>
                    <pixelaspectratio>Square</pixelaspectratio>
                    <anamorphic>FALSE</anamorphic>
                  </samplecharacteristics>
                </video>
              </media>
            </file>
            <sourcetrack>
              <mediatype>video</mediatype>
            </sourcetrack>
            <fielddominance>none</fielddominance>
          </clipitem>
          <clipitem id="C.png300">
            <name>C.png</name>
            <duration>5</duration>
            <rate>
              <ntsc>FALSE</ntsc>
              <timebase>25</timebase>
            </rate>
            <in>91156</in>
            <out>91161</out>
            <start>1156</start>
            <end>1161</end>
            <pixelaspectratio>Square</pixelaspectratio>
            <stillframe>TRUE</stillframe>
            <anamorphic>FALSE</anamorphic>
            <alphatype>straight</alphatype>
            <masterclipid>C.png300</masterclipid>
            <file id="C">
              <name>C.png</name>
              <pathurl>D:/Codes/SynthLip/SynthLipN/bin/Debug/net6.0-windows/Skin/template/C.png</pathurl>
              <rate>
                <ntsc>FALSE</ntsc>
                <timebase>25</timebase>
              </rate>
              <duration>2</duration>
              <width>1920</width>
              <height>1080</height>
              <media>
                <video>
                  <duration>2</duration>
                  <stillframe>TRUE</stillframe>
                  <samplecharacteristics>
                    <rate>
                      <ntsc>FALSE</ntsc>
                      <timebase>25</timebase>
                    </rate>
                    <width>1920</width>
                    <height>1080</height>
                    <pixelaspectratio>Square</pixelaspectratio>
                    <anamorphic>FALSE</anamorphic>
                  </samplecharacteristics>
                </video>
              </media>
            </file>
            <sourcetrack>
              <mediatype>video</mediatype>
            </sourcetrack>
            <fielddominance>none</fielddominance>
          </clipitem>
          <clipitem id="B.png299">
            <name>B.png</name>
            <duration>31</duration>
            <rate>
              <ntsc>FALSE</ntsc>
              <timebase>25</timebase>
            </rate>
            <in>91125</in>
            <out>91156</out>
            <start>1125</start>
            <end>1156</end>
            <pixelaspectratio>Square</pixelaspectratio>
            <stillframe>TRUE</stillframe>
            <anamorphic>FALSE</anamorphic>
            <alphatype>straight</alphatype>
            <masterclipid>B.png299</masterclipid>
            <file id="B">
              <name>B.png</name>
              <pathurl>D:/Codes/SynthLip/SynthLipN/bin/Debug/net6.0-windows/Skin/template/B.png</pathurl>
              <rate>
                <ntsc>FALSE</ntsc>
                <timebase>25</timebase>
              </rate>
              <duration>2</duration>
              <width>1920</width>
              <height>1080</height>
              <media>
                <video>
                  <duration>2</duration>
                  <stillframe>TRUE</stillframe>
                  <samplecharacteristics>
                    <rate>
                      <ntsc>FALSE</ntsc>
                      <timebase>25</timebase>
                    </rate>
                    <width>1920</width>
                    <height>1080</height>
                    <pixelaspectratio>Square</pixelaspectratio>
                    <anamorphic>FALSE</anamorphic>
                  </samplecharacteristics>
                </video>
              </media>
            </file>
            <sourcetrack>
              <mediatype>video</mediatype>
            </sourcetrack>
            <fielddominance>none</fielddominance>
          </clipitem>
          <clipitem id="B.png298">
            <name>B.png</name>
            <duration>3</duration>
            <rate>
              <ntsc>FALSE</ntsc>
              <timebase>25</timebase>
            </rate>
            <in>91121</in>
            <out>91124</out>
            <start>1121</start>
            <end>1124</end>
            <pixelaspectratio>Square</pixelaspectratio>
            <stillframe>TRUE</stillframe>
            <anamorphic>FALSE</anamorphic>
            <alphatype>straight</alphatype>
            <masterclipid>B.png298</masterclipid>
            <file id="B">
              <name>B.png</name>
              <pathurl>D:/Codes/SynthLip/SynthLipN/bin/Debug/net6.0-windows/Skin/template/B.png</pathurl>
              <rate>
                <ntsc>FALSE</ntsc>
                <timebase>25</timebase>
              </rate>
              <duration>2</duration>
              <width>1920</width>
              <height>1080</height>
              <media>
                <video>
                  <duration>2</duration>
                  <stillframe>TRUE</stillframe>
                  <samplecharacteristics>
                    <rate>
                      <ntsc>FALSE</ntsc>
                      <timebase>25</timebase>
                    </rate>
                    <width>1920</width>
                    <height>1080</height>
                    <pixelaspectratio>Square</pixelaspectratio>
                    <anamorphic>FALSE</anamorphic>
                  </samplecharacteristics>
                </video>
              </media>
            </file>
            <sourcetrack>
              <mediatype>video</mediatype>
            </sourcetrack>
            <fielddominance>none</fielddominance>
          </clipitem>
          <clipitem id="C.png297">
            <name>C.png</name>
            <duration>3</duration>
            <rate>
              <ntsc>FALSE</ntsc>
              <timebase>25</timebase>
            </rate>
            <in>91117</in>
            <out>91120</out>
            <start>1117</start>
            <end>1120</end>
            <pixelaspectratio>Square</pixelaspectratio>
            <stillframe>TRUE</stillframe>
            <anamorphic>FALSE</anamorphic>
            <alphatype>straight</alphatype>
            <masterclipid>C.png297</masterclipid>
            <file id="C">
              <name>C.png</name>
              <pathurl>D:/Codes/SynthLip/SynthLipN/bin/Debug/net6.0-windows/Skin/template/C.png</pathurl>
              <rate>
                <ntsc>FALSE</ntsc>
                <timebase>25</timebase>
              </rate>
              <duration>2</duration>
              <width>1920</width>
              <height>1080</height>
              <media>
                <video>
                  <duration>2</duration>
                  <stillframe>TRUE</stillframe>
                  <samplecharacteristics>
                    <rate>
                      <ntsc>FALSE</ntsc>
                      <timebase>25</timebase>
                    </rate>
                    <width>1920</width>
                    <height>1080</height>
                    <pixelaspectratio>Square</pixelaspectratio>
                    <anamorphic>FALSE</anamorphic>
                  </samplecharacteristics>
                </video>
              </media>
            </file>
            <sourcetrack>
              <mediatype>video</mediatype>
            </sourcetrack>
            <fielddominance>none</fielddominance>
          </clipitem>
          <clipitem id="G.png296">
            <name>G.png</name>
            <duration>3</duration>
            <rate>
              <ntsc>FALSE</ntsc>
              <timebase>25</timebase>
            </rate>
            <in>91113</in>
            <out>91116</out>
            <start>1113</start>
            <end>1116</end>
            <pixelaspectratio>Square</pixelaspectratio>
            <stillframe>TRUE</stillframe>
            <anamorphic>FALSE</anamorphic>
            <alphatype>straight</alphatype>
            <masterclipid>G.png296</masterclipid>
            <file id="G">
              <name>G.png</name>
              <pathurl>D:/Codes/SynthLip/SynthLipN/bin/Debug/net6.0-windows/Skin/template/G.png</pathurl>
              <rate>
                <ntsc>FALSE</ntsc>
                <timebase>25</timebase>
              </rate>
              <duration>2</duration>
              <width>1920</width>
              <height>1080</height>
              <media>
                <video>
                  <duration>2</duration>
                  <stillframe>TRUE</stillframe>
                  <samplecharacteristics>
                    <rate>
                      <ntsc>FALSE</ntsc>
                      <timebase>25</timebase>
                    </rate>
                    <width>1920</width>
                    <height>1080</height>
                    <pixelaspectratio>Square</pixelaspectratio>
                    <anamorphic>FALSE</anamorphic>
                  </samplecharacteristics>
                </video>
              </media>
            </file>
            <sourcetrack>
              <mediatype>video</mediatype>
            </sourcetrack>
            <fielddominance>none</fielddominance>
          </clipitem>
          <clipitem id="A.png295">
            <name>A.png</name>
            <duration>3</duration>
            <rate>
              <ntsc>FALSE</ntsc>
              <timebase>25</timebase>
            </rate>
            <in>91110</in>
            <out>91113</out>
            <start>1110</start>
            <end>1113</end>
            <pixelaspectratio>Square</pixelaspectratio>
            <stillframe>TRUE</stillframe>
            <anamorphic>FALSE</anamorphic>
            <alphatype>straight</alphatype>
            <masterclipid>A.png295</masterclipid>
            <file id="A">
              <name>A.png</name>
              <pathurl>D:/Codes/SynthLip/SynthLipN/bin/Debug/net6.0-windows/Skin/template/A.png</pathurl>
              <rate>
                <ntsc>FALSE</ntsc>
                <timebase>25</timebase>
              </rate>
              <duration>2</duration>
              <width>1920</width>
              <height>1080</height>
              <media>
                <video>
                  <duration>2</duration>
                  <stillframe>TRUE</stillframe>
                  <samplecharacteristics>
                    <rate>
                      <ntsc>FALSE</ntsc>
                      <timebase>25</timebase>
                    </rate>
                    <width>1920</width>
                    <height>1080</height>
                    <pixelaspectratio>Square</pixelaspectratio>
                    <anamorphic>FALSE</anamorphic>
                  </samplecharacteristics>
                </video>
              </media>
            </file>
            <sourcetrack>
              <mediatype>video</mediatype>
            </sourcetrack>
            <fielddominance>none</fielddominance>
          </clipitem>
          <clipitem id="B.png294">
            <name>B.png</name>
            <duration>3</duration>
            <rate>
              <ntsc>FALSE</ntsc>
              <timebase>25</timebase>
            </rate>
            <in>91106</in>
            <out>91109</out>
            <start>1106</start>
            <end>1109</end>
            <pixelaspectratio>Square</pixelaspectratio>
            <stillframe>TRUE</stillframe>
            <anamorphic>FALSE</anamorphic>
            <alphatype>straight</alphatype>
            <masterclipid>B.png294</masterclipid>
            <file id="B">
              <name>B.png</name>
              <pathurl>D:/Codes/SynthLip/SynthLipN/bin/Debug/net6.0-windows/Skin/template/B.png</pathurl>
              <rate>
                <ntsc>FALSE</ntsc>
                <timebase>25</timebase>
              </rate>
              <duration>2</duration>
              <width>1920</width>
              <height>1080</height>
              <media>
                <video>
                  <duration>2</duration>
                  <stillframe>TRUE</stillframe>
                  <samplecharacteristics>
                    <rate>
                      <ntsc>FALSE</ntsc>
                      <timebase>25</timebase>
                    </rate>
                    <width>1920</width>
                    <height>1080</height>
                    <pixelaspectratio>Square</pixelaspectratio>
                    <anamorphic>FALSE</anamorphic>
                  </samplecharacteristics>
                </video>
              </media>
            </file>
            <sourcetrack>
              <mediatype>video</mediatype>
            </sourcetrack>
            <fielddominance>none</fielddominance>
          </clipitem>
          <clipitem id="F.png293">
            <name>F.png</name>
            <duration>1</duration>
            <rate>
              <ntsc>FALSE</ntsc>
              <timebase>25</timebase>
            </rate>
            <in>91105</in>
            <out>91106</out>
            <start>1105</start>
            <end>1106</end>
            <pixelaspectratio>Square</pixelaspectratio>
            <stillframe>TRUE</stillframe>
            <anamorphic>FALSE</anamorphic>
            <alphatype>straight</alphatype>
            <masterclipid>F.png293</masterclipid>
            <file id="F">
              <name>F.png</name>
              <pathurl>D:/Codes/SynthLip/SynthLipN/bin/Debug/net6.0-windows/Skin/template/F.png</pathurl>
              <rate>
                <ntsc>FALSE</ntsc>
                <timebase>25</timebase>
              </rate>
              <duration>2</duration>
              <width>1920</width>
              <height>1080</height>
              <media>
                <video>
                  <duration>2</duration>
                  <stillframe>TRUE</stillframe>
                  <samplecharacteristics>
                    <rate>
                      <ntsc>FALSE</ntsc>
                      <timebase>25</timebase>
                    </rate>
                    <width>1920</width>
                    <height>1080</height>
                    <pixelaspectratio>Square</pixelaspectratio>
                    <anamorphic>FALSE</anamorphic>
                  </samplecharacteristics>
                </video>
              </media>
            </file>
            <sourcetrack>
              <mediatype>video</mediatype>
            </sourcetrack>
            <fielddominance>none</fielddominance>
          </clipitem>
          <clipitem id="A.png292">
            <name>A.png</name>
            <duration>1</duration>
            <rate>
              <ntsc>FALSE</ntsc>
              <timebase>25</timebase>
            </rate>
            <in>91103</in>
            <out>91104</out>
            <start>1103</start>
            <end>1104</end>
            <pixelaspectratio>Square</pixelaspectratio>
            <stillframe>TRUE</stillframe>
            <anamorphic>FALSE</anamorphic>
            <alphatype>straight</alphatype>
            <masterclipid>A.png292</masterclipid>
            <file id="A">
              <name>A.png</name>
              <pathurl>D:/Codes/SynthLip/SynthLipN/bin/Debug/net6.0-windows/Skin/template/A.png</pathurl>
              <rate>
                <ntsc>FALSE</ntsc>
                <timebase>25</timebase>
              </rate>
              <duration>2</duration>
              <width>1920</width>
              <height>1080</height>
              <media>
                <video>
                  <duration>2</duration>
                  <stillframe>TRUE</stillframe>
                  <samplecharacteristics>
                    <rate>
                      <ntsc>FALSE</ntsc>
                      <timebase>25</timebase>
                    </rate>
                    <width>1920</width>
                    <height>1080</height>
                    <pixelaspectratio>Square</pixelaspectratio>
                    <anamorphic>FALSE</anamorphic>
                  </samplecharacteristics>
                </video>
              </media>
            </file>
            <sourcetrack>
              <mediatype>video</mediatype>
            </sourcetrack>
            <fielddominance>none</fielddominance>
          </clipitem>
          <clipitem id="A.png291">
            <name>A.png</name>
            <duration>1</duration>
            <rate>
              <ntsc>FALSE</ntsc>
              <timebase>25</timebase>
            </rate>
            <in>91102</in>
            <out>91103</out>
            <start>1102</start>
            <end>1103</end>
            <pixelaspectratio>Square</pixelaspectratio>
            <stillframe>TRUE</stillframe>
            <anamorphic>FALSE</anamorphic>
            <alphatype>straight</alphatype>
            <masterclipid>A.png291</masterclipid>
            <file id="A">
              <name>A.png</name>
              <pathurl>D:/Codes/SynthLip/SynthLipN/bin/Debug/net6.0-windows/Skin/template/A.png</pathurl>
              <rate>
                <ntsc>FALSE</ntsc>
                <timebase>25</timebase>
              </rate>
              <duration>2</duration>
              <width>1920</width>
              <height>1080</height>
              <media>
                <video>
                  <duration>2</duration>
                  <stillframe>TRUE</stillframe>
                  <samplecharacteristics>
                    <rate>
                      <ntsc>FALSE</ntsc>
                      <timebase>25</timebase>
                    </rate>
                    <width>1920</width>
                    <height>1080</height>
                    <pixelaspectratio>Square</pixelaspectratio>
                    <anamorphic>FALSE</anamorphic>
                  </samplecharacteristics>
                </video>
              </media>
            </file>
            <sourcetrack>
              <mediatype>video</mediatype>
            </sourcetrack>
            <fielddominance>none</fielddominance>
          </clipitem>
          <clipitem id="H.png290">
            <name>H.png</name>
            <duration>5</duration>
            <rate>
              <ntsc>FALSE</ntsc>
              <timebase>25</timebase>
            </rate>
            <in>91096</in>
            <out>91101</out>
            <start>1096</start>
            <end>1101</end>
            <pixelaspectratio>Square</pixelaspectratio>
            <stillframe>TRUE</stillframe>
            <anamorphic>FALSE</anamorphic>
            <alphatype>straight</alphatype>
            <masterclipid>H.png290</masterclipid>
            <file id="H">
              <name>H.png</name>
              <pathurl>D:/Codes/SynthLip/SynthLipN/bin/Debug/net6.0-windows/Skin/template/H.png</pathurl>
              <rate>
                <ntsc>FALSE</ntsc>
                <timebase>25</timebase>
              </rate>
              <duration>2</duration>
              <width>1920</width>
              <height>1080</height>
              <media>
                <video>
                  <duration>2</duration>
                  <stillframe>TRUE</stillframe>
                  <samplecharacteristics>
                    <rate>
                      <ntsc>FALSE</ntsc>
                      <timebase>25</timebase>
                    </rate>
                    <width>1920</width>
                    <height>1080</height>
                    <pixelaspectratio>Square</pixelaspectratio>
                    <anamorphic>FALSE</anamorphic>
                  </samplecharacteristics>
                </video>
              </media>
            </file>
            <sourcetrack>
              <mediatype>video</mediatype>
            </sourcetrack>
            <fielddominance>none</fielddominance>
          </clipitem>
          <clipitem id="B.png287">
            <name>B.png</name>
            <duration>1</duration>
            <rate>
              <ntsc>FALSE</ntsc>
              <timebase>25</timebase>
            </rate>
            <in>91093</in>
            <out>91094</out>
            <start>1093</start>
            <end>1094</end>
            <pixelaspectratio>Square</pixelaspectratio>
            <stillframe>TRUE</stillframe>
            <anamorphic>FALSE</anamorphic>
            <alphatype>straight</alphatype>
            <masterclipid>B.png287</masterclipid>
            <file id="B">
              <name>B.png</name>
              <pathurl>D:/Codes/SynthLip/SynthLipN/bin/Debug/net6.0-windows/Skin/template/B.png</pathurl>
              <rate>
                <ntsc>FALSE</ntsc>
                <timebase>25</timebase>
              </rate>
              <duration>2</duration>
              <width>1920</width>
              <height>1080</height>
              <media>
                <video>
                  <duration>2</duration>
                  <stillframe>TRUE</stillframe>
                  <samplecharacteristics>
                    <rate>
                      <ntsc>FALSE</ntsc>
                      <timebase>25</timebase>
                    </rate>
                    <width>1920</width>
                    <height>1080</height>
                    <pixelaspectratio>Square</pixelaspectratio>
                    <anamorphic>FALSE</anamorphic>
                  </samplecharacteristics>
                </video>
              </media>
            </file>
            <sourcetrack>
              <mediatype>video</mediatype>
            </sourcetrack>
            <fielddominance>none</fielddominance>
          </clipitem>
          <clipitem id="B.png286">
            <name>B.png</name>
            <duration>1</duration>
            <rate>
              <ntsc>FALSE</ntsc>
              <timebase>25</timebase>
            </rate>
            <in>91091</in>
            <out>91092</out>
            <start>1091</start>
            <end>1092</end>
            <pixelaspectratio>Square</pixelaspectratio>
            <stillframe>TRUE</stillframe>
            <anamorphic>FALSE</anamorphic>
            <alphatype>straight</alphatype>
            <masterclipid>B.png286</masterclipid>
            <file id="B">
              <name>B.png</name>
              <pathurl>D:/Codes/SynthLip/SynthLipN/bin/Debug/net6.0-windows/Skin/template/B.png</pathurl>
              <rate>
                <ntsc>FALSE</ntsc>
                <timebase>25</timebase>
              </rate>
              <duration>2</duration>
              <width>1920</width>
              <height>1080</height>
              <media>
                <video>
                  <duration>2</duration>
                  <stillframe>TRUE</stillframe>
                  <samplecharacteristics>
                    <rate>
                      <ntsc>FALSE</ntsc>
                      <timebase>25</timebase>
                    </rate>
                    <width>1920</width>
                    <height>1080</height>
                    <pixelaspectratio>Square</pixelaspectratio>
                    <anamorphic>FALSE</anamorphic>
                  </samplecharacteristics>
                </video>
              </media>
            </file>
            <sourcetrack>
              <mediatype>video</mediatype>
            </sourcetrack>
            <fielddominance>none</fielddominance>
          </clipitem>
          <clipitem id="C.png285">
            <name>C.png</name>
            <duration>1</duration>
            <rate>
              <ntsc>FALSE</ntsc>
              <timebase>25</timebase>
            </rate>
            <in>91090</in>
            <out>91091</out>
            <start>1090</start>
            <end>1091</end>
            <pixelaspectratio>Square</pixelaspectratio>
            <stillframe>TRUE</stillframe>
            <anamorphic>FALSE</anamorphic>
            <alphatype>straight</alphatype>
            <masterclipid>C.png285</masterclipid>
            <file id="C">
              <name>C.png</name>
              <pathurl>D:/Codes/SynthLip/SynthLipN/bin/Debug/net6.0-windows/Skin/template/C.png</pathurl>
              <rate>
                <ntsc>FALSE</ntsc>
                <timebase>25</timebase>
              </rate>
              <duration>2</duration>
              <width>1920</width>
              <height>1080</height>
              <media>
                <video>
                  <duration>2</duration>
                  <stillframe>TRUE</stillframe>
                  <samplecharacteristics>
                    <rate>
                      <ntsc>FALSE</ntsc>
                      <timebase>25</timebase>
                    </rate>
                    <width>1920</width>
                    <height>1080</height>
                    <pixelaspectratio>Square</pixelaspectratio>
                    <anamorphic>FALSE</anamorphic>
                  </samplecharacteristics>
                </video>
              </media>
            </file>
            <sourcetrack>
              <mediatype>video</mediatype>
            </sourcetrack>
            <fielddominance>none</fielddominance>
          </clipitem>
          <clipitem id="G.png284">
            <name>G.png</name>
            <duration>1</duration>
            <rate>
              <ntsc>FALSE</ntsc>
              <timebase>25</timebase>
            </rate>
            <in>91088</in>
            <out>91089</out>
            <start>1088</start>
            <end>1089</end>
            <pixelaspectratio>Square</pixelaspectratio>
            <stillframe>TRUE</stillframe>
            <anamorphic>FALSE</anamorphic>
            <alphatype>straight</alphatype>
            <masterclipid>G.png284</masterclipid>
            <file id="G">
              <name>G.png</name>
              <pathurl>D:/Codes/SynthLip/SynthLipN/bin/Debug/net6.0-windows/Skin/template/G.png</pathurl>
              <rate>
                <ntsc>FALSE</ntsc>
                <timebase>25</timebase>
              </rate>
              <duration>2</duration>
              <width>1920</width>
              <height>1080</height>
              <media>
                <video>
                  <duration>2</duration>
                  <stillframe>TRUE</stillframe>
                  <samplecharacteristics>
                    <rate>
                      <ntsc>FALSE</ntsc>
                      <timebase>25</timebase>
                    </rate>
                    <width>1920</width>
                    <height>1080</height>
                    <pixelaspectratio>Square</pixelaspectratio>
                    <anamorphic>FALSE</anamorphic>
                  </samplecharacteristics>
                </video>
              </media>
            </file>
            <sourcetrack>
              <mediatype>video</mediatype>
            </sourcetrack>
            <fielddominance>none</fielddominance>
          </clipitem>
          <clipitem id="A.png283">
            <name>A.png</name>
            <duration>1</duration>
            <rate>
              <ntsc>FALSE</ntsc>
              <timebase>25</timebase>
            </rate>
            <in>91087</in>
            <out>91088</out>
            <start>1087</start>
            <end>1088</end>
            <pixelaspectratio>Square</pixelaspectratio>
            <stillframe>TRUE</stillframe>
            <anamorphic>FALSE</anamorphic>
            <alphatype>straight</alphatype>
            <masterclipid>A.png283</masterclipid>
            <file id="A">
              <name>A.png</name>
              <pathurl>D:/Codes/SynthLip/SynthLipN/bin/Debug/net6.0-windows/Skin/template/A.png</pathurl>
              <rate>
                <ntsc>FALSE</ntsc>
                <timebase>25</timebase>
              </rate>
              <duration>2</duration>
              <width>1920</width>
              <height>1080</height>
              <media>
                <video>
                  <duration>2</duration>
                  <stillframe>TRUE</stillframe>
                  <samplecharacteristics>
                    <rate>
                      <ntsc>FALSE</ntsc>
                      <timebase>25</timebase>
                    </rate>
                    <width>1920</width>
                    <height>1080</height>
                    <pixelaspectratio>Square</pixelaspectratio>
                    <anamorphic>FALSE</anamorphic>
                  </samplecharacteristics>
                </video>
              </media>
            </file>
            <sourcetrack>
              <mediatype>video</mediatype>
            </sourcetrack>
            <fielddominance>none</fielddominance>
          </clipitem>
          <clipitem id="F.png282">
            <name>F.png</name>
            <duration>5</duration>
            <rate>
              <ntsc>FALSE</ntsc>
              <timebase>25</timebase>
            </rate>
            <in>91081</in>
            <out>91086</out>
            <start>1081</start>
            <end>1086</end>
            <pixelaspectratio>Square</pixelaspectratio>
            <stillframe>TRUE</stillframe>
            <anamorphic>FALSE</anamorphic>
            <alphatype>straight</alphatype>
            <masterclipid>F.png282</masterclipid>
            <file id="F">
              <name>F.png</name>
              <pathurl>D:/Codes/SynthLip/SynthLipN/bin/Debug/net6.0-windows/Skin/template/F.png</pathurl>
              <rate>
                <ntsc>FALSE</ntsc>
                <timebase>25</timebase>
              </rate>
              <duration>2</duration>
              <width>1920</width>
              <height>1080</height>
              <media>
                <video>
                  <duration>2</duration>
                  <stillframe>TRUE</stillframe>
                  <samplecharacteristics>
                    <rate>
                      <ntsc>FALSE</ntsc>
                      <timebase>25</timebase>
                    </rate>
                    <width>1920</width>
                    <height>1080</height>
                    <pixelaspectratio>Square</pixelaspectratio>
                    <anamorphic>FALSE</anamorphic>
                  </samplecharacteristics>
                </video>
              </media>
            </file>
            <sourcetrack>
              <mediatype>video</mediatype>
            </sourcetrack>
            <fielddominance>none</fielddominance>
          </clipitem>
          <clipitem id="F.png279">
            <name>F.png</name>
            <duration>3</duration>
            <rate>
              <ntsc>FALSE</ntsc>
              <timebase>25</timebase>
            </rate>
            <in>91076</in>
            <out>91079</out>
            <start>1076</start>
            <end>1079</end>
            <pixelaspectratio>Square</pixelaspectratio>
            <stillframe>TRUE</stillframe>
            <anamorphic>FALSE</anamorphic>
            <alphatype>straight</alphatype>
            <masterclipid>F.png279</masterclipid>
            <file id="F">
              <name>F.png</name>
              <pathurl>D:/Codes/SynthLip/SynthLipN/bin/Debug/net6.0-windows/Skin/template/F.png</pathurl>
              <rate>
                <ntsc>FALSE</ntsc>
                <timebase>25</timebase>
              </rate>
              <duration>2</duration>
              <width>1920</width>
              <height>1080</height>
              <media>
                <video>
                  <duration>2</duration>
                  <stillframe>TRUE</stillframe>
                  <samplecharacteristics>
                    <rate>
                      <ntsc>FALSE</ntsc>
                      <timebase>25</timebase>
                    </rate>
                    <width>1920</width>
                    <height>1080</height>
                    <pixelaspectratio>Square</pixelaspectratio>
                    <anamorphic>FALSE</anamorphic>
                  </samplecharacteristics>
                </video>
              </media>
            </file>
            <sourcetrack>
              <mediatype>video</mediatype>
            </sourcetrack>
            <fielddominance>none</fielddominance>
          </clipitem>
          <clipitem id="A.png278">
            <name>A.png</name>
            <duration>3</duration>
            <rate>
              <ntsc>FALSE</ntsc>
              <timebase>25</timebase>
            </rate>
            <in>91072</in>
            <out>91075</out>
            <start>1072</start>
            <end>1075</end>
            <pixelaspectratio>Square</pixelaspectratio>
            <stillframe>TRUE</stillframe>
            <anamorphic>FALSE</anamorphic>
            <alphatype>straight</alphatype>
            <masterclipid>A.png278</masterclipid>
            <file id="A">
              <name>A.png</name>
              <pathurl>D:/Codes/SynthLip/SynthLipN/bin/Debug/net6.0-windows/Skin/template/A.png</pathurl>
              <rate>
                <ntsc>FALSE</ntsc>
                <timebase>25</timebase>
              </rate>
              <duration>2</duration>
              <width>1920</width>
              <height>1080</height>
              <media>
                <video>
                  <duration>2</duration>
                  <stillframe>TRUE</stillframe>
                  <samplecharacteristics>
                    <rate>
                      <ntsc>FALSE</ntsc>
                      <timebase>25</timebase>
                    </rate>
                    <width>1920</width>
                    <height>1080</height>
                    <pixelaspectratio>Square</pixelaspectratio>
                    <anamorphic>FALSE</anamorphic>
                  </samplecharacteristics>
                </video>
              </media>
            </file>
            <sourcetrack>
              <mediatype>video</mediatype>
            </sourcetrack>
            <fielddominance>none</fielddominance>
          </clipitem>
          <clipitem id="H.png277">
            <name>H.png</name>
            <duration>5</duration>
            <rate>
              <ntsc>FALSE</ntsc>
              <timebase>25</timebase>
            </rate>
            <in>91066</in>
            <out>91071</out>
            <start>1066</start>
            <end>1071</end>
            <pixelaspectratio>Square</pixelaspectratio>
            <stillframe>TRUE</stillframe>
            <anamorphic>FALSE</anamorphic>
            <alphatype>straight</alphatype>
            <masterclipid>H.png277</masterclipid>
            <file id="H">
              <name>H.png</name>
              <pathurl>D:/Codes/SynthLip/SynthLipN/bin/Debug/net6.0-windows/Skin/template/H.png</pathurl>
              <rate>
                <ntsc>FALSE</ntsc>
                <timebase>25</timebase>
              </rate>
              <duration>2</duration>
              <width>1920</width>
              <height>1080</height>
              <media>
                <video>
                  <duration>2</duration>
                  <stillframe>TRUE</stillframe>
                  <samplecharacteristics>
                    <rate>
                      <ntsc>FALSE</ntsc>
                      <timebase>25</timebase>
                    </rate>
                    <width>1920</width>
                    <height>1080</height>
                    <pixelaspectratio>Square</pixelaspectratio>
                    <anamorphic>FALSE</anamorphic>
                  </samplecharacteristics>
                </video>
              </media>
            </file>
            <sourcetrack>
              <mediatype>video</mediatype>
            </sourcetrack>
            <fielddominance>none</fielddominance>
          </clipitem>
          <clipitem id="B.png273">
            <name>B.png</name>
            <duration>3</duration>
            <rate>
              <ntsc>FALSE</ntsc>
              <timebase>25</timebase>
            </rate>
            <in>91061</in>
            <out>91064</out>
            <start>1061</start>
            <end>1064</end>
            <pixelaspectratio>Square</pixelaspectratio>
            <stillframe>TRUE</stillframe>
            <anamorphic>FALSE</anamorphic>
            <alphatype>straight</alphatype>
            <masterclipid>B.png273</masterclipid>
            <file id="B">
              <name>B.png</name>
              <pathurl>D:/Codes/SynthLip/SynthLipN/bin/Debug/net6.0-windows/Skin/template/B.png</pathurl>
              <rate>
                <ntsc>FALSE</ntsc>
                <timebase>25</timebase>
              </rate>
              <duration>2</duration>
              <width>1920</width>
              <height>1080</height>
              <media>
                <video>
                  <duration>2</duration>
                  <stillframe>TRUE</stillframe>
                  <samplecharacteristics>
                    <rate>
                      <ntsc>FALSE</ntsc>
                      <timebase>25</timebase>
                    </rate>
                    <width>1920</width>
                    <height>1080</height>
                    <pixelaspectratio>Square</pixelaspectratio>
                    <anamorphic>FALSE</anamorphic>
                  </samplecharacteristics>
                </video>
              </media>
            </file>
            <sourcetrack>
              <mediatype>video</mediatype>
            </sourcetrack>
            <fielddominance>none</fielddominance>
          </clipitem>
          <clipitem id="A.png272">
            <name>A.png</name>
            <duration>3</duration>
            <rate>
              <ntsc>FALSE</ntsc>
              <timebase>25</timebase>
            </rate>
            <in>91057</in>
            <out>91060</out>
            <start>1057</start>
            <end>1060</end>
            <pixelaspectratio>Square</pixelaspectratio>
            <stillframe>TRUE</stillframe>
            <anamorphic>FALSE</anamorphic>
            <alphatype>straight</alphatype>
            <masterclipid>A.png272</masterclipid>
            <file id="A">
              <name>A.png</name>
              <pathurl>D:/Codes/SynthLip/SynthLipN/bin/Debug/net6.0-windows/Skin/template/A.png</pathurl>
              <rate>
                <ntsc>FALSE</ntsc>
                <timebase>25</timebase>
              </rate>
              <duration>2</duration>
              <width>1920</width>
              <height>1080</height>
              <media>
                <video>
                  <duration>2</duration>
                  <stillframe>TRUE</stillframe>
                  <samplecharacteristics>
                    <rate>
                      <ntsc>FALSE</ntsc>
                      <timebase>25</timebase>
                    </rate>
                    <width>1920</width>
                    <height>1080</height>
                    <pixelaspectratio>Square</pixelaspectratio>
                    <anamorphic>FALSE</anamorphic>
                  </samplecharacteristics>
                </video>
              </media>
            </file>
            <sourcetrack>
              <mediatype>video</mediatype>
            </sourcetrack>
            <fielddominance>none</fielddominance>
          </clipitem>
          <clipitem id="F.png271">
            <name>F.png</name>
            <duration>5</duration>
            <rate>
              <ntsc>FALSE</ntsc>
              <timebase>25</timebase>
            </rate>
            <in>91051</in>
            <out>91056</out>
            <start>1051</start>
            <end>1056</end>
            <pixelaspectratio>Square</pixelaspectratio>
            <stillframe>TRUE</stillframe>
            <anamorphic>FALSE</anamorphic>
            <alphatype>straight</alphatype>
            <masterclipid>F.png271</masterclipid>
            <file id="F">
              <name>F.png</name>
              <pathurl>D:/Codes/SynthLip/SynthLipN/bin/Debug/net6.0-windows/Skin/template/F.png</pathurl>
              <rate>
                <ntsc>FALSE</ntsc>
                <timebase>25</timebase>
              </rate>
              <duration>2</duration>
              <width>1920</width>
              <height>1080</height>
              <media>
                <video>
                  <duration>2</duration>
                  <stillframe>TRUE</stillframe>
                  <samplecharacteristics>
                    <rate>
                      <ntsc>FALSE</ntsc>
                      <timebase>25</timebase>
                    </rate>
                    <width>1920</width>
                    <height>1080</height>
                    <pixelaspectratio>Square</pixelaspectratio>
                    <anamorphic>FALSE</anamorphic>
                  </samplecharacteristics>
                </video>
              </media>
            </file>
            <sourcetrack>
              <mediatype>video</mediatype>
            </sourcetrack>
            <fielddominance>none</fielddominance>
          </clipitem>
          <clipitem id="B.png267">
            <name>B.png</name>
            <duration>3</duration>
            <rate>
              <ntsc>FALSE</ntsc>
              <timebase>25</timebase>
            </rate>
            <in>91046</in>
            <out>91049</out>
            <start>1046</start>
            <end>1049</end>
            <pixelaspectratio>Square</pixelaspectratio>
            <stillframe>TRUE</stillframe>
            <anamorphic>FALSE</anamorphic>
            <alphatype>straight</alphatype>
            <masterclipid>B.png267</masterclipid>
            <file id="B">
              <name>B.png</name>
              <pathurl>D:/Codes/SynthLip/SynthLipN/bin/Debug/net6.0-windows/Skin/template/B.png</pathurl>
              <rate>
                <ntsc>FALSE</ntsc>
                <timebase>25</timebase>
              </rate>
              <duration>2</duration>
              <width>1920</width>
              <height>1080</height>
              <media>
                <video>
                  <duration>2</duration>
                  <stillframe>TRUE</stillframe>
                  <samplecharacteristics>
                    <rate>
                      <ntsc>FALSE</ntsc>
                      <timebase>25</timebase>
                    </rate>
                    <width>1920</width>
                    <height>1080</height>
                    <pixelaspectratio>Square</pixelaspectratio>
                    <anamorphic>FALSE</anamorphic>
                  </samplecharacteristics>
                </video>
              </media>
            </file>
            <sourcetrack>
              <mediatype>video</mediatype>
            </sourcetrack>
            <fielddominance>none</fielddominance>
          </clipitem>
          <clipitem id="D.png266">
            <name>D.png</name>
            <duration>1</duration>
            <rate>
              <ntsc>FALSE</ntsc>
              <timebase>25</timebase>
            </rate>
            <in>91045</in>
            <out>91046</out>
            <start>1045</start>
            <end>1046</end>
            <pixelaspectratio>Square</pixelaspectratio>
            <stillframe>TRUE</stillframe>
            <anamorphic>FALSE</anamorphic>
            <alphatype>straight</alphatype>
            <masterclipid>D.png266</masterclipid>
            <file id="D">
              <name>D.png</name>
              <pathurl>D:/Codes/SynthLip/SynthLipN/bin/Debug/net6.0-windows/Skin/template/D.png</pathurl>
              <rate>
                <ntsc>FALSE</ntsc>
                <timebase>25</timebase>
              </rate>
              <duration>2</duration>
              <width>1920</width>
              <height>1080</height>
              <media>
                <video>
                  <duration>2</duration>
                  <stillframe>TRUE</stillframe>
                  <samplecharacteristics>
                    <rate>
                      <ntsc>FALSE</ntsc>
                      <timebase>25</timebase>
                    </rate>
                    <width>1920</width>
                    <height>1080</height>
                    <pixelaspectratio>Square</pixelaspectratio>
                    <anamorphic>FALSE</anamorphic>
                  </samplecharacteristics>
                </video>
              </media>
            </file>
            <sourcetrack>
              <mediatype>video</mediatype>
            </sourcetrack>
            <fielddominance>none</fielddominance>
          </clipitem>
          <clipitem id="F.png265">
            <name>F.png</name>
            <duration>1</duration>
            <rate>
              <ntsc>FALSE</ntsc>
              <timebase>25</timebase>
            </rate>
            <in>91043</in>
            <out>91044</out>
            <start>1043</start>
            <end>1044</end>
            <pixelaspectratio>Square</pixelaspectratio>
            <stillframe>TRUE</stillframe>
            <anamorphic>FALSE</anamorphic>
            <alphatype>straight</alphatype>
            <masterclipid>F.png265</masterclipid>
            <file id="F">
              <name>F.png</name>
              <pathurl>D:/Codes/SynthLip/SynthLipN/bin/Debug/net6.0-windows/Skin/template/F.png</pathurl>
              <rate>
                <ntsc>FALSE</ntsc>
                <timebase>25</timebase>
              </rate>
              <duration>2</duration>
              <width>1920</width>
              <height>1080</height>
              <media>
                <video>
                  <duration>2</duration>
                  <stillframe>TRUE</stillframe>
                  <samplecharacteristics>
                    <rate>
                      <ntsc>FALSE</ntsc>
                      <timebase>25</timebase>
                    </rate>
                    <width>1920</width>
                    <height>1080</height>
                    <pixelaspectratio>Square</pixelaspectratio>
                    <anamorphic>FALSE</anamorphic>
                  </samplecharacteristics>
                </video>
              </media>
            </file>
            <sourcetrack>
              <mediatype>video</mediatype>
            </sourcetrack>
            <fielddominance>none</fielddominance>
          </clipitem>
          <clipitem id="A.png264">
            <name>A.png</name>
            <duration>44</duration>
            <rate>
              <ntsc>FALSE</ntsc>
              <timebase>25</timebase>
            </rate>
            <in>90999</in>
            <out>91043</out>
            <start>999</start>
            <end>1043</end>
            <pixelaspectratio>Square</pixelaspectratio>
            <stillframe>TRUE</stillframe>
            <anamorphic>FALSE</anamorphic>
            <alphatype>straight</alphatype>
            <masterclipid>A.png264</masterclipid>
            <file id="A">
              <name>A.png</name>
              <pathurl>D:/Codes/SynthLip/SynthLipN/bin/Debug/net6.0-windows/Skin/template/A.png</pathurl>
              <rate>
                <ntsc>FALSE</ntsc>
                <timebase>25</timebase>
              </rate>
              <duration>2</duration>
              <width>1920</width>
              <height>1080</height>
              <media>
                <video>
                  <duration>2</duration>
                  <stillframe>TRUE</stillframe>
                  <samplecharacteristics>
                    <rate>
                      <ntsc>FALSE</ntsc>
                      <timebase>25</timebase>
                    </rate>
                    <width>1920</width>
                    <height>1080</height>
                    <pixelaspectratio>Square</pixelaspectratio>
                    <anamorphic>FALSE</anamorphic>
                  </samplecharacteristics>
                </video>
              </media>
            </file>
            <sourcetrack>
              <mediatype>video</mediatype>
            </sourcetrack>
            <fielddominance>none</fielddominance>
          </clipitem>
          <clipitem id="E.png263">
            <name>E.png</name>
            <duration>7</duration>
            <rate>
              <ntsc>FALSE</ntsc>
              <timebase>25</timebase>
            </rate>
            <in>90991</in>
            <out>90998</out>
            <start>991</start>
            <end>998</end>
            <pixelaspectratio>Square</pixelaspectratio>
            <stillframe>TRUE</stillframe>
            <anamorphic>FALSE</anamorphic>
            <alphatype>straight</alphatype>
            <masterclipid>E.png263</masterclipid>
            <file id="E">
              <name>E.png</name>
              <pathurl>D:/Codes/SynthLip/SynthLipN/bin/Debug/net6.0-windows/Skin/template/E.png</pathurl>
              <rate>
                <ntsc>FALSE</ntsc>
                <timebase>25</timebase>
              </rate>
              <duration>2</duration>
              <width>1920</width>
              <height>1080</height>
              <media>
                <video>
                  <duration>2</duration>
                  <stillframe>TRUE</stillframe>
                  <samplecharacteristics>
                    <rate>
                      <ntsc>FALSE</ntsc>
                      <timebase>25</timebase>
                    </rate>
                    <width>1920</width>
                    <height>1080</height>
                    <pixelaspectratio>Square</pixelaspectratio>
                    <anamorphic>FALSE</anamorphic>
                  </samplecharacteristics>
                </video>
              </media>
            </file>
            <sourcetrack>
              <mediatype>video</mediatype>
            </sourcetrack>
            <fielddominance>none</fielddominance>
          </clipitem>
          <clipitem id="F.png260">
            <name>F.png</name>
            <duration>2</duration>
            <rate>
              <ntsc>FALSE</ntsc>
              <timebase>25</timebase>
            </rate>
            <in>90987</in>
            <out>90989</out>
            <start>987</start>
            <end>989</end>
            <pixelaspectratio>Square</pixelaspectratio>
            <stillframe>TRUE</stillframe>
            <anamorphic>FALSE</anamorphic>
            <alphatype>straight</alphatype>
            <masterclipid>F.png260</masterclipid>
            <file id="F">
              <name>F.png</name>
              <pathurl>D:/Codes/SynthLip/SynthLipN/bin/Debug/net6.0-windows/Skin/template/F.png</pathurl>
              <rate>
                <ntsc>FALSE</ntsc>
                <timebase>25</timebase>
              </rate>
              <duration>2</duration>
              <width>1920</width>
              <height>1080</height>
              <media>
                <video>
                  <duration>2</duration>
                  <stillframe>TRUE</stillframe>
                  <samplecharacteristics>
                    <rate>
                      <ntsc>FALSE</ntsc>
                      <timebase>25</timebase>
                    </rate>
                    <width>1920</width>
                    <height>1080</height>
                    <pixelaspectratio>Square</pixelaspectratio>
                    <anamorphic>FALSE</anamorphic>
                  </samplecharacteristics>
                </video>
              </media>
            </file>
            <sourcetrack>
              <mediatype>video</mediatype>
            </sourcetrack>
            <fielddominance>none</fielddominance>
          </clipitem>
          <clipitem id="G.png259">
            <name>G.png</name>
            <duration>2</duration>
            <rate>
              <ntsc>FALSE</ntsc>
              <timebase>25</timebase>
            </rate>
            <in>90985</in>
            <out>90987</out>
            <start>985</start>
            <end>987</end>
            <pixelaspectratio>Square</pixelaspectratio>
            <stillframe>TRUE</stillframe>
            <anamorphic>FALSE</anamorphic>
            <alphatype>straight</alphatype>
            <masterclipid>G.png259</masterclipid>
            <file id="G">
              <name>G.png</name>
              <pathurl>D:/Codes/SynthLip/SynthLipN/bin/Debug/net6.0-windows/Skin/template/G.png</pathurl>
              <rate>
                <ntsc>FALSE</ntsc>
                <timebase>25</timebase>
              </rate>
              <duration>2</duration>
              <width>1920</width>
              <height>1080</height>
              <media>
                <video>
                  <duration>2</duration>
                  <stillframe>TRUE</stillframe>
                  <samplecharacteristics>
                    <rate>
                      <ntsc>FALSE</ntsc>
                      <timebase>25</timebase>
                    </rate>
                    <width>1920</width>
                    <height>1080</height>
                    <pixelaspectratio>Square</pixelaspectratio>
                    <anamorphic>FALSE</anamorphic>
                  </samplecharacteristics>
                </video>
              </media>
            </file>
            <sourcetrack>
              <mediatype>video</mediatype>
            </sourcetrack>
            <fielddominance>none</fielddominance>
          </clipitem>
          <clipitem id="A.png258">
            <name>A.png</name>
            <duration>2</duration>
            <rate>
              <ntsc>FALSE</ntsc>
              <timebase>25</timebase>
            </rate>
            <in>90982</in>
            <out>90984</out>
            <start>982</start>
            <end>984</end>
            <pixelaspectratio>Square</pixelaspectratio>
            <stillframe>TRUE</stillframe>
            <anamorphic>FALSE</anamorphic>
            <alphatype>straight</alphatype>
            <masterclipid>A.png258</masterclipid>
            <file id="A">
              <name>A.png</name>
              <pathurl>D:/Codes/SynthLip/SynthLipN/bin/Debug/net6.0-windows/Skin/template/A.png</pathurl>
              <rate>
                <ntsc>FALSE</ntsc>
                <timebase>25</timebase>
              </rate>
              <duration>2</duration>
              <width>1920</width>
              <height>1080</height>
              <media>
                <video>
                  <duration>2</duration>
                  <stillframe>TRUE</stillframe>
                  <samplecharacteristics>
                    <rate>
                      <ntsc>FALSE</ntsc>
                      <timebase>25</timebase>
                    </rate>
                    <width>1920</width>
                    <height>1080</height>
                    <pixelaspectratio>Square</pixelaspectratio>
                    <anamorphic>FALSE</anamorphic>
                  </samplecharacteristics>
                </video>
              </media>
            </file>
            <sourcetrack>
              <mediatype>video</mediatype>
            </sourcetrack>
            <fielddominance>none</fielddominance>
          </clipitem>
          <clipitem id="F.png257">
            <name>F.png</name>
            <duration>5</duration>
            <rate>
              <ntsc>FALSE</ntsc>
              <timebase>25</timebase>
            </rate>
            <in>90976</in>
            <out>90981</out>
            <start>976</start>
            <end>981</end>
            <pixelaspectratio>Square</pixelaspectratio>
            <stillframe>TRUE</stillframe>
            <anamorphic>FALSE</anamorphic>
            <alphatype>straight</alphatype>
            <masterclipid>F.png257</masterclipid>
            <file id="F">
              <name>F.png</name>
              <pathurl>D:/Codes/SynthLip/SynthLipN/bin/Debug/net6.0-windows/Skin/template/F.png</pathurl>
              <rate>
                <ntsc>FALSE</ntsc>
                <timebase>25</timebase>
              </rate>
              <duration>2</duration>
              <width>1920</width>
              <height>1080</height>
              <media>
                <video>
                  <duration>2</duration>
                  <stillframe>TRUE</stillframe>
                  <samplecharacteristics>
                    <rate>
                      <ntsc>FALSE</ntsc>
                      <timebase>25</timebase>
                    </rate>
                    <width>1920</width>
                    <height>1080</height>
                    <pixelaspectratio>Square</pixelaspectratio>
                    <anamorphic>FALSE</anamorphic>
                  </samplecharacteristics>
                </video>
              </media>
            </file>
            <sourcetrack>
              <mediatype>video</mediatype>
            </sourcetrack>
            <fielddominance>none</fielddominance>
          </clipitem>
          <clipitem id="B.png254">
            <name>B.png</name>
            <duration>1</duration>
            <rate>
              <ntsc>FALSE</ntsc>
              <timebase>25</timebase>
            </rate>
            <in>90973</in>
            <out>90974</out>
            <start>973</start>
            <end>974</end>
            <pixelaspectratio>Square</pixelaspectratio>
            <stillframe>TRUE</stillframe>
            <anamorphic>FALSE</anamorphic>
            <alphatype>straight</alphatype>
            <masterclipid>B.png254</masterclipid>
            <file id="B">
              <name>B.png</name>
              <pathurl>D:/Codes/SynthLip/SynthLipN/bin/Debug/net6.0-windows/Skin/template/B.png</pathurl>
              <rate>
                <ntsc>FALSE</ntsc>
                <timebase>25</timebase>
              </rate>
              <duration>2</duration>
              <width>1920</width>
              <height>1080</height>
              <media>
                <video>
                  <duration>2</duration>
                  <stillframe>TRUE</stillframe>
                  <samplecharacteristics>
                    <rate>
                      <ntsc>FALSE</ntsc>
                      <timebase>25</timebase>
                    </rate>
                    <width>1920</width>
                    <height>1080</height>
                    <pixelaspectratio>Square</pixelaspectratio>
                    <anamorphic>FALSE</anamorphic>
                  </samplecharacteristics>
                </video>
              </media>
            </file>
            <sourcetrack>
              <mediatype>video</mediatype>
            </sourcetrack>
            <fielddominance>none</fielddominance>
          </clipitem>
          <clipitem id="D.png253">
            <name>D.png</name>
            <duration>1</duration>
            <rate>
              <ntsc>FALSE</ntsc>
              <timebase>25</timebase>
            </rate>
            <in>90971</in>
            <out>90972</out>
            <start>971</start>
            <end>972</end>
            <pixelaspectratio>Square</pixelaspectratio>
            <stillframe>TRUE</stillframe>
            <anamorphic>FALSE</anamorphic>
            <alphatype>straight</alphatype>
            <masterclipid>D.png253</masterclipid>
            <file id="D">
              <name>D.png</name>
              <pathurl>D:/Codes/SynthLip/SynthLipN/bin/Debug/net6.0-windows/Skin/template/D.png</pathurl>
              <rate>
                <ntsc>FALSE</ntsc>
                <timebase>25</timebase>
              </rate>
              <duration>2</duration>
              <width>1920</width>
              <height>1080</height>
              <media>
                <video>
                  <duration>2</duration>
                  <stillframe>TRUE</stillframe>
                  <samplecharacteristics>
                    <rate>
                      <ntsc>FALSE</ntsc>
                      <timebase>25</timebase>
                    </rate>
                    <width>1920</width>
                    <height>1080</height>
                    <pixelaspectratio>Square</pixelaspectratio>
                    <anamorphic>FALSE</anamorphic>
                  </samplecharacteristics>
                </video>
              </media>
            </file>
            <sourcetrack>
              <mediatype>video</mediatype>
            </sourcetrack>
            <fielddominance>none</fielddominance>
          </clipitem>
          <clipitem id="B.png252">
            <name>B.png</name>
            <duration>1</duration>
            <rate>
              <ntsc>FALSE</ntsc>
              <timebase>25</timebase>
            </rate>
            <in>90969</in>
            <out>90970</out>
            <start>969</start>
            <end>970</end>
            <pixelaspectratio>Square</pixelaspectratio>
            <stillframe>TRUE</stillframe>
            <anamorphic>FALSE</anamorphic>
            <alphatype>straight</alphatype>
            <masterclipid>B.png252</masterclipid>
            <file id="B">
              <name>B.png</name>
              <pathurl>D:/Codes/SynthLip/SynthLipN/bin/Debug/net6.0-windows/Skin/template/B.png</pathurl>
              <rate>
                <ntsc>FALSE</ntsc>
                <timebase>25</timebase>
              </rate>
              <duration>2</duration>
              <width>1920</width>
              <height>1080</height>
              <media>
                <video>
                  <duration>2</duration>
                  <stillframe>TRUE</stillframe>
                  <samplecharacteristics>
                    <rate>
                      <ntsc>FALSE</ntsc>
                      <timebase>25</timebase>
                    </rate>
                    <width>1920</width>
                    <height>1080</height>
                    <pixelaspectratio>Square</pixelaspectratio>
                    <anamorphic>FALSE</anamorphic>
                  </samplecharacteristics>
                </video>
              </media>
            </file>
            <sourcetrack>
              <mediatype>video</mediatype>
            </sourcetrack>
            <fielddominance>none</fielddominance>
          </clipitem>
          <clipitem id="A.png251">
            <name>A.png</name>
            <duration>1</duration>
            <rate>
              <ntsc>FALSE</ntsc>
              <timebase>25</timebase>
            </rate>
            <in>90967</in>
            <out>90968</out>
            <start>967</start>
            <end>968</end>
            <pixelaspectratio>Square</pixelaspectratio>
            <stillframe>TRUE</stillframe>
            <anamorphic>FALSE</anamorphic>
            <alphatype>straight</alphatype>
            <masterclipid>A.png251</masterclipid>
            <file id="A">
              <name>A.png</name>
              <pathurl>D:/Codes/SynthLip/SynthLipN/bin/Debug/net6.0-windows/Skin/template/A.png</pathurl>
              <rate>
                <ntsc>FALSE</ntsc>
                <timebase>25</timebase>
              </rate>
              <duration>2</duration>
              <width>1920</width>
              <height>1080</height>
              <media>
                <video>
                  <duration>2</duration>
                  <stillframe>TRUE</stillframe>
                  <samplecharacteristics>
                    <rate>
                      <ntsc>FALSE</ntsc>
                      <timebase>25</timebase>
                    </rate>
                    <width>1920</width>
                    <height>1080</height>
                    <pixelaspectratio>Square</pixelaspectratio>
                    <anamorphic>FALSE</anamorphic>
                  </samplecharacteristics>
                </video>
              </media>
            </file>
            <sourcetrack>
              <mediatype>video</mediatype>
            </sourcetrack>
            <fielddominance>none</fielddominance>
          </clipitem>
          <clipitem id="B.png250">
            <name>B.png</name>
            <duration>5</duration>
            <rate>
              <ntsc>FALSE</ntsc>
              <timebase>25</timebase>
            </rate>
            <in>90961</in>
            <out>90966</out>
            <start>961</start>
            <end>966</end>
            <pixelaspectratio>Square</pixelaspectratio>
            <stillframe>TRUE</stillframe>
            <anamorphic>FALSE</anamorphic>
            <alphatype>straight</alphatype>
            <masterclipid>B.png250</masterclipid>
            <file id="B">
              <name>B.png</name>
              <pathurl>D:/Codes/SynthLip/SynthLipN/bin/Debug/net6.0-windows/Skin/template/B.png</pathurl>
              <rate>
                <ntsc>FALSE</ntsc>
                <timebase>25</timebase>
              </rate>
              <duration>2</duration>
              <width>1920</width>
              <height>1080</height>
              <media>
                <video>
                  <duration>2</duration>
                  <stillframe>TRUE</stillframe>
                  <samplecharacteristics>
                    <rate>
                      <ntsc>FALSE</ntsc>
                      <timebase>25</timebase>
                    </rate>
                    <width>1920</width>
                    <height>1080</height>
                    <pixelaspectratio>Square</pixelaspectratio>
                    <anamorphic>FALSE</anamorphic>
                  </samplecharacteristics>
                </video>
              </media>
            </file>
            <sourcetrack>
              <mediatype>video</mediatype>
            </sourcetrack>
            <fielddominance>none</fielddominance>
          </clipitem>
          <clipitem id="D.png246">
            <name>D.png</name>
            <duration>15</duration>
            <rate>
              <ntsc>FALSE</ntsc>
              <timebase>25</timebase>
            </rate>
            <in>90944</in>
            <out>90959</out>
            <start>944</start>
            <end>959</end>
            <pixelaspectratio>Square</pixelaspectratio>
            <stillframe>TRUE</stillframe>
            <anamorphic>FALSE</anamorphic>
            <alphatype>straight</alphatype>
            <masterclipid>D.png246</masterclipid>
            <file id="D">
              <name>D.png</name>
              <pathurl>D:/Codes/SynthLip/SynthLipN/bin/Debug/net6.0-windows/Skin/template/D.png</pathurl>
              <rate>
                <ntsc>FALSE</ntsc>
                <timebase>25</timebase>
              </rate>
              <duration>2</duration>
              <width>1920</width>
              <height>1080</height>
              <media>
                <video>
                  <duration>2</duration>
                  <stillframe>TRUE</stillframe>
                  <samplecharacteristics>
                    <rate>
                      <ntsc>FALSE</ntsc>
                      <timebase>25</timebase>
                    </rate>
                    <width>1920</width>
                    <height>1080</height>
                    <pixelaspectratio>Square</pixelaspectratio>
                    <anamorphic>FALSE</anamorphic>
                  </samplecharacteristics>
                </video>
              </media>
            </file>
            <sourcetrack>
              <mediatype>video</mediatype>
            </sourcetrack>
            <fielddominance>none</fielddominance>
          </clipitem>
          <clipitem id="D.png245">
            <name>D.png</name>
            <duration>4</duration>
            <rate>
              <ntsc>FALSE</ntsc>
              <timebase>25</timebase>
            </rate>
            <in>90940</in>
            <out>90944</out>
            <start>940</start>
            <end>944</end>
            <pixelaspectratio>Square</pixelaspectratio>
            <stillframe>TRUE</stillframe>
            <anamorphic>FALSE</anamorphic>
            <alphatype>straight</alphatype>
            <masterclipid>D.png245</masterclipid>
            <file id="D">
              <name>D.png</name>
              <pathurl>D:/Codes/SynthLip/SynthLipN/bin/Debug/net6.0-windows/Skin/template/D.png</pathurl>
              <rate>
                <ntsc>FALSE</ntsc>
                <timebase>25</timebase>
              </rate>
              <duration>2</duration>
              <width>1920</width>
              <height>1080</height>
              <media>
                <video>
                  <duration>2</duration>
                  <stillframe>TRUE</stillframe>
                  <samplecharacteristics>
                    <rate>
                      <ntsc>FALSE</ntsc>
                      <timebase>25</timebase>
                    </rate>
                    <width>1920</width>
                    <height>1080</height>
                    <pixelaspectratio>Square</pixelaspectratio>
                    <anamorphic>FALSE</anamorphic>
                  </samplecharacteristics>
                </video>
              </media>
            </file>
            <sourcetrack>
              <mediatype>video</mediatype>
            </sourcetrack>
            <fielddominance>none</fielddominance>
          </clipitem>
          <clipitem id="F.png244">
            <name>F.png</name>
            <duration>5</duration>
            <rate>
              <ntsc>FALSE</ntsc>
              <timebase>25</timebase>
            </rate>
            <in>90935</in>
            <out>90940</out>
            <start>935</start>
            <end>940</end>
            <pixelaspectratio>Square</pixelaspectratio>
            <stillframe>TRUE</stillframe>
            <anamorphic>FALSE</anamorphic>
            <alphatype>straight</alphatype>
            <masterclipid>F.png244</masterclipid>
            <file id="F">
              <name>F.png</name>
              <pathurl>D:/Codes/SynthLip/SynthLipN/bin/Debug/net6.0-windows/Skin/template/F.png</pathurl>
              <rate>
                <ntsc>FALSE</ntsc>
                <timebase>25</timebase>
              </rate>
              <duration>2</duration>
              <width>1920</width>
              <height>1080</height>
              <media>
                <video>
                  <duration>2</duration>
                  <stillframe>TRUE</stillframe>
                  <samplecharacteristics>
                    <rate>
                      <ntsc>FALSE</ntsc>
                      <timebase>25</timebase>
                    </rate>
                    <width>1920</width>
                    <height>1080</height>
                    <pixelaspectratio>Square</pixelaspectratio>
                    <anamorphic>FALSE</anamorphic>
                  </samplecharacteristics>
                </video>
              </media>
            </file>
            <sourcetrack>
              <mediatype>video</mediatype>
            </sourcetrack>
            <fielddominance>none</fielddominance>
          </clipitem>
          <clipitem id="A.png243">
            <name>A.png</name>
            <duration>4</duration>
            <rate>
              <ntsc>FALSE</ntsc>
              <timebase>25</timebase>
            </rate>
            <in>90930</in>
            <out>90934</out>
            <start>930</start>
            <end>934</end>
            <pixelaspectratio>Square</pixelaspectratio>
            <stillframe>TRUE</stillframe>
            <anamorphic>FALSE</anamorphic>
            <alphatype>straight</alphatype>
            <masterclipid>A.png243</masterclipid>
            <file id="A">
              <name>A.png</name>
              <pathurl>D:/Codes/SynthLip/SynthLipN/bin/Debug/net6.0-windows/Skin/template/A.png</pathurl>
              <rate>
                <ntsc>FALSE</ntsc>
                <timebase>25</timebase>
              </rate>
              <duration>2</duration>
              <width>1920</width>
              <height>1080</height>
              <media>
                <video>
                  <duration>2</duration>
                  <stillframe>TRUE</stillframe>
                  <samplecharacteristics>
                    <rate>
                      <ntsc>FALSE</ntsc>
                      <timebase>25</timebase>
                    </rate>
                    <width>1920</width>
                    <height>1080</height>
                    <pixelaspectratio>Square</pixelaspectratio>
                    <anamorphic>FALSE</anamorphic>
                  </samplecharacteristics>
                </video>
              </media>
            </file>
            <sourcetrack>
              <mediatype>video</mediatype>
            </sourcetrack>
            <fielddominance>none</fielddominance>
          </clipitem>
          <clipitem id="A.png242">
            <name>A.png</name>
            <duration>3</duration>
            <rate>
              <ntsc>FALSE</ntsc>
              <timebase>25</timebase>
            </rate>
            <in>90926</in>
            <out>90929</out>
            <start>926</start>
            <end>929</end>
            <pixelaspectratio>Square</pixelaspectratio>
            <stillframe>TRUE</stillframe>
            <anamorphic>FALSE</anamorphic>
            <alphatype>straight</alphatype>
            <masterclipid>A.png242</masterclipid>
            <file id="A">
              <name>A.png</name>
              <pathurl>D:/Codes/SynthLip/SynthLipN/bin/Debug/net6.0-windows/Skin/template/A.png</pathurl>
              <rate>
                <ntsc>FALSE</ntsc>
                <timebase>25</timebase>
              </rate>
              <duration>2</duration>
              <width>1920</width>
              <height>1080</height>
              <media>
                <video>
                  <duration>2</duration>
                  <stillframe>TRUE</stillframe>
                  <samplecharacteristics>
                    <rate>
                      <ntsc>FALSE</ntsc>
                      <timebase>25</timebase>
                    </rate>
                    <width>1920</width>
                    <height>1080</height>
                    <pixelaspectratio>Square</pixelaspectratio>
                    <anamorphic>FALSE</anamorphic>
                  </samplecharacteristics>
                </video>
              </media>
            </file>
            <sourcetrack>
              <mediatype>video</mediatype>
            </sourcetrack>
            <fielddominance>none</fielddominance>
          </clipitem>
          <clipitem id="G.png241">
            <name>G.png</name>
            <duration>1</duration>
            <rate>
              <ntsc>FALSE</ntsc>
              <timebase>25</timebase>
            </rate>
            <in>90924</in>
            <out>90925</out>
            <start>924</start>
            <end>925</end>
            <pixelaspectratio>Square</pixelaspectratio>
            <stillframe>TRUE</stillframe>
            <anamorphic>FALSE</anamorphic>
            <alphatype>straight</alphatype>
            <masterclipid>G.png241</masterclipid>
            <file id="G">
              <name>G.png</name>
              <pathurl>D:/Codes/SynthLip/SynthLipN/bin/Debug/net6.0-windows/Skin/template/G.png</pathurl>
              <rate>
                <ntsc>FALSE</ntsc>
                <timebase>25</timebase>
              </rate>
              <duration>2</duration>
              <width>1920</width>
              <height>1080</height>
              <media>
                <video>
                  <duration>2</duration>
                  <stillframe>TRUE</stillframe>
                  <samplecharacteristics>
                    <rate>
                      <ntsc>FALSE</ntsc>
                      <timebase>25</timebase>
                    </rate>
                    <width>1920</width>
                    <height>1080</height>
                    <pixelaspectratio>Square</pixelaspectratio>
                    <anamorphic>FALSE</anamorphic>
                  </samplecharacteristics>
                </video>
              </media>
            </file>
            <sourcetrack>
              <mediatype>video</mediatype>
            </sourcetrack>
            <fielddominance>none</fielddominance>
          </clipitem>
          <clipitem id="C.png236">
            <name>C.png</name>
            <duration>5</duration>
            <rate>
              <ntsc>FALSE</ntsc>
              <timebase>25</timebase>
            </rate>
            <in>90916</in>
            <out>90921</out>
            <start>916</start>
            <end>921</end>
            <pixelaspectratio>Square</pixelaspectratio>
            <stillframe>TRUE</stillframe>
            <anamorphic>FALSE</anamorphic>
            <alphatype>straight</alphatype>
            <masterclipid>C.png236</masterclipid>
            <file id="C">
              <name>C.png</name>
              <pathurl>D:/Codes/SynthLip/SynthLipN/bin/Debug/net6.0-windows/Skin/template/C.png</pathurl>
              <rate>
                <ntsc>FALSE</ntsc>
                <timebase>25</timebase>
              </rate>
              <duration>2</duration>
              <width>1920</width>
              <height>1080</height>
              <media>
                <video>
                  <duration>2</duration>
                  <stillframe>TRUE</stillframe>
                  <samplecharacteristics>
                    <rate>
                      <ntsc>FALSE</ntsc>
                      <timebase>25</timebase>
                    </rate>
                    <width>1920</width>
                    <height>1080</height>
                    <pixelaspectratio>Square</pixelaspectratio>
                    <anamorphic>FALSE</anamorphic>
                  </samplecharacteristics>
                </video>
              </media>
            </file>
            <sourcetrack>
              <mediatype>video</mediatype>
            </sourcetrack>
            <fielddominance>none</fielddominance>
          </clipitem>
          <clipitem id="A.png234">
            <name>A.png</name>
            <duration>6</duration>
            <rate>
              <ntsc>FALSE</ntsc>
              <timebase>25</timebase>
            </rate>
            <in>90909</in>
            <out>90915</out>
            <start>909</start>
            <end>915</end>
            <pixelaspectratio>Square</pixelaspectratio>
            <stillframe>TRUE</stillframe>
            <anamorphic>FALSE</anamorphic>
            <alphatype>straight</alphatype>
            <masterclipid>A.png234</masterclipid>
            <file id="A">
              <name>A.png</name>
              <pathurl>D:/Codes/SynthLip/SynthLipN/bin/Debug/net6.0-windows/Skin/template/A.png</pathurl>
              <rate>
                <ntsc>FALSE</ntsc>
                <timebase>25</timebase>
              </rate>
              <duration>2</duration>
              <width>1920</width>
              <height>1080</height>
              <media>
                <video>
                  <duration>2</duration>
                  <stillframe>TRUE</stillframe>
                  <samplecharacteristics>
                    <rate>
                      <ntsc>FALSE</ntsc>
                      <timebase>25</timebase>
                    </rate>
                    <width>1920</width>
                    <height>1080</height>
                    <pixelaspectratio>Square</pixelaspectratio>
                    <anamorphic>FALSE</anamorphic>
                  </samplecharacteristics>
                </video>
              </media>
            </file>
            <sourcetrack>
              <mediatype>video</mediatype>
            </sourcetrack>
            <fielddominance>none</fielddominance>
          </clipitem>
          <clipitem id="B.png233">
            <name>B.png</name>
            <duration>7</duration>
            <rate>
              <ntsc>FALSE</ntsc>
              <timebase>25</timebase>
            </rate>
            <in>90901</in>
            <out>90908</out>
            <start>901</start>
            <end>908</end>
            <pixelaspectratio>Square</pixelaspectratio>
            <stillframe>TRUE</stillframe>
            <anamorphic>FALSE</anamorphic>
            <alphatype>straight</alphatype>
            <masterclipid>B.png233</masterclipid>
            <file id="B">
              <name>B.png</name>
              <pathurl>D:/Codes/SynthLip/SynthLipN/bin/Debug/net6.0-windows/Skin/template/B.png</pathurl>
              <rate>
                <ntsc>FALSE</ntsc>
                <timebase>25</timebase>
              </rate>
              <duration>2</duration>
              <width>1920</width>
              <height>1080</height>
              <media>
                <video>
                  <duration>2</duration>
                  <stillframe>TRUE</stillframe>
                  <samplecharacteristics>
                    <rate>
                      <ntsc>FALSE</ntsc>
                      <timebase>25</timebase>
                    </rate>
                    <width>1920</width>
                    <height>1080</height>
                    <pixelaspectratio>Square</pixelaspectratio>
                    <anamorphic>FALSE</anamorphic>
                  </samplecharacteristics>
                </video>
              </media>
            </file>
            <sourcetrack>
              <mediatype>video</mediatype>
            </sourcetrack>
            <fielddominance>none</fielddominance>
          </clipitem>
          <clipitem id="F.png229">
            <name>F.png</name>
            <duration>2</duration>
            <rate>
              <ntsc>FALSE</ntsc>
              <timebase>25</timebase>
            </rate>
            <in>90897</in>
            <out>90899</out>
            <start>897</start>
            <end>899</end>
            <pixelaspectratio>Square</pixelaspectratio>
            <stillframe>TRUE</stillframe>
            <anamorphic>FALSE</anamorphic>
            <alphatype>straight</alphatype>
            <masterclipid>F.png229</masterclipid>
            <file id="F">
              <name>F.png</name>
              <pathurl>D:/Codes/SynthLip/SynthLipN/bin/Debug/net6.0-windows/Skin/template/F.png</pathurl>
              <rate>
                <ntsc>FALSE</ntsc>
                <timebase>25</timebase>
              </rate>
              <duration>2</duration>
              <width>1920</width>
              <height>1080</height>
              <media>
                <video>
                  <duration>2</duration>
                  <stillframe>TRUE</stillframe>
                  <samplecharacteristics>
                    <rate>
                      <ntsc>FALSE</ntsc>
                      <timebase>25</timebase>
                    </rate>
                    <width>1920</width>
                    <height>1080</height>
                    <pixelaspectratio>Square</pixelaspectratio>
                    <anamorphic>FALSE</anamorphic>
                  </samplecharacteristics>
                </video>
              </media>
            </file>
            <sourcetrack>
              <mediatype>video</mediatype>
            </sourcetrack>
            <fielddominance>none</fielddominance>
          </clipitem>
          <clipitem id="H.png228">
            <name>H.png</name>
            <duration>2</duration>
            <rate>
              <ntsc>FALSE</ntsc>
              <timebase>25</timebase>
            </rate>
            <in>90895</in>
            <out>90897</out>
            <start>895</start>
            <end>897</end>
            <pixelaspectratio>Square</pixelaspectratio>
            <stillframe>TRUE</stillframe>
            <anamorphic>FALSE</anamorphic>
            <alphatype>straight</alphatype>
            <masterclipid>H.png228</masterclipid>
            <file id="H">
              <name>H.png</name>
              <pathurl>D:/Codes/SynthLip/SynthLipN/bin/Debug/net6.0-windows/Skin/template/H.png</pathurl>
              <rate>
                <ntsc>FALSE</ntsc>
                <timebase>25</timebase>
              </rate>
              <duration>2</duration>
              <width>1920</width>
              <height>1080</height>
              <media>
                <video>
                  <duration>2</duration>
                  <stillframe>TRUE</stillframe>
                  <samplecharacteristics>
                    <rate>
                      <ntsc>FALSE</ntsc>
                      <timebase>25</timebase>
                    </rate>
                    <width>1920</width>
                    <height>1080</height>
                    <pixelaspectratio>Square</pixelaspectratio>
                    <anamorphic>FALSE</anamorphic>
                  </samplecharacteristics>
                </video>
              </media>
            </file>
            <sourcetrack>
              <mediatype>video</mediatype>
            </sourcetrack>
            <fielddominance>none</fielddominance>
          </clipitem>
          <clipitem id="F.png227">
            <name>F.png</name>
            <duration>2</duration>
            <rate>
              <ntsc>FALSE</ntsc>
              <timebase>25</timebase>
            </rate>
            <in>90892</in>
            <out>90894</out>
            <start>892</start>
            <end>894</end>
            <pixelaspectratio>Square</pixelaspectratio>
            <stillframe>TRUE</stillframe>
            <anamorphic>FALSE</anamorphic>
            <alphatype>straight</alphatype>
            <masterclipid>F.png227</masterclipid>
            <file id="F">
              <name>F.png</name>
              <pathurl>D:/Codes/SynthLip/SynthLipN/bin/Debug/net6.0-windows/Skin/template/F.png</pathurl>
              <rate>
                <ntsc>FALSE</ntsc>
                <timebase>25</timebase>
              </rate>
              <duration>2</duration>
              <width>1920</width>
              <height>1080</height>
              <media>
                <video>
                  <duration>2</duration>
                  <stillframe>TRUE</stillframe>
                  <samplecharacteristics>
                    <rate>
                      <ntsc>FALSE</ntsc>
                      <timebase>25</timebase>
                    </rate>
                    <width>1920</width>
                    <height>1080</height>
                    <pixelaspectratio>Square</pixelaspectratio>
                    <anamorphic>FALSE</anamorphic>
                  </samplecharacteristics>
                </video>
              </media>
            </file>
            <sourcetrack>
              <mediatype>video</mediatype>
            </sourcetrack>
            <fielddominance>none</fielddominance>
          </clipitem>
          <clipitem id="B.png226">
            <name>B.png</name>
            <duration>3</duration>
            <rate>
              <ntsc>FALSE</ntsc>
              <timebase>25</timebase>
            </rate>
            <in>90888</in>
            <out>90891</out>
            <start>888</start>
            <end>891</end>
            <pixelaspectratio>Square</pixelaspectratio>
            <stillframe>TRUE</stillframe>
            <anamorphic>FALSE</anamorphic>
            <alphatype>straight</alphatype>
            <masterclipid>B.png226</masterclipid>
            <file id="B">
              <name>B.png</name>
              <pathurl>D:/Codes/SynthLip/SynthLipN/bin/Debug/net6.0-windows/Skin/template/B.png</pathurl>
              <rate>
                <ntsc>FALSE</ntsc>
                <timebase>25</timebase>
              </rate>
              <duration>2</duration>
              <width>1920</width>
              <height>1080</height>
              <media>
                <video>
                  <duration>2</duration>
                  <stillframe>TRUE</stillframe>
                  <samplecharacteristics>
                    <rate>
                      <ntsc>FALSE</ntsc>
                      <timebase>25</timebase>
                    </rate>
                    <width>1920</width>
                    <height>1080</height>
                    <pixelaspectratio>Square</pixelaspectratio>
                    <anamorphic>FALSE</anamorphic>
                  </samplecharacteristics>
                </video>
              </media>
            </file>
            <sourcetrack>
              <mediatype>video</mediatype>
            </sourcetrack>
            <fielddominance>none</fielddominance>
          </clipitem>
          <clipitem id="A.png225">
            <name>A.png</name>
            <duration>3</duration>
            <rate>
              <ntsc>FALSE</ntsc>
              <timebase>25</timebase>
            </rate>
            <in>90885</in>
            <out>90888</out>
            <start>885</start>
            <end>888</end>
            <pixelaspectratio>Square</pixelaspectratio>
            <stillframe>TRUE</stillframe>
            <anamorphic>FALSE</anamorphic>
            <alphatype>straight</alphatype>
            <masterclipid>A.png225</masterclipid>
            <file id="A">
              <name>A.png</name>
              <pathurl>D:/Codes/SynthLip/SynthLipN/bin/Debug/net6.0-windows/Skin/template/A.png</pathurl>
              <rate>
                <ntsc>FALSE</ntsc>
                <timebase>25</timebase>
              </rate>
              <duration>2</duration>
              <width>1920</width>
              <height>1080</height>
              <media>
                <video>
                  <duration>2</duration>
                  <stillframe>TRUE</stillframe>
                  <samplecharacteristics>
                    <rate>
                      <ntsc>FALSE</ntsc>
                      <timebase>25</timebase>
                    </rate>
                    <width>1920</width>
                    <height>1080</height>
                    <pixelaspectratio>Square</pixelaspectratio>
                    <anamorphic>FALSE</anamorphic>
                  </samplecharacteristics>
                </video>
              </media>
            </file>
            <sourcetrack>
              <mediatype>video</mediatype>
            </sourcetrack>
            <fielddominance>none</fielddominance>
          </clipitem>
          <clipitem id="C.png224">
            <name>C.png</name>
            <duration>5</duration>
            <rate>
              <ntsc>FALSE</ntsc>
              <timebase>25</timebase>
            </rate>
            <in>90879</in>
            <out>90884</out>
            <start>879</start>
            <end>884</end>
            <pixelaspectratio>Square</pixelaspectratio>
            <stillframe>TRUE</stillframe>
            <anamorphic>FALSE</anamorphic>
            <alphatype>straight</alphatype>
            <masterclipid>C.png224</masterclipid>
            <file id="C">
              <name>C.png</name>
              <pathurl>D:/Codes/SynthLip/SynthLipN/bin/Debug/net6.0-windows/Skin/template/C.png</pathurl>
              <rate>
                <ntsc>FALSE</ntsc>
                <timebase>25</timebase>
              </rate>
              <duration>2</duration>
              <width>1920</width>
              <height>1080</height>
              <media>
                <video>
                  <duration>2</duration>
                  <stillframe>TRUE</stillframe>
                  <samplecharacteristics>
                    <rate>
                      <ntsc>FALSE</ntsc>
                      <timebase>25</timebase>
                    </rate>
                    <width>1920</width>
                    <height>1080</height>
                    <pixelaspectratio>Square</pixelaspectratio>
                    <anamorphic>FALSE</anamorphic>
                  </samplecharacteristics>
                </video>
              </media>
            </file>
            <sourcetrack>
              <mediatype>video</mediatype>
            </sourcetrack>
            <fielddominance>none</fielddominance>
          </clipitem>
          <clipitem id="F.png220">
            <name>F.png</name>
            <duration>2</duration>
            <rate>
              <ntsc>FALSE</ntsc>
              <timebase>25</timebase>
            </rate>
            <in>90875</in>
            <out>90877</out>
            <start>875</start>
            <end>877</end>
            <pixelaspectratio>Square</pixelaspectratio>
            <stillframe>TRUE</stillframe>
            <anamorphic>FALSE</anamorphic>
            <alphatype>straight</alphatype>
            <masterclipid>F.png220</masterclipid>
            <file id="F">
              <name>F.png</name>
              <pathurl>D:/Codes/SynthLip/SynthLipN/bin/Debug/net6.0-windows/Skin/template/F.png</pathurl>
              <rate>
                <ntsc>FALSE</ntsc>
                <timebase>25</timebase>
              </rate>
              <duration>2</duration>
              <width>1920</width>
              <height>1080</height>
              <media>
                <video>
                  <duration>2</duration>
                  <stillframe>TRUE</stillframe>
                  <samplecharacteristics>
                    <rate>
                      <ntsc>FALSE</ntsc>
                      <timebase>25</timebase>
                    </rate>
                    <width>1920</width>
                    <height>1080</height>
                    <pixelaspectratio>Square</pixelaspectratio>
                    <anamorphic>FALSE</anamorphic>
                  </samplecharacteristics>
                </video>
              </media>
            </file>
            <sourcetrack>
              <mediatype>video</mediatype>
            </sourcetrack>
            <fielddominance>none</fielddominance>
          </clipitem>
          <clipitem id="B.png219">
            <name>B.png</name>
            <duration>2</duration>
            <rate>
              <ntsc>FALSE</ntsc>
              <timebase>25</timebase>
            </rate>
            <in>90872</in>
            <out>90874</out>
            <start>872</start>
            <end>874</end>
            <pixelaspectratio>Square</pixelaspectratio>
            <stillframe>TRUE</stillframe>
            <anamorphic>FALSE</anamorphic>
            <alphatype>straight</alphatype>
            <masterclipid>B.png219</masterclipid>
            <file id="B">
              <name>B.png</name>
              <pathurl>D:/Codes/SynthLip/SynthLipN/bin/Debug/net6.0-windows/Skin/template/B.png</pathurl>
              <rate>
                <ntsc>FALSE</ntsc>
                <timebase>25</timebase>
              </rate>
              <duration>2</duration>
              <width>1920</width>
              <height>1080</height>
              <media>
                <video>
                  <duration>2</duration>
                  <stillframe>TRUE</stillframe>
                  <samplecharacteristics>
                    <rate>
                      <ntsc>FALSE</ntsc>
                      <timebase>25</timebase>
                    </rate>
                    <width>1920</width>
                    <height>1080</height>
                    <pixelaspectratio>Square</pixelaspectratio>
                    <anamorphic>FALSE</anamorphic>
                  </samplecharacteristics>
                </video>
              </media>
            </file>
            <sourcetrack>
              <mediatype>video</mediatype>
            </sourcetrack>
            <fielddominance>none</fielddominance>
          </clipitem>
          <clipitem id="A.png218">
            <name>A.png</name>
            <duration>2</duration>
            <rate>
              <ntsc>FALSE</ntsc>
              <timebase>25</timebase>
            </rate>
            <in>90869</in>
            <out>90871</out>
            <start>869</start>
            <end>871</end>
            <pixelaspectratio>Square</pixelaspectratio>
            <stillframe>TRUE</stillframe>
            <anamorphic>FALSE</anamorphic>
            <alphatype>straight</alphatype>
            <masterclipid>A.png218</masterclipid>
            <file id="A">
              <name>A.png</name>
              <pathurl>D:/Codes/SynthLip/SynthLipN/bin/Debug/net6.0-windows/Skin/template/A.png</pathurl>
              <rate>
                <ntsc>FALSE</ntsc>
                <timebase>25</timebase>
              </rate>
              <duration>2</duration>
              <width>1920</width>
              <height>1080</height>
              <media>
                <video>
                  <duration>2</duration>
                  <stillframe>TRUE</stillframe>
                  <samplecharacteristics>
                    <rate>
                      <ntsc>FALSE</ntsc>
                      <timebase>25</timebase>
                    </rate>
                    <width>1920</width>
                    <height>1080</height>
                    <pixelaspectratio>Square</pixelaspectratio>
                    <anamorphic>FALSE</anamorphic>
                  </samplecharacteristics>
                </video>
              </media>
            </file>
            <sourcetrack>
              <mediatype>video</mediatype>
            </sourcetrack>
            <fielddominance>none</fielddominance>
          </clipitem>
          <clipitem id="C.png217">
            <name>C.png</name>
            <duration>1</duration>
            <rate>
              <ntsc>FALSE</ntsc>
              <timebase>25</timebase>
            </rate>
            <in>90868</in>
            <out>90869</out>
            <start>868</start>
            <end>869</end>
            <pixelaspectratio>Square</pixelaspectratio>
            <stillframe>TRUE</stillframe>
            <anamorphic>FALSE</anamorphic>
            <alphatype>straight</alphatype>
            <masterclipid>C.png217</masterclipid>
            <file id="C">
              <name>C.png</name>
              <pathurl>D:/Codes/SynthLip/SynthLipN/bin/Debug/net6.0-windows/Skin/template/C.png</pathurl>
              <rate>
                <ntsc>FALSE</ntsc>
                <timebase>25</timebase>
              </rate>
              <duration>2</duration>
              <width>1920</width>
              <height>1080</height>
              <media>
                <video>
                  <duration>2</duration>
                  <stillframe>TRUE</stillframe>
                  <samplecharacteristics>
                    <rate>
                      <ntsc>FALSE</ntsc>
                      <timebase>25</timebase>
                    </rate>
                    <width>1920</width>
                    <height>1080</height>
                    <pixelaspectratio>Square</pixelaspectratio>
                    <anamorphic>FALSE</anamorphic>
                  </samplecharacteristics>
                </video>
              </media>
            </file>
            <sourcetrack>
              <mediatype>video</mediatype>
            </sourcetrack>
            <fielddominance>none</fielddominance>
          </clipitem>
          <clipitem id="A.png216">
            <name>A.png</name>
            <duration>1</duration>
            <rate>
              <ntsc>FALSE</ntsc>
              <timebase>25</timebase>
            </rate>
            <in>90866</in>
            <out>90867</out>
            <start>866</start>
            <end>867</end>
            <pixelaspectratio>Square</pixelaspectratio>
            <stillframe>TRUE</stillframe>
            <anamorphic>FALSE</anamorphic>
            <alphatype>straight</alphatype>
            <masterclipid>A.png216</masterclipid>
            <file id="A">
              <name>A.png</name>
              <pathurl>D:/Codes/SynthLip/SynthLipN/bin/Debug/net6.0-windows/Skin/template/A.png</pathurl>
              <rate>
                <ntsc>FALSE</ntsc>
                <timebase>25</timebase>
              </rate>
              <duration>2</duration>
              <width>1920</width>
              <height>1080</height>
              <media>
                <video>
                  <duration>2</duration>
                  <stillframe>TRUE</stillframe>
                  <samplecharacteristics>
                    <rate>
                      <ntsc>FALSE</ntsc>
                      <timebase>25</timebase>
                    </rate>
                    <width>1920</width>
                    <height>1080</height>
                    <pixelaspectratio>Square</pixelaspectratio>
                    <anamorphic>FALSE</anamorphic>
                  </samplecharacteristics>
                </video>
              </media>
            </file>
            <sourcetrack>
              <mediatype>video</mediatype>
            </sourcetrack>
            <fielddominance>none</fielddominance>
          </clipitem>
          <clipitem id="B.png215">
            <name>B.png</name>
            <duration>1</duration>
            <rate>
              <ntsc>FALSE</ntsc>
              <timebase>25</timebase>
            </rate>
            <in>90864</in>
            <out>90865</out>
            <start>864</start>
            <end>865</end>
            <pixelaspectratio>Square</pixelaspectratio>
            <stillframe>TRUE</stillframe>
            <anamorphic>FALSE</anamorphic>
            <alphatype>straight</alphatype>
            <masterclipid>B.png215</masterclipid>
            <file id="B">
              <name>B.png</name>
              <pathurl>D:/Codes/SynthLip/SynthLipN/bin/Debug/net6.0-windows/Skin/template/B.png</pathurl>
              <rate>
                <ntsc>FALSE</ntsc>
                <timebase>25</timebase>
              </rate>
              <duration>2</duration>
              <width>1920</width>
              <height>1080</height>
              <media>
                <video>
                  <duration>2</duration>
                  <stillframe>TRUE</stillframe>
                  <samplecharacteristics>
                    <rate>
                      <ntsc>FALSE</ntsc>
                      <timebase>25</timebase>
                    </rate>
                    <width>1920</width>
                    <height>1080</height>
                    <pixelaspectratio>Square</pixelaspectratio>
                    <anamorphic>FALSE</anamorphic>
                  </samplecharacteristics>
                </video>
              </media>
            </file>
            <sourcetrack>
              <mediatype>video</mediatype>
            </sourcetrack>
            <fielddominance>none</fielddominance>
          </clipitem>
          <clipitem id="B.png211">
            <name>B.png</name>
            <duration>5</duration>
            <rate>
              <ntsc>FALSE</ntsc>
              <timebase>25</timebase>
            </rate>
            <in>90856</in>
            <out>90861</out>
            <start>856</start>
            <end>861</end>
            <pixelaspectratio>Square</pixelaspectratio>
            <stillframe>TRUE</stillframe>
            <anamorphic>FALSE</anamorphic>
            <alphatype>straight</alphatype>
            <masterclipid>B.png211</masterclipid>
            <file id="B">
              <name>B.png</name>
              <pathurl>D:/Codes/SynthLip/SynthLipN/bin/Debug/net6.0-windows/Skin/template/B.png</pathurl>
              <rate>
                <ntsc>FALSE</ntsc>
                <timebase>25</timebase>
              </rate>
              <duration>2</duration>
              <width>1920</width>
              <height>1080</height>
              <media>
                <video>
                  <duration>2</duration>
                  <stillframe>TRUE</stillframe>
                  <samplecharacteristics>
                    <rate>
                      <ntsc>FALSE</ntsc>
                      <timebase>25</timebase>
                    </rate>
                    <width>1920</width>
                    <height>1080</height>
                    <pixelaspectratio>Square</pixelaspectratio>
                    <anamorphic>FALSE</anamorphic>
                  </samplecharacteristics>
                </video>
              </media>
            </file>
            <sourcetrack>
              <mediatype>video</mediatype>
            </sourcetrack>
            <fielddominance>none</fielddominance>
          </clipitem>
          <clipitem id="B.png207">
            <name>B.png</name>
            <duration>5</duration>
            <rate>
              <ntsc>FALSE</ntsc>
              <timebase>25</timebase>
            </rate>
            <in>90849</in>
            <out>90854</out>
            <start>849</start>
            <end>854</end>
            <pixelaspectratio>Square</pixelaspectratio>
            <stillframe>TRUE</stillframe>
            <anamorphic>FALSE</anamorphic>
            <alphatype>straight</alphatype>
            <masterclipid>B.png207</masterclipid>
            <file id="B">
              <name>B.png</name>
              <pathurl>D:/Codes/SynthLip/SynthLipN/bin/Debug/net6.0-windows/Skin/template/B.png</pathurl>
              <rate>
                <ntsc>FALSE</ntsc>
                <timebase>25</timebase>
              </rate>
              <duration>2</duration>
              <width>1920</width>
              <height>1080</height>
              <media>
                <video>
                  <duration>2</duration>
                  <stillframe>TRUE</stillframe>
                  <samplecharacteristics>
                    <rate>
                      <ntsc>FALSE</ntsc>
                      <timebase>25</timebase>
                    </rate>
                    <width>1920</width>
                    <height>1080</height>
                    <pixelaspectratio>Square</pixelaspectratio>
                    <anamorphic>FALSE</anamorphic>
                  </samplecharacteristics>
                </video>
              </media>
            </file>
            <sourcetrack>
              <mediatype>video</mediatype>
            </sourcetrack>
            <fielddominance>none</fielddominance>
          </clipitem>
          <clipitem id="G.png203">
            <name>G.png</name>
            <duration>3</duration>
            <rate>
              <ntsc>FALSE</ntsc>
              <timebase>25</timebase>
            </rate>
            <in>90843</in>
            <out>90846</out>
            <start>843</start>
            <end>846</end>
            <pixelaspectratio>Square</pixelaspectratio>
            <stillframe>TRUE</stillframe>
            <anamorphic>FALSE</anamorphic>
            <alphatype>straight</alphatype>
            <masterclipid>G.png203</masterclipid>
            <file id="G">
              <name>G.png</name>
              <pathurl>D:/Codes/SynthLip/SynthLipN/bin/Debug/net6.0-windows/Skin/template/G.png</pathurl>
              <rate>
                <ntsc>FALSE</ntsc>
                <timebase>25</timebase>
              </rate>
              <duration>2</duration>
              <width>1920</width>
              <height>1080</height>
              <media>
                <video>
                  <duration>2</duration>
                  <stillframe>TRUE</stillframe>
                  <samplecharacteristics>
                    <rate>
                      <ntsc>FALSE</ntsc>
                      <timebase>25</timebase>
                    </rate>
                    <width>1920</width>
                    <height>1080</height>
                    <pixelaspectratio>Square</pixelaspectratio>
                    <anamorphic>FALSE</anamorphic>
                  </samplecharacteristics>
                </video>
              </media>
            </file>
            <sourcetrack>
              <mediatype>video</mediatype>
            </sourcetrack>
            <fielddominance>none</fielddominance>
          </clipitem>
          <clipitem id="C.png202">
            <name>C.png</name>
            <duration>1</duration>
            <rate>
              <ntsc>FALSE</ntsc>
              <timebase>25</timebase>
            </rate>
            <in>90842</in>
            <out>90843</out>
            <start>842</start>
            <end>843</end>
            <pixelaspectratio>Square</pixelaspectratio>
            <stillframe>TRUE</stillframe>
            <anamorphic>FALSE</anamorphic>
            <alphatype>straight</alphatype>
            <masterclipid>C.png202</masterclipid>
            <file id="C">
              <name>C.png</name>
              <pathurl>D:/Codes/SynthLip/SynthLipN/bin/Debug/net6.0-windows/Skin/template/C.png</pathurl>
              <rate>
                <ntsc>FALSE</ntsc>
                <timebase>25</timebase>
              </rate>
              <duration>2</duration>
              <width>1920</width>
              <height>1080</height>
              <media>
                <video>
                  <duration>2</duration>
                  <stillframe>TRUE</stillframe>
                  <samplecharacteristics>
                    <rate>
                      <ntsc>FALSE</ntsc>
                      <timebase>25</timebase>
                    </rate>
                    <width>1920</width>
                    <height>1080</height>
                    <pixelaspectratio>Square</pixelaspectratio>
                    <anamorphic>FALSE</anamorphic>
                  </samplecharacteristics>
                </video>
              </media>
            </file>
            <sourcetrack>
              <mediatype>video</mediatype>
            </sourcetrack>
            <fielddominance>none</fielddominance>
          </clipitem>
          <clipitem id="B.png201">
            <name>B.png</name>
            <duration>1</duration>
            <rate>
              <ntsc>FALSE</ntsc>
              <timebase>25</timebase>
            </rate>
            <in>90841</in>
            <out>90842</out>
            <start>841</start>
            <end>842</end>
            <pixelaspectratio>Square</pixelaspectratio>
            <stillframe>TRUE</stillframe>
            <anamorphic>FALSE</anamorphic>
            <alphatype>straight</alphatype>
            <masterclipid>B.png201</masterclipid>
            <file id="B">
              <name>B.png</name>
              <pathurl>D:/Codes/SynthLip/SynthLipN/bin/Debug/net6.0-windows/Skin/template/B.png</pathurl>
              <rate>
                <ntsc>FALSE</ntsc>
                <timebase>25</timebase>
              </rate>
              <duration>2</duration>
              <width>1920</width>
              <height>1080</height>
              <media>
                <video>
                  <duration>2</duration>
                  <stillframe>TRUE</stillframe>
                  <samplecharacteristics>
                    <rate>
                      <ntsc>FALSE</ntsc>
                      <timebase>25</timebase>
                    </rate>
                    <width>1920</width>
                    <height>1080</height>
                    <pixelaspectratio>Square</pixelaspectratio>
                    <anamorphic>FALSE</anamorphic>
                  </samplecharacteristics>
                </video>
              </media>
            </file>
            <sourcetrack>
              <mediatype>video</mediatype>
            </sourcetrack>
            <fielddominance>none</fielddominance>
          </clipitem>
          <clipitem id="C.png200">
            <name>C.png</name>
            <duration>1</duration>
            <rate>
              <ntsc>FALSE</ntsc>
              <timebase>25</timebase>
            </rate>
            <in>90840</in>
            <out>90841</out>
            <start>840</start>
            <end>841</end>
            <pixelaspectratio>Square</pixelaspectratio>
            <stillframe>TRUE</stillframe>
            <anamorphic>FALSE</anamorphic>
            <alphatype>straight</alphatype>
            <masterclipid>C.png200</masterclipid>
            <file id="C">
              <name>C.png</name>
              <pathurl>D:/Codes/SynthLip/SynthLipN/bin/Debug/net6.0-windows/Skin/template/C.png</pathurl>
              <rate>
                <ntsc>FALSE</ntsc>
                <timebase>25</timebase>
              </rate>
              <duration>2</duration>
              <width>1920</width>
              <height>1080</height>
              <media>
                <video>
                  <duration>2</duration>
                  <stillframe>TRUE</stillframe>
                  <samplecharacteristics>
                    <rate>
                      <ntsc>FALSE</ntsc>
                      <timebase>25</timebase>
                    </rate>
                    <width>1920</width>
                    <height>1080</height>
                    <pixelaspectratio>Square</pixelaspectratio>
                    <anamorphic>FALSE</anamorphic>
                  </samplecharacteristics>
                </video>
              </media>
            </file>
            <sourcetrack>
              <mediatype>video</mediatype>
            </sourcetrack>
            <fielddominance>none</fielddominance>
          </clipitem>
          <clipitem id="A.png199">
            <name>A.png</name>
            <duration>1</duration>
            <rate>
              <ntsc>FALSE</ntsc>
              <timebase>25</timebase>
            </rate>
            <in>90838</in>
            <out>90839</out>
            <start>838</start>
            <end>839</end>
            <pixelaspectratio>Square</pixelaspectratio>
            <stillframe>TRUE</stillframe>
            <anamorphic>FALSE</anamorphic>
            <alphatype>straight</alphatype>
            <masterclipid>A.png199</masterclipid>
            <file id="A">
              <name>A.png</name>
              <pathurl>D:/Codes/SynthLip/SynthLipN/bin/Debug/net6.0-windows/Skin/template/A.png</pathurl>
              <rate>
                <ntsc>FALSE</ntsc>
                <timebase>25</timebase>
              </rate>
              <duration>2</duration>
              <width>1920</width>
              <height>1080</height>
              <media>
                <video>
                  <duration>2</duration>
                  <stillframe>TRUE</stillframe>
                  <samplecharacteristics>
                    <rate>
                      <ntsc>FALSE</ntsc>
                      <timebase>25</timebase>
                    </rate>
                    <width>1920</width>
                    <height>1080</height>
                    <pixelaspectratio>Square</pixelaspectratio>
                    <anamorphic>FALSE</anamorphic>
                  </samplecharacteristics>
                </video>
              </media>
            </file>
            <sourcetrack>
              <mediatype>video</mediatype>
            </sourcetrack>
            <fielddominance>none</fielddominance>
          </clipitem>
          <clipitem id="A.png198">
            <name>A.png</name>
            <duration>1</duration>
            <rate>
              <ntsc>FALSE</ntsc>
              <timebase>25</timebase>
            </rate>
            <in>90836</in>
            <out>90837</out>
            <start>836</start>
            <end>837</end>
            <pixelaspectratio>Square</pixelaspectratio>
            <stillframe>TRUE</stillframe>
            <anamorphic>FALSE</anamorphic>
            <alphatype>straight</alphatype>
            <masterclipid>A.png198</masterclipid>
            <file id="A">
              <name>A.png</name>
              <pathurl>D:/Codes/SynthLip/SynthLipN/bin/Debug/net6.0-windows/Skin/template/A.png</pathurl>
              <rate>
                <ntsc>FALSE</ntsc>
                <timebase>25</timebase>
              </rate>
              <duration>2</duration>
              <width>1920</width>
              <height>1080</height>
              <media>
                <video>
                  <duration>2</duration>
                  <stillframe>TRUE</stillframe>
                  <samplecharacteristics>
                    <rate>
                      <ntsc>FALSE</ntsc>
                      <timebase>25</timebase>
                    </rate>
                    <width>1920</width>
                    <height>1080</height>
                    <pixelaspectratio>Square</pixelaspectratio>
                    <anamorphic>FALSE</anamorphic>
                  </samplecharacteristics>
                </video>
              </media>
            </file>
            <sourcetrack>
              <mediatype>video</mediatype>
            </sourcetrack>
            <fielddominance>none</fielddominance>
          </clipitem>
          <clipitem id="D.png197">
            <name>D.png</name>
            <duration>1</duration>
            <rate>
              <ntsc>FALSE</ntsc>
              <timebase>25</timebase>
            </rate>
            <in>90834</in>
            <out>90835</out>
            <start>834</start>
            <end>835</end>
            <pixelaspectratio>Square</pixelaspectratio>
            <stillframe>TRUE</stillframe>
            <anamorphic>FALSE</anamorphic>
            <alphatype>straight</alphatype>
            <masterclipid>D.png197</masterclipid>
            <file id="D">
              <name>D.png</name>
              <pathurl>D:/Codes/SynthLip/SynthLipN/bin/Debug/net6.0-windows/Skin/template/D.png</pathurl>
              <rate>
                <ntsc>FALSE</ntsc>
                <timebase>25</timebase>
              </rate>
              <duration>2</duration>
              <width>1920</width>
              <height>1080</height>
              <media>
                <video>
                  <duration>2</duration>
                  <stillframe>TRUE</stillframe>
                  <samplecharacteristics>
                    <rate>
                      <ntsc>FALSE</ntsc>
                      <timebase>25</timebase>
                    </rate>
                    <width>1920</width>
                    <height>1080</height>
                    <pixelaspectratio>Square</pixelaspectratio>
                    <anamorphic>FALSE</anamorphic>
                  </samplecharacteristics>
                </video>
              </media>
            </file>
            <sourcetrack>
              <mediatype>video</mediatype>
            </sourcetrack>
            <fielddominance>none</fielddominance>
          </clipitem>
          <clipitem id="B.png193">
            <name>B.png</name>
            <duration>5</duration>
            <rate>
              <ntsc>FALSE</ntsc>
              <timebase>25</timebase>
            </rate>
            <in>90826</in>
            <out>90831</out>
            <start>826</start>
            <end>831</end>
            <pixelaspectratio>Square</pixelaspectratio>
            <stillframe>TRUE</stillframe>
            <anamorphic>FALSE</anamorphic>
            <alphatype>straight</alphatype>
            <masterclipid>B.png193</masterclipid>
            <file id="B">
              <name>B.png</name>
              <pathurl>D:/Codes/SynthLip/SynthLipN/bin/Debug/net6.0-windows/Skin/template/B.png</pathurl>
              <rate>
                <ntsc>FALSE</ntsc>
                <timebase>25</timebase>
              </rate>
              <duration>2</duration>
              <width>1920</width>
              <height>1080</height>
              <media>
                <video>
                  <duration>2</duration>
                  <stillframe>TRUE</stillframe>
                  <samplecharacteristics>
                    <rate>
                      <ntsc>FALSE</ntsc>
                      <timebase>25</timebase>
                    </rate>
                    <width>1920</width>
                    <height>1080</height>
                    <pixelaspectratio>Square</pixelaspectratio>
                    <anamorphic>FALSE</anamorphic>
                  </samplecharacteristics>
                </video>
              </media>
            </file>
            <sourcetrack>
              <mediatype>video</mediatype>
            </sourcetrack>
            <fielddominance>none</fielddominance>
          </clipitem>
          <clipitem id="B.png188">
            <name>B.png</name>
            <duration>3</duration>
            <rate>
              <ntsc>FALSE</ntsc>
              <timebase>25</timebase>
            </rate>
            <in>90821</in>
            <out>90824</out>
            <start>821</start>
            <end>824</end>
            <pixelaspectratio>Square</pixelaspectratio>
            <stillframe>TRUE</stillframe>
            <anamorphic>FALSE</anamorphic>
            <alphatype>straight</alphatype>
            <masterclipid>B.png188</masterclipid>
            <file id="B">
              <name>B.png</name>
              <pathurl>D:/Codes/SynthLip/SynthLipN/bin/Debug/net6.0-windows/Skin/template/B.png</pathurl>
              <rate>
                <ntsc>FALSE</ntsc>
                <timebase>25</timebase>
              </rate>
              <duration>2</duration>
              <width>1920</width>
              <height>1080</height>
              <media>
                <video>
                  <duration>2</duration>
                  <stillframe>TRUE</stillframe>
                  <samplecharacteristics>
                    <rate>
                      <ntsc>FALSE</ntsc>
                      <timebase>25</timebase>
                    </rate>
                    <width>1920</width>
                    <height>1080</height>
                    <pixelaspectratio>Square</pixelaspectratio>
                    <anamorphic>FALSE</anamorphic>
                  </samplecharacteristics>
                </video>
              </media>
            </file>
            <sourcetrack>
              <mediatype>video</mediatype>
            </sourcetrack>
            <fielddominance>none</fielddominance>
          </clipitem>
          <clipitem id="A.png187">
            <name>A.png</name>
            <duration>3</duration>
            <rate>
              <ntsc>FALSE</ntsc>
              <timebase>25</timebase>
            </rate>
            <in>90817</in>
            <out>90820</out>
            <start>817</start>
            <end>820</end>
            <pixelaspectratio>Square</pixelaspectratio>
            <stillframe>TRUE</stillframe>
            <anamorphic>FALSE</anamorphic>
            <alphatype>straight</alphatype>
            <masterclipid>A.png187</masterclipid>
            <file id="A">
              <name>A.png</name>
              <pathurl>D:/Codes/SynthLip/SynthLipN/bin/Debug/net6.0-windows/Skin/template/A.png</pathurl>
              <rate>
                <ntsc>FALSE</ntsc>
                <timebase>25</timebase>
              </rate>
              <duration>2</duration>
              <width>1920</width>
              <height>1080</height>
              <media>
                <video>
                  <duration>2</duration>
                  <stillframe>TRUE</stillframe>
                  <samplecharacteristics>
                    <rate>
                      <ntsc>FALSE</ntsc>
                      <timebase>25</timebase>
                    </rate>
                    <width>1920</width>
                    <height>1080</height>
                    <pixelaspectratio>Square</pixelaspectratio>
                    <anamorphic>FALSE</anamorphic>
                  </samplecharacteristics>
                </video>
              </media>
            </file>
            <sourcetrack>
              <mediatype>video</mediatype>
            </sourcetrack>
            <fielddominance>none</fielddominance>
          </clipitem>
          <clipitem id="D.png186">
            <name>D.png</name>
            <duration>5</duration>
            <rate>
              <ntsc>FALSE</ntsc>
              <timebase>25</timebase>
            </rate>
            <in>90811</in>
            <out>90816</out>
            <start>811</start>
            <end>816</end>
            <pixelaspectratio>Square</pixelaspectratio>
            <stillframe>TRUE</stillframe>
            <anamorphic>FALSE</anamorphic>
            <alphatype>straight</alphatype>
            <masterclipid>D.png186</masterclipid>
            <file id="D">
              <name>D.png</name>
              <pathurl>D:/Codes/SynthLip/SynthLipN/bin/Debug/net6.0-windows/Skin/template/D.png</pathurl>
              <rate>
                <ntsc>FALSE</ntsc>
                <timebase>25</timebase>
              </rate>
              <duration>2</duration>
              <width>1920</width>
              <height>1080</height>
              <media>
                <video>
                  <duration>2</duration>
                  <stillframe>TRUE</stillframe>
                  <samplecharacteristics>
                    <rate>
                      <ntsc>FALSE</ntsc>
                      <timebase>25</timebase>
                    </rate>
                    <width>1920</width>
                    <height>1080</height>
                    <pixelaspectratio>Square</pixelaspectratio>
                    <anamorphic>FALSE</anamorphic>
                  </samplecharacteristics>
                </video>
              </media>
            </file>
            <sourcetrack>
              <mediatype>video</mediatype>
            </sourcetrack>
            <fielddominance>none</fielddominance>
          </clipitem>
          <clipitem id="H.png184">
            <name>H.png</name>
            <duration>248</duration>
            <rate>
              <ntsc>FALSE</ntsc>
              <timebase>25</timebase>
            </rate>
            <in>90562</in>
            <out>90810</out>
            <start>562</start>
            <end>810</end>
            <pixelaspectratio>Square</pixelaspectratio>
            <stillframe>TRUE</stillframe>
            <anamorphic>FALSE</anamorphic>
            <alphatype>straight</alphatype>
            <masterclipid>H.png184</masterclipid>
            <file id="H">
              <name>H.png</name>
              <pathurl>D:/Codes/SynthLip/SynthLipN/bin/Debug/net6.0-windows/Skin/template/H.png</pathurl>
              <rate>
                <ntsc>FALSE</ntsc>
                <timebase>25</timebase>
              </rate>
              <duration>2</duration>
              <width>1920</width>
              <height>1080</height>
              <media>
                <video>
                  <duration>2</duration>
                  <stillframe>TRUE</stillframe>
                  <samplecharacteristics>
                    <rate>
                      <ntsc>FALSE</ntsc>
                      <timebase>25</timebase>
                    </rate>
                    <width>1920</width>
                    <height>1080</height>
                    <pixelaspectratio>Square</pixelaspectratio>
                    <anamorphic>FALSE</anamorphic>
                  </samplecharacteristics>
                </video>
              </media>
            </file>
            <sourcetrack>
              <mediatype>video</mediatype>
            </sourcetrack>
            <fielddominance>none</fielddominance>
          </clipitem>
          <clipitem id="F.png183">
            <name>F.png</name>
            <duration>1</duration>
            <rate>
              <ntsc>FALSE</ntsc>
              <timebase>25</timebase>
            </rate>
            <in>90560</in>
            <out>90561</out>
            <start>560</start>
            <end>561</end>
            <pixelaspectratio>Square</pixelaspectratio>
            <stillframe>TRUE</stillframe>
            <anamorphic>FALSE</anamorphic>
            <alphatype>straight</alphatype>
            <masterclipid>F.png183</masterclipid>
            <file id="F">
              <name>F.png</name>
              <pathurl>D:/Codes/SynthLip/SynthLipN/bin/Debug/net6.0-windows/Skin/template/F.png</pathurl>
              <rate>
                <ntsc>FALSE</ntsc>
                <timebase>25</timebase>
              </rate>
              <duration>2</duration>
              <width>1920</width>
              <height>1080</height>
              <media>
                <video>
                  <duration>2</duration>
                  <stillframe>TRUE</stillframe>
                  <samplecharacteristics>
                    <rate>
                      <ntsc>FALSE</ntsc>
                      <timebase>25</timebase>
                    </rate>
                    <width>1920</width>
                    <height>1080</height>
                    <pixelaspectratio>Square</pixelaspectratio>
                    <anamorphic>FALSE</anamorphic>
                  </samplecharacteristics>
                </video>
              </media>
            </file>
            <sourcetrack>
              <mediatype>video</mediatype>
            </sourcetrack>
            <fielddominance>none</fielddominance>
          </clipitem>
          <clipitem id="B.png182">
            <name>B.png</name>
            <duration>1</duration>
            <rate>
              <ntsc>FALSE</ntsc>
              <timebase>25</timebase>
            </rate>
            <in>90558</in>
            <out>90559</out>
            <start>558</start>
            <end>559</end>
            <pixelaspectratio>Square</pixelaspectratio>
            <stillframe>TRUE</stillframe>
            <anamorphic>FALSE</anamorphic>
            <alphatype>straight</alphatype>
            <masterclipid>B.png182</masterclipid>
            <file id="B">
              <name>B.png</name>
              <pathurl>D:/Codes/SynthLip/SynthLipN/bin/Debug/net6.0-windows/Skin/template/B.png</pathurl>
              <rate>
                <ntsc>FALSE</ntsc>
                <timebase>25</timebase>
              </rate>
              <duration>2</duration>
              <width>1920</width>
              <height>1080</height>
              <media>
                <video>
                  <duration>2</duration>
                  <stillframe>TRUE</stillframe>
                  <samplecharacteristics>
                    <rate>
                      <ntsc>FALSE</ntsc>
                      <timebase>25</timebase>
                    </rate>
                    <width>1920</width>
                    <height>1080</height>
                    <pixelaspectratio>Square</pixelaspectratio>
                    <anamorphic>FALSE</anamorphic>
                  </samplecharacteristics>
                </video>
              </media>
            </file>
            <sourcetrack>
              <mediatype>video</mediatype>
            </sourcetrack>
            <fielddominance>none</fielddominance>
          </clipitem>
          <clipitem id="B.png181">
            <name>B.png</name>
            <duration>1</duration>
            <rate>
              <ntsc>FALSE</ntsc>
              <timebase>25</timebase>
            </rate>
            <in>90556</in>
            <out>90557</out>
            <start>556</start>
            <end>557</end>
            <pixelaspectratio>Square</pixelaspectratio>
            <stillframe>TRUE</stillframe>
            <anamorphic>FALSE</anamorphic>
            <alphatype>straight</alphatype>
            <masterclipid>B.png181</masterclipid>
            <file id="B">
              <name>B.png</name>
              <pathurl>D:/Codes/SynthLip/SynthLipN/bin/Debug/net6.0-windows/Skin/template/B.png</pathurl>
              <rate>
                <ntsc>FALSE</ntsc>
                <timebase>25</timebase>
              </rate>
              <duration>2</duration>
              <width>1920</width>
              <height>1080</height>
              <media>
                <video>
                  <duration>2</duration>
                  <stillframe>TRUE</stillframe>
                  <samplecharacteristics>
                    <rate>
                      <ntsc>FALSE</ntsc>
                      <timebase>25</timebase>
                    </rate>
                    <width>1920</width>
                    <height>1080</height>
                    <pixelaspectratio>Square</pixelaspectratio>
                    <anamorphic>FALSE</anamorphic>
                  </samplecharacteristics>
                </video>
              </media>
            </file>
            <sourcetrack>
              <mediatype>video</mediatype>
            </sourcetrack>
            <fielddominance>none</fielddominance>
          </clipitem>
          <clipitem id="A.png180">
            <name>A.png</name>
            <duration>1</duration>
            <rate>
              <ntsc>FALSE</ntsc>
              <timebase>25</timebase>
            </rate>
            <in>90555</in>
            <out>90556</out>
            <start>555</start>
            <end>556</end>
            <pixelaspectratio>Square</pixelaspectratio>
            <stillframe>TRUE</stillframe>
            <anamorphic>FALSE</anamorphic>
            <alphatype>straight</alphatype>
            <masterclipid>A.png180</masterclipid>
            <file id="A">
              <name>A.png</name>
              <pathurl>D:/Codes/SynthLip/SynthLipN/bin/Debug/net6.0-windows/Skin/template/A.png</pathurl>
              <rate>
                <ntsc>FALSE</ntsc>
                <timebase>25</timebase>
              </rate>
              <duration>2</duration>
              <width>1920</width>
              <height>1080</height>
              <media>
                <video>
                  <duration>2</duration>
                  <stillframe>TRUE</stillframe>
                  <samplecharacteristics>
                    <rate>
                      <ntsc>FALSE</ntsc>
                      <timebase>25</timebase>
                    </rate>
                    <width>1920</width>
                    <height>1080</height>
                    <pixelaspectratio>Square</pixelaspectratio>
                    <anamorphic>FALSE</anamorphic>
                  </samplecharacteristics>
                </video>
              </media>
            </file>
            <sourcetrack>
              <mediatype>video</mediatype>
            </sourcetrack>
            <fielddominance>none</fielddominance>
          </clipitem>
          <clipitem id="A.png179">
            <name>A.png</name>
            <duration>3</duration>
            <rate>
              <ntsc>FALSE</ntsc>
              <timebase>25</timebase>
            </rate>
            <in>90551</in>
            <out>90554</out>
            <start>551</start>
            <end>554</end>
            <pixelaspectratio>Square</pixelaspectratio>
            <stillframe>TRUE</stillframe>
            <anamorphic>FALSE</anamorphic>
            <alphatype>straight</alphatype>
            <masterclipid>A.png179</masterclipid>
            <file id="A">
              <name>A.png</name>
              <pathurl>D:/Codes/SynthLip/SynthLipN/bin/Debug/net6.0-windows/Skin/template/A.png</pathurl>
              <rate>
                <ntsc>FALSE</ntsc>
                <timebase>25</timebase>
              </rate>
              <duration>2</duration>
              <width>1920</width>
              <height>1080</height>
              <media>
                <video>
                  <duration>2</duration>
                  <stillframe>TRUE</stillframe>
                  <samplecharacteristics>
                    <rate>
                      <ntsc>FALSE</ntsc>
                      <timebase>25</timebase>
                    </rate>
                    <width>1920</width>
                    <height>1080</height>
                    <pixelaspectratio>Square</pixelaspectratio>
                    <anamorphic>FALSE</anamorphic>
                  </samplecharacteristics>
                </video>
              </media>
            </file>
            <sourcetrack>
              <mediatype>video</mediatype>
            </sourcetrack>
            <fielddominance>none</fielddominance>
          </clipitem>
          <clipitem id="F.png178">
            <name>F.png</name>
            <duration>1</duration>
            <rate>
              <ntsc>FALSE</ntsc>
              <timebase>25</timebase>
            </rate>
            <in>90549</in>
            <out>90550</out>
            <start>549</start>
            <end>550</end>
            <pixelaspectratio>Square</pixelaspectratio>
            <stillframe>TRUE</stillframe>
            <anamorphic>FALSE</anamorphic>
            <alphatype>straight</alphatype>
            <masterclipid>F.png178</masterclipid>
            <file id="F">
              <name>F.png</name>
              <pathurl>D:/Codes/SynthLip/SynthLipN/bin/Debug/net6.0-windows/Skin/template/F.png</pathurl>
              <rate>
                <ntsc>FALSE</ntsc>
                <timebase>25</timebase>
              </rate>
              <duration>2</duration>
              <width>1920</width>
              <height>1080</height>
              <media>
                <video>
                  <duration>2</duration>
                  <stillframe>TRUE</stillframe>
                  <samplecharacteristics>
                    <rate>
                      <ntsc>FALSE</ntsc>
                      <timebase>25</timebase>
                    </rate>
                    <width>1920</width>
                    <height>1080</height>
                    <pixelaspectratio>Square</pixelaspectratio>
                    <anamorphic>FALSE</anamorphic>
                  </samplecharacteristics>
                </video>
              </media>
            </file>
            <sourcetrack>
              <mediatype>video</mediatype>
            </sourcetrack>
            <fielddominance>none</fielddominance>
          </clipitem>
          <clipitem id="C.png175">
            <name>C.png</name>
            <duration>2</duration>
            <rate>
              <ntsc>FALSE</ntsc>
              <timebase>25</timebase>
            </rate>
            <in>90545</in>
            <out>90547</out>
            <start>545</start>
            <end>547</end>
            <pixelaspectratio>Square</pixelaspectratio>
            <stillframe>TRUE</stillframe>
            <anamorphic>FALSE</anamorphic>
            <alphatype>straight</alphatype>
            <masterclipid>C.png175</masterclipid>
            <file id="C">
              <name>C.png</name>
              <pathurl>D:/Codes/SynthLip/SynthLipN/bin/Debug/net6.0-windows/Skin/template/C.png</pathurl>
              <rate>
                <ntsc>FALSE</ntsc>
                <timebase>25</timebase>
              </rate>
              <duration>2</duration>
              <width>1920</width>
              <height>1080</height>
              <media>
                <video>
                  <duration>2</duration>
                  <stillframe>TRUE</stillframe>
                  <samplecharacteristics>
                    <rate>
                      <ntsc>FALSE</ntsc>
                      <timebase>25</timebase>
                    </rate>
                    <width>1920</width>
                    <height>1080</height>
                    <pixelaspectratio>Square</pixelaspectratio>
                    <anamorphic>FALSE</anamorphic>
                  </samplecharacteristics>
                </video>
              </media>
            </file>
            <sourcetrack>
              <mediatype>video</mediatype>
            </sourcetrack>
            <fielddominance>none</fielddominance>
          </clipitem>
          <clipitem id="B.png174">
            <name>B.png</name>
            <duration>2</duration>
            <rate>
              <ntsc>FALSE</ntsc>
              <timebase>25</timebase>
            </rate>
            <in>90542</in>
            <out>90544</out>
            <start>542</start>
            <end>544</end>
            <pixelaspectratio>Square</pixelaspectratio>
            <stillframe>TRUE</stillframe>
            <anamorphic>FALSE</anamorphic>
            <alphatype>straight</alphatype>
            <masterclipid>B.png174</masterclipid>
            <file id="B">
              <name>B.png</name>
              <pathurl>D:/Codes/SynthLip/SynthLipN/bin/Debug/net6.0-windows/Skin/template/B.png</pathurl>
              <rate>
                <ntsc>FALSE</ntsc>
                <timebase>25</timebase>
              </rate>
              <duration>2</duration>
              <width>1920</width>
              <height>1080</height>
              <media>
                <video>
                  <duration>2</duration>
                  <stillframe>TRUE</stillframe>
                  <samplecharacteristics>
                    <rate>
                      <ntsc>FALSE</ntsc>
                      <timebase>25</timebase>
                    </rate>
                    <width>1920</width>
                    <height>1080</height>
                    <pixelaspectratio>Square</pixelaspectratio>
                    <anamorphic>FALSE</anamorphic>
                  </samplecharacteristics>
                </video>
              </media>
            </file>
            <sourcetrack>
              <mediatype>video</mediatype>
            </sourcetrack>
            <fielddominance>none</fielddominance>
          </clipitem>
          <clipitem id="A.png173">
            <name>A.png</name>
            <duration>2</duration>
            <rate>
              <ntsc>FALSE</ntsc>
              <timebase>25</timebase>
            </rate>
            <in>90540</in>
            <out>90542</out>
            <start>540</start>
            <end>542</end>
            <pixelaspectratio>Square</pixelaspectratio>
            <stillframe>TRUE</stillframe>
            <anamorphic>FALSE</anamorphic>
            <alphatype>straight</alphatype>
            <masterclipid>A.png173</masterclipid>
            <file id="A">
              <name>A.png</name>
              <pathurl>D:/Codes/SynthLip/SynthLipN/bin/Debug/net6.0-windows/Skin/template/A.png</pathurl>
              <rate>
                <ntsc>FALSE</ntsc>
                <timebase>25</timebase>
              </rate>
              <duration>2</duration>
              <width>1920</width>
              <height>1080</height>
              <media>
                <video>
                  <duration>2</duration>
                  <stillframe>TRUE</stillframe>
                  <samplecharacteristics>
                    <rate>
                      <ntsc>FALSE</ntsc>
                      <timebase>25</timebase>
                    </rate>
                    <width>1920</width>
                    <height>1080</height>
                    <pixelaspectratio>Square</pixelaspectratio>
                    <anamorphic>FALSE</anamorphic>
                  </samplecharacteristics>
                </video>
              </media>
            </file>
            <sourcetrack>
              <mediatype>video</mediatype>
            </sourcetrack>
            <fielddominance>none</fielddominance>
          </clipitem>
          <clipitem id="D.png172">
            <name>D.png</name>
            <duration>3</duration>
            <rate>
              <ntsc>FALSE</ntsc>
              <timebase>25</timebase>
            </rate>
            <in>90536</in>
            <out>90539</out>
            <start>536</start>
            <end>539</end>
            <pixelaspectratio>Square</pixelaspectratio>
            <stillframe>TRUE</stillframe>
            <anamorphic>FALSE</anamorphic>
            <alphatype>straight</alphatype>
            <masterclipid>D.png172</masterclipid>
            <file id="D">
              <name>D.png</name>
              <pathurl>D:/Codes/SynthLip/SynthLipN/bin/Debug/net6.0-windows/Skin/template/D.png</pathurl>
              <rate>
                <ntsc>FALSE</ntsc>
                <timebase>25</timebase>
              </rate>
              <duration>2</duration>
              <width>1920</width>
              <height>1080</height>
              <media>
                <video>
                  <duration>2</duration>
                  <stillframe>TRUE</stillframe>
                  <samplecharacteristics>
                    <rate>
                      <ntsc>FALSE</ntsc>
                      <timebase>25</timebase>
                    </rate>
                    <width>1920</width>
                    <height>1080</height>
                    <pixelaspectratio>Square</pixelaspectratio>
                    <anamorphic>FALSE</anamorphic>
                  </samplecharacteristics>
                </video>
              </media>
            </file>
            <sourcetrack>
              <mediatype>video</mediatype>
            </sourcetrack>
            <fielddominance>none</fielddominance>
          </clipitem>
          <clipitem id="D.png171">
            <name>D.png</name>
            <duration>1</duration>
            <rate>
              <ntsc>FALSE</ntsc>
              <timebase>25</timebase>
            </rate>
            <in>90535</in>
            <out>90536</out>
            <start>535</start>
            <end>536</end>
            <pixelaspectratio>Square</pixelaspectratio>
            <stillframe>TRUE</stillframe>
            <anamorphic>FALSE</anamorphic>
            <alphatype>straight</alphatype>
            <masterclipid>D.png171</masterclipid>
            <file id="D">
              <name>D.png</name>
              <pathurl>D:/Codes/SynthLip/SynthLipN/bin/Debug/net6.0-windows/Skin/template/D.png</pathurl>
              <rate>
                <ntsc>FALSE</ntsc>
                <timebase>25</timebase>
              </rate>
              <duration>2</duration>
              <width>1920</width>
              <height>1080</height>
              <media>
                <video>
                  <duration>2</duration>
                  <stillframe>TRUE</stillframe>
                  <samplecharacteristics>
                    <rate>
                      <ntsc>FALSE</ntsc>
                      <timebase>25</timebase>
                    </rate>
                    <width>1920</width>
                    <height>1080</height>
                    <pixelaspectratio>Square</pixelaspectratio>
                    <anamorphic>FALSE</anamorphic>
                  </samplecharacteristics>
                </video>
              </media>
            </file>
            <sourcetrack>
              <mediatype>video</mediatype>
            </sourcetrack>
            <fielddominance>none</fielddominance>
          </clipitem>
          <clipitem id="A.png170">
            <name>A.png</name>
            <duration>1</duration>
            <rate>
              <ntsc>FALSE</ntsc>
              <timebase>25</timebase>
            </rate>
            <in>90533</in>
            <out>90534</out>
            <start>533</start>
            <end>534</end>
            <pixelaspectratio>Square</pixelaspectratio>
            <stillframe>TRUE</stillframe>
            <anamorphic>FALSE</anamorphic>
            <alphatype>straight</alphatype>
            <masterclipid>A.png170</masterclipid>
            <file id="A">
              <name>A.png</name>
              <pathurl>D:/Codes/SynthLip/SynthLipN/bin/Debug/net6.0-windows/Skin/template/A.png</pathurl>
              <rate>
                <ntsc>FALSE</ntsc>
                <timebase>25</timebase>
              </rate>
              <duration>2</duration>
              <width>1920</width>
              <height>1080</height>
              <media>
                <video>
                  <duration>2</duration>
                  <stillframe>TRUE</stillframe>
                  <samplecharacteristics>
                    <rate>
                      <ntsc>FALSE</ntsc>
                      <timebase>25</timebase>
                    </rate>
                    <width>1920</width>
                    <height>1080</height>
                    <pixelaspectratio>Square</pixelaspectratio>
                    <anamorphic>FALSE</anamorphic>
                  </samplecharacteristics>
                </video>
              </media>
            </file>
            <sourcetrack>
              <mediatype>video</mediatype>
            </sourcetrack>
            <fielddominance>none</fielddominance>
          </clipitem>
          <clipitem id="A.png169">
            <name>A.png</name>
            <duration>1</duration>
            <rate>
              <ntsc>FALSE</ntsc>
              <timebase>25</timebase>
            </rate>
            <in>90532</in>
            <out>90533</out>
            <start>532</start>
            <end>533</end>
            <pixelaspectratio>Square</pixelaspectratio>
            <stillframe>TRUE</stillframe>
            <anamorphic>FALSE</anamorphic>
            <alphatype>straight</alphatype>
            <masterclipid>A.png169</masterclipid>
            <file id="A">
              <name>A.png</name>
              <pathurl>D:/Codes/SynthLip/SynthLipN/bin/Debug/net6.0-windows/Skin/template/A.png</pathurl>
              <rate>
                <ntsc>FALSE</ntsc>
                <timebase>25</timebase>
              </rate>
              <duration>2</duration>
              <width>1920</width>
              <height>1080</height>
              <media>
                <video>
                  <duration>2</duration>
                  <stillframe>TRUE</stillframe>
                  <samplecharacteristics>
                    <rate>
                      <ntsc>FALSE</ntsc>
                      <timebase>25</timebase>
                    </rate>
                    <width>1920</width>
                    <height>1080</height>
                    <pixelaspectratio>Square</pixelaspectratio>
                    <anamorphic>FALSE</anamorphic>
                  </samplecharacteristics>
                </video>
              </media>
            </file>
            <sourcetrack>
              <mediatype>video</mediatype>
            </sourcetrack>
            <fielddominance>none</fielddominance>
          </clipitem>
          <clipitem id="F.png168">
            <name>F.png</name>
            <duration>1</duration>
            <rate>
              <ntsc>FALSE</ntsc>
              <timebase>25</timebase>
            </rate>
            <in>90530</in>
            <out>90531</out>
            <start>530</start>
            <end>531</end>
            <pixelaspectratio>Square</pixelaspectratio>
            <stillframe>TRUE</stillframe>
            <anamorphic>FALSE</anamorphic>
            <alphatype>straight</alphatype>
            <masterclipid>F.png168</masterclipid>
            <file id="F">
              <name>F.png</name>
              <pathurl>D:/Codes/SynthLip/SynthLipN/bin/Debug/net6.0-windows/Skin/template/F.png</pathurl>
              <rate>
                <ntsc>FALSE</ntsc>
                <timebase>25</timebase>
              </rate>
              <duration>2</duration>
              <width>1920</width>
              <height>1080</height>
              <media>
                <video>
                  <duration>2</duration>
                  <stillframe>TRUE</stillframe>
                  <samplecharacteristics>
                    <rate>
                      <ntsc>FALSE</ntsc>
                      <timebase>25</timebase>
                    </rate>
                    <width>1920</width>
                    <height>1080</height>
                    <pixelaspectratio>Square</pixelaspectratio>
                    <anamorphic>FALSE</anamorphic>
                  </samplecharacteristics>
                </video>
              </media>
            </file>
            <sourcetrack>
              <mediatype>video</mediatype>
            </sourcetrack>
            <fielddominance>none</fielddominance>
          </clipitem>
          <clipitem id="F.png167">
            <name>F.png</name>
            <duration>1</duration>
            <rate>
              <ntsc>FALSE</ntsc>
              <timebase>25</timebase>
            </rate>
            <in>90528</in>
            <out>90529</out>
            <start>528</start>
            <end>529</end>
            <pixelaspectratio>Square</pixelaspectratio>
            <stillframe>TRUE</stillframe>
            <anamorphic>FALSE</anamorphic>
            <alphatype>straight</alphatype>
            <masterclipid>F.png167</masterclipid>
            <file id="F">
              <name>F.png</name>
              <pathurl>D:/Codes/SynthLip/SynthLipN/bin/Debug/net6.0-windows/Skin/template/F.png</pathurl>
              <rate>
                <ntsc>FALSE</ntsc>
                <timebase>25</timebase>
              </rate>
              <duration>2</duration>
              <width>1920</width>
              <height>1080</height>
              <media>
                <video>
                  <duration>2</duration>
                  <stillframe>TRUE</stillframe>
                  <samplecharacteristics>
                    <rate>
                      <ntsc>FALSE</ntsc>
                      <timebase>25</timebase>
                    </rate>
                    <width>1920</width>
                    <height>1080</height>
                    <pixelaspectratio>Square</pixelaspectratio>
                    <anamorphic>FALSE</anamorphic>
                  </samplecharacteristics>
                </video>
              </media>
            </file>
            <sourcetrack>
              <mediatype>video</mediatype>
            </sourcetrack>
            <fielddominance>none</fielddominance>
          </clipitem>
          <clipitem id="F.png166">
            <name>F.png</name>
            <duration>1</duration>
            <rate>
              <ntsc>FALSE</ntsc>
              <timebase>25</timebase>
            </rate>
            <in>90526</in>
            <out>90527</out>
            <start>526</start>
            <end>527</end>
            <pixelaspectratio>Square</pixelaspectratio>
            <stillframe>TRUE</stillframe>
            <anamorphic>FALSE</anamorphic>
            <alphatype>straight</alphatype>
            <masterclipid>F.png166</masterclipid>
            <file id="F">
              <name>F.png</name>
              <pathurl>D:/Codes/SynthLip/SynthLipN/bin/Debug/net6.0-windows/Skin/template/F.png</pathurl>
              <rate>
                <ntsc>FALSE</ntsc>
                <timebase>25</timebase>
              </rate>
              <duration>2</duration>
              <width>1920</width>
              <height>1080</height>
              <media>
                <video>
                  <duration>2</duration>
                  <stillframe>TRUE</stillframe>
                  <samplecharacteristics>
                    <rate>
                      <ntsc>FALSE</ntsc>
                      <timebase>25</timebase>
                    </rate>
                    <width>1920</width>
                    <height>1080</height>
                    <pixelaspectratio>Square</pixelaspectratio>
                    <anamorphic>FALSE</anamorphic>
                  </samplecharacteristics>
                </video>
              </media>
            </file>
            <sourcetrack>
              <mediatype>video</mediatype>
            </sourcetrack>
            <fielddominance>none</fielddominance>
          </clipitem>
          <clipitem id="A.png165">
            <name>A.png</name>
            <duration>1</duration>
            <rate>
              <ntsc>FALSE</ntsc>
              <timebase>25</timebase>
            </rate>
            <in>90525</in>
            <out>90526</out>
            <start>525</start>
            <end>526</end>
            <pixelaspectratio>Square</pixelaspectratio>
            <stillframe>TRUE</stillframe>
            <anamorphic>FALSE</anamorphic>
            <alphatype>straight</alphatype>
            <masterclipid>A.png165</masterclipid>
            <file id="A">
              <name>A.png</name>
              <pathurl>D:/Codes/SynthLip/SynthLipN/bin/Debug/net6.0-windows/Skin/template/A.png</pathurl>
              <rate>
                <ntsc>FALSE</ntsc>
                <timebase>25</timebase>
              </rate>
              <duration>2</duration>
              <width>1920</width>
              <height>1080</height>
              <media>
                <video>
                  <duration>2</duration>
                  <stillframe>TRUE</stillframe>
                  <samplecharacteristics>
                    <rate>
                      <ntsc>FALSE</ntsc>
                      <timebase>25</timebase>
                    </rate>
                    <width>1920</width>
                    <height>1080</height>
                    <pixelaspectratio>Square</pixelaspectratio>
                    <anamorphic>FALSE</anamorphic>
                  </samplecharacteristics>
                </video>
              </media>
            </file>
            <sourcetrack>
              <mediatype>video</mediatype>
            </sourcetrack>
            <fielddominance>none</fielddominance>
          </clipitem>
          <clipitem id="F.png164">
            <name>F.png</name>
            <duration>5</duration>
            <rate>
              <ntsc>FALSE</ntsc>
              <timebase>25</timebase>
            </rate>
            <in>90519</in>
            <out>90524</out>
            <start>519</start>
            <end>524</end>
            <pixelaspectratio>Square</pixelaspectratio>
            <stillframe>TRUE</stillframe>
            <anamorphic>FALSE</anamorphic>
            <alphatype>straight</alphatype>
            <masterclipid>F.png164</masterclipid>
            <file id="F">
              <name>F.png</name>
              <pathurl>D:/Codes/SynthLip/SynthLipN/bin/Debug/net6.0-windows/Skin/template/F.png</pathurl>
              <rate>
                <ntsc>FALSE</ntsc>
                <timebase>25</timebase>
              </rate>
              <duration>2</duration>
              <width>1920</width>
              <height>1080</height>
              <media>
                <video>
                  <duration>2</duration>
                  <stillframe>TRUE</stillframe>
                  <samplecharacteristics>
                    <rate>
                      <ntsc>FALSE</ntsc>
                      <timebase>25</timebase>
                    </rate>
                    <width>1920</width>
                    <height>1080</height>
                    <pixelaspectratio>Square</pixelaspectratio>
                    <anamorphic>FALSE</anamorphic>
                  </samplecharacteristics>
                </video>
              </media>
            </file>
            <sourcetrack>
              <mediatype>video</mediatype>
            </sourcetrack>
            <fielddominance>none</fielddominance>
          </clipitem>
          <clipitem id="C.png161">
            <name>C.png</name>
            <duration>3</duration>
            <rate>
              <ntsc>FALSE</ntsc>
              <timebase>25</timebase>
            </rate>
            <in>90513</in>
            <out>90516</out>
            <start>513</start>
            <end>516</end>
            <pixelaspectratio>Square</pixelaspectratio>
            <stillframe>TRUE</stillframe>
            <anamorphic>FALSE</anamorphic>
            <alphatype>straight</alphatype>
            <masterclipid>C.png161</masterclipid>
            <file id="C">
              <name>C.png</name>
              <pathurl>D:/Codes/SynthLip/SynthLipN/bin/Debug/net6.0-windows/Skin/template/C.png</pathurl>
              <rate>
                <ntsc>FALSE</ntsc>
                <timebase>25</timebase>
              </rate>
              <duration>2</duration>
              <width>1920</width>
              <height>1080</height>
              <media>
                <video>
                  <duration>2</duration>
                  <stillframe>TRUE</stillframe>
                  <samplecharacteristics>
                    <rate>
                      <ntsc>FALSE</ntsc>
                      <timebase>25</timebase>
                    </rate>
                    <width>1920</width>
                    <height>1080</height>
                    <pixelaspectratio>Square</pixelaspectratio>
                    <anamorphic>FALSE</anamorphic>
                  </samplecharacteristics>
                </video>
              </media>
            </file>
            <sourcetrack>
              <mediatype>video</mediatype>
            </sourcetrack>
            <fielddominance>none</fielddominance>
          </clipitem>
          <clipitem id="B.png160">
            <name>B.png</name>
            <duration>1</duration>
            <rate>
              <ntsc>FALSE</ntsc>
              <timebase>25</timebase>
            </rate>
            <in>90511</in>
            <out>90512</out>
            <start>511</start>
            <end>512</end>
            <pixelaspectratio>Square</pixelaspectratio>
            <stillframe>TRUE</stillframe>
            <anamorphic>FALSE</anamorphic>
            <alphatype>straight</alphatype>
            <masterclipid>B.png160</masterclipid>
            <file id="B">
              <name>B.png</name>
              <pathurl>D:/Codes/SynthLip/SynthLipN/bin/Debug/net6.0-windows/Skin/template/B.png</pathurl>
              <rate>
                <ntsc>FALSE</ntsc>
                <timebase>25</timebase>
              </rate>
              <duration>2</duration>
              <width>1920</width>
              <height>1080</height>
              <media>
                <video>
                  <duration>2</duration>
                  <stillframe>TRUE</stillframe>
                  <samplecharacteristics>
                    <rate>
                      <ntsc>FALSE</ntsc>
                      <timebase>25</timebase>
                    </rate>
                    <width>1920</width>
                    <height>1080</height>
                    <pixelaspectratio>Square</pixelaspectratio>
                    <anamorphic>FALSE</anamorphic>
                  </samplecharacteristics>
                </video>
              </media>
            </file>
            <sourcetrack>
              <mediatype>video</mediatype>
            </sourcetrack>
            <fielddominance>none</fielddominance>
          </clipitem>
          <clipitem id="H.png159">
            <name>H.png</name>
            <duration>9</duration>
            <rate>
              <ntsc>FALSE</ntsc>
              <timebase>25</timebase>
            </rate>
            <in>90502</in>
            <out>90511</out>
            <start>502</start>
            <end>511</end>
            <pixelaspectratio>Square</pixelaspectratio>
            <stillframe>TRUE</stillframe>
            <anamorphic>FALSE</anamorphic>
            <alphatype>straight</alphatype>
            <masterclipid>H.png159</masterclipid>
            <file id="H">
              <name>H.png</name>
              <pathurl>D:/Codes/SynthLip/SynthLipN/bin/Debug/net6.0-windows/Skin/template/H.png</pathurl>
              <rate>
                <ntsc>FALSE</ntsc>
                <timebase>25</timebase>
              </rate>
              <duration>2</duration>
              <width>1920</width>
              <height>1080</height>
              <media>
                <video>
                  <duration>2</duration>
                  <stillframe>TRUE</stillframe>
                  <samplecharacteristics>
                    <rate>
                      <ntsc>FALSE</ntsc>
                      <timebase>25</timebase>
                    </rate>
                    <width>1920</width>
                    <height>1080</height>
                    <pixelaspectratio>Square</pixelaspectratio>
                    <anamorphic>FALSE</anamorphic>
                  </samplecharacteristics>
                </video>
              </media>
            </file>
            <sourcetrack>
              <mediatype>video</mediatype>
            </sourcetrack>
            <fielddominance>none</fielddominance>
          </clipitem>
          <clipitem id="F.png158">
            <name>F.png</name>
            <duration>1</duration>
            <rate>
              <ntsc>FALSE</ntsc>
              <timebase>25</timebase>
            </rate>
            <in>90500</in>
            <out>90501</out>
            <start>500</start>
            <end>501</end>
            <pixelaspectratio>Square</pixelaspectratio>
            <stillframe>TRUE</stillframe>
            <anamorphic>FALSE</anamorphic>
            <alphatype>straight</alphatype>
            <masterclipid>F.png158</masterclipid>
            <file id="F">
              <name>F.png</name>
              <pathurl>D:/Codes/SynthLip/SynthLipN/bin/Debug/net6.0-windows/Skin/template/F.png</pathurl>
              <rate>
                <ntsc>FALSE</ntsc>
                <timebase>25</timebase>
              </rate>
              <duration>2</duration>
              <width>1920</width>
              <height>1080</height>
              <media>
                <video>
                  <duration>2</duration>
                  <stillframe>TRUE</stillframe>
                  <samplecharacteristics>
                    <rate>
                      <ntsc>FALSE</ntsc>
                      <timebase>25</timebase>
                    </rate>
                    <width>1920</width>
                    <height>1080</height>
                    <pixelaspectratio>Square</pixelaspectratio>
                    <anamorphic>FALSE</anamorphic>
                  </samplecharacteristics>
                </video>
              </media>
            </file>
            <sourcetrack>
              <mediatype>video</mediatype>
            </sourcetrack>
            <fielddominance>none</fielddominance>
          </clipitem>
          <clipitem id="B.png157">
            <name>B.png</name>
            <duration>1</duration>
            <rate>
              <ntsc>FALSE</ntsc>
              <timebase>25</timebase>
            </rate>
            <in>90498</in>
            <out>90499</out>
            <start>498</start>
            <end>499</end>
            <pixelaspectratio>Square</pixelaspectratio>
            <stillframe>TRUE</stillframe>
            <anamorphic>FALSE</anamorphic>
            <alphatype>straight</alphatype>
            <masterclipid>B.png157</masterclipid>
            <file id="B">
              <name>B.png</name>
              <pathurl>D:/Codes/SynthLip/SynthLipN/bin/Debug/net6.0-windows/Skin/template/B.png</pathurl>
              <rate>
                <ntsc>FALSE</ntsc>
                <timebase>25</timebase>
              </rate>
              <duration>2</duration>
              <width>1920</width>
              <height>1080</height>
              <media>
                <video>
                  <duration>2</duration>
                  <stillframe>TRUE</stillframe>
                  <samplecharacteristics>
                    <rate>
                      <ntsc>FALSE</ntsc>
                      <timebase>25</timebase>
                    </rate>
                    <width>1920</width>
                    <height>1080</height>
                    <pixelaspectratio>Square</pixelaspectratio>
                    <anamorphic>FALSE</anamorphic>
                  </samplecharacteristics>
                </video>
              </media>
            </file>
            <sourcetrack>
              <mediatype>video</mediatype>
            </sourcetrack>
            <fielddominance>none</fielddominance>
          </clipitem>
          <clipitem id="B.png156">
            <name>B.png</name>
            <duration>1</duration>
            <rate>
              <ntsc>FALSE</ntsc>
              <timebase>25</timebase>
            </rate>
            <in>90496</in>
            <out>90497</out>
            <start>496</start>
            <end>497</end>
            <pixelaspectratio>Square</pixelaspectratio>
            <stillframe>TRUE</stillframe>
            <anamorphic>FALSE</anamorphic>
            <alphatype>straight</alphatype>
            <masterclipid>B.png156</masterclipid>
            <file id="B">
              <name>B.png</name>
              <pathurl>D:/Codes/SynthLip/SynthLipN/bin/Debug/net6.0-windows/Skin/template/B.png</pathurl>
              <rate>
                <ntsc>FALSE</ntsc>
                <timebase>25</timebase>
              </rate>
              <duration>2</duration>
              <width>1920</width>
              <height>1080</height>
              <media>
                <video>
                  <duration>2</duration>
                  <stillframe>TRUE</stillframe>
                  <samplecharacteristics>
                    <rate>
                      <ntsc>FALSE</ntsc>
                      <timebase>25</timebase>
                    </rate>
                    <width>1920</width>
                    <height>1080</height>
                    <pixelaspectratio>Square</pixelaspectratio>
                    <anamorphic>FALSE</anamorphic>
                  </samplecharacteristics>
                </video>
              </media>
            </file>
            <sourcetrack>
              <mediatype>video</mediatype>
            </sourcetrack>
            <fielddominance>none</fielddominance>
          </clipitem>
          <clipitem id="A.png155">
            <name>A.png</name>
            <duration>1</duration>
            <rate>
              <ntsc>FALSE</ntsc>
              <timebase>25</timebase>
            </rate>
            <in>90495</in>
            <out>90496</out>
            <start>495</start>
            <end>496</end>
            <pixelaspectratio>Square</pixelaspectratio>
            <stillframe>TRUE</stillframe>
            <anamorphic>FALSE</anamorphic>
            <alphatype>straight</alphatype>
            <masterclipid>A.png155</masterclipid>
            <file id="A">
              <name>A.png</name>
              <pathurl>D:/Codes/SynthLip/SynthLipN/bin/Debug/net6.0-windows/Skin/template/A.png</pathurl>
              <rate>
                <ntsc>FALSE</ntsc>
                <timebase>25</timebase>
              </rate>
              <duration>2</duration>
              <width>1920</width>
              <height>1080</height>
              <media>
                <video>
                  <duration>2</duration>
                  <stillframe>TRUE</stillframe>
                  <samplecharacteristics>
                    <rate>
                      <ntsc>FALSE</ntsc>
                      <timebase>25</timebase>
                    </rate>
                    <width>1920</width>
                    <height>1080</height>
                    <pixelaspectratio>Square</pixelaspectratio>
                    <anamorphic>FALSE</anamorphic>
                  </samplecharacteristics>
                </video>
              </media>
            </file>
            <sourcetrack>
              <mediatype>video</mediatype>
            </sourcetrack>
            <fielddominance>none</fielddominance>
          </clipitem>
          <clipitem id="A.png154">
            <name>A.png</name>
            <duration>3</duration>
            <rate>
              <ntsc>FALSE</ntsc>
              <timebase>25</timebase>
            </rate>
            <in>90491</in>
            <out>90494</out>
            <start>491</start>
            <end>494</end>
            <pixelaspectratio>Square</pixelaspectratio>
            <stillframe>TRUE</stillframe>
            <anamorphic>FALSE</anamorphic>
            <alphatype>straight</alphatype>
            <masterclipid>A.png154</masterclipid>
            <file id="A">
              <name>A.png</name>
              <pathurl>D:/Codes/SynthLip/SynthLipN/bin/Debug/net6.0-windows/Skin/template/A.png</pathurl>
              <rate>
                <ntsc>FALSE</ntsc>
                <timebase>25</timebase>
              </rate>
              <duration>2</duration>
              <width>1920</width>
              <height>1080</height>
              <media>
                <video>
                  <duration>2</duration>
                  <stillframe>TRUE</stillframe>
                  <samplecharacteristics>
                    <rate>
                      <ntsc>FALSE</ntsc>
                      <timebase>25</timebase>
                    </rate>
                    <width>1920</width>
                    <height>1080</height>
                    <pixelaspectratio>Square</pixelaspectratio>
                    <anamorphic>FALSE</anamorphic>
                  </samplecharacteristics>
                </video>
              </media>
            </file>
            <sourcetrack>
              <mediatype>video</mediatype>
            </sourcetrack>
            <fielddominance>none</fielddominance>
          </clipitem>
          <clipitem id="F.png153">
            <name>F.png</name>
            <duration>1</duration>
            <rate>
              <ntsc>FALSE</ntsc>
              <timebase>25</timebase>
            </rate>
            <in>90489</in>
            <out>90490</out>
            <start>489</start>
            <end>490</end>
            <pixelaspectratio>Square</pixelaspectratio>
            <stillframe>TRUE</stillframe>
            <anamorphic>FALSE</anamorphic>
            <alphatype>straight</alphatype>
            <masterclipid>F.png153</masterclipid>
            <file id="F">
              <name>F.png</name>
              <pathurl>D:/Codes/SynthLip/SynthLipN/bin/Debug/net6.0-windows/Skin/template/F.png</pathurl>
              <rate>
                <ntsc>FALSE</ntsc>
                <timebase>25</timebase>
              </rate>
              <duration>2</duration>
              <width>1920</width>
              <height>1080</height>
              <media>
                <video>
                  <duration>2</duration>
                  <stillframe>TRUE</stillframe>
                  <samplecharacteristics>
                    <rate>
                      <ntsc>FALSE</ntsc>
                      <timebase>25</timebase>
                    </rate>
                    <width>1920</width>
                    <height>1080</height>
                    <pixelaspectratio>Square</pixelaspectratio>
                    <anamorphic>FALSE</anamorphic>
                  </samplecharacteristics>
                </video>
              </media>
            </file>
            <sourcetrack>
              <mediatype>video</mediatype>
            </sourcetrack>
            <fielddominance>none</fielddominance>
          </clipitem>
          <clipitem id="A.png150">
            <name>A.png</name>
            <duration>3</duration>
            <rate>
              <ntsc>FALSE</ntsc>
              <timebase>25</timebase>
            </rate>
            <in>90483</in>
            <out>90486</out>
            <start>483</start>
            <end>486</end>
            <pixelaspectratio>Square</pixelaspectratio>
            <stillframe>TRUE</stillframe>
            <anamorphic>FALSE</anamorphic>
            <alphatype>straight</alphatype>
            <masterclipid>A.png150</masterclipid>
            <file id="A">
              <name>A.png</name>
              <pathurl>D:/Codes/SynthLip/SynthLipN/bin/Debug/net6.0-windows/Skin/template/A.png</pathurl>
              <rate>
                <ntsc>FALSE</ntsc>
                <timebase>25</timebase>
              </rate>
              <duration>2</duration>
              <width>1920</width>
              <height>1080</height>
              <media>
                <video>
                  <duration>2</duration>
                  <stillframe>TRUE</stillframe>
                  <samplecharacteristics>
                    <rate>
                      <ntsc>FALSE</ntsc>
                      <timebase>25</timebase>
                    </rate>
                    <width>1920</width>
                    <height>1080</height>
                    <pixelaspectratio>Square</pixelaspectratio>
                    <anamorphic>FALSE</anamorphic>
                  </samplecharacteristics>
                </video>
              </media>
            </file>
            <sourcetrack>
              <mediatype>video</mediatype>
            </sourcetrack>
            <fielddominance>none</fielddominance>
          </clipitem>
          <clipitem id="A.png149">
            <name>A.png</name>
            <duration>3</duration>
            <rate>
              <ntsc>FALSE</ntsc>
              <timebase>25</timebase>
            </rate>
            <in>90480</in>
            <out>90483</out>
            <start>480</start>
            <end>483</end>
            <pixelaspectratio>Square</pixelaspectratio>
            <stillframe>TRUE</stillframe>
            <anamorphic>FALSE</anamorphic>
            <alphatype>straight</alphatype>
            <masterclipid>A.png149</masterclipid>
            <file id="A">
              <name>A.png</name>
              <pathurl>D:/Codes/SynthLip/SynthLipN/bin/Debug/net6.0-windows/Skin/template/A.png</pathurl>
              <rate>
                <ntsc>FALSE</ntsc>
                <timebase>25</timebase>
              </rate>
              <duration>2</duration>
              <width>1920</width>
              <height>1080</height>
              <media>
                <video>
                  <duration>2</duration>
                  <stillframe>TRUE</stillframe>
                  <samplecharacteristics>
                    <rate>
                      <ntsc>FALSE</ntsc>
                      <timebase>25</timebase>
                    </rate>
                    <width>1920</width>
                    <height>1080</height>
                    <pixelaspectratio>Square</pixelaspectratio>
                    <anamorphic>FALSE</anamorphic>
                  </samplecharacteristics>
                </video>
              </media>
            </file>
            <sourcetrack>
              <mediatype>video</mediatype>
            </sourcetrack>
            <fielddominance>none</fielddominance>
          </clipitem>
          <clipitem id="B.png148">
            <name>B.png</name>
            <duration>3</duration>
            <rate>
              <ntsc>FALSE</ntsc>
              <timebase>25</timebase>
            </rate>
            <in>90476</in>
            <out>90479</out>
            <start>476</start>
            <end>479</end>
            <pixelaspectratio>Square</pixelaspectratio>
            <stillframe>TRUE</stillframe>
            <anamorphic>FALSE</anamorphic>
            <alphatype>straight</alphatype>
            <masterclipid>B.png148</masterclipid>
            <file id="B">
              <name>B.png</name>
              <pathurl>D:/Codes/SynthLip/SynthLipN/bin/Debug/net6.0-windows/Skin/template/B.png</pathurl>
              <rate>
                <ntsc>FALSE</ntsc>
                <timebase>25</timebase>
              </rate>
              <duration>2</duration>
              <width>1920</width>
              <height>1080</height>
              <media>
                <video>
                  <duration>2</duration>
                  <stillframe>TRUE</stillframe>
                  <samplecharacteristics>
                    <rate>
                      <ntsc>FALSE</ntsc>
                      <timebase>25</timebase>
                    </rate>
                    <width>1920</width>
                    <height>1080</height>
                    <pixelaspectratio>Square</pixelaspectratio>
                    <anamorphic>FALSE</anamorphic>
                  </samplecharacteristics>
                </video>
              </media>
            </file>
            <sourcetrack>
              <mediatype>video</mediatype>
            </sourcetrack>
            <fielddominance>none</fielddominance>
          </clipitem>
          <clipitem id="C.png147">
            <name>C.png</name>
            <duration>1</duration>
            <rate>
              <ntsc>FALSE</ntsc>
              <timebase>25</timebase>
            </rate>
            <in>90475</in>
            <out>90476</out>
            <start>475</start>
            <end>476</end>
            <pixelaspectratio>Square</pixelaspectratio>
            <stillframe>TRUE</stillframe>
            <anamorphic>FALSE</anamorphic>
            <alphatype>straight</alphatype>
            <masterclipid>C.png147</masterclipid>
            <file id="C">
              <name>C.png</name>
              <pathurl>D:/Codes/SynthLip/SynthLipN/bin/Debug/net6.0-windows/Skin/template/C.png</pathurl>
              <rate>
                <ntsc>FALSE</ntsc>
                <timebase>25</timebase>
              </rate>
              <duration>2</duration>
              <width>1920</width>
              <height>1080</height>
              <media>
                <video>
                  <duration>2</duration>
                  <stillframe>TRUE</stillframe>
                  <samplecharacteristics>
                    <rate>
                      <ntsc>FALSE</ntsc>
                      <timebase>25</timebase>
                    </rate>
                    <width>1920</width>
                    <height>1080</height>
                    <pixelaspectratio>Square</pixelaspectratio>
                    <anamorphic>FALSE</anamorphic>
                  </samplecharacteristics>
                </video>
              </media>
            </file>
            <sourcetrack>
              <mediatype>video</mediatype>
            </sourcetrack>
            <fielddominance>none</fielddominance>
          </clipitem>
          <clipitem id="G.png146">
            <name>G.png</name>
            <duration>1</duration>
            <rate>
              <ntsc>FALSE</ntsc>
              <timebase>25</timebase>
            </rate>
            <in>90473</in>
            <out>90474</out>
            <start>473</start>
            <end>474</end>
            <pixelaspectratio>Square</pixelaspectratio>
            <stillframe>TRUE</stillframe>
            <anamorphic>FALSE</anamorphic>
            <alphatype>straight</alphatype>
            <masterclipid>G.png146</masterclipid>
            <file id="G">
              <name>G.png</name>
              <pathurl>D:/Codes/SynthLip/SynthLipN/bin/Debug/net6.0-windows/Skin/template/G.png</pathurl>
              <rate>
                <ntsc>FALSE</ntsc>
                <timebase>25</timebase>
              </rate>
              <duration>2</duration>
              <width>1920</width>
              <height>1080</height>
              <media>
                <video>
                  <duration>2</duration>
                  <stillframe>TRUE</stillframe>
                  <samplecharacteristics>
                    <rate>
                      <ntsc>FALSE</ntsc>
                      <timebase>25</timebase>
                    </rate>
                    <width>1920</width>
                    <height>1080</height>
                    <pixelaspectratio>Square</pixelaspectratio>
                    <anamorphic>FALSE</anamorphic>
                  </samplecharacteristics>
                </video>
              </media>
            </file>
            <sourcetrack>
              <mediatype>video</mediatype>
            </sourcetrack>
            <fielddominance>none</fielddominance>
          </clipitem>
          <clipitem id="A.png145">
            <name>A.png</name>
            <duration>1</duration>
            <rate>
              <ntsc>FALSE</ntsc>
              <timebase>25</timebase>
            </rate>
            <in>90472</in>
            <out>90473</out>
            <start>472</start>
            <end>473</end>
            <pixelaspectratio>Square</pixelaspectratio>
            <stillframe>TRUE</stillframe>
            <anamorphic>FALSE</anamorphic>
            <alphatype>straight</alphatype>
            <masterclipid>A.png145</masterclipid>
            <file id="A">
              <name>A.png</name>
              <pathurl>D:/Codes/SynthLip/SynthLipN/bin/Debug/net6.0-windows/Skin/template/A.png</pathurl>
              <rate>
                <ntsc>FALSE</ntsc>
                <timebase>25</timebase>
              </rate>
              <duration>2</duration>
              <width>1920</width>
              <height>1080</height>
              <media>
                <video>
                  <duration>2</duration>
                  <stillframe>TRUE</stillframe>
                  <samplecharacteristics>
                    <rate>
                      <ntsc>FALSE</ntsc>
                      <timebase>25</timebase>
                    </rate>
                    <width>1920</width>
                    <height>1080</height>
                    <pixelaspectratio>Square</pixelaspectratio>
                    <anamorphic>FALSE</anamorphic>
                  </samplecharacteristics>
                </video>
              </media>
            </file>
            <sourcetrack>
              <mediatype>video</mediatype>
            </sourcetrack>
            <fielddominance>none</fielddominance>
          </clipitem>
          <clipitem id="D.png144">
            <name>D.png</name>
            <duration>2</duration>
            <rate>
              <ntsc>FALSE</ntsc>
              <timebase>25</timebase>
            </rate>
            <in>90470</in>
            <out>90472</out>
            <start>470</start>
            <end>472</end>
            <pixelaspectratio>Square</pixelaspectratio>
            <stillframe>TRUE</stillframe>
            <anamorphic>FALSE</anamorphic>
            <alphatype>straight</alphatype>
            <masterclipid>D.png144</masterclipid>
            <file id="D">
              <name>D.png</name>
              <pathurl>D:/Codes/SynthLip/SynthLipN/bin/Debug/net6.0-windows/Skin/template/D.png</pathurl>
              <rate>
                <ntsc>FALSE</ntsc>
                <timebase>25</timebase>
              </rate>
              <duration>2</duration>
              <width>1920</width>
              <height>1080</height>
              <media>
                <video>
                  <duration>2</duration>
                  <stillframe>TRUE</stillframe>
                  <samplecharacteristics>
                    <rate>
                      <ntsc>FALSE</ntsc>
                      <timebase>25</timebase>
                    </rate>
                    <width>1920</width>
                    <height>1080</height>
                    <pixelaspectratio>Square</pixelaspectratio>
                    <anamorphic>FALSE</anamorphic>
                  </samplecharacteristics>
                </video>
              </media>
            </file>
            <sourcetrack>
              <mediatype>video</mediatype>
            </sourcetrack>
            <fielddominance>none</fielddominance>
          </clipitem>
          <clipitem id="B.png143">
            <name>B.png</name>
            <duration>2</duration>
            <rate>
              <ntsc>FALSE</ntsc>
              <timebase>25</timebase>
            </rate>
            <in>90467</in>
            <out>90469</out>
            <start>467</start>
            <end>469</end>
            <pixelaspectratio>Square</pixelaspectratio>
            <stillframe>TRUE</stillframe>
            <anamorphic>FALSE</anamorphic>
            <alphatype>straight</alphatype>
            <masterclipid>B.png143</masterclipid>
            <file id="B">
              <name>B.png</name>
              <pathurl>D:/Codes/SynthLip/SynthLipN/bin/Debug/net6.0-windows/Skin/template/B.png</pathurl>
              <rate>
                <ntsc>FALSE</ntsc>
                <timebase>25</timebase>
              </rate>
              <duration>2</duration>
              <width>1920</width>
              <height>1080</height>
              <media>
                <video>
                  <duration>2</duration>
                  <stillframe>TRUE</stillframe>
                  <samplecharacteristics>
                    <rate>
                      <ntsc>FALSE</ntsc>
                      <timebase>25</timebase>
                    </rate>
                    <width>1920</width>
                    <height>1080</height>
                    <pixelaspectratio>Square</pixelaspectratio>
                    <anamorphic>FALSE</anamorphic>
                  </samplecharacteristics>
                </video>
              </media>
            </file>
            <sourcetrack>
              <mediatype>video</mediatype>
            </sourcetrack>
            <fielddominance>none</fielddominance>
          </clipitem>
          <clipitem id="B.png142">
            <name>B.png</name>
            <duration>2</duration>
            <rate>
              <ntsc>FALSE</ntsc>
              <timebase>25</timebase>
            </rate>
            <in>90465</in>
            <out>90467</out>
            <start>465</start>
            <end>467</end>
            <pixelaspectratio>Square</pixelaspectratio>
            <stillframe>TRUE</stillframe>
            <anamorphic>FALSE</anamorphic>
            <alphatype>straight</alphatype>
            <masterclipid>B.png142</masterclipid>
            <file id="B">
              <name>B.png</name>
              <pathurl>D:/Codes/SynthLip/SynthLipN/bin/Debug/net6.0-windows/Skin/template/B.png</pathurl>
              <rate>
                <ntsc>FALSE</ntsc>
                <timebase>25</timebase>
              </rate>
              <duration>2</duration>
              <width>1920</width>
              <height>1080</height>
              <media>
                <video>
                  <duration>2</duration>
                  <stillframe>TRUE</stillframe>
                  <samplecharacteristics>
                    <rate>
                      <ntsc>FALSE</ntsc>
                      <timebase>25</timebase>
                    </rate>
                    <width>1920</width>
                    <height>1080</height>
                    <pixelaspectratio>Square</pixelaspectratio>
                    <anamorphic>FALSE</anamorphic>
                  </samplecharacteristics>
                </video>
              </media>
            </file>
            <sourcetrack>
              <mediatype>video</mediatype>
            </sourcetrack>
            <fielddominance>none</fielddominance>
          </clipitem>
          <clipitem id="D.png141">
            <name>D.png</name>
            <duration>2</duration>
            <rate>
              <ntsc>FALSE</ntsc>
              <timebase>25</timebase>
            </rate>
            <in>90462</in>
            <out>90464</out>
            <start>462</start>
            <end>464</end>
            <pixelaspectratio>Square</pixelaspectratio>
            <stillframe>TRUE</stillframe>
            <anamorphic>FALSE</anamorphic>
            <alphatype>straight</alphatype>
            <masterclipid>D.png141</masterclipid>
            <file id="D">
              <name>D.png</name>
              <pathurl>D:/Codes/SynthLip/SynthLipN/bin/Debug/net6.0-windows/Skin/template/D.png</pathurl>
              <rate>
                <ntsc>FALSE</ntsc>
                <timebase>25</timebase>
              </rate>
              <duration>2</duration>
              <width>1920</width>
              <height>1080</height>
              <media>
                <video>
                  <duration>2</duration>
                  <stillframe>TRUE</stillframe>
                  <samplecharacteristics>
                    <rate>
                      <ntsc>FALSE</ntsc>
                      <timebase>25</timebase>
                    </rate>
                    <width>1920</width>
                    <height>1080</height>
                    <pixelaspectratio>Square</pixelaspectratio>
                    <anamorphic>FALSE</anamorphic>
                  </samplecharacteristics>
                </video>
              </media>
            </file>
            <sourcetrack>
              <mediatype>video</mediatype>
            </sourcetrack>
            <fielddominance>none</fielddominance>
          </clipitem>
          <clipitem id="B.png140">
            <name>B.png</name>
            <duration>2</duration>
            <rate>
              <ntsc>FALSE</ntsc>
              <timebase>25</timebase>
            </rate>
            <in>90460</in>
            <out>90462</out>
            <start>460</start>
            <end>462</end>
            <pixelaspectratio>Square</pixelaspectratio>
            <stillframe>TRUE</stillframe>
            <anamorphic>FALSE</anamorphic>
            <alphatype>straight</alphatype>
            <masterclipid>B.png140</masterclipid>
            <file id="B">
              <name>B.png</name>
              <pathurl>D:/Codes/SynthLip/SynthLipN/bin/Debug/net6.0-windows/Skin/template/B.png</pathurl>
              <rate>
                <ntsc>FALSE</ntsc>
                <timebase>25</timebase>
              </rate>
              <duration>2</duration>
              <width>1920</width>
              <height>1080</height>
              <media>
                <video>
                  <duration>2</duration>
                  <stillframe>TRUE</stillframe>
                  <samplecharacteristics>
                    <rate>
                      <ntsc>FALSE</ntsc>
                      <timebase>25</timebase>
                    </rate>
                    <width>1920</width>
                    <height>1080</height>
                    <pixelaspectratio>Square</pixelaspectratio>
                    <anamorphic>FALSE</anamorphic>
                  </samplecharacteristics>
                </video>
              </media>
            </file>
            <sourcetrack>
              <mediatype>video</mediatype>
            </sourcetrack>
            <fielddominance>none</fielddominance>
          </clipitem>
          <clipitem id="A.png139">
            <name>A.png</name>
            <duration>2</duration>
            <rate>
              <ntsc>FALSE</ntsc>
              <timebase>25</timebase>
            </rate>
            <in>90457</in>
            <out>90459</out>
            <start>457</start>
            <end>459</end>
            <pixelaspectratio>Square</pixelaspectratio>
            <stillframe>TRUE</stillframe>
            <anamorphic>FALSE</anamorphic>
            <alphatype>straight</alphatype>
            <masterclipid>A.png139</masterclipid>
            <file id="A">
              <name>A.png</name>
              <pathurl>D:/Codes/SynthLip/SynthLipN/bin/Debug/net6.0-windows/Skin/template/A.png</pathurl>
              <rate>
                <ntsc>FALSE</ntsc>
                <timebase>25</timebase>
              </rate>
              <duration>2</duration>
              <width>1920</width>
              <height>1080</height>
              <media>
                <video>
                  <duration>2</duration>
                  <stillframe>TRUE</stillframe>
                  <samplecharacteristics>
                    <rate>
                      <ntsc>FALSE</ntsc>
                      <timebase>25</timebase>
                    </rate>
                    <width>1920</width>
                    <height>1080</height>
                    <pixelaspectratio>Square</pixelaspectratio>
                    <anamorphic>FALSE</anamorphic>
                  </samplecharacteristics>
                </video>
              </media>
            </file>
            <sourcetrack>
              <mediatype>video</mediatype>
            </sourcetrack>
            <fielddominance>none</fielddominance>
          </clipitem>
          <clipitem id="E.png138">
            <name>E.png</name>
            <duration>5</duration>
            <rate>
              <ntsc>FALSE</ntsc>
              <timebase>25</timebase>
            </rate>
            <in>90451</in>
            <out>90456</out>
            <start>451</start>
            <end>456</end>
            <pixelaspectratio>Square</pixelaspectratio>
            <stillframe>TRUE</stillframe>
            <anamorphic>FALSE</anamorphic>
            <alphatype>straight</alphatype>
            <masterclipid>E.png138</masterclipid>
            <file id="E">
              <name>E.png</name>
              <pathurl>D:/Codes/SynthLip/SynthLipN/bin/Debug/net6.0-windows/Skin/template/E.png</pathurl>
              <rate>
                <ntsc>FALSE</ntsc>
                <timebase>25</timebase>
              </rate>
              <duration>2</duration>
              <width>1920</width>
              <height>1080</height>
              <media>
                <video>
                  <duration>2</duration>
                  <stillframe>TRUE</stillframe>
                  <samplecharacteristics>
                    <rate>
                      <ntsc>FALSE</ntsc>
                      <timebase>25</timebase>
                    </rate>
                    <width>1920</width>
                    <height>1080</height>
                    <pixelaspectratio>Square</pixelaspectratio>
                    <anamorphic>FALSE</anamorphic>
                  </samplecharacteristics>
                </video>
              </media>
            </file>
            <sourcetrack>
              <mediatype>video</mediatype>
            </sourcetrack>
            <fielddominance>none</fielddominance>
          </clipitem>
          <clipitem id="B.png136">
            <name>B.png</name>
            <duration>8</duration>
            <rate>
              <ntsc>FALSE</ntsc>
              <timebase>25</timebase>
            </rate>
            <in>90442</in>
            <out>90450</out>
            <start>442</start>
            <end>450</end>
            <pixelaspectratio>Square</pixelaspectratio>
            <stillframe>TRUE</stillframe>
            <anamorphic>FALSE</anamorphic>
            <alphatype>straight</alphatype>
            <masterclipid>B.png136</masterclipid>
            <file id="B">
              <name>B.png</name>
              <pathurl>D:/Codes/SynthLip/SynthLipN/bin/Debug/net6.0-windows/Skin/template/B.png</pathurl>
              <rate>
                <ntsc>FALSE</ntsc>
                <timebase>25</timebase>
              </rate>
              <duration>2</duration>
              <width>1920</width>
              <height>1080</height>
              <media>
                <video>
                  <duration>2</duration>
                  <stillframe>TRUE</stillframe>
                  <samplecharacteristics>
                    <rate>
                      <ntsc>FALSE</ntsc>
                      <timebase>25</timebase>
                    </rate>
                    <width>1920</width>
                    <height>1080</height>
                    <pixelaspectratio>Square</pixelaspectratio>
                    <anamorphic>FALSE</anamorphic>
                  </samplecharacteristics>
                </video>
              </media>
            </file>
            <sourcetrack>
              <mediatype>video</mediatype>
            </sourcetrack>
            <fielddominance>none</fielddominance>
          </clipitem>
          <clipitem id="C.png135">
            <name>C.png</name>
            <duration>2</duration>
            <rate>
              <ntsc>FALSE</ntsc>
              <timebase>25</timebase>
            </rate>
            <in>90439</in>
            <out>90441</out>
            <start>439</start>
            <end>441</end>
            <pixelaspectratio>Square</pixelaspectratio>
            <stillframe>TRUE</stillframe>
            <anamorphic>FALSE</anamorphic>
            <alphatype>straight</alphatype>
            <masterclipid>C.png135</masterclipid>
            <file id="C">
              <name>C.png</name>
              <pathurl>D:/Codes/SynthLip/SynthLipN/bin/Debug/net6.0-windows/Skin/template/C.png</pathurl>
              <rate>
                <ntsc>FALSE</ntsc>
                <timebase>25</timebase>
              </rate>
              <duration>2</duration>
              <width>1920</width>
              <height>1080</height>
              <media>
                <video>
                  <duration>2</duration>
                  <stillframe>TRUE</stillframe>
                  <samplecharacteristics>
                    <rate>
                      <ntsc>FALSE</ntsc>
                      <timebase>25</timebase>
                    </rate>
                    <width>1920</width>
                    <height>1080</height>
                    <pixelaspectratio>Square</pixelaspectratio>
                    <anamorphic>FALSE</anamorphic>
                  </samplecharacteristics>
                </video>
              </media>
            </file>
            <sourcetrack>
              <mediatype>video</mediatype>
            </sourcetrack>
            <fielddominance>none</fielddominance>
          </clipitem>
          <clipitem id="B.png134">
            <name>B.png</name>
            <duration>2</duration>
            <rate>
              <ntsc>FALSE</ntsc>
              <timebase>25</timebase>
            </rate>
            <in>90437</in>
            <out>90439</out>
            <start>437</start>
            <end>439</end>
            <pixelaspectratio>Square</pixelaspectratio>
            <stillframe>TRUE</stillframe>
            <anamorphic>FALSE</anamorphic>
            <alphatype>straight</alphatype>
            <masterclipid>B.png134</masterclipid>
            <file id="B">
              <name>B.png</name>
              <pathurl>D:/Codes/SynthLip/SynthLipN/bin/Debug/net6.0-windows/Skin/template/B.png</pathurl>
              <rate>
                <ntsc>FALSE</ntsc>
                <timebase>25</timebase>
              </rate>
              <duration>2</duration>
              <width>1920</width>
              <height>1080</height>
              <media>
                <video>
                  <duration>2</duration>
                  <stillframe>TRUE</stillframe>
                  <samplecharacteristics>
                    <rate>
                      <ntsc>FALSE</ntsc>
                      <timebase>25</timebase>
                    </rate>
                    <width>1920</width>
                    <height>1080</height>
                    <pixelaspectratio>Square</pixelaspectratio>
                    <anamorphic>FALSE</anamorphic>
                  </samplecharacteristics>
                </video>
              </media>
            </file>
            <sourcetrack>
              <mediatype>video</mediatype>
            </sourcetrack>
            <fielddominance>none</fielddominance>
          </clipitem>
          <clipitem id="A.png133">
            <name>A.png</name>
            <duration>2</duration>
            <rate>
              <ntsc>FALSE</ntsc>
              <timebase>25</timebase>
            </rate>
            <in>90434</in>
            <out>90436</out>
            <start>434</start>
            <end>436</end>
            <pixelaspectratio>Square</pixelaspectratio>
            <stillframe>TRUE</stillframe>
            <anamorphic>FALSE</anamorphic>
            <alphatype>straight</alphatype>
            <masterclipid>A.png133</masterclipid>
            <file id="A">
              <name>A.png</name>
              <pathurl>D:/Codes/SynthLip/SynthLipN/bin/Debug/net6.0-windows/Skin/template/A.png</pathurl>
              <rate>
                <ntsc>FALSE</ntsc>
                <timebase>25</timebase>
              </rate>
              <duration>2</duration>
              <width>1920</width>
              <height>1080</height>
              <media>
                <video>
                  <duration>2</duration>
                  <stillframe>TRUE</stillframe>
                  <samplecharacteristics>
                    <rate>
                      <ntsc>FALSE</ntsc>
                      <timebase>25</timebase>
                    </rate>
                    <width>1920</width>
                    <height>1080</height>
                    <pixelaspectratio>Square</pixelaspectratio>
                    <anamorphic>FALSE</anamorphic>
                  </samplecharacteristics>
                </video>
              </media>
            </file>
            <sourcetrack>
              <mediatype>video</mediatype>
            </sourcetrack>
            <fielddominance>none</fielddominance>
          </clipitem>
          <clipitem id="A.png132">
            <name>A.png</name>
            <duration>3</duration>
            <rate>
              <ntsc>FALSE</ntsc>
              <timebase>25</timebase>
            </rate>
            <in>90431</in>
            <out>90434</out>
            <start>431</start>
            <end>434</end>
            <pixelaspectratio>Square</pixelaspectratio>
            <stillframe>TRUE</stillframe>
            <anamorphic>FALSE</anamorphic>
            <alphatype>straight</alphatype>
            <masterclipid>A.png132</masterclipid>
            <file id="A">
              <name>A.png</name>
              <pathurl>D:/Codes/SynthLip/SynthLipN/bin/Debug/net6.0-windows/Skin/template/A.png</pathurl>
              <rate>
                <ntsc>FALSE</ntsc>
                <timebase>25</timebase>
              </rate>
              <duration>2</duration>
              <width>1920</width>
              <height>1080</height>
              <media>
                <video>
                  <duration>2</duration>
                  <stillframe>TRUE</stillframe>
                  <samplecharacteristics>
                    <rate>
                      <ntsc>FALSE</ntsc>
                      <timebase>25</timebase>
                    </rate>
                    <width>1920</width>
                    <height>1080</height>
                    <pixelaspectratio>Square</pixelaspectratio>
                    <anamorphic>FALSE</anamorphic>
                  </samplecharacteristics>
                </video>
              </media>
            </file>
            <sourcetrack>
              <mediatype>video</mediatype>
            </sourcetrack>
            <fielddominance>none</fielddominance>
          </clipitem>
          <clipitem id="B.png131">
            <name>B.png</name>
            <duration>1</duration>
            <rate>
              <ntsc>FALSE</ntsc>
              <timebase>25</timebase>
            </rate>
            <in>90429</in>
            <out>90430</out>
            <start>429</start>
            <end>430</end>
            <pixelaspectratio>Square</pixelaspectratio>
            <stillframe>TRUE</stillframe>
            <anamorphic>FALSE</anamorphic>
            <alphatype>straight</alphatype>
            <masterclipid>B.png131</masterclipid>
            <file id="B">
              <name>B.png</name>
              <pathurl>D:/Codes/SynthLip/SynthLipN/bin/Debug/net6.0-windows/Skin/template/B.png</pathurl>
              <rate>
                <ntsc>FALSE</ntsc>
                <timebase>25</timebase>
              </rate>
              <duration>2</duration>
              <width>1920</width>
              <height>1080</height>
              <media>
                <video>
                  <duration>2</duration>
                  <stillframe>TRUE</stillframe>
                  <samplecharacteristics>
                    <rate>
                      <ntsc>FALSE</ntsc>
                      <timebase>25</timebase>
                    </rate>
                    <width>1920</width>
                    <height>1080</height>
                    <pixelaspectratio>Square</pixelaspectratio>
                    <anamorphic>FALSE</anamorphic>
                  </samplecharacteristics>
                </video>
              </media>
            </file>
            <sourcetrack>
              <mediatype>video</mediatype>
            </sourcetrack>
            <fielddominance>none</fielddominance>
          </clipitem>
          <clipitem id="B.png128">
            <name>B.png</name>
            <duration>1</duration>
            <rate>
              <ntsc>FALSE</ntsc>
              <timebase>25</timebase>
            </rate>
            <in>90425</in>
            <out>90426</out>
            <start>425</start>
            <end>426</end>
            <pixelaspectratio>Square</pixelaspectratio>
            <stillframe>TRUE</stillframe>
            <anamorphic>FALSE</anamorphic>
            <alphatype>straight</alphatype>
            <masterclipid>B.png128</masterclipid>
            <file id="B">
              <name>B.png</name>
              <pathurl>D:/Codes/SynthLip/SynthLipN/bin/Debug/net6.0-windows/Skin/template/B.png</pathurl>
              <rate>
                <ntsc>FALSE</ntsc>
                <timebase>25</timebase>
              </rate>
              <duration>2</duration>
              <width>1920</width>
              <height>1080</height>
              <media>
                <video>
                  <duration>2</duration>
                  <stillframe>TRUE</stillframe>
                  <samplecharacteristics>
                    <rate>
                      <ntsc>FALSE</ntsc>
                      <timebase>25</timebase>
                    </rate>
                    <width>1920</width>
                    <height>1080</height>
                    <pixelaspectratio>Square</pixelaspectratio>
                    <anamorphic>FALSE</anamorphic>
                  </samplecharacteristics>
                </video>
              </media>
            </file>
            <sourcetrack>
              <mediatype>video</mediatype>
            </sourcetrack>
            <fielddominance>none</fielddominance>
          </clipitem>
          <clipitem id="C.png127">
            <name>C.png</name>
            <duration>1</duration>
            <rate>
              <ntsc>FALSE</ntsc>
              <timebase>25</timebase>
            </rate>
            <in>90423</in>
            <out>90424</out>
            <start>423</start>
            <end>424</end>
            <pixelaspectratio>Square</pixelaspectratio>
            <stillframe>TRUE</stillframe>
            <anamorphic>FALSE</anamorphic>
            <alphatype>straight</alphatype>
            <masterclipid>C.png127</masterclipid>
            <file id="C">
              <name>C.png</name>
              <pathurl>D:/Codes/SynthLip/SynthLipN/bin/Debug/net6.0-windows/Skin/template/C.png</pathurl>
              <rate>
                <ntsc>FALSE</ntsc>
                <timebase>25</timebase>
              </rate>
              <duration>2</duration>
              <width>1920</width>
              <height>1080</height>
              <media>
                <video>
                  <duration>2</duration>
                  <stillframe>TRUE</stillframe>
                  <samplecharacteristics>
                    <rate>
                      <ntsc>FALSE</ntsc>
                      <timebase>25</timebase>
                    </rate>
                    <width>1920</width>
                    <height>1080</height>
                    <pixelaspectratio>Square</pixelaspectratio>
                    <anamorphic>FALSE</anamorphic>
                  </samplecharacteristics>
                </video>
              </media>
            </file>
            <sourcetrack>
              <mediatype>video</mediatype>
            </sourcetrack>
            <fielddominance>none</fielddominance>
          </clipitem>
          <clipitem id="G.png126">
            <name>G.png</name>
            <duration>1</duration>
            <rate>
              <ntsc>FALSE</ntsc>
              <timebase>25</timebase>
            </rate>
            <in>90421</in>
            <out>90422</out>
            <start>421</start>
            <end>422</end>
            <pixelaspectratio>Square</pixelaspectratio>
            <stillframe>TRUE</stillframe>
            <anamorphic>FALSE</anamorphic>
            <alphatype>straight</alphatype>
            <masterclipid>G.png126</masterclipid>
            <file id="G">
              <name>G.png</name>
              <pathurl>D:/Codes/SynthLip/SynthLipN/bin/Debug/net6.0-windows/Skin/template/G.png</pathurl>
              <rate>
                <ntsc>FALSE</ntsc>
                <timebase>25</timebase>
              </rate>
              <duration>2</duration>
              <width>1920</width>
              <height>1080</height>
              <media>
                <video>
                  <duration>2</duration>
                  <stillframe>TRUE</stillframe>
                  <samplecharacteristics>
                    <rate>
                      <ntsc>FALSE</ntsc>
                      <timebase>25</timebase>
                    </rate>
                    <width>1920</width>
                    <height>1080</height>
                    <pixelaspectratio>Square</pixelaspectratio>
                    <anamorphic>FALSE</anamorphic>
                  </samplecharacteristics>
                </video>
              </media>
            </file>
            <sourcetrack>
              <mediatype>video</mediatype>
            </sourcetrack>
            <fielddominance>none</fielddominance>
          </clipitem>
          <clipitem id="A.png125">
            <name>A.png</name>
            <duration>1</duration>
            <rate>
              <ntsc>FALSE</ntsc>
              <timebase>25</timebase>
            </rate>
            <in>90420</in>
            <out>90421</out>
            <start>420</start>
            <end>421</end>
            <pixelaspectratio>Square</pixelaspectratio>
            <stillframe>TRUE</stillframe>
            <anamorphic>FALSE</anamorphic>
            <alphatype>straight</alphatype>
            <masterclipid>A.png125</masterclipid>
            <file id="A">
              <name>A.png</name>
              <pathurl>D:/Codes/SynthLip/SynthLipN/bin/Debug/net6.0-windows/Skin/template/A.png</pathurl>
              <rate>
                <ntsc>FALSE</ntsc>
                <timebase>25</timebase>
              </rate>
              <duration>2</duration>
              <width>1920</width>
              <height>1080</height>
              <media>
                <video>
                  <duration>2</duration>
                  <stillframe>TRUE</stillframe>
                  <samplecharacteristics>
                    <rate>
                      <ntsc>FALSE</ntsc>
                      <timebase>25</timebase>
                    </rate>
                    <width>1920</width>
                    <height>1080</height>
                    <pixelaspectratio>Square</pixelaspectratio>
                    <anamorphic>FALSE</anamorphic>
                  </samplecharacteristics>
                </video>
              </media>
            </file>
            <sourcetrack>
              <mediatype>video</mediatype>
            </sourcetrack>
            <fielddominance>none</fielddominance>
          </clipitem>
          <clipitem id="B.png124">
            <name>B.png</name>
            <duration>3</duration>
            <rate>
              <ntsc>FALSE</ntsc>
              <timebase>25</timebase>
            </rate>
            <in>90416</in>
            <out>90419</out>
            <start>416</start>
            <end>419</end>
            <pixelaspectratio>Square</pixelaspectratio>
            <stillframe>TRUE</stillframe>
            <anamorphic>FALSE</anamorphic>
            <alphatype>straight</alphatype>
            <masterclipid>B.png124</masterclipid>
            <file id="B">
              <name>B.png</name>
              <pathurl>D:/Codes/SynthLip/SynthLipN/bin/Debug/net6.0-windows/Skin/template/B.png</pathurl>
              <rate>
                <ntsc>FALSE</ntsc>
                <timebase>25</timebase>
              </rate>
              <duration>2</duration>
              <width>1920</width>
              <height>1080</height>
              <media>
                <video>
                  <duration>2</duration>
                  <stillframe>TRUE</stillframe>
                  <samplecharacteristics>
                    <rate>
                      <ntsc>FALSE</ntsc>
                      <timebase>25</timebase>
                    </rate>
                    <width>1920</width>
                    <height>1080</height>
                    <pixelaspectratio>Square</pixelaspectratio>
                    <anamorphic>FALSE</anamorphic>
                  </samplecharacteristics>
                </video>
              </media>
            </file>
            <sourcetrack>
              <mediatype>video</mediatype>
            </sourcetrack>
            <fielddominance>none</fielddominance>
          </clipitem>
          <clipitem id="C.png123">
            <name>C.png</name>
            <duration>1</duration>
            <rate>
              <ntsc>FALSE</ntsc>
              <timebase>25</timebase>
            </rate>
            <in>90414</in>
            <out>90415</out>
            <start>414</start>
            <end>415</end>
            <pixelaspectratio>Square</pixelaspectratio>
            <stillframe>TRUE</stillframe>
            <anamorphic>FALSE</anamorphic>
            <alphatype>straight</alphatype>
            <masterclipid>C.png123</masterclipid>
            <file id="C">
              <name>C.png</name>
              <pathurl>D:/Codes/SynthLip/SynthLipN/bin/Debug/net6.0-windows/Skin/template/C.png</pathurl>
              <rate>
                <ntsc>FALSE</ntsc>
                <timebase>25</timebase>
              </rate>
              <duration>2</duration>
              <width>1920</width>
              <height>1080</height>
              <media>
                <video>
                  <duration>2</duration>
                  <stillframe>TRUE</stillframe>
                  <samplecharacteristics>
                    <rate>
                      <ntsc>FALSE</ntsc>
                      <timebase>25</timebase>
                    </rate>
                    <width>1920</width>
                    <height>1080</height>
                    <pixelaspectratio>Square</pixelaspectratio>
                    <anamorphic>FALSE</anamorphic>
                  </samplecharacteristics>
                </video>
              </media>
            </file>
            <sourcetrack>
              <mediatype>video</mediatype>
            </sourcetrack>
            <fielddominance>none</fielddominance>
          </clipitem>
          <clipitem id="B.png122">
            <name>B.png</name>
            <duration>1</duration>
            <rate>
              <ntsc>FALSE</ntsc>
              <timebase>25</timebase>
            </rate>
            <in>90413</in>
            <out>90414</out>
            <start>413</start>
            <end>414</end>
            <pixelaspectratio>Square</pixelaspectratio>
            <stillframe>TRUE</stillframe>
            <anamorphic>FALSE</anamorphic>
            <alphatype>straight</alphatype>
            <masterclipid>B.png122</masterclipid>
            <file id="B">
              <name>B.png</name>
              <pathurl>D:/Codes/SynthLip/SynthLipN/bin/Debug/net6.0-windows/Skin/template/B.png</pathurl>
              <rate>
                <ntsc>FALSE</ntsc>
                <timebase>25</timebase>
              </rate>
              <duration>2</duration>
              <width>1920</width>
              <height>1080</height>
              <media>
                <video>
                  <duration>2</duration>
                  <stillframe>TRUE</stillframe>
                  <samplecharacteristics>
                    <rate>
                      <ntsc>FALSE</ntsc>
                      <timebase>25</timebase>
                    </rate>
                    <width>1920</width>
                    <height>1080</height>
                    <pixelaspectratio>Square</pixelaspectratio>
                    <anamorphic>FALSE</anamorphic>
                  </samplecharacteristics>
                </video>
              </media>
            </file>
            <sourcetrack>
              <mediatype>video</mediatype>
            </sourcetrack>
            <fielddominance>none</fielddominance>
          </clipitem>
          <clipitem id="D.png121">
            <name>D.png</name>
            <duration>1</duration>
            <rate>
              <ntsc>FALSE</ntsc>
              <timebase>25</timebase>
            </rate>
            <in>90412</in>
            <out>90413</out>
            <start>412</start>
            <end>413</end>
            <pixelaspectratio>Square</pixelaspectratio>
            <stillframe>TRUE</stillframe>
            <anamorphic>FALSE</anamorphic>
            <alphatype>straight</alphatype>
            <masterclipid>D.png121</masterclipid>
            <file id="D">
              <name>D.png</name>
              <pathurl>D:/Codes/SynthLip/SynthLipN/bin/Debug/net6.0-windows/Skin/template/D.png</pathurl>
              <rate>
                <ntsc>FALSE</ntsc>
                <timebase>25</timebase>
              </rate>
              <duration>2</duration>
              <width>1920</width>
              <height>1080</height>
              <media>
                <video>
                  <duration>2</duration>
                  <stillframe>TRUE</stillframe>
                  <samplecharacteristics>
                    <rate>
                      <ntsc>FALSE</ntsc>
                      <timebase>25</timebase>
                    </rate>
                    <width>1920</width>
                    <height>1080</height>
                    <pixelaspectratio>Square</pixelaspectratio>
                    <anamorphic>FALSE</anamorphic>
                  </samplecharacteristics>
                </video>
              </media>
            </file>
            <sourcetrack>
              <mediatype>video</mediatype>
            </sourcetrack>
            <fielddominance>none</fielddominance>
          </clipitem>
          <clipitem id="A.png120">
            <name>A.png</name>
            <duration>3</duration>
            <rate>
              <ntsc>FALSE</ntsc>
              <timebase>25</timebase>
            </rate>
            <in>90408</in>
            <out>90411</out>
            <start>408</start>
            <end>411</end>
            <pixelaspectratio>Square</pixelaspectratio>
            <stillframe>TRUE</stillframe>
            <anamorphic>FALSE</anamorphic>
            <alphatype>straight</alphatype>
            <masterclipid>A.png120</masterclipid>
            <file id="A">
              <name>A.png</name>
              <pathurl>D:/Codes/SynthLip/SynthLipN/bin/Debug/net6.0-windows/Skin/template/A.png</pathurl>
              <rate>
                <ntsc>FALSE</ntsc>
                <timebase>25</timebase>
              </rate>
              <duration>2</duration>
              <width>1920</width>
              <height>1080</height>
              <media>
                <video>
                  <duration>2</duration>
                  <stillframe>TRUE</stillframe>
                  <samplecharacteristics>
                    <rate>
                      <ntsc>FALSE</ntsc>
                      <timebase>25</timebase>
                    </rate>
                    <width>1920</width>
                    <height>1080</height>
                    <pixelaspectratio>Square</pixelaspectratio>
                    <anamorphic>FALSE</anamorphic>
                  </samplecharacteristics>
                </video>
              </media>
            </file>
            <sourcetrack>
              <mediatype>video</mediatype>
            </sourcetrack>
            <fielddominance>none</fielddominance>
          </clipitem>
          <clipitem id="C.png119">
            <name>C.png</name>
            <duration>3</duration>
            <rate>
              <ntsc>FALSE</ntsc>
              <timebase>25</timebase>
            </rate>
            <in>90405</in>
            <out>90408</out>
            <start>405</start>
            <end>408</end>
            <pixelaspectratio>Square</pixelaspectratio>
            <stillframe>TRUE</stillframe>
            <anamorphic>FALSE</anamorphic>
            <alphatype>straight</alphatype>
            <masterclipid>C.png119</masterclipid>
            <file id="C">
              <name>C.png</name>
              <pathurl>D:/Codes/SynthLip/SynthLipN/bin/Debug/net6.0-windows/Skin/template/C.png</pathurl>
              <rate>
                <ntsc>FALSE</ntsc>
                <timebase>25</timebase>
              </rate>
              <duration>2</duration>
              <width>1920</width>
              <height>1080</height>
              <media>
                <video>
                  <duration>2</duration>
                  <stillframe>TRUE</stillframe>
                  <samplecharacteristics>
                    <rate>
                      <ntsc>FALSE</ntsc>
                      <timebase>25</timebase>
                    </rate>
                    <width>1920</width>
                    <height>1080</height>
                    <pixelaspectratio>Square</pixelaspectratio>
                    <anamorphic>FALSE</anamorphic>
                  </samplecharacteristics>
                </video>
              </media>
            </file>
            <sourcetrack>
              <mediatype>video</mediatype>
            </sourcetrack>
            <fielddominance>none</fielddominance>
          </clipitem>
          <clipitem id="H.png118">
            <name>H.png</name>
            <duration>3</duration>
            <rate>
              <ntsc>FALSE</ntsc>
              <timebase>25</timebase>
            </rate>
            <in>90401</in>
            <out>90404</out>
            <start>401</start>
            <end>404</end>
            <pixelaspectratio>Square</pixelaspectratio>
            <stillframe>TRUE</stillframe>
            <anamorphic>FALSE</anamorphic>
            <alphatype>straight</alphatype>
            <masterclipid>H.png118</masterclipid>
            <file id="H">
              <name>H.png</name>
              <pathurl>D:/Codes/SynthLip/SynthLipN/bin/Debug/net6.0-windows/Skin/template/H.png</pathurl>
              <rate>
                <ntsc>FALSE</ntsc>
                <timebase>25</timebase>
              </rate>
              <duration>2</duration>
              <width>1920</width>
              <height>1080</height>
              <media>
                <video>
                  <duration>2</duration>
                  <stillframe>TRUE</stillframe>
                  <samplecharacteristics>
                    <rate>
                      <ntsc>FALSE</ntsc>
                      <timebase>25</timebase>
                    </rate>
                    <width>1920</width>
                    <height>1080</height>
                    <pixelaspectratio>Square</pixelaspectratio>
                    <anamorphic>FALSE</anamorphic>
                  </samplecharacteristics>
                </video>
              </media>
            </file>
            <sourcetrack>
              <mediatype>video</mediatype>
            </sourcetrack>
            <fielddominance>none</fielddominance>
          </clipitem>
          <clipitem id="A.png117">
            <name>A.png</name>
            <duration>3</duration>
            <rate>
              <ntsc>FALSE</ntsc>
              <timebase>25</timebase>
            </rate>
            <in>90397</in>
            <out>90400</out>
            <start>397</start>
            <end>400</end>
            <pixelaspectratio>Square</pixelaspectratio>
            <stillframe>TRUE</stillframe>
            <anamorphic>FALSE</anamorphic>
            <alphatype>straight</alphatype>
            <masterclipid>A.png117</masterclipid>
            <file id="A">
              <name>A.png</name>
              <pathurl>D:/Codes/SynthLip/SynthLipN/bin/Debug/net6.0-windows/Skin/template/A.png</pathurl>
              <rate>
                <ntsc>FALSE</ntsc>
                <timebase>25</timebase>
              </rate>
              <duration>2</duration>
              <width>1920</width>
              <height>1080</height>
              <media>
                <video>
                  <duration>2</duration>
                  <stillframe>TRUE</stillframe>
                  <samplecharacteristics>
                    <rate>
                      <ntsc>FALSE</ntsc>
                      <timebase>25</timebase>
                    </rate>
                    <width>1920</width>
                    <height>1080</height>
                    <pixelaspectratio>Square</pixelaspectratio>
                    <anamorphic>FALSE</anamorphic>
                  </samplecharacteristics>
                </video>
              </media>
            </file>
            <sourcetrack>
              <mediatype>video</mediatype>
            </sourcetrack>
            <fielddominance>none</fielddominance>
          </clipitem>
          <clipitem id="A.png116">
            <name>A.png</name>
            <duration>5</duration>
            <rate>
              <ntsc>FALSE</ntsc>
              <timebase>25</timebase>
            </rate>
            <in>90391</in>
            <out>90396</out>
            <start>391</start>
            <end>396</end>
            <pixelaspectratio>Square</pixelaspectratio>
            <stillframe>TRUE</stillframe>
            <anamorphic>FALSE</anamorphic>
            <alphatype>straight</alphatype>
            <masterclipid>A.png116</masterclipid>
            <file id="A">
              <name>A.png</name>
              <pathurl>D:/Codes/SynthLip/SynthLipN/bin/Debug/net6.0-windows/Skin/template/A.png</pathurl>
              <rate>
                <ntsc>FALSE</ntsc>
                <timebase>25</timebase>
              </rate>
              <duration>2</duration>
              <width>1920</width>
              <height>1080</height>
              <media>
                <video>
                  <duration>2</duration>
                  <stillframe>TRUE</stillframe>
                  <samplecharacteristics>
                    <rate>
                      <ntsc>FALSE</ntsc>
                      <timebase>25</timebase>
                    </rate>
                    <width>1920</width>
                    <height>1080</height>
                    <pixelaspectratio>Square</pixelaspectratio>
                    <anamorphic>FALSE</anamorphic>
                  </samplecharacteristics>
                </video>
              </media>
            </file>
            <sourcetrack>
              <mediatype>video</mediatype>
            </sourcetrack>
            <fielddominance>none</fielddominance>
          </clipitem>
          <clipitem id="B.png112">
            <name>B.png</name>
            <duration>7</duration>
            <rate>
              <ntsc>FALSE</ntsc>
              <timebase>25</timebase>
            </rate>
            <in>90382</in>
            <out>90389</out>
            <start>382</start>
            <end>389</end>
            <pixelaspectratio>Square</pixelaspectratio>
            <stillframe>TRUE</stillframe>
            <anamorphic>FALSE</anamorphic>
            <alphatype>straight</alphatype>
            <masterclipid>B.png112</masterclipid>
            <file id="B">
              <name>B.png</name>
              <pathurl>D:/Codes/SynthLip/SynthLipN/bin/Debug/net6.0-windows/Skin/template/B.png</pathurl>
              <rate>
                <ntsc>FALSE</ntsc>
                <timebase>25</timebase>
              </rate>
              <duration>2</duration>
              <width>1920</width>
              <height>1080</height>
              <media>
                <video>
                  <duration>2</duration>
                  <stillframe>TRUE</stillframe>
                  <samplecharacteristics>
                    <rate>
                      <ntsc>FALSE</ntsc>
                      <timebase>25</timebase>
                    </rate>
                    <width>1920</width>
                    <height>1080</height>
                    <pixelaspectratio>Square</pixelaspectratio>
                    <anamorphic>FALSE</anamorphic>
                  </samplecharacteristics>
                </video>
              </media>
            </file>
            <sourcetrack>
              <mediatype>video</mediatype>
            </sourcetrack>
            <fielddominance>none</fielddominance>
          </clipitem>
          <clipitem id="C.png111">
            <name>C.png</name>
            <duration>2</duration>
            <rate>
              <ntsc>FALSE</ntsc>
              <timebase>25</timebase>
            </rate>
            <in>90380</in>
            <out>90382</out>
            <start>380</start>
            <end>382</end>
            <pixelaspectratio>Square</pixelaspectratio>
            <stillframe>TRUE</stillframe>
            <anamorphic>FALSE</anamorphic>
            <alphatype>straight</alphatype>
            <masterclipid>C.png111</masterclipid>
            <file id="C">
              <name>C.png</name>
              <pathurl>D:/Codes/SynthLip/SynthLipN/bin/Debug/net6.0-windows/Skin/template/C.png</pathurl>
              <rate>
                <ntsc>FALSE</ntsc>
                <timebase>25</timebase>
              </rate>
              <duration>2</duration>
              <width>1920</width>
              <height>1080</height>
              <media>
                <video>
                  <duration>2</duration>
                  <stillframe>TRUE</stillframe>
                  <samplecharacteristics>
                    <rate>
                      <ntsc>FALSE</ntsc>
                      <timebase>25</timebase>
                    </rate>
                    <width>1920</width>
                    <height>1080</height>
                    <pixelaspectratio>Square</pixelaspectratio>
                    <anamorphic>FALSE</anamorphic>
                  </samplecharacteristics>
                </video>
              </media>
            </file>
            <sourcetrack>
              <mediatype>video</mediatype>
            </sourcetrack>
            <fielddominance>none</fielddominance>
          </clipitem>
          <clipitem id="B.png110">
            <name>B.png</name>
            <duration>2</duration>
            <rate>
              <ntsc>FALSE</ntsc>
              <timebase>25</timebase>
            </rate>
            <in>90377</in>
            <out>90379</out>
            <start>377</start>
            <end>379</end>
            <pixelaspectratio>Square</pixelaspectratio>
            <stillframe>TRUE</stillframe>
            <anamorphic>FALSE</anamorphic>
            <alphatype>straight</alphatype>
            <masterclipid>B.png110</masterclipid>
            <file id="B">
              <name>B.png</name>
              <pathurl>D:/Codes/SynthLip/SynthLipN/bin/Debug/net6.0-windows/Skin/template/B.png</pathurl>
              <rate>
                <ntsc>FALSE</ntsc>
                <timebase>25</timebase>
              </rate>
              <duration>2</duration>
              <width>1920</width>
              <height>1080</height>
              <media>
                <video>
                  <duration>2</duration>
                  <stillframe>TRUE</stillframe>
                  <samplecharacteristics>
                    <rate>
                      <ntsc>FALSE</ntsc>
                      <timebase>25</timebase>
                    </rate>
                    <width>1920</width>
                    <height>1080</height>
                    <pixelaspectratio>Square</pixelaspectratio>
                    <anamorphic>FALSE</anamorphic>
                  </samplecharacteristics>
                </video>
              </media>
            </file>
            <sourcetrack>
              <mediatype>video</mediatype>
            </sourcetrack>
            <fielddominance>none</fielddominance>
          </clipitem>
          <clipitem id="A.png109">
            <name>A.png</name>
            <duration>2</duration>
            <rate>
              <ntsc>FALSE</ntsc>
              <timebase>25</timebase>
            </rate>
            <in>90375</in>
            <out>90377</out>
            <start>375</start>
            <end>377</end>
            <pixelaspectratio>Square</pixelaspectratio>
            <stillframe>TRUE</stillframe>
            <anamorphic>FALSE</anamorphic>
            <alphatype>straight</alphatype>
            <masterclipid>A.png109</masterclipid>
            <file id="A">
              <name>A.png</name>
              <pathurl>D:/Codes/SynthLip/SynthLipN/bin/Debug/net6.0-windows/Skin/template/A.png</pathurl>
              <rate>
                <ntsc>FALSE</ntsc>
                <timebase>25</timebase>
              </rate>
              <duration>2</duration>
              <width>1920</width>
              <height>1080</height>
              <media>
                <video>
                  <duration>2</duration>
                  <stillframe>TRUE</stillframe>
                  <samplecharacteristics>
                    <rate>
                      <ntsc>FALSE</ntsc>
                      <timebase>25</timebase>
                    </rate>
                    <width>1920</width>
                    <height>1080</height>
                    <pixelaspectratio>Square</pixelaspectratio>
                    <anamorphic>FALSE</anamorphic>
                  </samplecharacteristics>
                </video>
              </media>
            </file>
            <sourcetrack>
              <mediatype>video</mediatype>
            </sourcetrack>
            <fielddominance>none</fielddominance>
          </clipitem>
          <clipitem id="B.png108">
            <name>B.png</name>
            <duration>3</duration>
            <rate>
              <ntsc>FALSE</ntsc>
              <timebase>25</timebase>
            </rate>
            <in>90371</in>
            <out>90374</out>
            <start>371</start>
            <end>374</end>
            <pixelaspectratio>Square</pixelaspectratio>
            <stillframe>TRUE</stillframe>
            <anamorphic>FALSE</anamorphic>
            <alphatype>straight</alphatype>
            <masterclipid>B.png108</masterclipid>
            <file id="B">
              <name>B.png</name>
              <pathurl>D:/Codes/SynthLip/SynthLipN/bin/Debug/net6.0-windows/Skin/template/B.png</pathurl>
              <rate>
                <ntsc>FALSE</ntsc>
                <timebase>25</timebase>
              </rate>
              <duration>2</duration>
              <width>1920</width>
              <height>1080</height>
              <media>
                <video>
                  <duration>2</duration>
                  <stillframe>TRUE</stillframe>
                  <samplecharacteristics>
                    <rate>
                      <ntsc>FALSE</ntsc>
                      <timebase>25</timebase>
                    </rate>
                    <width>1920</width>
                    <height>1080</height>
                    <pixelaspectratio>Square</pixelaspectratio>
                    <anamorphic>FALSE</anamorphic>
                  </samplecharacteristics>
                </video>
              </media>
            </file>
            <sourcetrack>
              <mediatype>video</mediatype>
            </sourcetrack>
            <fielddominance>none</fielddominance>
          </clipitem>
          <clipitem id="D.png107">
            <name>D.png</name>
            <duration>1</duration>
            <rate>
              <ntsc>FALSE</ntsc>
              <timebase>25</timebase>
            </rate>
            <in>90370</in>
            <out>90371</out>
            <start>370</start>
            <end>371</end>
            <pixelaspectratio>Square</pixelaspectratio>
            <stillframe>TRUE</stillframe>
            <anamorphic>FALSE</anamorphic>
            <alphatype>straight</alphatype>
            <masterclipid>D.png107</masterclipid>
            <file id="D">
              <name>D.png</name>
              <pathurl>D:/Codes/SynthLip/SynthLipN/bin/Debug/net6.0-windows/Skin/template/D.png</pathurl>
              <rate>
                <ntsc>FALSE</ntsc>
                <timebase>25</timebase>
              </rate>
              <duration>2</duration>
              <width>1920</width>
              <height>1080</height>
              <media>
                <video>
                  <duration>2</duration>
                  <stillframe>TRUE</stillframe>
                  <samplecharacteristics>
                    <rate>
                      <ntsc>FALSE</ntsc>
                      <timebase>25</timebase>
                    </rate>
                    <width>1920</width>
                    <height>1080</height>
                    <pixelaspectratio>Square</pixelaspectratio>
                    <anamorphic>FALSE</anamorphic>
                  </samplecharacteristics>
                </video>
              </media>
            </file>
            <sourcetrack>
              <mediatype>video</mediatype>
            </sourcetrack>
            <fielddominance>none</fielddominance>
          </clipitem>
          <clipitem id="C.png106">
            <name>C.png</name>
            <duration>1</duration>
            <rate>
              <ntsc>FALSE</ntsc>
              <timebase>25</timebase>
            </rate>
            <in>90368</in>
            <out>90369</out>
            <start>368</start>
            <end>369</end>
            <pixelaspectratio>Square</pixelaspectratio>
            <stillframe>TRUE</stillframe>
            <anamorphic>FALSE</anamorphic>
            <alphatype>straight</alphatype>
            <masterclipid>C.png106</masterclipid>
            <file id="C">
              <name>C.png</name>
              <pathurl>D:/Codes/SynthLip/SynthLipN/bin/Debug/net6.0-windows/Skin/template/C.png</pathurl>
              <rate>
                <ntsc>FALSE</ntsc>
                <timebase>25</timebase>
              </rate>
              <duration>2</duration>
              <width>1920</width>
              <height>1080</height>
              <media>
                <video>
                  <duration>2</duration>
                  <stillframe>TRUE</stillframe>
                  <samplecharacteristics>
                    <rate>
                      <ntsc>FALSE</ntsc>
                      <timebase>25</timebase>
                    </rate>
                    <width>1920</width>
                    <height>1080</height>
                    <pixelaspectratio>Square</pixelaspectratio>
                    <anamorphic>FALSE</anamorphic>
                  </samplecharacteristics>
                </video>
              </media>
            </file>
            <sourcetrack>
              <mediatype>video</mediatype>
            </sourcetrack>
            <fielddominance>none</fielddominance>
          </clipitem>
          <clipitem id="A.png105">
            <name>A.png</name>
            <duration>1</duration>
            <rate>
              <ntsc>FALSE</ntsc>
              <timebase>25</timebase>
            </rate>
            <in>90367</in>
            <out>90368</out>
            <start>367</start>
            <end>368</end>
            <pixelaspectratio>Square</pixelaspectratio>
            <stillframe>TRUE</stillframe>
            <anamorphic>FALSE</anamorphic>
            <alphatype>straight</alphatype>
            <masterclipid>A.png105</masterclipid>
            <file id="A">
              <name>A.png</name>
              <pathurl>D:/Codes/SynthLip/SynthLipN/bin/Debug/net6.0-windows/Skin/template/A.png</pathurl>
              <rate>
                <ntsc>FALSE</ntsc>
                <timebase>25</timebase>
              </rate>
              <duration>2</duration>
              <width>1920</width>
              <height>1080</height>
              <media>
                <video>
                  <duration>2</duration>
                  <stillframe>TRUE</stillframe>
                  <samplecharacteristics>
                    <rate>
                      <ntsc>FALSE</ntsc>
                      <timebase>25</timebase>
                    </rate>
                    <width>1920</width>
                    <height>1080</height>
                    <pixelaspectratio>Square</pixelaspectratio>
                    <anamorphic>FALSE</anamorphic>
                  </samplecharacteristics>
                </video>
              </media>
            </file>
            <sourcetrack>
              <mediatype>video</mediatype>
            </sourcetrack>
            <fielddominance>none</fielddominance>
          </clipitem>
          <clipitem id="D.png104">
            <name>D.png</name>
            <duration>2</duration>
            <rate>
              <ntsc>FALSE</ntsc>
              <timebase>25</timebase>
            </rate>
            <in>90365</in>
            <out>90367</out>
            <start>365</start>
            <end>367</end>
            <pixelaspectratio>Square</pixelaspectratio>
            <stillframe>TRUE</stillframe>
            <anamorphic>FALSE</anamorphic>
            <alphatype>straight</alphatype>
            <masterclipid>D.png104</masterclipid>
            <file id="D">
              <name>D.png</name>
              <pathurl>D:/Codes/SynthLip/SynthLipN/bin/Debug/net6.0-windows/Skin/template/D.png</pathurl>
              <rate>
                <ntsc>FALSE</ntsc>
                <timebase>25</timebase>
              </rate>
              <duration>2</duration>
              <width>1920</width>
              <height>1080</height>
              <media>
                <video>
                  <duration>2</duration>
                  <stillframe>TRUE</stillframe>
                  <samplecharacteristics>
                    <rate>
                      <ntsc>FALSE</ntsc>
                      <timebase>25</timebase>
                    </rate>
                    <width>1920</width>
                    <height>1080</height>
                    <pixelaspectratio>Square</pixelaspectratio>
                    <anamorphic>FALSE</anamorphic>
                  </samplecharacteristics>
                </video>
              </media>
            </file>
            <sourcetrack>
              <mediatype>video</mediatype>
            </sourcetrack>
            <fielddominance>none</fielddominance>
          </clipitem>
          <clipitem id="A.png103">
            <name>A.png</name>
            <duration>2</duration>
            <rate>
              <ntsc>FALSE</ntsc>
              <timebase>25</timebase>
            </rate>
            <in>90362</in>
            <out>90364</out>
            <start>362</start>
            <end>364</end>
            <pixelaspectratio>Square</pixelaspectratio>
            <stillframe>TRUE</stillframe>
            <anamorphic>FALSE</anamorphic>
            <alphatype>straight</alphatype>
            <masterclipid>A.png103</masterclipid>
            <file id="A">
              <name>A.png</name>
              <pathurl>D:/Codes/SynthLip/SynthLipN/bin/Debug/net6.0-windows/Skin/template/A.png</pathurl>
              <rate>
                <ntsc>FALSE</ntsc>
                <timebase>25</timebase>
              </rate>
              <duration>2</duration>
              <width>1920</width>
              <height>1080</height>
              <media>
                <video>
                  <duration>2</duration>
                  <stillframe>TRUE</stillframe>
                  <samplecharacteristics>
                    <rate>
                      <ntsc>FALSE</ntsc>
                      <timebase>25</timebase>
                    </rate>
                    <width>1920</width>
                    <height>1080</height>
                    <pixelaspectratio>Square</pixelaspectratio>
                    <anamorphic>FALSE</anamorphic>
                  </samplecharacteristics>
                </video>
              </media>
            </file>
            <sourcetrack>
              <mediatype>video</mediatype>
            </sourcetrack>
            <fielddominance>none</fielddominance>
          </clipitem>
          <clipitem id="A.png102">
            <name>A.png</name>
            <duration>2</duration>
            <rate>
              <ntsc>FALSE</ntsc>
              <timebase>25</timebase>
            </rate>
            <in>90360</in>
            <out>90362</out>
            <start>360</start>
            <end>362</end>
            <pixelaspectratio>Square</pixelaspectratio>
            <stillframe>TRUE</stillframe>
            <anamorphic>FALSE</anamorphic>
            <alphatype>straight</alphatype>
            <masterclipid>A.png102</masterclipid>
            <file id="A">
              <name>A.png</name>
              <pathurl>D:/Codes/SynthLip/SynthLipN/bin/Debug/net6.0-windows/Skin/template/A.png</pathurl>
              <rate>
                <ntsc>FALSE</ntsc>
                <timebase>25</timebase>
              </rate>
              <duration>2</duration>
              <width>1920</width>
              <height>1080</height>
              <media>
                <video>
                  <duration>2</duration>
                  <stillframe>TRUE</stillframe>
                  <samplecharacteristics>
                    <rate>
                      <ntsc>FALSE</ntsc>
                      <timebase>25</timebase>
                    </rate>
                    <width>1920</width>
                    <height>1080</height>
                    <pixelaspectratio>Square</pixelaspectratio>
                    <anamorphic>FALSE</anamorphic>
                  </samplecharacteristics>
                </video>
              </media>
            </file>
            <sourcetrack>
              <mediatype>video</mediatype>
            </sourcetrack>
            <fielddominance>none</fielddominance>
          </clipitem>
          <clipitem id="C.png101">
            <name>C.png</name>
            <duration>5</duration>
            <rate>
              <ntsc>FALSE</ntsc>
              <timebase>25</timebase>
            </rate>
            <in>90354</in>
            <out>90359</out>
            <start>354</start>
            <end>359</end>
            <pixelaspectratio>Square</pixelaspectratio>
            <stillframe>TRUE</stillframe>
            <anamorphic>FALSE</anamorphic>
            <alphatype>straight</alphatype>
            <masterclipid>C.png101</masterclipid>
            <file id="C">
              <name>C.png</name>
              <pathurl>D:/Codes/SynthLip/SynthLipN/bin/Debug/net6.0-windows/Skin/template/C.png</pathurl>
              <rate>
                <ntsc>FALSE</ntsc>
                <timebase>25</timebase>
              </rate>
              <duration>2</duration>
              <width>1920</width>
              <height>1080</height>
              <media>
                <video>
                  <duration>2</duration>
                  <stillframe>TRUE</stillframe>
                  <samplecharacteristics>
                    <rate>
                      <ntsc>FALSE</ntsc>
                      <timebase>25</timebase>
                    </rate>
                    <width>1920</width>
                    <height>1080</height>
                    <pixelaspectratio>Square</pixelaspectratio>
                    <anamorphic>FALSE</anamorphic>
                  </samplecharacteristics>
                </video>
              </media>
            </file>
            <sourcetrack>
              <mediatype>video</mediatype>
            </sourcetrack>
            <fielddominance>none</fielddominance>
          </clipitem>
          <clipitem id="C.png98">
            <name>C.png</name>
            <duration>5</duration>
            <rate>
              <ntsc>FALSE</ntsc>
              <timebase>25</timebase>
            </rate>
            <in>90346</in>
            <out>90351</out>
            <start>346</start>
            <end>351</end>
            <pixelaspectratio>Square</pixelaspectratio>
            <stillframe>TRUE</stillframe>
            <anamorphic>FALSE</anamorphic>
            <alphatype>straight</alphatype>
            <masterclipid>C.png98</masterclipid>
            <file id="C">
              <name>C.png</name>
              <pathurl>D:/Codes/SynthLip/SynthLipN/bin/Debug/net6.0-windows/Skin/template/C.png</pathurl>
              <rate>
                <ntsc>FALSE</ntsc>
                <timebase>25</timebase>
              </rate>
              <duration>2</duration>
              <width>1920</width>
              <height>1080</height>
              <media>
                <video>
                  <duration>2</duration>
                  <stillframe>TRUE</stillframe>
                  <samplecharacteristics>
                    <rate>
                      <ntsc>FALSE</ntsc>
                      <timebase>25</timebase>
                    </rate>
                    <width>1920</width>
                    <height>1080</height>
                    <pixelaspectratio>Square</pixelaspectratio>
                    <anamorphic>FALSE</anamorphic>
                  </samplecharacteristics>
                </video>
              </media>
            </file>
            <sourcetrack>
              <mediatype>video</mediatype>
            </sourcetrack>
            <fielddominance>none</fielddominance>
          </clipitem>
          <clipitem id="A.png94">
            <name>A.png</name>
            <duration>3</duration>
            <rate>
              <ntsc>FALSE</ntsc>
              <timebase>25</timebase>
            </rate>
            <in>90341</in>
            <out>90344</out>
            <start>341</start>
            <end>344</end>
            <pixelaspectratio>Square</pixelaspectratio>
            <stillframe>TRUE</stillframe>
            <anamorphic>FALSE</anamorphic>
            <alphatype>straight</alphatype>
            <masterclipid>A.png94</masterclipid>
            <file id="A">
              <name>A.png</name>
              <pathurl>D:/Codes/SynthLip/SynthLipN/bin/Debug/net6.0-windows/Skin/template/A.png</pathurl>
              <rate>
                <ntsc>FALSE</ntsc>
                <timebase>25</timebase>
              </rate>
              <duration>2</duration>
              <width>1920</width>
              <height>1080</height>
              <media>
                <video>
                  <duration>2</duration>
                  <stillframe>TRUE</stillframe>
                  <samplecharacteristics>
                    <rate>
                      <ntsc>FALSE</ntsc>
                      <timebase>25</timebase>
                    </rate>
                    <width>1920</width>
                    <height>1080</height>
                    <pixelaspectratio>Square</pixelaspectratio>
                    <anamorphic>FALSE</anamorphic>
                  </samplecharacteristics>
                </video>
              </media>
            </file>
            <sourcetrack>
              <mediatype>video</mediatype>
            </sourcetrack>
            <fielddominance>none</fielddominance>
          </clipitem>
          <clipitem id="A.png93">
            <name>A.png</name>
            <duration>3</duration>
            <rate>
              <ntsc>FALSE</ntsc>
              <timebase>25</timebase>
            </rate>
            <in>90337</in>
            <out>90340</out>
            <start>337</start>
            <end>340</end>
            <pixelaspectratio>Square</pixelaspectratio>
            <stillframe>TRUE</stillframe>
            <anamorphic>FALSE</anamorphic>
            <alphatype>straight</alphatype>
            <masterclipid>A.png93</masterclipid>
            <file id="A">
              <name>A.png</name>
              <pathurl>D:/Codes/SynthLip/SynthLipN/bin/Debug/net6.0-windows/Skin/template/A.png</pathurl>
              <rate>
                <ntsc>FALSE</ntsc>
                <timebase>25</timebase>
              </rate>
              <duration>2</duration>
              <width>1920</width>
              <height>1080</height>
              <media>
                <video>
                  <duration>2</duration>
                  <stillframe>TRUE</stillframe>
                  <samplecharacteristics>
                    <rate>
                      <ntsc>FALSE</ntsc>
                      <timebase>25</timebase>
                    </rate>
                    <width>1920</width>
                    <height>1080</height>
                    <pixelaspectratio>Square</pixelaspectratio>
                    <anamorphic>FALSE</anamorphic>
                  </samplecharacteristics>
                </video>
              </media>
            </file>
            <sourcetrack>
              <mediatype>video</mediatype>
            </sourcetrack>
            <fielddominance>none</fielddominance>
          </clipitem>
          <clipitem id="B.png92">
            <name>B.png</name>
            <duration>5</duration>
            <rate>
              <ntsc>FALSE</ntsc>
              <timebase>25</timebase>
            </rate>
            <in>90331</in>
            <out>90336</out>
            <start>331</start>
            <end>336</end>
            <pixelaspectratio>Square</pixelaspectratio>
            <stillframe>TRUE</stillframe>
            <anamorphic>FALSE</anamorphic>
            <alphatype>straight</alphatype>
            <masterclipid>B.png92</masterclipid>
            <file id="B">
              <name>B.png</name>
              <pathurl>D:/Codes/SynthLip/SynthLipN/bin/Debug/net6.0-windows/Skin/template/B.png</pathurl>
              <rate>
                <ntsc>FALSE</ntsc>
                <timebase>25</timebase>
              </rate>
              <duration>2</duration>
              <width>1920</width>
              <height>1080</height>
              <media>
                <video>
                  <duration>2</duration>
                  <stillframe>TRUE</stillframe>
                  <samplecharacteristics>
                    <rate>
                      <ntsc>FALSE</ntsc>
                      <timebase>25</timebase>
                    </rate>
                    <width>1920</width>
                    <height>1080</height>
                    <pixelaspectratio>Square</pixelaspectratio>
                    <anamorphic>FALSE</anamorphic>
                  </samplecharacteristics>
                </video>
              </media>
            </file>
            <sourcetrack>
              <mediatype>video</mediatype>
            </sourcetrack>
            <fielddominance>none</fielddominance>
          </clipitem>
          <clipitem id="F.png88">
            <name>F.png</name>
            <duration>9</duration>
            <rate>
              <ntsc>FALSE</ntsc>
              <timebase>25</timebase>
            </rate>
            <in>90320</in>
            <out>90329</out>
            <start>320</start>
            <end>329</end>
            <pixelaspectratio>Square</pixelaspectratio>
            <stillframe>TRUE</stillframe>
            <anamorphic>FALSE</anamorphic>
            <alphatype>straight</alphatype>
            <masterclipid>F.png88</masterclipid>
            <file id="F">
              <name>F.png</name>
              <pathurl>D:/Codes/SynthLip/SynthLipN/bin/Debug/net6.0-windows/Skin/template/F.png</pathurl>
              <rate>
                <ntsc>FALSE</ntsc>
                <timebase>25</timebase>
              </rate>
              <duration>2</duration>
              <width>1920</width>
              <height>1080</height>
              <media>
                <video>
                  <duration>2</duration>
                  <stillframe>TRUE</stillframe>
                  <samplecharacteristics>
                    <rate>
                      <ntsc>FALSE</ntsc>
                      <timebase>25</timebase>
                    </rate>
                    <width>1920</width>
                    <height>1080</height>
                    <pixelaspectratio>Square</pixelaspectratio>
                    <anamorphic>FALSE</anamorphic>
                  </samplecharacteristics>
                </video>
              </media>
            </file>
            <sourcetrack>
              <mediatype>video</mediatype>
            </sourcetrack>
            <fielddominance>none</fielddominance>
          </clipitem>
          <clipitem id="B.png87">
            <name>B.png</name>
            <duration>2</duration>
            <rate>
              <ntsc>FALSE</ntsc>
              <timebase>25</timebase>
            </rate>
            <in>90317</in>
            <out>90319</out>
            <start>317</start>
            <end>319</end>
            <pixelaspectratio>Square</pixelaspectratio>
            <stillframe>TRUE</stillframe>
            <anamorphic>FALSE</anamorphic>
            <alphatype>straight</alphatype>
            <masterclipid>B.png87</masterclipid>
            <file id="B">
              <name>B.png</name>
              <pathurl>D:/Codes/SynthLip/SynthLipN/bin/Debug/net6.0-windows/Skin/template/B.png</pathurl>
              <rate>
                <ntsc>FALSE</ntsc>
                <timebase>25</timebase>
              </rate>
              <duration>2</duration>
              <width>1920</width>
              <height>1080</height>
              <media>
                <video>
                  <duration>2</duration>
                  <stillframe>TRUE</stillframe>
                  <samplecharacteristics>
                    <rate>
                      <ntsc>FALSE</ntsc>
                      <timebase>25</timebase>
                    </rate>
                    <width>1920</width>
                    <height>1080</height>
                    <pixelaspectratio>Square</pixelaspectratio>
                    <anamorphic>FALSE</anamorphic>
                  </samplecharacteristics>
                </video>
              </media>
            </file>
            <sourcetrack>
              <mediatype>video</mediatype>
            </sourcetrack>
            <fielddominance>none</fielddominance>
          </clipitem>
          <clipitem id="A.png86">
            <name>A.png</name>
            <duration>2</duration>
            <rate>
              <ntsc>FALSE</ntsc>
              <timebase>25</timebase>
            </rate>
            <in>90315</in>
            <out>90317</out>
            <start>315</start>
            <end>317</end>
            <pixelaspectratio>Square</pixelaspectratio>
            <stillframe>TRUE</stillframe>
            <anamorphic>FALSE</anamorphic>
            <alphatype>straight</alphatype>
            <masterclipid>A.png86</masterclipid>
            <file id="A">
              <name>A.png</name>
              <pathurl>D:/Codes/SynthLip/SynthLipN/bin/Debug/net6.0-windows/Skin/template/A.png</pathurl>
              <rate>
                <ntsc>FALSE</ntsc>
                <timebase>25</timebase>
              </rate>
              <duration>2</duration>
              <width>1920</width>
              <height>1080</height>
              <media>
                <video>
                  <duration>2</duration>
                  <stillframe>TRUE</stillframe>
                  <samplecharacteristics>
                    <rate>
                      <ntsc>FALSE</ntsc>
                      <timebase>25</timebase>
                    </rate>
                    <width>1920</width>
                    <height>1080</height>
                    <pixelaspectratio>Square</pixelaspectratio>
                    <anamorphic>FALSE</anamorphic>
                  </samplecharacteristics>
                </video>
              </media>
            </file>
            <sourcetrack>
              <mediatype>video</mediatype>
            </sourcetrack>
            <fielddominance>none</fielddominance>
          </clipitem>
          <clipitem id="A.png85">
            <name>A.png</name>
            <duration>3</duration>
            <rate>
              <ntsc>FALSE</ntsc>
              <timebase>25</timebase>
            </rate>
            <in>90311</in>
            <out>90314</out>
            <start>311</start>
            <end>314</end>
            <pixelaspectratio>Square</pixelaspectratio>
            <stillframe>TRUE</stillframe>
            <anamorphic>FALSE</anamorphic>
            <alphatype>straight</alphatype>
            <masterclipid>A.png85</masterclipid>
            <file id="A">
              <name>A.png</name>
              <pathurl>D:/Codes/SynthLip/SynthLipN/bin/Debug/net6.0-windows/Skin/template/A.png</pathurl>
              <rate>
                <ntsc>FALSE</ntsc>
                <timebase>25</timebase>
              </rate>
              <duration>2</duration>
              <width>1920</width>
              <height>1080</height>
              <media>
                <video>
                  <duration>2</duration>
                  <stillframe>TRUE</stillframe>
                  <samplecharacteristics>
                    <rate>
                      <ntsc>FALSE</ntsc>
                      <timebase>25</timebase>
                    </rate>
                    <width>1920</width>
                    <height>1080</height>
                    <pixelaspectratio>Square</pixelaspectratio>
                    <anamorphic>FALSE</anamorphic>
                  </samplecharacteristics>
                </video>
              </media>
            </file>
            <sourcetrack>
              <mediatype>video</mediatype>
            </sourcetrack>
            <fielddominance>none</fielddominance>
          </clipitem>
          <clipitem id="F.png84">
            <name>F.png</name>
            <duration>1</duration>
            <rate>
              <ntsc>FALSE</ntsc>
              <timebase>25</timebase>
            </rate>
            <in>90309</in>
            <out>90310</out>
            <start>309</start>
            <end>310</end>
            <pixelaspectratio>Square</pixelaspectratio>
            <stillframe>TRUE</stillframe>
            <anamorphic>FALSE</anamorphic>
            <alphatype>straight</alphatype>
            <masterclipid>F.png84</masterclipid>
            <file id="F">
              <name>F.png</name>
              <pathurl>D:/Codes/SynthLip/SynthLipN/bin/Debug/net6.0-windows/Skin/template/F.png</pathurl>
              <rate>
                <ntsc>FALSE</ntsc>
                <timebase>25</timebase>
              </rate>
              <duration>2</duration>
              <width>1920</width>
              <height>1080</height>
              <media>
                <video>
                  <duration>2</duration>
                  <stillframe>TRUE</stillframe>
                  <samplecharacteristics>
                    <rate>
                      <ntsc>FALSE</ntsc>
                      <timebase>25</timebase>
                    </rate>
                    <width>1920</width>
                    <height>1080</height>
                    <pixelaspectratio>Square</pixelaspectratio>
                    <anamorphic>FALSE</anamorphic>
                  </samplecharacteristics>
                </video>
              </media>
            </file>
            <sourcetrack>
              <mediatype>video</mediatype>
            </sourcetrack>
            <fielddominance>none</fielddominance>
          </clipitem>
          <clipitem id="C.png81">
            <name>C.png</name>
            <duration>2</duration>
            <rate>
              <ntsc>FALSE</ntsc>
              <timebase>25</timebase>
            </rate>
            <in>90305</in>
            <out>90307</out>
            <start>305</start>
            <end>307</end>
            <pixelaspectratio>Square</pixelaspectratio>
            <stillframe>TRUE</stillframe>
            <anamorphic>FALSE</anamorphic>
            <alphatype>straight</alphatype>
            <masterclipid>C.png81</masterclipid>
            <file id="C">
              <name>C.png</name>
              <pathurl>D:/Codes/SynthLip/SynthLipN/bin/Debug/net6.0-windows/Skin/template/C.png</pathurl>
              <rate>
                <ntsc>FALSE</ntsc>
                <timebase>25</timebase>
              </rate>
              <duration>2</duration>
              <width>1920</width>
              <height>1080</height>
              <media>
                <video>
                  <duration>2</duration>
                  <stillframe>TRUE</stillframe>
                  <samplecharacteristics>
                    <rate>
                      <ntsc>FALSE</ntsc>
                      <timebase>25</timebase>
                    </rate>
                    <width>1920</width>
                    <height>1080</height>
                    <pixelaspectratio>Square</pixelaspectratio>
                    <anamorphic>FALSE</anamorphic>
                  </samplecharacteristics>
                </video>
              </media>
            </file>
            <sourcetrack>
              <mediatype>video</mediatype>
            </sourcetrack>
            <fielddominance>none</fielddominance>
          </clipitem>
          <clipitem id="B.png80">
            <name>B.png</name>
            <duration>2</duration>
            <rate>
              <ntsc>FALSE</ntsc>
              <timebase>25</timebase>
            </rate>
            <in>90302</in>
            <out>90304</out>
            <start>302</start>
            <end>304</end>
            <pixelaspectratio>Square</pixelaspectratio>
            <stillframe>TRUE</stillframe>
            <anamorphic>FALSE</anamorphic>
            <alphatype>straight</alphatype>
            <masterclipid>B.png80</masterclipid>
            <file id="B">
              <name>B.png</name>
              <pathurl>D:/Codes/SynthLip/SynthLipN/bin/Debug/net6.0-windows/Skin/template/B.png</pathurl>
              <rate>
                <ntsc>FALSE</ntsc>
                <timebase>25</timebase>
              </rate>
              <duration>2</duration>
              <width>1920</width>
              <height>1080</height>
              <media>
                <video>
                  <duration>2</duration>
                  <stillframe>TRUE</stillframe>
                  <samplecharacteristics>
                    <rate>
                      <ntsc>FALSE</ntsc>
                      <timebase>25</timebase>
                    </rate>
                    <width>1920</width>
                    <height>1080</height>
                    <pixelaspectratio>Square</pixelaspectratio>
                    <anamorphic>FALSE</anamorphic>
                  </samplecharacteristics>
                </video>
              </media>
            </file>
            <sourcetrack>
              <mediatype>video</mediatype>
            </sourcetrack>
            <fielddominance>none</fielddominance>
          </clipitem>
          <clipitem id="A.png79">
            <name>A.png</name>
            <duration>2</duration>
            <rate>
              <ntsc>FALSE</ntsc>
              <timebase>25</timebase>
            </rate>
            <in>90300</in>
            <out>90302</out>
            <start>300</start>
            <end>302</end>
            <pixelaspectratio>Square</pixelaspectratio>
            <stillframe>TRUE</stillframe>
            <anamorphic>FALSE</anamorphic>
            <alphatype>straight</alphatype>
            <masterclipid>A.png79</masterclipid>
            <file id="A">
              <name>A.png</name>
              <pathurl>D:/Codes/SynthLip/SynthLipN/bin/Debug/net6.0-windows/Skin/template/A.png</pathurl>
              <rate>
                <ntsc>FALSE</ntsc>
                <timebase>25</timebase>
              </rate>
              <duration>2</duration>
              <width>1920</width>
              <height>1080</height>
              <media>
                <video>
                  <duration>2</duration>
                  <stillframe>TRUE</stillframe>
                  <samplecharacteristics>
                    <rate>
                      <ntsc>FALSE</ntsc>
                      <timebase>25</timebase>
                    </rate>
                    <width>1920</width>
                    <height>1080</height>
                    <pixelaspectratio>Square</pixelaspectratio>
                    <anamorphic>FALSE</anamorphic>
                  </samplecharacteristics>
                </video>
              </media>
            </file>
            <sourcetrack>
              <mediatype>video</mediatype>
            </sourcetrack>
            <fielddominance>none</fielddominance>
          </clipitem>
          <clipitem id="D.png78">
            <name>D.png</name>
            <duration>3</duration>
            <rate>
              <ntsc>FALSE</ntsc>
              <timebase>25</timebase>
            </rate>
            <in>90296</in>
            <out>90299</out>
            <start>296</start>
            <end>299</end>
            <pixelaspectratio>Square</pixelaspectratio>
            <stillframe>TRUE</stillframe>
            <anamorphic>FALSE</anamorphic>
            <alphatype>straight</alphatype>
            <masterclipid>D.png78</masterclipid>
            <file id="D">
              <name>D.png</name>
              <pathurl>D:/Codes/SynthLip/SynthLipN/bin/Debug/net6.0-windows/Skin/template/D.png</pathurl>
              <rate>
                <ntsc>FALSE</ntsc>
                <timebase>25</timebase>
              </rate>
              <duration>2</duration>
              <width>1920</width>
              <height>1080</height>
              <media>
                <video>
                  <duration>2</duration>
                  <stillframe>TRUE</stillframe>
                  <samplecharacteristics>
                    <rate>
                      <ntsc>FALSE</ntsc>
                      <timebase>25</timebase>
                    </rate>
                    <width>1920</width>
                    <height>1080</height>
                    <pixelaspectratio>Square</pixelaspectratio>
                    <anamorphic>FALSE</anamorphic>
                  </samplecharacteristics>
                </video>
              </media>
            </file>
            <sourcetrack>
              <mediatype>video</mediatype>
            </sourcetrack>
            <fielddominance>none</fielddominance>
          </clipitem>
          <clipitem id="D.png77">
            <name>D.png</name>
            <duration>1</duration>
            <rate>
              <ntsc>FALSE</ntsc>
              <timebase>25</timebase>
            </rate>
            <in>90295</in>
            <out>90296</out>
            <start>295</start>
            <end>296</end>
            <pixelaspectratio>Square</pixelaspectratio>
            <stillframe>TRUE</stillframe>
            <anamorphic>FALSE</anamorphic>
            <alphatype>straight</alphatype>
            <masterclipid>D.png77</masterclipid>
            <file id="D">
              <name>D.png</name>
              <pathurl>D:/Codes/SynthLip/SynthLipN/bin/Debug/net6.0-windows/Skin/template/D.png</pathurl>
              <rate>
                <ntsc>FALSE</ntsc>
                <timebase>25</timebase>
              </rate>
              <duration>2</duration>
              <width>1920</width>
              <height>1080</height>
              <media>
                <video>
                  <duration>2</duration>
                  <stillframe>TRUE</stillframe>
                  <samplecharacteristics>
                    <rate>
                      <ntsc>FALSE</ntsc>
                      <timebase>25</timebase>
                    </rate>
                    <width>1920</width>
                    <height>1080</height>
                    <pixelaspectratio>Square</pixelaspectratio>
                    <anamorphic>FALSE</anamorphic>
                  </samplecharacteristics>
                </video>
              </media>
            </file>
            <sourcetrack>
              <mediatype>video</mediatype>
            </sourcetrack>
            <fielddominance>none</fielddominance>
          </clipitem>
          <clipitem id="A.png76">
            <name>A.png</name>
            <duration>1</duration>
            <rate>
              <ntsc>FALSE</ntsc>
              <timebase>25</timebase>
            </rate>
            <in>90293</in>
            <out>90294</out>
            <start>293</start>
            <end>294</end>
            <pixelaspectratio>Square</pixelaspectratio>
            <stillframe>TRUE</stillframe>
            <anamorphic>FALSE</anamorphic>
            <alphatype>straight</alphatype>
            <masterclipid>A.png76</masterclipid>
            <file id="A">
              <name>A.png</name>
              <pathurl>D:/Codes/SynthLip/SynthLipN/bin/Debug/net6.0-windows/Skin/template/A.png</pathurl>
              <rate>
                <ntsc>FALSE</ntsc>
                <timebase>25</timebase>
              </rate>
              <duration>2</duration>
              <width>1920</width>
              <height>1080</height>
              <media>
                <video>
                  <duration>2</duration>
                  <stillframe>TRUE</stillframe>
                  <samplecharacteristics>
                    <rate>
                      <ntsc>FALSE</ntsc>
                      <timebase>25</timebase>
                    </rate>
                    <width>1920</width>
                    <height>1080</height>
                    <pixelaspectratio>Square</pixelaspectratio>
                    <anamorphic>FALSE</anamorphic>
                  </samplecharacteristics>
                </video>
              </media>
            </file>
            <sourcetrack>
              <mediatype>video</mediatype>
            </sourcetrack>
            <fielddominance>none</fielddominance>
          </clipitem>
          <clipitem id="B.png75">
            <name>B.png</name>
            <duration>1</duration>
            <rate>
              <ntsc>FALSE</ntsc>
              <timebase>25</timebase>
            </rate>
            <in>90292</in>
            <out>90293</out>
            <start>292</start>
            <end>293</end>
            <pixelaspectratio>Square</pixelaspectratio>
            <stillframe>TRUE</stillframe>
            <anamorphic>FALSE</anamorphic>
            <alphatype>straight</alphatype>
            <masterclipid>B.png75</masterclipid>
            <file id="B">
              <name>B.png</name>
              <pathurl>D:/Codes/SynthLip/SynthLipN/bin/Debug/net6.0-windows/Skin/template/B.png</pathurl>
              <rate>
                <ntsc>FALSE</ntsc>
                <timebase>25</timebase>
              </rate>
              <duration>2</duration>
              <width>1920</width>
              <height>1080</height>
              <media>
                <video>
                  <duration>2</duration>
                  <stillframe>TRUE</stillframe>
                  <samplecharacteristics>
                    <rate>
                      <ntsc>FALSE</ntsc>
                      <timebase>25</timebase>
                    </rate>
                    <width>1920</width>
                    <height>1080</height>
                    <pixelaspectratio>Square</pixelaspectratio>
                    <anamorphic>FALSE</anamorphic>
                  </samplecharacteristics>
                </video>
              </media>
            </file>
            <sourcetrack>
              <mediatype>video</mediatype>
            </sourcetrack>
            <fielddominance>none</fielddominance>
          </clipitem>
          <clipitem id="F.png74">
            <name>F.png</name>
            <duration>2</duration>
            <rate>
              <ntsc>FALSE</ntsc>
              <timebase>25</timebase>
            </rate>
            <in>90290</in>
            <out>90292</out>
            <start>290</start>
            <end>292</end>
            <pixelaspectratio>Square</pixelaspectratio>
            <stillframe>TRUE</stillframe>
            <anamorphic>FALSE</anamorphic>
            <alphatype>straight</alphatype>
            <masterclipid>F.png74</masterclipid>
            <file id="F">
              <name>F.png</name>
              <pathurl>D:/Codes/SynthLip/SynthLipN/bin/Debug/net6.0-windows/Skin/template/F.png</pathurl>
              <rate>
                <ntsc>FALSE</ntsc>
                <timebase>25</timebase>
              </rate>
              <duration>2</duration>
              <width>1920</width>
              <height>1080</height>
              <media>
                <video>
                  <duration>2</duration>
                  <stillframe>TRUE</stillframe>
                  <samplecharacteristics>
                    <rate>
                      <ntsc>FALSE</ntsc>
                      <timebase>25</timebase>
                    </rate>
                    <width>1920</width>
                    <height>1080</height>
                    <pixelaspectratio>Square</pixelaspectratio>
                    <anamorphic>FALSE</anamorphic>
                  </samplecharacteristics>
                </video>
              </media>
            </file>
            <sourcetrack>
              <mediatype>video</mediatype>
            </sourcetrack>
            <fielddominance>none</fielddominance>
          </clipitem>
          <clipitem id="B.png73">
            <name>B.png</name>
            <duration>2</duration>
            <rate>
              <ntsc>FALSE</ntsc>
              <timebase>25</timebase>
            </rate>
            <in>90287</in>
            <out>90289</out>
            <start>287</start>
            <end>289</end>
            <pixelaspectratio>Square</pixelaspectratio>
            <stillframe>TRUE</stillframe>
            <anamorphic>FALSE</anamorphic>
            <alphatype>straight</alphatype>
            <masterclipid>B.png73</masterclipid>
            <file id="B">
              <name>B.png</name>
              <pathurl>D:/Codes/SynthLip/SynthLipN/bin/Debug/net6.0-windows/Skin/template/B.png</pathurl>
              <rate>
                <ntsc>FALSE</ntsc>
                <timebase>25</timebase>
              </rate>
              <duration>2</duration>
              <width>1920</width>
              <height>1080</height>
              <media>
                <video>
                  <duration>2</duration>
                  <stillframe>TRUE</stillframe>
                  <samplecharacteristics>
                    <rate>
                      <ntsc>FALSE</ntsc>
                      <timebase>25</timebase>
                    </rate>
                    <width>1920</width>
                    <height>1080</height>
                    <pixelaspectratio>Square</pixelaspectratio>
                    <anamorphic>FALSE</anamorphic>
                  </samplecharacteristics>
                </video>
              </media>
            </file>
            <sourcetrack>
              <mediatype>video</mediatype>
            </sourcetrack>
            <fielddominance>none</fielddominance>
          </clipitem>
          <clipitem id="A.png72">
            <name>A.png</name>
            <duration>2</duration>
            <rate>
              <ntsc>FALSE</ntsc>
              <timebase>25</timebase>
            </rate>
            <in>90285</in>
            <out>90287</out>
            <start>285</start>
            <end>287</end>
            <pixelaspectratio>Square</pixelaspectratio>
            <stillframe>TRUE</stillframe>
            <anamorphic>FALSE</anamorphic>
            <alphatype>straight</alphatype>
            <masterclipid>A.png72</masterclipid>
            <file id="A">
              <name>A.png</name>
              <pathurl>D:/Codes/SynthLip/SynthLipN/bin/Debug/net6.0-windows/Skin/template/A.png</pathurl>
              <rate>
                <ntsc>FALSE</ntsc>
                <timebase>25</timebase>
              </rate>
              <duration>2</duration>
              <width>1920</width>
              <height>1080</height>
              <media>
                <video>
                  <duration>2</duration>
                  <stillframe>TRUE</stillframe>
                  <samplecharacteristics>
                    <rate>
                      <ntsc>FALSE</ntsc>
                      <timebase>25</timebase>
                    </rate>
                    <width>1920</width>
                    <height>1080</height>
                    <pixelaspectratio>Square</pixelaspectratio>
                    <anamorphic>FALSE</anamorphic>
                  </samplecharacteristics>
                </video>
              </media>
            </file>
            <sourcetrack>
              <mediatype>video</mediatype>
            </sourcetrack>
            <fielddominance>none</fielddominance>
          </clipitem>
          <clipitem id="F.png71">
            <name>F.png</name>
            <duration>5</duration>
            <rate>
              <ntsc>FALSE</ntsc>
              <timebase>25</timebase>
            </rate>
            <in>90279</in>
            <out>90284</out>
            <start>279</start>
            <end>284</end>
            <pixelaspectratio>Square</pixelaspectratio>
            <stillframe>TRUE</stillframe>
            <anamorphic>FALSE</anamorphic>
            <alphatype>straight</alphatype>
            <masterclipid>F.png71</masterclipid>
            <file id="F">
              <name>F.png</name>
              <pathurl>D:/Codes/SynthLip/SynthLipN/bin/Debug/net6.0-windows/Skin/template/F.png</pathurl>
              <rate>
                <ntsc>FALSE</ntsc>
                <timebase>25</timebase>
              </rate>
              <duration>2</duration>
              <width>1920</width>
              <height>1080</height>
              <media>
                <video>
                  <duration>2</duration>
                  <stillframe>TRUE</stillframe>
                  <samplecharacteristics>
                    <rate>
                      <ntsc>FALSE</ntsc>
                      <timebase>25</timebase>
                    </rate>
                    <width>1920</width>
                    <height>1080</height>
                    <pixelaspectratio>Square</pixelaspectratio>
                    <anamorphic>FALSE</anamorphic>
                  </samplecharacteristics>
                </video>
              </media>
            </file>
            <sourcetrack>
              <mediatype>video</mediatype>
            </sourcetrack>
            <fielddominance>none</fielddominance>
          </clipitem>
          <clipitem id="C.png68">
            <name>C.png</name>
            <duration>3</duration>
            <rate>
              <ntsc>FALSE</ntsc>
              <timebase>25</timebase>
            </rate>
            <in>90273</in>
            <out>90276</out>
            <start>273</start>
            <end>276</end>
            <pixelaspectratio>Square</pixelaspectratio>
            <stillframe>TRUE</stillframe>
            <anamorphic>FALSE</anamorphic>
            <alphatype>straight</alphatype>
            <masterclipid>C.png68</masterclipid>
            <file id="C">
              <name>C.png</name>
              <pathurl>D:/Codes/SynthLip/SynthLipN/bin/Debug/net6.0-windows/Skin/template/C.png</pathurl>
              <rate>
                <ntsc>FALSE</ntsc>
                <timebase>25</timebase>
              </rate>
              <duration>2</duration>
              <width>1920</width>
              <height>1080</height>
              <media>
                <video>
                  <duration>2</duration>
                  <stillframe>TRUE</stillframe>
                  <samplecharacteristics>
                    <rate>
                      <ntsc>FALSE</ntsc>
                      <timebase>25</timebase>
                    </rate>
                    <width>1920</width>
                    <height>1080</height>
                    <pixelaspectratio>Square</pixelaspectratio>
                    <anamorphic>FALSE</anamorphic>
                  </samplecharacteristics>
                </video>
              </media>
            </file>
            <sourcetrack>
              <mediatype>video</mediatype>
            </sourcetrack>
            <fielddominance>none</fielddominance>
          </clipitem>
          <clipitem id="B.png67">
            <name>B.png</name>
            <duration>1</duration>
            <rate>
              <ntsc>FALSE</ntsc>
              <timebase>25</timebase>
            </rate>
            <in>90271</in>
            <out>90272</out>
            <start>271</start>
            <end>272</end>
            <pixelaspectratio>Square</pixelaspectratio>
            <stillframe>TRUE</stillframe>
            <anamorphic>FALSE</anamorphic>
            <alphatype>straight</alphatype>
            <masterclipid>B.png67</masterclipid>
            <file id="B">
              <name>B.png</name>
              <pathurl>D:/Codes/SynthLip/SynthLipN/bin/Debug/net6.0-windows/Skin/template/B.png</pathurl>
              <rate>
                <ntsc>FALSE</ntsc>
                <timebase>25</timebase>
              </rate>
              <duration>2</duration>
              <width>1920</width>
              <height>1080</height>
              <media>
                <video>
                  <duration>2</duration>
                  <stillframe>TRUE</stillframe>
                  <samplecharacteristics>
                    <rate>
                      <ntsc>FALSE</ntsc>
                      <timebase>25</timebase>
                    </rate>
                    <width>1920</width>
                    <height>1080</height>
                    <pixelaspectratio>Square</pixelaspectratio>
                    <anamorphic>FALSE</anamorphic>
                  </samplecharacteristics>
                </video>
              </media>
            </file>
            <sourcetrack>
              <mediatype>video</mediatype>
            </sourcetrack>
            <fielddominance>none</fielddominance>
          </clipitem>
          <clipitem id="F.png66">
            <name>F.png</name>
            <duration>9</duration>
            <rate>
              <ntsc>FALSE</ntsc>
              <timebase>25</timebase>
            </rate>
            <in>90262</in>
            <out>90271</out>
            <start>262</start>
            <end>271</end>
            <pixelaspectratio>Square</pixelaspectratio>
            <stillframe>TRUE</stillframe>
            <anamorphic>FALSE</anamorphic>
            <alphatype>straight</alphatype>
            <masterclipid>F.png66</masterclipid>
            <file id="F">
              <name>F.png</name>
              <pathurl>D:/Codes/SynthLip/SynthLipN/bin/Debug/net6.0-windows/Skin/template/F.png</pathurl>
              <rate>
                <ntsc>FALSE</ntsc>
                <timebase>25</timebase>
              </rate>
              <duration>2</duration>
              <width>1920</width>
              <height>1080</height>
              <media>
                <video>
                  <duration>2</duration>
                  <stillframe>TRUE</stillframe>
                  <samplecharacteristics>
                    <rate>
                      <ntsc>FALSE</ntsc>
                      <timebase>25</timebase>
                    </rate>
                    <width>1920</width>
                    <height>1080</height>
                    <pixelaspectratio>Square</pixelaspectratio>
                    <anamorphic>FALSE</anamorphic>
                  </samplecharacteristics>
                </video>
              </media>
            </file>
            <sourcetrack>
              <mediatype>video</mediatype>
            </sourcetrack>
            <fielddominance>none</fielddominance>
          </clipitem>
          <clipitem id="B.png65">
            <name>B.png</name>
            <duration>3</duration>
            <rate>
              <ntsc>FALSE</ntsc>
              <timebase>25</timebase>
            </rate>
            <in>90258</in>
            <out>90261</out>
            <start>258</start>
            <end>261</end>
            <pixelaspectratio>Square</pixelaspectratio>
            <stillframe>TRUE</stillframe>
            <anamorphic>FALSE</anamorphic>
            <alphatype>straight</alphatype>
            <masterclipid>B.png65</masterclipid>
            <file id="B">
              <name>B.png</name>
              <pathurl>D:/Codes/SynthLip/SynthLipN/bin/Debug/net6.0-windows/Skin/template/B.png</pathurl>
              <rate>
                <ntsc>FALSE</ntsc>
                <timebase>25</timebase>
              </rate>
              <duration>2</duration>
              <width>1920</width>
              <height>1080</height>
              <media>
                <video>
                  <duration>2</duration>
                  <stillframe>TRUE</stillframe>
                  <samplecharacteristics>
                    <rate>
                      <ntsc>FALSE</ntsc>
                      <timebase>25</timebase>
                    </rate>
                    <width>1920</width>
                    <height>1080</height>
                    <pixelaspectratio>Square</pixelaspectratio>
                    <anamorphic>FALSE</anamorphic>
                  </samplecharacteristics>
                </video>
              </media>
            </file>
            <sourcetrack>
              <mediatype>video</mediatype>
            </sourcetrack>
            <fielddominance>none</fielddominance>
          </clipitem>
          <clipitem id="A.png64">
            <name>A.png</name>
            <duration>3</duration>
            <rate>
              <ntsc>FALSE</ntsc>
              <timebase>25</timebase>
            </rate>
            <in>90254</in>
            <out>90257</out>
            <start>254</start>
            <end>257</end>
            <pixelaspectratio>Square</pixelaspectratio>
            <stillframe>TRUE</stillframe>
            <anamorphic>FALSE</anamorphic>
            <alphatype>straight</alphatype>
            <masterclipid>A.png64</masterclipid>
            <file id="A">
              <name>A.png</name>
              <pathurl>D:/Codes/SynthLip/SynthLipN/bin/Debug/net6.0-windows/Skin/template/A.png</pathurl>
              <rate>
                <ntsc>FALSE</ntsc>
                <timebase>25</timebase>
              </rate>
              <duration>2</duration>
              <width>1920</width>
              <height>1080</height>
              <media>
                <video>
                  <duration>2</duration>
                  <stillframe>TRUE</stillframe>
                  <samplecharacteristics>
                    <rate>
                      <ntsc>FALSE</ntsc>
                      <timebase>25</timebase>
                    </rate>
                    <width>1920</width>
                    <height>1080</height>
                    <pixelaspectratio>Square</pixelaspectratio>
                    <anamorphic>FALSE</anamorphic>
                  </samplecharacteristics>
                </video>
              </media>
            </file>
            <sourcetrack>
              <mediatype>video</mediatype>
            </sourcetrack>
            <fielddominance>none</fielddominance>
          </clipitem>
          <clipitem id="A.png63">
            <name>A.png</name>
            <duration>3</duration>
            <rate>
              <ntsc>FALSE</ntsc>
              <timebase>25</timebase>
            </rate>
            <in>90251</in>
            <out>90254</out>
            <start>251</start>
            <end>254</end>
            <pixelaspectratio>Square</pixelaspectratio>
            <stillframe>TRUE</stillframe>
            <anamorphic>FALSE</anamorphic>
            <alphatype>straight</alphatype>
            <masterclipid>A.png63</masterclipid>
            <file id="A">
              <name>A.png</name>
              <pathurl>D:/Codes/SynthLip/SynthLipN/bin/Debug/net6.0-windows/Skin/template/A.png</pathurl>
              <rate>
                <ntsc>FALSE</ntsc>
                <timebase>25</timebase>
              </rate>
              <duration>2</duration>
              <width>1920</width>
              <height>1080</height>
              <media>
                <video>
                  <duration>2</duration>
                  <stillframe>TRUE</stillframe>
                  <samplecharacteristics>
                    <rate>
                      <ntsc>FALSE</ntsc>
                      <timebase>25</timebase>
                    </rate>
                    <width>1920</width>
                    <height>1080</height>
                    <pixelaspectratio>Square</pixelaspectratio>
                    <anamorphic>FALSE</anamorphic>
                  </samplecharacteristics>
                </video>
              </media>
            </file>
            <sourcetrack>
              <mediatype>video</mediatype>
            </sourcetrack>
            <fielddominance>none</fielddominance>
          </clipitem>
          <clipitem id="F.png62">
            <name>F.png</name>
            <duration>1</duration>
            <rate>
              <ntsc>FALSE</ntsc>
              <timebase>25</timebase>
            </rate>
            <in>90249</in>
            <out>90250</out>
            <start>249</start>
            <end>250</end>
            <pixelaspectratio>Square</pixelaspectratio>
            <stillframe>TRUE</stillframe>
            <anamorphic>FALSE</anamorphic>
            <alphatype>straight</alphatype>
            <masterclipid>F.png62</masterclipid>
            <file id="F">
              <name>F.png</name>
              <pathurl>D:/Codes/SynthLip/SynthLipN/bin/Debug/net6.0-windows/Skin/template/F.png</pathurl>
              <rate>
                <ntsc>FALSE</ntsc>
                <timebase>25</timebase>
              </rate>
              <duration>2</duration>
              <width>1920</width>
              <height>1080</height>
              <media>
                <video>
                  <duration>2</duration>
                  <stillframe>TRUE</stillframe>
                  <samplecharacteristics>
                    <rate>
                      <ntsc>FALSE</ntsc>
                      <timebase>25</timebase>
                    </rate>
                    <width>1920</width>
                    <height>1080</height>
                    <pixelaspectratio>Square</pixelaspectratio>
                    <anamorphic>FALSE</anamorphic>
                  </samplecharacteristics>
                </video>
              </media>
            </file>
            <sourcetrack>
              <mediatype>video</mediatype>
            </sourcetrack>
            <fielddominance>none</fielddominance>
          </clipitem>
          <clipitem id="A.png59">
            <name>A.png</name>
            <duration>3</duration>
            <rate>
              <ntsc>FALSE</ntsc>
              <timebase>25</timebase>
            </rate>
            <in>90243</in>
            <out>90246</out>
            <start>243</start>
            <end>246</end>
            <pixelaspectratio>Square</pixelaspectratio>
            <stillframe>TRUE</stillframe>
            <anamorphic>FALSE</anamorphic>
            <alphatype>straight</alphatype>
            <masterclipid>A.png59</masterclipid>
            <file id="A">
              <name>A.png</name>
              <pathurl>D:/Codes/SynthLip/SynthLipN/bin/Debug/net6.0-windows/Skin/template/A.png</pathurl>
              <rate>
                <ntsc>FALSE</ntsc>
                <timebase>25</timebase>
              </rate>
              <duration>2</duration>
              <width>1920</width>
              <height>1080</height>
              <media>
                <video>
                  <duration>2</duration>
                  <stillframe>TRUE</stillframe>
                  <samplecharacteristics>
                    <rate>
                      <ntsc>FALSE</ntsc>
                      <timebase>25</timebase>
                    </rate>
                    <width>1920</width>
                    <height>1080</height>
                    <pixelaspectratio>Square</pixelaspectratio>
                    <anamorphic>FALSE</anamorphic>
                  </samplecharacteristics>
                </video>
              </media>
            </file>
            <sourcetrack>
              <mediatype>video</mediatype>
            </sourcetrack>
            <fielddominance>none</fielddominance>
          </clipitem>
          <clipitem id="A.png58">
            <name>A.png</name>
            <duration>3</duration>
            <rate>
              <ntsc>FALSE</ntsc>
              <timebase>25</timebase>
            </rate>
            <in>90240</in>
            <out>90243</out>
            <start>240</start>
            <end>243</end>
            <pixelaspectratio>Square</pixelaspectratio>
            <stillframe>TRUE</stillframe>
            <anamorphic>FALSE</anamorphic>
            <alphatype>straight</alphatype>
            <masterclipid>A.png58</masterclipid>
            <file id="A">
              <name>A.png</name>
              <pathurl>D:/Codes/SynthLip/SynthLipN/bin/Debug/net6.0-windows/Skin/template/A.png</pathurl>
              <rate>
                <ntsc>FALSE</ntsc>
                <timebase>25</timebase>
              </rate>
              <duration>2</duration>
              <width>1920</width>
              <height>1080</height>
              <media>
                <video>
                  <duration>2</duration>
                  <stillframe>TRUE</stillframe>
                  <samplecharacteristics>
                    <rate>
                      <ntsc>FALSE</ntsc>
                      <timebase>25</timebase>
                    </rate>
                    <width>1920</width>
                    <height>1080</height>
                    <pixelaspectratio>Square</pixelaspectratio>
                    <anamorphic>FALSE</anamorphic>
                  </samplecharacteristics>
                </video>
              </media>
            </file>
            <sourcetrack>
              <mediatype>video</mediatype>
            </sourcetrack>
            <fielddominance>none</fielddominance>
          </clipitem>
          <clipitem id="B.png57">
            <name>B.png</name>
            <duration>3</duration>
            <rate>
              <ntsc>FALSE</ntsc>
              <timebase>25</timebase>
            </rate>
            <in>90236</in>
            <out>90239</out>
            <start>236</start>
            <end>239</end>
            <pixelaspectratio>Square</pixelaspectratio>
            <stillframe>TRUE</stillframe>
            <anamorphic>FALSE</anamorphic>
            <alphatype>straight</alphatype>
            <masterclipid>B.png57</masterclipid>
            <file id="B">
              <name>B.png</name>
              <pathurl>D:/Codes/SynthLip/SynthLipN/bin/Debug/net6.0-windows/Skin/template/B.png</pathurl>
              <rate>
                <ntsc>FALSE</ntsc>
                <timebase>25</timebase>
              </rate>
              <duration>2</duration>
              <width>1920</width>
              <height>1080</height>
              <media>
                <video>
                  <duration>2</duration>
                  <stillframe>TRUE</stillframe>
                  <samplecharacteristics>
                    <rate>
                      <ntsc>FALSE</ntsc>
                      <timebase>25</timebase>
                    </rate>
                    <width>1920</width>
                    <height>1080</height>
                    <pixelaspectratio>Square</pixelaspectratio>
                    <anamorphic>FALSE</anamorphic>
                  </samplecharacteristics>
                </video>
              </media>
            </file>
            <sourcetrack>
              <mediatype>video</mediatype>
            </sourcetrack>
            <fielddominance>none</fielddominance>
          </clipitem>
          <clipitem id="C.png56">
            <name>C.png</name>
            <duration>1</duration>
            <rate>
              <ntsc>FALSE</ntsc>
              <timebase>25</timebase>
            </rate>
            <in>90235</in>
            <out>90236</out>
            <start>235</start>
            <end>236</end>
            <pixelaspectratio>Square</pixelaspectratio>
            <stillframe>TRUE</stillframe>
            <anamorphic>FALSE</anamorphic>
            <alphatype>straight</alphatype>
            <masterclipid>C.png56</masterclipid>
            <file id="C">
              <name>C.png</name>
              <pathurl>D:/Codes/SynthLip/SynthLipN/bin/Debug/net6.0-windows/Skin/template/C.png</pathurl>
              <rate>
                <ntsc>FALSE</ntsc>
                <timebase>25</timebase>
              </rate>
              <duration>2</duration>
              <width>1920</width>
              <height>1080</height>
              <media>
                <video>
                  <duration>2</duration>
                  <stillframe>TRUE</stillframe>
                  <samplecharacteristics>
                    <rate>
                      <ntsc>FALSE</ntsc>
                      <timebase>25</timebase>
                    </rate>
                    <width>1920</width>
                    <height>1080</height>
                    <pixelaspectratio>Square</pixelaspectratio>
                    <anamorphic>FALSE</anamorphic>
                  </samplecharacteristics>
                </video>
              </media>
            </file>
            <sourcetrack>
              <mediatype>video</mediatype>
            </sourcetrack>
            <fielddominance>none</fielddominance>
          </clipitem>
          <clipitem id="G.png55">
            <name>G.png</name>
            <duration>1</duration>
            <rate>
              <ntsc>FALSE</ntsc>
              <timebase>25</timebase>
            </rate>
            <in>90233</in>
            <out>90234</out>
            <start>233</start>
            <end>234</end>
            <pixelaspectratio>Square</pixelaspectratio>
            <stillframe>TRUE</stillframe>
            <anamorphic>FALSE</anamorphic>
            <alphatype>straight</alphatype>
            <masterclipid>G.png55</masterclipid>
            <file id="G">
              <name>G.png</name>
              <pathurl>D:/Codes/SynthLip/SynthLipN/bin/Debug/net6.0-windows/Skin/template/G.png</pathurl>
              <rate>
                <ntsc>FALSE</ntsc>
                <timebase>25</timebase>
              </rate>
              <duration>2</duration>
              <width>1920</width>
              <height>1080</height>
              <media>
                <video>
                  <duration>2</duration>
                  <stillframe>TRUE</stillframe>
                  <samplecharacteristics>
                    <rate>
                      <ntsc>FALSE</ntsc>
                      <timebase>25</timebase>
                    </rate>
                    <width>1920</width>
                    <height>1080</height>
                    <pixelaspectratio>Square</pixelaspectratio>
                    <anamorphic>FALSE</anamorphic>
                  </samplecharacteristics>
                </video>
              </media>
            </file>
            <sourcetrack>
              <mediatype>video</mediatype>
            </sourcetrack>
            <fielddominance>none</fielddominance>
          </clipitem>
          <clipitem id="A.png54">
            <name>A.png</name>
            <duration>1</duration>
            <rate>
              <ntsc>FALSE</ntsc>
              <timebase>25</timebase>
            </rate>
            <in>90232</in>
            <out>90233</out>
            <start>232</start>
            <end>233</end>
            <pixelaspectratio>Square</pixelaspectratio>
            <stillframe>TRUE</stillframe>
            <anamorphic>FALSE</anamorphic>
            <alphatype>straight</alphatype>
            <masterclipid>A.png54</masterclipid>
            <file id="A">
              <name>A.png</name>
              <pathurl>D:/Codes/SynthLip/SynthLipN/bin/Debug/net6.0-windows/Skin/template/A.png</pathurl>
              <rate>
                <ntsc>FALSE</ntsc>
                <timebase>25</timebase>
              </rate>
              <duration>2</duration>
              <width>1920</width>
              <height>1080</height>
              <media>
                <video>
                  <duration>2</duration>
                  <stillframe>TRUE</stillframe>
                  <samplecharacteristics>
                    <rate>
                      <ntsc>FALSE</ntsc>
                      <timebase>25</timebase>
                    </rate>
                    <width>1920</width>
                    <height>1080</height>
                    <pixelaspectratio>Square</pixelaspectratio>
                    <anamorphic>FALSE</anamorphic>
                  </samplecharacteristics>
                </video>
              </media>
            </file>
            <sourcetrack>
              <mediatype>video</mediatype>
            </sourcetrack>
            <fielddominance>none</fielddominance>
          </clipitem>
          <clipitem id="D.png53">
            <name>D.png</name>
            <duration>2</duration>
            <rate>
              <ntsc>FALSE</ntsc>
              <timebase>25</timebase>
            </rate>
            <in>90230</in>
            <out>90232</out>
            <start>230</start>
            <end>232</end>
            <pixelaspectratio>Square</pixelaspectratio>
            <stillframe>TRUE</stillframe>
            <anamorphic>FALSE</anamorphic>
            <alphatype>straight</alphatype>
            <masterclipid>D.png53</masterclipid>
            <file id="D">
              <name>D.png</name>
              <pathurl>D:/Codes/SynthLip/SynthLipN/bin/Debug/net6.0-windows/Skin/template/D.png</pathurl>
              <rate>
                <ntsc>FALSE</ntsc>
                <timebase>25</timebase>
              </rate>
              <duration>2</duration>
              <width>1920</width>
              <height>1080</height>
              <media>
                <video>
                  <duration>2</duration>
                  <stillframe>TRUE</stillframe>
                  <samplecharacteristics>
                    <rate>
                      <ntsc>FALSE</ntsc>
                      <timebase>25</timebase>
                    </rate>
                    <width>1920</width>
                    <height>1080</height>
                    <pixelaspectratio>Square</pixelaspectratio>
                    <anamorphic>FALSE</anamorphic>
                  </samplecharacteristics>
                </video>
              </media>
            </file>
            <sourcetrack>
              <mediatype>video</mediatype>
            </sourcetrack>
            <fielddominance>none</fielddominance>
          </clipitem>
          <clipitem id="B.png52">
            <name>B.png</name>
            <duration>2</duration>
            <rate>
              <ntsc>FALSE</ntsc>
              <timebase>25</timebase>
            </rate>
            <in>90227</in>
            <out>90229</out>
            <start>227</start>
            <end>229</end>
            <pixelaspectratio>Square</pixelaspectratio>
            <stillframe>TRUE</stillframe>
            <anamorphic>FALSE</anamorphic>
            <alphatype>straight</alphatype>
            <masterclipid>B.png52</masterclipid>
            <file id="B">
              <name>B.png</name>
              <pathurl>D:/Codes/SynthLip/SynthLipN/bin/Debug/net6.0-windows/Skin/template/B.png</pathurl>
              <rate>
                <ntsc>FALSE</ntsc>
                <timebase>25</timebase>
              </rate>
              <duration>2</duration>
              <width>1920</width>
              <height>1080</height>
              <media>
                <video>
                  <duration>2</duration>
                  <stillframe>TRUE</stillframe>
                  <samplecharacteristics>
                    <rate>
                      <ntsc>FALSE</ntsc>
                      <timebase>25</timebase>
                    </rate>
                    <width>1920</width>
                    <height>1080</height>
                    <pixelaspectratio>Square</pixelaspectratio>
                    <anamorphic>FALSE</anamorphic>
                  </samplecharacteristics>
                </video>
              </media>
            </file>
            <sourcetrack>
              <mediatype>video</mediatype>
            </sourcetrack>
            <fielddominance>none</fielddominance>
          </clipitem>
          <clipitem id="B.png51">
            <name>B.png</name>
            <duration>2</duration>
            <rate>
              <ntsc>FALSE</ntsc>
              <timebase>25</timebase>
            </rate>
            <in>90225</in>
            <out>90227</out>
            <start>225</start>
            <end>227</end>
            <pixelaspectratio>Square</pixelaspectratio>
            <stillframe>TRUE</stillframe>
            <anamorphic>FALSE</anamorphic>
            <alphatype>straight</alphatype>
            <masterclipid>B.png51</masterclipid>
            <file id="B">
              <name>B.png</name>
              <pathurl>D:/Codes/SynthLip/SynthLipN/bin/Debug/net6.0-windows/Skin/template/B.png</pathurl>
              <rate>
                <ntsc>FALSE</ntsc>
                <timebase>25</timebase>
              </rate>
              <duration>2</duration>
              <width>1920</width>
              <height>1080</height>
              <media>
                <video>
                  <duration>2</duration>
                  <stillframe>TRUE</stillframe>
                  <samplecharacteristics>
                    <rate>
                      <ntsc>FALSE</ntsc>
                      <timebase>25</timebase>
                    </rate>
                    <width>1920</width>
                    <height>1080</height>
                    <pixelaspectratio>Square</pixelaspectratio>
                    <anamorphic>FALSE</anamorphic>
                  </samplecharacteristics>
                </video>
              </media>
            </file>
            <sourcetrack>
              <mediatype>video</mediatype>
            </sourcetrack>
            <fielddominance>none</fielddominance>
          </clipitem>
          <clipitem id="D.png50">
            <name>D.png</name>
            <duration>2</duration>
            <rate>
              <ntsc>FALSE</ntsc>
              <timebase>25</timebase>
            </rate>
            <in>90222</in>
            <out>90224</out>
            <start>222</start>
            <end>224</end>
            <pixelaspectratio>Square</pixelaspectratio>
            <stillframe>TRUE</stillframe>
            <anamorphic>FALSE</anamorphic>
            <alphatype>straight</alphatype>
            <masterclipid>D.png50</masterclipid>
            <file id="D">
              <name>D.png</name>
              <pathurl>D:/Codes/SynthLip/SynthLipN/bin/Debug/net6.0-windows/Skin/template/D.png</pathurl>
              <rate>
                <ntsc>FALSE</ntsc>
                <timebase>25</timebase>
              </rate>
              <duration>2</duration>
              <width>1920</width>
              <height>1080</height>
              <media>
                <video>
                  <duration>2</duration>
                  <stillframe>TRUE</stillframe>
                  <samplecharacteristics>
                    <rate>
                      <ntsc>FALSE</ntsc>
                      <timebase>25</timebase>
                    </rate>
                    <width>1920</width>
                    <height>1080</height>
                    <pixelaspectratio>Square</pixelaspectratio>
                    <anamorphic>FALSE</anamorphic>
                  </samplecharacteristics>
                </video>
              </media>
            </file>
            <sourcetrack>
              <mediatype>video</mediatype>
            </sourcetrack>
            <fielddominance>none</fielddominance>
          </clipitem>
          <clipitem id="B.png49">
            <name>B.png</name>
            <duration>2</duration>
            <rate>
              <ntsc>FALSE</ntsc>
              <timebase>25</timebase>
            </rate>
            <in>90219</in>
            <out>90221</out>
            <start>219</start>
            <end>221</end>
            <pixelaspectratio>Square</pixelaspectratio>
            <stillframe>TRUE</stillframe>
            <anamorphic>FALSE</anamorphic>
            <alphatype>straight</alphatype>
            <masterclipid>B.png49</masterclipid>
            <file id="B">
              <name>B.png</name>
              <pathurl>D:/Codes/SynthLip/SynthLipN/bin/Debug/net6.0-windows/Skin/template/B.png</pathurl>
              <rate>
                <ntsc>FALSE</ntsc>
                <timebase>25</timebase>
              </rate>
              <duration>2</duration>
              <width>1920</width>
              <height>1080</height>
              <media>
                <video>
                  <duration>2</duration>
                  <stillframe>TRUE</stillframe>
                  <samplecharacteristics>
                    <rate>
                      <ntsc>FALSE</ntsc>
                      <timebase>25</timebase>
                    </rate>
                    <width>1920</width>
                    <height>1080</height>
                    <pixelaspectratio>Square</pixelaspectratio>
                    <anamorphic>FALSE</anamorphic>
                  </samplecharacteristics>
                </video>
              </media>
            </file>
            <sourcetrack>
              <mediatype>video</mediatype>
            </sourcetrack>
            <fielddominance>none</fielddominance>
          </clipitem>
          <clipitem id="F.png48">
            <name>F.png</name>
            <duration>2</duration>
            <rate>
              <ntsc>FALSE</ntsc>
              <timebase>25</timebase>
            </rate>
            <in>90217</in>
            <out>90219</out>
            <start>217</start>
            <end>219</end>
            <pixelaspectratio>Square</pixelaspectratio>
            <stillframe>TRUE</stillframe>
            <anamorphic>FALSE</anamorphic>
            <alphatype>straight</alphatype>
            <masterclipid>F.png48</masterclipid>
            <file id="F">
              <name>F.png</name>
              <pathurl>D:/Codes/SynthLip/SynthLipN/bin/Debug/net6.0-windows/Skin/template/F.png</pathurl>
              <rate>
                <ntsc>FALSE</ntsc>
                <timebase>25</timebase>
              </rate>
              <duration>2</duration>
              <width>1920</width>
              <height>1080</height>
              <media>
                <video>
                  <duration>2</duration>
                  <stillframe>TRUE</stillframe>
                  <samplecharacteristics>
                    <rate>
                      <ntsc>FALSE</ntsc>
                      <timebase>25</timebase>
                    </rate>
                    <width>1920</width>
                    <height>1080</height>
                    <pixelaspectratio>Square</pixelaspectratio>
                    <anamorphic>FALSE</anamorphic>
                  </samplecharacteristics>
                </video>
              </media>
            </file>
            <sourcetrack>
              <mediatype>video</mediatype>
            </sourcetrack>
            <fielddominance>none</fielddominance>
          </clipitem>
          <clipitem id="A.png47">
            <name>A.png</name>
            <duration>3</duration>
            <rate>
              <ntsc>FALSE</ntsc>
              <timebase>25</timebase>
            </rate>
            <in>90213</in>
            <out>90216</out>
            <start>213</start>
            <end>216</end>
            <pixelaspectratio>Square</pixelaspectratio>
            <stillframe>TRUE</stillframe>
            <anamorphic>FALSE</anamorphic>
            <alphatype>straight</alphatype>
            <masterclipid>A.png47</masterclipid>
            <file id="A">
              <name>A.png</name>
              <pathurl>D:/Codes/SynthLip/SynthLipN/bin/Debug/net6.0-windows/Skin/template/A.png</pathurl>
              <rate>
                <ntsc>FALSE</ntsc>
                <timebase>25</timebase>
              </rate>
              <duration>2</duration>
              <width>1920</width>
              <height>1080</height>
              <media>
                <video>
                  <duration>2</duration>
                  <stillframe>TRUE</stillframe>
                  <samplecharacteristics>
                    <rate>
                      <ntsc>FALSE</ntsc>
                      <timebase>25</timebase>
                    </rate>
                    <width>1920</width>
                    <height>1080</height>
                    <pixelaspectratio>Square</pixelaspectratio>
                    <anamorphic>FALSE</anamorphic>
                  </samplecharacteristics>
                </video>
              </media>
            </file>
            <sourcetrack>
              <mediatype>video</mediatype>
            </sourcetrack>
            <fielddominance>none</fielddominance>
          </clipitem>
          <clipitem id="D.png46">
            <name>D.png</name>
            <duration>1</duration>
            <rate>
              <ntsc>FALSE</ntsc>
              <timebase>25</timebase>
            </rate>
            <in>90211</in>
            <out>90212</out>
            <start>211</start>
            <end>212</end>
            <pixelaspectratio>Square</pixelaspectratio>
            <stillframe>TRUE</stillframe>
            <anamorphic>FALSE</anamorphic>
            <alphatype>straight</alphatype>
            <masterclipid>D.png46</masterclipid>
            <file id="D">
              <name>D.png</name>
              <pathurl>D:/Codes/SynthLip/SynthLipN/bin/Debug/net6.0-windows/Skin/template/D.png</pathurl>
              <rate>
                <ntsc>FALSE</ntsc>
                <timebase>25</timebase>
              </rate>
              <duration>2</duration>
              <width>1920</width>
              <height>1080</height>
              <media>
                <video>
                  <duration>2</duration>
                  <stillframe>TRUE</stillframe>
                  <samplecharacteristics>
                    <rate>
                      <ntsc>FALSE</ntsc>
                      <timebase>25</timebase>
                    </rate>
                    <width>1920</width>
                    <height>1080</height>
                    <pixelaspectratio>Square</pixelaspectratio>
                    <anamorphic>FALSE</anamorphic>
                  </samplecharacteristics>
                </video>
              </media>
            </file>
            <sourcetrack>
              <mediatype>video</mediatype>
            </sourcetrack>
            <fielddominance>none</fielddominance>
          </clipitem>
          <clipitem id="B.png44">
            <name>B.png</name>
            <duration>8</duration>
            <rate>
              <ntsc>FALSE</ntsc>
              <timebase>25</timebase>
            </rate>
            <in>90202</in>
            <out>90210</out>
            <start>202</start>
            <end>210</end>
            <pixelaspectratio>Square</pixelaspectratio>
            <stillframe>TRUE</stillframe>
            <anamorphic>FALSE</anamorphic>
            <alphatype>straight</alphatype>
            <masterclipid>B.png44</masterclipid>
            <file id="B">
              <name>B.png</name>
              <pathurl>D:/Codes/SynthLip/SynthLipN/bin/Debug/net6.0-windows/Skin/template/B.png</pathurl>
              <rate>
                <ntsc>FALSE</ntsc>
                <timebase>25</timebase>
              </rate>
              <duration>2</duration>
              <width>1920</width>
              <height>1080</height>
              <media>
                <video>
                  <duration>2</duration>
                  <stillframe>TRUE</stillframe>
                  <samplecharacteristics>
                    <rate>
                      <ntsc>FALSE</ntsc>
                      <timebase>25</timebase>
                    </rate>
                    <width>1920</width>
                    <height>1080</height>
                    <pixelaspectratio>Square</pixelaspectratio>
                    <anamorphic>FALSE</anamorphic>
                  </samplecharacteristics>
                </video>
              </media>
            </file>
            <sourcetrack>
              <mediatype>video</mediatype>
            </sourcetrack>
            <fielddominance>none</fielddominance>
          </clipitem>
          <clipitem id="D.png43">
            <name>D.png</name>
            <duration>2</duration>
            <rate>
              <ntsc>FALSE</ntsc>
              <timebase>25</timebase>
            </rate>
            <in>90200</in>
            <out>90202</out>
            <start>200</start>
            <end>202</end>
            <pixelaspectratio>Square</pixelaspectratio>
            <stillframe>TRUE</stillframe>
            <anamorphic>FALSE</anamorphic>
            <alphatype>straight</alphatype>
            <masterclipid>D.png43</masterclipid>
            <file id="D">
              <name>D.png</name>
              <pathurl>D:/Codes/SynthLip/SynthLipN/bin/Debug/net6.0-windows/Skin/template/D.png</pathurl>
              <rate>
                <ntsc>FALSE</ntsc>
                <timebase>25</timebase>
              </rate>
              <duration>2</duration>
              <width>1920</width>
              <height>1080</height>
              <media>
                <video>
                  <duration>2</duration>
                  <stillframe>TRUE</stillframe>
                  <samplecharacteristics>
                    <rate>
                      <ntsc>FALSE</ntsc>
                      <timebase>25</timebase>
                    </rate>
                    <width>1920</width>
                    <height>1080</height>
                    <pixelaspectratio>Square</pixelaspectratio>
                    <anamorphic>FALSE</anamorphic>
                  </samplecharacteristics>
                </video>
              </media>
            </file>
            <sourcetrack>
              <mediatype>video</mediatype>
            </sourcetrack>
            <fielddominance>none</fielddominance>
          </clipitem>
          <clipitem id="B.png42">
            <name>B.png</name>
            <duration>2</duration>
            <rate>
              <ntsc>FALSE</ntsc>
              <timebase>25</timebase>
            </rate>
            <in>90197</in>
            <out>90199</out>
            <start>197</start>
            <end>199</end>
            <pixelaspectratio>Square</pixelaspectratio>
            <stillframe>TRUE</stillframe>
            <anamorphic>FALSE</anamorphic>
            <alphatype>straight</alphatype>
            <masterclipid>B.png42</masterclipid>
            <file id="B">
              <name>B.png</name>
              <pathurl>D:/Codes/SynthLip/SynthLipN/bin/Debug/net6.0-windows/Skin/template/B.png</pathurl>
              <rate>
                <ntsc>FALSE</ntsc>
                <timebase>25</timebase>
              </rate>
              <duration>2</duration>
              <width>1920</width>
              <height>1080</height>
              <media>
                <video>
                  <duration>2</duration>
                  <stillframe>TRUE</stillframe>
                  <samplecharacteristics>
                    <rate>
                      <ntsc>FALSE</ntsc>
                      <timebase>25</timebase>
                    </rate>
                    <width>1920</width>
                    <height>1080</height>
                    <pixelaspectratio>Square</pixelaspectratio>
                    <anamorphic>FALSE</anamorphic>
                  </samplecharacteristics>
                </video>
              </media>
            </file>
            <sourcetrack>
              <mediatype>video</mediatype>
            </sourcetrack>
            <fielddominance>none</fielddominance>
          </clipitem>
          <clipitem id="A.png41">
            <name>A.png</name>
            <duration>2</duration>
            <rate>
              <ntsc>FALSE</ntsc>
              <timebase>25</timebase>
            </rate>
            <in>90195</in>
            <out>90197</out>
            <start>195</start>
            <end>197</end>
            <pixelaspectratio>Square</pixelaspectratio>
            <stillframe>TRUE</stillframe>
            <anamorphic>FALSE</anamorphic>
            <alphatype>straight</alphatype>
            <masterclipid>A.png41</masterclipid>
            <file id="A">
              <name>A.png</name>
              <pathurl>D:/Codes/SynthLip/SynthLipN/bin/Debug/net6.0-windows/Skin/template/A.png</pathurl>
              <rate>
                <ntsc>FALSE</ntsc>
                <timebase>25</timebase>
              </rate>
              <duration>2</duration>
              <width>1920</width>
              <height>1080</height>
              <media>
                <video>
                  <duration>2</duration>
                  <stillframe>TRUE</stillframe>
                  <samplecharacteristics>
                    <rate>
                      <ntsc>FALSE</ntsc>
                      <timebase>25</timebase>
                    </rate>
                    <width>1920</width>
                    <height>1080</height>
                    <pixelaspectratio>Square</pixelaspectratio>
                    <anamorphic>FALSE</anamorphic>
                  </samplecharacteristics>
                </video>
              </media>
            </file>
            <sourcetrack>
              <mediatype>video</mediatype>
            </sourcetrack>
            <fielddominance>none</fielddominance>
          </clipitem>
          <clipitem id="A.png40">
            <name>A.png</name>
            <duration>3</duration>
            <rate>
              <ntsc>FALSE</ntsc>
              <timebase>25</timebase>
            </rate>
            <in>90191</in>
            <out>90194</out>
            <start>191</start>
            <end>194</end>
            <pixelaspectratio>Square</pixelaspectratio>
            <stillframe>TRUE</stillframe>
            <anamorphic>FALSE</anamorphic>
            <alphatype>straight</alphatype>
            <masterclipid>A.png40</masterclipid>
            <file id="A">
              <name>A.png</name>
              <pathurl>D:/Codes/SynthLip/SynthLipN/bin/Debug/net6.0-windows/Skin/template/A.png</pathurl>
              <rate>
                <ntsc>FALSE</ntsc>
                <timebase>25</timebase>
              </rate>
              <duration>2</duration>
              <width>1920</width>
              <height>1080</height>
              <media>
                <video>
                  <duration>2</duration>
                  <stillframe>TRUE</stillframe>
                  <samplecharacteristics>
                    <rate>
                      <ntsc>FALSE</ntsc>
                      <timebase>25</timebase>
                    </rate>
                    <width>1920</width>
                    <height>1080</height>
                    <pixelaspectratio>Square</pixelaspectratio>
                    <anamorphic>FALSE</anamorphic>
                  </samplecharacteristics>
                </video>
              </media>
            </file>
            <sourcetrack>
              <mediatype>video</mediatype>
            </sourcetrack>
            <fielddominance>none</fielddominance>
          </clipitem>
          <clipitem id="F.png39">
            <name>F.png</name>
            <duration>1</duration>
            <rate>
              <ntsc>FALSE</ntsc>
              <timebase>25</timebase>
            </rate>
            <in>90189</in>
            <out>90190</out>
            <start>189</start>
            <end>190</end>
            <pixelaspectratio>Square</pixelaspectratio>
            <stillframe>TRUE</stillframe>
            <anamorphic>FALSE</anamorphic>
            <alphatype>straight</alphatype>
            <masterclipid>F.png39</masterclipid>
            <file id="F">
              <name>F.png</name>
              <pathurl>D:/Codes/SynthLip/SynthLipN/bin/Debug/net6.0-windows/Skin/template/F.png</pathurl>
              <rate>
                <ntsc>FALSE</ntsc>
                <timebase>25</timebase>
              </rate>
              <duration>2</duration>
              <width>1920</width>
              <height>1080</height>
              <media>
                <video>
                  <duration>2</duration>
                  <stillframe>TRUE</stillframe>
                  <samplecharacteristics>
                    <rate>
                      <ntsc>FALSE</ntsc>
                      <timebase>25</timebase>
                    </rate>
                    <width>1920</width>
                    <height>1080</height>
                    <pixelaspectratio>Square</pixelaspectratio>
                    <anamorphic>FALSE</anamorphic>
                  </samplecharacteristics>
                </video>
              </media>
            </file>
            <sourcetrack>
              <mediatype>video</mediatype>
            </sourcetrack>
            <fielddominance>none</fielddominance>
          </clipitem>
          <clipitem id="C.png36">
            <name>C.png</name>
            <duration>2</duration>
            <rate>
              <ntsc>FALSE</ntsc>
              <timebase>25</timebase>
            </rate>
            <in>90185</in>
            <out>90187</out>
            <start>185</start>
            <end>187</end>
            <pixelaspectratio>Square</pixelaspectratio>
            <stillframe>TRUE</stillframe>
            <anamorphic>FALSE</anamorphic>
            <alphatype>straight</alphatype>
            <masterclipid>C.png36</masterclipid>
            <file id="C">
              <name>C.png</name>
              <pathurl>D:/Codes/SynthLip/SynthLipN/bin/Debug/net6.0-windows/Skin/template/C.png</pathurl>
              <rate>
                <ntsc>FALSE</ntsc>
                <timebase>25</timebase>
              </rate>
              <duration>2</duration>
              <width>1920</width>
              <height>1080</height>
              <media>
                <video>
                  <duration>2</duration>
                  <stillframe>TRUE</stillframe>
                  <samplecharacteristics>
                    <rate>
                      <ntsc>FALSE</ntsc>
                      <timebase>25</timebase>
                    </rate>
                    <width>1920</width>
                    <height>1080</height>
                    <pixelaspectratio>Square</pixelaspectratio>
                    <anamorphic>FALSE</anamorphic>
                  </samplecharacteristics>
                </video>
              </media>
            </file>
            <sourcetrack>
              <mediatype>video</mediatype>
            </sourcetrack>
            <fielddominance>none</fielddominance>
          </clipitem>
          <clipitem id="B.png35">
            <name>B.png</name>
            <duration>2</duration>
            <rate>
              <ntsc>FALSE</ntsc>
              <timebase>25</timebase>
            </rate>
            <in>90182</in>
            <out>90184</out>
            <start>182</start>
            <end>184</end>
            <pixelaspectratio>Square</pixelaspectratio>
            <stillframe>TRUE</stillframe>
            <anamorphic>FALSE</anamorphic>
            <alphatype>straight</alphatype>
            <masterclipid>B.png35</masterclipid>
            <file id="B">
              <name>B.png</name>
              <pathurl>D:/Codes/SynthLip/SynthLipN/bin/Debug/net6.0-windows/Skin/template/B.png</pathurl>
              <rate>
                <ntsc>FALSE</ntsc>
                <timebase>25</timebase>
              </rate>
              <duration>2</duration>
              <width>1920</width>
              <height>1080</height>
              <media>
                <video>
                  <duration>2</duration>
                  <stillframe>TRUE</stillframe>
                  <samplecharacteristics>
                    <rate>
                      <ntsc>FALSE</ntsc>
                      <timebase>25</timebase>
                    </rate>
                    <width>1920</width>
                    <height>1080</height>
                    <pixelaspectratio>Square</pixelaspectratio>
                    <anamorphic>FALSE</anamorphic>
                  </samplecharacteristics>
                </video>
              </media>
            </file>
            <sourcetrack>
              <mediatype>video</mediatype>
            </sourcetrack>
            <fielddominance>none</fielddominance>
          </clipitem>
          <clipitem id="A.png34">
            <name>A.png</name>
            <duration>2</duration>
            <rate>
              <ntsc>FALSE</ntsc>
              <timebase>25</timebase>
            </rate>
            <in>90180</in>
            <out>90182</out>
            <start>180</start>
            <end>182</end>
            <pixelaspectratio>Square</pixelaspectratio>
            <stillframe>TRUE</stillframe>
            <anamorphic>FALSE</anamorphic>
            <alphatype>straight</alphatype>
            <masterclipid>A.png34</masterclipid>
            <file id="A">
              <name>A.png</name>
              <pathurl>D:/Codes/SynthLip/SynthLipN/bin/Debug/net6.0-windows/Skin/template/A.png</pathurl>
              <rate>
                <ntsc>FALSE</ntsc>
                <timebase>25</timebase>
              </rate>
              <duration>2</duration>
              <width>1920</width>
              <height>1080</height>
              <media>
                <video>
                  <duration>2</duration>
                  <stillframe>TRUE</stillframe>
                  <samplecharacteristics>
                    <rate>
                      <ntsc>FALSE</ntsc>
                      <timebase>25</timebase>
                    </rate>
                    <width>1920</width>
                    <height>1080</height>
                    <pixelaspectratio>Square</pixelaspectratio>
                    <anamorphic>FALSE</anamorphic>
                  </samplecharacteristics>
                </video>
              </media>
            </file>
            <sourcetrack>
              <mediatype>video</mediatype>
            </sourcetrack>
            <fielddominance>none</fielddominance>
          </clipitem>
          <clipitem id="B.png33">
            <name>B.png</name>
            <duration>3</duration>
            <rate>
              <ntsc>FALSE</ntsc>
              <timebase>25</timebase>
            </rate>
            <in>90176</in>
            <out>90179</out>
            <start>176</start>
            <end>179</end>
            <pixelaspectratio>Square</pixelaspectratio>
            <stillframe>TRUE</stillframe>
            <anamorphic>FALSE</anamorphic>
            <alphatype>straight</alphatype>
            <masterclipid>B.png33</masterclipid>
            <file id="B">
              <name>B.png</name>
              <pathurl>D:/Codes/SynthLip/SynthLipN/bin/Debug/net6.0-windows/Skin/template/B.png</pathurl>
              <rate>
                <ntsc>FALSE</ntsc>
                <timebase>25</timebase>
              </rate>
              <duration>2</duration>
              <width>1920</width>
              <height>1080</height>
              <media>
                <video>
                  <duration>2</duration>
                  <stillframe>TRUE</stillframe>
                  <samplecharacteristics>
                    <rate>
                      <ntsc>FALSE</ntsc>
                      <timebase>25</timebase>
                    </rate>
                    <width>1920</width>
                    <height>1080</height>
                    <pixelaspectratio>Square</pixelaspectratio>
                    <anamorphic>FALSE</anamorphic>
                  </samplecharacteristics>
                </video>
              </media>
            </file>
            <sourcetrack>
              <mediatype>video</mediatype>
            </sourcetrack>
            <fielddominance>none</fielddominance>
          </clipitem>
          <clipitem id="C.png32">
            <name>C.png</name>
            <duration>1</duration>
            <rate>
              <ntsc>FALSE</ntsc>
              <timebase>25</timebase>
            </rate>
            <in>90175</in>
            <out>90176</out>
            <start>175</start>
            <end>176</end>
            <pixelaspectratio>Square</pixelaspectratio>
            <stillframe>TRUE</stillframe>
            <anamorphic>FALSE</anamorphic>
            <alphatype>straight</alphatype>
            <masterclipid>C.png32</masterclipid>
            <file id="C">
              <name>C.png</name>
              <pathurl>D:/Codes/SynthLip/SynthLipN/bin/Debug/net6.0-windows/Skin/template/C.png</pathurl>
              <rate>
                <ntsc>FALSE</ntsc>
                <timebase>25</timebase>
              </rate>
              <duration>2</duration>
              <width>1920</width>
              <height>1080</height>
              <media>
                <video>
                  <duration>2</duration>
                  <stillframe>TRUE</stillframe>
                  <samplecharacteristics>
                    <rate>
                      <ntsc>FALSE</ntsc>
                      <timebase>25</timebase>
                    </rate>
                    <width>1920</width>
                    <height>1080</height>
                    <pixelaspectratio>Square</pixelaspectratio>
                    <anamorphic>FALSE</anamorphic>
                  </samplecharacteristics>
                </video>
              </media>
            </file>
            <sourcetrack>
              <mediatype>video</mediatype>
            </sourcetrack>
            <fielddominance>none</fielddominance>
          </clipitem>
          <clipitem id="B.png31">
            <name>B.png</name>
            <duration>1</duration>
            <rate>
              <ntsc>FALSE</ntsc>
              <timebase>25</timebase>
            </rate>
            <in>90173</in>
            <out>90174</out>
            <start>173</start>
            <end>174</end>
            <pixelaspectratio>Square</pixelaspectratio>
            <stillframe>TRUE</stillframe>
            <anamorphic>FALSE</anamorphic>
            <alphatype>straight</alphatype>
            <masterclipid>B.png31</masterclipid>
            <file id="B">
              <name>B.png</name>
              <pathurl>D:/Codes/SynthLip/SynthLipN/bin/Debug/net6.0-windows/Skin/template/B.png</pathurl>
              <rate>
                <ntsc>FALSE</ntsc>
                <timebase>25</timebase>
              </rate>
              <duration>2</duration>
              <width>1920</width>
              <height>1080</height>
              <media>
                <video>
                  <duration>2</duration>
                  <stillframe>TRUE</stillframe>
                  <samplecharacteristics>
                    <rate>
                      <ntsc>FALSE</ntsc>
                      <timebase>25</timebase>
                    </rate>
                    <width>1920</width>
                    <height>1080</height>
                    <pixelaspectratio>Square</pixelaspectratio>
                    <anamorphic>FALSE</anamorphic>
                  </samplecharacteristics>
                </video>
              </media>
            </file>
            <sourcetrack>
              <mediatype>video</mediatype>
            </sourcetrack>
            <fielddominance>none</fielddominance>
          </clipitem>
          <clipitem id="C.png30">
            <name>C.png</name>
            <duration>1</duration>
            <rate>
              <ntsc>FALSE</ntsc>
              <timebase>25</timebase>
            </rate>
            <in>90172</in>
            <out>90173</out>
            <start>172</start>
            <end>173</end>
            <pixelaspectratio>Square</pixelaspectratio>
            <stillframe>TRUE</stillframe>
            <anamorphic>FALSE</anamorphic>
            <alphatype>straight</alphatype>
            <masterclipid>C.png30</masterclipid>
            <file id="C">
              <name>C.png</name>
              <pathurl>D:/Codes/SynthLip/SynthLipN/bin/Debug/net6.0-windows/Skin/template/C.png</pathurl>
              <rate>
                <ntsc>FALSE</ntsc>
                <timebase>25</timebase>
              </rate>
              <duration>2</duration>
              <width>1920</width>
              <height>1080</height>
              <media>
                <video>
                  <duration>2</duration>
                  <stillframe>TRUE</stillframe>
                  <samplecharacteristics>
                    <rate>
                      <ntsc>FALSE</ntsc>
                      <timebase>25</timebase>
                    </rate>
                    <width>1920</width>
                    <height>1080</height>
                    <pixelaspectratio>Square</pixelaspectratio>
                    <anamorphic>FALSE</anamorphic>
                  </samplecharacteristics>
                </video>
              </media>
            </file>
            <sourcetrack>
              <mediatype>video</mediatype>
            </sourcetrack>
            <fielddominance>none</fielddominance>
          </clipitem>
          <clipitem id="B.png29">
            <name>B.png</name>
            <duration>3</duration>
            <rate>
              <ntsc>FALSE</ntsc>
              <timebase>25</timebase>
            </rate>
            <in>90168</in>
            <out>90171</out>
            <start>168</start>
            <end>171</end>
            <pixelaspectratio>Square</pixelaspectratio>
            <stillframe>TRUE</stillframe>
            <anamorphic>FALSE</anamorphic>
            <alphatype>straight</alphatype>
            <masterclipid>B.png29</masterclipid>
            <file id="B">
              <name>B.png</name>
              <pathurl>D:/Codes/SynthLip/SynthLipN/bin/Debug/net6.0-windows/Skin/template/B.png</pathurl>
              <rate>
                <ntsc>FALSE</ntsc>
                <timebase>25</timebase>
              </rate>
              <duration>2</duration>
              <width>1920</width>
              <height>1080</height>
              <media>
                <video>
                  <duration>2</duration>
                  <stillframe>TRUE</stillframe>
                  <samplecharacteristics>
                    <rate>
                      <ntsc>FALSE</ntsc>
                      <timebase>25</timebase>
                    </rate>
                    <width>1920</width>
                    <height>1080</height>
                    <pixelaspectratio>Square</pixelaspectratio>
                    <anamorphic>FALSE</anamorphic>
                  </samplecharacteristics>
                </video>
              </media>
            </file>
            <sourcetrack>
              <mediatype>video</mediatype>
            </sourcetrack>
            <fielddominance>none</fielddominance>
          </clipitem>
          <clipitem id="A.png28">
            <name>A.png</name>
            <duration>3</duration>
            <rate>
              <ntsc>FALSE</ntsc>
              <timebase>25</timebase>
            </rate>
            <in>90165</in>
            <out>90168</out>
            <start>165</start>
            <end>168</end>
            <pixelaspectratio>Square</pixelaspectratio>
            <stillframe>TRUE</stillframe>
            <anamorphic>FALSE</anamorphic>
            <alphatype>straight</alphatype>
            <masterclipid>A.png28</masterclipid>
            <file id="A">
              <name>A.png</name>
              <pathurl>D:/Codes/SynthLip/SynthLipN/bin/Debug/net6.0-windows/Skin/template/A.png</pathurl>
              <rate>
                <ntsc>FALSE</ntsc>
                <timebase>25</timebase>
              </rate>
              <duration>2</duration>
              <width>1920</width>
              <height>1080</height>
              <media>
                <video>
                  <duration>2</duration>
                  <stillframe>TRUE</stillframe>
                  <samplecharacteristics>
                    <rate>
                      <ntsc>FALSE</ntsc>
                      <timebase>25</timebase>
                    </rate>
                    <width>1920</width>
                    <height>1080</height>
                    <pixelaspectratio>Square</pixelaspectratio>
                    <anamorphic>FALSE</anamorphic>
                  </samplecharacteristics>
                </video>
              </media>
            </file>
            <sourcetrack>
              <mediatype>video</mediatype>
            </sourcetrack>
            <fielddominance>none</fielddominance>
          </clipitem>
          <clipitem id="F.png27">
            <name>F.png</name>
            <duration>5</duration>
            <rate>
              <ntsc>FALSE</ntsc>
              <timebase>25</timebase>
            </rate>
            <in>90159</in>
            <out>90164</out>
            <start>159</start>
            <end>164</end>
            <pixelaspectratio>Square</pixelaspectratio>
            <stillframe>TRUE</stillframe>
            <anamorphic>FALSE</anamorphic>
            <alphatype>straight</alphatype>
            <masterclipid>F.png27</masterclipid>
            <file id="F">
              <name>F.png</name>
              <pathurl>D:/Codes/SynthLip/SynthLipN/bin/Debug/net6.0-windows/Skin/template/F.png</pathurl>
              <rate>
                <ntsc>FALSE</ntsc>
                <timebase>25</timebase>
              </rate>
              <duration>2</duration>
              <width>1920</width>
              <height>1080</height>
              <media>
                <video>
                  <duration>2</duration>
                  <stillframe>TRUE</stillframe>
                  <samplecharacteristics>
                    <rate>
                      <ntsc>FALSE</ntsc>
                      <timebase>25</timebase>
                    </rate>
                    <width>1920</width>
                    <height>1080</height>
                    <pixelaspectratio>Square</pixelaspectratio>
                    <anamorphic>FALSE</anamorphic>
                  </samplecharacteristics>
                </video>
              </media>
            </file>
            <sourcetrack>
              <mediatype>video</mediatype>
            </sourcetrack>
            <fielddominance>none</fielddominance>
          </clipitem>
          <clipitem id="C.png24">
            <name>C.png</name>
            <duration>3</duration>
            <rate>
              <ntsc>FALSE</ntsc>
              <timebase>25</timebase>
            </rate>
            <in>90153</in>
            <out>90156</out>
            <start>153</start>
            <end>156</end>
            <pixelaspectratio>Square</pixelaspectratio>
            <stillframe>TRUE</stillframe>
            <anamorphic>FALSE</anamorphic>
            <alphatype>straight</alphatype>
            <masterclipid>C.png24</masterclipid>
            <file id="C">
              <name>C.png</name>
              <pathurl>D:/Codes/SynthLip/SynthLipN/bin/Debug/net6.0-windows/Skin/template/C.png</pathurl>
              <rate>
                <ntsc>FALSE</ntsc>
                <timebase>25</timebase>
              </rate>
              <duration>2</duration>
              <width>1920</width>
              <height>1080</height>
              <media>
                <video>
                  <duration>2</duration>
                  <stillframe>TRUE</stillframe>
                  <samplecharacteristics>
                    <rate>
                      <ntsc>FALSE</ntsc>
                      <timebase>25</timebase>
                    </rate>
                    <width>1920</width>
                    <height>1080</height>
                    <pixelaspectratio>Square</pixelaspectratio>
                    <anamorphic>FALSE</anamorphic>
                  </samplecharacteristics>
                </video>
              </media>
            </file>
            <sourcetrack>
              <mediatype>video</mediatype>
            </sourcetrack>
            <fielddominance>none</fielddominance>
          </clipitem>
          <clipitem id="B.png23">
            <name>B.png</name>
            <duration>1</duration>
            <rate>
              <ntsc>FALSE</ntsc>
              <timebase>25</timebase>
            </rate>
            <in>90151</in>
            <out>90152</out>
            <start>151</start>
            <end>152</end>
            <pixelaspectratio>Square</pixelaspectratio>
            <stillframe>TRUE</stillframe>
            <anamorphic>FALSE</anamorphic>
            <alphatype>straight</alphatype>
            <masterclipid>B.png23</masterclipid>
            <file id="B">
              <name>B.png</name>
              <pathurl>D:/Codes/SynthLip/SynthLipN/bin/Debug/net6.0-windows/Skin/template/B.png</pathurl>
              <rate>
                <ntsc>FALSE</ntsc>
                <timebase>25</timebase>
              </rate>
              <duration>2</duration>
              <width>1920</width>
              <height>1080</height>
              <media>
                <video>
                  <duration>2</duration>
                  <stillframe>TRUE</stillframe>
                  <samplecharacteristics>
                    <rate>
                      <ntsc>FALSE</ntsc>
                      <timebase>25</timebase>
                    </rate>
                    <width>1920</width>
                    <height>1080</height>
                    <pixelaspectratio>Square</pixelaspectratio>
                    <anamorphic>FALSE</anamorphic>
                  </samplecharacteristics>
                </video>
              </media>
            </file>
            <sourcetrack>
              <mediatype>video</mediatype>
            </sourcetrack>
            <fielddominance>none</fielddominance>
          </clipitem>
          <clipitem id="B.png22">
            <name>B.png</name>
            <duration>9</duration>
            <rate>
              <ntsc>FALSE</ntsc>
              <timebase>25</timebase>
            </rate>
            <in>90142</in>
            <out>90151</out>
            <start>142</start>
            <end>151</end>
            <pixelaspectratio>Square</pixelaspectratio>
            <stillframe>TRUE</stillframe>
            <anamorphic>FALSE</anamorphic>
            <alphatype>straight</alphatype>
            <masterclipid>B.png22</masterclipid>
            <file id="B">
              <name>B.png</name>
              <pathurl>D:/Codes/SynthLip/SynthLipN/bin/Debug/net6.0-windows/Skin/template/B.png</pathurl>
              <rate>
                <ntsc>FALSE</ntsc>
                <timebase>25</timebase>
              </rate>
              <duration>2</duration>
              <width>1920</width>
              <height>1080</height>
              <media>
                <video>
                  <duration>2</duration>
                  <stillframe>TRUE</stillframe>
                  <samplecharacteristics>
                    <rate>
                      <ntsc>FALSE</ntsc>
                      <timebase>25</timebase>
                    </rate>
                    <width>1920</width>
                    <height>1080</height>
                    <pixelaspectratio>Square</pixelaspectratio>
                    <anamorphic>FALSE</anamorphic>
                  </samplecharacteristics>
                </video>
              </media>
            </file>
            <sourcetrack>
              <mediatype>video</mediatype>
            </sourcetrack>
            <fielddominance>none</fielddominance>
          </clipitem>
          <clipitem id="D.png21">
            <name>D.png</name>
            <duration>2</duration>
            <rate>
              <ntsc>FALSE</ntsc>
              <timebase>25</timebase>
            </rate>
            <in>90140</in>
            <out>90142</out>
            <start>140</start>
            <end>142</end>
            <pixelaspectratio>Square</pixelaspectratio>
            <stillframe>TRUE</stillframe>
            <anamorphic>FALSE</anamorphic>
            <alphatype>straight</alphatype>
            <masterclipid>D.png21</masterclipid>
            <file id="D">
              <name>D.png</name>
              <pathurl>D:/Codes/SynthLip/SynthLipN/bin/Debug/net6.0-windows/Skin/template/D.png</pathurl>
              <rate>
                <ntsc>FALSE</ntsc>
                <timebase>25</timebase>
              </rate>
              <duration>2</duration>
              <width>1920</width>
              <height>1080</height>
              <media>
                <video>
                  <duration>2</duration>
                  <stillframe>TRUE</stillframe>
                  <samplecharacteristics>
                    <rate>
                      <ntsc>FALSE</ntsc>
                      <timebase>25</timebase>
                    </rate>
                    <width>1920</width>
                    <height>1080</height>
                    <pixelaspectratio>Square</pixelaspectratio>
                    <anamorphic>FALSE</anamorphic>
                  </samplecharacteristics>
                </video>
              </media>
            </file>
            <sourcetrack>
              <mediatype>video</mediatype>
            </sourcetrack>
            <fielddominance>none</fielddominance>
          </clipitem>
          <clipitem id="B.png20">
            <name>B.png</name>
            <duration>2</duration>
            <rate>
              <ntsc>FALSE</ntsc>
              <timebase>25</timebase>
            </rate>
            <in>90137</in>
            <out>90139</out>
            <start>137</start>
            <end>139</end>
            <pixelaspectratio>Square</pixelaspectratio>
            <stillframe>TRUE</stillframe>
            <anamorphic>FALSE</anamorphic>
            <alphatype>straight</alphatype>
            <masterclipid>B.png20</masterclipid>
            <file id="B">
              <name>B.png</name>
              <pathurl>D:/Codes/SynthLip/SynthLipN/bin/Debug/net6.0-windows/Skin/template/B.png</pathurl>
              <rate>
                <ntsc>FALSE</ntsc>
                <timebase>25</timebase>
              </rate>
              <duration>2</duration>
              <width>1920</width>
              <height>1080</height>
              <media>
                <video>
                  <duration>2</duration>
                  <stillframe>TRUE</stillframe>
                  <samplecharacteristics>
                    <rate>
                      <ntsc>FALSE</ntsc>
                      <timebase>25</timebase>
                    </rate>
                    <width>1920</width>
                    <height>1080</height>
                    <pixelaspectratio>Square</pixelaspectratio>
                    <anamorphic>FALSE</anamorphic>
                  </samplecharacteristics>
                </video>
              </media>
            </file>
            <sourcetrack>
              <mediatype>video</mediatype>
            </sourcetrack>
            <fielddominance>none</fielddominance>
          </clipitem>
          <clipitem id="A.png19">
            <name>A.png</name>
            <duration>2</duration>
            <rate>
              <ntsc>FALSE</ntsc>
              <timebase>25</timebase>
            </rate>
            <in>90135</in>
            <out>90137</out>
            <start>135</start>
            <end>137</end>
            <pixelaspectratio>Square</pixelaspectratio>
            <stillframe>TRUE</stillframe>
            <anamorphic>FALSE</anamorphic>
            <alphatype>straight</alphatype>
            <masterclipid>A.png19</masterclipid>
            <file id="A">
              <name>A.png</name>
              <pathurl>D:/Codes/SynthLip/SynthLipN/bin/Debug/net6.0-windows/Skin/template/A.png</pathurl>
              <rate>
                <ntsc>FALSE</ntsc>
                <timebase>25</timebase>
              </rate>
              <duration>2</duration>
              <width>1920</width>
              <height>1080</height>
              <media>
                <video>
                  <duration>2</duration>
                  <stillframe>TRUE</stillframe>
                  <samplecharacteristics>
                    <rate>
                      <ntsc>FALSE</ntsc>
                      <timebase>25</timebase>
                    </rate>
                    <width>1920</width>
                    <height>1080</height>
                    <pixelaspectratio>Square</pixelaspectratio>
                    <anamorphic>FALSE</anamorphic>
                  </samplecharacteristics>
                </video>
              </media>
            </file>
            <sourcetrack>
              <mediatype>video</mediatype>
            </sourcetrack>
            <fielddominance>none</fielddominance>
          </clipitem>
          <clipitem id="A.png18">
            <name>A.png</name>
            <duration>3</duration>
            <rate>
              <ntsc>FALSE</ntsc>
              <timebase>25</timebase>
            </rate>
            <in>90131</in>
            <out>90134</out>
            <start>131</start>
            <end>134</end>
            <pixelaspectratio>Square</pixelaspectratio>
            <stillframe>TRUE</stillframe>
            <anamorphic>FALSE</anamorphic>
            <alphatype>straight</alphatype>
            <masterclipid>A.png18</masterclipid>
            <file id="A">
              <name>A.png</name>
              <pathurl>D:/Codes/SynthLip/SynthLipN/bin/Debug/net6.0-windows/Skin/template/A.png</pathurl>
              <rate>
                <ntsc>FALSE</ntsc>
                <timebase>25</timebase>
              </rate>
              <duration>2</duration>
              <width>1920</width>
              <height>1080</height>
              <media>
                <video>
                  <duration>2</duration>
                  <stillframe>TRUE</stillframe>
                  <samplecharacteristics>
                    <rate>
                      <ntsc>FALSE</ntsc>
                      <timebase>25</timebase>
                    </rate>
                    <width>1920</width>
                    <height>1080</height>
                    <pixelaspectratio>Square</pixelaspectratio>
                    <anamorphic>FALSE</anamorphic>
                  </samplecharacteristics>
                </video>
              </media>
            </file>
            <sourcetrack>
              <mediatype>video</mediatype>
            </sourcetrack>
            <fielddominance>none</fielddominance>
          </clipitem>
          <clipitem id="F.png17">
            <name>F.png</name>
            <duration>1</duration>
            <rate>
              <ntsc>FALSE</ntsc>
              <timebase>25</timebase>
            </rate>
            <in>90129</in>
            <out>90130</out>
            <start>129</start>
            <end>130</end>
            <pixelaspectratio>Square</pixelaspectratio>
            <stillframe>TRUE</stillframe>
            <anamorphic>FALSE</anamorphic>
            <alphatype>straight</alphatype>
            <masterclipid>F.png17</masterclipid>
            <file id="F">
              <name>F.png</name>
              <pathurl>D:/Codes/SynthLip/SynthLipN/bin/Debug/net6.0-windows/Skin/template/F.png</pathurl>
              <rate>
                <ntsc>FALSE</ntsc>
                <timebase>25</timebase>
              </rate>
              <duration>2</duration>
              <width>1920</width>
              <height>1080</height>
              <media>
                <video>
                  <duration>2</duration>
                  <stillframe>TRUE</stillframe>
                  <samplecharacteristics>
                    <rate>
                      <ntsc>FALSE</ntsc>
                      <timebase>25</timebase>
                    </rate>
                    <width>1920</width>
                    <height>1080</height>
                    <pixelaspectratio>Square</pixelaspectratio>
                    <anamorphic>FALSE</anamorphic>
                  </samplecharacteristics>
                </video>
              </media>
            </file>
            <sourcetrack>
              <mediatype>video</mediatype>
            </sourcetrack>
            <fielddominance>none</fielddominance>
          </clipitem>
          <clipitem id="A.png14">
            <name>A.png</name>
            <duration>3</duration>
            <rate>
              <ntsc>FALSE</ntsc>
              <timebase>25</timebase>
            </rate>
            <in>90123</in>
            <out>90126</out>
            <start>123</start>
            <end>126</end>
            <pixelaspectratio>Square</pixelaspectratio>
            <stillframe>TRUE</stillframe>
            <anamorphic>FALSE</anamorphic>
            <alphatype>straight</alphatype>
            <masterclipid>A.png14</masterclipid>
            <file id="A">
              <name>A.png</name>
              <pathurl>D:/Codes/SynthLip/SynthLipN/bin/Debug/net6.0-windows/Skin/template/A.png</pathurl>
              <rate>
                <ntsc>FALSE</ntsc>
                <timebase>25</timebase>
              </rate>
              <duration>2</duration>
              <width>1920</width>
              <height>1080</height>
              <media>
                <video>
                  <duration>2</duration>
                  <stillframe>TRUE</stillframe>
                  <samplecharacteristics>
                    <rate>
                      <ntsc>FALSE</ntsc>
                      <timebase>25</timebase>
                    </rate>
                    <width>1920</width>
                    <height>1080</height>
                    <pixelaspectratio>Square</pixelaspectratio>
                    <anamorphic>FALSE</anamorphic>
                  </samplecharacteristics>
                </video>
              </media>
            </file>
            <sourcetrack>
              <mediatype>video</mediatype>
            </sourcetrack>
            <fielddominance>none</fielddominance>
          </clipitem>
          <clipitem id="A.png13">
            <name>A.png</name>
            <duration>3</duration>
            <rate>
              <ntsc>FALSE</ntsc>
              <timebase>25</timebase>
            </rate>
            <in>90120</in>
            <out>90123</out>
            <start>120</start>
            <end>123</end>
            <pixelaspectratio>Square</pixelaspectratio>
            <stillframe>TRUE</stillframe>
            <anamorphic>FALSE</anamorphic>
            <alphatype>straight</alphatype>
            <masterclipid>A.png13</masterclipid>
            <file id="A">
              <name>A.png</name>
              <pathurl>D:/Codes/SynthLip/SynthLipN/bin/Debug/net6.0-windows/Skin/template/A.png</pathurl>
              <rate>
                <ntsc>FALSE</ntsc>
                <timebase>25</timebase>
              </rate>
              <duration>2</duration>
              <width>1920</width>
              <height>1080</height>
              <media>
                <video>
                  <duration>2</duration>
                  <stillframe>TRUE</stillframe>
                  <samplecharacteristics>
                    <rate>
                      <ntsc>FALSE</ntsc>
                      <timebase>25</timebase>
                    </rate>
                    <width>1920</width>
                    <height>1080</height>
                    <pixelaspectratio>Square</pixelaspectratio>
                    <anamorphic>FALSE</anamorphic>
                  </samplecharacteristics>
                </video>
              </media>
            </file>
            <sourcetrack>
              <mediatype>video</mediatype>
            </sourcetrack>
            <fielddominance>none</fielddominance>
          </clipitem>
          <clipitem id="B.png12">
            <name>B.png</name>
            <duration>3</duration>
            <rate>
              <ntsc>FALSE</ntsc>
              <timebase>25</timebase>
            </rate>
            <in>90116</in>
            <out>90119</out>
            <start>116</start>
            <end>119</end>
            <pixelaspectratio>Square</pixelaspectratio>
            <stillframe>TRUE</stillframe>
            <anamorphic>FALSE</anamorphic>
            <alphatype>straight</alphatype>
            <masterclipid>B.png12</masterclipid>
            <file id="B">
              <name>B.png</name>
              <pathurl>D:/Codes/SynthLip/SynthLipN/bin/Debug/net6.0-windows/Skin/template/B.png</pathurl>
              <rate>
                <ntsc>FALSE</ntsc>
                <timebase>25</timebase>
              </rate>
              <duration>2</duration>
              <width>1920</width>
              <height>1080</height>
              <media>
                <video>
                  <duration>2</duration>
                  <stillframe>TRUE</stillframe>
                  <samplecharacteristics>
                    <rate>
                      <ntsc>FALSE</ntsc>
                      <timebase>25</timebase>
                    </rate>
                    <width>1920</width>
                    <height>1080</height>
                    <pixelaspectratio>Square</pixelaspectratio>
                    <anamorphic>FALSE</anamorphic>
                  </samplecharacteristics>
                </video>
              </media>
            </file>
            <sourcetrack>
              <mediatype>video</mediatype>
            </sourcetrack>
            <fielddominance>none</fielddominance>
          </clipitem>
          <clipitem id="C.png11">
            <name>C.png</name>
            <duration>1</duration>
            <rate>
              <ntsc>FALSE</ntsc>
              <timebase>25</timebase>
            </rate>
            <in>90115</in>
            <out>90116</out>
            <start>115</start>
            <end>116</end>
            <pixelaspectratio>Square</pixelaspectratio>
            <stillframe>TRUE</stillframe>
            <anamorphic>FALSE</anamorphic>
            <alphatype>straight</alphatype>
            <masterclipid>C.png11</masterclipid>
            <file id="C">
              <name>C.png</name>
              <pathurl>D:/Codes/SynthLip/SynthLipN/bin/Debug/net6.0-windows/Skin/template/C.png</pathurl>
              <rate>
                <ntsc>FALSE</ntsc>
                <timebase>25</timebase>
              </rate>
              <duration>2</duration>
              <width>1920</width>
              <height>1080</height>
              <media>
                <video>
                  <duration>2</duration>
                  <stillframe>TRUE</stillframe>
                  <samplecharacteristics>
                    <rate>
                      <ntsc>FALSE</ntsc>
                      <timebase>25</timebase>
                    </rate>
                    <width>1920</width>
                    <height>1080</height>
                    <pixelaspectratio>Square</pixelaspectratio>
                    <anamorphic>FALSE</anamorphic>
                  </samplecharacteristics>
                </video>
              </media>
            </file>
            <sourcetrack>
              <mediatype>video</mediatype>
            </sourcetrack>
            <fielddominance>none</fielddominance>
          </clipitem>
          <clipitem id="G.png10">
            <name>G.png</name>
            <duration>1</duration>
            <rate>
              <ntsc>FALSE</ntsc>
              <timebase>25</timebase>
            </rate>
            <in>90113</in>
            <out>90114</out>
            <start>113</start>
            <end>114</end>
            <pixelaspectratio>Square</pixelaspectratio>
            <stillframe>TRUE</stillframe>
            <anamorphic>FALSE</anamorphic>
            <alphatype>straight</alphatype>
            <masterclipid>G.png10</masterclipid>
            <file id="G">
              <name>G.png</name>
              <pathurl>D:/Codes/SynthLip/SynthLipN/bin/Debug/net6.0-windows/Skin/template/G.png</pathurl>
              <rate>
                <ntsc>FALSE</ntsc>
                <timebase>25</timebase>
              </rate>
              <duration>2</duration>
              <width>1920</width>
              <height>1080</height>
              <media>
                <video>
                  <duration>2</duration>
                  <stillframe>TRUE</stillframe>
                  <samplecharacteristics>
                    <rate>
                      <ntsc>FALSE</ntsc>
                      <timebase>25</timebase>
                    </rate>
                    <width>1920</width>
                    <height>1080</height>
                    <pixelaspectratio>Square</pixelaspectratio>
                    <anamorphic>FALSE</anamorphic>
                  </samplecharacteristics>
                </video>
              </media>
            </file>
            <sourcetrack>
              <mediatype>video</mediatype>
            </sourcetrack>
            <fielddominance>none</fielddominance>
          </clipitem>
          <clipitem id="A.png9">
            <name>A.png</name>
            <duration>1</duration>
            <rate>
              <ntsc>FALSE</ntsc>
              <timebase>25</timebase>
            </rate>
            <in>90112</in>
            <out>90113</out>
            <start>112</start>
            <end>113</end>
            <pixelaspectratio>Square</pixelaspectratio>
            <stillframe>TRUE</stillframe>
            <anamorphic>FALSE</anamorphic>
            <alphatype>straight</alphatype>
            <masterclipid>A.png9</masterclipid>
            <file id="A">
              <name>A.png</name>
              <pathurl>D:/Codes/SynthLip/SynthLipN/bin/Debug/net6.0-windows/Skin/template/A.png</pathurl>
              <rate>
                <ntsc>FALSE</ntsc>
                <timebase>25</timebase>
              </rate>
              <duration>2</duration>
              <width>1920</width>
              <height>1080</height>
              <media>
                <video>
                  <duration>2</duration>
                  <stillframe>TRUE</stillframe>
                  <samplecharacteristics>
                    <rate>
                      <ntsc>FALSE</ntsc>
                      <timebase>25</timebase>
                    </rate>
                    <width>1920</width>
                    <height>1080</height>
                    <pixelaspectratio>Square</pixelaspectratio>
                    <anamorphic>FALSE</anamorphic>
                  </samplecharacteristics>
                </video>
              </media>
            </file>
            <sourcetrack>
              <mediatype>video</mediatype>
            </sourcetrack>
            <fielddominance>none</fielddominance>
          </clipitem>
          <clipitem id="D.png8">
            <name>D.png</name>
            <duration>2</duration>
            <rate>
              <ntsc>FALSE</ntsc>
              <timebase>25</timebase>
            </rate>
            <in>90110</in>
            <out>90112</out>
            <start>110</start>
            <end>112</end>
            <pixelaspectratio>Square</pixelaspectratio>
            <stillframe>TRUE</stillframe>
            <anamorphic>FALSE</anamorphic>
            <alphatype>straight</alphatype>
            <masterclipid>D.png8</masterclipid>
            <file id="D">
              <name>D.png</name>
              <pathurl>D:/Codes/SynthLip/SynthLipN/bin/Debug/net6.0-windows/Skin/template/D.png</pathurl>
              <rate>
                <ntsc>FALSE</ntsc>
                <timebase>25</timebase>
              </rate>
              <duration>2</duration>
              <width>1920</width>
              <height>1080</height>
              <media>
                <video>
                  <duration>2</duration>
                  <stillframe>TRUE</stillframe>
                  <samplecharacteristics>
                    <rate>
                      <ntsc>FALSE</ntsc>
                      <timebase>25</timebase>
                    </rate>
                    <width>1920</width>
                    <height>1080</height>
                    <pixelaspectratio>Square</pixelaspectratio>
                    <anamorphic>FALSE</anamorphic>
                  </samplecharacteristics>
                </video>
              </media>
            </file>
            <sourcetrack>
              <mediatype>video</mediatype>
            </sourcetrack>
            <fielddominance>none</fielddominance>
          </clipitem>
          <clipitem id="B.png7">
            <name>B.png</name>
            <duration>2</duration>
            <rate>
              <ntsc>FALSE</ntsc>
              <timebase>25</timebase>
            </rate>
            <in>90107</in>
            <out>90109</out>
            <start>107</start>
            <end>109</end>
            <pixelaspectratio>Square</pixelaspectratio>
            <stillframe>TRUE</stillframe>
            <anamorphic>FALSE</anamorphic>
            <alphatype>straight</alphatype>
            <masterclipid>B.png7</masterclipid>
            <file id="B">
              <name>B.png</name>
              <pathurl>D:/Codes/SynthLip/SynthLipN/bin/Debug/net6.0-windows/Skin/template/B.png</pathurl>
              <rate>
                <ntsc>FALSE</ntsc>
                <timebase>25</timebase>
              </rate>
              <duration>2</duration>
              <width>1920</width>
              <height>1080</height>
              <media>
                <video>
                  <duration>2</duration>
                  <stillframe>TRUE</stillframe>
                  <samplecharacteristics>
                    <rate>
                      <ntsc>FALSE</ntsc>
                      <timebase>25</timebase>
                    </rate>
                    <width>1920</width>
                    <height>1080</height>
                    <pixelaspectratio>Square</pixelaspectratio>
                    <anamorphic>FALSE</anamorphic>
                  </samplecharacteristics>
                </video>
              </media>
            </file>
            <sourcetrack>
              <mediatype>video</mediatype>
            </sourcetrack>
            <fielddominance>none</fielddominance>
          </clipitem>
          <clipitem id="B.png6">
            <name>B.png</name>
            <duration>2</duration>
            <rate>
              <ntsc>FALSE</ntsc>
              <timebase>25</timebase>
            </rate>
            <in>90105</in>
            <out>90107</out>
            <start>105</start>
            <end>107</end>
            <pixelaspectratio>Square</pixelaspectratio>
            <stillframe>TRUE</stillframe>
            <anamorphic>FALSE</anamorphic>
            <alphatype>straight</alphatype>
            <masterclipid>B.png6</masterclipid>
            <file id="B">
              <name>B.png</name>
              <pathurl>D:/Codes/SynthLip/SynthLipN/bin/Debug/net6.0-windows/Skin/template/B.png</pathurl>
              <rate>
                <ntsc>FALSE</ntsc>
                <timebase>25</timebase>
              </rate>
              <duration>2</duration>
              <width>1920</width>
              <height>1080</height>
              <media>
                <video>
                  <duration>2</duration>
                  <stillframe>TRUE</stillframe>
                  <samplecharacteristics>
                    <rate>
                      <ntsc>FALSE</ntsc>
                      <timebase>25</timebase>
                    </rate>
                    <width>1920</width>
                    <height>1080</height>
                    <pixelaspectratio>Square</pixelaspectratio>
                    <anamorphic>FALSE</anamorphic>
                  </samplecharacteristics>
                </video>
              </media>
            </file>
            <sourcetrack>
              <mediatype>video</mediatype>
            </sourcetrack>
            <fielddominance>none</fielddominance>
          </clipitem>
          <clipitem id="D.png5">
            <name>D.png</name>
            <duration>2</duration>
            <rate>
              <ntsc>FALSE</ntsc>
              <timebase>25</timebase>
            </rate>
            <in>90102</in>
            <out>90104</out>
            <start>102</start>
            <end>104</end>
            <pixelaspectratio>Square</pixelaspectratio>
            <stillframe>TRUE</stillframe>
            <anamorphic>FALSE</anamorphic>
            <alphatype>straight</alphatype>
            <masterclipid>D.png5</masterclipid>
            <file id="D">
              <name>D.png</name>
              <pathurl>D:/Codes/SynthLip/SynthLipN/bin/Debug/net6.0-windows/Skin/template/D.png</pathurl>
              <rate>
                <ntsc>FALSE</ntsc>
                <timebase>25</timebase>
              </rate>
              <duration>2</duration>
              <width>1920</width>
              <height>1080</height>
              <media>
                <video>
                  <duration>2</duration>
                  <stillframe>TRUE</stillframe>
                  <samplecharacteristics>
                    <rate>
                      <ntsc>FALSE</ntsc>
                      <timebase>25</timebase>
                    </rate>
                    <width>1920</width>
                    <height>1080</height>
                    <pixelaspectratio>Square</pixelaspectratio>
                    <anamorphic>FALSE</anamorphic>
                  </samplecharacteristics>
                </video>
              </media>
            </file>
            <sourcetrack>
              <mediatype>video</mediatype>
            </sourcetrack>
            <fielddominance>none</fielddominance>
          </clipitem>
          <clipitem id="B.png4">
            <name>B.png</name>
            <duration>2</duration>
            <rate>
              <ntsc>FALSE</ntsc>
              <timebase>25</timebase>
            </rate>
            <in>90100</in>
            <out>90102</out>
            <start>100</start>
            <end>102</end>
            <pixelaspectratio>Square</pixelaspectratio>
            <stillframe>TRUE</stillframe>
            <anamorphic>FALSE</anamorphic>
            <alphatype>straight</alphatype>
            <masterclipid>B.png4</masterclipid>
            <file id="B">
              <name>B.png</name>
              <pathurl>D:/Codes/SynthLip/SynthLipN/bin/Debug/net6.0-windows/Skin/template/B.png</pathurl>
              <rate>
                <ntsc>FALSE</ntsc>
                <timebase>25</timebase>
              </rate>
              <duration>2</duration>
              <width>1920</width>
              <height>1080</height>
              <media>
                <video>
                  <duration>2</duration>
                  <stillframe>TRUE</stillframe>
                  <samplecharacteristics>
                    <rate>
                      <ntsc>FALSE</ntsc>
                      <timebase>25</timebase>
                    </rate>
                    <width>1920</width>
                    <height>1080</height>
                    <pixelaspectratio>Square</pixelaspectratio>
                    <anamorphic>FALSE</anamorphic>
                  </samplecharacteristics>
                </video>
              </media>
            </file>
            <sourcetrack>
              <mediatype>video</mediatype>
            </sourcetrack>
            <fielddominance>none</fielddominance>
          </clipitem>
          <clipitem id="A.png3">
            <name>A.png</name>
            <duration>2</duration>
            <rate>
              <ntsc>FALSE</ntsc>
              <timebase>25</timebase>
            </rate>
            <in>90097</in>
            <out>90099</out>
            <start>97</start>
            <end>99</end>
            <pixelaspectratio>Square</pixelaspectratio>
            <stillframe>TRUE</stillframe>
            <anamorphic>FALSE</anamorphic>
            <alphatype>straight</alphatype>
            <masterclipid>A.png3</masterclipid>
            <file id="A">
              <name>A.png</name>
              <pathurl>D:/Codes/SynthLip/SynthLipN/bin/Debug/net6.0-windows/Skin/template/A.png</pathurl>
              <rate>
                <ntsc>FALSE</ntsc>
                <timebase>25</timebase>
              </rate>
              <duration>2</duration>
              <width>1920</width>
              <height>1080</height>
              <media>
                <video>
                  <duration>2</duration>
                  <stillframe>TRUE</stillframe>
                  <samplecharacteristics>
                    <rate>
                      <ntsc>FALSE</ntsc>
                      <timebase>25</timebase>
                    </rate>
                    <width>1920</width>
                    <height>1080</height>
                    <pixelaspectratio>Square</pixelaspectratio>
                    <anamorphic>FALSE</anamorphic>
                  </samplecharacteristics>
                </video>
              </media>
            </file>
            <sourcetrack>
              <mediatype>video</mediatype>
            </sourcetrack>
            <fielddominance>none</fielddominance>
          </clipitem>
          <clipitem id="E.png2">
            <name>E.png</name>
            <duration>5</duration>
            <rate>
              <ntsc>FALSE</ntsc>
              <timebase>25</timebase>
            </rate>
            <in>90091</in>
            <out>90096</out>
            <start>91</start>
            <end>96</end>
            <pixelaspectratio>Square</pixelaspectratio>
            <stillframe>TRUE</stillframe>
            <anamorphic>FALSE</anamorphic>
            <alphatype>straight</alphatype>
            <masterclipid>E.png2</masterclipid>
            <file id="E">
              <name>E.png</name>
              <pathurl>D:/Codes/SynthLip/SynthLipN/bin/Debug/net6.0-windows/Skin/template/E.png</pathurl>
              <rate>
                <ntsc>FALSE</ntsc>
                <timebase>25</timebase>
              </rate>
              <duration>2</duration>
              <width>1920</width>
              <height>1080</height>
              <media>
                <video>
                  <duration>2</duration>
                  <stillframe>TRUE</stillframe>
                  <samplecharacteristics>
                    <rate>
                      <ntsc>FALSE</ntsc>
                      <timebase>25</timebase>
                    </rate>
                    <width>1920</width>
                    <height>1080</height>
                    <pixelaspectratio>Square</pixelaspectratio>
                    <anamorphic>FALSE</anamorphic>
                  </samplecharacteristics>
                </video>
              </media>
            </file>
            <sourcetrack>
              <mediatype>video</mediatype>
            </sourcetrack>
            <fielddominance>none</fielddominance>
          </clipitem>
          <clipitem id="A.png0">
            <name>A.png</name>
            <duration>90</duration>
            <rate>
              <ntsc>FALSE</ntsc>
              <timebase>25</timebase>
            </rate>
            <in>90000</in>
            <out>90090</out>
            <start>0</start>
            <end>90</end>
            <pixelaspectratio>Square</pixelaspectratio>
            <stillframe>TRUE</stillframe>
            <anamorphic>FALSE</anamorphic>
            <alphatype>straight</alphatype>
            <masterclipid>A.png0</masterclipid>
            <file id="A">
              <name>A.png</name>
              <pathurl>D:/Codes/SynthLip/SynthLipN/bin/Debug/net6.0-windows/Skin/template/A.png</pathurl>
              <rate>
                <ntsc>FALSE</ntsc>
                <timebase>25</timebase>
              </rate>
              <duration>2</duration>
              <width>1920</width>
              <height>1080</height>
              <media>
                <video>
                  <duration>2</duration>
                  <stillframe>TRUE</stillframe>
                  <samplecharacteristics>
                    <rate>
                      <ntsc>FALSE</ntsc>
                      <timebase>25</timebase>
                    </rate>
                    <width>1920</width>
                    <height>1080</height>
                    <pixelaspectratio>Square</pixelaspectratio>
                    <anamorphic>FALSE</anamorphic>
                  </samplecharacteristics>
                </video>
              </media>
            </file>
            <sourcetrack>
              <mediatype>video</mediatype>
            </sourcetrack>
            <fielddominance>none</fielddominance>
          </clipitem>
          <enabled>TRUE</enabled>
          <locked>FALSE</locked>
        </track>
      </video>
    </media>
    <ismasterclip>FALSE</ismasterclip>
  </sequence>
</xmeml>