<?xml version="1.0" encoding="UTF - 8"?>
<!DOCTYPE xmeml>

<xmeml version="5">
  <sequence id="序列">
    <updatebehavior>add</updatebehavior>
    <name>序列</name>
    <duration>125</duration>
    <rate>
      <ntsc>FALSE</ntsc>
      <timebase>25</timebase>
    </rate>
    <timecode>
      <rate>
        <ntsc>FALSE</ntsc>
        <timebase>25</timebase>
      </rate>
      <string>01:00:00:00</string>
      <frame>90000</frame>
      <source>source</source>
      <displayformat>NDF</displayformat>
    </timecode>
    <in>0</in>
    <out>125</out>
    <width>1920</width>
    <height>1080</height>
    <media>
      <video>
        <format>
          <samplecharacteristics>
            <rate>
              <ntsc>FALSE</ntsc>
              <timebase>25</timebase>
            </rate>
            <width>1920</width>
            <height>1080</height>
            <pixelaspectratio>Square</pixelaspectratio>
            <anamorphic>FALSE</anamorphic>
          </samplecharacteristics>
        </format>
        <track>
          <enabled>TRUE</enabled>
          <locked>FALSE</locked>
        </track>
        <track>
          <clipitem id="A.png650">
            <name>A.png</name>
            <duration>25</duration>
            <rate>
              <ntsc>FALSE</ntsc>
              <timebase>25</timebase>
            </rate>
            <in>92262</in>
            <out>92286</out>
            <start>2262</start>
            <end>2286</end>
            <pixelaspectratio>Square</pixelaspectratio>
            <stillframe>TRUE</stillframe>
            <anamorphic>FALSE</anamorphic>
            <alphatype>straight</alphatype>
            <masterclipid>A.png650</masterclipid>
            <file id="A">
              <name>A.png</name>
              <pathurl>D:/Codes/SynthLip/SynthLipN/bin/Debug/net6.0-windows/Skin/template/A.png</pathurl>
              <rate>
                <ntsc>FALSE</ntsc>
                <timebase>25</timebase>
              </rate>
              <duration>2</duration>
              <width>1920</width>
              <height>1080</height>
              <media>
                <video>
                  <duration>2</duration>
                  <stillframe>TRUE</stillframe>
                  <samplecharacteristics>
                    <rate>
                      <ntsc>FALSE</ntsc>
                      <timebase>25</timebase>
                    </rate>
                    <width>1920</width>
                    <height>1080</height>
                    <pixelaspectratio>Square</pixelaspectratio>
                    <anamorphic>FALSE</anamorphic>
                  </samplecharacteristics>
                </video>
              </media>
            </file>
            <sourcetrack>
              <mediatype>video</mediatype>
            </sourcetrack>
            <fielddominance>none</fielddominance>
          </clipitem>
          <clipitem id="F.png649">
            <name>F.png</name>
            <duration>9</duration>
            <rate>
              <ntsc>FALSE</ntsc>
              <timebase>25</timebase>
            </rate>
            <in>92252</in>
            <out>92260</out>
            <start>2252</start>
            <end>2260</end>
            <pixelaspectratio>Square</pixelaspectratio>
            <stillframe>TRUE</stillframe>
            <anamorphic>FALSE</anamorphic>
            <alphatype>straight</alphatype>
            <masterclipid>F.png649</masterclipid>
            <file id="F">
              <name>F.png</name>
              <pathurl>D:/Codes/SynthLip/SynthLipN/bin/Debug/net6.0-windows/Skin/template/F.png</pathurl>
              <rate>
                <ntsc>FALSE</ntsc>
                <timebase>25</timebase>
              </rate>
              <duration>2</duration>
              <width>1920</width>
              <height>1080</height>
              <media>
                <video>
                  <duration>2</duration>
                  <stillframe>TRUE</stillframe>
                  <samplecharacteristics>
                    <rate>
                      <ntsc>FALSE</ntsc>
                      <timebase>25</timebase>
                    </rate>
                    <width>1920</width>
                    <height>1080</height>
                    <pixelaspectratio>Square</pixelaspectratio>
                    <anamorphic>FALSE</anamorphic>
                  </samplecharacteristics>
                </video>
              </media>
            </file>
            <sourcetrack>
              <mediatype>video</mediatype>
            </sourcetrack>
            <fielddominance>none</fielddominance>
          </clipitem>
          <clipitem id="C.png646">
            <name>C.png</name>
            <duration>2</duration>
            <rate>
              <ntsc>FALSE</ntsc>
              <timebase>25</timebase>
            </rate>
            <in>92248</in>
            <out>92249</out>
            <start>2248</start>
            <end>2249</end>
            <pixelaspectratio>Square</pixelaspectratio>
            <stillframe>TRUE</stillframe>
            <anamorphic>FALSE</anamorphic>
            <alphatype>straight</alphatype>
            <masterclipid>C.png646</masterclipid>
            <file id="C">
              <name>C.png</name>
              <pathurl>D:/Codes/SynthLip/SynthLipN/bin/Debug/net6.0-windows/Skin/template/C.png</pathurl>
              <rate>
                <ntsc>FALSE</ntsc>
                <timebase>25</timebase>
              </rate>
              <duration>2</duration>
              <width>1920</width>
              <height>1080</height>
              <media>
                <video>
                  <duration>2</duration>
                  <stillframe>TRUE</stillframe>
                  <samplecharacteristics>
                    <rate>
                      <ntsc>FALSE</ntsc>
                      <timebase>25</timebase>
                    </rate>
                    <width>1920</width>
                    <height>1080</height>
                    <pixelaspectratio>Square</pixelaspectratio>
                    <anamorphic>FALSE</anamorphic>
                  </samplecharacteristics>
                </video>
              </media>
            </file>
            <sourcetrack>
              <mediatype>video</mediatype>
            </sourcetrack>
            <fielddominance>none</fielddominance>
          </clipitem>
          <clipitem id="G.png645">
            <name>G.png</name>
            <duration>2</duration>
            <rate>
              <ntsc>FALSE</ntsc>
              <timebase>25</timebase>
            </rate>
            <in>92245</in>
            <out>92246</out>
            <start>2245</start>
            <end>2246</end>
            <pixelaspectratio>Square</pixelaspectratio>
            <stillframe>TRUE</stillframe>
            <anamorphic>FALSE</anamorphic>
            <alphatype>straight</alphatype>
            <masterclipid>G.png645</masterclipid>
            <file id="G">
              <name>G.png</name>
              <pathurl>D:/Codes/SynthLip/SynthLipN/bin/Debug/net6.0-windows/Skin/template/G.png</pathurl>
              <rate>
                <ntsc>FALSE</ntsc>
                <timebase>25</timebase>
              </rate>
              <duration>2</duration>
              <width>1920</width>
              <height>1080</height>
              <media>
                <video>
                  <duration>2</duration>
                  <stillframe>TRUE</stillframe>
                  <samplecharacteristics>
                    <rate>
                      <ntsc>FALSE</ntsc>
                      <timebase>25</timebase>
                    </rate>
                    <width>1920</width>
                    <height>1080</height>
                    <pixelaspectratio>Square</pixelaspectratio>
                    <anamorphic>FALSE</anamorphic>
                  </samplecharacteristics>
                </video>
              </media>
            </file>
            <sourcetrack>
              <mediatype>video</mediatype>
            </sourcetrack>
            <fielddominance>none</fielddominance>
          </clipitem>
          <clipitem id="A.png644">
            <name>A.png</name>
            <duration>2</duration>
            <rate>
              <ntsc>FALSE</ntsc>
              <timebase>25</timebase>
            </rate>
            <in>92243</in>
            <out>92244</out>
            <start>2243</start>
            <end>2244</end>
            <pixelaspectratio>Square</pixelaspectratio>
            <stillframe>TRUE</stillframe>
            <anamorphic>FALSE</anamorphic>
            <alphatype>straight</alphatype>
            <masterclipid>A.png644</masterclipid>
            <file id="A">
              <name>A.png</name>
              <pathurl>D:/Codes/SynthLip/SynthLipN/bin/Debug/net6.0-windows/Skin/template/A.png</pathurl>
              <rate>
                <ntsc>FALSE</ntsc>
                <timebase>25</timebase>
              </rate>
              <duration>2</duration>
              <width>1920</width>
              <height>1080</height>
              <media>
                <video>
                  <duration>2</duration>
                  <stillframe>TRUE</stillframe>
                  <samplecharacteristics>
                    <rate>
                      <ntsc>FALSE</ntsc>
                      <timebase>25</timebase>
                    </rate>
                    <width>1920</width>
                    <height>1080</height>
                    <pixelaspectratio>Square</pixelaspectratio>
                    <anamorphic>FALSE</anamorphic>
                  </samplecharacteristics>
                </video>
              </media>
            </file>
            <sourcetrack>
              <mediatype>video</mediatype>
            </sourcetrack>
            <fielddominance>none</fielddominance>
          </clipitem>
          <clipitem id="A.png643">
            <name>A.png</name>
            <duration>3</duration>
            <rate>
              <ntsc>FALSE</ntsc>
              <timebase>25</timebase>
            </rate>
            <in>92239</in>
            <out>92241</out>
            <start>2239</start>
            <end>2241</end>
            <pixelaspectratio>Square</pixelaspectratio>
            <stillframe>TRUE</stillframe>
            <anamorphic>FALSE</anamorphic>
            <alphatype>straight</alphatype>
            <masterclipid>A.png643</masterclipid>
            <file id="A">
              <name>A.png</name>
              <pathurl>D:/Codes/SynthLip/SynthLipN/bin/Debug/net6.0-windows/Skin/template/A.png</pathurl>
              <rate>
                <ntsc>FALSE</ntsc>
                <timebase>25</timebase>
              </rate>
              <duration>2</duration>
              <width>1920</width>
              <height>1080</height>
              <media>
                <video>
                  <duration>2</duration>
                  <stillframe>TRUE</stillframe>
                  <samplecharacteristics>
                    <rate>
                      <ntsc>FALSE</ntsc>
                      <timebase>25</timebase>
                    </rate>
                    <width>1920</width>
                    <height>1080</height>
                    <pixelaspectratio>Square</pixelaspectratio>
                    <anamorphic>FALSE</anamorphic>
                  </samplecharacteristics>
                </video>
              </media>
            </file>
            <sourcetrack>
              <mediatype>video</mediatype>
            </sourcetrack>
            <fielddominance>none</fielddominance>
          </clipitem>
          <clipitem id="C.png638">
            <name>C.png</name>
            <duration>5</duration>
            <rate>
              <ntsc>FALSE</ntsc>
              <timebase>25</timebase>
            </rate>
            <in>92230</in>
            <out>92234</out>
            <start>2230</start>
            <end>2234</end>
            <pixelaspectratio>Square</pixelaspectratio>
            <stillframe>TRUE</stillframe>
            <anamorphic>FALSE</anamorphic>
            <alphatype>straight</alphatype>
            <masterclipid>C.png638</masterclipid>
            <file id="C">
              <name>C.png</name>
              <pathurl>D:/Codes/SynthLip/SynthLipN/bin/Debug/net6.0-windows/Skin/template/C.png</pathurl>
              <rate>
                <ntsc>FALSE</ntsc>
                <timebase>25</timebase>
              </rate>
              <duration>2</duration>
              <width>1920</width>
              <height>1080</height>
              <media>
                <video>
                  <duration>2</duration>
                  <stillframe>TRUE</stillframe>
                  <samplecharacteristics>
                    <rate>
                      <ntsc>FALSE</ntsc>
                      <timebase>25</timebase>
                    </rate>
                    <width>1920</width>
                    <height>1080</height>
                    <pixelaspectratio>Square</pixelaspectratio>
                    <anamorphic>FALSE</anamorphic>
                  </samplecharacteristics>
                </video>
              </media>
            </file>
            <sourcetrack>
              <mediatype>video</mediatype>
            </sourcetrack>
            <fielddominance>none</fielddominance>
          </clipitem>
          <clipitem id="A.png636">
            <name>A.png</name>
            <duration>8</duration>
            <rate>
              <ntsc>FALSE</ntsc>
              <timebase>25</timebase>
            </rate>
            <in>92220</in>
            <out>92227</out>
            <start>2220</start>
            <end>2227</end>
            <pixelaspectratio>Square</pixelaspectratio>
            <stillframe>TRUE</stillframe>
            <anamorphic>FALSE</anamorphic>
            <alphatype>straight</alphatype>
            <masterclipid>A.png636</masterclipid>
            <file id="A">
              <name>A.png</name>
              <pathurl>D:/Codes/SynthLip/SynthLipN/bin/Debug/net6.0-windows/Skin/template/A.png</pathurl>
              <rate>
                <ntsc>FALSE</ntsc>
                <timebase>25</timebase>
              </rate>
              <duration>2</duration>
              <width>1920</width>
              <height>1080</height>
              <media>
                <video>
                  <duration>2</duration>
                  <stillframe>TRUE</stillframe>
                  <samplecharacteristics>
                    <rate>
                      <ntsc>FALSE</ntsc>
                      <timebase>25</timebase>
                    </rate>
                    <width>1920</width>
                    <height>1080</height>
                    <pixelaspectratio>Square</pixelaspectratio>
                    <anamorphic>FALSE</anamorphic>
                  </samplecharacteristics>
                </video>
              </media>
            </file>
            <sourcetrack>
              <mediatype>video</mediatype>
            </sourcetrack>
            <fielddominance>none</fielddominance>
          </clipitem>
          <clipitem id="A.png635">
            <name>A.png</name>
            <duration>30</duration>
            <rate>
              <ntsc>FALSE</ntsc>
              <timebase>25</timebase>
            </rate>
            <in>92190</in>
            <out>92219</out>
            <start>2190</start>
            <end>2219</end>
            <pixelaspectratio>Square</pixelaspectratio>
            <stillframe>TRUE</stillframe>
            <anamorphic>FALSE</anamorphic>
            <alphatype>straight</alphatype>
            <masterclipid>A.png635</masterclipid>
            <file id="A">
              <name>A.png</name>
              <pathurl>D:/Codes/SynthLip/SynthLipN/bin/Debug/net6.0-windows/Skin/template/A.png</pathurl>
              <rate>
                <ntsc>FALSE</ntsc>
                <timebase>25</timebase>
              </rate>
              <duration>2</duration>
              <width>1920</width>
              <height>1080</height>
              <media>
                <video>
                  <duration>2</duration>
                  <stillframe>TRUE</stillframe>
                  <samplecharacteristics>
                    <rate>
                      <ntsc>FALSE</ntsc>
                      <timebase>25</timebase>
                    </rate>
                    <width>1920</width>
                    <height>1080</height>
                    <pixelaspectratio>Square</pixelaspectratio>
                    <anamorphic>FALSE</anamorphic>
                  </samplecharacteristics>
                </video>
              </media>
            </file>
            <sourcetrack>
              <mediatype>video</mediatype>
            </sourcetrack>
            <fielddominance>none</fielddominance>
          </clipitem>
          <clipitem id="A.png634">
            <name>A.png</name>
            <duration>29</duration>
            <rate>
              <ntsc>FALSE</ntsc>
              <timebase>25</timebase>
            </rate>
            <in>92160</in>
            <out>92188</out>
            <start>2160</start>
            <end>2188</end>
            <pixelaspectratio>Square</pixelaspectratio>
            <stillframe>TRUE</stillframe>
            <anamorphic>FALSE</anamorphic>
            <alphatype>straight</alphatype>
            <masterclipid>A.png634</masterclipid>
            <file id="A">
              <name>A.png</name>
              <pathurl>D:/Codes/SynthLip/SynthLipN/bin/Debug/net6.0-windows/Skin/template/A.png</pathurl>
              <rate>
                <ntsc>FALSE</ntsc>
                <timebase>25</timebase>
              </rate>
              <duration>2</duration>
              <width>1920</width>
              <height>1080</height>
              <media>
                <video>
                  <duration>2</duration>
                  <stillframe>TRUE</stillframe>
                  <samplecharacteristics>
                    <rate>
                      <ntsc>FALSE</ntsc>
                      <timebase>25</timebase>
                    </rate>
                    <width>1920</width>
                    <height>1080</height>
                    <pixelaspectratio>Square</pixelaspectratio>
                    <anamorphic>FALSE</anamorphic>
                  </samplecharacteristics>
                </video>
              </media>
            </file>
            <sourcetrack>
              <mediatype>video</mediatype>
            </sourcetrack>
            <fielddominance>none</fielddominance>
          </clipitem>
          <clipitem id="F.png633">
            <name>F.png</name>
            <duration>28</duration>
            <rate>
              <ntsc>FALSE</ntsc>
              <timebase>25</timebase>
            </rate>
            <in>92132</in>
            <out>92159</out>
            <start>2132</start>
            <end>2159</end>
            <pixelaspectratio>Square</pixelaspectratio>
            <stillframe>TRUE</stillframe>
            <anamorphic>FALSE</anamorphic>
            <alphatype>straight</alphatype>
            <masterclipid>F.png633</masterclipid>
            <file id="F">
              <name>F.png</name>
              <pathurl>D:/Codes/SynthLip/SynthLipN/bin/Debug/net6.0-windows/Skin/template/F.png</pathurl>
              <rate>
                <ntsc>FALSE</ntsc>
                <timebase>25</timebase>
              </rate>
              <duration>2</duration>
              <width>1920</width>
              <height>1080</height>
              <media>
                <video>
                  <duration>2</duration>
                  <stillframe>TRUE</stillframe>
                  <samplecharacteristics>
                    <rate>
                      <ntsc>FALSE</ntsc>
                      <timebase>25</timebase>
                    </rate>
                    <width>1920</width>
                    <height>1080</height>
                    <pixelaspectratio>Square</pixelaspectratio>
                    <anamorphic>FALSE</anamorphic>
                  </samplecharacteristics>
                </video>
              </media>
            </file>
            <sourcetrack>
              <mediatype>video</mediatype>
            </sourcetrack>
            <fielddominance>none</fielddominance>
          </clipitem>
          <clipitem id="C.png630">
            <name>C.png</name>
            <duration>2</duration>
            <rate>
              <ntsc>FALSE</ntsc>
              <timebase>25</timebase>
            </rate>
            <in>92128</in>
            <out>92129</out>
            <start>2128</start>
            <end>2129</end>
            <pixelaspectratio>Square</pixelaspectratio>
            <stillframe>TRUE</stillframe>
            <anamorphic>FALSE</anamorphic>
            <alphatype>straight</alphatype>
            <masterclipid>C.png630</masterclipid>
            <file id="C">
              <name>C.png</name>
              <pathurl>D:/Codes/SynthLip/SynthLipN/bin/Debug/net6.0-windows/Skin/template/C.png</pathurl>
              <rate>
                <ntsc>FALSE</ntsc>
                <timebase>25</timebase>
              </rate>
              <duration>2</duration>
              <width>1920</width>
              <height>1080</height>
              <media>
                <video>
                  <duration>2</duration>
                  <stillframe>TRUE</stillframe>
                  <samplecharacteristics>
                    <rate>
                      <ntsc>FALSE</ntsc>
                      <timebase>25</timebase>
                    </rate>
                    <width>1920</width>
                    <height>1080</height>
                    <pixelaspectratio>Square</pixelaspectratio>
                    <anamorphic>FALSE</anamorphic>
                  </samplecharacteristics>
                </video>
              </media>
            </file>
            <sourcetrack>
              <mediatype>video</mediatype>
            </sourcetrack>
            <fielddominance>none</fielddominance>
          </clipitem>
          <clipitem id="G.png629">
            <name>G.png</name>
            <duration>2</duration>
            <rate>
              <ntsc>FALSE</ntsc>
              <timebase>25</timebase>
            </rate>
            <in>92125</in>
            <out>92126</out>
            <start>2125</start>
            <end>2126</end>
            <pixelaspectratio>Square</pixelaspectratio>
            <stillframe>TRUE</stillframe>
            <anamorphic>FALSE</anamorphic>
            <alphatype>straight</alphatype>
            <masterclipid>G.png629</masterclipid>
            <file id="G">
              <name>G.png</name>
              <pathurl>D:/Codes/SynthLip/SynthLipN/bin/Debug/net6.0-windows/Skin/template/G.png</pathurl>
              <rate>
                <ntsc>FALSE</ntsc>
                <timebase>25</timebase>
              </rate>
              <duration>2</duration>
              <width>1920</width>
              <height>1080</height>
              <media>
                <video>
                  <duration>2</duration>
                  <stillframe>TRUE</stillframe>
                  <samplecharacteristics>
                    <rate>
                      <ntsc>FALSE</ntsc>
                      <timebase>25</timebase>
                    </rate>
                    <width>1920</width>
                    <height>1080</height>
                    <pixelaspectratio>Square</pixelaspectratio>
                    <anamorphic>FALSE</anamorphic>
                  </samplecharacteristics>
                </video>
              </media>
            </file>
            <sourcetrack>
              <mediatype>video</mediatype>
            </sourcetrack>
            <fielddominance>none</fielddominance>
          </clipitem>
          <clipitem id="A.png628">
            <name>A.png</name>
            <duration>2</duration>
            <rate>
              <ntsc>FALSE</ntsc>
              <timebase>25</timebase>
            </rate>
            <in>92123</in>
            <out>92124</out>
            <start>2123</start>
            <end>2124</end>
            <pixelaspectratio>Square</pixelaspectratio>
            <stillframe>TRUE</stillframe>
            <anamorphic>FALSE</anamorphic>
            <alphatype>straight</alphatype>
            <masterclipid>A.png628</masterclipid>
            <file id="A">
              <name>A.png</name>
              <pathurl>D:/Codes/SynthLip/SynthLipN/bin/Debug/net6.0-windows/Skin/template/A.png</pathurl>
              <rate>
                <ntsc>FALSE</ntsc>
                <timebase>25</timebase>
              </rate>
              <duration>2</duration>
              <width>1920</width>
              <height>1080</height>
              <media>
                <video>
                  <duration>2</duration>
                  <stillframe>TRUE</stillframe>
                  <samplecharacteristics>
                    <rate>
                      <ntsc>FALSE</ntsc>
                      <timebase>25</timebase>
                    </rate>
                    <width>1920</width>
                    <height>1080</height>
                    <pixelaspectratio>Square</pixelaspectratio>
                    <anamorphic>FALSE</anamorphic>
                  </samplecharacteristics>
                </video>
              </media>
            </file>
            <sourcetrack>
              <mediatype>video</mediatype>
            </sourcetrack>
            <fielddominance>none</fielddominance>
          </clipitem>
          <clipitem id="A.png627">
            <name>A.png</name>
            <duration>5</duration>
            <rate>
              <ntsc>FALSE</ntsc>
              <timebase>25</timebase>
            </rate>
            <in>92117</in>
            <out>92121</out>
            <start>2117</start>
            <end>2121</end>
            <pixelaspectratio>Square</pixelaspectratio>
            <stillframe>TRUE</stillframe>
            <anamorphic>FALSE</anamorphic>
            <alphatype>straight</alphatype>
            <masterclipid>A.png627</masterclipid>
            <file id="A">
              <name>A.png</name>
              <pathurl>D:/Codes/SynthLip/SynthLipN/bin/Debug/net6.0-windows/Skin/template/A.png</pathurl>
              <rate>
                <ntsc>FALSE</ntsc>
                <timebase>25</timebase>
              </rate>
              <duration>2</duration>
              <width>1920</width>
              <height>1080</height>
              <media>
                <video>
                  <duration>2</duration>
                  <stillframe>TRUE</stillframe>
                  <samplecharacteristics>
                    <rate>
                      <ntsc>FALSE</ntsc>
                      <timebase>25</timebase>
                    </rate>
                    <width>1920</width>
                    <height>1080</height>
                    <pixelaspectratio>Square</pixelaspectratio>
                    <anamorphic>FALSE</anamorphic>
                  </samplecharacteristics>
                </video>
              </media>
            </file>
            <sourcetrack>
              <mediatype>video</mediatype>
            </sourcetrack>
            <fielddominance>none</fielddominance>
          </clipitem>
          <clipitem id="C.png623">
            <name>C.png</name>
            <duration>3</duration>
            <rate>
              <ntsc>FALSE</ntsc>
              <timebase>25</timebase>
            </rate>
            <in>92112</in>
            <out>92114</out>
            <start>2112</start>
            <end>2114</end>
            <pixelaspectratio>Square</pixelaspectratio>
            <stillframe>TRUE</stillframe>
            <anamorphic>FALSE</anamorphic>
            <alphatype>straight</alphatype>
            <masterclipid>C.png623</masterclipid>
            <file id="C">
              <name>C.png</name>
              <pathurl>D:/Codes/SynthLip/SynthLipN/bin/Debug/net6.0-windows/Skin/template/C.png</pathurl>
              <rate>
                <ntsc>FALSE</ntsc>
                <timebase>25</timebase>
              </rate>
              <duration>2</duration>
              <width>1920</width>
              <height>1080</height>
              <media>
                <video>
                  <duration>2</duration>
                  <stillframe>TRUE</stillframe>
                  <samplecharacteristics>
                    <rate>
                      <ntsc>FALSE</ntsc>
                      <timebase>25</timebase>
                    </rate>
                    <width>1920</width>
                    <height>1080</height>
                    <pixelaspectratio>Square</pixelaspectratio>
                    <anamorphic>FALSE</anamorphic>
                  </samplecharacteristics>
                </video>
              </media>
            </file>
            <sourcetrack>
              <mediatype>video</mediatype>
            </sourcetrack>
            <fielddominance>none</fielddominance>
          </clipitem>
          <clipitem id="A.png622">
            <name>A.png</name>
            <duration>11</duration>
            <rate>
              <ntsc>FALSE</ntsc>
              <timebase>25</timebase>
            </rate>
            <in>92100</in>
            <out>92110</out>
            <start>2100</start>
            <end>2110</end>
            <pixelaspectratio>Square</pixelaspectratio>
            <stillframe>TRUE</stillframe>
            <anamorphic>FALSE</anamorphic>
            <alphatype>straight</alphatype>
            <masterclipid>A.png622</masterclipid>
            <file id="A">
              <name>A.png</name>
              <pathurl>D:/Codes/SynthLip/SynthLipN/bin/Debug/net6.0-windows/Skin/template/A.png</pathurl>
              <rate>
                <ntsc>FALSE</ntsc>
                <timebase>25</timebase>
              </rate>
              <duration>2</duration>
              <width>1920</width>
              <height>1080</height>
              <media>
                <video>
                  <duration>2</duration>
                  <stillframe>TRUE</stillframe>
                  <samplecharacteristics>
                    <rate>
                      <ntsc>FALSE</ntsc>
                      <timebase>25</timebase>
                    </rate>
                    <width>1920</width>
                    <height>1080</height>
                    <pixelaspectratio>Square</pixelaspectratio>
                    <anamorphic>FALSE</anamorphic>
                  </samplecharacteristics>
                </video>
              </media>
            </file>
            <sourcetrack>
              <mediatype>video</mediatype>
            </sourcetrack>
            <fielddominance>none</fielddominance>
          </clipitem>
          <clipitem id="A.png621">
            <name>A.png</name>
            <duration>30</duration>
            <rate>
              <ntsc>FALSE</ntsc>
              <timebase>25</timebase>
            </rate>
            <in>92070</in>
            <out>92099</out>
            <start>2070</start>
            <end>2099</end>
            <pixelaspectratio>Square</pixelaspectratio>
            <stillframe>TRUE</stillframe>
            <anamorphic>FALSE</anamorphic>
            <alphatype>straight</alphatype>
            <masterclipid>A.png621</masterclipid>
            <file id="A">
              <name>A.png</name>
              <pathurl>D:/Codes/SynthLip/SynthLipN/bin/Debug/net6.0-windows/Skin/template/A.png</pathurl>
              <rate>
                <ntsc>FALSE</ntsc>
                <timebase>25</timebase>
              </rate>
              <duration>2</duration>
              <width>1920</width>
              <height>1080</height>
              <media>
                <video>
                  <duration>2</duration>
                  <stillframe>TRUE</stillframe>
                  <samplecharacteristics>
                    <rate>
                      <ntsc>FALSE</ntsc>
                      <timebase>25</timebase>
                    </rate>
                    <width>1920</width>
                    <height>1080</height>
                    <pixelaspectratio>Square</pixelaspectratio>
                    <anamorphic>FALSE</anamorphic>
                  </samplecharacteristics>
                </video>
              </media>
            </file>
            <sourcetrack>
              <mediatype>video</mediatype>
            </sourcetrack>
            <fielddominance>none</fielddominance>
          </clipitem>
          <clipitem id="A.png620">
            <name>A.png</name>
            <duration>3</duration>
            <rate>
              <ntsc>FALSE</ntsc>
              <timebase>25</timebase>
            </rate>
            <in>92067</in>
            <out>92069</out>
            <start>2067</start>
            <end>2069</end>
            <pixelaspectratio>Square</pixelaspectratio>
            <stillframe>TRUE</stillframe>
            <anamorphic>FALSE</anamorphic>
            <alphatype>straight</alphatype>
            <masterclipid>A.png620</masterclipid>
            <file id="A">
              <name>A.png</name>
              <pathurl>D:/Codes/SynthLip/SynthLipN/bin/Debug/net6.0-windows/Skin/template/A.png</pathurl>
              <rate>
                <ntsc>FALSE</ntsc>
                <timebase>25</timebase>
              </rate>
              <duration>2</duration>
              <width>1920</width>
              <height>1080</height>
              <media>
                <video>
                  <duration>2</duration>
                  <stillframe>TRUE</stillframe>
                  <samplecharacteristics>
                    <rate>
                      <ntsc>FALSE</ntsc>
                      <timebase>25</timebase>
                    </rate>
                    <width>1920</width>
                    <height>1080</height>
                    <pixelaspectratio>Square</pixelaspectratio>
                    <anamorphic>FALSE</anamorphic>
                  </samplecharacteristics>
                </video>
              </media>
            </file>
            <sourcetrack>
              <mediatype>video</mediatype>
            </sourcetrack>
            <fielddominance>none</fielddominance>
          </clipitem>
          <clipitem id="A.png619">
            <name>A.png</name>
            <duration>3</duration>
            <rate>
              <ntsc>FALSE</ntsc>
              <timebase>25</timebase>
            </rate>
            <in>92063</in>
            <out>92065</out>
            <start>2063</start>
            <end>2065</end>
            <pixelaspectratio>Square</pixelaspectratio>
            <stillframe>TRUE</stillframe>
            <anamorphic>FALSE</anamorphic>
            <alphatype>straight</alphatype>
            <masterclipid>A.png619</masterclipid>
            <file id="A">
              <name>A.png</name>
              <pathurl>D:/Codes/SynthLip/SynthLipN/bin/Debug/net6.0-windows/Skin/template/A.png</pathurl>
              <rate>
                <ntsc>FALSE</ntsc>
                <timebase>25</timebase>
              </rate>
              <duration>2</duration>
              <width>1920</width>
              <height>1080</height>
              <media>
                <video>
                  <duration>2</duration>
                  <stillframe>TRUE</stillframe>
                  <samplecharacteristics>
                    <rate>
                      <ntsc>FALSE</ntsc>
                      <timebase>25</timebase>
                    </rate>
                    <width>1920</width>
                    <height>1080</height>
                    <pixelaspectratio>Square</pixelaspectratio>
                    <anamorphic>FALSE</anamorphic>
                  </samplecharacteristics>
                </video>
              </media>
            </file>
            <sourcetrack>
              <mediatype>video</mediatype>
            </sourcetrack>
            <fielddominance>none</fielddominance>
          </clipitem>
          <clipitem id="A.png618">
            <name>A.png</name>
            <duration>22</duration>
            <rate>
              <ntsc>FALSE</ntsc>
              <timebase>25</timebase>
            </rate>
            <in>92040</in>
            <out>92061</out>
            <start>2040</start>
            <end>2061</end>
            <pixelaspectratio>Square</pixelaspectratio>
            <stillframe>TRUE</stillframe>
            <anamorphic>FALSE</anamorphic>
            <alphatype>straight</alphatype>
            <masterclipid>A.png618</masterclipid>
            <file id="A">
              <name>A.png</name>
              <pathurl>D:/Codes/SynthLip/SynthLipN/bin/Debug/net6.0-windows/Skin/template/A.png</pathurl>
              <rate>
                <ntsc>FALSE</ntsc>
                <timebase>25</timebase>
              </rate>
              <duration>2</duration>
              <width>1920</width>
              <height>1080</height>
              <media>
                <video>
                  <duration>2</duration>
                  <stillframe>TRUE</stillframe>
                  <samplecharacteristics>
                    <rate>
                      <ntsc>FALSE</ntsc>
                      <timebase>25</timebase>
                    </rate>
                    <width>1920</width>
                    <height>1080</height>
                    <pixelaspectratio>Square</pixelaspectratio>
                    <anamorphic>FALSE</anamorphic>
                  </samplecharacteristics>
                </video>
              </media>
            </file>
            <sourcetrack>
              <mediatype>video</mediatype>
            </sourcetrack>
            <fielddominance>none</fielddominance>
          </clipitem>
          <clipitem id="F.png617">
            <name>F.png</name>
            <duration>28</duration>
            <rate>
              <ntsc>FALSE</ntsc>
              <timebase>25</timebase>
            </rate>
            <in>92012</in>
            <out>92039</out>
            <start>2012</start>
            <end>2039</end>
            <pixelaspectratio>Square</pixelaspectratio>
            <stillframe>TRUE</stillframe>
            <anamorphic>FALSE</anamorphic>
            <alphatype>straight</alphatype>
            <masterclipid>F.png617</masterclipid>
            <file id="F">
              <name>F.png</name>
              <pathurl>D:/Codes/SynthLip/SynthLipN/bin/Debug/net6.0-windows/Skin/template/F.png</pathurl>
              <rate>
                <ntsc>FALSE</ntsc>
                <timebase>25</timebase>
              </rate>
              <duration>2</duration>
              <width>1920</width>
              <height>1080</height>
              <media>
                <video>
                  <duration>2</duration>
                  <stillframe>TRUE</stillframe>
                  <samplecharacteristics>
                    <rate>
                      <ntsc>FALSE</ntsc>
                      <timebase>25</timebase>
                    </rate>
                    <width>1920</width>
                    <height>1080</height>
                    <pixelaspectratio>Square</pixelaspectratio>
                    <anamorphic>FALSE</anamorphic>
                  </samplecharacteristics>
                </video>
              </media>
            </file>
            <sourcetrack>
              <mediatype>video</mediatype>
            </sourcetrack>
            <fielddominance>none</fielddominance>
          </clipitem>
          <clipitem id="C.png614">
            <name>C.png</name>
            <duration>2</duration>
            <rate>
              <ntsc>FALSE</ntsc>
              <timebase>25</timebase>
            </rate>
            <in>92008</in>
            <out>92009</out>
            <start>2008</start>
            <end>2009</end>
            <pixelaspectratio>Square</pixelaspectratio>
            <stillframe>TRUE</stillframe>
            <anamorphic>FALSE</anamorphic>
            <alphatype>straight</alphatype>
            <masterclipid>C.png614</masterclipid>
            <file id="C">
              <name>C.png</name>
              <pathurl>D:/Codes/SynthLip/SynthLipN/bin/Debug/net6.0-windows/Skin/template/C.png</pathurl>
              <rate>
                <ntsc>FALSE</ntsc>
                <timebase>25</timebase>
              </rate>
              <duration>2</duration>
              <width>1920</width>
              <height>1080</height>
              <media>
                <video>
                  <duration>2</duration>
                  <stillframe>TRUE</stillframe>
                  <samplecharacteristics>
                    <rate>
                      <ntsc>FALSE</ntsc>
                      <timebase>25</timebase>
                    </rate>
                    <width>1920</width>
                    <height>1080</height>
                    <pixelaspectratio>Square</pixelaspectratio>
                    <anamorphic>FALSE</anamorphic>
                  </samplecharacteristics>
                </video>
              </media>
            </file>
            <sourcetrack>
              <mediatype>video</mediatype>
            </sourcetrack>
            <fielddominance>none</fielddominance>
          </clipitem>
          <clipitem id="G.png613">
            <name>G.png</name>
            <duration>2</duration>
            <rate>
              <ntsc>FALSE</ntsc>
              <timebase>25</timebase>
            </rate>
            <in>92005</in>
            <out>92006</out>
            <start>2005</start>
            <end>2006</end>
            <pixelaspectratio>Square</pixelaspectratio>
            <stillframe>TRUE</stillframe>
            <anamorphic>FALSE</anamorphic>
            <alphatype>straight</alphatype>
            <masterclipid>G.png613</masterclipid>
            <file id="G">
              <name>G.png</name>
              <pathurl>D:/Codes/SynthLip/SynthLipN/bin/Debug/net6.0-windows/Skin/template/G.png</pathurl>
              <rate>
                <ntsc>FALSE</ntsc>
                <timebase>25</timebase>
              </rate>
              <duration>2</duration>
              <width>1920</width>
              <height>1080</height>
              <media>
                <video>
                  <duration>2</duration>
                  <stillframe>TRUE</stillframe>
                  <samplecharacteristics>
                    <rate>
                      <ntsc>FALSE</ntsc>
                      <timebase>25</timebase>
                    </rate>
                    <width>1920</width>
                    <height>1080</height>
                    <pixelaspectratio>Square</pixelaspectratio>
                    <anamorphic>FALSE</anamorphic>
                  </samplecharacteristics>
                </video>
              </media>
            </file>
            <sourcetrack>
              <mediatype>video</mediatype>
            </sourcetrack>
            <fielddominance>none</fielddominance>
          </clipitem>
          <clipitem id="A.png612">
            <name>A.png</name>
            <duration>2</duration>
            <rate>
              <ntsc>FALSE</ntsc>
              <timebase>25</timebase>
            </rate>
            <in>92003</in>
            <out>92004</out>
            <start>2003</start>
            <end>2004</end>
            <pixelaspectratio>Square</pixelaspectratio>
            <stillframe>TRUE</stillframe>
            <anamorphic>FALSE</anamorphic>
            <alphatype>straight</alphatype>
            <masterclipid>A.png612</masterclipid>
            <file id="A">
              <name>A.png</name>
              <pathurl>D:/Codes/SynthLip/SynthLipN/bin/Debug/net6.0-windows/Skin/template/A.png</pathurl>
              <rate>
                <ntsc>FALSE</ntsc>
                <timebase>25</timebase>
              </rate>
              <duration>2</duration>
              <width>1920</width>
              <height>1080</height>
              <media>
                <video>
                  <duration>2</duration>
                  <stillframe>TRUE</stillframe>
                  <samplecharacteristics>
                    <rate>
                      <ntsc>FALSE</ntsc>
                      <timebase>25</timebase>
                    </rate>
                    <width>1920</width>
                    <height>1080</height>
                    <pixelaspectratio>Square</pixelaspectratio>
                    <anamorphic>FALSE</anamorphic>
                  </samplecharacteristics>
                </video>
              </media>
            </file>
            <sourcetrack>
              <mediatype>video</mediatype>
            </sourcetrack>
            <fielddominance>none</fielddominance>
          </clipitem>
          <clipitem id="A.png611">
            <name>A.png</name>
            <duration>5</duration>
            <rate>
              <ntsc>FALSE</ntsc>
              <timebase>25</timebase>
            </rate>
            <in>91997</in>
            <out>92001</out>
            <start>1997</start>
            <end>2001</end>
            <pixelaspectratio>Square</pixelaspectratio>
            <stillframe>TRUE</stillframe>
            <anamorphic>FALSE</anamorphic>
            <alphatype>straight</alphatype>
            <masterclipid>A.png611</masterclipid>
            <file id="A">
              <name>A.png</name>
              <pathurl>D:/Codes/SynthLip/SynthLipN/bin/Debug/net6.0-windows/Skin/template/A.png</pathurl>
              <rate>
                <ntsc>FALSE</ntsc>
                <timebase>25</timebase>
              </rate>
              <duration>2</duration>
              <width>1920</width>
              <height>1080</height>
              <media>
                <video>
                  <duration>2</duration>
                  <stillframe>TRUE</stillframe>
                  <samplecharacteristics>
                    <rate>
                      <ntsc>FALSE</ntsc>
                      <timebase>25</timebase>
                    </rate>
                    <width>1920</width>
                    <height>1080</height>
                    <pixelaspectratio>Square</pixelaspectratio>
                    <anamorphic>FALSE</anamorphic>
                  </samplecharacteristics>
                </video>
              </media>
            </file>
            <sourcetrack>
              <mediatype>video</mediatype>
            </sourcetrack>
            <fielddominance>none</fielddominance>
          </clipitem>
          <clipitem id="C.png607">
            <name>C.png</name>
            <duration>3</duration>
            <rate>
              <ntsc>FALSE</ntsc>
              <timebase>25</timebase>
            </rate>
            <in>91992</in>
            <out>91994</out>
            <start>1992</start>
            <end>1994</end>
            <pixelaspectratio>Square</pixelaspectratio>
            <stillframe>TRUE</stillframe>
            <anamorphic>FALSE</anamorphic>
            <alphatype>straight</alphatype>
            <masterclipid>C.png607</masterclipid>
            <file id="C">
              <name>C.png</name>
              <pathurl>D:/Codes/SynthLip/SynthLipN/bin/Debug/net6.0-windows/Skin/template/C.png</pathurl>
              <rate>
                <ntsc>FALSE</ntsc>
                <timebase>25</timebase>
              </rate>
              <duration>2</duration>
              <width>1920</width>
              <height>1080</height>
              <media>
                <video>
                  <duration>2</duration>
                  <stillframe>TRUE</stillframe>
                  <samplecharacteristics>
                    <rate>
                      <ntsc>FALSE</ntsc>
                      <timebase>25</timebase>
                    </rate>
                    <width>1920</width>
                    <height>1080</height>
                    <pixelaspectratio>Square</pixelaspectratio>
                    <anamorphic>FALSE</anamorphic>
                  </samplecharacteristics>
                </video>
              </media>
            </file>
            <sourcetrack>
              <mediatype>video</mediatype>
            </sourcetrack>
            <fielddominance>none</fielddominance>
          </clipitem>
          <clipitem id="B.png606">
            <name>B.png</name>
            <duration>3</duration>
            <rate>
              <ntsc>FALSE</ntsc>
              <timebase>25</timebase>
            </rate>
            <in>91988</in>
            <out>91990</out>
            <start>1988</start>
            <end>1990</end>
            <pixelaspectratio>Square</pixelaspectratio>
            <stillframe>TRUE</stillframe>
            <anamorphic>FALSE</anamorphic>
            <alphatype>straight</alphatype>
            <masterclipid>B.png606</masterclipid>
            <file id="B">
              <name>B.png</name>
              <pathurl>D:/Codes/SynthLip/SynthLipN/bin/Debug/net6.0-windows/Skin/template/B.png</pathurl>
              <rate>
                <ntsc>FALSE</ntsc>
                <timebase>25</timebase>
              </rate>
              <duration>2</duration>
              <width>1920</width>
              <height>1080</height>
              <media>
                <video>
                  <duration>2</duration>
                  <stillframe>TRUE</stillframe>
                  <samplecharacteristics>
                    <rate>
                      <ntsc>FALSE</ntsc>
                      <timebase>25</timebase>
                    </rate>
                    <width>1920</width>
                    <height>1080</height>
                    <pixelaspectratio>Square</pixelaspectratio>
                    <anamorphic>FALSE</anamorphic>
                  </samplecharacteristics>
                </video>
              </media>
            </file>
            <sourcetrack>
              <mediatype>video</mediatype>
            </sourcetrack>
            <fielddominance>none</fielddominance>
          </clipitem>
          <clipitem id="C.png605">
            <name>C.png</name>
            <duration>2</duration>
            <rate>
              <ntsc>FALSE</ntsc>
              <timebase>25</timebase>
            </rate>
            <in>91986</in>
            <out>91987</out>
            <start>1986</start>
            <end>1987</end>
            <pixelaspectratio>Square</pixelaspectratio>
            <stillframe>TRUE</stillframe>
            <anamorphic>FALSE</anamorphic>
            <alphatype>straight</alphatype>
            <masterclipid>C.png605</masterclipid>
            <file id="C">
              <name>C.png</name>
              <pathurl>D:/Codes/SynthLip/SynthLipN/bin/Debug/net6.0-windows/Skin/template/C.png</pathurl>
              <rate>
                <ntsc>FALSE</ntsc>
                <timebase>25</timebase>
              </rate>
              <duration>2</duration>
              <width>1920</width>
              <height>1080</height>
              <media>
                <video>
                  <duration>2</duration>
                  <stillframe>TRUE</stillframe>
                  <samplecharacteristics>
                    <rate>
                      <ntsc>FALSE</ntsc>
                      <timebase>25</timebase>
                    </rate>
                    <width>1920</width>
                    <height>1080</height>
                    <pixelaspectratio>Square</pixelaspectratio>
                    <anamorphic>FALSE</anamorphic>
                  </samplecharacteristics>
                </video>
              </media>
            </file>
            <sourcetrack>
              <mediatype>video</mediatype>
            </sourcetrack>
            <fielddominance>none</fielddominance>
          </clipitem>
          <clipitem id="B.png604">
            <name>B.png</name>
            <duration>2</duration>
            <rate>
              <ntsc>FALSE</ntsc>
              <timebase>25</timebase>
            </rate>
            <in>91983</in>
            <out>91984</out>
            <start>1983</start>
            <end>1984</end>
            <pixelaspectratio>Square</pixelaspectratio>
            <stillframe>TRUE</stillframe>
            <anamorphic>FALSE</anamorphic>
            <alphatype>straight</alphatype>
            <masterclipid>B.png604</masterclipid>
            <file id="B">
              <name>B.png</name>
              <pathurl>D:/Codes/SynthLip/SynthLipN/bin/Debug/net6.0-windows/Skin/template/B.png</pathurl>
              <rate>
                <ntsc>FALSE</ntsc>
                <timebase>25</timebase>
              </rate>
              <duration>2</duration>
              <width>1920</width>
              <height>1080</height>
              <media>
                <video>
                  <duration>2</duration>
                  <stillframe>TRUE</stillframe>
                  <samplecharacteristics>
                    <rate>
                      <ntsc>FALSE</ntsc>
                      <timebase>25</timebase>
                    </rate>
                    <width>1920</width>
                    <height>1080</height>
                    <pixelaspectratio>Square</pixelaspectratio>
                    <anamorphic>FALSE</anamorphic>
                  </samplecharacteristics>
                </video>
              </media>
            </file>
            <sourcetrack>
              <mediatype>video</mediatype>
            </sourcetrack>
            <fielddominance>none</fielddominance>
          </clipitem>
          <clipitem id="D.png603">
            <name>D.png</name>
            <duration>2</duration>
            <rate>
              <ntsc>FALSE</ntsc>
              <timebase>25</timebase>
            </rate>
            <in>91980</in>
            <out>91981</out>
            <start>1980</start>
            <end>1981</end>
            <pixelaspectratio>Square</pixelaspectratio>
            <stillframe>TRUE</stillframe>
            <anamorphic>FALSE</anamorphic>
            <alphatype>straight</alphatype>
            <masterclipid>D.png603</masterclipid>
            <file id="D">
              <name>D.png</name>
              <pathurl>D:/Codes/SynthLip/SynthLipN/bin/Debug/net6.0-windows/Skin/template/D.png</pathurl>
              <rate>
                <ntsc>FALSE</ntsc>
                <timebase>25</timebase>
              </rate>
              <duration>2</duration>
              <width>1920</width>
              <height>1080</height>
              <media>
                <video>
                  <duration>2</duration>
                  <stillframe>TRUE</stillframe>
                  <samplecharacteristics>
                    <rate>
                      <ntsc>FALSE</ntsc>
                      <timebase>25</timebase>
                    </rate>
                    <width>1920</width>
                    <height>1080</height>
                    <pixelaspectratio>Square</pixelaspectratio>
                    <anamorphic>FALSE</anamorphic>
                  </samplecharacteristics>
                </video>
              </media>
            </file>
            <sourcetrack>
              <mediatype>video</mediatype>
            </sourcetrack>
            <fielddominance>none</fielddominance>
          </clipitem>
          <clipitem id="D.png602">
            <name>D.png</name>
            <duration>2</duration>
            <rate>
              <ntsc>FALSE</ntsc>
              <timebase>25</timebase>
            </rate>
            <in>91978</in>
            <out>91979</out>
            <start>1978</start>
            <end>1979</end>
            <pixelaspectratio>Square</pixelaspectratio>
            <stillframe>TRUE</stillframe>
            <anamorphic>FALSE</anamorphic>
            <alphatype>straight</alphatype>
            <masterclipid>D.png602</masterclipid>
            <file id="D">
              <name>D.png</name>
              <pathurl>D:/Codes/SynthLip/SynthLipN/bin/Debug/net6.0-windows/Skin/template/D.png</pathurl>
              <rate>
                <ntsc>FALSE</ntsc>
                <timebase>25</timebase>
              </rate>
              <duration>2</duration>
              <width>1920</width>
              <height>1080</height>
              <media>
                <video>
                  <duration>2</duration>
                  <stillframe>TRUE</stillframe>
                  <samplecharacteristics>
                    <rate>
                      <ntsc>FALSE</ntsc>
                      <timebase>25</timebase>
                    </rate>
                    <width>1920</width>
                    <height>1080</height>
                    <pixelaspectratio>Square</pixelaspectratio>
                    <anamorphic>FALSE</anamorphic>
                  </samplecharacteristics>
                </video>
              </media>
            </file>
            <sourcetrack>
              <mediatype>video</mediatype>
            </sourcetrack>
            <fielddominance>none</fielddominance>
          </clipitem>
          <clipitem id="A.png601">
            <name>A.png</name>
            <duration>2</duration>
            <rate>
              <ntsc>FALSE</ntsc>
              <timebase>25</timebase>
            </rate>
            <in>91975</in>
            <out>91976</out>
            <start>1975</start>
            <end>1976</end>
            <pixelaspectratio>Square</pixelaspectratio>
            <stillframe>TRUE</stillframe>
            <anamorphic>FALSE</anamorphic>
            <alphatype>straight</alphatype>
            <masterclipid>A.png601</masterclipid>
            <file id="A">
              <name>A.png</name>
              <pathurl>D:/Codes/SynthLip/SynthLipN/bin/Debug/net6.0-windows/Skin/template/A.png</pathurl>
              <rate>
                <ntsc>FALSE</ntsc>
                <timebase>25</timebase>
              </rate>
              <duration>2</duration>
              <width>1920</width>
              <height>1080</height>
              <media>
                <video>
                  <duration>2</duration>
                  <stillframe>TRUE</stillframe>
                  <samplecharacteristics>
                    <rate>
                      <ntsc>FALSE</ntsc>
                      <timebase>25</timebase>
                    </rate>
                    <width>1920</width>
                    <height>1080</height>
                    <pixelaspectratio>Square</pixelaspectratio>
                    <anamorphic>FALSE</anamorphic>
                  </samplecharacteristics>
                </video>
              </media>
            </file>
            <sourcetrack>
              <mediatype>video</mediatype>
            </sourcetrack>
            <fielddominance>none</fielddominance>
          </clipitem>
          <clipitem id="B.png600">
            <name>B.png</name>
            <duration>2</duration>
            <rate>
              <ntsc>FALSE</ntsc>
              <timebase>25</timebase>
            </rate>
            <in>91973</in>
            <out>91974</out>
            <start>1973</start>
            <end>1974</end>
            <pixelaspectratio>Square</pixelaspectratio>
            <stillframe>TRUE</stillframe>
            <anamorphic>FALSE</anamorphic>
            <alphatype>straight</alphatype>
            <masterclipid>B.png600</masterclipid>
            <file id="B">
              <name>B.png</name>
              <pathurl>D:/Codes/SynthLip/SynthLipN/bin/Debug/net6.0-windows/Skin/template/B.png</pathurl>
              <rate>
                <ntsc>FALSE</ntsc>
                <timebase>25</timebase>
              </rate>
              <duration>2</duration>
              <width>1920</width>
              <height>1080</height>
              <media>
                <video>
                  <duration>2</duration>
                  <stillframe>TRUE</stillframe>
                  <samplecharacteristics>
                    <rate>
                      <ntsc>FALSE</ntsc>
                      <timebase>25</timebase>
                    </rate>
                    <width>1920</width>
                    <height>1080</height>
                    <pixelaspectratio>Square</pixelaspectratio>
                    <anamorphic>FALSE</anamorphic>
                  </samplecharacteristics>
                </video>
              </media>
            </file>
            <sourcetrack>
              <mediatype>video</mediatype>
            </sourcetrack>
            <fielddominance>none</fielddominance>
          </clipitem>
          <clipitem id="F.png599">
            <name>F.png</name>
            <duration>2</duration>
            <rate>
              <ntsc>FALSE</ntsc>
              <timebase>25</timebase>
            </rate>
            <in>91970</in>
            <out>91971</out>
            <start>1970</start>
            <end>1971</end>
            <pixelaspectratio>Square</pixelaspectratio>
            <stillframe>TRUE</stillframe>
            <anamorphic>FALSE</anamorphic>
            <alphatype>straight</alphatype>
            <masterclipid>F.png599</masterclipid>
            <file id="F">
              <name>F.png</name>
              <pathurl>D:/Codes/SynthLip/SynthLipN/bin/Debug/net6.0-windows/Skin/template/F.png</pathurl>
              <rate>
                <ntsc>FALSE</ntsc>
                <timebase>25</timebase>
              </rate>
              <duration>2</duration>
              <width>1920</width>
              <height>1080</height>
              <media>
                <video>
                  <duration>2</duration>
                  <stillframe>TRUE</stillframe>
                  <samplecharacteristics>
                    <rate>
                      <ntsc>FALSE</ntsc>
                      <timebase>25</timebase>
                    </rate>
                    <width>1920</width>
                    <height>1080</height>
                    <pixelaspectratio>Square</pixelaspectratio>
                    <anamorphic>FALSE</anamorphic>
                  </samplecharacteristics>
                </video>
              </media>
            </file>
            <sourcetrack>
              <mediatype>video</mediatype>
            </sourcetrack>
            <fielddominance>none</fielddominance>
          </clipitem>
          <clipitem id="B.png598">
            <name>B.png</name>
            <duration>2</duration>
            <rate>
              <ntsc>FALSE</ntsc>
              <timebase>25</timebase>
            </rate>
            <in>91968</in>
            <out>91969</out>
            <start>1968</start>
            <end>1969</end>
            <pixelaspectratio>Square</pixelaspectratio>
            <stillframe>TRUE</stillframe>
            <anamorphic>FALSE</anamorphic>
            <alphatype>straight</alphatype>
            <masterclipid>B.png598</masterclipid>
            <file id="B">
              <name>B.png</name>
              <pathurl>D:/Codes/SynthLip/SynthLipN/bin/Debug/net6.0-windows/Skin/template/B.png</pathurl>
              <rate>
                <ntsc>FALSE</ntsc>
                <timebase>25</timebase>
              </rate>
              <duration>2</duration>
              <width>1920</width>
              <height>1080</height>
              <media>
                <video>
                  <duration>2</duration>
                  <stillframe>TRUE</stillframe>
                  <samplecharacteristics>
                    <rate>
                      <ntsc>FALSE</ntsc>
                      <timebase>25</timebase>
                    </rate>
                    <width>1920</width>
                    <height>1080</height>
                    <pixelaspectratio>Square</pixelaspectratio>
                    <anamorphic>FALSE</anamorphic>
                  </samplecharacteristics>
                </video>
              </media>
            </file>
            <sourcetrack>
              <mediatype>video</mediatype>
            </sourcetrack>
            <fielddominance>none</fielddominance>
          </clipitem>
          <clipitem id="A.png597">
            <name>A.png</name>
            <duration>2</duration>
            <rate>
              <ntsc>FALSE</ntsc>
              <timebase>25</timebase>
            </rate>
            <in>91965</in>
            <out>91966</out>
            <start>1965</start>
            <end>1966</end>
            <pixelaspectratio>Square</pixelaspectratio>
            <stillframe>TRUE</stillframe>
            <anamorphic>FALSE</anamorphic>
            <alphatype>straight</alphatype>
            <masterclipid>A.png597</masterclipid>
            <file id="A">
              <name>A.png</name>
              <pathurl>D:/Codes/SynthLip/SynthLipN/bin/Debug/net6.0-windows/Skin/template/A.png</pathurl>
              <rate>
                <ntsc>FALSE</ntsc>
                <timebase>25</timebase>
              </rate>
              <duration>2</duration>
              <width>1920</width>
              <height>1080</height>
              <media>
                <video>
                  <duration>2</duration>
                  <stillframe>TRUE</stillframe>
                  <samplecharacteristics>
                    <rate>
                      <ntsc>FALSE</ntsc>
                      <timebase>25</timebase>
                    </rate>
                    <width>1920</width>
                    <height>1080</height>
                    <pixelaspectratio>Square</pixelaspectratio>
                    <anamorphic>FALSE</anamorphic>
                  </samplecharacteristics>
                </video>
              </media>
            </file>
            <sourcetrack>
              <mediatype>video</mediatype>
            </sourcetrack>
            <fielddominance>none</fielddominance>
          </clipitem>
          <clipitem id="F.png596">
            <name>F.png</name>
            <duration>5</duration>
            <rate>
              <ntsc>FALSE</ntsc>
              <timebase>25</timebase>
            </rate>
            <in>91960</in>
            <out>91964</out>
            <start>1960</start>
            <end>1964</end>
            <pixelaspectratio>Square</pixelaspectratio>
            <stillframe>TRUE</stillframe>
            <anamorphic>FALSE</anamorphic>
            <alphatype>straight</alphatype>
            <masterclipid>F.png596</masterclipid>
            <file id="F">
              <name>F.png</name>
              <pathurl>D:/Codes/SynthLip/SynthLipN/bin/Debug/net6.0-windows/Skin/template/F.png</pathurl>
              <rate>
                <ntsc>FALSE</ntsc>
                <timebase>25</timebase>
              </rate>
              <duration>2</duration>
              <width>1920</width>
              <height>1080</height>
              <media>
                <video>
                  <duration>2</duration>
                  <stillframe>TRUE</stillframe>
                  <samplecharacteristics>
                    <rate>
                      <ntsc>FALSE</ntsc>
                      <timebase>25</timebase>
                    </rate>
                    <width>1920</width>
                    <height>1080</height>
                    <pixelaspectratio>Square</pixelaspectratio>
                    <anamorphic>FALSE</anamorphic>
                  </samplecharacteristics>
                </video>
              </media>
            </file>
            <sourcetrack>
              <mediatype>video</mediatype>
            </sourcetrack>
            <fielddominance>none</fielddominance>
          </clipitem>
          <clipitem id="C.png593">
            <name>C.png</name>
            <duration>3</duration>
            <rate>
              <ntsc>FALSE</ntsc>
              <timebase>25</timebase>
            </rate>
            <in>91954</in>
            <out>91956</out>
            <start>1954</start>
            <end>1956</end>
            <pixelaspectratio>Square</pixelaspectratio>
            <stillframe>TRUE</stillframe>
            <anamorphic>FALSE</anamorphic>
            <alphatype>straight</alphatype>
            <masterclipid>C.png593</masterclipid>
            <file id="C">
              <name>C.png</name>
              <pathurl>D:/Codes/SynthLip/SynthLipN/bin/Debug/net6.0-windows/Skin/template/C.png</pathurl>
              <rate>
                <ntsc>FALSE</ntsc>
                <timebase>25</timebase>
              </rate>
              <duration>2</duration>
              <width>1920</width>
              <height>1080</height>
              <media>
                <video>
                  <duration>2</duration>
                  <stillframe>TRUE</stillframe>
                  <samplecharacteristics>
                    <rate>
                      <ntsc>FALSE</ntsc>
                      <timebase>25</timebase>
                    </rate>
                    <width>1920</width>
                    <height>1080</height>
                    <pixelaspectratio>Square</pixelaspectratio>
                    <anamorphic>FALSE</anamorphic>
                  </samplecharacteristics>
                </video>
              </media>
            </file>
            <sourcetrack>
              <mediatype>video</mediatype>
            </sourcetrack>
            <fielddominance>none</fielddominance>
          </clipitem>
          <clipitem id="F.png591">
            <name>F.png</name>
            <duration>9</duration>
            <rate>
              <ntsc>FALSE</ntsc>
              <timebase>25</timebase>
            </rate>
            <in>91943</in>
            <out>91951</out>
            <start>1943</start>
            <end>1951</end>
            <pixelaspectratio>Square</pixelaspectratio>
            <stillframe>TRUE</stillframe>
            <anamorphic>FALSE</anamorphic>
            <alphatype>straight</alphatype>
            <masterclipid>F.png591</masterclipid>
            <file id="F">
              <name>F.png</name>
              <pathurl>D:/Codes/SynthLip/SynthLipN/bin/Debug/net6.0-windows/Skin/template/F.png</pathurl>
              <rate>
                <ntsc>FALSE</ntsc>
                <timebase>25</timebase>
              </rate>
              <duration>2</duration>
              <width>1920</width>
              <height>1080</height>
              <media>
                <video>
                  <duration>2</duration>
                  <stillframe>TRUE</stillframe>
                  <samplecharacteristics>
                    <rate>
                      <ntsc>FALSE</ntsc>
                      <timebase>25</timebase>
                    </rate>
                    <width>1920</width>
                    <height>1080</height>
                    <pixelaspectratio>Square</pixelaspectratio>
                    <anamorphic>FALSE</anamorphic>
                  </samplecharacteristics>
                </video>
              </media>
            </file>
            <sourcetrack>
              <mediatype>video</mediatype>
            </sourcetrack>
            <fielddominance>none</fielddominance>
          </clipitem>
          <clipitem id="B.png590">
            <name>B.png</name>
            <duration>3</duration>
            <rate>
              <ntsc>FALSE</ntsc>
              <timebase>25</timebase>
            </rate>
            <in>91939</in>
            <out>91941</out>
            <start>1939</start>
            <end>1941</end>
            <pixelaspectratio>Square</pixelaspectratio>
            <stillframe>TRUE</stillframe>
            <anamorphic>FALSE</anamorphic>
            <alphatype>straight</alphatype>
            <masterclipid>B.png590</masterclipid>
            <file id="B">
              <name>B.png</name>
              <pathurl>D:/Codes/SynthLip/SynthLipN/bin/Debug/net6.0-windows/Skin/template/B.png</pathurl>
              <rate>
                <ntsc>FALSE</ntsc>
                <timebase>25</timebase>
              </rate>
              <duration>2</duration>
              <width>1920</width>
              <height>1080</height>
              <media>
                <video>
                  <duration>2</duration>
                  <stillframe>TRUE</stillframe>
                  <samplecharacteristics>
                    <rate>
                      <ntsc>FALSE</ntsc>
                      <timebase>25</timebase>
                    </rate>
                    <width>1920</width>
                    <height>1080</height>
                    <pixelaspectratio>Square</pixelaspectratio>
                    <anamorphic>FALSE</anamorphic>
                  </samplecharacteristics>
                </video>
              </media>
            </file>
            <sourcetrack>
              <mediatype>video</mediatype>
            </sourcetrack>
            <fielddominance>none</fielddominance>
          </clipitem>
          <clipitem id="A.png589">
            <name>A.png</name>
            <duration>3</duration>
            <rate>
              <ntsc>FALSE</ntsc>
              <timebase>25</timebase>
            </rate>
            <in>91936</in>
            <out>91938</out>
            <start>1936</start>
            <end>1938</end>
            <pixelaspectratio>Square</pixelaspectratio>
            <stillframe>TRUE</stillframe>
            <anamorphic>FALSE</anamorphic>
            <alphatype>straight</alphatype>
            <masterclipid>A.png589</masterclipid>
            <file id="A">
              <name>A.png</name>
              <pathurl>D:/Codes/SynthLip/SynthLipN/bin/Debug/net6.0-windows/Skin/template/A.png</pathurl>
              <rate>
                <ntsc>FALSE</ntsc>
                <timebase>25</timebase>
              </rate>
              <duration>2</duration>
              <width>1920</width>
              <height>1080</height>
              <media>
                <video>
                  <duration>2</duration>
                  <stillframe>TRUE</stillframe>
                  <samplecharacteristics>
                    <rate>
                      <ntsc>FALSE</ntsc>
                      <timebase>25</timebase>
                    </rate>
                    <width>1920</width>
                    <height>1080</height>
                    <pixelaspectratio>Square</pixelaspectratio>
                    <anamorphic>FALSE</anamorphic>
                  </samplecharacteristics>
                </video>
              </media>
            </file>
            <sourcetrack>
              <mediatype>video</mediatype>
            </sourcetrack>
            <fielddominance>none</fielddominance>
          </clipitem>
          <clipitem id="A.png588">
            <name>A.png</name>
            <duration>3</duration>
            <rate>
              <ntsc>FALSE</ntsc>
              <timebase>25</timebase>
            </rate>
            <in>91932</in>
            <out>91934</out>
            <start>1932</start>
            <end>1934</end>
            <pixelaspectratio>Square</pixelaspectratio>
            <stillframe>TRUE</stillframe>
            <anamorphic>FALSE</anamorphic>
            <alphatype>straight</alphatype>
            <masterclipid>A.png588</masterclipid>
            <file id="A">
              <name>A.png</name>
              <pathurl>D:/Codes/SynthLip/SynthLipN/bin/Debug/net6.0-windows/Skin/template/A.png</pathurl>
              <rate>
                <ntsc>FALSE</ntsc>
                <timebase>25</timebase>
              </rate>
              <duration>2</duration>
              <width>1920</width>
              <height>1080</height>
              <media>
                <video>
                  <duration>2</duration>
                  <stillframe>TRUE</stillframe>
                  <samplecharacteristics>
                    <rate>
                      <ntsc>FALSE</ntsc>
                      <timebase>25</timebase>
                    </rate>
                    <width>1920</width>
                    <height>1080</height>
                    <pixelaspectratio>Square</pixelaspectratio>
                    <anamorphic>FALSE</anamorphic>
                  </samplecharacteristics>
                </video>
              </media>
            </file>
            <sourcetrack>
              <mediatype>video</mediatype>
            </sourcetrack>
            <fielddominance>none</fielddominance>
          </clipitem>
          <clipitem id="A.png584">
            <name>A.png</name>
            <duration>3</duration>
            <rate>
              <ntsc>FALSE</ntsc>
              <timebase>25</timebase>
            </rate>
            <in>91924</in>
            <out>91926</out>
            <start>1924</start>
            <end>1926</end>
            <pixelaspectratio>Square</pixelaspectratio>
            <stillframe>TRUE</stillframe>
            <anamorphic>FALSE</anamorphic>
            <alphatype>straight</alphatype>
            <masterclipid>A.png584</masterclipid>
            <file id="A">
              <name>A.png</name>
              <pathurl>D:/Codes/SynthLip/SynthLipN/bin/Debug/net6.0-windows/Skin/template/A.png</pathurl>
              <rate>
                <ntsc>FALSE</ntsc>
                <timebase>25</timebase>
              </rate>
              <duration>2</duration>
              <width>1920</width>
              <height>1080</height>
              <media>
                <video>
                  <duration>2</duration>
                  <stillframe>TRUE</stillframe>
                  <samplecharacteristics>
                    <rate>
                      <ntsc>FALSE</ntsc>
                      <timebase>25</timebase>
                    </rate>
                    <width>1920</width>
                    <height>1080</height>
                    <pixelaspectratio>Square</pixelaspectratio>
                    <anamorphic>FALSE</anamorphic>
                  </samplecharacteristics>
                </video>
              </media>
            </file>
            <sourcetrack>
              <mediatype>video</mediatype>
            </sourcetrack>
            <fielddominance>none</fielddominance>
          </clipitem>
          <clipitem id="A.png583">
            <name>A.png</name>
            <duration>3</duration>
            <rate>
              <ntsc>FALSE</ntsc>
              <timebase>25</timebase>
            </rate>
            <in>91920</in>
            <out>91922</out>
            <start>1920</start>
            <end>1922</end>
            <pixelaspectratio>Square</pixelaspectratio>
            <stillframe>TRUE</stillframe>
            <anamorphic>FALSE</anamorphic>
            <alphatype>straight</alphatype>
            <masterclipid>A.png583</masterclipid>
            <file id="A">
              <name>A.png</name>
              <pathurl>D:/Codes/SynthLip/SynthLipN/bin/Debug/net6.0-windows/Skin/template/A.png</pathurl>
              <rate>
                <ntsc>FALSE</ntsc>
                <timebase>25</timebase>
              </rate>
              <duration>2</duration>
              <width>1920</width>
              <height>1080</height>
              <media>
                <video>
                  <duration>2</duration>
                  <stillframe>TRUE</stillframe>
                  <samplecharacteristics>
                    <rate>
                      <ntsc>FALSE</ntsc>
                      <timebase>25</timebase>
                    </rate>
                    <width>1920</width>
                    <height>1080</height>
                    <pixelaspectratio>Square</pixelaspectratio>
                    <anamorphic>FALSE</anamorphic>
                  </samplecharacteristics>
                </video>
              </media>
            </file>
            <sourcetrack>
              <mediatype>video</mediatype>
            </sourcetrack>
            <fielddominance>none</fielddominance>
          </clipitem>
          <clipitem id="B.png582">
            <name>B.png</name>
            <duration>3</duration>
            <rate>
              <ntsc>FALSE</ntsc>
              <timebase>25</timebase>
            </rate>
            <in>91917</in>
            <out>91919</out>
            <start>1917</start>
            <end>1919</end>
            <pixelaspectratio>Square</pixelaspectratio>
            <stillframe>TRUE</stillframe>
            <anamorphic>FALSE</anamorphic>
            <alphatype>straight</alphatype>
            <masterclipid>B.png582</masterclipid>
            <file id="B">
              <name>B.png</name>
              <pathurl>D:/Codes/SynthLip/SynthLipN/bin/Debug/net6.0-windows/Skin/template/B.png</pathurl>
              <rate>
                <ntsc>FALSE</ntsc>
                <timebase>25</timebase>
              </rate>
              <duration>2</duration>
              <width>1920</width>
              <height>1080</height>
              <media>
                <video>
                  <duration>2</duration>
                  <stillframe>TRUE</stillframe>
                  <samplecharacteristics>
                    <rate>
                      <ntsc>FALSE</ntsc>
                      <timebase>25</timebase>
                    </rate>
                    <width>1920</width>
                    <height>1080</height>
                    <pixelaspectratio>Square</pixelaspectratio>
                    <anamorphic>FALSE</anamorphic>
                  </samplecharacteristics>
                </video>
              </media>
            </file>
            <sourcetrack>
              <mediatype>video</mediatype>
            </sourcetrack>
            <fielddominance>none</fielddominance>
          </clipitem>
          <clipitem id="D.png578">
            <name>D.png</name>
            <duration>2</duration>
            <rate>
              <ntsc>FALSE</ntsc>
              <timebase>25</timebase>
            </rate>
            <in>91911</in>
            <out>91912</out>
            <start>1911</start>
            <end>1912</end>
            <pixelaspectratio>Square</pixelaspectratio>
            <stillframe>TRUE</stillframe>
            <anamorphic>FALSE</anamorphic>
            <alphatype>straight</alphatype>
            <masterclipid>D.png578</masterclipid>
            <file id="D">
              <name>D.png</name>
              <pathurl>D:/Codes/SynthLip/SynthLipN/bin/Debug/net6.0-windows/Skin/template/D.png</pathurl>
              <rate>
                <ntsc>FALSE</ntsc>
                <timebase>25</timebase>
              </rate>
              <duration>2</duration>
              <width>1920</width>
              <height>1080</height>
              <media>
                <video>
                  <duration>2</duration>
                  <stillframe>TRUE</stillframe>
                  <samplecharacteristics>
                    <rate>
                      <ntsc>FALSE</ntsc>
                      <timebase>25</timebase>
                    </rate>
                    <width>1920</width>
                    <height>1080</height>
                    <pixelaspectratio>Square</pixelaspectratio>
                    <anamorphic>FALSE</anamorphic>
                  </samplecharacteristics>
                </video>
              </media>
            </file>
            <sourcetrack>
              <mediatype>video</mediatype>
            </sourcetrack>
            <fielddominance>none</fielddominance>
          </clipitem>
          <clipitem id="B.png577">
            <name>B.png</name>
            <duration>2</duration>
            <rate>
              <ntsc>FALSE</ntsc>
              <timebase>25</timebase>
            </rate>
            <in>91908</in>
            <out>91909</out>
            <start>1908</start>
            <end>1909</end>
            <pixelaspectratio>Square</pixelaspectratio>
            <stillframe>TRUE</stillframe>
            <anamorphic>FALSE</anamorphic>
            <alphatype>straight</alphatype>
            <masterclipid>B.png577</masterclipid>
            <file id="B">
              <name>B.png</name>
              <pathurl>D:/Codes/SynthLip/SynthLipN/bin/Debug/net6.0-windows/Skin/template/B.png</pathurl>
              <rate>
                <ntsc>FALSE</ntsc>
                <timebase>25</timebase>
              </rate>
              <duration>2</duration>
              <width>1920</width>
              <height>1080</height>
              <media>
                <video>
                  <duration>2</duration>
                  <stillframe>TRUE</stillframe>
                  <samplecharacteristics>
                    <rate>
                      <ntsc>FALSE</ntsc>
                      <timebase>25</timebase>
                    </rate>
                    <width>1920</width>
                    <height>1080</height>
                    <pixelaspectratio>Square</pixelaspectratio>
                    <anamorphic>FALSE</anamorphic>
                  </samplecharacteristics>
                </video>
              </media>
            </file>
            <sourcetrack>
              <mediatype>video</mediatype>
            </sourcetrack>
            <fielddominance>none</fielddominance>
          </clipitem>
          <clipitem id="B.png576">
            <name>B.png</name>
            <duration>2</duration>
            <rate>
              <ntsc>FALSE</ntsc>
              <timebase>25</timebase>
            </rate>
            <in>91905</in>
            <out>91906</out>
            <start>1905</start>
            <end>1906</end>
            <pixelaspectratio>Square</pixelaspectratio>
            <stillframe>TRUE</stillframe>
            <anamorphic>FALSE</anamorphic>
            <alphatype>straight</alphatype>
            <masterclipid>B.png576</masterclipid>
            <file id="B">
              <name>B.png</name>
              <pathurl>D:/Codes/SynthLip/SynthLipN/bin/Debug/net6.0-windows/Skin/template/B.png</pathurl>
              <rate>
                <ntsc>FALSE</ntsc>
                <timebase>25</timebase>
              </rate>
              <duration>2</duration>
              <width>1920</width>
              <height>1080</height>
              <media>
                <video>
                  <duration>2</duration>
                  <stillframe>TRUE</stillframe>
                  <samplecharacteristics>
                    <rate>
                      <ntsc>FALSE</ntsc>
                      <timebase>25</timebase>
                    </rate>
                    <width>1920</width>
                    <height>1080</height>
                    <pixelaspectratio>Square</pixelaspectratio>
                    <anamorphic>FALSE</anamorphic>
                  </samplecharacteristics>
                </video>
              </media>
            </file>
            <sourcetrack>
              <mediatype>video</mediatype>
            </sourcetrack>
            <fielddominance>none</fielddominance>
          </clipitem>
          <clipitem id="D.png575">
            <name>D.png</name>
            <duration>2</duration>
            <rate>
              <ntsc>FALSE</ntsc>
              <timebase>25</timebase>
            </rate>
            <in>91903</in>
            <out>91904</out>
            <start>1903</start>
            <end>1904</end>
            <pixelaspectratio>Square</pixelaspectratio>
            <stillframe>TRUE</stillframe>
            <anamorphic>FALSE</anamorphic>
            <alphatype>straight</alphatype>
            <masterclipid>D.png575</masterclipid>
            <file id="D">
              <name>D.png</name>
              <pathurl>D:/Codes/SynthLip/SynthLipN/bin/Debug/net6.0-windows/Skin/template/D.png</pathurl>
              <rate>
                <ntsc>FALSE</ntsc>
                <timebase>25</timebase>
              </rate>
              <duration>2</duration>
              <width>1920</width>
              <height>1080</height>
              <media>
                <video>
                  <duration>2</duration>
                  <stillframe>TRUE</stillframe>
                  <samplecharacteristics>
                    <rate>
                      <ntsc>FALSE</ntsc>
                      <timebase>25</timebase>
                    </rate>
                    <width>1920</width>
                    <height>1080</height>
                    <pixelaspectratio>Square</pixelaspectratio>
                    <anamorphic>FALSE</anamorphic>
                  </samplecharacteristics>
                </video>
              </media>
            </file>
            <sourcetrack>
              <mediatype>video</mediatype>
            </sourcetrack>
            <fielddominance>none</fielddominance>
          </clipitem>
          <clipitem id="B.png574">
            <name>B.png</name>
            <duration>2</duration>
            <rate>
              <ntsc>FALSE</ntsc>
              <timebase>25</timebase>
            </rate>
            <in>91900</in>
            <out>91901</out>
            <start>1900</start>
            <end>1901</end>
            <pixelaspectratio>Square</pixelaspectratio>
            <stillframe>TRUE</stillframe>
            <anamorphic>FALSE</anamorphic>
            <alphatype>straight</alphatype>
            <masterclipid>B.png574</masterclipid>
            <file id="B">
              <name>B.png</name>
              <pathurl>D:/Codes/SynthLip/SynthLipN/bin/Debug/net6.0-windows/Skin/template/B.png</pathurl>
              <rate>
                <ntsc>FALSE</ntsc>
                <timebase>25</timebase>
              </rate>
              <duration>2</duration>
              <width>1920</width>
              <height>1080</height>
              <media>
                <video>
                  <duration>2</duration>
                  <stillframe>TRUE</stillframe>
                  <samplecharacteristics>
                    <rate>
                      <ntsc>FALSE</ntsc>
                      <timebase>25</timebase>
                    </rate>
                    <width>1920</width>
                    <height>1080</height>
                    <pixelaspectratio>Square</pixelaspectratio>
                    <anamorphic>FALSE</anamorphic>
                  </samplecharacteristics>
                </video>
              </media>
            </file>
            <sourcetrack>
              <mediatype>video</mediatype>
            </sourcetrack>
            <fielddominance>none</fielddominance>
          </clipitem>
          <clipitem id="F.png573">
            <name>F.png</name>
            <duration>2</duration>
            <rate>
              <ntsc>FALSE</ntsc>
              <timebase>25</timebase>
            </rate>
            <in>91898</in>
            <out>91899</out>
            <start>1898</start>
            <end>1899</end>
            <pixelaspectratio>Square</pixelaspectratio>
            <stillframe>TRUE</stillframe>
            <anamorphic>FALSE</anamorphic>
            <alphatype>straight</alphatype>
            <masterclipid>F.png573</masterclipid>
            <file id="F">
              <name>F.png</name>
              <pathurl>D:/Codes/SynthLip/SynthLipN/bin/Debug/net6.0-windows/Skin/template/F.png</pathurl>
              <rate>
                <ntsc>FALSE</ntsc>
                <timebase>25</timebase>
              </rate>
              <duration>2</duration>
              <width>1920</width>
              <height>1080</height>
              <media>
                <video>
                  <duration>2</duration>
                  <stillframe>TRUE</stillframe>
                  <samplecharacteristics>
                    <rate>
                      <ntsc>FALSE</ntsc>
                      <timebase>25</timebase>
                    </rate>
                    <width>1920</width>
                    <height>1080</height>
                    <pixelaspectratio>Square</pixelaspectratio>
                    <anamorphic>FALSE</anamorphic>
                  </samplecharacteristics>
                </video>
              </media>
            </file>
            <sourcetrack>
              <mediatype>video</mediatype>
            </sourcetrack>
            <fielddominance>none</fielddominance>
          </clipitem>
          <clipitem id="A.png572">
            <name>A.png</name>
            <duration>3</duration>
            <rate>
              <ntsc>FALSE</ntsc>
              <timebase>25</timebase>
            </rate>
            <in>91894</in>
            <out>91896</out>
            <start>1894</start>
            <end>1896</end>
            <pixelaspectratio>Square</pixelaspectratio>
            <stillframe>TRUE</stillframe>
            <anamorphic>FALSE</anamorphic>
            <alphatype>straight</alphatype>
            <masterclipid>A.png572</masterclipid>
            <file id="A">
              <name>A.png</name>
              <pathurl>D:/Codes/SynthLip/SynthLipN/bin/Debug/net6.0-windows/Skin/template/A.png</pathurl>
              <rate>
                <ntsc>FALSE</ntsc>
                <timebase>25</timebase>
              </rate>
              <duration>2</duration>
              <width>1920</width>
              <height>1080</height>
              <media>
                <video>
                  <duration>2</duration>
                  <stillframe>TRUE</stillframe>
                  <samplecharacteristics>
                    <rate>
                      <ntsc>FALSE</ntsc>
                      <timebase>25</timebase>
                    </rate>
                    <width>1920</width>
                    <height>1080</height>
                    <pixelaspectratio>Square</pixelaspectratio>
                    <anamorphic>FALSE</anamorphic>
                  </samplecharacteristics>
                </video>
              </media>
            </file>
            <sourcetrack>
              <mediatype>video</mediatype>
            </sourcetrack>
            <fielddominance>none</fielddominance>
          </clipitem>
          <clipitem id="B.png569">
            <name>B.png</name>
            <duration>8</duration>
            <rate>
              <ntsc>FALSE</ntsc>
              <timebase>25</timebase>
            </rate>
            <in>91883</in>
            <out>91890</out>
            <start>1883</start>
            <end>1890</end>
            <pixelaspectratio>Square</pixelaspectratio>
            <stillframe>TRUE</stillframe>
            <anamorphic>FALSE</anamorphic>
            <alphatype>straight</alphatype>
            <masterclipid>B.png569</masterclipid>
            <file id="B">
              <name>B.png</name>
              <pathurl>D:/Codes/SynthLip/SynthLipN/bin/Debug/net6.0-windows/Skin/template/B.png</pathurl>
              <rate>
                <ntsc>FALSE</ntsc>
                <timebase>25</timebase>
              </rate>
              <duration>2</duration>
              <width>1920</width>
              <height>1080</height>
              <media>
                <video>
                  <duration>2</duration>
                  <stillframe>TRUE</stillframe>
                  <samplecharacteristics>
                    <rate>
                      <ntsc>FALSE</ntsc>
                      <timebase>25</timebase>
                    </rate>
                    <width>1920</width>
                    <height>1080</height>
                    <pixelaspectratio>Square</pixelaspectratio>
                    <anamorphic>FALSE</anamorphic>
                  </samplecharacteristics>
                </video>
              </media>
            </file>
            <sourcetrack>
              <mediatype>video</mediatype>
            </sourcetrack>
            <fielddominance>none</fielddominance>
          </clipitem>
          <clipitem id="D.png568">
            <name>D.png</name>
            <duration>2</duration>
            <rate>
              <ntsc>FALSE</ntsc>
              <timebase>25</timebase>
            </rate>
            <in>91880</in>
            <out>91881</out>
            <start>1880</start>
            <end>1881</end>
            <pixelaspectratio>Square</pixelaspectratio>
            <stillframe>TRUE</stillframe>
            <anamorphic>FALSE</anamorphic>
            <alphatype>straight</alphatype>
            <masterclipid>D.png568</masterclipid>
            <file id="D">
              <name>D.png</name>
              <pathurl>D:/Codes/SynthLip/SynthLipN/bin/Debug/net6.0-windows/Skin/template/D.png</pathurl>
              <rate>
                <ntsc>FALSE</ntsc>
                <timebase>25</timebase>
              </rate>
              <duration>2</duration>
              <width>1920</width>
              <height>1080</height>
              <media>
                <video>
                  <duration>2</duration>
                  <stillframe>TRUE</stillframe>
                  <samplecharacteristics>
                    <rate>
                      <ntsc>FALSE</ntsc>
                      <timebase>25</timebase>
                    </rate>
                    <width>1920</width>
                    <height>1080</height>
                    <pixelaspectratio>Square</pixelaspectratio>
                    <anamorphic>FALSE</anamorphic>
                  </samplecharacteristics>
                </video>
              </media>
            </file>
            <sourcetrack>
              <mediatype>video</mediatype>
            </sourcetrack>
            <fielddominance>none</fielddominance>
          </clipitem>
          <clipitem id="B.png567">
            <name>B.png</name>
            <duration>2</duration>
            <rate>
              <ntsc>FALSE</ntsc>
              <timebase>25</timebase>
            </rate>
            <in>91878</in>
            <out>91879</out>
            <start>1878</start>
            <end>1879</end>
            <pixelaspectratio>Square</pixelaspectratio>
            <stillframe>TRUE</stillframe>
            <anamorphic>FALSE</anamorphic>
            <alphatype>straight</alphatype>
            <masterclipid>B.png567</masterclipid>
            <file id="B">
              <name>B.png</name>
              <pathurl>D:/Codes/SynthLip/SynthLipN/bin/Debug/net6.0-windows/Skin/template/B.png</pathurl>
              <rate>
                <ntsc>FALSE</ntsc>
                <timebase>25</timebase>
              </rate>
              <duration>2</duration>
              <width>1920</width>
              <height>1080</height>
              <media>
                <video>
                  <duration>2</duration>
                  <stillframe>TRUE</stillframe>
                  <samplecharacteristics>
                    <rate>
                      <ntsc>FALSE</ntsc>
                      <timebase>25</timebase>
                    </rate>
                    <width>1920</width>
                    <height>1080</height>
                    <pixelaspectratio>Square</pixelaspectratio>
                    <anamorphic>FALSE</anamorphic>
                  </samplecharacteristics>
                </video>
              </media>
            </file>
            <sourcetrack>
              <mediatype>video</mediatype>
            </sourcetrack>
            <fielddominance>none</fielddominance>
          </clipitem>
          <clipitem id="A.png566">
            <name>A.png</name>
            <duration>2</duration>
            <rate>
              <ntsc>FALSE</ntsc>
              <timebase>25</timebase>
            </rate>
            <in>91875</in>
            <out>91876</out>
            <start>1875</start>
            <end>1876</end>
            <pixelaspectratio>Square</pixelaspectratio>
            <stillframe>TRUE</stillframe>
            <anamorphic>FALSE</anamorphic>
            <alphatype>straight</alphatype>
            <masterclipid>A.png566</masterclipid>
            <file id="A">
              <name>A.png</name>
              <pathurl>D:/Codes/SynthLip/SynthLipN/bin/Debug/net6.0-windows/Skin/template/A.png</pathurl>
              <rate>
                <ntsc>FALSE</ntsc>
                <timebase>25</timebase>
              </rate>
              <duration>2</duration>
              <width>1920</width>
              <height>1080</height>
              <media>
                <video>
                  <duration>2</duration>
                  <stillframe>TRUE</stillframe>
                  <samplecharacteristics>
                    <rate>
                      <ntsc>FALSE</ntsc>
                      <timebase>25</timebase>
                    </rate>
                    <width>1920</width>
                    <height>1080</height>
                    <pixelaspectratio>Square</pixelaspectratio>
                    <anamorphic>FALSE</anamorphic>
                  </samplecharacteristics>
                </video>
              </media>
            </file>
            <sourcetrack>
              <mediatype>video</mediatype>
            </sourcetrack>
            <fielddominance>none</fielddominance>
          </clipitem>
          <clipitem id="A.png565">
            <name>A.png</name>
            <duration>3</duration>
            <rate>
              <ntsc>FALSE</ntsc>
              <timebase>25</timebase>
            </rate>
            <in>91872</in>
            <out>91874</out>
            <start>1872</start>
            <end>1874</end>
            <pixelaspectratio>Square</pixelaspectratio>
            <stillframe>TRUE</stillframe>
            <anamorphic>FALSE</anamorphic>
            <alphatype>straight</alphatype>
            <masterclipid>A.png565</masterclipid>
            <file id="A">
              <name>A.png</name>
              <pathurl>D:/Codes/SynthLip/SynthLipN/bin/Debug/net6.0-windows/Skin/template/A.png</pathurl>
              <rate>
                <ntsc>FALSE</ntsc>
                <timebase>25</timebase>
              </rate>
              <duration>2</duration>
              <width>1920</width>
              <height>1080</height>
              <media>
                <video>
                  <duration>2</duration>
                  <stillframe>TRUE</stillframe>
                  <samplecharacteristics>
                    <rate>
                      <ntsc>FALSE</ntsc>
                      <timebase>25</timebase>
                    </rate>
                    <width>1920</width>
                    <height>1080</height>
                    <pixelaspectratio>Square</pixelaspectratio>
                    <anamorphic>FALSE</anamorphic>
                  </samplecharacteristics>
                </video>
              </media>
            </file>
            <sourcetrack>
              <mediatype>video</mediatype>
            </sourcetrack>
            <fielddominance>none</fielddominance>
          </clipitem>
          <clipitem id="C.png561">
            <name>C.png</name>
            <duration>2</duration>
            <rate>
              <ntsc>FALSE</ntsc>
              <timebase>25</timebase>
            </rate>
            <in>91866</in>
            <out>91867</out>
            <start>1866</start>
            <end>1867</end>
            <pixelaspectratio>Square</pixelaspectratio>
            <stillframe>TRUE</stillframe>
            <anamorphic>FALSE</anamorphic>
            <alphatype>straight</alphatype>
            <masterclipid>C.png561</masterclipid>
            <file id="C">
              <name>C.png</name>
              <pathurl>D:/Codes/SynthLip/SynthLipN/bin/Debug/net6.0-windows/Skin/template/C.png</pathurl>
              <rate>
                <ntsc>FALSE</ntsc>
                <timebase>25</timebase>
              </rate>
              <duration>2</duration>
              <width>1920</width>
              <height>1080</height>
              <media>
                <video>
                  <duration>2</duration>
                  <stillframe>TRUE</stillframe>
                  <samplecharacteristics>
                    <rate>
                      <ntsc>FALSE</ntsc>
                      <timebase>25</timebase>
                    </rate>
                    <width>1920</width>
                    <height>1080</height>
                    <pixelaspectratio>Square</pixelaspectratio>
                    <anamorphic>FALSE</anamorphic>
                  </samplecharacteristics>
                </video>
              </media>
            </file>
            <sourcetrack>
              <mediatype>video</mediatype>
            </sourcetrack>
            <fielddominance>none</fielddominance>
          </clipitem>
          <clipitem id="B.png560">
            <name>B.png</name>
            <duration>2</duration>
            <rate>
              <ntsc>FALSE</ntsc>
              <timebase>25</timebase>
            </rate>
            <in>91863</in>
            <out>91864</out>
            <start>1863</start>
            <end>1864</end>
            <pixelaspectratio>Square</pixelaspectratio>
            <stillframe>TRUE</stillframe>
            <anamorphic>FALSE</anamorphic>
            <alphatype>straight</alphatype>
            <masterclipid>B.png560</masterclipid>
            <file id="B">
              <name>B.png</name>
              <pathurl>D:/Codes/SynthLip/SynthLipN/bin/Debug/net6.0-windows/Skin/template/B.png</pathurl>
              <rate>
                <ntsc>FALSE</ntsc>
                <timebase>25</timebase>
              </rate>
              <duration>2</duration>
              <width>1920</width>
              <height>1080</height>
              <media>
                <video>
                  <duration>2</duration>
                  <stillframe>TRUE</stillframe>
                  <samplecharacteristics>
                    <rate>
                      <ntsc>FALSE</ntsc>
                      <timebase>25</timebase>
                    </rate>
                    <width>1920</width>
                    <height>1080</height>
                    <pixelaspectratio>Square</pixelaspectratio>
                    <anamorphic>FALSE</anamorphic>
                  </samplecharacteristics>
                </video>
              </media>
            </file>
            <sourcetrack>
              <mediatype>video</mediatype>
            </sourcetrack>
            <fielddominance>none</fielddominance>
          </clipitem>
          <clipitem id="A.png559">
            <name>A.png</name>
            <duration>2</duration>
            <rate>
              <ntsc>FALSE</ntsc>
              <timebase>25</timebase>
            </rate>
            <in>91861</in>
            <out>91862</out>
            <start>1861</start>
            <end>1862</end>
            <pixelaspectratio>Square</pixelaspectratio>
            <stillframe>TRUE</stillframe>
            <anamorphic>FALSE</anamorphic>
            <alphatype>straight</alphatype>
            <masterclipid>A.png559</masterclipid>
            <file id="A">
              <name>A.png</name>
              <pathurl>D:/Codes/SynthLip/SynthLipN/bin/Debug/net6.0-windows/Skin/template/A.png</pathurl>
              <rate>
                <ntsc>FALSE</ntsc>
                <timebase>25</timebase>
              </rate>
              <duration>2</duration>
              <width>1920</width>
              <height>1080</height>
              <media>
                <video>
                  <duration>2</duration>
                  <stillframe>TRUE</stillframe>
                  <samplecharacteristics>
                    <rate>
                      <ntsc>FALSE</ntsc>
                      <timebase>25</timebase>
                    </rate>
                    <width>1920</width>
                    <height>1080</height>
                    <pixelaspectratio>Square</pixelaspectratio>
                    <anamorphic>FALSE</anamorphic>
                  </samplecharacteristics>
                </video>
              </media>
            </file>
            <sourcetrack>
              <mediatype>video</mediatype>
            </sourcetrack>
            <fielddominance>none</fielddominance>
          </clipitem>
          <clipitem id="B.png558">
            <name>B.png</name>
            <duration>3</duration>
            <rate>
              <ntsc>FALSE</ntsc>
              <timebase>25</timebase>
            </rate>
            <in>91857</in>
            <out>91859</out>
            <start>1857</start>
            <end>1859</end>
            <pixelaspectratio>Square</pixelaspectratio>
            <stillframe>TRUE</stillframe>
            <anamorphic>FALSE</anamorphic>
            <alphatype>straight</alphatype>
            <masterclipid>B.png558</masterclipid>
            <file id="B">
              <name>B.png</name>
              <pathurl>D:/Codes/SynthLip/SynthLipN/bin/Debug/net6.0-windows/Skin/template/B.png</pathurl>
              <rate>
                <ntsc>FALSE</ntsc>
                <timebase>25</timebase>
              </rate>
              <duration>2</duration>
              <width>1920</width>
              <height>1080</height>
              <media>
                <video>
                  <duration>2</duration>
                  <stillframe>TRUE</stillframe>
                  <samplecharacteristics>
                    <rate>
                      <ntsc>FALSE</ntsc>
                      <timebase>25</timebase>
                    </rate>
                    <width>1920</width>
                    <height>1080</height>
                    <pixelaspectratio>Square</pixelaspectratio>
                    <anamorphic>FALSE</anamorphic>
                  </samplecharacteristics>
                </video>
              </media>
            </file>
            <sourcetrack>
              <mediatype>video</mediatype>
            </sourcetrack>
            <fielddominance>none</fielddominance>
          </clipitem>
          <clipitem id="B.png554">
            <name>B.png</name>
            <duration>3</duration>
            <rate>
              <ntsc>FALSE</ntsc>
              <timebase>25</timebase>
            </rate>
            <in>91849</in>
            <out>91851</out>
            <start>1849</start>
            <end>1851</end>
            <pixelaspectratio>Square</pixelaspectratio>
            <stillframe>TRUE</stillframe>
            <anamorphic>FALSE</anamorphic>
            <alphatype>straight</alphatype>
            <masterclipid>B.png554</masterclipid>
            <file id="B">
              <name>B.png</name>
              <pathurl>D:/Codes/SynthLip/SynthLipN/bin/Debug/net6.0-windows/Skin/template/B.png</pathurl>
              <rate>
                <ntsc>FALSE</ntsc>
                <timebase>25</timebase>
              </rate>
              <duration>2</duration>
              <width>1920</width>
              <height>1080</height>
              <media>
                <video>
                  <duration>2</duration>
                  <stillframe>TRUE</stillframe>
                  <samplecharacteristics>
                    <rate>
                      <ntsc>FALSE</ntsc>
                      <timebase>25</timebase>
                    </rate>
                    <width>1920</width>
                    <height>1080</height>
                    <pixelaspectratio>Square</pixelaspectratio>
                    <anamorphic>FALSE</anamorphic>
                  </samplecharacteristics>
                </video>
              </media>
            </file>
            <sourcetrack>
              <mediatype>video</mediatype>
            </sourcetrack>
            <fielddominance>none</fielddominance>
          </clipitem>
          <clipitem id="A.png553">
            <name>A.png</name>
            <duration>3</duration>
            <rate>
              <ntsc>FALSE</ntsc>
              <timebase>25</timebase>
            </rate>
            <in>91845</in>
            <out>91847</out>
            <start>1845</start>
            <end>1847</end>
            <pixelaspectratio>Square</pixelaspectratio>
            <stillframe>TRUE</stillframe>
            <anamorphic>FALSE</anamorphic>
            <alphatype>straight</alphatype>
            <masterclipid>A.png553</masterclipid>
            <file id="A">
              <name>A.png</name>
              <pathurl>D:/Codes/SynthLip/SynthLipN/bin/Debug/net6.0-windows/Skin/template/A.png</pathurl>
              <rate>
                <ntsc>FALSE</ntsc>
                <timebase>25</timebase>
              </rate>
              <duration>2</duration>
              <width>1920</width>
              <height>1080</height>
              <media>
                <video>
                  <duration>2</duration>
                  <stillframe>TRUE</stillframe>
                  <samplecharacteristics>
                    <rate>
                      <ntsc>FALSE</ntsc>
                      <timebase>25</timebase>
                    </rate>
                    <width>1920</width>
                    <height>1080</height>
                    <pixelaspectratio>Square</pixelaspectratio>
                    <anamorphic>FALSE</anamorphic>
                  </samplecharacteristics>
                </video>
              </media>
            </file>
            <sourcetrack>
              <mediatype>video</mediatype>
            </sourcetrack>
            <fielddominance>none</fielddominance>
          </clipitem>
          <clipitem id="F.png552">
            <name>F.png</name>
            <duration>5</duration>
            <rate>
              <ntsc>FALSE</ntsc>
              <timebase>25</timebase>
            </rate>
            <in>91840</in>
            <out>91844</out>
            <start>1840</start>
            <end>1844</end>
            <pixelaspectratio>Square</pixelaspectratio>
            <stillframe>TRUE</stillframe>
            <anamorphic>FALSE</anamorphic>
            <alphatype>straight</alphatype>
            <masterclipid>F.png552</masterclipid>
            <file id="F">
              <name>F.png</name>
              <pathurl>D:/Codes/SynthLip/SynthLipN/bin/Debug/net6.0-windows/Skin/template/F.png</pathurl>
              <rate>
                <ntsc>FALSE</ntsc>
                <timebase>25</timebase>
              </rate>
              <duration>2</duration>
              <width>1920</width>
              <height>1080</height>
              <media>
                <video>
                  <duration>2</duration>
                  <stillframe>TRUE</stillframe>
                  <samplecharacteristics>
                    <rate>
                      <ntsc>FALSE</ntsc>
                      <timebase>25</timebase>
                    </rate>
                    <width>1920</width>
                    <height>1080</height>
                    <pixelaspectratio>Square</pixelaspectratio>
                    <anamorphic>FALSE</anamorphic>
                  </samplecharacteristics>
                </video>
              </media>
            </file>
            <sourcetrack>
              <mediatype>video</mediatype>
            </sourcetrack>
            <fielddominance>none</fielddominance>
          </clipitem>
          <clipitem id="C.png549">
            <name>C.png</name>
            <duration>3</duration>
            <rate>
              <ntsc>FALSE</ntsc>
              <timebase>25</timebase>
            </rate>
            <in>91834</in>
            <out>91836</out>
            <start>1834</start>
            <end>1836</end>
            <pixelaspectratio>Square</pixelaspectratio>
            <stillframe>TRUE</stillframe>
            <anamorphic>FALSE</anamorphic>
            <alphatype>straight</alphatype>
            <masterclipid>C.png549</masterclipid>
            <file id="C">
              <name>C.png</name>
              <pathurl>D:/Codes/SynthLip/SynthLipN/bin/Debug/net6.0-windows/Skin/template/C.png</pathurl>
              <rate>
                <ntsc>FALSE</ntsc>
                <timebase>25</timebase>
              </rate>
              <duration>2</duration>
              <width>1920</width>
              <height>1080</height>
              <media>
                <video>
                  <duration>2</duration>
                  <stillframe>TRUE</stillframe>
                  <samplecharacteristics>
                    <rate>
                      <ntsc>FALSE</ntsc>
                      <timebase>25</timebase>
                    </rate>
                    <width>1920</width>
                    <height>1080</height>
                    <pixelaspectratio>Square</pixelaspectratio>
                    <anamorphic>FALSE</anamorphic>
                  </samplecharacteristics>
                </video>
              </media>
            </file>
            <sourcetrack>
              <mediatype>video</mediatype>
            </sourcetrack>
            <fielddominance>none</fielddominance>
          </clipitem>
          <clipitem id="B.png547">
            <name>B.png</name>
            <duration>9</duration>
            <rate>
              <ntsc>FALSE</ntsc>
              <timebase>25</timebase>
            </rate>
            <in>91823</in>
            <out>91831</out>
            <start>1823</start>
            <end>1831</end>
            <pixelaspectratio>Square</pixelaspectratio>
            <stillframe>TRUE</stillframe>
            <anamorphic>FALSE</anamorphic>
            <alphatype>straight</alphatype>
            <masterclipid>B.png547</masterclipid>
            <file id="B">
              <name>B.png</name>
              <pathurl>D:/Codes/SynthLip/SynthLipN/bin/Debug/net6.0-windows/Skin/template/B.png</pathurl>
              <rate>
                <ntsc>FALSE</ntsc>
                <timebase>25</timebase>
              </rate>
              <duration>2</duration>
              <width>1920</width>
              <height>1080</height>
              <media>
                <video>
                  <duration>2</duration>
                  <stillframe>TRUE</stillframe>
                  <samplecharacteristics>
                    <rate>
                      <ntsc>FALSE</ntsc>
                      <timebase>25</timebase>
                    </rate>
                    <width>1920</width>
                    <height>1080</height>
                    <pixelaspectratio>Square</pixelaspectratio>
                    <anamorphic>FALSE</anamorphic>
                  </samplecharacteristics>
                </video>
              </media>
            </file>
            <sourcetrack>
              <mediatype>video</mediatype>
            </sourcetrack>
            <fielddominance>none</fielddominance>
          </clipitem>
          <clipitem id="D.png546">
            <name>D.png</name>
            <duration>2</duration>
            <rate>
              <ntsc>FALSE</ntsc>
              <timebase>25</timebase>
            </rate>
            <in>91820</in>
            <out>91821</out>
            <start>1820</start>
            <end>1821</end>
            <pixelaspectratio>Square</pixelaspectratio>
            <stillframe>TRUE</stillframe>
            <anamorphic>FALSE</anamorphic>
            <alphatype>straight</alphatype>
            <masterclipid>D.png546</masterclipid>
            <file id="D">
              <name>D.png</name>
              <pathurl>D:/Codes/SynthLip/SynthLipN/bin/Debug/net6.0-windows/Skin/template/D.png</pathurl>
              <rate>
                <ntsc>FALSE</ntsc>
                <timebase>25</timebase>
              </rate>
              <duration>2</duration>
              <width>1920</width>
              <height>1080</height>
              <media>
                <video>
                  <duration>2</duration>
                  <stillframe>TRUE</stillframe>
                  <samplecharacteristics>
                    <rate>
                      <ntsc>FALSE</ntsc>
                      <timebase>25</timebase>
                    </rate>
                    <width>1920</width>
                    <height>1080</height>
                    <pixelaspectratio>Square</pixelaspectratio>
                    <anamorphic>FALSE</anamorphic>
                  </samplecharacteristics>
                </video>
              </media>
            </file>
            <sourcetrack>
              <mediatype>video</mediatype>
            </sourcetrack>
            <fielddominance>none</fielddominance>
          </clipitem>
          <clipitem id="B.png545">
            <name>B.png</name>
            <duration>2</duration>
            <rate>
              <ntsc>FALSE</ntsc>
              <timebase>25</timebase>
            </rate>
            <in>91818</in>
            <out>91819</out>
            <start>1818</start>
            <end>1819</end>
            <pixelaspectratio>Square</pixelaspectratio>
            <stillframe>TRUE</stillframe>
            <anamorphic>FALSE</anamorphic>
            <alphatype>straight</alphatype>
            <masterclipid>B.png545</masterclipid>
            <file id="B">
              <name>B.png</name>
              <pathurl>D:/Codes/SynthLip/SynthLipN/bin/Debug/net6.0-windows/Skin/template/B.png</pathurl>
              <rate>
                <ntsc>FALSE</ntsc>
                <timebase>25</timebase>
              </rate>
              <duration>2</duration>
              <width>1920</width>
              <height>1080</height>
              <media>
                <video>
                  <duration>2</duration>
                  <stillframe>TRUE</stillframe>
                  <samplecharacteristics>
                    <rate>
                      <ntsc>FALSE</ntsc>
                      <timebase>25</timebase>
                    </rate>
                    <width>1920</width>
                    <height>1080</height>
                    <pixelaspectratio>Square</pixelaspectratio>
                    <anamorphic>FALSE</anamorphic>
                  </samplecharacteristics>
                </video>
              </media>
            </file>
            <sourcetrack>
              <mediatype>video</mediatype>
            </sourcetrack>
            <fielddominance>none</fielddominance>
          </clipitem>
          <clipitem id="A.png544">
            <name>A.png</name>
            <duration>2</duration>
            <rate>
              <ntsc>FALSE</ntsc>
              <timebase>25</timebase>
            </rate>
            <in>91815</in>
            <out>91816</out>
            <start>1815</start>
            <end>1816</end>
            <pixelaspectratio>Square</pixelaspectratio>
            <stillframe>TRUE</stillframe>
            <anamorphic>FALSE</anamorphic>
            <alphatype>straight</alphatype>
            <masterclipid>A.png544</masterclipid>
            <file id="A">
              <name>A.png</name>
              <pathurl>D:/Codes/SynthLip/SynthLipN/bin/Debug/net6.0-windows/Skin/template/A.png</pathurl>
              <rate>
                <ntsc>FALSE</ntsc>
                <timebase>25</timebase>
              </rate>
              <duration>2</duration>
              <width>1920</width>
              <height>1080</height>
              <media>
                <video>
                  <duration>2</duration>
                  <stillframe>TRUE</stillframe>
                  <samplecharacteristics>
                    <rate>
                      <ntsc>FALSE</ntsc>
                      <timebase>25</timebase>
                    </rate>
                    <width>1920</width>
                    <height>1080</height>
                    <pixelaspectratio>Square</pixelaspectratio>
                    <anamorphic>FALSE</anamorphic>
                  </samplecharacteristics>
                </video>
              </media>
            </file>
            <sourcetrack>
              <mediatype>video</mediatype>
            </sourcetrack>
            <fielddominance>none</fielddominance>
          </clipitem>
          <clipitem id="A.png543">
            <name>A.png</name>
            <duration>3</duration>
            <rate>
              <ntsc>FALSE</ntsc>
              <timebase>25</timebase>
            </rate>
            <in>91812</in>
            <out>91814</out>
            <start>1812</start>
            <end>1814</end>
            <pixelaspectratio>Square</pixelaspectratio>
            <stillframe>TRUE</stillframe>
            <anamorphic>FALSE</anamorphic>
            <alphatype>straight</alphatype>
            <masterclipid>A.png543</masterclipid>
            <file id="A">
              <name>A.png</name>
              <pathurl>D:/Codes/SynthLip/SynthLipN/bin/Debug/net6.0-windows/Skin/template/A.png</pathurl>
              <rate>
                <ntsc>FALSE</ntsc>
                <timebase>25</timebase>
              </rate>
              <duration>2</duration>
              <width>1920</width>
              <height>1080</height>
              <media>
                <video>
                  <duration>2</duration>
                  <stillframe>TRUE</stillframe>
                  <samplecharacteristics>
                    <rate>
                      <ntsc>FALSE</ntsc>
                      <timebase>25</timebase>
                    </rate>
                    <width>1920</width>
                    <height>1080</height>
                    <pixelaspectratio>Square</pixelaspectratio>
                    <anamorphic>FALSE</anamorphic>
                  </samplecharacteristics>
                </video>
              </media>
            </file>
            <sourcetrack>
              <mediatype>video</mediatype>
            </sourcetrack>
            <fielddominance>none</fielddominance>
          </clipitem>
          <clipitem id="A.png539">
            <name>A.png</name>
            <duration>3</duration>
            <rate>
              <ntsc>FALSE</ntsc>
              <timebase>25</timebase>
            </rate>
            <in>91804</in>
            <out>91806</out>
            <start>1804</start>
            <end>1806</end>
            <pixelaspectratio>Square</pixelaspectratio>
            <stillframe>TRUE</stillframe>
            <anamorphic>FALSE</anamorphic>
            <alphatype>straight</alphatype>
            <masterclipid>A.png539</masterclipid>
            <file id="A">
              <name>A.png</name>
              <pathurl>D:/Codes/SynthLip/SynthLipN/bin/Debug/net6.0-windows/Skin/template/A.png</pathurl>
              <rate>
                <ntsc>FALSE</ntsc>
                <timebase>25</timebase>
              </rate>
              <duration>2</duration>
              <width>1920</width>
              <height>1080</height>
              <media>
                <video>
                  <duration>2</duration>
                  <stillframe>TRUE</stillframe>
                  <samplecharacteristics>
                    <rate>
                      <ntsc>FALSE</ntsc>
                      <timebase>25</timebase>
                    </rate>
                    <width>1920</width>
                    <height>1080</height>
                    <pixelaspectratio>Square</pixelaspectratio>
                    <anamorphic>FALSE</anamorphic>
                  </samplecharacteristics>
                </video>
              </media>
            </file>
            <sourcetrack>
              <mediatype>video</mediatype>
            </sourcetrack>
            <fielddominance>none</fielddominance>
          </clipitem>
          <clipitem id="A.png538">
            <name>A.png</name>
            <duration>3</duration>
            <rate>
              <ntsc>FALSE</ntsc>
              <timebase>25</timebase>
            </rate>
            <in>91800</in>
            <out>91802</out>
            <start>1800</start>
            <end>1802</end>
            <pixelaspectratio>Square</pixelaspectratio>
            <stillframe>TRUE</stillframe>
            <anamorphic>FALSE</anamorphic>
            <alphatype>straight</alphatype>
            <masterclipid>A.png538</masterclipid>
            <file id="A">
              <name>A.png</name>
              <pathurl>D:/Codes/SynthLip/SynthLipN/bin/Debug/net6.0-windows/Skin/template/A.png</pathurl>
              <rate>
                <ntsc>FALSE</ntsc>
                <timebase>25</timebase>
              </rate>
              <duration>2</duration>
              <width>1920</width>
              <height>1080</height>
              <media>
                <video>
                  <duration>2</duration>
                  <stillframe>TRUE</stillframe>
                  <samplecharacteristics>
                    <rate>
                      <ntsc>FALSE</ntsc>
                      <timebase>25</timebase>
                    </rate>
                    <width>1920</width>
                    <height>1080</height>
                    <pixelaspectratio>Square</pixelaspectratio>
                    <anamorphic>FALSE</anamorphic>
                  </samplecharacteristics>
                </video>
              </media>
            </file>
            <sourcetrack>
              <mediatype>video</mediatype>
            </sourcetrack>
            <fielddominance>none</fielddominance>
          </clipitem>
          <clipitem id="B.png537">
            <name>B.png</name>
            <duration>3</duration>
            <rate>
              <ntsc>FALSE</ntsc>
              <timebase>25</timebase>
            </rate>
            <in>91797</in>
            <out>91799</out>
            <start>1797</start>
            <end>1799</end>
            <pixelaspectratio>Square</pixelaspectratio>
            <stillframe>TRUE</stillframe>
            <anamorphic>FALSE</anamorphic>
            <alphatype>straight</alphatype>
            <masterclipid>B.png537</masterclipid>
            <file id="B">
              <name>B.png</name>
              <pathurl>D:/Codes/SynthLip/SynthLipN/bin/Debug/net6.0-windows/Skin/template/B.png</pathurl>
              <rate>
                <ntsc>FALSE</ntsc>
                <timebase>25</timebase>
              </rate>
              <duration>2</duration>
              <width>1920</width>
              <height>1080</height>
              <media>
                <video>
                  <duration>2</duration>
                  <stillframe>TRUE</stillframe>
                  <samplecharacteristics>
                    <rate>
                      <ntsc>FALSE</ntsc>
                      <timebase>25</timebase>
                    </rate>
                    <width>1920</width>
                    <height>1080</height>
                    <pixelaspectratio>Square</pixelaspectratio>
                    <anamorphic>FALSE</anamorphic>
                  </samplecharacteristics>
                </video>
              </media>
            </file>
            <sourcetrack>
              <mediatype>video</mediatype>
            </sourcetrack>
            <fielddominance>none</fielddominance>
          </clipitem>
          <clipitem id="D.png533">
            <name>D.png</name>
            <duration>2</duration>
            <rate>
              <ntsc>FALSE</ntsc>
              <timebase>25</timebase>
            </rate>
            <in>91791</in>
            <out>91792</out>
            <start>1791</start>
            <end>1792</end>
            <pixelaspectratio>Square</pixelaspectratio>
            <stillframe>TRUE</stillframe>
            <anamorphic>FALSE</anamorphic>
            <alphatype>straight</alphatype>
            <masterclipid>D.png533</masterclipid>
            <file id="D">
              <name>D.png</name>
              <pathurl>D:/Codes/SynthLip/SynthLipN/bin/Debug/net6.0-windows/Skin/template/D.png</pathurl>
              <rate>
                <ntsc>FALSE</ntsc>
                <timebase>25</timebase>
              </rate>
              <duration>2</duration>
              <width>1920</width>
              <height>1080</height>
              <media>
                <video>
                  <duration>2</duration>
                  <stillframe>TRUE</stillframe>
                  <samplecharacteristics>
                    <rate>
                      <ntsc>FALSE</ntsc>
                      <timebase>25</timebase>
                    </rate>
                    <width>1920</width>
                    <height>1080</height>
                    <pixelaspectratio>Square</pixelaspectratio>
                    <anamorphic>FALSE</anamorphic>
                  </samplecharacteristics>
                </video>
              </media>
            </file>
            <sourcetrack>
              <mediatype>video</mediatype>
            </sourcetrack>
            <fielddominance>none</fielddominance>
          </clipitem>
          <clipitem id="B.png532">
            <name>B.png</name>
            <duration>2</duration>
            <rate>
              <ntsc>FALSE</ntsc>
              <timebase>25</timebase>
            </rate>
            <in>91788</in>
            <out>91789</out>
            <start>1788</start>
            <end>1789</end>
            <pixelaspectratio>Square</pixelaspectratio>
            <stillframe>TRUE</stillframe>
            <anamorphic>FALSE</anamorphic>
            <alphatype>straight</alphatype>
            <masterclipid>B.png532</masterclipid>
            <file id="B">
              <name>B.png</name>
              <pathurl>D:/Codes/SynthLip/SynthLipN/bin/Debug/net6.0-windows/Skin/template/B.png</pathurl>
              <rate>
                <ntsc>FALSE</ntsc>
                <timebase>25</timebase>
              </rate>
              <duration>2</duration>
              <width>1920</width>
              <height>1080</height>
              <media>
                <video>
                  <duration>2</duration>
                  <stillframe>TRUE</stillframe>
                  <samplecharacteristics>
                    <rate>
                      <ntsc>FALSE</ntsc>
                      <timebase>25</timebase>
                    </rate>
                    <width>1920</width>
                    <height>1080</height>
                    <pixelaspectratio>Square</pixelaspectratio>
                    <anamorphic>FALSE</anamorphic>
                  </samplecharacteristics>
                </video>
              </media>
            </file>
            <sourcetrack>
              <mediatype>video</mediatype>
            </sourcetrack>
            <fielddominance>none</fielddominance>
          </clipitem>
          <clipitem id="B.png531">
            <name>B.png</name>
            <duration>2</duration>
            <rate>
              <ntsc>FALSE</ntsc>
              <timebase>25</timebase>
            </rate>
            <in>91786</in>
            <out>91787</out>
            <start>1786</start>
            <end>1787</end>
            <pixelaspectratio>Square</pixelaspectratio>
            <stillframe>TRUE</stillframe>
            <anamorphic>FALSE</anamorphic>
            <alphatype>straight</alphatype>
            <masterclipid>B.png531</masterclipid>
            <file id="B">
              <name>B.png</name>
              <pathurl>D:/Codes/SynthLip/SynthLipN/bin/Debug/net6.0-windows/Skin/template/B.png</pathurl>
              <rate>
                <ntsc>FALSE</ntsc>
                <timebase>25</timebase>
              </rate>
              <duration>2</duration>
              <width>1920</width>
              <height>1080</height>
              <media>
                <video>
                  <duration>2</duration>
                  <stillframe>TRUE</stillframe>
                  <samplecharacteristics>
                    <rate>
                      <ntsc>FALSE</ntsc>
                      <timebase>25</timebase>
                    </rate>
                    <width>1920</width>
                    <height>1080</height>
                    <pixelaspectratio>Square</pixelaspectratio>
                    <anamorphic>FALSE</anamorphic>
                  </samplecharacteristics>
                </video>
              </media>
            </file>
            <sourcetrack>
              <mediatype>video</mediatype>
            </sourcetrack>
            <fielddominance>none</fielddominance>
          </clipitem>
          <clipitem id="D.png530">
            <name>D.png</name>
            <duration>2</duration>
            <rate>
              <ntsc>FALSE</ntsc>
              <timebase>25</timebase>
            </rate>
            <in>91783</in>
            <out>91784</out>
            <start>1783</start>
            <end>1784</end>
            <pixelaspectratio>Square</pixelaspectratio>
            <stillframe>TRUE</stillframe>
            <anamorphic>FALSE</anamorphic>
            <alphatype>straight</alphatype>
            <masterclipid>D.png530</masterclipid>
            <file id="D">
              <name>D.png</name>
              <pathurl>D:/Codes/SynthLip/SynthLipN/bin/Debug/net6.0-windows/Skin/template/D.png</pathurl>
              <rate>
                <ntsc>FALSE</ntsc>
                <timebase>25</timebase>
              </rate>
              <duration>2</duration>
              <width>1920</width>
              <height>1080</height>
              <media>
                <video>
                  <duration>2</duration>
                  <stillframe>TRUE</stillframe>
                  <samplecharacteristics>
                    <rate>
                      <ntsc>FALSE</ntsc>
                      <timebase>25</timebase>
                    </rate>
                    <width>1920</width>
                    <height>1080</height>
                    <pixelaspectratio>Square</pixelaspectratio>
                    <anamorphic>FALSE</anamorphic>
                  </samplecharacteristics>
                </video>
              </media>
            </file>
            <sourcetrack>
              <mediatype>video</mediatype>
            </sourcetrack>
            <fielddominance>none</fielddominance>
          </clipitem>
          <clipitem id="B.png529">
            <name>B.png</name>
            <duration>2</duration>
            <rate>
              <ntsc>FALSE</ntsc>
              <timebase>25</timebase>
            </rate>
            <in>91780</in>
            <out>91781</out>
            <start>1780</start>
            <end>1781</end>
            <pixelaspectratio>Square</pixelaspectratio>
            <stillframe>TRUE</stillframe>
            <anamorphic>FALSE</anamorphic>
            <alphatype>straight</alphatype>
            <masterclipid>B.png529</masterclipid>
            <file id="B">
              <name>B.png</name>
              <pathurl>D:/Codes/SynthLip/SynthLipN/bin/Debug/net6.0-windows/Skin/template/B.png</pathurl>
              <rate>
                <ntsc>FALSE</ntsc>
                <timebase>25</timebase>
              </rate>
              <duration>2</duration>
              <width>1920</width>
              <height>1080</height>
              <media>
                <video>
                  <duration>2</duration>
                  <stillframe>TRUE</stillframe>
                  <samplecharacteristics>
                    <rate>
                      <ntsc>FALSE</ntsc>
                      <timebase>25</timebase>
                    </rate>
                    <width>1920</width>
                    <height>1080</height>
                    <pixelaspectratio>Square</pixelaspectratio>
                    <anamorphic>FALSE</anamorphic>
                  </samplecharacteristics>
                </video>
              </media>
            </file>
            <sourcetrack>
              <mediatype>video</mediatype>
            </sourcetrack>
            <fielddominance>none</fielddominance>
          </clipitem>
          <clipitem id="A.png528">
            <name>A.png</name>
            <duration>2</duration>
            <rate>
              <ntsc>FALSE</ntsc>
              <timebase>25</timebase>
            </rate>
            <in>91778</in>
            <out>91779</out>
            <start>1778</start>
            <end>1779</end>
            <pixelaspectratio>Square</pixelaspectratio>
            <stillframe>TRUE</stillframe>
            <anamorphic>FALSE</anamorphic>
            <alphatype>straight</alphatype>
            <masterclipid>A.png528</masterclipid>
            <file id="A">
              <name>A.png</name>
              <pathurl>D:/Codes/SynthLip/SynthLipN/bin/Debug/net6.0-windows/Skin/template/A.png</pathurl>
              <rate>
                <ntsc>FALSE</ntsc>
                <timebase>25</timebase>
              </rate>
              <duration>2</duration>
              <width>1920</width>
              <height>1080</height>
              <media>
                <video>
                  <duration>2</duration>
                  <stillframe>TRUE</stillframe>
                  <samplecharacteristics>
                    <rate>
                      <ntsc>FALSE</ntsc>
                      <timebase>25</timebase>
                    </rate>
                    <width>1920</width>
                    <height>1080</height>
                    <pixelaspectratio>Square</pixelaspectratio>
                    <anamorphic>FALSE</anamorphic>
                  </samplecharacteristics>
                </video>
              </media>
            </file>
            <sourcetrack>
              <mediatype>video</mediatype>
            </sourcetrack>
            <fielddominance>none</fielddominance>
          </clipitem>
          <clipitem id="E.png527">
            <name>E.png</name>
            <duration>5</duration>
            <rate>
              <ntsc>FALSE</ntsc>
              <timebase>25</timebase>
            </rate>
            <in>91772</in>
            <out>91776</out>
            <start>1772</start>
            <end>1776</end>
            <pixelaspectratio>Square</pixelaspectratio>
            <stillframe>TRUE</stillframe>
            <anamorphic>FALSE</anamorphic>
            <alphatype>straight</alphatype>
            <masterclipid>E.png527</masterclipid>
            <file id="E">
              <name>E.png</name>
              <pathurl>D:/Codes/SynthLip/SynthLipN/bin/Debug/net6.0-windows/Skin/template/E.png</pathurl>
              <rate>
                <ntsc>FALSE</ntsc>
                <timebase>25</timebase>
              </rate>
              <duration>2</duration>
              <width>1920</width>
              <height>1080</height>
              <media>
                <video>
                  <duration>2</duration>
                  <stillframe>TRUE</stillframe>
                  <samplecharacteristics>
                    <rate>
                      <ntsc>FALSE</ntsc>
                      <timebase>25</timebase>
                    </rate>
                    <width>1920</width>
                    <height>1080</height>
                    <pixelaspectratio>Square</pixelaspectratio>
                    <anamorphic>FALSE</anamorphic>
                  </samplecharacteristics>
                </video>
              </media>
            </file>
            <sourcetrack>
              <mediatype>video</mediatype>
            </sourcetrack>
            <fielddominance>none</fielddominance>
          </clipitem>
          <clipitem id="B.png524">
            <name>B.png</name>
            <duration>3</duration>
            <rate>
              <ntsc>FALSE</ntsc>
              <timebase>25</timebase>
            </rate>
            <in>91767</in>
            <out>91769</out>
            <start>1767</start>
            <end>1769</end>
            <pixelaspectratio>Square</pixelaspectratio>
            <stillframe>TRUE</stillframe>
            <anamorphic>FALSE</anamorphic>
            <alphatype>straight</alphatype>
            <masterclipid>B.png524</masterclipid>
            <file id="B">
              <name>B.png</name>
              <pathurl>D:/Codes/SynthLip/SynthLipN/bin/Debug/net6.0-windows/Skin/template/B.png</pathurl>
              <rate>
                <ntsc>FALSE</ntsc>
                <timebase>25</timebase>
              </rate>
              <duration>2</duration>
              <width>1920</width>
              <height>1080</height>
              <media>
                <video>
                  <duration>2</duration>
                  <stillframe>TRUE</stillframe>
                  <samplecharacteristics>
                    <rate>
                      <ntsc>FALSE</ntsc>
                      <timebase>25</timebase>
                    </rate>
                    <width>1920</width>
                    <height>1080</height>
                    <pixelaspectratio>Square</pixelaspectratio>
                    <anamorphic>FALSE</anamorphic>
                  </samplecharacteristics>
                </video>
              </media>
            </file>
            <sourcetrack>
              <mediatype>video</mediatype>
            </sourcetrack>
            <fielddominance>none</fielddominance>
          </clipitem>
          <clipitem id="A.png523">
            <name>A.png</name>
            <duration>3</duration>
            <rate>
              <ntsc>FALSE</ntsc>
              <timebase>25</timebase>
            </rate>
            <in>91763</in>
            <out>91765</out>
            <start>1763</start>
            <end>1765</end>
            <pixelaspectratio>Square</pixelaspectratio>
            <stillframe>TRUE</stillframe>
            <anamorphic>FALSE</anamorphic>
            <alphatype>straight</alphatype>
            <masterclipid>A.png523</masterclipid>
            <file id="A">
              <name>A.png</name>
              <pathurl>D:/Codes/SynthLip/SynthLipN/bin/Debug/net6.0-windows/Skin/template/A.png</pathurl>
              <rate>
                <ntsc>FALSE</ntsc>
                <timebase>25</timebase>
              </rate>
              <duration>2</duration>
              <width>1920</width>
              <height>1080</height>
              <media>
                <video>
                  <duration>2</duration>
                  <stillframe>TRUE</stillframe>
                  <samplecharacteristics>
                    <rate>
                      <ntsc>FALSE</ntsc>
                      <timebase>25</timebase>
                    </rate>
                    <width>1920</width>
                    <height>1080</height>
                    <pixelaspectratio>Square</pixelaspectratio>
                    <anamorphic>FALSE</anamorphic>
                  </samplecharacteristics>
                </video>
              </media>
            </file>
            <sourcetrack>
              <mediatype>video</mediatype>
            </sourcetrack>
            <fielddominance>none</fielddominance>
          </clipitem>
          <clipitem id="E.png522">
            <name>E.png</name>
            <duration>5</duration>
            <rate>
              <ntsc>FALSE</ntsc>
              <timebase>25</timebase>
            </rate>
            <in>91757</in>
            <out>91761</out>
            <start>1757</start>
            <end>1761</end>
            <pixelaspectratio>Square</pixelaspectratio>
            <stillframe>TRUE</stillframe>
            <anamorphic>FALSE</anamorphic>
            <alphatype>straight</alphatype>
            <masterclipid>E.png522</masterclipid>
            <file id="E">
              <name>E.png</name>
              <pathurl>D:/Codes/SynthLip/SynthLipN/bin/Debug/net6.0-windows/Skin/template/E.png</pathurl>
              <rate>
                <ntsc>FALSE</ntsc>
                <timebase>25</timebase>
              </rate>
              <duration>2</duration>
              <width>1920</width>
              <height>1080</height>
              <media>
                <video>
                  <duration>2</duration>
                  <stillframe>TRUE</stillframe>
                  <samplecharacteristics>
                    <rate>
                      <ntsc>FALSE</ntsc>
                      <timebase>25</timebase>
                    </rate>
                    <width>1920</width>
                    <height>1080</height>
                    <pixelaspectratio>Square</pixelaspectratio>
                    <anamorphic>FALSE</anamorphic>
                  </samplecharacteristics>
                </video>
              </media>
            </file>
            <sourcetrack>
              <mediatype>video</mediatype>
            </sourcetrack>
            <fielddominance>none</fielddominance>
          </clipitem>
          <clipitem id="C.png519">
            <name>C.png</name>
            <duration>2</duration>
            <rate>
              <ntsc>FALSE</ntsc>
              <timebase>25</timebase>
            </rate>
            <in>91753</in>
            <out>91754</out>
            <start>1753</start>
            <end>1754</end>
            <pixelaspectratio>Square</pixelaspectratio>
            <stillframe>TRUE</stillframe>
            <anamorphic>FALSE</anamorphic>
            <alphatype>straight</alphatype>
            <masterclipid>C.png519</masterclipid>
            <file id="C">
              <name>C.png</name>
              <pathurl>D:/Codes/SynthLip/SynthLipN/bin/Debug/net6.0-windows/Skin/template/C.png</pathurl>
              <rate>
                <ntsc>FALSE</ntsc>
                <timebase>25</timebase>
              </rate>
              <duration>2</duration>
              <width>1920</width>
              <height>1080</height>
              <media>
                <video>
                  <duration>2</duration>
                  <stillframe>TRUE</stillframe>
                  <samplecharacteristics>
                    <rate>
                      <ntsc>FALSE</ntsc>
                      <timebase>25</timebase>
                    </rate>
                    <width>1920</width>
                    <height>1080</height>
                    <pixelaspectratio>Square</pixelaspectratio>
                    <anamorphic>FALSE</anamorphic>
                  </samplecharacteristics>
                </video>
              </media>
            </file>
            <sourcetrack>
              <mediatype>video</mediatype>
            </sourcetrack>
            <fielddominance>none</fielddominance>
          </clipitem>
          <clipitem id="A.png518">
            <name>A.png</name>
            <duration>2</duration>
            <rate>
              <ntsc>FALSE</ntsc>
              <timebase>25</timebase>
            </rate>
            <in>91750</in>
            <out>91751</out>
            <start>1750</start>
            <end>1751</end>
            <pixelaspectratio>Square</pixelaspectratio>
            <stillframe>TRUE</stillframe>
            <anamorphic>FALSE</anamorphic>
            <alphatype>straight</alphatype>
            <masterclipid>A.png518</masterclipid>
            <file id="A">
              <name>A.png</name>
              <pathurl>D:/Codes/SynthLip/SynthLipN/bin/Debug/net6.0-windows/Skin/template/A.png</pathurl>
              <rate>
                <ntsc>FALSE</ntsc>
                <timebase>25</timebase>
              </rate>
              <duration>2</duration>
              <width>1920</width>
              <height>1080</height>
              <media>
                <video>
                  <duration>2</duration>
                  <stillframe>TRUE</stillframe>
                  <samplecharacteristics>
                    <rate>
                      <ntsc>FALSE</ntsc>
                      <timebase>25</timebase>
                    </rate>
                    <width>1920</width>
                    <height>1080</height>
                    <pixelaspectratio>Square</pixelaspectratio>
                    <anamorphic>FALSE</anamorphic>
                  </samplecharacteristics>
                </video>
              </media>
            </file>
            <sourcetrack>
              <mediatype>video</mediatype>
            </sourcetrack>
            <fielddominance>none</fielddominance>
          </clipitem>
          <clipitem id="A.png517">
            <name>A.png</name>
            <duration>2</duration>
            <rate>
              <ntsc>FALSE</ntsc>
              <timebase>25</timebase>
            </rate>
            <in>91748</in>
            <out>91749</out>
            <start>1748</start>
            <end>1749</end>
            <pixelaspectratio>Square</pixelaspectratio>
            <stillframe>TRUE</stillframe>
            <anamorphic>FALSE</anamorphic>
            <alphatype>straight</alphatype>
            <masterclipid>A.png517</masterclipid>
            <file id="A">
              <name>A.png</name>
              <pathurl>D:/Codes/SynthLip/SynthLipN/bin/Debug/net6.0-windows/Skin/template/A.png</pathurl>
              <rate>
                <ntsc>FALSE</ntsc>
                <timebase>25</timebase>
              </rate>
              <duration>2</duration>
              <width>1920</width>
              <height>1080</height>
              <media>
                <video>
                  <duration>2</duration>
                  <stillframe>TRUE</stillframe>
                  <samplecharacteristics>
                    <rate>
                      <ntsc>FALSE</ntsc>
                      <timebase>25</timebase>
                    </rate>
                    <width>1920</width>
                    <height>1080</height>
                    <pixelaspectratio>Square</pixelaspectratio>
                    <anamorphic>FALSE</anamorphic>
                  </samplecharacteristics>
                </video>
              </media>
            </file>
            <sourcetrack>
              <mediatype>video</mediatype>
            </sourcetrack>
            <fielddominance>none</fielddominance>
          </clipitem>
          <clipitem id="C.png516">
            <name>C.png</name>
            <duration>5</duration>
            <rate>
              <ntsc>FALSE</ntsc>
              <timebase>25</timebase>
            </rate>
            <in>91742</in>
            <out>91746</out>
            <start>1742</start>
            <end>1746</end>
            <pixelaspectratio>Square</pixelaspectratio>
            <stillframe>TRUE</stillframe>
            <anamorphic>FALSE</anamorphic>
            <alphatype>straight</alphatype>
            <masterclipid>C.png516</masterclipid>
            <file id="C">
              <name>C.png</name>
              <pathurl>D:/Codes/SynthLip/SynthLipN/bin/Debug/net6.0-windows/Skin/template/C.png</pathurl>
              <rate>
                <ntsc>FALSE</ntsc>
                <timebase>25</timebase>
              </rate>
              <duration>2</duration>
              <width>1920</width>
              <height>1080</height>
              <media>
                <video>
                  <duration>2</duration>
                  <stillframe>TRUE</stillframe>
                  <samplecharacteristics>
                    <rate>
                      <ntsc>FALSE</ntsc>
                      <timebase>25</timebase>
                    </rate>
                    <width>1920</width>
                    <height>1080</height>
                    <pixelaspectratio>Square</pixelaspectratio>
                    <anamorphic>FALSE</anamorphic>
                  </samplecharacteristics>
                </video>
              </media>
            </file>
            <sourcetrack>
              <mediatype>video</mediatype>
            </sourcetrack>
            <fielddominance>none</fielddominance>
          </clipitem>
          <clipitem id="C.png506">
            <name>C.png</name>
            <duration>5</duration>
            <rate>
              <ntsc>FALSE</ntsc>
              <timebase>25</timebase>
            </rate>
            <in>91727</in>
            <out>91731</out>
            <start>1727</start>
            <end>1731</end>
            <pixelaspectratio>Square</pixelaspectratio>
            <stillframe>TRUE</stillframe>
            <anamorphic>FALSE</anamorphic>
            <alphatype>straight</alphatype>
            <masterclipid>C.png506</masterclipid>
            <file id="C">
              <name>C.png</name>
              <pathurl>D:/Codes/SynthLip/SynthLipN/bin/Debug/net6.0-windows/Skin/template/C.png</pathurl>
              <rate>
                <ntsc>FALSE</ntsc>
                <timebase>25</timebase>
              </rate>
              <duration>2</duration>
              <width>1920</width>
              <height>1080</height>
              <media>
                <video>
                  <duration>2</duration>
                  <stillframe>TRUE</stillframe>
                  <samplecharacteristics>
                    <rate>
                      <ntsc>FALSE</ntsc>
                      <timebase>25</timebase>
                    </rate>
                    <width>1920</width>
                    <height>1080</height>
                    <pixelaspectratio>Square</pixelaspectratio>
                    <anamorphic>FALSE</anamorphic>
                  </samplecharacteristics>
                </video>
              </media>
            </file>
            <sourcetrack>
              <mediatype>video</mediatype>
            </sourcetrack>
            <fielddominance>none</fielddominance>
          </clipitem>
          <clipitem id="C.png501">
            <name>C.png</name>
            <duration>3</duration>
            <rate>
              <ntsc>FALSE</ntsc>
              <timebase>25</timebase>
            </rate>
            <in>91722</in>
            <out>91724</out>
            <start>1722</start>
            <end>1724</end>
            <pixelaspectratio>Square</pixelaspectratio>
            <stillframe>TRUE</stillframe>
            <anamorphic>FALSE</anamorphic>
            <alphatype>straight</alphatype>
            <masterclipid>C.png501</masterclipid>
            <file id="C">
              <name>C.png</name>
              <pathurl>D:/Codes/SynthLip/SynthLipN/bin/Debug/net6.0-windows/Skin/template/C.png</pathurl>
              <rate>
                <ntsc>FALSE</ntsc>
                <timebase>25</timebase>
              </rate>
              <duration>2</duration>
              <width>1920</width>
              <height>1080</height>
              <media>
                <video>
                  <duration>2</duration>
                  <stillframe>TRUE</stillframe>
                  <samplecharacteristics>
                    <rate>
                      <ntsc>FALSE</ntsc>
                      <timebase>25</timebase>
                    </rate>
                    <width>1920</width>
                    <height>1080</height>
                    <pixelaspectratio>Square</pixelaspectratio>
                    <anamorphic>FALSE</anamorphic>
                  </samplecharacteristics>
                </video>
              </media>
            </file>
            <sourcetrack>
              <mediatype>video</mediatype>
            </sourcetrack>
            <fielddominance>none</fielddominance>
          </clipitem>
          <clipitem id="A.png500">
            <name>A.png</name>
            <duration>3</duration>
            <rate>
              <ntsc>FALSE</ntsc>
              <timebase>25</timebase>
            </rate>
            <in>91718</in>
            <out>91720</out>
            <start>1718</start>
            <end>1720</end>
            <pixelaspectratio>Square</pixelaspectratio>
            <stillframe>TRUE</stillframe>
            <anamorphic>FALSE</anamorphic>
            <alphatype>straight</alphatype>
            <masterclipid>A.png500</masterclipid>
            <file id="A">
              <name>A.png</name>
              <pathurl>D:/Codes/SynthLip/SynthLipN/bin/Debug/net6.0-windows/Skin/template/A.png</pathurl>
              <rate>
                <ntsc>FALSE</ntsc>
                <timebase>25</timebase>
              </rate>
              <duration>2</duration>
              <width>1920</width>
              <height>1080</height>
              <media>
                <video>
                  <duration>2</duration>
                  <stillframe>TRUE</stillframe>
                  <samplecharacteristics>
                    <rate>
                      <ntsc>FALSE</ntsc>
                      <timebase>25</timebase>
                    </rate>
                    <width>1920</width>
                    <height>1080</height>
                    <pixelaspectratio>Square</pixelaspectratio>
                    <anamorphic>FALSE</anamorphic>
                  </samplecharacteristics>
                </video>
              </media>
            </file>
            <sourcetrack>
              <mediatype>video</mediatype>
            </sourcetrack>
            <fielddominance>none</fielddominance>
          </clipitem>
          <clipitem id="A.png499">
            <name>A.png</name>
            <duration>5</duration>
            <rate>
              <ntsc>FALSE</ntsc>
              <timebase>25</timebase>
            </rate>
            <in>91712</in>
            <out>91716</out>
            <start>1712</start>
            <end>1716</end>
            <pixelaspectratio>Square</pixelaspectratio>
            <stillframe>TRUE</stillframe>
            <anamorphic>FALSE</anamorphic>
            <alphatype>straight</alphatype>
            <masterclipid>A.png499</masterclipid>
            <file id="A">
              <name>A.png</name>
              <pathurl>D:/Codes/SynthLip/SynthLipN/bin/Debug/net6.0-windows/Skin/template/A.png</pathurl>
              <rate>
                <ntsc>FALSE</ntsc>
                <timebase>25</timebase>
              </rate>
              <duration>2</duration>
              <width>1920</width>
              <height>1080</height>
              <media>
                <video>
                  <duration>2</duration>
                  <stillframe>TRUE</stillframe>
                  <samplecharacteristics>
                    <rate>
                      <ntsc>FALSE</ntsc>
                      <timebase>25</timebase>
                    </rate>
                    <width>1920</width>
                    <height>1080</height>
                    <pixelaspectratio>Square</pixelaspectratio>
                    <anamorphic>FALSE</anamorphic>
                  </samplecharacteristics>
                </video>
              </media>
            </file>
            <sourcetrack>
              <mediatype>video</mediatype>
            </sourcetrack>
            <fielddominance>none</fielddominance>
          </clipitem>
          <clipitem id="C.png494">
            <name>C.png</name>
            <duration>2</duration>
            <rate>
              <ntsc>FALSE</ntsc>
              <timebase>25</timebase>
            </rate>
            <in>91708</in>
            <out>91709</out>
            <start>1708</start>
            <end>1709</end>
            <pixelaspectratio>Square</pixelaspectratio>
            <stillframe>TRUE</stillframe>
            <anamorphic>FALSE</anamorphic>
            <alphatype>straight</alphatype>
            <masterclipid>C.png494</masterclipid>
            <file id="C">
              <name>C.png</name>
              <pathurl>D:/Codes/SynthLip/SynthLipN/bin/Debug/net6.0-windows/Skin/template/C.png</pathurl>
              <rate>
                <ntsc>FALSE</ntsc>
                <timebase>25</timebase>
              </rate>
              <duration>2</duration>
              <width>1920</width>
              <height>1080</height>
              <media>
                <video>
                  <duration>2</duration>
                  <stillframe>TRUE</stillframe>
                  <samplecharacteristics>
                    <rate>
                      <ntsc>FALSE</ntsc>
                      <timebase>25</timebase>
                    </rate>
                    <width>1920</width>
                    <height>1080</height>
                    <pixelaspectratio>Square</pixelaspectratio>
                    <anamorphic>FALSE</anamorphic>
                  </samplecharacteristics>
                </video>
              </media>
            </file>
            <sourcetrack>
              <mediatype>video</mediatype>
            </sourcetrack>
            <fielddominance>none</fielddominance>
          </clipitem>
          <clipitem id="A.png493">
            <name>A.png</name>
            <duration>2</duration>
            <rate>
              <ntsc>FALSE</ntsc>
              <timebase>25</timebase>
            </rate>
            <in>91705</in>
            <out>91706</out>
            <start>1705</start>
            <end>1706</end>
            <pixelaspectratio>Square</pixelaspectratio>
            <stillframe>TRUE</stillframe>
            <anamorphic>FALSE</anamorphic>
            <alphatype>straight</alphatype>
            <masterclipid>A.png493</masterclipid>
            <file id="A">
              <name>A.png</name>
              <pathurl>D:/Codes/SynthLip/SynthLipN/bin/Debug/net6.0-windows/Skin/template/A.png</pathurl>
              <rate>
                <ntsc>FALSE</ntsc>
                <timebase>25</timebase>
              </rate>
              <duration>2</duration>
              <width>1920</width>
              <height>1080</height>
              <media>
                <video>
                  <duration>2</duration>
                  <stillframe>TRUE</stillframe>
                  <samplecharacteristics>
                    <rate>
                      <ntsc>FALSE</ntsc>
                      <timebase>25</timebase>
                    </rate>
                    <width>1920</width>
                    <height>1080</height>
                    <pixelaspectratio>Square</pixelaspectratio>
                    <anamorphic>FALSE</anamorphic>
                  </samplecharacteristics>
                </video>
              </media>
            </file>
            <sourcetrack>
              <mediatype>video</mediatype>
            </sourcetrack>
            <fielddominance>none</fielddominance>
          </clipitem>
          <clipitem id="D.png492">
            <name>D.png</name>
            <duration>2</duration>
            <rate>
              <ntsc>FALSE</ntsc>
              <timebase>25</timebase>
            </rate>
            <in>91703</in>
            <out>91704</out>
            <start>1703</start>
            <end>1704</end>
            <pixelaspectratio>Square</pixelaspectratio>
            <stillframe>TRUE</stillframe>
            <anamorphic>FALSE</anamorphic>
            <alphatype>straight</alphatype>
            <masterclipid>D.png492</masterclipid>
            <file id="D">
              <name>D.png</name>
              <pathurl>D:/Codes/SynthLip/SynthLipN/bin/Debug/net6.0-windows/Skin/template/D.png</pathurl>
              <rate>
                <ntsc>FALSE</ntsc>
                <timebase>25</timebase>
              </rate>
              <duration>2</duration>
              <width>1920</width>
              <height>1080</height>
              <media>
                <video>
                  <duration>2</duration>
                  <stillframe>TRUE</stillframe>
                  <samplecharacteristics>
                    <rate>
                      <ntsc>FALSE</ntsc>
                      <timebase>25</timebase>
                    </rate>
                    <width>1920</width>
                    <height>1080</height>
                    <pixelaspectratio>Square</pixelaspectratio>
                    <anamorphic>FALSE</anamorphic>
                  </samplecharacteristics>
                </video>
              </media>
            </file>
            <sourcetrack>
              <mediatype>video</mediatype>
            </sourcetrack>
            <fielddominance>none</fielddominance>
          </clipitem>
          <clipitem id="C.png491">
            <name>C.png</name>
            <duration>3</duration>
            <rate>
              <ntsc>FALSE</ntsc>
              <timebase>25</timebase>
            </rate>
            <in>91699</in>
            <out>91701</out>
            <start>1699</start>
            <end>1701</end>
            <pixelaspectratio>Square</pixelaspectratio>
            <stillframe>TRUE</stillframe>
            <anamorphic>FALSE</anamorphic>
            <alphatype>straight</alphatype>
            <masterclipid>C.png491</masterclipid>
            <file id="C">
              <name>C.png</name>
              <pathurl>D:/Codes/SynthLip/SynthLipN/bin/Debug/net6.0-windows/Skin/template/C.png</pathurl>
              <rate>
                <ntsc>FALSE</ntsc>
                <timebase>25</timebase>
              </rate>
              <duration>2</duration>
              <width>1920</width>
              <height>1080</height>
              <media>
                <video>
                  <duration>2</duration>
                  <stillframe>TRUE</stillframe>
                  <samplecharacteristics>
                    <rate>
                      <ntsc>FALSE</ntsc>
                      <timebase>25</timebase>
                    </rate>
                    <width>1920</width>
                    <height>1080</height>
                    <pixelaspectratio>Square</pixelaspectratio>
                    <anamorphic>FALSE</anamorphic>
                  </samplecharacteristics>
                </video>
              </media>
            </file>
            <sourcetrack>
              <mediatype>video</mediatype>
            </sourcetrack>
            <fielddominance>none</fielddominance>
          </clipitem>
          <clipitem id="C.png490">
            <name>C.png</name>
            <duration>3</duration>
            <rate>
              <ntsc>FALSE</ntsc>
              <timebase>25</timebase>
            </rate>
            <in>91695</in>
            <out>91697</out>
            <start>1695</start>
            <end>1697</end>
            <pixelaspectratio>Square</pixelaspectratio>
            <stillframe>TRUE</stillframe>
            <anamorphic>FALSE</anamorphic>
            <alphatype>straight</alphatype>
            <masterclipid>C.png490</masterclipid>
            <file id="C">
              <name>C.png</name>
              <pathurl>D:/Codes/SynthLip/SynthLipN/bin/Debug/net6.0-windows/Skin/template/C.png</pathurl>
              <rate>
                <ntsc>FALSE</ntsc>
                <timebase>25</timebase>
              </rate>
              <duration>2</duration>
              <width>1920</width>
              <height>1080</height>
              <media>
                <video>
                  <duration>2</duration>
                  <stillframe>TRUE</stillframe>
                  <samplecharacteristics>
                    <rate>
                      <ntsc>FALSE</ntsc>
                      <timebase>25</timebase>
                    </rate>
                    <width>1920</width>
                    <height>1080</height>
                    <pixelaspectratio>Square</pixelaspectratio>
                    <anamorphic>FALSE</anamorphic>
                  </samplecharacteristics>
                </video>
              </media>
            </file>
            <sourcetrack>
              <mediatype>video</mediatype>
            </sourcetrack>
            <fielddominance>none</fielddominance>
          </clipitem>
          <clipitem id="C.png489">
            <name>C.png</name>
            <duration>3</duration>
            <rate>
              <ntsc>FALSE</ntsc>
              <timebase>25</timebase>
            </rate>
            <in>91692</in>
            <out>91694</out>
            <start>1692</start>
            <end>1694</end>
            <pixelaspectratio>Square</pixelaspectratio>
            <stillframe>TRUE</stillframe>
            <anamorphic>FALSE</anamorphic>
            <alphatype>straight</alphatype>
            <masterclipid>C.png489</masterclipid>
            <file id="C">
              <name>C.png</name>
              <pathurl>D:/Codes/SynthLip/SynthLipN/bin/Debug/net6.0-windows/Skin/template/C.png</pathurl>
              <rate>
                <ntsc>FALSE</ntsc>
                <timebase>25</timebase>
              </rate>
              <duration>2</duration>
              <width>1920</width>
              <height>1080</height>
              <media>
                <video>
                  <duration>2</duration>
                  <stillframe>TRUE</stillframe>
                  <samplecharacteristics>
                    <rate>
                      <ntsc>FALSE</ntsc>
                      <timebase>25</timebase>
                    </rate>
                    <width>1920</width>
                    <height>1080</height>
                    <pixelaspectratio>Square</pixelaspectratio>
                    <anamorphic>FALSE</anamorphic>
                  </samplecharacteristics>
                </video>
              </media>
            </file>
            <sourcetrack>
              <mediatype>video</mediatype>
            </sourcetrack>
            <fielddominance>none</fielddominance>
          </clipitem>
          <clipitem id="A.png488">
            <name>A.png</name>
            <duration>3</duration>
            <rate>
              <ntsc>FALSE</ntsc>
              <timebase>25</timebase>
            </rate>
            <in>91688</in>
            <out>91690</out>
            <start>1688</start>
            <end>1690</end>
            <pixelaspectratio>Square</pixelaspectratio>
            <stillframe>TRUE</stillframe>
            <anamorphic>FALSE</anamorphic>
            <alphatype>straight</alphatype>
            <masterclipid>A.png488</masterclipid>
            <file id="A">
              <name>A.png</name>
              <pathurl>D:/Codes/SynthLip/SynthLipN/bin/Debug/net6.0-windows/Skin/template/A.png</pathurl>
              <rate>
                <ntsc>FALSE</ntsc>
                <timebase>25</timebase>
              </rate>
              <duration>2</duration>
              <width>1920</width>
              <height>1080</height>
              <media>
                <video>
                  <duration>2</duration>
                  <stillframe>TRUE</stillframe>
                  <samplecharacteristics>
                    <rate>
                      <ntsc>FALSE</ntsc>
                      <timebase>25</timebase>
                    </rate>
                    <width>1920</width>
                    <height>1080</height>
                    <pixelaspectratio>Square</pixelaspectratio>
                    <anamorphic>FALSE</anamorphic>
                  </samplecharacteristics>
                </video>
              </media>
            </file>
            <sourcetrack>
              <mediatype>video</mediatype>
            </sourcetrack>
            <fielddominance>none</fielddominance>
          </clipitem>
          <clipitem id="B.png487">
            <name>B.png</name>
            <duration>5</duration>
            <rate>
              <ntsc>FALSE</ntsc>
              <timebase>25</timebase>
            </rate>
            <in>91682</in>
            <out>91686</out>
            <start>1682</start>
            <end>1686</end>
            <pixelaspectratio>Square</pixelaspectratio>
            <stillframe>TRUE</stillframe>
            <anamorphic>FALSE</anamorphic>
            <alphatype>straight</alphatype>
            <masterclipid>B.png487</masterclipid>
            <file id="B">
              <name>B.png</name>
              <pathurl>D:/Codes/SynthLip/SynthLipN/bin/Debug/net6.0-windows/Skin/template/B.png</pathurl>
              <rate>
                <ntsc>FALSE</ntsc>
                <timebase>25</timebase>
              </rate>
              <duration>2</duration>
              <width>1920</width>
              <height>1080</height>
              <media>
                <video>
                  <duration>2</duration>
                  <stillframe>TRUE</stillframe>
                  <samplecharacteristics>
                    <rate>
                      <ntsc>FALSE</ntsc>
                      <timebase>25</timebase>
                    </rate>
                    <width>1920</width>
                    <height>1080</height>
                    <pixelaspectratio>Square</pixelaspectratio>
                    <anamorphic>FALSE</anamorphic>
                  </samplecharacteristics>
                </video>
              </media>
            </file>
            <sourcetrack>
              <mediatype>video</mediatype>
            </sourcetrack>
            <fielddominance>none</fielddominance>
          </clipitem>
          <clipitem id="C.png483">
            <name>C.png</name>
            <duration>3</duration>
            <rate>
              <ntsc>FALSE</ntsc>
              <timebase>25</timebase>
            </rate>
            <in>91677</in>
            <out>91679</out>
            <start>1677</start>
            <end>1679</end>
            <pixelaspectratio>Square</pixelaspectratio>
            <stillframe>TRUE</stillframe>
            <anamorphic>FALSE</anamorphic>
            <alphatype>straight</alphatype>
            <masterclipid>C.png483</masterclipid>
            <file id="C">
              <name>C.png</name>
              <pathurl>D:/Codes/SynthLip/SynthLipN/bin/Debug/net6.0-windows/Skin/template/C.png</pathurl>
              <rate>
                <ntsc>FALSE</ntsc>
                <timebase>25</timebase>
              </rate>
              <duration>2</duration>
              <width>1920</width>
              <height>1080</height>
              <media>
                <video>
                  <duration>2</duration>
                  <stillframe>TRUE</stillframe>
                  <samplecharacteristics>
                    <rate>
                      <ntsc>FALSE</ntsc>
                      <timebase>25</timebase>
                    </rate>
                    <width>1920</width>
                    <height>1080</height>
                    <pixelaspectratio>Square</pixelaspectratio>
                    <anamorphic>FALSE</anamorphic>
                  </samplecharacteristics>
                </video>
              </media>
            </file>
            <sourcetrack>
              <mediatype>video</mediatype>
            </sourcetrack>
            <fielddominance>none</fielddominance>
          </clipitem>
          <clipitem id="A.png482">
            <name>A.png</name>
            <duration>3</duration>
            <rate>
              <ntsc>FALSE</ntsc>
              <timebase>25</timebase>
            </rate>
            <in>91673</in>
            <out>91675</out>
            <start>1673</start>
            <end>1675</end>
            <pixelaspectratio>Square</pixelaspectratio>
            <stillframe>TRUE</stillframe>
            <anamorphic>FALSE</anamorphic>
            <alphatype>straight</alphatype>
            <masterclipid>A.png482</masterclipid>
            <file id="A">
              <name>A.png</name>
              <pathurl>D:/Codes/SynthLip/SynthLipN/bin/Debug/net6.0-windows/Skin/template/A.png</pathurl>
              <rate>
                <ntsc>FALSE</ntsc>
                <timebase>25</timebase>
              </rate>
              <duration>2</duration>
              <width>1920</width>
              <height>1080</height>
              <media>
                <video>
                  <duration>2</duration>
                  <stillframe>TRUE</stillframe>
                  <samplecharacteristics>
                    <rate>
                      <ntsc>FALSE</ntsc>
                      <timebase>25</timebase>
                    </rate>
                    <width>1920</width>
                    <height>1080</height>
                    <pixelaspectratio>Square</pixelaspectratio>
                    <anamorphic>FALSE</anamorphic>
                  </samplecharacteristics>
                </video>
              </media>
            </file>
            <sourcetrack>
              <mediatype>video</mediatype>
            </sourcetrack>
            <fielddominance>none</fielddominance>
          </clipitem>
          <clipitem id="B.png481">
            <name>B.png</name>
            <duration>3</duration>
            <rate>
              <ntsc>FALSE</ntsc>
              <timebase>25</timebase>
            </rate>
            <in>91669</in>
            <out>91671</out>
            <start>1669</start>
            <end>1671</end>
            <pixelaspectratio>Square</pixelaspectratio>
            <stillframe>TRUE</stillframe>
            <anamorphic>FALSE</anamorphic>
            <alphatype>straight</alphatype>
            <masterclipid>B.png481</masterclipid>
            <file id="B">
              <name>B.png</name>
              <pathurl>D:/Codes/SynthLip/SynthLipN/bin/Debug/net6.0-windows/Skin/template/B.png</pathurl>
              <rate>
                <ntsc>FALSE</ntsc>
                <timebase>25</timebase>
              </rate>
              <duration>2</duration>
              <width>1920</width>
              <height>1080</height>
              <media>
                <video>
                  <duration>2</duration>
                  <stillframe>TRUE</stillframe>
                  <samplecharacteristics>
                    <rate>
                      <ntsc>FALSE</ntsc>
                      <timebase>25</timebase>
                    </rate>
                    <width>1920</width>
                    <height>1080</height>
                    <pixelaspectratio>Square</pixelaspectratio>
                    <anamorphic>FALSE</anamorphic>
                  </samplecharacteristics>
                </video>
              </media>
            </file>
            <sourcetrack>
              <mediatype>video</mediatype>
            </sourcetrack>
            <fielddominance>none</fielddominance>
          </clipitem>
          <clipitem id="C.png475">
            <name>C.png</name>
            <duration>3</duration>
            <rate>
              <ntsc>FALSE</ntsc>
              <timebase>25</timebase>
            </rate>
            <in>91662</in>
            <out>91664</out>
            <start>1662</start>
            <end>1664</end>
            <pixelaspectratio>Square</pixelaspectratio>
            <stillframe>TRUE</stillframe>
            <anamorphic>FALSE</anamorphic>
            <alphatype>straight</alphatype>
            <masterclipid>C.png475</masterclipid>
            <file id="C">
              <name>C.png</name>
              <pathurl>D:/Codes/SynthLip/SynthLipN/bin/Debug/net6.0-windows/Skin/template/C.png</pathurl>
              <rate>
                <ntsc>FALSE</ntsc>
                <timebase>25</timebase>
              </rate>
              <duration>2</duration>
              <width>1920</width>
              <height>1080</height>
              <media>
                <video>
                  <duration>2</duration>
                  <stillframe>TRUE</stillframe>
                  <samplecharacteristics>
                    <rate>
                      <ntsc>FALSE</ntsc>
                      <timebase>25</timebase>
                    </rate>
                    <width>1920</width>
                    <height>1080</height>
                    <pixelaspectratio>Square</pixelaspectratio>
                    <anamorphic>FALSE</anamorphic>
                  </samplecharacteristics>
                </video>
              </media>
            </file>
            <sourcetrack>
              <mediatype>video</mediatype>
            </sourcetrack>
            <fielddominance>none</fielddominance>
          </clipitem>
          <clipitem id="A.png474">
            <name>A.png</name>
            <duration>3</duration>
            <rate>
              <ntsc>FALSE</ntsc>
              <timebase>25</timebase>
            </rate>
            <in>91658</in>
            <out>91660</out>
            <start>1658</start>
            <end>1660</end>
            <pixelaspectratio>Square</pixelaspectratio>
            <stillframe>TRUE</stillframe>
            <anamorphic>FALSE</anamorphic>
            <alphatype>straight</alphatype>
            <masterclipid>A.png474</masterclipid>
            <file id="A">
              <name>A.png</name>
              <pathurl>D:/Codes/SynthLip/SynthLipN/bin/Debug/net6.0-windows/Skin/template/A.png</pathurl>
              <rate>
                <ntsc>FALSE</ntsc>
                <timebase>25</timebase>
              </rate>
              <duration>2</duration>
              <width>1920</width>
              <height>1080</height>
              <media>
                <video>
                  <duration>2</duration>
                  <stillframe>TRUE</stillframe>
                  <samplecharacteristics>
                    <rate>
                      <ntsc>FALSE</ntsc>
                      <timebase>25</timebase>
                    </rate>
                    <width>1920</width>
                    <height>1080</height>
                    <pixelaspectratio>Square</pixelaspectratio>
                    <anamorphic>FALSE</anamorphic>
                  </samplecharacteristics>
                </video>
              </media>
            </file>
            <sourcetrack>
              <mediatype>video</mediatype>
            </sourcetrack>
            <fielddominance>none</fielddominance>
          </clipitem>
          <clipitem id="F.png473">
            <name>F.png</name>
            <duration>5</duration>
            <rate>
              <ntsc>FALSE</ntsc>
              <timebase>25</timebase>
            </rate>
            <in>91652</in>
            <out>91656</out>
            <start>1652</start>
            <end>1656</end>
            <pixelaspectratio>Square</pixelaspectratio>
            <stillframe>TRUE</stillframe>
            <anamorphic>FALSE</anamorphic>
            <alphatype>straight</alphatype>
            <masterclipid>F.png473</masterclipid>
            <file id="F">
              <name>F.png</name>
              <pathurl>D:/Codes/SynthLip/SynthLipN/bin/Debug/net6.0-windows/Skin/template/F.png</pathurl>
              <rate>
                <ntsc>FALSE</ntsc>
                <timebase>25</timebase>
              </rate>
              <duration>2</duration>
              <width>1920</width>
              <height>1080</height>
              <media>
                <video>
                  <duration>2</duration>
                  <stillframe>TRUE</stillframe>
                  <samplecharacteristics>
                    <rate>
                      <ntsc>FALSE</ntsc>
                      <timebase>25</timebase>
                    </rate>
                    <width>1920</width>
                    <height>1080</height>
                    <pixelaspectratio>Square</pixelaspectratio>
                    <anamorphic>FALSE</anamorphic>
                  </samplecharacteristics>
                </video>
              </media>
            </file>
            <sourcetrack>
              <mediatype>video</mediatype>
            </sourcetrack>
            <fielddominance>none</fielddominance>
          </clipitem>
          <clipitem id="C.png471">
            <name>C.png</name>
            <duration>2</duration>
            <rate>
              <ntsc>FALSE</ntsc>
              <timebase>25</timebase>
            </rate>
            <in>91649</in>
            <out>91650</out>
            <start>1649</start>
            <end>1650</end>
            <pixelaspectratio>Square</pixelaspectratio>
            <stillframe>TRUE</stillframe>
            <anamorphic>FALSE</anamorphic>
            <alphatype>straight</alphatype>
            <masterclipid>C.png471</masterclipid>
            <file id="C">
              <name>C.png</name>
              <pathurl>D:/Codes/SynthLip/SynthLipN/bin/Debug/net6.0-windows/Skin/template/C.png</pathurl>
              <rate>
                <ntsc>FALSE</ntsc>
                <timebase>25</timebase>
              </rate>
              <duration>2</duration>
              <width>1920</width>
              <height>1080</height>
              <media>
                <video>
                  <duration>2</duration>
                  <stillframe>TRUE</stillframe>
                  <samplecharacteristics>
                    <rate>
                      <ntsc>FALSE</ntsc>
                      <timebase>25</timebase>
                    </rate>
                    <width>1920</width>
                    <height>1080</height>
                    <pixelaspectratio>Square</pixelaspectratio>
                    <anamorphic>FALSE</anamorphic>
                  </samplecharacteristics>
                </video>
              </media>
            </file>
            <sourcetrack>
              <mediatype>video</mediatype>
            </sourcetrack>
            <fielddominance>none</fielddominance>
          </clipitem>
          <clipitem id="A.png470">
            <name>A.png</name>
            <duration>2</duration>
            <rate>
              <ntsc>FALSE</ntsc>
              <timebase>25</timebase>
            </rate>
            <in>91646</in>
            <out>91647</out>
            <start>1646</start>
            <end>1647</end>
            <pixelaspectratio>Square</pixelaspectratio>
            <stillframe>TRUE</stillframe>
            <anamorphic>FALSE</anamorphic>
            <alphatype>straight</alphatype>
            <masterclipid>A.png470</masterclipid>
            <file id="A">
              <name>A.png</name>
              <pathurl>D:/Codes/SynthLip/SynthLipN/bin/Debug/net6.0-windows/Skin/template/A.png</pathurl>
              <rate>
                <ntsc>FALSE</ntsc>
                <timebase>25</timebase>
              </rate>
              <duration>2</duration>
              <width>1920</width>
              <height>1080</height>
              <media>
                <video>
                  <duration>2</duration>
                  <stillframe>TRUE</stillframe>
                  <samplecharacteristics>
                    <rate>
                      <ntsc>FALSE</ntsc>
                      <timebase>25</timebase>
                    </rate>
                    <width>1920</width>
                    <height>1080</height>
                    <pixelaspectratio>Square</pixelaspectratio>
                    <anamorphic>FALSE</anamorphic>
                  </samplecharacteristics>
                </video>
              </media>
            </file>
            <sourcetrack>
              <mediatype>video</mediatype>
            </sourcetrack>
            <fielddominance>none</fielddominance>
          </clipitem>
          <clipitem id="A.png469">
            <name>A.png</name>
            <duration>2</duration>
            <rate>
              <ntsc>FALSE</ntsc>
              <timebase>25</timebase>
            </rate>
            <in>91643</in>
            <out>91644</out>
            <start>1643</start>
            <end>1644</end>
            <pixelaspectratio>Square</pixelaspectratio>
            <stillframe>TRUE</stillframe>
            <anamorphic>FALSE</anamorphic>
            <alphatype>straight</alphatype>
            <masterclipid>A.png469</masterclipid>
            <file id="A">
              <name>A.png</name>
              <pathurl>D:/Codes/SynthLip/SynthLipN/bin/Debug/net6.0-windows/Skin/template/A.png</pathurl>
              <rate>
                <ntsc>FALSE</ntsc>
                <timebase>25</timebase>
              </rate>
              <duration>2</duration>
              <width>1920</width>
              <height>1080</height>
              <media>
                <video>
                  <duration>2</duration>
                  <stillframe>TRUE</stillframe>
                  <samplecharacteristics>
                    <rate>
                      <ntsc>FALSE</ntsc>
                      <timebase>25</timebase>
                    </rate>
                    <width>1920</width>
                    <height>1080</height>
                    <pixelaspectratio>Square</pixelaspectratio>
                    <anamorphic>FALSE</anamorphic>
                  </samplecharacteristics>
                </video>
              </media>
            </file>
            <sourcetrack>
              <mediatype>video</mediatype>
            </sourcetrack>
            <fielddominance>none</fielddominance>
          </clipitem>
          <clipitem id="C.png468">
            <name>C.png</name>
            <duration>5</duration>
            <rate>
              <ntsc>FALSE</ntsc>
              <timebase>25</timebase>
            </rate>
            <in>91637</in>
            <out>91641</out>
            <start>1637</start>
            <end>1641</end>
            <pixelaspectratio>Square</pixelaspectratio>
            <stillframe>TRUE</stillframe>
            <anamorphic>FALSE</anamorphic>
            <alphatype>straight</alphatype>
            <masterclipid>C.png468</masterclipid>
            <file id="C">
              <name>C.png</name>
              <pathurl>D:/Codes/SynthLip/SynthLipN/bin/Debug/net6.0-windows/Skin/template/C.png</pathurl>
              <rate>
                <ntsc>FALSE</ntsc>
                <timebase>25</timebase>
              </rate>
              <duration>2</duration>
              <width>1920</width>
              <height>1080</height>
              <media>
                <video>
                  <duration>2</duration>
                  <stillframe>TRUE</stillframe>
                  <samplecharacteristics>
                    <rate>
                      <ntsc>FALSE</ntsc>
                      <timebase>25</timebase>
                    </rate>
                    <width>1920</width>
                    <height>1080</height>
                    <pixelaspectratio>Square</pixelaspectratio>
                    <anamorphic>FALSE</anamorphic>
                  </samplecharacteristics>
                </video>
              </media>
            </file>
            <sourcetrack>
              <mediatype>video</mediatype>
            </sourcetrack>
            <fielddominance>none</fielddominance>
          </clipitem>
          <clipitem id="C.png463">
            <name>C.png</name>
            <duration>2</duration>
            <rate>
              <ntsc>FALSE</ntsc>
              <timebase>25</timebase>
            </rate>
            <in>91633</in>
            <out>91634</out>
            <start>1633</start>
            <end>1634</end>
            <pixelaspectratio>Square</pixelaspectratio>
            <stillframe>TRUE</stillframe>
            <anamorphic>FALSE</anamorphic>
            <alphatype>straight</alphatype>
            <masterclipid>C.png463</masterclipid>
            <file id="C">
              <name>C.png</name>
              <pathurl>D:/Codes/SynthLip/SynthLipN/bin/Debug/net6.0-windows/Skin/template/C.png</pathurl>
              <rate>
                <ntsc>FALSE</ntsc>
                <timebase>25</timebase>
              </rate>
              <duration>2</duration>
              <width>1920</width>
              <height>1080</height>
              <media>
                <video>
                  <duration>2</duration>
                  <stillframe>TRUE</stillframe>
                  <samplecharacteristics>
                    <rate>
                      <ntsc>FALSE</ntsc>
                      <timebase>25</timebase>
                    </rate>
                    <width>1920</width>
                    <height>1080</height>
                    <pixelaspectratio>Square</pixelaspectratio>
                    <anamorphic>FALSE</anamorphic>
                  </samplecharacteristics>
                </video>
              </media>
            </file>
            <sourcetrack>
              <mediatype>video</mediatype>
            </sourcetrack>
            <fielddominance>none</fielddominance>
          </clipitem>
          <clipitem id="G.png462">
            <name>G.png</name>
            <duration>2</duration>
            <rate>
              <ntsc>FALSE</ntsc>
              <timebase>25</timebase>
            </rate>
            <in>91630</in>
            <out>91631</out>
            <start>1630</start>
            <end>1631</end>
            <pixelaspectratio>Square</pixelaspectratio>
            <stillframe>TRUE</stillframe>
            <anamorphic>FALSE</anamorphic>
            <alphatype>straight</alphatype>
            <masterclipid>G.png462</masterclipid>
            <file id="G">
              <name>G.png</name>
              <pathurl>D:/Codes/SynthLip/SynthLipN/bin/Debug/net6.0-windows/Skin/template/G.png</pathurl>
              <rate>
                <ntsc>FALSE</ntsc>
                <timebase>25</timebase>
              </rate>
              <duration>2</duration>
              <width>1920</width>
              <height>1080</height>
              <media>
                <video>
                  <duration>2</duration>
                  <stillframe>TRUE</stillframe>
                  <samplecharacteristics>
                    <rate>
                      <ntsc>FALSE</ntsc>
                      <timebase>25</timebase>
                    </rate>
                    <width>1920</width>
                    <height>1080</height>
                    <pixelaspectratio>Square</pixelaspectratio>
                    <anamorphic>FALSE</anamorphic>
                  </samplecharacteristics>
                </video>
              </media>
            </file>
            <sourcetrack>
              <mediatype>video</mediatype>
            </sourcetrack>
            <fielddominance>none</fielddominance>
          </clipitem>
          <clipitem id="A.png461">
            <name>A.png</name>
            <duration>2</duration>
            <rate>
              <ntsc>FALSE</ntsc>
              <timebase>25</timebase>
            </rate>
            <in>91628</in>
            <out>91629</out>
            <start>1628</start>
            <end>1629</end>
            <pixelaspectratio>Square</pixelaspectratio>
            <stillframe>TRUE</stillframe>
            <anamorphic>FALSE</anamorphic>
            <alphatype>straight</alphatype>
            <masterclipid>A.png461</masterclipid>
            <file id="A">
              <name>A.png</name>
              <pathurl>D:/Codes/SynthLip/SynthLipN/bin/Debug/net6.0-windows/Skin/template/A.png</pathurl>
              <rate>
                <ntsc>FALSE</ntsc>
                <timebase>25</timebase>
              </rate>
              <duration>2</duration>
              <width>1920</width>
              <height>1080</height>
              <media>
                <video>
                  <duration>2</duration>
                  <stillframe>TRUE</stillframe>
                  <samplecharacteristics>
                    <rate>
                      <ntsc>FALSE</ntsc>
                      <timebase>25</timebase>
                    </rate>
                    <width>1920</width>
                    <height>1080</height>
                    <pixelaspectratio>Square</pixelaspectratio>
                    <anamorphic>FALSE</anamorphic>
                  </samplecharacteristics>
                </video>
              </media>
            </file>
            <sourcetrack>
              <mediatype>video</mediatype>
            </sourcetrack>
            <fielddominance>none</fielddominance>
          </clipitem>
          <clipitem id="C.png460">
            <name>C.png</name>
            <duration>5</duration>
            <rate>
              <ntsc>FALSE</ntsc>
              <timebase>25</timebase>
            </rate>
            <in>91622</in>
            <out>91626</out>
            <start>1622</start>
            <end>1626</end>
            <pixelaspectratio>Square</pixelaspectratio>
            <stillframe>TRUE</stillframe>
            <anamorphic>FALSE</anamorphic>
            <alphatype>straight</alphatype>
            <masterclipid>C.png460</masterclipid>
            <file id="C">
              <name>C.png</name>
              <pathurl>D:/Codes/SynthLip/SynthLipN/bin/Debug/net6.0-windows/Skin/template/C.png</pathurl>
              <rate>
                <ntsc>FALSE</ntsc>
                <timebase>25</timebase>
              </rate>
              <duration>2</duration>
              <width>1920</width>
              <height>1080</height>
              <media>
                <video>
                  <duration>2</duration>
                  <stillframe>TRUE</stillframe>
                  <samplecharacteristics>
                    <rate>
                      <ntsc>FALSE</ntsc>
                      <timebase>25</timebase>
                    </rate>
                    <width>1920</width>
                    <height>1080</height>
                    <pixelaspectratio>Square</pixelaspectratio>
                    <anamorphic>FALSE</anamorphic>
                  </samplecharacteristics>
                </video>
              </media>
            </file>
            <sourcetrack>
              <mediatype>video</mediatype>
            </sourcetrack>
            <fielddominance>none</fielddominance>
          </clipitem>
          <clipitem id="C.png458">
            <name>C.png</name>
            <duration>2</duration>
            <rate>
              <ntsc>FALSE</ntsc>
              <timebase>25</timebase>
            </rate>
            <in>91618</in>
            <out>91619</out>
            <start>1618</start>
            <end>1619</end>
            <pixelaspectratio>Square</pixelaspectratio>
            <stillframe>TRUE</stillframe>
            <anamorphic>FALSE</anamorphic>
            <alphatype>straight</alphatype>
            <masterclipid>C.png458</masterclipid>
            <file id="C">
              <name>C.png</name>
              <pathurl>D:/Codes/SynthLip/SynthLipN/bin/Debug/net6.0-windows/Skin/template/C.png</pathurl>
              <rate>
                <ntsc>FALSE</ntsc>
                <timebase>25</timebase>
              </rate>
              <duration>2</duration>
              <width>1920</width>
              <height>1080</height>
              <media>
                <video>
                  <duration>2</duration>
                  <stillframe>TRUE</stillframe>
                  <samplecharacteristics>
                    <rate>
                      <ntsc>FALSE</ntsc>
                      <timebase>25</timebase>
                    </rate>
                    <width>1920</width>
                    <height>1080</height>
                    <pixelaspectratio>Square</pixelaspectratio>
                    <anamorphic>FALSE</anamorphic>
                  </samplecharacteristics>
                </video>
              </media>
            </file>
            <sourcetrack>
              <mediatype>video</mediatype>
            </sourcetrack>
            <fielddominance>none</fielddominance>
          </clipitem>
          <clipitem id="G.png457">
            <name>G.png</name>
            <duration>2</duration>
            <rate>
              <ntsc>FALSE</ntsc>
              <timebase>25</timebase>
            </rate>
            <in>91615</in>
            <out>91616</out>
            <start>1615</start>
            <end>1616</end>
            <pixelaspectratio>Square</pixelaspectratio>
            <stillframe>TRUE</stillframe>
            <anamorphic>FALSE</anamorphic>
            <alphatype>straight</alphatype>
            <masterclipid>G.png457</masterclipid>
            <file id="G">
              <name>G.png</name>
              <pathurl>D:/Codes/SynthLip/SynthLipN/bin/Debug/net6.0-windows/Skin/template/G.png</pathurl>
              <rate>
                <ntsc>FALSE</ntsc>
                <timebase>25</timebase>
              </rate>
              <duration>2</duration>
              <width>1920</width>
              <height>1080</height>
              <media>
                <video>
                  <duration>2</duration>
                  <stillframe>TRUE</stillframe>
                  <samplecharacteristics>
                    <rate>
                      <ntsc>FALSE</ntsc>
                      <timebase>25</timebase>
                    </rate>
                    <width>1920</width>
                    <height>1080</height>
                    <pixelaspectratio>Square</pixelaspectratio>
                    <anamorphic>FALSE</anamorphic>
                  </samplecharacteristics>
                </video>
              </media>
            </file>
            <sourcetrack>
              <mediatype>video</mediatype>
            </sourcetrack>
            <fielddominance>none</fielddominance>
          </clipitem>
          <clipitem id="A.png456">
            <name>A.png</name>
            <duration>2</duration>
            <rate>
              <ntsc>FALSE</ntsc>
              <timebase>25</timebase>
            </rate>
            <in>91613</in>
            <out>91614</out>
            <start>1613</start>
            <end>1614</end>
            <pixelaspectratio>Square</pixelaspectratio>
            <stillframe>TRUE</stillframe>
            <anamorphic>FALSE</anamorphic>
            <alphatype>straight</alphatype>
            <masterclipid>A.png456</masterclipid>
            <file id="A">
              <name>A.png</name>
              <pathurl>D:/Codes/SynthLip/SynthLipN/bin/Debug/net6.0-windows/Skin/template/A.png</pathurl>
              <rate>
                <ntsc>FALSE</ntsc>
                <timebase>25</timebase>
              </rate>
              <duration>2</duration>
              <width>1920</width>
              <height>1080</height>
              <media>
                <video>
                  <duration>2</duration>
                  <stillframe>TRUE</stillframe>
                  <samplecharacteristics>
                    <rate>
                      <ntsc>FALSE</ntsc>
                      <timebase>25</timebase>
                    </rate>
                    <width>1920</width>
                    <height>1080</height>
                    <pixelaspectratio>Square</pixelaspectratio>
                    <anamorphic>FALSE</anamorphic>
                  </samplecharacteristics>
                </video>
              </media>
            </file>
            <sourcetrack>
              <mediatype>video</mediatype>
            </sourcetrack>
            <fielddominance>none</fielddominance>
          </clipitem>
          <clipitem id="A.png455">
            <name>A.png</name>
            <duration>3</duration>
            <rate>
              <ntsc>FALSE</ntsc>
              <timebase>25</timebase>
            </rate>
            <in>91609</in>
            <out>91611</out>
            <start>1609</start>
            <end>1611</end>
            <pixelaspectratio>Square</pixelaspectratio>
            <stillframe>TRUE</stillframe>
            <anamorphic>FALSE</anamorphic>
            <alphatype>straight</alphatype>
            <masterclipid>A.png455</masterclipid>
            <file id="A">
              <name>A.png</name>
              <pathurl>D:/Codes/SynthLip/SynthLipN/bin/Debug/net6.0-windows/Skin/template/A.png</pathurl>
              <rate>
                <ntsc>FALSE</ntsc>
                <timebase>25</timebase>
              </rate>
              <duration>2</duration>
              <width>1920</width>
              <height>1080</height>
              <media>
                <video>
                  <duration>2</duration>
                  <stillframe>TRUE</stillframe>
                  <samplecharacteristics>
                    <rate>
                      <ntsc>FALSE</ntsc>
                      <timebase>25</timebase>
                    </rate>
                    <width>1920</width>
                    <height>1080</height>
                    <pixelaspectratio>Square</pixelaspectratio>
                    <anamorphic>FALSE</anamorphic>
                  </samplecharacteristics>
                </video>
              </media>
            </file>
            <sourcetrack>
              <mediatype>video</mediatype>
            </sourcetrack>
            <fielddominance>none</fielddominance>
          </clipitem>
          <clipitem id="C.png451">
            <name>C.png</name>
            <duration>2</duration>
            <rate>
              <ntsc>FALSE</ntsc>
              <timebase>25</timebase>
            </rate>
            <in>91603</in>
            <out>91604</out>
            <start>1603</start>
            <end>1604</end>
            <pixelaspectratio>Square</pixelaspectratio>
            <stillframe>TRUE</stillframe>
            <anamorphic>FALSE</anamorphic>
            <alphatype>straight</alphatype>
            <masterclipid>C.png451</masterclipid>
            <file id="C">
              <name>C.png</name>
              <pathurl>D:/Codes/SynthLip/SynthLipN/bin/Debug/net6.0-windows/Skin/template/C.png</pathurl>
              <rate>
                <ntsc>FALSE</ntsc>
                <timebase>25</timebase>
              </rate>
              <duration>2</duration>
              <width>1920</width>
              <height>1080</height>
              <media>
                <video>
                  <duration>2</duration>
                  <stillframe>TRUE</stillframe>
                  <samplecharacteristics>
                    <rate>
                      <ntsc>FALSE</ntsc>
                      <timebase>25</timebase>
                    </rate>
                    <width>1920</width>
                    <height>1080</height>
                    <pixelaspectratio>Square</pixelaspectratio>
                    <anamorphic>FALSE</anamorphic>
                  </samplecharacteristics>
                </video>
              </media>
            </file>
            <sourcetrack>
              <mediatype>video</mediatype>
            </sourcetrack>
            <fielddominance>none</fielddominance>
          </clipitem>
          <clipitem id="B.png450">
            <name>B.png</name>
            <duration>2</duration>
            <rate>
              <ntsc>FALSE</ntsc>
              <timebase>25</timebase>
            </rate>
            <in>91600</in>
            <out>91601</out>
            <start>1600</start>
            <end>1601</end>
            <pixelaspectratio>Square</pixelaspectratio>
            <stillframe>TRUE</stillframe>
            <anamorphic>FALSE</anamorphic>
            <alphatype>straight</alphatype>
            <masterclipid>B.png450</masterclipid>
            <file id="B">
              <name>B.png</name>
              <pathurl>D:/Codes/SynthLip/SynthLipN/bin/Debug/net6.0-windows/Skin/template/B.png</pathurl>
              <rate>
                <ntsc>FALSE</ntsc>
                <timebase>25</timebase>
              </rate>
              <duration>2</duration>
              <width>1920</width>
              <height>1080</height>
              <media>
                <video>
                  <duration>2</duration>
                  <stillframe>TRUE</stillframe>
                  <samplecharacteristics>
                    <rate>
                      <ntsc>FALSE</ntsc>
                      <timebase>25</timebase>
                    </rate>
                    <width>1920</width>
                    <height>1080</height>
                    <pixelaspectratio>Square</pixelaspectratio>
                    <anamorphic>FALSE</anamorphic>
                  </samplecharacteristics>
                </video>
              </media>
            </file>
            <sourcetrack>
              <mediatype>video</mediatype>
            </sourcetrack>
            <fielddominance>none</fielddominance>
          </clipitem>
          <clipitem id="A.png449">
            <name>A.png</name>
            <duration>2</duration>
            <rate>
              <ntsc>FALSE</ntsc>
              <timebase>25</timebase>
            </rate>
            <in>91598</in>
            <out>91599</out>
            <start>1598</start>
            <end>1599</end>
            <pixelaspectratio>Square</pixelaspectratio>
            <stillframe>TRUE</stillframe>
            <anamorphic>FALSE</anamorphic>
            <alphatype>straight</alphatype>
            <masterclipid>A.png449</masterclipid>
            <file id="A">
              <name>A.png</name>
              <pathurl>D:/Codes/SynthLip/SynthLipN/bin/Debug/net6.0-windows/Skin/template/A.png</pathurl>
              <rate>
                <ntsc>FALSE</ntsc>
                <timebase>25</timebase>
              </rate>
              <duration>2</duration>
              <width>1920</width>
              <height>1080</height>
              <media>
                <video>
                  <duration>2</duration>
                  <stillframe>TRUE</stillframe>
                  <samplecharacteristics>
                    <rate>
                      <ntsc>FALSE</ntsc>
                      <timebase>25</timebase>
                    </rate>
                    <width>1920</width>
                    <height>1080</height>
                    <pixelaspectratio>Square</pixelaspectratio>
                    <anamorphic>FALSE</anamorphic>
                  </samplecharacteristics>
                </video>
              </media>
            </file>
            <sourcetrack>
              <mediatype>video</mediatype>
            </sourcetrack>
            <fielddominance>none</fielddominance>
          </clipitem>
          <clipitem id="C.png448">
            <name>C.png</name>
            <duration>5</duration>
            <rate>
              <ntsc>FALSE</ntsc>
              <timebase>25</timebase>
            </rate>
            <in>91592</in>
            <out>91596</out>
            <start>1592</start>
            <end>1596</end>
            <pixelaspectratio>Square</pixelaspectratio>
            <stillframe>TRUE</stillframe>
            <anamorphic>FALSE</anamorphic>
            <alphatype>straight</alphatype>
            <masterclipid>C.png448</masterclipid>
            <file id="C">
              <name>C.png</name>
              <pathurl>D:/Codes/SynthLip/SynthLipN/bin/Debug/net6.0-windows/Skin/template/C.png</pathurl>
              <rate>
                <ntsc>FALSE</ntsc>
                <timebase>25</timebase>
              </rate>
              <duration>2</duration>
              <width>1920</width>
              <height>1080</height>
              <media>
                <video>
                  <duration>2</duration>
                  <stillframe>TRUE</stillframe>
                  <samplecharacteristics>
                    <rate>
                      <ntsc>FALSE</ntsc>
                      <timebase>25</timebase>
                    </rate>
                    <width>1920</width>
                    <height>1080</height>
                    <pixelaspectratio>Square</pixelaspectratio>
                    <anamorphic>FALSE</anamorphic>
                  </samplecharacteristics>
                </video>
              </media>
            </file>
            <sourcetrack>
              <mediatype>video</mediatype>
            </sourcetrack>
            <fielddominance>none</fielddominance>
          </clipitem>
          <clipitem id="B.png445">
            <name>B.png</name>
            <duration>3</duration>
            <rate>
              <ntsc>FALSE</ntsc>
              <timebase>25</timebase>
            </rate>
            <in>91587</in>
            <out>91589</out>
            <start>1587</start>
            <end>1589</end>
            <pixelaspectratio>Square</pixelaspectratio>
            <stillframe>TRUE</stillframe>
            <anamorphic>FALSE</anamorphic>
            <alphatype>straight</alphatype>
            <masterclipid>B.png445</masterclipid>
            <file id="B">
              <name>B.png</name>
              <pathurl>D:/Codes/SynthLip/SynthLipN/bin/Debug/net6.0-windows/Skin/template/B.png</pathurl>
              <rate>
                <ntsc>FALSE</ntsc>
                <timebase>25</timebase>
              </rate>
              <duration>2</duration>
              <width>1920</width>
              <height>1080</height>
              <media>
                <video>
                  <duration>2</duration>
                  <stillframe>TRUE</stillframe>
                  <samplecharacteristics>
                    <rate>
                      <ntsc>FALSE</ntsc>
                      <timebase>25</timebase>
                    </rate>
                    <width>1920</width>
                    <height>1080</height>
                    <pixelaspectratio>Square</pixelaspectratio>
                    <anamorphic>FALSE</anamorphic>
                  </samplecharacteristics>
                </video>
              </media>
            </file>
            <sourcetrack>
              <mediatype>video</mediatype>
            </sourcetrack>
            <fielddominance>none</fielddominance>
          </clipitem>
          <clipitem id="A.png444">
            <name>A.png</name>
            <duration>3</duration>
            <rate>
              <ntsc>FALSE</ntsc>
              <timebase>25</timebase>
            </rate>
            <in>91583</in>
            <out>91585</out>
            <start>1583</start>
            <end>1585</end>
            <pixelaspectratio>Square</pixelaspectratio>
            <stillframe>TRUE</stillframe>
            <anamorphic>FALSE</anamorphic>
            <alphatype>straight</alphatype>
            <masterclipid>A.png444</masterclipid>
            <file id="A">
              <name>A.png</name>
              <pathurl>D:/Codes/SynthLip/SynthLipN/bin/Debug/net6.0-windows/Skin/template/A.png</pathurl>
              <rate>
                <ntsc>FALSE</ntsc>
                <timebase>25</timebase>
              </rate>
              <duration>2</duration>
              <width>1920</width>
              <height>1080</height>
              <media>
                <video>
                  <duration>2</duration>
                  <stillframe>TRUE</stillframe>
                  <samplecharacteristics>
                    <rate>
                      <ntsc>FALSE</ntsc>
                      <timebase>25</timebase>
                    </rate>
                    <width>1920</width>
                    <height>1080</height>
                    <pixelaspectratio>Square</pixelaspectratio>
                    <anamorphic>FALSE</anamorphic>
                  </samplecharacteristics>
                </video>
              </media>
            </file>
            <sourcetrack>
              <mediatype>video</mediatype>
            </sourcetrack>
            <fielddominance>none</fielddominance>
          </clipitem>
          <clipitem id="C.png443">
            <name>C.png</name>
            <duration>5</duration>
            <rate>
              <ntsc>FALSE</ntsc>
              <timebase>25</timebase>
            </rate>
            <in>91577</in>
            <out>91581</out>
            <start>1577</start>
            <end>1581</end>
            <pixelaspectratio>Square</pixelaspectratio>
            <stillframe>TRUE</stillframe>
            <anamorphic>FALSE</anamorphic>
            <alphatype>straight</alphatype>
            <masterclipid>C.png443</masterclipid>
            <file id="C">
              <name>C.png</name>
              <pathurl>D:/Codes/SynthLip/SynthLipN/bin/Debug/net6.0-windows/Skin/template/C.png</pathurl>
              <rate>
                <ntsc>FALSE</ntsc>
                <timebase>25</timebase>
              </rate>
              <duration>2</duration>
              <width>1920</width>
              <height>1080</height>
              <media>
                <video>
                  <duration>2</duration>
                  <stillframe>TRUE</stillframe>
                  <samplecharacteristics>
                    <rate>
                      <ntsc>FALSE</ntsc>
                      <timebase>25</timebase>
                    </rate>
                    <width>1920</width>
                    <height>1080</height>
                    <pixelaspectratio>Square</pixelaspectratio>
                    <anamorphic>FALSE</anamorphic>
                  </samplecharacteristics>
                </video>
              </media>
            </file>
            <sourcetrack>
              <mediatype>video</mediatype>
            </sourcetrack>
            <fielddominance>none</fielddominance>
          </clipitem>
          <clipitem id="C.png439">
            <name>C.png</name>
            <duration>3</duration>
            <rate>
              <ntsc>FALSE</ntsc>
              <timebase>25</timebase>
            </rate>
            <in>91572</in>
            <out>91574</out>
            <start>1572</start>
            <end>1574</end>
            <pixelaspectratio>Square</pixelaspectratio>
            <stillframe>TRUE</stillframe>
            <anamorphic>FALSE</anamorphic>
            <alphatype>straight</alphatype>
            <masterclipid>C.png439</masterclipid>
            <file id="C">
              <name>C.png</name>
              <pathurl>D:/Codes/SynthLip/SynthLipN/bin/Debug/net6.0-windows/Skin/template/C.png</pathurl>
              <rate>
                <ntsc>FALSE</ntsc>
                <timebase>25</timebase>
              </rate>
              <duration>2</duration>
              <width>1920</width>
              <height>1080</height>
              <media>
                <video>
                  <duration>2</duration>
                  <stillframe>TRUE</stillframe>
                  <samplecharacteristics>
                    <rate>
                      <ntsc>FALSE</ntsc>
                      <timebase>25</timebase>
                    </rate>
                    <width>1920</width>
                    <height>1080</height>
                    <pixelaspectratio>Square</pixelaspectratio>
                    <anamorphic>FALSE</anamorphic>
                  </samplecharacteristics>
                </video>
              </media>
            </file>
            <sourcetrack>
              <mediatype>video</mediatype>
            </sourcetrack>
            <fielddominance>none</fielddominance>
          </clipitem>
          <clipitem id="A.png438">
            <name>A.png</name>
            <duration>3</duration>
            <rate>
              <ntsc>FALSE</ntsc>
              <timebase>25</timebase>
            </rate>
            <in>91568</in>
            <out>91570</out>
            <start>1568</start>
            <end>1570</end>
            <pixelaspectratio>Square</pixelaspectratio>
            <stillframe>TRUE</stillframe>
            <anamorphic>FALSE</anamorphic>
            <alphatype>straight</alphatype>
            <masterclipid>A.png438</masterclipid>
            <file id="A">
              <name>A.png</name>
              <pathurl>D:/Codes/SynthLip/SynthLipN/bin/Debug/net6.0-windows/Skin/template/A.png</pathurl>
              <rate>
                <ntsc>FALSE</ntsc>
                <timebase>25</timebase>
              </rate>
              <duration>2</duration>
              <width>1920</width>
              <height>1080</height>
              <media>
                <video>
                  <duration>2</duration>
                  <stillframe>TRUE</stillframe>
                  <samplecharacteristics>
                    <rate>
                      <ntsc>FALSE</ntsc>
                      <timebase>25</timebase>
                    </rate>
                    <width>1920</width>
                    <height>1080</height>
                    <pixelaspectratio>Square</pixelaspectratio>
                    <anamorphic>FALSE</anamorphic>
                  </samplecharacteristics>
                </video>
              </media>
            </file>
            <sourcetrack>
              <mediatype>video</mediatype>
            </sourcetrack>
            <fielddominance>none</fielddominance>
          </clipitem>
          <clipitem id="B.png437">
            <name>B.png</name>
            <duration>5</duration>
            <rate>
              <ntsc>FALSE</ntsc>
              <timebase>25</timebase>
            </rate>
            <in>91562</in>
            <out>91566</out>
            <start>1562</start>
            <end>1566</end>
            <pixelaspectratio>Square</pixelaspectratio>
            <stillframe>TRUE</stillframe>
            <anamorphic>FALSE</anamorphic>
            <alphatype>straight</alphatype>
            <masterclipid>B.png437</masterclipid>
            <file id="B">
              <name>B.png</name>
              <pathurl>D:/Codes/SynthLip/SynthLipN/bin/Debug/net6.0-windows/Skin/template/B.png</pathurl>
              <rate>
                <ntsc>FALSE</ntsc>
                <timebase>25</timebase>
              </rate>
              <duration>2</duration>
              <width>1920</width>
              <height>1080</height>
              <media>
                <video>
                  <duration>2</duration>
                  <stillframe>TRUE</stillframe>
                  <samplecharacteristics>
                    <rate>
                      <ntsc>FALSE</ntsc>
                      <timebase>25</timebase>
                    </rate>
                    <width>1920</width>
                    <height>1080</height>
                    <pixelaspectratio>Square</pixelaspectratio>
                    <anamorphic>FALSE</anamorphic>
                  </samplecharacteristics>
                </video>
              </media>
            </file>
            <sourcetrack>
              <mediatype>video</mediatype>
            </sourcetrack>
            <fielddominance>none</fielddominance>
          </clipitem>
          <clipitem id="A.png433">
            <name>A.png</name>
            <duration>7</duration>
            <rate>
              <ntsc>FALSE</ntsc>
              <timebase>25</timebase>
            </rate>
            <in>91553</in>
            <out>91559</out>
            <start>1553</start>
            <end>1559</end>
            <pixelaspectratio>Square</pixelaspectratio>
            <stillframe>TRUE</stillframe>
            <anamorphic>FALSE</anamorphic>
            <alphatype>straight</alphatype>
            <masterclipid>A.png433</masterclipid>
            <file id="A">
              <name>A.png</name>
              <pathurl>D:/Codes/SynthLip/SynthLipN/bin/Debug/net6.0-windows/Skin/template/A.png</pathurl>
              <rate>
                <ntsc>FALSE</ntsc>
                <timebase>25</timebase>
              </rate>
              <duration>2</duration>
              <width>1920</width>
              <height>1080</height>
              <media>
                <video>
                  <duration>2</duration>
                  <stillframe>TRUE</stillframe>
                  <samplecharacteristics>
                    <rate>
                      <ntsc>FALSE</ntsc>
                      <timebase>25</timebase>
                    </rate>
                    <width>1920</width>
                    <height>1080</height>
                    <pixelaspectratio>Square</pixelaspectratio>
                    <anamorphic>FALSE</anamorphic>
                  </samplecharacteristics>
                </video>
              </media>
            </file>
            <sourcetrack>
              <mediatype>video</mediatype>
            </sourcetrack>
            <fielddominance>none</fielddominance>
          </clipitem>
          <clipitem id="B.png432">
            <name>B.png</name>
            <duration>3</duration>
            <rate>
              <ntsc>FALSE</ntsc>
              <timebase>25</timebase>
            </rate>
            <in>91549</in>
            <out>91551</out>
            <start>1549</start>
            <end>1551</end>
            <pixelaspectratio>Square</pixelaspectratio>
            <stillframe>TRUE</stillframe>
            <anamorphic>FALSE</anamorphic>
            <alphatype>straight</alphatype>
            <masterclipid>B.png432</masterclipid>
            <file id="B">
              <name>B.png</name>
              <pathurl>D:/Codes/SynthLip/SynthLipN/bin/Debug/net6.0-windows/Skin/template/B.png</pathurl>
              <rate>
                <ntsc>FALSE</ntsc>
                <timebase>25</timebase>
              </rate>
              <duration>2</duration>
              <width>1920</width>
              <height>1080</height>
              <media>
                <video>
                  <duration>2</duration>
                  <stillframe>TRUE</stillframe>
                  <samplecharacteristics>
                    <rate>
                      <ntsc>FALSE</ntsc>
                      <timebase>25</timebase>
                    </rate>
                    <width>1920</width>
                    <height>1080</height>
                    <pixelaspectratio>Square</pixelaspectratio>
                    <anamorphic>FALSE</anamorphic>
                  </samplecharacteristics>
                </video>
              </media>
            </file>
            <sourcetrack>
              <mediatype>video</mediatype>
            </sourcetrack>
            <fielddominance>none</fielddominance>
          </clipitem>
          <clipitem id="C.png427">
            <name>C.png</name>
            <duration>3</duration>
            <rate>
              <ntsc>FALSE</ntsc>
              <timebase>25</timebase>
            </rate>
            <in>91542</in>
            <out>91544</out>
            <start>1542</start>
            <end>1544</end>
            <pixelaspectratio>Square</pixelaspectratio>
            <stillframe>TRUE</stillframe>
            <anamorphic>FALSE</anamorphic>
            <alphatype>straight</alphatype>
            <masterclipid>C.png427</masterclipid>
            <file id="C">
              <name>C.png</name>
              <pathurl>D:/Codes/SynthLip/SynthLipN/bin/Debug/net6.0-windows/Skin/template/C.png</pathurl>
              <rate>
                <ntsc>FALSE</ntsc>
                <timebase>25</timebase>
              </rate>
              <duration>2</duration>
              <width>1920</width>
              <height>1080</height>
              <media>
                <video>
                  <duration>2</duration>
                  <stillframe>TRUE</stillframe>
                  <samplecharacteristics>
                    <rate>
                      <ntsc>FALSE</ntsc>
                      <timebase>25</timebase>
                    </rate>
                    <width>1920</width>
                    <height>1080</height>
                    <pixelaspectratio>Square</pixelaspectratio>
                    <anamorphic>FALSE</anamorphic>
                  </samplecharacteristics>
                </video>
              </media>
            </file>
            <sourcetrack>
              <mediatype>video</mediatype>
            </sourcetrack>
            <fielddominance>none</fielddominance>
          </clipitem>
          <clipitem id="A.png426">
            <name>A.png</name>
            <duration>3</duration>
            <rate>
              <ntsc>FALSE</ntsc>
              <timebase>25</timebase>
            </rate>
            <in>91538</in>
            <out>91540</out>
            <start>1538</start>
            <end>1540</end>
            <pixelaspectratio>Square</pixelaspectratio>
            <stillframe>TRUE</stillframe>
            <anamorphic>FALSE</anamorphic>
            <alphatype>straight</alphatype>
            <masterclipid>A.png426</masterclipid>
            <file id="A">
              <name>A.png</name>
              <pathurl>D:/Codes/SynthLip/SynthLipN/bin/Debug/net6.0-windows/Skin/template/A.png</pathurl>
              <rate>
                <ntsc>FALSE</ntsc>
                <timebase>25</timebase>
              </rate>
              <duration>2</duration>
              <width>1920</width>
              <height>1080</height>
              <media>
                <video>
                  <duration>2</duration>
                  <stillframe>TRUE</stillframe>
                  <samplecharacteristics>
                    <rate>
                      <ntsc>FALSE</ntsc>
                      <timebase>25</timebase>
                    </rate>
                    <width>1920</width>
                    <height>1080</height>
                    <pixelaspectratio>Square</pixelaspectratio>
                    <anamorphic>FALSE</anamorphic>
                  </samplecharacteristics>
                </video>
              </media>
            </file>
            <sourcetrack>
              <mediatype>video</mediatype>
            </sourcetrack>
            <fielddominance>none</fielddominance>
          </clipitem>
          <clipitem id="B.png425">
            <name>B.png</name>
            <duration>5</duration>
            <rate>
              <ntsc>FALSE</ntsc>
              <timebase>25</timebase>
            </rate>
            <in>91532</in>
            <out>91536</out>
            <start>1532</start>
            <end>1536</end>
            <pixelaspectratio>Square</pixelaspectratio>
            <stillframe>TRUE</stillframe>
            <anamorphic>FALSE</anamorphic>
            <alphatype>straight</alphatype>
            <masterclipid>B.png425</masterclipid>
            <file id="B">
              <name>B.png</name>
              <pathurl>D:/Codes/SynthLip/SynthLipN/bin/Debug/net6.0-windows/Skin/template/B.png</pathurl>
              <rate>
                <ntsc>FALSE</ntsc>
                <timebase>25</timebase>
              </rate>
              <duration>2</duration>
              <width>1920</width>
              <height>1080</height>
              <media>
                <video>
                  <duration>2</duration>
                  <stillframe>TRUE</stillframe>
                  <samplecharacteristics>
                    <rate>
                      <ntsc>FALSE</ntsc>
                      <timebase>25</timebase>
                    </rate>
                    <width>1920</width>
                    <height>1080</height>
                    <pixelaspectratio>Square</pixelaspectratio>
                    <anamorphic>FALSE</anamorphic>
                  </samplecharacteristics>
                </video>
              </media>
            </file>
            <sourcetrack>
              <mediatype>video</mediatype>
            </sourcetrack>
            <fielddominance>none</fielddominance>
          </clipitem>
          <clipitem id="F.png421">
            <name>F.png</name>
            <duration>7</duration>
            <rate>
              <ntsc>FALSE</ntsc>
              <timebase>25</timebase>
            </rate>
            <in>91523</in>
            <out>91529</out>
            <start>1523</start>
            <end>1529</end>
            <pixelaspectratio>Square</pixelaspectratio>
            <stillframe>TRUE</stillframe>
            <anamorphic>FALSE</anamorphic>
            <alphatype>straight</alphatype>
            <masterclipid>F.png421</masterclipid>
            <file id="F">
              <name>F.png</name>
              <pathurl>D:/Codes/SynthLip/SynthLipN/bin/Debug/net6.0-windows/Skin/template/F.png</pathurl>
              <rate>
                <ntsc>FALSE</ntsc>
                <timebase>25</timebase>
              </rate>
              <duration>2</duration>
              <width>1920</width>
              <height>1080</height>
              <media>
                <video>
                  <duration>2</duration>
                  <stillframe>TRUE</stillframe>
                  <samplecharacteristics>
                    <rate>
                      <ntsc>FALSE</ntsc>
                      <timebase>25</timebase>
                    </rate>
                    <width>1920</width>
                    <height>1080</height>
                    <pixelaspectratio>Square</pixelaspectratio>
                    <anamorphic>FALSE</anamorphic>
                  </samplecharacteristics>
                </video>
              </media>
            </file>
            <sourcetrack>
              <mediatype>video</mediatype>
            </sourcetrack>
            <fielddominance>none</fielddominance>
          </clipitem>
          <clipitem id="G.png420">
            <name>G.png</name>
            <duration>2</duration>
            <rate>
              <ntsc>FALSE</ntsc>
              <timebase>25</timebase>
            </rate>
            <in>91520</in>
            <out>91521</out>
            <start>1520</start>
            <end>1521</end>
            <pixelaspectratio>Square</pixelaspectratio>
            <stillframe>TRUE</stillframe>
            <anamorphic>FALSE</anamorphic>
            <alphatype>straight</alphatype>
            <masterclipid>G.png420</masterclipid>
            <file id="G">
              <name>G.png</name>
              <pathurl>D:/Codes/SynthLip/SynthLipN/bin/Debug/net6.0-windows/Skin/template/G.png</pathurl>
              <rate>
                <ntsc>FALSE</ntsc>
                <timebase>25</timebase>
              </rate>
              <duration>2</duration>
              <width>1920</width>
              <height>1080</height>
              <media>
                <video>
                  <duration>2</duration>
                  <stillframe>TRUE</stillframe>
                  <samplecharacteristics>
                    <rate>
                      <ntsc>FALSE</ntsc>
                      <timebase>25</timebase>
                    </rate>
                    <width>1920</width>
                    <height>1080</height>
                    <pixelaspectratio>Square</pixelaspectratio>
                    <anamorphic>FALSE</anamorphic>
                  </samplecharacteristics>
                </video>
              </media>
            </file>
            <sourcetrack>
              <mediatype>video</mediatype>
            </sourcetrack>
            <fielddominance>none</fielddominance>
          </clipitem>
          <clipitem id="G.png419">
            <name>G.png</name>
            <duration>2</duration>
            <rate>
              <ntsc>FALSE</ntsc>
              <timebase>25</timebase>
            </rate>
            <in>91518</in>
            <out>91519</out>
            <start>1518</start>
            <end>1519</end>
            <pixelaspectratio>Square</pixelaspectratio>
            <stillframe>TRUE</stillframe>
            <anamorphic>FALSE</anamorphic>
            <alphatype>straight</alphatype>
            <masterclipid>G.png419</masterclipid>
            <file id="G">
              <name>G.png</name>
              <pathurl>D:/Codes/SynthLip/SynthLipN/bin/Debug/net6.0-windows/Skin/template/G.png</pathurl>
              <rate>
                <ntsc>FALSE</ntsc>
                <timebase>25</timebase>
              </rate>
              <duration>2</duration>
              <width>1920</width>
              <height>1080</height>
              <media>
                <video>
                  <duration>2</duration>
                  <stillframe>TRUE</stillframe>
                  <samplecharacteristics>
                    <rate>
                      <ntsc>FALSE</ntsc>
                      <timebase>25</timebase>
                    </rate>
                    <width>1920</width>
                    <height>1080</height>
                    <pixelaspectratio>Square</pixelaspectratio>
                    <anamorphic>FALSE</anamorphic>
                  </samplecharacteristics>
                </video>
              </media>
            </file>
            <sourcetrack>
              <mediatype>video</mediatype>
            </sourcetrack>
            <fielddominance>none</fielddominance>
          </clipitem>
          <clipitem id="C.png418">
            <name>C.png</name>
            <duration>2</duration>
            <rate>
              <ntsc>FALSE</ntsc>
              <timebase>25</timebase>
            </rate>
            <in>91515</in>
            <out>91516</out>
            <start>1515</start>
            <end>1516</end>
            <pixelaspectratio>Square</pixelaspectratio>
            <stillframe>TRUE</stillframe>
            <anamorphic>FALSE</anamorphic>
            <alphatype>straight</alphatype>
            <masterclipid>C.png418</masterclipid>
            <file id="C">
              <name>C.png</name>
              <pathurl>D:/Codes/SynthLip/SynthLipN/bin/Debug/net6.0-windows/Skin/template/C.png</pathurl>
              <rate>
                <ntsc>FALSE</ntsc>
                <timebase>25</timebase>
              </rate>
              <duration>2</duration>
              <width>1920</width>
              <height>1080</height>
              <media>
                <video>
                  <duration>2</duration>
                  <stillframe>TRUE</stillframe>
                  <samplecharacteristics>
                    <rate>
                      <ntsc>FALSE</ntsc>
                      <timebase>25</timebase>
                    </rate>
                    <width>1920</width>
                    <height>1080</height>
                    <pixelaspectratio>Square</pixelaspectratio>
                    <anamorphic>FALSE</anamorphic>
                  </samplecharacteristics>
                </video>
              </media>
            </file>
            <sourcetrack>
              <mediatype>video</mediatype>
            </sourcetrack>
            <fielddominance>none</fielddominance>
          </clipitem>
          <clipitem id="F.png417">
            <name>F.png</name>
            <duration>3</duration>
            <rate>
              <ntsc>FALSE</ntsc>
              <timebase>25</timebase>
            </rate>
            <in>91512</in>
            <out>91514</out>
            <start>1512</start>
            <end>1514</end>
            <pixelaspectratio>Square</pixelaspectratio>
            <stillframe>TRUE</stillframe>
            <anamorphic>FALSE</anamorphic>
            <alphatype>straight</alphatype>
            <masterclipid>F.png417</masterclipid>
            <file id="F">
              <name>F.png</name>
              <pathurl>D:/Codes/SynthLip/SynthLipN/bin/Debug/net6.0-windows/Skin/template/F.png</pathurl>
              <rate>
                <ntsc>FALSE</ntsc>
                <timebase>25</timebase>
              </rate>
              <duration>2</duration>
              <width>1920</width>
              <height>1080</height>
              <media>
                <video>
                  <duration>2</duration>
                  <stillframe>TRUE</stillframe>
                  <samplecharacteristics>
                    <rate>
                      <ntsc>FALSE</ntsc>
                      <timebase>25</timebase>
                    </rate>
                    <width>1920</width>
                    <height>1080</height>
                    <pixelaspectratio>Square</pixelaspectratio>
                    <anamorphic>FALSE</anamorphic>
                  </samplecharacteristics>
                </video>
              </media>
            </file>
            <sourcetrack>
              <mediatype>video</mediatype>
            </sourcetrack>
            <fielddominance>none</fielddominance>
          </clipitem>
          <clipitem id="A.png416">
            <name>A.png</name>
            <duration>3</duration>
            <rate>
              <ntsc>FALSE</ntsc>
              <timebase>25</timebase>
            </rate>
            <in>91508</in>
            <out>91510</out>
            <start>1508</start>
            <end>1510</end>
            <pixelaspectratio>Square</pixelaspectratio>
            <stillframe>TRUE</stillframe>
            <anamorphic>FALSE</anamorphic>
            <alphatype>straight</alphatype>
            <masterclipid>A.png416</masterclipid>
            <file id="A">
              <name>A.png</name>
              <pathurl>D:/Codes/SynthLip/SynthLipN/bin/Debug/net6.0-windows/Skin/template/A.png</pathurl>
              <rate>
                <ntsc>FALSE</ntsc>
                <timebase>25</timebase>
              </rate>
              <duration>2</duration>
              <width>1920</width>
              <height>1080</height>
              <media>
                <video>
                  <duration>2</duration>
                  <stillframe>TRUE</stillframe>
                  <samplecharacteristics>
                    <rate>
                      <ntsc>FALSE</ntsc>
                      <timebase>25</timebase>
                    </rate>
                    <width>1920</width>
                    <height>1080</height>
                    <pixelaspectratio>Square</pixelaspectratio>
                    <anamorphic>FALSE</anamorphic>
                  </samplecharacteristics>
                </video>
              </media>
            </file>
            <sourcetrack>
              <mediatype>video</mediatype>
            </sourcetrack>
            <fielddominance>none</fielddominance>
          </clipitem>
          <clipitem id="G.png415">
            <name>G.png</name>
            <duration>5</duration>
            <rate>
              <ntsc>FALSE</ntsc>
              <timebase>25</timebase>
            </rate>
            <in>91502</in>
            <out>91506</out>
            <start>1502</start>
            <end>1506</end>
            <pixelaspectratio>Square</pixelaspectratio>
            <stillframe>TRUE</stillframe>
            <anamorphic>FALSE</anamorphic>
            <alphatype>straight</alphatype>
            <masterclipid>G.png415</masterclipid>
            <file id="G">
              <name>G.png</name>
              <pathurl>D:/Codes/SynthLip/SynthLipN/bin/Debug/net6.0-windows/Skin/template/G.png</pathurl>
              <rate>
                <ntsc>FALSE</ntsc>
                <timebase>25</timebase>
              </rate>
              <duration>2</duration>
              <width>1920</width>
              <height>1080</height>
              <media>
                <video>
                  <duration>2</duration>
                  <stillframe>TRUE</stillframe>
                  <samplecharacteristics>
                    <rate>
                      <ntsc>FALSE</ntsc>
                      <timebase>25</timebase>
                    </rate>
                    <width>1920</width>
                    <height>1080</height>
                    <pixelaspectratio>Square</pixelaspectratio>
                    <anamorphic>FALSE</anamorphic>
                  </samplecharacteristics>
                </video>
              </media>
            </file>
            <sourcetrack>
              <mediatype>video</mediatype>
            </sourcetrack>
            <fielddominance>none</fielddominance>
          </clipitem>
          <clipitem id="B.png409">
            <name>B.png</name>
            <duration>4</duration>
            <rate>
              <ntsc>FALSE</ntsc>
              <timebase>25</timebase>
            </rate>
            <in>91493</in>
            <out>91496</out>
            <start>1493</start>
            <end>1496</end>
            <pixelaspectratio>Square</pixelaspectratio>
            <stillframe>TRUE</stillframe>
            <anamorphic>FALSE</anamorphic>
            <alphatype>straight</alphatype>
            <masterclipid>B.png409</masterclipid>
            <file id="B">
              <name>B.png</name>
              <pathurl>D:/Codes/SynthLip/SynthLipN/bin/Debug/net6.0-windows/Skin/template/B.png</pathurl>
              <rate>
                <ntsc>FALSE</ntsc>
                <timebase>25</timebase>
              </rate>
              <duration>2</duration>
              <width>1920</width>
              <height>1080</height>
              <media>
                <video>
                  <duration>2</duration>
                  <stillframe>TRUE</stillframe>
                  <samplecharacteristics>
                    <rate>
                      <ntsc>FALSE</ntsc>
                      <timebase>25</timebase>
                    </rate>
                    <width>1920</width>
                    <height>1080</height>
                    <pixelaspectratio>Square</pixelaspectratio>
                    <anamorphic>FALSE</anamorphic>
                  </samplecharacteristics>
                </video>
              </media>
            </file>
            <sourcetrack>
              <mediatype>video</mediatype>
            </sourcetrack>
            <fielddominance>none</fielddominance>
          </clipitem>
          <clipitem id="E.png402">
            <name>E.png</name>
            <duration>4</duration>
            <rate>
              <ntsc>FALSE</ntsc>
              <timebase>25</timebase>
            </rate>
            <in>91478</in>
            <out>91481</out>
            <start>1478</start>
            <end>1481</end>
            <pixelaspectratio>Square</pixelaspectratio>
            <stillframe>TRUE</stillframe>
            <anamorphic>FALSE</anamorphic>
            <alphatype>straight</alphatype>
            <masterclipid>E.png402</masterclipid>
            <file id="E">
              <name>E.png</name>
              <pathurl>D:/Codes/SynthLip/SynthLipN/bin/Debug/net6.0-windows/Skin/template/E.png</pathurl>
              <rate>
                <ntsc>FALSE</ntsc>
                <timebase>25</timebase>
              </rate>
              <duration>2</duration>
              <width>1920</width>
              <height>1080</height>
              <media>
                <video>
                  <duration>2</duration>
                  <stillframe>TRUE</stillframe>
                  <samplecharacteristics>
                    <rate>
                      <ntsc>FALSE</ntsc>
                      <timebase>25</timebase>
                    </rate>
                    <width>1920</width>
                    <height>1080</height>
                    <pixelaspectratio>Square</pixelaspectratio>
                    <anamorphic>FALSE</anamorphic>
                  </samplecharacteristics>
                </video>
              </media>
            </file>
            <sourcetrack>
              <mediatype>video</mediatype>
            </sourcetrack>
            <fielddominance>none</fielddominance>
          </clipitem>
          <clipitem id="B.png401">
            <name>B.png</name>
            <duration>3</duration>
            <rate>
              <ntsc>FALSE</ntsc>
              <timebase>25</timebase>
            </rate>
            <in>91474</in>
            <out>91476</out>
            <start>1474</start>
            <end>1476</end>
            <pixelaspectratio>Square</pixelaspectratio>
            <stillframe>TRUE</stillframe>
            <anamorphic>FALSE</anamorphic>
            <alphatype>straight</alphatype>
            <masterclipid>B.png401</masterclipid>
            <file id="B">
              <name>B.png</name>
              <pathurl>D:/Codes/SynthLip/SynthLipN/bin/Debug/net6.0-windows/Skin/template/B.png</pathurl>
              <rate>
                <ntsc>FALSE</ntsc>
                <timebase>25</timebase>
              </rate>
              <duration>2</duration>
              <width>1920</width>
              <height>1080</height>
              <media>
                <video>
                  <duration>2</duration>
                  <stillframe>TRUE</stillframe>
                  <samplecharacteristics>
                    <rate>
                      <ntsc>FALSE</ntsc>
                      <timebase>25</timebase>
                    </rate>
                    <width>1920</width>
                    <height>1080</height>
                    <pixelaspectratio>Square</pixelaspectratio>
                    <anamorphic>FALSE</anamorphic>
                  </samplecharacteristics>
                </video>
              </media>
            </file>
            <sourcetrack>
              <mediatype>video</mediatype>
            </sourcetrack>
            <fielddominance>none</fielddominance>
          </clipitem>
          <clipitem id="A.png400">
            <name>A.png</name>
            <duration>3</duration>
            <rate>
              <ntsc>FALSE</ntsc>
              <timebase>25</timebase>
            </rate>
            <in>91470</in>
            <out>91472</out>
            <start>1470</start>
            <end>1472</end>
            <pixelaspectratio>Square</pixelaspectratio>
            <stillframe>TRUE</stillframe>
            <anamorphic>FALSE</anamorphic>
            <alphatype>straight</alphatype>
            <masterclipid>A.png400</masterclipid>
            <file id="A">
              <name>A.png</name>
              <pathurl>D:/Codes/SynthLip/SynthLipN/bin/Debug/net6.0-windows/Skin/template/A.png</pathurl>
              <rate>
                <ntsc>FALSE</ntsc>
                <timebase>25</timebase>
              </rate>
              <duration>2</duration>
              <width>1920</width>
              <height>1080</height>
              <media>
                <video>
                  <duration>2</duration>
                  <stillframe>TRUE</stillframe>
                  <samplecharacteristics>
                    <rate>
                      <ntsc>FALSE</ntsc>
                      <timebase>25</timebase>
                    </rate>
                    <width>1920</width>
                    <height>1080</height>
                    <pixelaspectratio>Square</pixelaspectratio>
                    <anamorphic>FALSE</anamorphic>
                  </samplecharacteristics>
                </video>
              </media>
            </file>
            <sourcetrack>
              <mediatype>video</mediatype>
            </sourcetrack>
            <fielddominance>none</fielddominance>
          </clipitem>
          <clipitem id="C.png395">
            <name>C.png</name>
            <duration>5</duration>
            <rate>
              <ntsc>FALSE</ntsc>
              <timebase>25</timebase>
            </rate>
            <in>91457</in>
            <out>91461</out>
            <start>1457</start>
            <end>1461</end>
            <pixelaspectratio>Square</pixelaspectratio>
            <stillframe>TRUE</stillframe>
            <anamorphic>FALSE</anamorphic>
            <alphatype>straight</alphatype>
            <masterclipid>C.png395</masterclipid>
            <file id="C">
              <name>C.png</name>
              <pathurl>D:/Codes/SynthLip/SynthLipN/bin/Debug/net6.0-windows/Skin/template/C.png</pathurl>
              <rate>
                <ntsc>FALSE</ntsc>
                <timebase>25</timebase>
              </rate>
              <duration>2</duration>
              <width>1920</width>
              <height>1080</height>
              <media>
                <video>
                  <duration>2</duration>
                  <stillframe>TRUE</stillframe>
                  <samplecharacteristics>
                    <rate>
                      <ntsc>FALSE</ntsc>
                      <timebase>25</timebase>
                    </rate>
                    <width>1920</width>
                    <height>1080</height>
                    <pixelaspectratio>Square</pixelaspectratio>
                    <anamorphic>FALSE</anamorphic>
                  </samplecharacteristics>
                </video>
              </media>
            </file>
            <sourcetrack>
              <mediatype>video</mediatype>
            </sourcetrack>
            <fielddominance>none</fielddominance>
          </clipitem>
          <clipitem id="B.png386">
            <name>B.png</name>
            <duration>28</duration>
            <rate>
              <ntsc>FALSE</ntsc>
              <timebase>25</timebase>
            </rate>
            <in>91422</in>
            <out>91449</out>
            <start>1422</start>
            <end>1449</end>
            <pixelaspectratio>Square</pixelaspectratio>
            <stillframe>TRUE</stillframe>
            <anamorphic>FALSE</anamorphic>
            <alphatype>straight</alphatype>
            <masterclipid>B.png386</masterclipid>
            <file id="B">
              <name>B.png</name>
              <pathurl>D:/Codes/SynthLip/SynthLipN/bin/Debug/net6.0-windows/Skin/template/B.png</pathurl>
              <rate>
                <ntsc>FALSE</ntsc>
                <timebase>25</timebase>
              </rate>
              <duration>2</duration>
              <width>1920</width>
              <height>1080</height>
              <media>
                <video>
                  <duration>2</duration>
                  <stillframe>TRUE</stillframe>
                  <samplecharacteristics>
                    <rate>
                      <ntsc>FALSE</ntsc>
                      <timebase>25</timebase>
                    </rate>
                    <width>1920</width>
                    <height>1080</height>
                    <pixelaspectratio>Square</pixelaspectratio>
                    <anamorphic>FALSE</anamorphic>
                  </samplecharacteristics>
                </video>
              </media>
            </file>
            <sourcetrack>
              <mediatype>video</mediatype>
            </sourcetrack>
            <fielddominance>none</fielddominance>
          </clipitem>
          <clipitem id="C.png385">
            <name>C.png</name>
            <duration>3</duration>
            <rate>
              <ntsc>FALSE</ntsc>
              <timebase>25</timebase>
            </rate>
            <in>91418</in>
            <out>91420</out>
            <start>1418</start>
            <end>1420</end>
            <pixelaspectratio>Square</pixelaspectratio>
            <stillframe>TRUE</stillframe>
            <anamorphic>FALSE</anamorphic>
            <alphatype>straight</alphatype>
            <masterclipid>C.png385</masterclipid>
            <file id="C">
              <name>C.png</name>
              <pathurl>D:/Codes/SynthLip/SynthLipN/bin/Debug/net6.0-windows/Skin/template/C.png</pathurl>
              <rate>
                <ntsc>FALSE</ntsc>
                <timebase>25</timebase>
              </rate>
              <duration>2</duration>
              <width>1920</width>
              <height>1080</height>
              <media>
                <video>
                  <duration>2</duration>
                  <stillframe>TRUE</stillframe>
                  <samplecharacteristics>
                    <rate>
                      <ntsc>FALSE</ntsc>
                      <timebase>25</timebase>
                    </rate>
                    <width>1920</width>
                    <height>1080</height>
                    <pixelaspectratio>Square</pixelaspectratio>
                    <anamorphic>FALSE</anamorphic>
                  </samplecharacteristics>
                </video>
              </media>
            </file>
            <sourcetrack>
              <mediatype>video</mediatype>
            </sourcetrack>
            <fielddominance>none</fielddominance>
          </clipitem>
          <clipitem id="F.png384">
            <name>F.png</name>
            <duration>3</duration>
            <rate>
              <ntsc>FALSE</ntsc>
              <timebase>25</timebase>
            </rate>
            <in>91414</in>
            <out>91416</out>
            <start>1414</start>
            <end>1416</end>
            <pixelaspectratio>Square</pixelaspectratio>
            <stillframe>TRUE</stillframe>
            <anamorphic>FALSE</anamorphic>
            <alphatype>straight</alphatype>
            <masterclipid>F.png384</masterclipid>
            <file id="F">
              <name>F.png</name>
              <pathurl>D:/Codes/SynthLip/SynthLipN/bin/Debug/net6.0-windows/Skin/template/F.png</pathurl>
              <rate>
                <ntsc>FALSE</ntsc>
                <timebase>25</timebase>
              </rate>
              <duration>2</duration>
              <width>1920</width>
              <height>1080</height>
              <media>
                <video>
                  <duration>2</duration>
                  <stillframe>TRUE</stillframe>
                  <samplecharacteristics>
                    <rate>
                      <ntsc>FALSE</ntsc>
                      <timebase>25</timebase>
                    </rate>
                    <width>1920</width>
                    <height>1080</height>
                    <pixelaspectratio>Square</pixelaspectratio>
                    <anamorphic>FALSE</anamorphic>
                  </samplecharacteristics>
                </video>
              </media>
            </file>
            <sourcetrack>
              <mediatype>video</mediatype>
            </sourcetrack>
            <fielddominance>none</fielddominance>
          </clipitem>
          <clipitem id="A.png383">
            <name>A.png</name>
            <duration>3</duration>
            <rate>
              <ntsc>FALSE</ntsc>
              <timebase>25</timebase>
            </rate>
            <in>91410</in>
            <out>91412</out>
            <start>1410</start>
            <end>1412</end>
            <pixelaspectratio>Square</pixelaspectratio>
            <stillframe>TRUE</stillframe>
            <anamorphic>FALSE</anamorphic>
            <alphatype>straight</alphatype>
            <masterclipid>A.png383</masterclipid>
            <file id="A">
              <name>A.png</name>
              <pathurl>D:/Codes/SynthLip/SynthLipN/bin/Debug/net6.0-windows/Skin/template/A.png</pathurl>
              <rate>
                <ntsc>FALSE</ntsc>
                <timebase>25</timebase>
              </rate>
              <duration>2</duration>
              <width>1920</width>
              <height>1080</height>
              <media>
                <video>
                  <duration>2</duration>
                  <stillframe>TRUE</stillframe>
                  <samplecharacteristics>
                    <rate>
                      <ntsc>FALSE</ntsc>
                      <timebase>25</timebase>
                    </rate>
                    <width>1920</width>
                    <height>1080</height>
                    <pixelaspectratio>Square</pixelaspectratio>
                    <anamorphic>FALSE</anamorphic>
                  </samplecharacteristics>
                </video>
              </media>
            </file>
            <sourcetrack>
              <mediatype>video</mediatype>
            </sourcetrack>
            <fielddominance>none</fielddominance>
          </clipitem>
          <clipitem id="A.png382">
            <name>A.png</name>
            <duration>3</duration>
            <rate>
              <ntsc>FALSE</ntsc>
              <timebase>25</timebase>
            </rate>
            <in>91407</in>
            <out>91409</out>
            <start>1407</start>
            <end>1409</end>
            <pixelaspectratio>Square</pixelaspectratio>
            <stillframe>TRUE</stillframe>
            <anamorphic>FALSE</anamorphic>
            <alphatype>straight</alphatype>
            <masterclipid>A.png382</masterclipid>
            <file id="A">
              <name>A.png</name>
              <pathurl>D:/Codes/SynthLip/SynthLipN/bin/Debug/net6.0-windows/Skin/template/A.png</pathurl>
              <rate>
                <ntsc>FALSE</ntsc>
                <timebase>25</timebase>
              </rate>
              <duration>2</duration>
              <width>1920</width>
              <height>1080</height>
              <media>
                <video>
                  <duration>2</duration>
                  <stillframe>TRUE</stillframe>
                  <samplecharacteristics>
                    <rate>
                      <ntsc>FALSE</ntsc>
                      <timebase>25</timebase>
                    </rate>
                    <width>1920</width>
                    <height>1080</height>
                    <pixelaspectratio>Square</pixelaspectratio>
                    <anamorphic>FALSE</anamorphic>
                  </samplecharacteristics>
                </video>
              </media>
            </file>
            <sourcetrack>
              <mediatype>video</mediatype>
            </sourcetrack>
            <fielddominance>none</fielddominance>
          </clipitem>
          <clipitem id="B.png378">
            <name>B.png</name>
            <duration>5</duration>
            <rate>
              <ntsc>FALSE</ntsc>
              <timebase>25</timebase>
            </rate>
            <in>91397</in>
            <out>91401</out>
            <start>1397</start>
            <end>1401</end>
            <pixelaspectratio>Square</pixelaspectratio>
            <stillframe>TRUE</stillframe>
            <anamorphic>FALSE</anamorphic>
            <alphatype>straight</alphatype>
            <masterclipid>B.png378</masterclipid>
            <file id="B">
              <name>B.png</name>
              <pathurl>D:/Codes/SynthLip/SynthLipN/bin/Debug/net6.0-windows/Skin/template/B.png</pathurl>
              <rate>
                <ntsc>FALSE</ntsc>
                <timebase>25</timebase>
              </rate>
              <duration>2</duration>
              <width>1920</width>
              <height>1080</height>
              <media>
                <video>
                  <duration>2</duration>
                  <stillframe>TRUE</stillframe>
                  <samplecharacteristics>
                    <rate>
                      <ntsc>FALSE</ntsc>
                      <timebase>25</timebase>
                    </rate>
                    <width>1920</width>
                    <height>1080</height>
                    <pixelaspectratio>Square</pixelaspectratio>
                    <anamorphic>FALSE</anamorphic>
                  </samplecharacteristics>
                </video>
              </media>
            </file>
            <sourcetrack>
              <mediatype>video</mediatype>
            </sourcetrack>
            <fielddominance>none</fielddominance>
          </clipitem>
          <clipitem id="F.png375">
            <name>F.png</name>
            <duration>11</duration>
            <rate>
              <ntsc>FALSE</ntsc>
              <timebase>25</timebase>
            </rate>
            <in>91384</in>
            <out>91394</out>
            <start>1384</start>
            <end>1394</end>
            <pixelaspectratio>Square</pixelaspectratio>
            <stillframe>TRUE</stillframe>
            <anamorphic>FALSE</anamorphic>
            <alphatype>straight</alphatype>
            <masterclipid>F.png375</masterclipid>
            <file id="F">
              <name>F.png</name>
              <pathurl>D:/Codes/SynthLip/SynthLipN/bin/Debug/net6.0-windows/Skin/template/F.png</pathurl>
              <rate>
                <ntsc>FALSE</ntsc>
                <timebase>25</timebase>
              </rate>
              <duration>2</duration>
              <width>1920</width>
              <height>1080</height>
              <media>
                <video>
                  <duration>2</duration>
                  <stillframe>TRUE</stillframe>
                  <samplecharacteristics>
                    <rate>
                      <ntsc>FALSE</ntsc>
                      <timebase>25</timebase>
                    </rate>
                    <width>1920</width>
                    <height>1080</height>
                    <pixelaspectratio>Square</pixelaspectratio>
                    <anamorphic>FALSE</anamorphic>
                  </samplecharacteristics>
                </video>
              </media>
            </file>
            <sourcetrack>
              <mediatype>video</mediatype>
            </sourcetrack>
            <fielddominance>none</fielddominance>
          </clipitem>
          <clipitem id="B.png372">
            <name>B.png</name>
            <duration>3</duration>
            <rate>
              <ntsc>FALSE</ntsc>
              <timebase>25</timebase>
            </rate>
            <in>91377</in>
            <out>91379</out>
            <start>1377</start>
            <end>1379</end>
            <pixelaspectratio>Square</pixelaspectratio>
            <stillframe>TRUE</stillframe>
            <anamorphic>FALSE</anamorphic>
            <alphatype>straight</alphatype>
            <masterclipid>B.png372</masterclipid>
            <file id="B">
              <name>B.png</name>
              <pathurl>D:/Codes/SynthLip/SynthLipN/bin/Debug/net6.0-windows/Skin/template/B.png</pathurl>
              <rate>
                <ntsc>FALSE</ntsc>
                <timebase>25</timebase>
              </rate>
              <duration>2</duration>
              <width>1920</width>
              <height>1080</height>
              <media>
                <video>
                  <duration>2</duration>
                  <stillframe>TRUE</stillframe>
                  <samplecharacteristics>
                    <rate>
                      <ntsc>FALSE</ntsc>
                      <timebase>25</timebase>
                    </rate>
                    <width>1920</width>
                    <height>1080</height>
                    <pixelaspectratio>Square</pixelaspectratio>
                    <anamorphic>FALSE</anamorphic>
                  </samplecharacteristics>
                </video>
              </media>
            </file>
            <sourcetrack>
              <mediatype>video</mediatype>
            </sourcetrack>
            <fielddominance>none</fielddominance>
          </clipitem>
          <clipitem id="B.png369">
            <name>B.png</name>
            <duration>5</duration>
            <rate>
              <ntsc>FALSE</ntsc>
              <timebase>25</timebase>
            </rate>
            <in>91367</in>
            <out>91371</out>
            <start>1367</start>
            <end>1371</end>
            <pixelaspectratio>Square</pixelaspectratio>
            <stillframe>TRUE</stillframe>
            <anamorphic>FALSE</anamorphic>
            <alphatype>straight</alphatype>
            <masterclipid>B.png369</masterclipid>
            <file id="B">
              <name>B.png</name>
              <pathurl>D:/Codes/SynthLip/SynthLipN/bin/Debug/net6.0-windows/Skin/template/B.png</pathurl>
              <rate>
                <ntsc>FALSE</ntsc>
                <timebase>25</timebase>
              </rate>
              <duration>2</duration>
              <width>1920</width>
              <height>1080</height>
              <media>
                <video>
                  <duration>2</duration>
                  <stillframe>TRUE</stillframe>
                  <samplecharacteristics>
                    <rate>
                      <ntsc>FALSE</ntsc>
                      <timebase>25</timebase>
                    </rate>
                    <width>1920</width>
                    <height>1080</height>
                    <pixelaspectratio>Square</pixelaspectratio>
                    <anamorphic>FALSE</anamorphic>
                  </samplecharacteristics>
                </video>
              </media>
            </file>
            <sourcetrack>
              <mediatype>video</mediatype>
            </sourcetrack>
            <fielddominance>none</fielddominance>
          </clipitem>
          <clipitem id="B.png366">
            <name>B.png</name>
            <duration>3</duration>
            <rate>
              <ntsc>FALSE</ntsc>
              <timebase>25</timebase>
            </rate>
            <in>91362</in>
            <out>91364</out>
            <start>1362</start>
            <end>1364</end>
            <pixelaspectratio>Square</pixelaspectratio>
            <stillframe>TRUE</stillframe>
            <anamorphic>FALSE</anamorphic>
            <alphatype>straight</alphatype>
            <masterclipid>B.png366</masterclipid>
            <file id="B">
              <name>B.png</name>
              <pathurl>D:/Codes/SynthLip/SynthLipN/bin/Debug/net6.0-windows/Skin/template/B.png</pathurl>
              <rate>
                <ntsc>FALSE</ntsc>
                <timebase>25</timebase>
              </rate>
              <duration>2</duration>
              <width>1920</width>
              <height>1080</height>
              <media>
                <video>
                  <duration>2</duration>
                  <stillframe>TRUE</stillframe>
                  <samplecharacteristics>
                    <rate>
                      <ntsc>FALSE</ntsc>
                      <timebase>25</timebase>
                    </rate>
                    <width>1920</width>
                    <height>1080</height>
                    <pixelaspectratio>Square</pixelaspectratio>
                    <anamorphic>FALSE</anamorphic>
                  </samplecharacteristics>
                </video>
              </media>
            </file>
            <sourcetrack>
              <mediatype>video</mediatype>
            </sourcetrack>
            <fielddominance>none</fielddominance>
          </clipitem>
          <clipitem id="B.png365">
            <name>B.png</name>
            <duration>3</duration>
            <rate>
              <ntsc>FALSE</ntsc>
              <timebase>25</timebase>
            </rate>
            <in>91358</in>
            <out>91360</out>
            <start>1358</start>
            <end>1360</end>
            <pixelaspectratio>Square</pixelaspectratio>
            <stillframe>TRUE</stillframe>
            <anamorphic>FALSE</anamorphic>
            <alphatype>straight</alphatype>
            <masterclipid>B.png365</masterclipid>
            <file id="B">
              <name>B.png</name>
              <pathurl>D:/Codes/SynthLip/SynthLipN/bin/Debug/net6.0-windows/Skin/template/B.png</pathurl>
              <rate>
                <ntsc>FALSE</ntsc>
                <timebase>25</timebase>
              </rate>
              <duration>2</duration>
              <width>1920</width>
              <height>1080</height>
              <media>
                <video>
                  <duration>2</duration>
                  <stillframe>TRUE</stillframe>
                  <samplecharacteristics>
                    <rate>
                      <ntsc>FALSE</ntsc>
                      <timebase>25</timebase>
                    </rate>
                    <width>1920</width>
                    <height>1080</height>
                    <pixelaspectratio>Square</pixelaspectratio>
                    <anamorphic>FALSE</anamorphic>
                  </samplecharacteristics>
                </video>
              </media>
            </file>
            <sourcetrack>
              <mediatype>video</mediatype>
            </sourcetrack>
            <fielddominance>none</fielddominance>
          </clipitem>
          <clipitem id="A.png364">
            <name>A.png</name>
            <duration>3</duration>
            <rate>
              <ntsc>FALSE</ntsc>
              <timebase>25</timebase>
            </rate>
            <in>91354</in>
            <out>91356</out>
            <start>1354</start>
            <end>1356</end>
            <pixelaspectratio>Square</pixelaspectratio>
            <stillframe>TRUE</stillframe>
            <anamorphic>FALSE</anamorphic>
            <alphatype>straight</alphatype>
            <masterclipid>A.png364</masterclipid>
            <file id="A">
              <name>A.png</name>
              <pathurl>D:/Codes/SynthLip/SynthLipN/bin/Debug/net6.0-windows/Skin/template/A.png</pathurl>
              <rate>
                <ntsc>FALSE</ntsc>
                <timebase>25</timebase>
              </rate>
              <duration>2</duration>
              <width>1920</width>
              <height>1080</height>
              <media>
                <video>
                  <duration>2</duration>
                  <stillframe>TRUE</stillframe>
                  <samplecharacteristics>
                    <rate>
                      <ntsc>FALSE</ntsc>
                      <timebase>25</timebase>
                    </rate>
                    <width>1920</width>
                    <height>1080</height>
                    <pixelaspectratio>Square</pixelaspectratio>
                    <anamorphic>FALSE</anamorphic>
                  </samplecharacteristics>
                </video>
              </media>
            </file>
            <sourcetrack>
              <mediatype>video</mediatype>
            </sourcetrack>
            <fielddominance>none</fielddominance>
          </clipitem>
          <clipitem id="F.png363">
            <name>F.png</name>
            <duration>5</duration>
            <rate>
              <ntsc>FALSE</ntsc>
              <timebase>25</timebase>
            </rate>
            <in>91349</in>
            <out>91353</out>
            <start>1349</start>
            <end>1353</end>
            <pixelaspectratio>Square</pixelaspectratio>
            <stillframe>TRUE</stillframe>
            <anamorphic>FALSE</anamorphic>
            <alphatype>straight</alphatype>
            <masterclipid>F.png363</masterclipid>
            <file id="F">
              <name>F.png</name>
              <pathurl>D:/Codes/SynthLip/SynthLipN/bin/Debug/net6.0-windows/Skin/template/F.png</pathurl>
              <rate>
                <ntsc>FALSE</ntsc>
                <timebase>25</timebase>
              </rate>
              <duration>2</duration>
              <width>1920</width>
              <height>1080</height>
              <media>
                <video>
                  <duration>2</duration>
                  <stillframe>TRUE</stillframe>
                  <samplecharacteristics>
                    <rate>
                      <ntsc>FALSE</ntsc>
                      <timebase>25</timebase>
                    </rate>
                    <width>1920</width>
                    <height>1080</height>
                    <pixelaspectratio>Square</pixelaspectratio>
                    <anamorphic>FALSE</anamorphic>
                  </samplecharacteristics>
                </video>
              </media>
            </file>
            <sourcetrack>
              <mediatype>video</mediatype>
            </sourcetrack>
            <fielddominance>none</fielddominance>
          </clipitem>
          <clipitem id="B.png358">
            <name>B.png</name>
            <duration>8</duration>
            <rate>
              <ntsc>FALSE</ntsc>
              <timebase>25</timebase>
            </rate>
            <in>91335</in>
            <out>91342</out>
            <start>1335</start>
            <end>1342</end>
            <pixelaspectratio>Square</pixelaspectratio>
            <stillframe>TRUE</stillframe>
            <anamorphic>FALSE</anamorphic>
            <alphatype>straight</alphatype>
            <masterclipid>B.png358</masterclipid>
            <file id="B">
              <name>B.png</name>
              <pathurl>D:/Codes/SynthLip/SynthLipN/bin/Debug/net6.0-windows/Skin/template/B.png</pathurl>
              <rate>
                <ntsc>FALSE</ntsc>
                <timebase>25</timebase>
              </rate>
              <duration>2</duration>
              <width>1920</width>
              <height>1080</height>
              <media>
                <video>
                  <duration>2</duration>
                  <stillframe>TRUE</stillframe>
                  <samplecharacteristics>
                    <rate>
                      <ntsc>FALSE</ntsc>
                      <timebase>25</timebase>
                    </rate>
                    <width>1920</width>
                    <height>1080</height>
                    <pixelaspectratio>Square</pixelaspectratio>
                    <anamorphic>FALSE</anamorphic>
                  </samplecharacteristics>
                </video>
              </media>
            </file>
            <sourcetrack>
              <mediatype>video</mediatype>
            </sourcetrack>
            <fielddominance>none</fielddominance>
          </clipitem>
          <clipitem id="F.png357">
            <name>F.png</name>
            <duration>4</duration>
            <rate>
              <ntsc>FALSE</ntsc>
              <timebase>25</timebase>
            </rate>
            <in>91331</in>
            <out>91334</out>
            <start>1331</start>
            <end>1334</end>
            <pixelaspectratio>Square</pixelaspectratio>
            <stillframe>TRUE</stillframe>
            <anamorphic>FALSE</anamorphic>
            <alphatype>straight</alphatype>
            <masterclipid>F.png357</masterclipid>
            <file id="F">
              <name>F.png</name>
              <pathurl>D:/Codes/SynthLip/SynthLipN/bin/Debug/net6.0-windows/Skin/template/F.png</pathurl>
              <rate>
                <ntsc>FALSE</ntsc>
                <timebase>25</timebase>
              </rate>
              <duration>2</duration>
              <width>1920</width>
              <height>1080</height>
              <media>
                <video>
                  <duration>2</duration>
                  <stillframe>TRUE</stillframe>
                  <samplecharacteristics>
                    <rate>
                      <ntsc>FALSE</ntsc>
                      <timebase>25</timebase>
                    </rate>
                    <width>1920</width>
                    <height>1080</height>
                    <pixelaspectratio>Square</pixelaspectratio>
                    <anamorphic>FALSE</anamorphic>
                  </samplecharacteristics>
                </video>
              </media>
            </file>
            <sourcetrack>
              <mediatype>video</mediatype>
            </sourcetrack>
            <fielddominance>none</fielddominance>
          </clipitem>
          <clipitem id="F.png356">
            <name>F.png</name>
            <duration>4</duration>
            <rate>
              <ntsc>FALSE</ntsc>
              <timebase>25</timebase>
            </rate>
            <in>91326</in>
            <out>91329</out>
            <start>1326</start>
            <end>1329</end>
            <pixelaspectratio>Square</pixelaspectratio>
            <stillframe>TRUE</stillframe>
            <anamorphic>FALSE</anamorphic>
            <alphatype>straight</alphatype>
            <masterclipid>F.png356</masterclipid>
            <file id="F">
              <name>F.png</name>
              <pathurl>D:/Codes/SynthLip/SynthLipN/bin/Debug/net6.0-windows/Skin/template/F.png</pathurl>
              <rate>
                <ntsc>FALSE</ntsc>
                <timebase>25</timebase>
              </rate>
              <duration>2</duration>
              <width>1920</width>
              <height>1080</height>
              <media>
                <video>
                  <duration>2</duration>
                  <stillframe>TRUE</stillframe>
                  <samplecharacteristics>
                    <rate>
                      <ntsc>FALSE</ntsc>
                      <timebase>25</timebase>
                    </rate>
                    <width>1920</width>
                    <height>1080</height>
                    <pixelaspectratio>Square</pixelaspectratio>
                    <anamorphic>FALSE</anamorphic>
                  </samplecharacteristics>
                </video>
              </media>
            </file>
            <sourcetrack>
              <mediatype>video</mediatype>
            </sourcetrack>
            <fielddominance>none</fielddominance>
          </clipitem>
          <clipitem id="B.png355">
            <name>B.png</name>
            <duration>4</duration>
            <rate>
              <ntsc>FALSE</ntsc>
              <timebase>25</timebase>
            </rate>
            <in>91321</in>
            <out>91324</out>
            <start>1321</start>
            <end>1324</end>
            <pixelaspectratio>Square</pixelaspectratio>
            <stillframe>TRUE</stillframe>
            <anamorphic>FALSE</anamorphic>
            <alphatype>straight</alphatype>
            <masterclipid>B.png355</masterclipid>
            <file id="B">
              <name>B.png</name>
              <pathurl>D:/Codes/SynthLip/SynthLipN/bin/Debug/net6.0-windows/Skin/template/B.png</pathurl>
              <rate>
                <ntsc>FALSE</ntsc>
                <timebase>25</timebase>
              </rate>
              <duration>2</duration>
              <width>1920</width>
              <height>1080</height>
              <media>
                <video>
                  <duration>2</duration>
                  <stillframe>TRUE</stillframe>
                  <samplecharacteristics>
                    <rate>
                      <ntsc>FALSE</ntsc>
                      <timebase>25</timebase>
                    </rate>
                    <width>1920</width>
                    <height>1080</height>
                    <pixelaspectratio>Square</pixelaspectratio>
                    <anamorphic>FALSE</anamorphic>
                  </samplecharacteristics>
                </video>
              </media>
            </file>
            <sourcetrack>
              <mediatype>video</mediatype>
            </sourcetrack>
            <fielddominance>none</fielddominance>
          </clipitem>
          <clipitem id="G.png354">
            <name>G.png</name>
            <duration>4</duration>
            <rate>
              <ntsc>FALSE</ntsc>
              <timebase>25</timebase>
            </rate>
            <in>91317</in>
            <out>91320</out>
            <start>1317</start>
            <end>1320</end>
            <pixelaspectratio>Square</pixelaspectratio>
            <stillframe>TRUE</stillframe>
            <anamorphic>FALSE</anamorphic>
            <alphatype>straight</alphatype>
            <masterclipid>G.png354</masterclipid>
            <file id="G">
              <name>G.png</name>
              <pathurl>D:/Codes/SynthLip/SynthLipN/bin/Debug/net6.0-windows/Skin/template/G.png</pathurl>
              <rate>
                <ntsc>FALSE</ntsc>
                <timebase>25</timebase>
              </rate>
              <duration>2</duration>
              <width>1920</width>
              <height>1080</height>
              <media>
                <video>
                  <duration>2</duration>
                  <stillframe>TRUE</stillframe>
                  <samplecharacteristics>
                    <rate>
                      <ntsc>FALSE</ntsc>
                      <timebase>25</timebase>
                    </rate>
                    <width>1920</width>
                    <height>1080</height>
                    <pixelaspectratio>Square</pixelaspectratio>
                    <anamorphic>FALSE</anamorphic>
                  </samplecharacteristics>
                </video>
              </media>
            </file>
            <sourcetrack>
              <mediatype>video</mediatype>
            </sourcetrack>
            <fielddominance>none</fielddominance>
          </clipitem>
          <clipitem id="D.png353">
            <name>D.png</name>
            <duration>5</duration>
            <rate>
              <ntsc>FALSE</ntsc>
              <timebase>25</timebase>
            </rate>
            <in>91311</in>
            <out>91315</out>
            <start>1311</start>
            <end>1315</end>
            <pixelaspectratio>Square</pixelaspectratio>
            <stillframe>TRUE</stillframe>
            <anamorphic>FALSE</anamorphic>
            <alphatype>straight</alphatype>
            <masterclipid>D.png353</masterclipid>
            <file id="D">
              <name>D.png</name>
              <pathurl>D:/Codes/SynthLip/SynthLipN/bin/Debug/net6.0-windows/Skin/template/D.png</pathurl>
              <rate>
                <ntsc>FALSE</ntsc>
                <timebase>25</timebase>
              </rate>
              <duration>2</duration>
              <width>1920</width>
              <height>1080</height>
              <media>
                <video>
                  <duration>2</duration>
                  <stillframe>TRUE</stillframe>
                  <samplecharacteristics>
                    <rate>
                      <ntsc>FALSE</ntsc>
                      <timebase>25</timebase>
                    </rate>
                    <width>1920</width>
                    <height>1080</height>
                    <pixelaspectratio>Square</pixelaspectratio>
                    <anamorphic>FALSE</anamorphic>
                  </samplecharacteristics>
                </video>
              </media>
            </file>
            <sourcetrack>
              <mediatype>video</mediatype>
            </sourcetrack>
            <fielddominance>none</fielddominance>
          </clipitem>
          <clipitem id="A.png352">
            <name>A.png</name>
            <duration>5</duration>
            <rate>
              <ntsc>FALSE</ntsc>
              <timebase>25</timebase>
            </rate>
            <in>91305</in>
            <out>91309</out>
            <start>1305</start>
            <end>1309</end>
            <pixelaspectratio>Square</pixelaspectratio>
            <stillframe>TRUE</stillframe>
            <anamorphic>FALSE</anamorphic>
            <alphatype>straight</alphatype>
            <masterclipid>A.png352</masterclipid>
            <file id="A">
              <name>A.png</name>
              <pathurl>D:/Codes/SynthLip/SynthLipN/bin/Debug/net6.0-windows/Skin/template/A.png</pathurl>
              <rate>
                <ntsc>FALSE</ntsc>
                <timebase>25</timebase>
              </rate>
              <duration>2</duration>
              <width>1920</width>
              <height>1080</height>
              <media>
                <video>
                  <duration>2</duration>
                  <stillframe>TRUE</stillframe>
                  <samplecharacteristics>
                    <rate>
                      <ntsc>FALSE</ntsc>
                      <timebase>25</timebase>
                    </rate>
                    <width>1920</width>
                    <height>1080</height>
                    <pixelaspectratio>Square</pixelaspectratio>
                    <anamorphic>FALSE</anamorphic>
                  </samplecharacteristics>
                </video>
              </media>
            </file>
            <sourcetrack>
              <mediatype>video</mediatype>
            </sourcetrack>
            <fielddominance>none</fielddominance>
          </clipitem>
          <clipitem id="A.png351">
            <name>A.png</name>
            <duration>3</duration>
            <rate>
              <ntsc>FALSE</ntsc>
              <timebase>25</timebase>
            </rate>
            <in>91302</in>
            <out>91304</out>
            <start>1302</start>
            <end>1304</end>
            <pixelaspectratio>Square</pixelaspectratio>
            <stillframe>TRUE</stillframe>
            <anamorphic>FALSE</anamorphic>
            <alphatype>straight</alphatype>
            <masterclipid>A.png351</masterclipid>
            <file id="A">
              <name>A.png</name>
              <pathurl>D:/Codes/SynthLip/SynthLipN/bin/Debug/net6.0-windows/Skin/template/A.png</pathurl>
              <rate>
                <ntsc>FALSE</ntsc>
                <timebase>25</timebase>
              </rate>
              <duration>2</duration>
              <width>1920</width>
              <height>1080</height>
              <media>
                <video>
                  <duration>2</duration>
                  <stillframe>TRUE</stillframe>
                  <samplecharacteristics>
                    <rate>
                      <ntsc>FALSE</ntsc>
                      <timebase>25</timebase>
                    </rate>
                    <width>1920</width>
                    <height>1080</height>
                    <pixelaspectratio>Square</pixelaspectratio>
                    <anamorphic>FALSE</anamorphic>
                  </samplecharacteristics>
                </video>
              </media>
            </file>
            <sourcetrack>
              <mediatype>video</mediatype>
            </sourcetrack>
            <fielddominance>none</fielddominance>
          </clipitem>
          <clipitem id="C.png350">
            <name>C.png</name>
            <duration>9</duration>
            <rate>
              <ntsc>FALSE</ntsc>
              <timebase>25</timebase>
            </rate>
            <in>91292</in>
            <out>91300</out>
            <start>1292</start>
            <end>1300</end>
            <pixelaspectratio>Square</pixelaspectratio>
            <stillframe>TRUE</stillframe>
            <anamorphic>FALSE</anamorphic>
            <alphatype>straight</alphatype>
            <masterclipid>C.png350</masterclipid>
            <file id="C">
              <name>C.png</name>
              <pathurl>D:/Codes/SynthLip/SynthLipN/bin/Debug/net6.0-windows/Skin/template/C.png</pathurl>
              <rate>
                <ntsc>FALSE</ntsc>
                <timebase>25</timebase>
              </rate>
              <duration>2</duration>
              <width>1920</width>
              <height>1080</height>
              <media>
                <video>
                  <duration>2</duration>
                  <stillframe>TRUE</stillframe>
                  <samplecharacteristics>
                    <rate>
                      <ntsc>FALSE</ntsc>
                      <timebase>25</timebase>
                    </rate>
                    <width>1920</width>
                    <height>1080</height>
                    <pixelaspectratio>Square</pixelaspectratio>
                    <anamorphic>FALSE</anamorphic>
                  </samplecharacteristics>
                </video>
              </media>
            </file>
            <sourcetrack>
              <mediatype>video</mediatype>
            </sourcetrack>
            <fielddominance>none</fielddominance>
          </clipitem>
          <clipitem id="D.png346">
            <name>D.png</name>
            <duration>2</duration>
            <rate>
              <ntsc>FALSE</ntsc>
              <timebase>25</timebase>
            </rate>
            <in>91288</in>
            <out>91289</out>
            <start>1288</start>
            <end>1289</end>
            <pixelaspectratio>Square</pixelaspectratio>
            <stillframe>TRUE</stillframe>
            <anamorphic>FALSE</anamorphic>
            <alphatype>straight</alphatype>
            <masterclipid>D.png346</masterclipid>
            <file id="D">
              <name>D.png</name>
              <pathurl>D:/Codes/SynthLip/SynthLipN/bin/Debug/net6.0-windows/Skin/template/D.png</pathurl>
              <rate>
                <ntsc>FALSE</ntsc>
                <timebase>25</timebase>
              </rate>
              <duration>2</duration>
              <width>1920</width>
              <height>1080</height>
              <media>
                <video>
                  <duration>2</duration>
                  <stillframe>TRUE</stillframe>
                  <samplecharacteristics>
                    <rate>
                      <ntsc>FALSE</ntsc>
                      <timebase>25</timebase>
                    </rate>
                    <width>1920</width>
                    <height>1080</height>
                    <pixelaspectratio>Square</pixelaspectratio>
                    <anamorphic>FALSE</anamorphic>
                  </samplecharacteristics>
                </video>
              </media>
            </file>
            <sourcetrack>
              <mediatype>video</mediatype>
            </sourcetrack>
            <fielddominance>none</fielddominance>
          </clipitem>
          <clipitem id="B.png345">
            <name>B.png</name>
            <duration>2</duration>
            <rate>
              <ntsc>FALSE</ntsc>
              <timebase>25</timebase>
            </rate>
            <in>91285</in>
            <out>91286</out>
            <start>1285</start>
            <end>1286</end>
            <pixelaspectratio>Square</pixelaspectratio>
            <stillframe>TRUE</stillframe>
            <anamorphic>FALSE</anamorphic>
            <alphatype>straight</alphatype>
            <masterclipid>B.png345</masterclipid>
            <file id="B">
              <name>B.png</name>
              <pathurl>D:/Codes/SynthLip/SynthLipN/bin/Debug/net6.0-windows/Skin/template/B.png</pathurl>
              <rate>
                <ntsc>FALSE</ntsc>
                <timebase>25</timebase>
              </rate>
              <duration>2</duration>
              <width>1920</width>
              <height>1080</height>
              <media>
                <video>
                  <duration>2</duration>
                  <stillframe>TRUE</stillframe>
                  <samplecharacteristics>
                    <rate>
                      <ntsc>FALSE</ntsc>
                      <timebase>25</timebase>
                    </rate>
                    <width>1920</width>
                    <height>1080</height>
                    <pixelaspectratio>Square</pixelaspectratio>
                    <anamorphic>FALSE</anamorphic>
                  </samplecharacteristics>
                </video>
              </media>
            </file>
            <sourcetrack>
              <mediatype>video</mediatype>
            </sourcetrack>
            <fielddominance>none</fielddominance>
          </clipitem>
          <clipitem id="A.png344">
            <name>A.png</name>
            <duration>2</duration>
            <rate>
              <ntsc>FALSE</ntsc>
              <timebase>25</timebase>
            </rate>
            <in>91283</in>
            <out>91284</out>
            <start>1283</start>
            <end>1284</end>
            <pixelaspectratio>Square</pixelaspectratio>
            <stillframe>TRUE</stillframe>
            <anamorphic>FALSE</anamorphic>
            <alphatype>straight</alphatype>
            <masterclipid>A.png344</masterclipid>
            <file id="A">
              <name>A.png</name>
              <pathurl>D:/Codes/SynthLip/SynthLipN/bin/Debug/net6.0-windows/Skin/template/A.png</pathurl>
              <rate>
                <ntsc>FALSE</ntsc>
                <timebase>25</timebase>
              </rate>
              <duration>2</duration>
              <width>1920</width>
              <height>1080</height>
              <media>
                <video>
                  <duration>2</duration>
                  <stillframe>TRUE</stillframe>
                  <samplecharacteristics>
                    <rate>
                      <ntsc>FALSE</ntsc>
                      <timebase>25</timebase>
                    </rate>
                    <width>1920</width>
                    <height>1080</height>
                    <pixelaspectratio>Square</pixelaspectratio>
                    <anamorphic>FALSE</anamorphic>
                  </samplecharacteristics>
                </video>
              </media>
            </file>
            <sourcetrack>
              <mediatype>video</mediatype>
            </sourcetrack>
            <fielddominance>none</fielddominance>
          </clipitem>
          <clipitem id="B.png343">
            <name>B.png</name>
            <duration>5</duration>
            <rate>
              <ntsc>FALSE</ntsc>
              <timebase>25</timebase>
            </rate>
            <in>91277</in>
            <out>91281</out>
            <start>1277</start>
            <end>1281</end>
            <pixelaspectratio>Square</pixelaspectratio>
            <stillframe>TRUE</stillframe>
            <anamorphic>FALSE</anamorphic>
            <alphatype>straight</alphatype>
            <masterclipid>B.png343</masterclipid>
            <file id="B">
              <name>B.png</name>
              <pathurl>D:/Codes/SynthLip/SynthLipN/bin/Debug/net6.0-windows/Skin/template/B.png</pathurl>
              <rate>
                <ntsc>FALSE</ntsc>
                <timebase>25</timebase>
              </rate>
              <duration>2</duration>
              <width>1920</width>
              <height>1080</height>
              <media>
                <video>
                  <duration>2</duration>
                  <stillframe>TRUE</stillframe>
                  <samplecharacteristics>
                    <rate>
                      <ntsc>FALSE</ntsc>
                      <timebase>25</timebase>
                    </rate>
                    <width>1920</width>
                    <height>1080</height>
                    <pixelaspectratio>Square</pixelaspectratio>
                    <anamorphic>FALSE</anamorphic>
                  </samplecharacteristics>
                </video>
              </media>
            </file>
            <sourcetrack>
              <mediatype>video</mediatype>
            </sourcetrack>
            <fielddominance>none</fielddominance>
          </clipitem>
          <clipitem id="A.png339">
            <name>A.png</name>
            <duration>3</duration>
            <rate>
              <ntsc>FALSE</ntsc>
              <timebase>25</timebase>
            </rate>
            <in>91272</in>
            <out>91274</out>
            <start>1272</start>
            <end>1274</end>
            <pixelaspectratio>Square</pixelaspectratio>
            <stillframe>TRUE</stillframe>
            <anamorphic>FALSE</anamorphic>
            <alphatype>straight</alphatype>
            <masterclipid>A.png339</masterclipid>
            <file id="A">
              <name>A.png</name>
              <pathurl>D:/Codes/SynthLip/SynthLipN/bin/Debug/net6.0-windows/Skin/template/A.png</pathurl>
              <rate>
                <ntsc>FALSE</ntsc>
                <timebase>25</timebase>
              </rate>
              <duration>2</duration>
              <width>1920</width>
              <height>1080</height>
              <media>
                <video>
                  <duration>2</duration>
                  <stillframe>TRUE</stillframe>
                  <samplecharacteristics>
                    <rate>
                      <ntsc>FALSE</ntsc>
                      <timebase>25</timebase>
                    </rate>
                    <width>1920</width>
                    <height>1080</height>
                    <pixelaspectratio>Square</pixelaspectratio>
                    <anamorphic>FALSE</anamorphic>
                  </samplecharacteristics>
                </video>
              </media>
            </file>
            <sourcetrack>
              <mediatype>video</mediatype>
            </sourcetrack>
            <fielddominance>none</fielddominance>
          </clipitem>
          <clipitem id="A.png338">
            <name>A.png</name>
            <duration>3</duration>
            <rate>
              <ntsc>FALSE</ntsc>
              <timebase>25</timebase>
            </rate>
            <in>91268</in>
            <out>91270</out>
            <start>1268</start>
            <end>1270</end>
            <pixelaspectratio>Square</pixelaspectratio>
            <stillframe>TRUE</stillframe>
            <anamorphic>FALSE</anamorphic>
            <alphatype>straight</alphatype>
            <masterclipid>A.png338</masterclipid>
            <file id="A">
              <name>A.png</name>
              <pathurl>D:/Codes/SynthLip/SynthLipN/bin/Debug/net6.0-windows/Skin/template/A.png</pathurl>
              <rate>
                <ntsc>FALSE</ntsc>
                <timebase>25</timebase>
              </rate>
              <duration>2</duration>
              <width>1920</width>
              <height>1080</height>
              <media>
                <video>
                  <duration>2</duration>
                  <stillframe>TRUE</stillframe>
                  <samplecharacteristics>
                    <rate>
                      <ntsc>FALSE</ntsc>
                      <timebase>25</timebase>
                    </rate>
                    <width>1920</width>
                    <height>1080</height>
                    <pixelaspectratio>Square</pixelaspectratio>
                    <anamorphic>FALSE</anamorphic>
                  </samplecharacteristics>
                </video>
              </media>
            </file>
            <sourcetrack>
              <mediatype>video</mediatype>
            </sourcetrack>
            <fielddominance>none</fielddominance>
          </clipitem>
          <clipitem id="H.png337">
            <name>H.png</name>
            <duration>5</duration>
            <rate>
              <ntsc>FALSE</ntsc>
              <timebase>25</timebase>
            </rate>
            <in>91262</in>
            <out>91266</out>
            <start>1262</start>
            <end>1266</end>
            <pixelaspectratio>Square</pixelaspectratio>
            <stillframe>TRUE</stillframe>
            <anamorphic>FALSE</anamorphic>
            <alphatype>straight</alphatype>
            <masterclipid>H.png337</masterclipid>
            <file id="H">
              <name>H.png</name>
              <pathurl>D:/Codes/SynthLip/SynthLipN/bin/Debug/net6.0-windows/Skin/template/H.png</pathurl>
              <rate>
                <ntsc>FALSE</ntsc>
                <timebase>25</timebase>
              </rate>
              <duration>2</duration>
              <width>1920</width>
              <height>1080</height>
              <media>
                <video>
                  <duration>2</duration>
                  <stillframe>TRUE</stillframe>
                  <samplecharacteristics>
                    <rate>
                      <ntsc>FALSE</ntsc>
                      <timebase>25</timebase>
                    </rate>
                    <width>1920</width>
                    <height>1080</height>
                    <pixelaspectratio>Square</pixelaspectratio>
                    <anamorphic>FALSE</anamorphic>
                  </samplecharacteristics>
                </video>
              </media>
            </file>
            <sourcetrack>
              <mediatype>video</mediatype>
            </sourcetrack>
            <fielddominance>none</fielddominance>
          </clipitem>
          <clipitem id="A.png333">
            <name>A.png</name>
            <duration>3</duration>
            <rate>
              <ntsc>FALSE</ntsc>
              <timebase>25</timebase>
            </rate>
            <in>91257</in>
            <out>91259</out>
            <start>1257</start>
            <end>1259</end>
            <pixelaspectratio>Square</pixelaspectratio>
            <stillframe>TRUE</stillframe>
            <anamorphic>FALSE</anamorphic>
            <alphatype>straight</alphatype>
            <masterclipid>A.png333</masterclipid>
            <file id="A">
              <name>A.png</name>
              <pathurl>D:/Codes/SynthLip/SynthLipN/bin/Debug/net6.0-windows/Skin/template/A.png</pathurl>
              <rate>
                <ntsc>FALSE</ntsc>
                <timebase>25</timebase>
              </rate>
              <duration>2</duration>
              <width>1920</width>
              <height>1080</height>
              <media>
                <video>
                  <duration>2</duration>
                  <stillframe>TRUE</stillframe>
                  <samplecharacteristics>
                    <rate>
                      <ntsc>FALSE</ntsc>
                      <timebase>25</timebase>
                    </rate>
                    <width>1920</width>
                    <height>1080</height>
                    <pixelaspectratio>Square</pixelaspectratio>
                    <anamorphic>FALSE</anamorphic>
                  </samplecharacteristics>
                </video>
              </media>
            </file>
            <sourcetrack>
              <mediatype>video</mediatype>
            </sourcetrack>
            <fielddominance>none</fielddominance>
          </clipitem>
          <clipitem id="B.png332">
            <name>B.png</name>
            <duration>11</duration>
            <rate>
              <ntsc>FALSE</ntsc>
              <timebase>25</timebase>
            </rate>
            <in>91245</in>
            <out>91255</out>
            <start>1245</start>
            <end>1255</end>
            <pixelaspectratio>Square</pixelaspectratio>
            <stillframe>TRUE</stillframe>
            <anamorphic>FALSE</anamorphic>
            <alphatype>straight</alphatype>
            <masterclipid>B.png332</masterclipid>
            <file id="B">
              <name>B.png</name>
              <pathurl>D:/Codes/SynthLip/SynthLipN/bin/Debug/net6.0-windows/Skin/template/B.png</pathurl>
              <rate>
                <ntsc>FALSE</ntsc>
                <timebase>25</timebase>
              </rate>
              <duration>2</duration>
              <width>1920</width>
              <height>1080</height>
              <media>
                <video>
                  <duration>2</duration>
                  <stillframe>TRUE</stillframe>
                  <samplecharacteristics>
                    <rate>
                      <ntsc>FALSE</ntsc>
                      <timebase>25</timebase>
                    </rate>
                    <width>1920</width>
                    <height>1080</height>
                    <pixelaspectratio>Square</pixelaspectratio>
                    <anamorphic>FALSE</anamorphic>
                  </samplecharacteristics>
                </video>
              </media>
            </file>
            <sourcetrack>
              <mediatype>video</mediatype>
            </sourcetrack>
            <fielddominance>none</fielddominance>
          </clipitem>
          <clipitem id="A.png331">
            <name>A.png</name>
            <duration>3</duration>
            <rate>
              <ntsc>FALSE</ntsc>
              <timebase>25</timebase>
            </rate>
            <in>91242</in>
            <out>91244</out>
            <start>1242</start>
            <end>1244</end>
            <pixelaspectratio>Square</pixelaspectratio>
            <stillframe>TRUE</stillframe>
            <anamorphic>FALSE</anamorphic>
            <alphatype>straight</alphatype>
            <masterclipid>A.png331</masterclipid>
            <file id="A">
              <name>A.png</name>
              <pathurl>D:/Codes/SynthLip/SynthLipN/bin/Debug/net6.0-windows/Skin/template/A.png</pathurl>
              <rate>
                <ntsc>FALSE</ntsc>
                <timebase>25</timebase>
              </rate>
              <duration>2</duration>
              <width>1920</width>
              <height>1080</height>
              <media>
                <video>
                  <duration>2</duration>
                  <stillframe>TRUE</stillframe>
                  <samplecharacteristics>
                    <rate>
                      <ntsc>FALSE</ntsc>
                      <timebase>25</timebase>
                    </rate>
                    <width>1920</width>
                    <height>1080</height>
                    <pixelaspectratio>Square</pixelaspectratio>
                    <anamorphic>FALSE</anamorphic>
                  </samplecharacteristics>
                </video>
              </media>
            </file>
            <sourcetrack>
              <mediatype>video</mediatype>
            </sourcetrack>
            <fielddominance>none</fielddominance>
          </clipitem>
          <clipitem id="C.png330">
            <name>C.png</name>
            <duration>3</duration>
            <rate>
              <ntsc>FALSE</ntsc>
              <timebase>25</timebase>
            </rate>
            <in>91238</in>
            <out>91240</out>
            <start>1238</start>
            <end>1240</end>
            <pixelaspectratio>Square</pixelaspectratio>
            <stillframe>TRUE</stillframe>
            <anamorphic>FALSE</anamorphic>
            <alphatype>straight</alphatype>
            <masterclipid>C.png330</masterclipid>
            <file id="C">
              <name>C.png</name>
              <pathurl>D:/Codes/SynthLip/SynthLipN/bin/Debug/net6.0-windows/Skin/template/C.png</pathurl>
              <rate>
                <ntsc>FALSE</ntsc>
                <timebase>25</timebase>
              </rate>
              <duration>2</duration>
              <width>1920</width>
              <height>1080</height>
              <media>
                <video>
                  <duration>2</duration>
                  <stillframe>TRUE</stillframe>
                  <samplecharacteristics>
                    <rate>
                      <ntsc>FALSE</ntsc>
                      <timebase>25</timebase>
                    </rate>
                    <width>1920</width>
                    <height>1080</height>
                    <pixelaspectratio>Square</pixelaspectratio>
                    <anamorphic>FALSE</anamorphic>
                  </samplecharacteristics>
                </video>
              </media>
            </file>
            <sourcetrack>
              <mediatype>video</mediatype>
            </sourcetrack>
            <fielddominance>none</fielddominance>
          </clipitem>
          <clipitem id="B.png329">
            <name>B.png</name>
            <duration>3</duration>
            <rate>
              <ntsc>FALSE</ntsc>
              <timebase>25</timebase>
            </rate>
            <in>91234</in>
            <out>91236</out>
            <start>1234</start>
            <end>1236</end>
            <pixelaspectratio>Square</pixelaspectratio>
            <stillframe>TRUE</stillframe>
            <anamorphic>FALSE</anamorphic>
            <alphatype>straight</alphatype>
            <masterclipid>B.png329</masterclipid>
            <file id="B">
              <name>B.png</name>
              <pathurl>D:/Codes/SynthLip/SynthLipN/bin/Debug/net6.0-windows/Skin/template/B.png</pathurl>
              <rate>
                <ntsc>FALSE</ntsc>
                <timebase>25</timebase>
              </rate>
              <duration>2</duration>
              <width>1920</width>
              <height>1080</height>
              <media>
                <video>
                  <duration>2</duration>
                  <stillframe>TRUE</stillframe>
                  <samplecharacteristics>
                    <rate>
                      <ntsc>FALSE</ntsc>
                      <timebase>25</timebase>
                    </rate>
                    <width>1920</width>
                    <height>1080</height>
                    <pixelaspectratio>Square</pixelaspectratio>
                    <anamorphic>FALSE</anamorphic>
                  </samplecharacteristics>
                </video>
              </media>
            </file>
            <sourcetrack>
              <mediatype>video</mediatype>
            </sourcetrack>
            <fielddominance>none</fielddominance>
          </clipitem>
          <clipitem id="B.png328">
            <name>B.png</name>
            <duration>3</duration>
            <rate>
              <ntsc>FALSE</ntsc>
              <timebase>25</timebase>
            </rate>
            <in>91230</in>
            <out>91232</out>
            <start>1230</start>
            <end>1232</end>
            <pixelaspectratio>Square</pixelaspectratio>
            <stillframe>TRUE</stillframe>
            <anamorphic>FALSE</anamorphic>
            <alphatype>straight</alphatype>
            <masterclipid>B.png328</masterclipid>
            <file id="B">
              <name>B.png</name>
              <pathurl>D:/Codes/SynthLip/SynthLipN/bin/Debug/net6.0-windows/Skin/template/B.png</pathurl>
              <rate>
                <ntsc>FALSE</ntsc>
                <timebase>25</timebase>
              </rate>
              <duration>2</duration>
              <width>1920</width>
              <height>1080</height>
              <media>
                <video>
                  <duration>2</duration>
                  <stillframe>TRUE</stillframe>
                  <samplecharacteristics>
                    <rate>
                      <ntsc>FALSE</ntsc>
                      <timebase>25</timebase>
                    </rate>
                    <width>1920</width>
                    <height>1080</height>
                    <pixelaspectratio>Square</pixelaspectratio>
                    <anamorphic>FALSE</anamorphic>
                  </samplecharacteristics>
                </video>
              </media>
            </file>
            <sourcetrack>
              <mediatype>video</mediatype>
            </sourcetrack>
            <fielddominance>none</fielddominance>
          </clipitem>
          <clipitem id="C.png327">
            <name>C.png</name>
            <duration>2</duration>
            <rate>
              <ntsc>FALSE</ntsc>
              <timebase>25</timebase>
            </rate>
            <in>91228</in>
            <out>91229</out>
            <start>1228</start>
            <end>1229</end>
            <pixelaspectratio>Square</pixelaspectratio>
            <stillframe>TRUE</stillframe>
            <anamorphic>FALSE</anamorphic>
            <alphatype>straight</alphatype>
            <masterclipid>C.png327</masterclipid>
            <file id="C">
              <name>C.png</name>
              <pathurl>D:/Codes/SynthLip/SynthLipN/bin/Debug/net6.0-windows/Skin/template/C.png</pathurl>
              <rate>
                <ntsc>FALSE</ntsc>
                <timebase>25</timebase>
              </rate>
              <duration>2</duration>
              <width>1920</width>
              <height>1080</height>
              <media>
                <video>
                  <duration>2</duration>
                  <stillframe>TRUE</stillframe>
                  <samplecharacteristics>
                    <rate>
                      <ntsc>FALSE</ntsc>
                      <timebase>25</timebase>
                    </rate>
                    <width>1920</width>
                    <height>1080</height>
                    <pixelaspectratio>Square</pixelaspectratio>
                    <anamorphic>FALSE</anamorphic>
                  </samplecharacteristics>
                </video>
              </media>
            </file>
            <sourcetrack>
              <mediatype>video</mediatype>
            </sourcetrack>
            <fielddominance>none</fielddominance>
          </clipitem>
          <clipitem id="F.png326">
            <name>F.png</name>
            <duration>2</duration>
            <rate>
              <ntsc>FALSE</ntsc>
              <timebase>25</timebase>
            </rate>
            <in>91225</in>
            <out>91226</out>
            <start>1225</start>
            <end>1226</end>
            <pixelaspectratio>Square</pixelaspectratio>
            <stillframe>TRUE</stillframe>
            <anamorphic>FALSE</anamorphic>
            <alphatype>straight</alphatype>
            <masterclipid>F.png326</masterclipid>
            <file id="F">
              <name>F.png</name>
              <pathurl>D:/Codes/SynthLip/SynthLipN/bin/Debug/net6.0-windows/Skin/template/F.png</pathurl>
              <rate>
                <ntsc>FALSE</ntsc>
                <timebase>25</timebase>
              </rate>
              <duration>2</duration>
              <width>1920</width>
              <height>1080</height>
              <media>
                <video>
                  <duration>2</duration>
                  <stillframe>TRUE</stillframe>
                  <samplecharacteristics>
                    <rate>
                      <ntsc>FALSE</ntsc>
                      <timebase>25</timebase>
                    </rate>
                    <width>1920</width>
                    <height>1080</height>
                    <pixelaspectratio>Square</pixelaspectratio>
                    <anamorphic>FALSE</anamorphic>
                  </samplecharacteristics>
                </video>
              </media>
            </file>
            <sourcetrack>
              <mediatype>video</mediatype>
            </sourcetrack>
            <fielddominance>none</fielddominance>
          </clipitem>
          <clipitem id="A.png325">
            <name>A.png</name>
            <duration>2</duration>
            <rate>
              <ntsc>FALSE</ntsc>
              <timebase>25</timebase>
            </rate>
            <in>91223</in>
            <out>91224</out>
            <start>1223</start>
            <end>1224</end>
            <pixelaspectratio>Square</pixelaspectratio>
            <stillframe>TRUE</stillframe>
            <anamorphic>FALSE</anamorphic>
            <alphatype>straight</alphatype>
            <masterclipid>A.png325</masterclipid>
            <file id="A">
              <name>A.png</name>
              <pathurl>D:/Codes/SynthLip/SynthLipN/bin/Debug/net6.0-windows/Skin/template/A.png</pathurl>
              <rate>
                <ntsc>FALSE</ntsc>
                <timebase>25</timebase>
              </rate>
              <duration>2</duration>
              <width>1920</width>
              <height>1080</height>
              <media>
                <video>
                  <duration>2</duration>
                  <stillframe>TRUE</stillframe>
                  <samplecharacteristics>
                    <rate>
                      <ntsc>FALSE</ntsc>
                      <timebase>25</timebase>
                    </rate>
                    <width>1920</width>
                    <height>1080</height>
                    <pixelaspectratio>Square</pixelaspectratio>
                    <anamorphic>FALSE</anamorphic>
                  </samplecharacteristics>
                </video>
              </media>
            </file>
            <sourcetrack>
              <mediatype>video</mediatype>
            </sourcetrack>
            <fielddominance>none</fielddominance>
          </clipitem>
          <clipitem id="G.png324">
            <name>G.png</name>
            <duration>5</duration>
            <rate>
              <ntsc>FALSE</ntsc>
              <timebase>25</timebase>
            </rate>
            <in>91217</in>
            <out>91221</out>
            <start>1217</start>
            <end>1221</end>
            <pixelaspectratio>Square</pixelaspectratio>
            <stillframe>TRUE</stillframe>
            <anamorphic>FALSE</anamorphic>
            <alphatype>straight</alphatype>
            <masterclipid>G.png324</masterclipid>
            <file id="G">
              <name>G.png</name>
              <pathurl>D:/Codes/SynthLip/SynthLipN/bin/Debug/net6.0-windows/Skin/template/G.png</pathurl>
              <rate>
                <ntsc>FALSE</ntsc>
                <timebase>25</timebase>
              </rate>
              <duration>2</duration>
              <width>1920</width>
              <height>1080</height>
              <media>
                <video>
                  <duration>2</duration>
                  <stillframe>TRUE</stillframe>
                  <samplecharacteristics>
                    <rate>
                      <ntsc>FALSE</ntsc>
                      <timebase>25</timebase>
                    </rate>
                    <width>1920</width>
                    <height>1080</height>
                    <pixelaspectratio>Square</pixelaspectratio>
                    <anamorphic>FALSE</anamorphic>
                  </samplecharacteristics>
                </video>
              </media>
            </file>
            <sourcetrack>
              <mediatype>video</mediatype>
            </sourcetrack>
            <fielddominance>none</fielddominance>
          </clipitem>
          <clipitem id="C.png317">
            <name>C.png</name>
            <duration>7</duration>
            <rate>
              <ntsc>FALSE</ntsc>
              <timebase>25</timebase>
            </rate>
            <in>91200</in>
            <out>91206</out>
            <start>1200</start>
            <end>1206</end>
            <pixelaspectratio>Square</pixelaspectratio>
            <stillframe>TRUE</stillframe>
            <anamorphic>FALSE</anamorphic>
            <alphatype>straight</alphatype>
            <masterclipid>C.png317</masterclipid>
            <file id="C">
              <name>C.png</name>
              <pathurl>D:/Codes/SynthLip/SynthLipN/bin/Debug/net6.0-windows/Skin/template/C.png</pathurl>
              <rate>
                <ntsc>FALSE</ntsc>
                <timebase>25</timebase>
              </rate>
              <duration>2</duration>
              <width>1920</width>
              <height>1080</height>
              <media>
                <video>
                  <duration>2</duration>
                  <stillframe>TRUE</stillframe>
                  <samplecharacteristics>
                    <rate>
                      <ntsc>FALSE</ntsc>
                      <timebase>25</timebase>
                    </rate>
                    <width>1920</width>
                    <height>1080</height>
                    <pixelaspectratio>Square</pixelaspectratio>
                    <anamorphic>FALSE</anamorphic>
                  </samplecharacteristics>
                </video>
              </media>
            </file>
            <sourcetrack>
              <mediatype>video</mediatype>
            </sourcetrack>
            <fielddominance>none</fielddominance>
          </clipitem>
          <clipitem id="B.png316">
            <name>B.png</name>
            <duration>3</duration>
            <rate>
              <ntsc>FALSE</ntsc>
              <timebase>25</timebase>
            </rate>
            <in>91197</in>
            <out>91199</out>
            <start>1197</start>
            <end>1199</end>
            <pixelaspectratio>Square</pixelaspectratio>
            <stillframe>TRUE</stillframe>
            <anamorphic>FALSE</anamorphic>
            <alphatype>straight</alphatype>
            <masterclipid>B.png316</masterclipid>
            <file id="B">
              <name>B.png</name>
              <pathurl>D:/Codes/SynthLip/SynthLipN/bin/Debug/net6.0-windows/Skin/template/B.png</pathurl>
              <rate>
                <ntsc>FALSE</ntsc>
                <timebase>25</timebase>
              </rate>
              <duration>2</duration>
              <width>1920</width>
              <height>1080</height>
              <media>
                <video>
                  <duration>2</duration>
                  <stillframe>TRUE</stillframe>
                  <samplecharacteristics>
                    <rate>
                      <ntsc>FALSE</ntsc>
                      <timebase>25</timebase>
                    </rate>
                    <width>1920</width>
                    <height>1080</height>
                    <pixelaspectratio>Square</pixelaspectratio>
                    <anamorphic>FALSE</anamorphic>
                  </samplecharacteristics>
                </video>
              </media>
            </file>
            <sourcetrack>
              <mediatype>video</mediatype>
            </sourcetrack>
            <fielddominance>none</fielddominance>
          </clipitem>
          <clipitem id="A.png315">
            <name>A.png</name>
            <duration>3</duration>
            <rate>
              <ntsc>FALSE</ntsc>
              <timebase>25</timebase>
            </rate>
            <in>91193</in>
            <out>91195</out>
            <start>1193</start>
            <end>1195</end>
            <pixelaspectratio>Square</pixelaspectratio>
            <stillframe>TRUE</stillframe>
            <anamorphic>FALSE</anamorphic>
            <alphatype>straight</alphatype>
            <masterclipid>A.png315</masterclipid>
            <file id="A">
              <name>A.png</name>
              <pathurl>D:/Codes/SynthLip/SynthLipN/bin/Debug/net6.0-windows/Skin/template/A.png</pathurl>
              <rate>
                <ntsc>FALSE</ntsc>
                <timebase>25</timebase>
              </rate>
              <duration>2</duration>
              <width>1920</width>
              <height>1080</height>
              <media>
                <video>
                  <duration>2</duration>
                  <stillframe>TRUE</stillframe>
                  <samplecharacteristics>
                    <rate>
                      <ntsc>FALSE</ntsc>
                      <timebase>25</timebase>
                    </rate>
                    <width>1920</width>
                    <height>1080</height>
                    <pixelaspectratio>Square</pixelaspectratio>
                    <anamorphic>FALSE</anamorphic>
                  </samplecharacteristics>
                </video>
              </media>
            </file>
            <sourcetrack>
              <mediatype>video</mediatype>
            </sourcetrack>
            <fielddominance>none</fielddominance>
          </clipitem>
          <clipitem id="C.png314">
            <name>C.png</name>
            <duration>5</duration>
            <rate>
              <ntsc>FALSE</ntsc>
              <timebase>25</timebase>
            </rate>
            <in>91187</in>
            <out>91191</out>
            <start>1187</start>
            <end>1191</end>
            <pixelaspectratio>Square</pixelaspectratio>
            <stillframe>TRUE</stillframe>
            <anamorphic>FALSE</anamorphic>
            <alphatype>straight</alphatype>
            <masterclipid>C.png314</masterclipid>
            <file id="C">
              <name>C.png</name>
              <pathurl>D:/Codes/SynthLip/SynthLipN/bin/Debug/net6.0-windows/Skin/template/C.png</pathurl>
              <rate>
                <ntsc>FALSE</ntsc>
                <timebase>25</timebase>
              </rate>
              <duration>2</duration>
              <width>1920</width>
              <height>1080</height>
              <media>
                <video>
                  <duration>2</duration>
                  <stillframe>TRUE</stillframe>
                  <samplecharacteristics>
                    <rate>
                      <ntsc>FALSE</ntsc>
                      <timebase>25</timebase>
                    </rate>
                    <width>1920</width>
                    <height>1080</height>
                    <pixelaspectratio>Square</pixelaspectratio>
                    <anamorphic>FALSE</anamorphic>
                  </samplecharacteristics>
                </video>
              </media>
            </file>
            <sourcetrack>
              <mediatype>video</mediatype>
            </sourcetrack>
            <fielddominance>none</fielddominance>
          </clipitem>
          <clipitem id="B.png311">
            <name>B.png</name>
            <duration>3</duration>
            <rate>
              <ntsc>FALSE</ntsc>
              <timebase>25</timebase>
            </rate>
            <in>91182</in>
            <out>91184</out>
            <start>1182</start>
            <end>1184</end>
            <pixelaspectratio>Square</pixelaspectratio>
            <stillframe>TRUE</stillframe>
            <anamorphic>FALSE</anamorphic>
            <alphatype>straight</alphatype>
            <masterclipid>B.png311</masterclipid>
            <file id="B">
              <name>B.png</name>
              <pathurl>D:/Codes/SynthLip/SynthLipN/bin/Debug/net6.0-windows/Skin/template/B.png</pathurl>
              <rate>
                <ntsc>FALSE</ntsc>
                <timebase>25</timebase>
              </rate>
              <duration>2</duration>
              <width>1920</width>
              <height>1080</height>
              <media>
                <video>
                  <duration>2</duration>
                  <stillframe>TRUE</stillframe>
                  <samplecharacteristics>
                    <rate>
                      <ntsc>FALSE</ntsc>
                      <timebase>25</timebase>
                    </rate>
                    <width>1920</width>
                    <height>1080</height>
                    <pixelaspectratio>Square</pixelaspectratio>
                    <anamorphic>FALSE</anamorphic>
                  </samplecharacteristics>
                </video>
              </media>
            </file>
            <sourcetrack>
              <mediatype>video</mediatype>
            </sourcetrack>
            <fielddominance>none</fielddominance>
          </clipitem>
          <clipitem id="A.png310">
            <name>A.png</name>
            <duration>3</duration>
            <rate>
              <ntsc>FALSE</ntsc>
              <timebase>25</timebase>
            </rate>
            <in>91178</in>
            <out>91180</out>
            <start>1178</start>
            <end>1180</end>
            <pixelaspectratio>Square</pixelaspectratio>
            <stillframe>TRUE</stillframe>
            <anamorphic>FALSE</anamorphic>
            <alphatype>straight</alphatype>
            <masterclipid>A.png310</masterclipid>
            <file id="A">
              <name>A.png</name>
              <pathurl>D:/Codes/SynthLip/SynthLipN/bin/Debug/net6.0-windows/Skin/template/A.png</pathurl>
              <rate>
                <ntsc>FALSE</ntsc>
                <timebase>25</timebase>
              </rate>
              <duration>2</duration>
              <width>1920</width>
              <height>1080</height>
              <media>
                <video>
                  <duration>2</duration>
                  <stillframe>TRUE</stillframe>
                  <samplecharacteristics>
                    <rate>
                      <ntsc>FALSE</ntsc>
                      <timebase>25</timebase>
                    </rate>
                    <width>1920</width>
                    <height>1080</height>
                    <pixelaspectratio>Square</pixelaspectratio>
                    <anamorphic>FALSE</anamorphic>
                  </samplecharacteristics>
                </video>
              </media>
            </file>
            <sourcetrack>
              <mediatype>video</mediatype>
            </sourcetrack>
            <fielddominance>none</fielddominance>
          </clipitem>
          <clipitem id="F.png309">
            <name>F.png</name>
            <duration>5</duration>
            <rate>
              <ntsc>FALSE</ntsc>
              <timebase>25</timebase>
            </rate>
            <in>91172</in>
            <out>91176</out>
            <start>1172</start>
            <end>1176</end>
            <pixelaspectratio>Square</pixelaspectratio>
            <stillframe>TRUE</stillframe>
            <anamorphic>FALSE</anamorphic>
            <alphatype>straight</alphatype>
            <masterclipid>F.png309</masterclipid>
            <file id="F">
              <name>F.png</name>
              <pathurl>D:/Codes/SynthLip/SynthLipN/bin/Debug/net6.0-windows/Skin/template/F.png</pathurl>
              <rate>
                <ntsc>FALSE</ntsc>
                <timebase>25</timebase>
              </rate>
              <duration>2</duration>
              <width>1920</width>
              <height>1080</height>
              <media>
                <video>
                  <duration>2</duration>
                  <stillframe>TRUE</stillframe>
                  <samplecharacteristics>
                    <rate>
                      <ntsc>FALSE</ntsc>
                      <timebase>25</timebase>
                    </rate>
                    <width>1920</width>
                    <height>1080</height>
                    <pixelaspectratio>Square</pixelaspectratio>
                    <anamorphic>FALSE</anamorphic>
                  </samplecharacteristics>
                </video>
              </media>
            </file>
            <sourcetrack>
              <mediatype>video</mediatype>
            </sourcetrack>
            <fielddominance>none</fielddominance>
          </clipitem>
          <clipitem id="G.png305">
            <name>G.png</name>
            <duration>3</duration>
            <rate>
              <ntsc>FALSE</ntsc>
              <timebase>25</timebase>
            </rate>
            <in>91167</in>
            <out>91169</out>
            <start>1167</start>
            <end>1169</end>
            <pixelaspectratio>Square</pixelaspectratio>
            <stillframe>TRUE</stillframe>
            <anamorphic>FALSE</anamorphic>
            <alphatype>straight</alphatype>
            <masterclipid>G.png305</masterclipid>
            <file id="G">
              <name>G.png</name>
              <pathurl>D:/Codes/SynthLip/SynthLipN/bin/Debug/net6.0-windows/Skin/template/G.png</pathurl>
              <rate>
                <ntsc>FALSE</ntsc>
                <timebase>25</timebase>
              </rate>
              <duration>2</duration>
              <width>1920</width>
              <height>1080</height>
              <media>
                <video>
                  <duration>2</duration>
                  <stillframe>TRUE</stillframe>
                  <samplecharacteristics>
                    <rate>
                      <ntsc>FALSE</ntsc>
                      <timebase>25</timebase>
                    </rate>
                    <width>1920</width>
                    <height>1080</height>
                    <pixelaspectratio>Square</pixelaspectratio>
                    <anamorphic>FALSE</anamorphic>
                  </samplecharacteristics>
                </video>
              </media>
            </file>
            <sourcetrack>
              <mediatype>video</mediatype>
            </sourcetrack>
            <fielddominance>none</fielddominance>
          </clipitem>
          <clipitem id="C.png300">
            <name>C.png</name>
            <duration>5</duration>
            <rate>
              <ntsc>FALSE</ntsc>
              <timebase>25</timebase>
            </rate>
            <in>91157</in>
            <out>91161</out>
            <start>1157</start>
            <end>1161</end>
            <pixelaspectratio>Square</pixelaspectratio>
            <stillframe>TRUE</stillframe>
            <anamorphic>FALSE</anamorphic>
            <alphatype>straight</alphatype>
            <masterclipid>C.png300</masterclipid>
            <file id="C">
              <name>C.png</name>
              <pathurl>D:/Codes/SynthLip/SynthLipN/bin/Debug/net6.0-windows/Skin/template/C.png</pathurl>
              <rate>
                <ntsc>FALSE</ntsc>
                <timebase>25</timebase>
              </rate>
              <duration>2</duration>
              <width>1920</width>
              <height>1080</height>
              <media>
                <video>
                  <duration>2</duration>
                  <stillframe>TRUE</stillframe>
                  <samplecharacteristics>
                    <rate>
                      <ntsc>FALSE</ntsc>
                      <timebase>25</timebase>
                    </rate>
                    <width>1920</width>
                    <height>1080</height>
                    <pixelaspectratio>Square</pixelaspectratio>
                    <anamorphic>FALSE</anamorphic>
                  </samplecharacteristics>
                </video>
              </media>
            </file>
            <sourcetrack>
              <mediatype>video</mediatype>
            </sourcetrack>
            <fielddominance>none</fielddominance>
          </clipitem>
          <clipitem id="B.png299">
            <name>B.png</name>
            <duration>31</duration>
            <rate>
              <ntsc>FALSE</ntsc>
              <timebase>25</timebase>
            </rate>
            <in>91125</in>
            <out>91155</out>
            <start>1125</start>
            <end>1155</end>
            <pixelaspectratio>Square</pixelaspectratio>
            <stillframe>TRUE</stillframe>
            <anamorphic>FALSE</anamorphic>
            <alphatype>straight</alphatype>
            <masterclipid>B.png299</masterclipid>
            <file id="B">
              <name>B.png</name>
              <pathurl>D:/Codes/SynthLip/SynthLipN/bin/Debug/net6.0-windows/Skin/template/B.png</pathurl>
              <rate>
                <ntsc>FALSE</ntsc>
                <timebase>25</timebase>
              </rate>
              <duration>2</duration>
              <width>1920</width>
              <height>1080</height>
              <media>
                <video>
                  <duration>2</duration>
                  <stillframe>TRUE</stillframe>
                  <samplecharacteristics>
                    <rate>
                      <ntsc>FALSE</ntsc>
                      <timebase>25</timebase>
                    </rate>
                    <width>1920</width>
                    <height>1080</height>
                    <pixelaspectratio>Square</pixelaspectratio>
                    <anamorphic>FALSE</anamorphic>
                  </samplecharacteristics>
                </video>
              </media>
            </file>
            <sourcetrack>
              <mediatype>video</mediatype>
            </sourcetrack>
            <fielddominance>none</fielddominance>
          </clipitem>
          <clipitem id="B.png298">
            <name>B.png</name>
            <duration>3</duration>
            <rate>
              <ntsc>FALSE</ntsc>
              <timebase>25</timebase>
            </rate>
            <in>91122</in>
            <out>91124</out>
            <start>1122</start>
            <end>1124</end>
            <pixelaspectratio>Square</pixelaspectratio>
            <stillframe>TRUE</stillframe>
            <anamorphic>FALSE</anamorphic>
            <alphatype>straight</alphatype>
            <masterclipid>B.png298</masterclipid>
            <file id="B">
              <name>B.png</name>
              <pathurl>D:/Codes/SynthLip/SynthLipN/bin/Debug/net6.0-windows/Skin/template/B.png</pathurl>
              <rate>
                <ntsc>FALSE</ntsc>
                <timebase>25</timebase>
              </rate>
              <duration>2</duration>
              <width>1920</width>
              <height>1080</height>
              <media>
                <video>
                  <duration>2</duration>
                  <stillframe>TRUE</stillframe>
                  <samplecharacteristics>
                    <rate>
                      <ntsc>FALSE</ntsc>
                      <timebase>25</timebase>
                    </rate>
                    <width>1920</width>
                    <height>1080</height>
                    <pixelaspectratio>Square</pixelaspectratio>
                    <anamorphic>FALSE</anamorphic>
                  </samplecharacteristics>
                </video>
              </media>
            </file>
            <sourcetrack>
              <mediatype>video</mediatype>
            </sourcetrack>
            <fielddominance>none</fielddominance>
          </clipitem>
          <clipitem id="C.png297">
            <name>C.png</name>
            <duration>3</duration>
            <rate>
              <ntsc>FALSE</ntsc>
              <timebase>25</timebase>
            </rate>
            <in>91118</in>
            <out>91120</out>
            <start>1118</start>
            <end>1120</end>
            <pixelaspectratio>Square</pixelaspectratio>
            <stillframe>TRUE</stillframe>
            <anamorphic>FALSE</anamorphic>
            <alphatype>straight</alphatype>
            <masterclipid>C.png297</masterclipid>
            <file id="C">
              <name>C.png</name>
              <pathurl>D:/Codes/SynthLip/SynthLipN/bin/Debug/net6.0-windows/Skin/template/C.png</pathurl>
              <rate>
                <ntsc>FALSE</ntsc>
                <timebase>25</timebase>
              </rate>
              <duration>2</duration>
              <width>1920</width>
              <height>1080</height>
              <media>
                <video>
                  <duration>2</duration>
                  <stillframe>TRUE</stillframe>
                  <samplecharacteristics>
                    <rate>
                      <ntsc>FALSE</ntsc>
                      <timebase>25</timebase>
                    </rate>
                    <width>1920</width>
                    <height>1080</height>
                    <pixelaspectratio>Square</pixelaspectratio>
                    <anamorphic>FALSE</anamorphic>
                  </samplecharacteristics>
                </video>
              </media>
            </file>
            <sourcetrack>
              <mediatype>video</mediatype>
            </sourcetrack>
            <fielddominance>none</fielddominance>
          </clipitem>
          <clipitem id="G.png296">
            <name>G.png</name>
            <duration>3</duration>
            <rate>
              <ntsc>FALSE</ntsc>
              <timebase>25</timebase>
            </rate>
            <in>91114</in>
            <out>91116</out>
            <start>1114</start>
            <end>1116</end>
            <pixelaspectratio>Square</pixelaspectratio>
            <stillframe>TRUE</stillframe>
            <anamorphic>FALSE</anamorphic>
            <alphatype>straight</alphatype>
            <masterclipid>G.png296</masterclipid>
            <file id="G">
              <name>G.png</name>
              <pathurl>D:/Codes/SynthLip/SynthLipN/bin/Debug/net6.0-windows/Skin/template/G.png</pathurl>
              <rate>
                <ntsc>FALSE</ntsc>
                <timebase>25</timebase>
              </rate>
              <duration>2</duration>
              <width>1920</width>
              <height>1080</height>
              <media>
                <video>
                  <duration>2</duration>
                  <stillframe>TRUE</stillframe>
                  <samplecharacteristics>
                    <rate>
                      <ntsc>FALSE</ntsc>
                      <timebase>25</timebase>
                    </rate>
                    <width>1920</width>
                    <height>1080</height>
                    <pixelaspectratio>Square</pixelaspectratio>
                    <anamorphic>FALSE</anamorphic>
                  </samplecharacteristics>
                </video>
              </media>
            </file>
            <sourcetrack>
              <mediatype>video</mediatype>
            </sourcetrack>
            <fielddominance>none</fielddominance>
          </clipitem>
          <clipitem id="A.png295">
            <name>A.png</name>
            <duration>3</duration>
            <rate>
              <ntsc>FALSE</ntsc>
              <timebase>25</timebase>
            </rate>
            <in>91110</in>
            <out>91112</out>
            <start>1110</start>
            <end>1112</end>
            <pixelaspectratio>Square</pixelaspectratio>
            <stillframe>TRUE</stillframe>
            <anamorphic>FALSE</anamorphic>
            <alphatype>straight</alphatype>
            <masterclipid>A.png295</masterclipid>
            <file id="A">
              <name>A.png</name>
              <pathurl>D:/Codes/SynthLip/SynthLipN/bin/Debug/net6.0-windows/Skin/template/A.png</pathurl>
              <rate>
                <ntsc>FALSE</ntsc>
                <timebase>25</timebase>
              </rate>
              <duration>2</duration>
              <width>1920</width>
              <height>1080</height>
              <media>
                <video>
                  <duration>2</duration>
                  <stillframe>TRUE</stillframe>
                  <samplecharacteristics>
                    <rate>
                      <ntsc>FALSE</ntsc>
                      <timebase>25</timebase>
                    </rate>
                    <width>1920</width>
                    <height>1080</height>
                    <pixelaspectratio>Square</pixelaspectratio>
                    <anamorphic>FALSE</anamorphic>
                  </samplecharacteristics>
                </video>
              </media>
            </file>
            <sourcetrack>
              <mediatype>video</mediatype>
            </sourcetrack>
            <fielddominance>none</fielddominance>
          </clipitem>
          <clipitem id="B.png294">
            <name>B.png</name>
            <duration>3</duration>
            <rate>
              <ntsc>FALSE</ntsc>
              <timebase>25</timebase>
            </rate>
            <in>91107</in>
            <out>91109</out>
            <start>1107</start>
            <end>1109</end>
            <pixelaspectratio>Square</pixelaspectratio>
            <stillframe>TRUE</stillframe>
            <anamorphic>FALSE</anamorphic>
            <alphatype>straight</alphatype>
            <masterclipid>B.png294</masterclipid>
            <file id="B">
              <name>B.png</name>
              <pathurl>D:/Codes/SynthLip/SynthLipN/bin/Debug/net6.0-windows/Skin/template/B.png</pathurl>
              <rate>
                <ntsc>FALSE</ntsc>
                <timebase>25</timebase>
              </rate>
              <duration>2</duration>
              <width>1920</width>
              <height>1080</height>
              <media>
                <video>
                  <duration>2</duration>
                  <stillframe>TRUE</stillframe>
                  <samplecharacteristics>
                    <rate>
                      <ntsc>FALSE</ntsc>
                      <timebase>25</timebase>
                    </rate>
                    <width>1920</width>
                    <height>1080</height>
                    <pixelaspectratio>Square</pixelaspectratio>
                    <anamorphic>FALSE</anamorphic>
                  </samplecharacteristics>
                </video>
              </media>
            </file>
            <sourcetrack>
              <mediatype>video</mediatype>
            </sourcetrack>
            <fielddominance>none</fielddominance>
          </clipitem>
          <clipitem id="H.png290">
            <name>H.png</name>
            <duration>5</duration>
            <rate>
              <ntsc>FALSE</ntsc>
              <timebase>25</timebase>
            </rate>
            <in>91097</in>
            <out>91101</out>
            <start>1097</start>
            <end>1101</end>
            <pixelaspectratio>Square</pixelaspectratio>
            <stillframe>TRUE</stillframe>
            <anamorphic>FALSE</anamorphic>
            <alphatype>straight</alphatype>
            <masterclipid>H.png290</masterclipid>
            <file id="H">
              <name>H.png</name>
              <pathurl>D:/Codes/SynthLip/SynthLipN/bin/Debug/net6.0-windows/Skin/template/H.png</pathurl>
              <rate>
                <ntsc>FALSE</ntsc>
                <timebase>25</timebase>
              </rate>
              <duration>2</duration>
              <width>1920</width>
              <height>1080</height>
              <media>
                <video>
                  <duration>2</duration>
                  <stillframe>TRUE</stillframe>
                  <samplecharacteristics>
                    <rate>
                      <ntsc>FALSE</ntsc>
                      <timebase>25</timebase>
                    </rate>
                    <width>1920</width>
                    <height>1080</height>
                    <pixelaspectratio>Square</pixelaspectratio>
                    <anamorphic>FALSE</anamorphic>
                  </samplecharacteristics>
                </video>
              </media>
            </file>
            <sourcetrack>
              <mediatype>video</mediatype>
            </sourcetrack>
            <fielddominance>none</fielddominance>
          </clipitem>
          <clipitem id="F.png282">
            <name>F.png</name>
            <duration>5</duration>
            <rate>
              <ntsc>FALSE</ntsc>
              <timebase>25</timebase>
            </rate>
            <in>91082</in>
            <out>91086</out>
            <start>1082</start>
            <end>1086</end>
            <pixelaspectratio>Square</pixelaspectratio>
            <stillframe>TRUE</stillframe>
            <anamorphic>FALSE</anamorphic>
            <alphatype>straight</alphatype>
            <masterclipid>F.png282</masterclipid>
            <file id="F">
              <name>F.png</name>
              <pathurl>D:/Codes/SynthLip/SynthLipN/bin/Debug/net6.0-windows/Skin/template/F.png</pathurl>
              <rate>
                <ntsc>FALSE</ntsc>
                <timebase>25</timebase>
              </rate>
              <duration>2</duration>
              <width>1920</width>
              <height>1080</height>
              <media>
                <video>
                  <duration>2</duration>
                  <stillframe>TRUE</stillframe>
                  <samplecharacteristics>
                    <rate>
                      <ntsc>FALSE</ntsc>
                      <timebase>25</timebase>
                    </rate>
                    <width>1920</width>
                    <height>1080</height>
                    <pixelaspectratio>Square</pixelaspectratio>
                    <anamorphic>FALSE</anamorphic>
                  </samplecharacteristics>
                </video>
              </media>
            </file>
            <sourcetrack>
              <mediatype>video</mediatype>
            </sourcetrack>
            <fielddominance>none</fielddominance>
          </clipitem>
          <clipitem id="F.png279">
            <name>F.png</name>
            <duration>3</duration>
            <rate>
              <ntsc>FALSE</ntsc>
              <timebase>25</timebase>
            </rate>
            <in>91077</in>
            <out>91079</out>
            <start>1077</start>
            <end>1079</end>
            <pixelaspectratio>Square</pixelaspectratio>
            <stillframe>TRUE</stillframe>
            <anamorphic>FALSE</anamorphic>
            <alphatype>straight</alphatype>
            <masterclipid>F.png279</masterclipid>
            <file id="F">
              <name>F.png</name>
              <pathurl>D:/Codes/SynthLip/SynthLipN/bin/Debug/net6.0-windows/Skin/template/F.png</pathurl>
              <rate>
                <ntsc>FALSE</ntsc>
                <timebase>25</timebase>
              </rate>
              <duration>2</duration>
              <width>1920</width>
              <height>1080</height>
              <media>
                <video>
                  <duration>2</duration>
                  <stillframe>TRUE</stillframe>
                  <samplecharacteristics>
                    <rate>
                      <ntsc>FALSE</ntsc>
                      <timebase>25</timebase>
                    </rate>
                    <width>1920</width>
                    <height>1080</height>
                    <pixelaspectratio>Square</pixelaspectratio>
                    <anamorphic>FALSE</anamorphic>
                  </samplecharacteristics>
                </video>
              </media>
            </file>
            <sourcetrack>
              <mediatype>video</mediatype>
            </sourcetrack>
            <fielddominance>none</fielddominance>
          </clipitem>
          <clipitem id="A.png278">
            <name>A.png</name>
            <duration>3</duration>
            <rate>
              <ntsc>FALSE</ntsc>
              <timebase>25</timebase>
            </rate>
            <in>91073</in>
            <out>91075</out>
            <start>1073</start>
            <end>1075</end>
            <pixelaspectratio>Square</pixelaspectratio>
            <stillframe>TRUE</stillframe>
            <anamorphic>FALSE</anamorphic>
            <alphatype>straight</alphatype>
            <masterclipid>A.png278</masterclipid>
            <file id="A">
              <name>A.png</name>
              <pathurl>D:/Codes/SynthLip/SynthLipN/bin/Debug/net6.0-windows/Skin/template/A.png</pathurl>
              <rate>
                <ntsc>FALSE</ntsc>
                <timebase>25</timebase>
              </rate>
              <duration>2</duration>
              <width>1920</width>
              <height>1080</height>
              <media>
                <video>
                  <duration>2</duration>
                  <stillframe>TRUE</stillframe>
                  <samplecharacteristics>
                    <rate>
                      <ntsc>FALSE</ntsc>
                      <timebase>25</timebase>
                    </rate>
                    <width>1920</width>
                    <height>1080</height>
                    <pixelaspectratio>Square</pixelaspectratio>
                    <anamorphic>FALSE</anamorphic>
                  </samplecharacteristics>
                </video>
              </media>
            </file>
            <sourcetrack>
              <mediatype>video</mediatype>
            </sourcetrack>
            <fielddominance>none</fielddominance>
          </clipitem>
          <clipitem id="H.png277">
            <name>H.png</name>
            <duration>5</duration>
            <rate>
              <ntsc>FALSE</ntsc>
              <timebase>25</timebase>
            </rate>
            <in>91067</in>
            <out>91071</out>
            <start>1067</start>
            <end>1071</end>
            <pixelaspectratio>Square</pixelaspectratio>
            <stillframe>TRUE</stillframe>
            <anamorphic>FALSE</anamorphic>
            <alphatype>straight</alphatype>
            <masterclipid>H.png277</masterclipid>
            <file id="H">
              <name>H.png</name>
              <pathurl>D:/Codes/SynthLip/SynthLipN/bin/Debug/net6.0-windows/Skin/template/H.png</pathurl>
              <rate>
                <ntsc>FALSE</ntsc>
                <timebase>25</timebase>
              </rate>
              <duration>2</duration>
              <width>1920</width>
              <height>1080</height>
              <media>
                <video>
                  <duration>2</duration>
                  <stillframe>TRUE</stillframe>
                  <samplecharacteristics>
                    <rate>
                      <ntsc>FALSE</ntsc>
                      <timebase>25</timebase>
                    </rate>
                    <width>1920</width>
                    <height>1080</height>
                    <pixelaspectratio>Square</pixelaspectratio>
                    <anamorphic>FALSE</anamorphic>
                  </samplecharacteristics>
                </video>
              </media>
            </file>
            <sourcetrack>
              <mediatype>video</mediatype>
            </sourcetrack>
            <fielddominance>none</fielddominance>
          </clipitem>
          <clipitem id="B.png273">
            <name>B.png</name>
            <duration>3</duration>
            <rate>
              <ntsc>FALSE</ntsc>
              <timebase>25</timebase>
            </rate>
            <in>91062</in>
            <out>91064</out>
            <start>1062</start>
            <end>1064</end>
            <pixelaspectratio>Square</pixelaspectratio>
            <stillframe>TRUE</stillframe>
            <anamorphic>FALSE</anamorphic>
            <alphatype>straight</alphatype>
            <masterclipid>B.png273</masterclipid>
            <file id="B">
              <name>B.png</name>
              <pathurl>D:/Codes/SynthLip/SynthLipN/bin/Debug/net6.0-windows/Skin/template/B.png</pathurl>
              <rate>
                <ntsc>FALSE</ntsc>
                <timebase>25</timebase>
              </rate>
              <duration>2</duration>
              <width>1920</width>
              <height>1080</height>
              <media>
                <video>
                  <duration>2</duration>
                  <stillframe>TRUE</stillframe>
                  <samplecharacteristics>
                    <rate>
                      <ntsc>FALSE</ntsc>
                      <timebase>25</timebase>
                    </rate>
                    <width>1920</width>
                    <height>1080</height>
                    <pixelaspectratio>Square</pixelaspectratio>
                    <anamorphic>FALSE</anamorphic>
                  </samplecharacteristics>
                </video>
              </media>
            </file>
            <sourcetrack>
              <mediatype>video</mediatype>
            </sourcetrack>
            <fielddominance>none</fielddominance>
          </clipitem>
          <clipitem id="A.png272">
            <name>A.png</name>
            <duration>3</duration>
            <rate>
              <ntsc>FALSE</ntsc>
              <timebase>25</timebase>
            </rate>
            <in>91058</in>
            <out>91060</out>
            <start>1058</start>
            <end>1060</end>
            <pixelaspectratio>Square</pixelaspectratio>
            <stillframe>TRUE</stillframe>
            <anamorphic>FALSE</anamorphic>
            <alphatype>straight</alphatype>
            <masterclipid>A.png272</masterclipid>
            <file id="A">
              <name>A.png</name>
              <pathurl>D:/Codes/SynthLip/SynthLipN/bin/Debug/net6.0-windows/Skin/template/A.png</pathurl>
              <rate>
                <ntsc>FALSE</ntsc>
                <timebase>25</timebase>
              </rate>
              <duration>2</duration>
              <width>1920</width>
              <height>1080</height>
              <media>
                <video>
                  <duration>2</duration>
                  <stillframe>TRUE</stillframe>
                  <samplecharacteristics>
                    <rate>
                      <ntsc>FALSE</ntsc>
                      <timebase>25</timebase>
                    </rate>
                    <width>1920</width>
                    <height>1080</height>
                    <pixelaspectratio>Square</pixelaspectratio>
                    <anamorphic>FALSE</anamorphic>
                  </samplecharacteristics>
                </video>
              </media>
            </file>
            <sourcetrack>
              <mediatype>video</mediatype>
            </sourcetrack>
            <fielddominance>none</fielddominance>
          </clipitem>
          <clipitem id="F.png271">
            <name>F.png</name>
            <duration>5</duration>
            <rate>
              <ntsc>FALSE</ntsc>
              <timebase>25</timebase>
            </rate>
            <in>91052</in>
            <out>91056</out>
            <start>1052</start>
            <end>1056</end>
            <pixelaspectratio>Square</pixelaspectratio>
            <stillframe>TRUE</stillframe>
            <anamorphic>FALSE</anamorphic>
            <alphatype>straight</alphatype>
            <masterclipid>F.png271</masterclipid>
            <file id="F">
              <name>F.png</name>
              <pathurl>D:/Codes/SynthLip/SynthLipN/bin/Debug/net6.0-windows/Skin/template/F.png</pathurl>
              <rate>
                <ntsc>FALSE</ntsc>
                <timebase>25</timebase>
              </rate>
              <duration>2</duration>
              <width>1920</width>
              <height>1080</height>
              <media>
                <video>
                  <duration>2</duration>
                  <stillframe>TRUE</stillframe>
                  <samplecharacteristics>
                    <rate>
                      <ntsc>FALSE</ntsc>
                      <timebase>25</timebase>
                    </rate>
                    <width>1920</width>
                    <height>1080</height>
                    <pixelaspectratio>Square</pixelaspectratio>
                    <anamorphic>FALSE</anamorphic>
                  </samplecharacteristics>
                </video>
              </media>
            </file>
            <sourcetrack>
              <mediatype>video</mediatype>
            </sourcetrack>
            <fielddominance>none</fielddominance>
          </clipitem>
          <clipitem id="B.png267">
            <name>B.png</name>
            <duration>3</duration>
            <rate>
              <ntsc>FALSE</ntsc>
              <timebase>25</timebase>
            </rate>
            <in>91047</in>
            <out>91049</out>
            <start>1047</start>
            <end>1049</end>
            <pixelaspectratio>Square</pixelaspectratio>
            <stillframe>TRUE</stillframe>
            <anamorphic>FALSE</anamorphic>
            <alphatype>straight</alphatype>
            <masterclipid>B.png267</masterclipid>
            <file id="B">
              <name>B.png</name>
              <pathurl>D:/Codes/SynthLip/SynthLipN/bin/Debug/net6.0-windows/Skin/template/B.png</pathurl>
              <rate>
                <ntsc>FALSE</ntsc>
                <timebase>25</timebase>
              </rate>
              <duration>2</duration>
              <width>1920</width>
              <height>1080</height>
              <media>
                <video>
                  <duration>2</duration>
                  <stillframe>TRUE</stillframe>
                  <samplecharacteristics>
                    <rate>
                      <ntsc>FALSE</ntsc>
                      <timebase>25</timebase>
                    </rate>
                    <width>1920</width>
                    <height>1080</height>
                    <pixelaspectratio>Square</pixelaspectratio>
                    <anamorphic>FALSE</anamorphic>
                  </samplecharacteristics>
                </video>
              </media>
            </file>
            <sourcetrack>
              <mediatype>video</mediatype>
            </sourcetrack>
            <fielddominance>none</fielddominance>
          </clipitem>
          <clipitem id="A.png264">
            <name>A.png</name>
            <duration>44</duration>
            <rate>
              <ntsc>FALSE</ntsc>
              <timebase>25</timebase>
            </rate>
            <in>91000</in>
            <out>91043</out>
            <start>1000</start>
            <end>1043</end>
            <pixelaspectratio>Square</pixelaspectratio>
            <stillframe>TRUE</stillframe>
            <anamorphic>FALSE</anamorphic>
            <alphatype>straight</alphatype>
            <masterclipid>A.png264</masterclipid>
            <file id="A">
              <name>A.png</name>
              <pathurl>D:/Codes/SynthLip/SynthLipN/bin/Debug/net6.0-windows/Skin/template/A.png</pathurl>
              <rate>
                <ntsc>FALSE</ntsc>
                <timebase>25</timebase>
              </rate>
              <duration>2</duration>
              <width>1920</width>
              <height>1080</height>
              <media>
                <video>
                  <duration>2</duration>
                  <stillframe>TRUE</stillframe>
                  <samplecharacteristics>
                    <rate>
                      <ntsc>FALSE</ntsc>
                      <timebase>25</timebase>
                    </rate>
                    <width>1920</width>
                    <height>1080</height>
                    <pixelaspectratio>Square</pixelaspectratio>
                    <anamorphic>FALSE</anamorphic>
                  </samplecharacteristics>
                </video>
              </media>
            </file>
            <sourcetrack>
              <mediatype>video</mediatype>
            </sourcetrack>
            <fielddominance>none</fielddominance>
          </clipitem>
          <clipitem id="E.png263">
            <name>E.png</name>
            <duration>7</duration>
            <rate>
              <ntsc>FALSE</ntsc>
              <timebase>25</timebase>
            </rate>
            <in>90992</in>
            <out>90998</out>
            <start>992</start>
            <end>998</end>
            <pixelaspectratio>Square</pixelaspectratio>
            <stillframe>TRUE</stillframe>
            <anamorphic>FALSE</anamorphic>
            <alphatype>straight</alphatype>
            <masterclipid>E.png263</masterclipid>
            <file id="E">
              <name>E.png</name>
              <pathurl>D:/Codes/SynthLip/SynthLipN/bin/Debug/net6.0-windows/Skin/template/E.png</pathurl>
              <rate>
                <ntsc>FALSE</ntsc>
                <timebase>25</timebase>
              </rate>
              <duration>2</duration>
              <width>1920</width>
              <height>1080</height>
              <media>
                <video>
                  <duration>2</duration>
                  <stillframe>TRUE</stillframe>
                  <samplecharacteristics>
                    <rate>
                      <ntsc>FALSE</ntsc>
                      <timebase>25</timebase>
                    </rate>
                    <width>1920</width>
                    <height>1080</height>
                    <pixelaspectratio>Square</pixelaspectratio>
                    <anamorphic>FALSE</anamorphic>
                  </samplecharacteristics>
                </video>
              </media>
            </file>
            <sourcetrack>
              <mediatype>video</mediatype>
            </sourcetrack>
            <fielddominance>none</fielddominance>
          </clipitem>
          <clipitem id="F.png260">
            <name>F.png</name>
            <duration>2</duration>
            <rate>
              <ntsc>FALSE</ntsc>
              <timebase>25</timebase>
            </rate>
            <in>90988</in>
            <out>90989</out>
            <start>988</start>
            <end>989</end>
            <pixelaspectratio>Square</pixelaspectratio>
            <stillframe>TRUE</stillframe>
            <anamorphic>FALSE</anamorphic>
            <alphatype>straight</alphatype>
            <masterclipid>F.png260</masterclipid>
            <file id="F">
              <name>F.png</name>
              <pathurl>D:/Codes/SynthLip/SynthLipN/bin/Debug/net6.0-windows/Skin/template/F.png</pathurl>
              <rate>
                <ntsc>FALSE</ntsc>
                <timebase>25</timebase>
              </rate>
              <duration>2</duration>
              <width>1920</width>
              <height>1080</height>
              <media>
                <video>
                  <duration>2</duration>
                  <stillframe>TRUE</stillframe>
                  <samplecharacteristics>
                    <rate>
                      <ntsc>FALSE</ntsc>
                      <timebase>25</timebase>
                    </rate>
                    <width>1920</width>
                    <height>1080</height>
                    <pixelaspectratio>Square</pixelaspectratio>
                    <anamorphic>FALSE</anamorphic>
                  </samplecharacteristics>
                </video>
              </media>
            </file>
            <sourcetrack>
              <mediatype>video</mediatype>
            </sourcetrack>
            <fielddominance>none</fielddominance>
          </clipitem>
          <clipitem id="G.png259">
            <name>G.png</name>
            <duration>2</duration>
            <rate>
              <ntsc>FALSE</ntsc>
              <timebase>25</timebase>
            </rate>
            <in>90985</in>
            <out>90986</out>
            <start>985</start>
            <end>986</end>
            <pixelaspectratio>Square</pixelaspectratio>
            <stillframe>TRUE</stillframe>
            <anamorphic>FALSE</anamorphic>
            <alphatype>straight</alphatype>
            <masterclipid>G.png259</masterclipid>
            <file id="G">
              <name>G.png</name>
              <pathurl>D:/Codes/SynthLip/SynthLipN/bin/Debug/net6.0-windows/Skin/template/G.png</pathurl>
              <rate>
                <ntsc>FALSE</ntsc>
                <timebase>25</timebase>
              </rate>
              <duration>2</duration>
              <width>1920</width>
              <height>1080</height>
              <media>
                <video>
                  <duration>2</duration>
                  <stillframe>TRUE</stillframe>
                  <samplecharacteristics>
                    <rate>
                      <ntsc>FALSE</ntsc>
                      <timebase>25</timebase>
                    </rate>
                    <width>1920</width>
                    <height>1080</height>
                    <pixelaspectratio>Square</pixelaspectratio>
                    <anamorphic>FALSE</anamorphic>
                  </samplecharacteristics>
                </video>
              </media>
            </file>
            <sourcetrack>
              <mediatype>video</mediatype>
            </sourcetrack>
            <fielddominance>none</fielddominance>
          </clipitem>
          <clipitem id="A.png258">
            <name>A.png</name>
            <duration>2</duration>
            <rate>
              <ntsc>FALSE</ntsc>
              <timebase>25</timebase>
            </rate>
            <in>90983</in>
            <out>90984</out>
            <start>983</start>
            <end>984</end>
            <pixelaspectratio>Square</pixelaspectratio>
            <stillframe>TRUE</stillframe>
            <anamorphic>FALSE</anamorphic>
            <alphatype>straight</alphatype>
            <masterclipid>A.png258</masterclipid>
            <file id="A">
              <name>A.png</name>
              <pathurl>D:/Codes/SynthLip/SynthLipN/bin/Debug/net6.0-windows/Skin/template/A.png</pathurl>
              <rate>
                <ntsc>FALSE</ntsc>
                <timebase>25</timebase>
              </rate>
              <duration>2</duration>
              <width>1920</width>
              <height>1080</height>
              <media>
                <video>
                  <duration>2</duration>
                  <stillframe>TRUE</stillframe>
                  <samplecharacteristics>
                    <rate>
                      <ntsc>FALSE</ntsc>
                      <timebase>25</timebase>
                    </rate>
                    <width>1920</width>
                    <height>1080</height>
                    <pixelaspectratio>Square</pixelaspectratio>
                    <anamorphic>FALSE</anamorphic>
                  </samplecharacteristics>
                </video>
              </media>
            </file>
            <sourcetrack>
              <mediatype>video</mediatype>
            </sourcetrack>
            <fielddominance>none</fielddominance>
          </clipitem>
          <clipitem id="F.png257">
            <name>F.png</name>
            <duration>5</duration>
            <rate>
              <ntsc>FALSE</ntsc>
              <timebase>25</timebase>
            </rate>
            <in>90977</in>
            <out>90981</out>
            <start>977</start>
            <end>981</end>
            <pixelaspectratio>Square</pixelaspectratio>
            <stillframe>TRUE</stillframe>
            <anamorphic>FALSE</anamorphic>
            <alphatype>straight</alphatype>
            <masterclipid>F.png257</masterclipid>
            <file id="F">
              <name>F.png</name>
              <pathurl>D:/Codes/SynthLip/SynthLipN/bin/Debug/net6.0-windows/Skin/template/F.png</pathurl>
              <rate>
                <ntsc>FALSE</ntsc>
                <timebase>25</timebase>
              </rate>
              <duration>2</duration>
              <width>1920</width>
              <height>1080</height>
              <media>
                <video>
                  <duration>2</duration>
                  <stillframe>TRUE</stillframe>
                  <samplecharacteristics>
                    <rate>
                      <ntsc>FALSE</ntsc>
                      <timebase>25</timebase>
                    </rate>
                    <width>1920</width>
                    <height>1080</height>
                    <pixelaspectratio>Square</pixelaspectratio>
                    <anamorphic>FALSE</anamorphic>
                  </samplecharacteristics>
                </video>
              </media>
            </file>
            <sourcetrack>
              <mediatype>video</mediatype>
            </sourcetrack>
            <fielddominance>none</fielddominance>
          </clipitem>
          <clipitem id="B.png250">
            <name>B.png</name>
            <duration>5</duration>
            <rate>
              <ntsc>FALSE</ntsc>
              <timebase>25</timebase>
            </rate>
            <in>90962</in>
            <out>90966</out>
            <start>962</start>
            <end>966</end>
            <pixelaspectratio>Square</pixelaspectratio>
            <stillframe>TRUE</stillframe>
            <anamorphic>FALSE</anamorphic>
            <alphatype>straight</alphatype>
            <masterclipid>B.png250</masterclipid>
            <file id="B">
              <name>B.png</name>
              <pathurl>D:/Codes/SynthLip/SynthLipN/bin/Debug/net6.0-windows/Skin/template/B.png</pathurl>
              <rate>
                <ntsc>FALSE</ntsc>
                <timebase>25</timebase>
              </rate>
              <duration>2</duration>
              <width>1920</width>
              <height>1080</height>
              <media>
                <video>
                  <duration>2</duration>
                  <stillframe>TRUE</stillframe>
                  <samplecharacteristics>
                    <rate>
                      <ntsc>FALSE</ntsc>
                      <timebase>25</timebase>
                    </rate>
                    <width>1920</width>
                    <height>1080</height>
                    <pixelaspectratio>Square</pixelaspectratio>
                    <anamorphic>FALSE</anamorphic>
                  </samplecharacteristics>
                </video>
              </media>
            </file>
            <sourcetrack>
              <mediatype>video</mediatype>
            </sourcetrack>
            <fielddominance>none</fielddominance>
          </clipitem>
          <clipitem id="D.png246">
            <name>D.png</name>
            <duration>15</duration>
            <rate>
              <ntsc>FALSE</ntsc>
              <timebase>25</timebase>
            </rate>
            <in>90945</in>
            <out>90959</out>
            <start>945</start>
            <end>959</end>
            <pixelaspectratio>Square</pixelaspectratio>
            <stillframe>TRUE</stillframe>
            <anamorphic>FALSE</anamorphic>
            <alphatype>straight</alphatype>
            <masterclipid>D.png246</masterclipid>
            <file id="D">
              <name>D.png</name>
              <pathurl>D:/Codes/SynthLip/SynthLipN/bin/Debug/net6.0-windows/Skin/template/D.png</pathurl>
              <rate>
                <ntsc>FALSE</ntsc>
                <timebase>25</timebase>
              </rate>
              <duration>2</duration>
              <width>1920</width>
              <height>1080</height>
              <media>
                <video>
                  <duration>2</duration>
                  <stillframe>TRUE</stillframe>
                  <samplecharacteristics>
                    <rate>
                      <ntsc>FALSE</ntsc>
                      <timebase>25</timebase>
                    </rate>
                    <width>1920</width>
                    <height>1080</height>
                    <pixelaspectratio>Square</pixelaspectratio>
                    <anamorphic>FALSE</anamorphic>
                  </samplecharacteristics>
                </video>
              </media>
            </file>
            <sourcetrack>
              <mediatype>video</mediatype>
            </sourcetrack>
            <fielddominance>none</fielddominance>
          </clipitem>
          <clipitem id="D.png245">
            <name>D.png</name>
            <duration>4</duration>
            <rate>
              <ntsc>FALSE</ntsc>
              <timebase>25</timebase>
            </rate>
            <in>90940</in>
            <out>90943</out>
            <start>940</start>
            <end>943</end>
            <pixelaspectratio>Square</pixelaspectratio>
            <stillframe>TRUE</stillframe>
            <anamorphic>FALSE</anamorphic>
            <alphatype>straight</alphatype>
            <masterclipid>D.png245</masterclipid>
            <file id="D">
              <name>D.png</name>
              <pathurl>D:/Codes/SynthLip/SynthLipN/bin/Debug/net6.0-windows/Skin/template/D.png</pathurl>
              <rate>
                <ntsc>FALSE</ntsc>
                <timebase>25</timebase>
              </rate>
              <duration>2</duration>
              <width>1920</width>
              <height>1080</height>
              <media>
                <video>
                  <duration>2</duration>
                  <stillframe>TRUE</stillframe>
                  <samplecharacteristics>
                    <rate>
                      <ntsc>FALSE</ntsc>
                      <timebase>25</timebase>
                    </rate>
                    <width>1920</width>
                    <height>1080</height>
                    <pixelaspectratio>Square</pixelaspectratio>
                    <anamorphic>FALSE</anamorphic>
                  </samplecharacteristics>
                </video>
              </media>
            </file>
            <sourcetrack>
              <mediatype>video</mediatype>
            </sourcetrack>
            <fielddominance>none</fielddominance>
          </clipitem>
          <clipitem id="F.png244">
            <name>F.png</name>
            <duration>5</duration>
            <rate>
              <ntsc>FALSE</ntsc>
              <timebase>25</timebase>
            </rate>
            <in>90935</in>
            <out>90939</out>
            <start>935</start>
            <end>939</end>
            <pixelaspectratio>Square</pixelaspectratio>
            <stillframe>TRUE</stillframe>
            <anamorphic>FALSE</anamorphic>
            <alphatype>straight</alphatype>
            <masterclipid>F.png244</masterclipid>
            <file id="F">
              <name>F.png</name>
              <pathurl>D:/Codes/SynthLip/SynthLipN/bin/Debug/net6.0-windows/Skin/template/F.png</pathurl>
              <rate>
                <ntsc>FALSE</ntsc>
                <timebase>25</timebase>
              </rate>
              <duration>2</duration>
              <width>1920</width>
              <height>1080</height>
              <media>
                <video>
                  <duration>2</duration>
                  <stillframe>TRUE</stillframe>
                  <samplecharacteristics>
                    <rate>
                      <ntsc>FALSE</ntsc>
                      <timebase>25</timebase>
                    </rate>
                    <width>1920</width>
                    <height>1080</height>
                    <pixelaspectratio>Square</pixelaspectratio>
                    <anamorphic>FALSE</anamorphic>
                  </samplecharacteristics>
                </video>
              </media>
            </file>
            <sourcetrack>
              <mediatype>video</mediatype>
            </sourcetrack>
            <fielddominance>none</fielddominance>
          </clipitem>
          <clipitem id="A.png243">
            <name>A.png</name>
            <duration>4</duration>
            <rate>
              <ntsc>FALSE</ntsc>
              <timebase>25</timebase>
            </rate>
            <in>90931</in>
            <out>90934</out>
            <start>931</start>
            <end>934</end>
            <pixelaspectratio>Square</pixelaspectratio>
            <stillframe>TRUE</stillframe>
            <anamorphic>FALSE</anamorphic>
            <alphatype>straight</alphatype>
            <masterclipid>A.png243</masterclipid>
            <file id="A">
              <name>A.png</name>
              <pathurl>D:/Codes/SynthLip/SynthLipN/bin/Debug/net6.0-windows/Skin/template/A.png</pathurl>
              <rate>
                <ntsc>FALSE</ntsc>
                <timebase>25</timebase>
              </rate>
              <duration>2</duration>
              <width>1920</width>
              <height>1080</height>
              <media>
                <video>
                  <duration>2</duration>
                  <stillframe>TRUE</stillframe>
                  <samplecharacteristics>
                    <rate>
                      <ntsc>FALSE</ntsc>
                      <timebase>25</timebase>
                    </rate>
                    <width>1920</width>
                    <height>1080</height>
                    <pixelaspectratio>Square</pixelaspectratio>
                    <anamorphic>FALSE</anamorphic>
                  </samplecharacteristics>
                </video>
              </media>
            </file>
            <sourcetrack>
              <mediatype>video</mediatype>
            </sourcetrack>
            <fielddominance>none</fielddominance>
          </clipitem>
          <clipitem id="A.png242">
            <name>A.png</name>
            <duration>3</duration>
            <rate>
              <ntsc>FALSE</ntsc>
              <timebase>25</timebase>
            </rate>
            <in>90927</in>
            <out>90929</out>
            <start>927</start>
            <end>929</end>
            <pixelaspectratio>Square</pixelaspectratio>
            <stillframe>TRUE</stillframe>
            <anamorphic>FALSE</anamorphic>
            <alphatype>straight</alphatype>
            <masterclipid>A.png242</masterclipid>
            <file id="A">
              <name>A.png</name>
              <pathurl>D:/Codes/SynthLip/SynthLipN/bin/Debug/net6.0-windows/Skin/template/A.png</pathurl>
              <rate>
                <ntsc>FALSE</ntsc>
                <timebase>25</timebase>
              </rate>
              <duration>2</duration>
              <width>1920</width>
              <height>1080</height>
              <media>
                <video>
                  <duration>2</duration>
                  <stillframe>TRUE</stillframe>
                  <samplecharacteristics>
                    <rate>
                      <ntsc>FALSE</ntsc>
                      <timebase>25</timebase>
                    </rate>
                    <width>1920</width>
                    <height>1080</height>
                    <pixelaspectratio>Square</pixelaspectratio>
                    <anamorphic>FALSE</anamorphic>
                  </samplecharacteristics>
                </video>
              </media>
            </file>
            <sourcetrack>
              <mediatype>video</mediatype>
            </sourcetrack>
            <fielddominance>none</fielddominance>
          </clipitem>
          <clipitem id="C.png236">
            <name>C.png</name>
            <duration>5</duration>
            <rate>
              <ntsc>FALSE</ntsc>
              <timebase>25</timebase>
            </rate>
            <in>90917</in>
            <out>90921</out>
            <start>917</start>
            <end>921</end>
            <pixelaspectratio>Square</pixelaspectratio>
            <stillframe>TRUE</stillframe>
            <anamorphic>FALSE</anamorphic>
            <alphatype>straight</alphatype>
            <masterclipid>C.png236</masterclipid>
            <file id="C">
              <name>C.png</name>
              <pathurl>D:/Codes/SynthLip/SynthLipN/bin/Debug/net6.0-windows/Skin/template/C.png</pathurl>
              <rate>
                <ntsc>FALSE</ntsc>
                <timebase>25</timebase>
              </rate>
              <duration>2</duration>
              <width>1920</width>
              <height>1080</height>
              <media>
                <video>
                  <duration>2</duration>
                  <stillframe>TRUE</stillframe>
                  <samplecharacteristics>
                    <rate>
                      <ntsc>FALSE</ntsc>
                      <timebase>25</timebase>
                    </rate>
                    <width>1920</width>
                    <height>1080</height>
                    <pixelaspectratio>Square</pixelaspectratio>
                    <anamorphic>FALSE</anamorphic>
                  </samplecharacteristics>
                </video>
              </media>
            </file>
            <sourcetrack>
              <mediatype>video</mediatype>
            </sourcetrack>
            <fielddominance>none</fielddominance>
          </clipitem>
          <clipitem id="A.png234">
            <name>A.png</name>
            <duration>6</duration>
            <rate>
              <ntsc>FALSE</ntsc>
              <timebase>25</timebase>
            </rate>
            <in>90910</in>
            <out>90915</out>
            <start>910</start>
            <end>915</end>
            <pixelaspectratio>Square</pixelaspectratio>
            <stillframe>TRUE</stillframe>
            <anamorphic>FALSE</anamorphic>
            <alphatype>straight</alphatype>
            <masterclipid>A.png234</masterclipid>
            <file id="A">
              <name>A.png</name>
              <pathurl>D:/Codes/SynthLip/SynthLipN/bin/Debug/net6.0-windows/Skin/template/A.png</pathurl>
              <rate>
                <ntsc>FALSE</ntsc>
                <timebase>25</timebase>
              </rate>
              <duration>2</duration>
              <width>1920</width>
              <height>1080</height>
              <media>
                <video>
                  <duration>2</duration>
                  <stillframe>TRUE</stillframe>
                  <samplecharacteristics>
                    <rate>
                      <ntsc>FALSE</ntsc>
                      <timebase>25</timebase>
                    </rate>
                    <width>1920</width>
                    <height>1080</height>
                    <pixelaspectratio>Square</pixelaspectratio>
                    <anamorphic>FALSE</anamorphic>
                  </samplecharacteristics>
                </video>
              </media>
            </file>
            <sourcetrack>
              <mediatype>video</mediatype>
            </sourcetrack>
            <fielddominance>none</fielddominance>
          </clipitem>
          <clipitem id="B.png233">
            <name>B.png</name>
            <duration>7</duration>
            <rate>
              <ntsc>FALSE</ntsc>
              <timebase>25</timebase>
            </rate>
            <in>90902</in>
            <out>90908</out>
            <start>902</start>
            <end>908</end>
            <pixelaspectratio>Square</pixelaspectratio>
            <stillframe>TRUE</stillframe>
            <anamorphic>FALSE</anamorphic>
            <alphatype>straight</alphatype>
            <masterclipid>B.png233</masterclipid>
            <file id="B">
              <name>B.png</name>
              <pathurl>D:/Codes/SynthLip/SynthLipN/bin/Debug/net6.0-windows/Skin/template/B.png</pathurl>
              <rate>
                <ntsc>FALSE</ntsc>
                <timebase>25</timebase>
              </rate>
              <duration>2</duration>
              <width>1920</width>
              <height>1080</height>
              <media>
                <video>
                  <duration>2</duration>
                  <stillframe>TRUE</stillframe>
                  <samplecharacteristics>
                    <rate>
                      <ntsc>FALSE</ntsc>
                      <timebase>25</timebase>
                    </rate>
                    <width>1920</width>
                    <height>1080</height>
                    <pixelaspectratio>Square</pixelaspectratio>
                    <anamorphic>FALSE</anamorphic>
                  </samplecharacteristics>
                </video>
              </media>
            </file>
            <sourcetrack>
              <mediatype>video</mediatype>
            </sourcetrack>
            <fielddominance>none</fielddominance>
          </clipitem>
          <clipitem id="F.png229">
            <name>F.png</name>
            <duration>2</duration>
            <rate>
              <ntsc>FALSE</ntsc>
              <timebase>25</timebase>
            </rate>
            <in>90898</in>
            <out>90899</out>
            <start>898</start>
            <end>899</end>
            <pixelaspectratio>Square</pixelaspectratio>
            <stillframe>TRUE</stillframe>
            <anamorphic>FALSE</anamorphic>
            <alphatype>straight</alphatype>
            <masterclipid>F.png229</masterclipid>
            <file id="F">
              <name>F.png</name>
              <pathurl>D:/Codes/SynthLip/SynthLipN/bin/Debug/net6.0-windows/Skin/template/F.png</pathurl>
              <rate>
                <ntsc>FALSE</ntsc>
                <timebase>25</timebase>
              </rate>
              <duration>2</duration>
              <width>1920</width>
              <height>1080</height>
              <media>
                <video>
                  <duration>2</duration>
                  <stillframe>TRUE</stillframe>
                  <samplecharacteristics>
                    <rate>
                      <ntsc>FALSE</ntsc>
                      <timebase>25</timebase>
                    </rate>
                    <width>1920</width>
                    <height>1080</height>
                    <pixelaspectratio>Square</pixelaspectratio>
                    <anamorphic>FALSE</anamorphic>
                  </samplecharacteristics>
                </video>
              </media>
            </file>
            <sourcetrack>
              <mediatype>video</mediatype>
            </sourcetrack>
            <fielddominance>none</fielddominance>
          </clipitem>
          <clipitem id="H.png228">
            <name>H.png</name>
            <duration>2</duration>
            <rate>
              <ntsc>FALSE</ntsc>
              <timebase>25</timebase>
            </rate>
            <in>90896</in>
            <out>90897</out>
            <start>896</start>
            <end>897</end>
            <pixelaspectratio>Square</pixelaspectratio>
            <stillframe>TRUE</stillframe>
            <anamorphic>FALSE</anamorphic>
            <alphatype>straight</alphatype>
            <masterclipid>H.png228</masterclipid>
            <file id="H">
              <name>H.png</name>
              <pathurl>D:/Codes/SynthLip/SynthLipN/bin/Debug/net6.0-windows/Skin/template/H.png</pathurl>
              <rate>
                <ntsc>FALSE</ntsc>
                <timebase>25</timebase>
              </rate>
              <duration>2</duration>
              <width>1920</width>
              <height>1080</height>
              <media>
                <video>
                  <duration>2</duration>
                  <stillframe>TRUE</stillframe>
                  <samplecharacteristics>
                    <rate>
                      <ntsc>FALSE</ntsc>
                      <timebase>25</timebase>
                    </rate>
                    <width>1920</width>
                    <height>1080</height>
                    <pixelaspectratio>Square</pixelaspectratio>
                    <anamorphic>FALSE</anamorphic>
                  </samplecharacteristics>
                </video>
              </media>
            </file>
            <sourcetrack>
              <mediatype>video</mediatype>
            </sourcetrack>
            <fielddominance>none</fielddominance>
          </clipitem>
          <clipitem id="F.png227">
            <name>F.png</name>
            <duration>2</duration>
            <rate>
              <ntsc>FALSE</ntsc>
              <timebase>25</timebase>
            </rate>
            <in>90893</in>
            <out>90894</out>
            <start>893</start>
            <end>894</end>
            <pixelaspectratio>Square</pixelaspectratio>
            <stillframe>TRUE</stillframe>
            <anamorphic>FALSE</anamorphic>
            <alphatype>straight</alphatype>
            <masterclipid>F.png227</masterclipid>
            <file id="F">
              <name>F.png</name>
              <pathurl>D:/Codes/SynthLip/SynthLipN/bin/Debug/net6.0-windows/Skin/template/F.png</pathurl>
              <rate>
                <ntsc>FALSE</ntsc>
                <timebase>25</timebase>
              </rate>
              <duration>2</duration>
              <width>1920</width>
              <height>1080</height>
              <media>
                <video>
                  <duration>2</duration>
                  <stillframe>TRUE</stillframe>
                  <samplecharacteristics>
                    <rate>
                      <ntsc>FALSE</ntsc>
                      <timebase>25</timebase>
                    </rate>
                    <width>1920</width>
                    <height>1080</height>
                    <pixelaspectratio>Square</pixelaspectratio>
                    <anamorphic>FALSE</anamorphic>
                  </samplecharacteristics>
                </video>
              </media>
            </file>
            <sourcetrack>
              <mediatype>video</mediatype>
            </sourcetrack>
            <fielddominance>none</fielddominance>
          </clipitem>
          <clipitem id="B.png226">
            <name>B.png</name>
            <duration>3</duration>
            <rate>
              <ntsc>FALSE</ntsc>
              <timebase>25</timebase>
            </rate>
            <in>90889</in>
            <out>90891</out>
            <start>889</start>
            <end>891</end>
            <pixelaspectratio>Square</pixelaspectratio>
            <stillframe>TRUE</stillframe>
            <anamorphic>FALSE</anamorphic>
            <alphatype>straight</alphatype>
            <masterclipid>B.png226</masterclipid>
            <file id="B">
              <name>B.png</name>
              <pathurl>D:/Codes/SynthLip/SynthLipN/bin/Debug/net6.0-windows/Skin/template/B.png</pathurl>
              <rate>
                <ntsc>FALSE</ntsc>
                <timebase>25</timebase>
              </rate>
              <duration>2</duration>
              <width>1920</width>
              <height>1080</height>
              <media>
                <video>
                  <duration>2</duration>
                  <stillframe>TRUE</stillframe>
                  <samplecharacteristics>
                    <rate>
                      <ntsc>FALSE</ntsc>
                      <timebase>25</timebase>
                    </rate>
                    <width>1920</width>
                    <height>1080</height>
                    <pixelaspectratio>Square</pixelaspectratio>
                    <anamorphic>FALSE</anamorphic>
                  </samplecharacteristics>
                </video>
              </media>
            </file>
            <sourcetrack>
              <mediatype>video</mediatype>
            </sourcetrack>
            <fielddominance>none</fielddominance>
          </clipitem>
          <clipitem id="A.png225">
            <name>A.png</name>
            <duration>3</duration>
            <rate>
              <ntsc>FALSE</ntsc>
              <timebase>25</timebase>
            </rate>
            <in>90885</in>
            <out>90887</out>
            <start>885</start>
            <end>887</end>
            <pixelaspectratio>Square</pixelaspectratio>
            <stillframe>TRUE</stillframe>
            <anamorphic>FALSE</anamorphic>
            <alphatype>straight</alphatype>
            <masterclipid>A.png225</masterclipid>
            <file id="A">
              <name>A.png</name>
              <pathurl>D:/Codes/SynthLip/SynthLipN/bin/Debug/net6.0-windows/Skin/template/A.png</pathurl>
              <rate>
                <ntsc>FALSE</ntsc>
                <timebase>25</timebase>
              </rate>
              <duration>2</duration>
              <width>1920</width>
              <height>1080</height>
              <media>
                <video>
                  <duration>2</duration>
                  <stillframe>TRUE</stillframe>
                  <samplecharacteristics>
                    <rate>
                      <ntsc>FALSE</ntsc>
                      <timebase>25</timebase>
                    </rate>
                    <width>1920</width>
                    <height>1080</height>
                    <pixelaspectratio>Square</pixelaspectratio>
                    <anamorphic>FALSE</anamorphic>
                  </samplecharacteristics>
                </video>
              </media>
            </file>
            <sourcetrack>
              <mediatype>video</mediatype>
            </sourcetrack>
            <fielddominance>none</fielddominance>
          </clipitem>
          <clipitem id="C.png224">
            <name>C.png</name>
            <duration>5</duration>
            <rate>
              <ntsc>FALSE</ntsc>
              <timebase>25</timebase>
            </rate>
            <in>90880</in>
            <out>90884</out>
            <start>880</start>
            <end>884</end>
            <pixelaspectratio>Square</pixelaspectratio>
            <stillframe>TRUE</stillframe>
            <anamorphic>FALSE</anamorphic>
            <alphatype>straight</alphatype>
            <masterclipid>C.png224</masterclipid>
            <file id="C">
              <name>C.png</name>
              <pathurl>D:/Codes/SynthLip/SynthLipN/bin/Debug/net6.0-windows/Skin/template/C.png</pathurl>
              <rate>
                <ntsc>FALSE</ntsc>
                <timebase>25</timebase>
              </rate>
              <duration>2</duration>
              <width>1920</width>
              <height>1080</height>
              <media>
                <video>
                  <duration>2</duration>
                  <stillframe>TRUE</stillframe>
                  <samplecharacteristics>
                    <rate>
                      <ntsc>FALSE</ntsc>
                      <timebase>25</timebase>
                    </rate>
                    <width>1920</width>
                    <height>1080</height>
                    <pixelaspectratio>Square</pixelaspectratio>
                    <anamorphic>FALSE</anamorphic>
                  </samplecharacteristics>
                </video>
              </media>
            </file>
            <sourcetrack>
              <mediatype>video</mediatype>
            </sourcetrack>
            <fielddominance>none</fielddominance>
          </clipitem>
          <clipitem id="F.png220">
            <name>F.png</name>
            <duration>2</duration>
            <rate>
              <ntsc>FALSE</ntsc>
              <timebase>25</timebase>
            </rate>
            <in>90875</in>
            <out>90876</out>
            <start>875</start>
            <end>876</end>
            <pixelaspectratio>Square</pixelaspectratio>
            <stillframe>TRUE</stillframe>
            <anamorphic>FALSE</anamorphic>
            <alphatype>straight</alphatype>
            <masterclipid>F.png220</masterclipid>
            <file id="F">
              <name>F.png</name>
              <pathurl>D:/Codes/SynthLip/SynthLipN/bin/Debug/net6.0-windows/Skin/template/F.png</pathurl>
              <rate>
                <ntsc>FALSE</ntsc>
                <timebase>25</timebase>
              </rate>
              <duration>2</duration>
              <width>1920</width>
              <height>1080</height>
              <media>
                <video>
                  <duration>2</duration>
                  <stillframe>TRUE</stillframe>
                  <samplecharacteristics>
                    <rate>
                      <ntsc>FALSE</ntsc>
                      <timebase>25</timebase>
                    </rate>
                    <width>1920</width>
                    <height>1080</height>
                    <pixelaspectratio>Square</pixelaspectratio>
                    <anamorphic>FALSE</anamorphic>
                  </samplecharacteristics>
                </video>
              </media>
            </file>
            <sourcetrack>
              <mediatype>video</mediatype>
            </sourcetrack>
            <fielddominance>none</fielddominance>
          </clipitem>
          <clipitem id="B.png219">
            <name>B.png</name>
            <duration>2</duration>
            <rate>
              <ntsc>FALSE</ntsc>
              <timebase>25</timebase>
            </rate>
            <in>90873</in>
            <out>90874</out>
            <start>873</start>
            <end>874</end>
            <pixelaspectratio>Square</pixelaspectratio>
            <stillframe>TRUE</stillframe>
            <anamorphic>FALSE</anamorphic>
            <alphatype>straight</alphatype>
            <masterclipid>B.png219</masterclipid>
            <file id="B">
              <name>B.png</name>
              <pathurl>D:/Codes/SynthLip/SynthLipN/bin/Debug/net6.0-windows/Skin/template/B.png</pathurl>
              <rate>
                <ntsc>FALSE</ntsc>
                <timebase>25</timebase>
              </rate>
              <duration>2</duration>
              <width>1920</width>
              <height>1080</height>
              <media>
                <video>
                  <duration>2</duration>
                  <stillframe>TRUE</stillframe>
                  <samplecharacteristics>
                    <rate>
                      <ntsc>FALSE</ntsc>
                      <timebase>25</timebase>
                    </rate>
                    <width>1920</width>
                    <height>1080</height>
                    <pixelaspectratio>Square</pixelaspectratio>
                    <anamorphic>FALSE</anamorphic>
                  </samplecharacteristics>
                </video>
              </media>
            </file>
            <sourcetrack>
              <mediatype>video</mediatype>
            </sourcetrack>
            <fielddominance>none</fielddominance>
          </clipitem>
          <clipitem id="A.png218">
            <name>A.png</name>
            <duration>2</duration>
            <rate>
              <ntsc>FALSE</ntsc>
              <timebase>25</timebase>
            </rate>
            <in>90870</in>
            <out>90871</out>
            <start>870</start>
            <end>871</end>
            <pixelaspectratio>Square</pixelaspectratio>
            <stillframe>TRUE</stillframe>
            <anamorphic>FALSE</anamorphic>
            <alphatype>straight</alphatype>
            <masterclipid>A.png218</masterclipid>
            <file id="A">
              <name>A.png</name>
              <pathurl>D:/Codes/SynthLip/SynthLipN/bin/Debug/net6.0-windows/Skin/template/A.png</pathurl>
              <rate>
                <ntsc>FALSE</ntsc>
                <timebase>25</timebase>
              </rate>
              <duration>2</duration>
              <width>1920</width>
              <height>1080</height>
              <media>
                <video>
                  <duration>2</duration>
                  <stillframe>TRUE</stillframe>
                  <samplecharacteristics>
                    <rate>
                      <ntsc>FALSE</ntsc>
                      <timebase>25</timebase>
                    </rate>
                    <width>1920</width>
                    <height>1080</height>
                    <pixelaspectratio>Square</pixelaspectratio>
                    <anamorphic>FALSE</anamorphic>
                  </samplecharacteristics>
                </video>
              </media>
            </file>
            <sourcetrack>
              <mediatype>video</mediatype>
            </sourcetrack>
            <fielddominance>none</fielddominance>
          </clipitem>
          <clipitem id="B.png211">
            <name>B.png</name>
            <duration>5</duration>
            <rate>
              <ntsc>FALSE</ntsc>
              <timebase>25</timebase>
            </rate>
            <in>90857</in>
            <out>90861</out>
            <start>857</start>
            <end>861</end>
            <pixelaspectratio>Square</pixelaspectratio>
            <stillframe>TRUE</stillframe>
            <anamorphic>FALSE</anamorphic>
            <alphatype>straight</alphatype>
            <masterclipid>B.png211</masterclipid>
            <file id="B">
              <name>B.png</name>
              <pathurl>D:/Codes/SynthLip/SynthLipN/bin/Debug/net6.0-windows/Skin/template/B.png</pathurl>
              <rate>
                <ntsc>FALSE</ntsc>
                <timebase>25</timebase>
              </rate>
              <duration>2</duration>
              <width>1920</width>
              <height>1080</height>
              <media>
                <video>
                  <duration>2</duration>
                  <stillframe>TRUE</stillframe>
                  <samplecharacteristics>
                    <rate>
                      <ntsc>FALSE</ntsc>
                      <timebase>25</timebase>
                    </rate>
                    <width>1920</width>
                    <height>1080</height>
                    <pixelaspectratio>Square</pixelaspectratio>
                    <anamorphic>FALSE</anamorphic>
                  </samplecharacteristics>
                </video>
              </media>
            </file>
            <sourcetrack>
              <mediatype>video</mediatype>
            </sourcetrack>
            <fielddominance>none</fielddominance>
          </clipitem>
          <clipitem id="B.png207">
            <name>B.png</name>
            <duration>5</duration>
            <rate>
              <ntsc>FALSE</ntsc>
              <timebase>25</timebase>
            </rate>
            <in>90850</in>
            <out>90854</out>
            <start>850</start>
            <end>854</end>
            <pixelaspectratio>Square</pixelaspectratio>
            <stillframe>TRUE</stillframe>
            <anamorphic>FALSE</anamorphic>
            <alphatype>straight</alphatype>
            <masterclipid>B.png207</masterclipid>
            <file id="B">
              <name>B.png</name>
              <pathurl>D:/Codes/SynthLip/SynthLipN/bin/Debug/net6.0-windows/Skin/template/B.png</pathurl>
              <rate>
                <ntsc>FALSE</ntsc>
                <timebase>25</timebase>
              </rate>
              <duration>2</duration>
              <width>1920</width>
              <height>1080</height>
              <media>
                <video>
                  <duration>2</duration>
                  <stillframe>TRUE</stillframe>
                  <samplecharacteristics>
                    <rate>
                      <ntsc>FALSE</ntsc>
                      <timebase>25</timebase>
                    </rate>
                    <width>1920</width>
                    <height>1080</height>
                    <pixelaspectratio>Square</pixelaspectratio>
                    <anamorphic>FALSE</anamorphic>
                  </samplecharacteristics>
                </video>
              </media>
            </file>
            <sourcetrack>
              <mediatype>video</mediatype>
            </sourcetrack>
            <fielddominance>none</fielddominance>
          </clipitem>
          <clipitem id="G.png203">
            <name>G.png</name>
            <duration>3</duration>
            <rate>
              <ntsc>FALSE</ntsc>
              <timebase>25</timebase>
            </rate>
            <in>90844</in>
            <out>90846</out>
            <start>844</start>
            <end>846</end>
            <pixelaspectratio>Square</pixelaspectratio>
            <stillframe>TRUE</stillframe>
            <anamorphic>FALSE</anamorphic>
            <alphatype>straight</alphatype>
            <masterclipid>G.png203</masterclipid>
            <file id="G">
              <name>G.png</name>
              <pathurl>D:/Codes/SynthLip/SynthLipN/bin/Debug/net6.0-windows/Skin/template/G.png</pathurl>
              <rate>
                <ntsc>FALSE</ntsc>
                <timebase>25</timebase>
              </rate>
              <duration>2</duration>
              <width>1920</width>
              <height>1080</height>
              <media>
                <video>
                  <duration>2</duration>
                  <stillframe>TRUE</stillframe>
                  <samplecharacteristics>
                    <rate>
                      <ntsc>FALSE</ntsc>
                      <timebase>25</timebase>
                    </rate>
                    <width>1920</width>
                    <height>1080</height>
                    <pixelaspectratio>Square</pixelaspectratio>
                    <anamorphic>FALSE</anamorphic>
                  </samplecharacteristics>
                </video>
              </media>
            </file>
            <sourcetrack>
              <mediatype>video</mediatype>
            </sourcetrack>
            <fielddominance>none</fielddominance>
          </clipitem>
          <clipitem id="B.png193">
            <name>B.png</name>
            <duration>5</duration>
            <rate>
              <ntsc>FALSE</ntsc>
              <timebase>25</timebase>
            </rate>
            <in>90827</in>
            <out>90831</out>
            <start>827</start>
            <end>831</end>
            <pixelaspectratio>Square</pixelaspectratio>
            <stillframe>TRUE</stillframe>
            <anamorphic>FALSE</anamorphic>
            <alphatype>straight</alphatype>
            <masterclipid>B.png193</masterclipid>
            <file id="B">
              <name>B.png</name>
              <pathurl>D:/Codes/SynthLip/SynthLipN/bin/Debug/net6.0-windows/Skin/template/B.png</pathurl>
              <rate>
                <ntsc>FALSE</ntsc>
                <timebase>25</timebase>
              </rate>
              <duration>2</duration>
              <width>1920</width>
              <height>1080</height>
              <media>
                <video>
                  <duration>2</duration>
                  <stillframe>TRUE</stillframe>
                  <samplecharacteristics>
                    <rate>
                      <ntsc>FALSE</ntsc>
                      <timebase>25</timebase>
                    </rate>
                    <width>1920</width>
                    <height>1080</height>
                    <pixelaspectratio>Square</pixelaspectratio>
                    <anamorphic>FALSE</anamorphic>
                  </samplecharacteristics>
                </video>
              </media>
            </file>
            <sourcetrack>
              <mediatype>video</mediatype>
            </sourcetrack>
            <fielddominance>none</fielddominance>
          </clipitem>
          <clipitem id="B.png188">
            <name>B.png</name>
            <duration>3</duration>
            <rate>
              <ntsc>FALSE</ntsc>
              <timebase>25</timebase>
            </rate>
            <in>90822</in>
            <out>90824</out>
            <start>822</start>
            <end>824</end>
            <pixelaspectratio>Square</pixelaspectratio>
            <stillframe>TRUE</stillframe>
            <anamorphic>FALSE</anamorphic>
            <alphatype>straight</alphatype>
            <masterclipid>B.png188</masterclipid>
            <file id="B">
              <name>B.png</name>
              <pathurl>D:/Codes/SynthLip/SynthLipN/bin/Debug/net6.0-windows/Skin/template/B.png</pathurl>
              <rate>
                <ntsc>FALSE</ntsc>
                <timebase>25</timebase>
              </rate>
              <duration>2</duration>
              <width>1920</width>
              <height>1080</height>
              <media>
                <video>
                  <duration>2</duration>
                  <stillframe>TRUE</stillframe>
                  <samplecharacteristics>
                    <rate>
                      <ntsc>FALSE</ntsc>
                      <timebase>25</timebase>
                    </rate>
                    <width>1920</width>
                    <height>1080</height>
                    <pixelaspectratio>Square</pixelaspectratio>
                    <anamorphic>FALSE</anamorphic>
                  </samplecharacteristics>
                </video>
              </media>
            </file>
            <sourcetrack>
              <mediatype>video</mediatype>
            </sourcetrack>
            <fielddominance>none</fielddominance>
          </clipitem>
          <clipitem id="A.png187">
            <name>A.png</name>
            <duration>3</duration>
            <rate>
              <ntsc>FALSE</ntsc>
              <timebase>25</timebase>
            </rate>
            <in>90818</in>
            <out>90820</out>
            <start>818</start>
            <end>820</end>
            <pixelaspectratio>Square</pixelaspectratio>
            <stillframe>TRUE</stillframe>
            <anamorphic>FALSE</anamorphic>
            <alphatype>straight</alphatype>
            <masterclipid>A.png187</masterclipid>
            <file id="A">
              <name>A.png</name>
              <pathurl>D:/Codes/SynthLip/SynthLipN/bin/Debug/net6.0-windows/Skin/template/A.png</pathurl>
              <rate>
                <ntsc>FALSE</ntsc>
                <timebase>25</timebase>
              </rate>
              <duration>2</duration>
              <width>1920</width>
              <height>1080</height>
              <media>
                <video>
                  <duration>2</duration>
                  <stillframe>TRUE</stillframe>
                  <samplecharacteristics>
                    <rate>
                      <ntsc>FALSE</ntsc>
                      <timebase>25</timebase>
                    </rate>
                    <width>1920</width>
                    <height>1080</height>
                    <pixelaspectratio>Square</pixelaspectratio>
                    <anamorphic>FALSE</anamorphic>
                  </samplecharacteristics>
                </video>
              </media>
            </file>
            <sourcetrack>
              <mediatype>video</mediatype>
            </sourcetrack>
            <fielddominance>none</fielddominance>
          </clipitem>
          <clipitem id="D.png186">
            <name>D.png</name>
            <duration>5</duration>
            <rate>
              <ntsc>FALSE</ntsc>
              <timebase>25</timebase>
            </rate>
            <in>90812</in>
            <out>90816</out>
            <start>812</start>
            <end>816</end>
            <pixelaspectratio>Square</pixelaspectratio>
            <stillframe>TRUE</stillframe>
            <anamorphic>FALSE</anamorphic>
            <alphatype>straight</alphatype>
            <masterclipid>D.png186</masterclipid>
            <file id="D">
              <name>D.png</name>
              <pathurl>D:/Codes/SynthLip/SynthLipN/bin/Debug/net6.0-windows/Skin/template/D.png</pathurl>
              <rate>
                <ntsc>FALSE</ntsc>
                <timebase>25</timebase>
              </rate>
              <duration>2</duration>
              <width>1920</width>
              <height>1080</height>
              <media>
                <video>
                  <duration>2</duration>
                  <stillframe>TRUE</stillframe>
                  <samplecharacteristics>
                    <rate>
                      <ntsc>FALSE</ntsc>
                      <timebase>25</timebase>
                    </rate>
                    <width>1920</width>
                    <height>1080</height>
                    <pixelaspectratio>Square</pixelaspectratio>
                    <anamorphic>FALSE</anamorphic>
                  </samplecharacteristics>
                </video>
              </media>
            </file>
            <sourcetrack>
              <mediatype>video</mediatype>
            </sourcetrack>
            <fielddominance>none</fielddominance>
          </clipitem>
          <clipitem id="H.png184">
            <name>H.png</name>
            <duration>248</duration>
            <rate>
              <ntsc>FALSE</ntsc>
              <timebase>25</timebase>
            </rate>
            <in>90563</in>
            <out>90810</out>
            <start>563</start>
            <end>810</end>
            <pixelaspectratio>Square</pixelaspectratio>
            <stillframe>TRUE</stillframe>
            <anamorphic>FALSE</anamorphic>
            <alphatype>straight</alphatype>
            <masterclipid>H.png184</masterclipid>
            <file id="H">
              <name>H.png</name>
              <pathurl>D:/Codes/SynthLip/SynthLipN/bin/Debug/net6.0-windows/Skin/template/H.png</pathurl>
              <rate>
                <ntsc>FALSE</ntsc>
                <timebase>25</timebase>
              </rate>
              <duration>2</duration>
              <width>1920</width>
              <height>1080</height>
              <media>
                <video>
                  <duration>2</duration>
                  <stillframe>TRUE</stillframe>
                  <samplecharacteristics>
                    <rate>
                      <ntsc>FALSE</ntsc>
                      <timebase>25</timebase>
                    </rate>
                    <width>1920</width>
                    <height>1080</height>
                    <pixelaspectratio>Square</pixelaspectratio>
                    <anamorphic>FALSE</anamorphic>
                  </samplecharacteristics>
                </video>
              </media>
            </file>
            <sourcetrack>
              <mediatype>video</mediatype>
            </sourcetrack>
            <fielddominance>none</fielddominance>
          </clipitem>
          <clipitem id="A.png179">
            <name>A.png</name>
            <duration>3</duration>
            <rate>
              <ntsc>FALSE</ntsc>
              <timebase>25</timebase>
            </rate>
            <in>90552</in>
            <out>90554</out>
            <start>552</start>
            <end>554</end>
            <pixelaspectratio>Square</pixelaspectratio>
            <stillframe>TRUE</stillframe>
            <anamorphic>FALSE</anamorphic>
            <alphatype>straight</alphatype>
            <masterclipid>A.png179</masterclipid>
            <file id="A">
              <name>A.png</name>
              <pathurl>D:/Codes/SynthLip/SynthLipN/bin/Debug/net6.0-windows/Skin/template/A.png</pathurl>
              <rate>
                <ntsc>FALSE</ntsc>
                <timebase>25</timebase>
              </rate>
              <duration>2</duration>
              <width>1920</width>
              <height>1080</height>
              <media>
                <video>
                  <duration>2</duration>
                  <stillframe>TRUE</stillframe>
                  <samplecharacteristics>
                    <rate>
                      <ntsc>FALSE</ntsc>
                      <timebase>25</timebase>
                    </rate>
                    <width>1920</width>
                    <height>1080</height>
                    <pixelaspectratio>Square</pixelaspectratio>
                    <anamorphic>FALSE</anamorphic>
                  </samplecharacteristics>
                </video>
              </media>
            </file>
            <sourcetrack>
              <mediatype>video</mediatype>
            </sourcetrack>
            <fielddominance>none</fielddominance>
          </clipitem>
          <clipitem id="C.png175">
            <name>C.png</name>
            <duration>2</duration>
            <rate>
              <ntsc>FALSE</ntsc>
              <timebase>25</timebase>
            </rate>
            <in>90545</in>
            <out>90546</out>
            <start>545</start>
            <end>546</end>
            <pixelaspectratio>Square</pixelaspectratio>
            <stillframe>TRUE</stillframe>
            <anamorphic>FALSE</anamorphic>
            <alphatype>straight</alphatype>
            <masterclipid>C.png175</masterclipid>
            <file id="C">
              <name>C.png</name>
              <pathurl>D:/Codes/SynthLip/SynthLipN/bin/Debug/net6.0-windows/Skin/template/C.png</pathurl>
              <rate>
                <ntsc>FALSE</ntsc>
                <timebase>25</timebase>
              </rate>
              <duration>2</duration>
              <width>1920</width>
              <height>1080</height>
              <media>
                <video>
                  <duration>2</duration>
                  <stillframe>TRUE</stillframe>
                  <samplecharacteristics>
                    <rate>
                      <ntsc>FALSE</ntsc>
                      <timebase>25</timebase>
                    </rate>
                    <width>1920</width>
                    <height>1080</height>
                    <pixelaspectratio>Square</pixelaspectratio>
                    <anamorphic>FALSE</anamorphic>
                  </samplecharacteristics>
                </video>
              </media>
            </file>
            <sourcetrack>
              <mediatype>video</mediatype>
            </sourcetrack>
            <fielddominance>none</fielddominance>
          </clipitem>
          <clipitem id="B.png174">
            <name>B.png</name>
            <duration>2</duration>
            <rate>
              <ntsc>FALSE</ntsc>
              <timebase>25</timebase>
            </rate>
            <in>90543</in>
            <out>90544</out>
            <start>543</start>
            <end>544</end>
            <pixelaspectratio>Square</pixelaspectratio>
            <stillframe>TRUE</stillframe>
            <anamorphic>FALSE</anamorphic>
            <alphatype>straight</alphatype>
            <masterclipid>B.png174</masterclipid>
            <file id="B">
              <name>B.png</name>
              <pathurl>D:/Codes/SynthLip/SynthLipN/bin/Debug/net6.0-windows/Skin/template/B.png</pathurl>
              <rate>
                <ntsc>FALSE</ntsc>
                <timebase>25</timebase>
              </rate>
              <duration>2</duration>
              <width>1920</width>
              <height>1080</height>
              <media>
                <video>
                  <duration>2</duration>
                  <stillframe>TRUE</stillframe>
                  <samplecharacteristics>
                    <rate>
                      <ntsc>FALSE</ntsc>
                      <timebase>25</timebase>
                    </rate>
                    <width>1920</width>
                    <height>1080</height>
                    <pixelaspectratio>Square</pixelaspectratio>
                    <anamorphic>FALSE</anamorphic>
                  </samplecharacteristics>
                </video>
              </media>
            </file>
            <sourcetrack>
              <mediatype>video</mediatype>
            </sourcetrack>
            <fielddominance>none</fielddominance>
          </clipitem>
          <clipitem id="A.png173">
            <name>A.png</name>
            <duration>2</duration>
            <rate>
              <ntsc>FALSE</ntsc>
              <timebase>25</timebase>
            </rate>
            <in>90540</in>
            <out>90541</out>
            <start>540</start>
            <end>541</end>
            <pixelaspectratio>Square</pixelaspectratio>
            <stillframe>TRUE</stillframe>
            <anamorphic>FALSE</anamorphic>
            <alphatype>straight</alphatype>
            <masterclipid>A.png173</masterclipid>
            <file id="A">
              <name>A.png</name>
              <pathurl>D:/Codes/SynthLip/SynthLipN/bin/Debug/net6.0-windows/Skin/template/A.png</pathurl>
              <rate>
                <ntsc>FALSE</ntsc>
                <timebase>25</timebase>
              </rate>
              <duration>2</duration>
              <width>1920</width>
              <height>1080</height>
              <media>
                <video>
                  <duration>2</duration>
                  <stillframe>TRUE</stillframe>
                  <samplecharacteristics>
                    <rate>
                      <ntsc>FALSE</ntsc>
                      <timebase>25</timebase>
                    </rate>
                    <width>1920</width>
                    <height>1080</height>
                    <pixelaspectratio>Square</pixelaspectratio>
                    <anamorphic>FALSE</anamorphic>
                  </samplecharacteristics>
                </video>
              </media>
            </file>
            <sourcetrack>
              <mediatype>video</mediatype>
            </sourcetrack>
            <fielddominance>none</fielddominance>
          </clipitem>
          <clipitem id="D.png172">
            <name>D.png</name>
            <duration>3</duration>
            <rate>
              <ntsc>FALSE</ntsc>
              <timebase>25</timebase>
            </rate>
            <in>90537</in>
            <out>90539</out>
            <start>537</start>
            <end>539</end>
            <pixelaspectratio>Square</pixelaspectratio>
            <stillframe>TRUE</stillframe>
            <anamorphic>FALSE</anamorphic>
            <alphatype>straight</alphatype>
            <masterclipid>D.png172</masterclipid>
            <file id="D">
              <name>D.png</name>
              <pathurl>D:/Codes/SynthLip/SynthLipN/bin/Debug/net6.0-windows/Skin/template/D.png</pathurl>
              <rate>
                <ntsc>FALSE</ntsc>
                <timebase>25</timebase>
              </rate>
              <duration>2</duration>
              <width>1920</width>
              <height>1080</height>
              <media>
                <video>
                  <duration>2</duration>
                  <stillframe>TRUE</stillframe>
                  <samplecharacteristics>
                    <rate>
                      <ntsc>FALSE</ntsc>
                      <timebase>25</timebase>
                    </rate>
                    <width>1920</width>
                    <height>1080</height>
                    <pixelaspectratio>Square</pixelaspectratio>
                    <anamorphic>FALSE</anamorphic>
                  </samplecharacteristics>
                </video>
              </media>
            </file>
            <sourcetrack>
              <mediatype>video</mediatype>
            </sourcetrack>
            <fielddominance>none</fielddominance>
          </clipitem>
          <clipitem id="F.png164">
            <name>F.png</name>
            <duration>5</duration>
            <rate>
              <ntsc>FALSE</ntsc>
              <timebase>25</timebase>
            </rate>
            <in>90520</in>
            <out>90524</out>
            <start>520</start>
            <end>524</end>
            <pixelaspectratio>Square</pixelaspectratio>
            <stillframe>TRUE</stillframe>
            <anamorphic>FALSE</anamorphic>
            <alphatype>straight</alphatype>
            <masterclipid>F.png164</masterclipid>
            <file id="F">
              <name>F.png</name>
              <pathurl>D:/Codes/SynthLip/SynthLipN/bin/Debug/net6.0-windows/Skin/template/F.png</pathurl>
              <rate>
                <ntsc>FALSE</ntsc>
                <timebase>25</timebase>
              </rate>
              <duration>2</duration>
              <width>1920</width>
              <height>1080</height>
              <media>
                <video>
                  <duration>2</duration>
                  <stillframe>TRUE</stillframe>
                  <samplecharacteristics>
                    <rate>
                      <ntsc>FALSE</ntsc>
                      <timebase>25</timebase>
                    </rate>
                    <width>1920</width>
                    <height>1080</height>
                    <pixelaspectratio>Square</pixelaspectratio>
                    <anamorphic>FALSE</anamorphic>
                  </samplecharacteristics>
                </video>
              </media>
            </file>
            <sourcetrack>
              <mediatype>video</mediatype>
            </sourcetrack>
            <fielddominance>none</fielddominance>
          </clipitem>
          <clipitem id="C.png161">
            <name>C.png</name>
            <duration>3</duration>
            <rate>
              <ntsc>FALSE</ntsc>
              <timebase>25</timebase>
            </rate>
            <in>90514</in>
            <out>90516</out>
            <start>514</start>
            <end>516</end>
            <pixelaspectratio>Square</pixelaspectratio>
            <stillframe>TRUE</stillframe>
            <anamorphic>FALSE</anamorphic>
            <alphatype>straight</alphatype>
            <masterclipid>C.png161</masterclipid>
            <file id="C">
              <name>C.png</name>
              <pathurl>D:/Codes/SynthLip/SynthLipN/bin/Debug/net6.0-windows/Skin/template/C.png</pathurl>
              <rate>
                <ntsc>FALSE</ntsc>
                <timebase>25</timebase>
              </rate>
              <duration>2</duration>
              <width>1920</width>
              <height>1080</height>
              <media>
                <video>
                  <duration>2</duration>
                  <stillframe>TRUE</stillframe>
                  <samplecharacteristics>
                    <rate>
                      <ntsc>FALSE</ntsc>
                      <timebase>25</timebase>
                    </rate>
                    <width>1920</width>
                    <height>1080</height>
                    <pixelaspectratio>Square</pixelaspectratio>
                    <anamorphic>FALSE</anamorphic>
                  </samplecharacteristics>
                </video>
              </media>
            </file>
            <sourcetrack>
              <mediatype>video</mediatype>
            </sourcetrack>
            <fielddominance>none</fielddominance>
          </clipitem>
          <clipitem id="H.png159">
            <name>H.png</name>
            <duration>9</duration>
            <rate>
              <ntsc>FALSE</ntsc>
              <timebase>25</timebase>
            </rate>
            <in>90503</in>
            <out>90511</out>
            <start>503</start>
            <end>511</end>
            <pixelaspectratio>Square</pixelaspectratio>
            <stillframe>TRUE</stillframe>
            <anamorphic>FALSE</anamorphic>
            <alphatype>straight</alphatype>
            <masterclipid>H.png159</masterclipid>
            <file id="H">
              <name>H.png</name>
              <pathurl>D:/Codes/SynthLip/SynthLipN/bin/Debug/net6.0-windows/Skin/template/H.png</pathurl>
              <rate>
                <ntsc>FALSE</ntsc>
                <timebase>25</timebase>
              </rate>
              <duration>2</duration>
              <width>1920</width>
              <height>1080</height>
              <media>
                <video>
                  <duration>2</duration>
                  <stillframe>TRUE</stillframe>
                  <samplecharacteristics>
                    <rate>
                      <ntsc>FALSE</ntsc>
                      <timebase>25</timebase>
                    </rate>
                    <width>1920</width>
                    <height>1080</height>
                    <pixelaspectratio>Square</pixelaspectratio>
                    <anamorphic>FALSE</anamorphic>
                  </samplecharacteristics>
                </video>
              </media>
            </file>
            <sourcetrack>
              <mediatype>video</mediatype>
            </sourcetrack>
            <fielddominance>none</fielddominance>
          </clipitem>
          <clipitem id="A.png154">
            <name>A.png</name>
            <duration>3</duration>
            <rate>
              <ntsc>FALSE</ntsc>
              <timebase>25</timebase>
            </rate>
            <in>90492</in>
            <out>90494</out>
            <start>492</start>
            <end>494</end>
            <pixelaspectratio>Square</pixelaspectratio>
            <stillframe>TRUE</stillframe>
            <anamorphic>FALSE</anamorphic>
            <alphatype>straight</alphatype>
            <masterclipid>A.png154</masterclipid>
            <file id="A">
              <name>A.png</name>
              <pathurl>D:/Codes/SynthLip/SynthLipN/bin/Debug/net6.0-windows/Skin/template/A.png</pathurl>
              <rate>
                <ntsc>FALSE</ntsc>
                <timebase>25</timebase>
              </rate>
              <duration>2</duration>
              <width>1920</width>
              <height>1080</height>
              <media>
                <video>
                  <duration>2</duration>
                  <stillframe>TRUE</stillframe>
                  <samplecharacteristics>
                    <rate>
                      <ntsc>FALSE</ntsc>
                      <timebase>25</timebase>
                    </rate>
                    <width>1920</width>
                    <height>1080</height>
                    <pixelaspectratio>Square</pixelaspectratio>
                    <anamorphic>FALSE</anamorphic>
                  </samplecharacteristics>
                </video>
              </media>
            </file>
            <sourcetrack>
              <mediatype>video</mediatype>
            </sourcetrack>
            <fielddominance>none</fielddominance>
          </clipitem>
          <clipitem id="A.png150">
            <name>A.png</name>
            <duration>3</duration>
            <rate>
              <ntsc>FALSE</ntsc>
              <timebase>25</timebase>
            </rate>
            <in>90484</in>
            <out>90486</out>
            <start>484</start>
            <end>486</end>
            <pixelaspectratio>Square</pixelaspectratio>
            <stillframe>TRUE</stillframe>
            <anamorphic>FALSE</anamorphic>
            <alphatype>straight</alphatype>
            <masterclipid>A.png150</masterclipid>
            <file id="A">
              <name>A.png</name>
              <pathurl>D:/Codes/SynthLip/SynthLipN/bin/Debug/net6.0-windows/Skin/template/A.png</pathurl>
              <rate>
                <ntsc>FALSE</ntsc>
                <timebase>25</timebase>
              </rate>
              <duration>2</duration>
              <width>1920</width>
              <height>1080</height>
              <media>
                <video>
                  <duration>2</duration>
                  <stillframe>TRUE</stillframe>
                  <samplecharacteristics>
                    <rate>
                      <ntsc>FALSE</ntsc>
                      <timebase>25</timebase>
                    </rate>
                    <width>1920</width>
                    <height>1080</height>
                    <pixelaspectratio>Square</pixelaspectratio>
                    <anamorphic>FALSE</anamorphic>
                  </samplecharacteristics>
                </video>
              </media>
            </file>
            <sourcetrack>
              <mediatype>video</mediatype>
            </sourcetrack>
            <fielddominance>none</fielddominance>
          </clipitem>
          <clipitem id="A.png149">
            <name>A.png</name>
            <duration>3</duration>
            <rate>
              <ntsc>FALSE</ntsc>
              <timebase>25</timebase>
            </rate>
            <in>90480</in>
            <out>90482</out>
            <start>480</start>
            <end>482</end>
            <pixelaspectratio>Square</pixelaspectratio>
            <stillframe>TRUE</stillframe>
            <anamorphic>FALSE</anamorphic>
            <alphatype>straight</alphatype>
            <masterclipid>A.png149</masterclipid>
            <file id="A">
              <name>A.png</name>
              <pathurl>D:/Codes/SynthLip/SynthLipN/bin/Debug/net6.0-windows/Skin/template/A.png</pathurl>
              <rate>
                <ntsc>FALSE</ntsc>
                <timebase>25</timebase>
              </rate>
              <duration>2</duration>
              <width>1920</width>
              <height>1080</height>
              <media>
                <video>
                  <duration>2</duration>
                  <stillframe>TRUE</stillframe>
                  <samplecharacteristics>
                    <rate>
                      <ntsc>FALSE</ntsc>
                      <timebase>25</timebase>
                    </rate>
                    <width>1920</width>
                    <height>1080</height>
                    <pixelaspectratio>Square</pixelaspectratio>
                    <anamorphic>FALSE</anamorphic>
                  </samplecharacteristics>
                </video>
              </media>
            </file>
            <sourcetrack>
              <mediatype>video</mediatype>
            </sourcetrack>
            <fielddominance>none</fielddominance>
          </clipitem>
          <clipitem id="B.png148">
            <name>B.png</name>
            <duration>3</duration>
            <rate>
              <ntsc>FALSE</ntsc>
              <timebase>25</timebase>
            </rate>
            <in>90477</in>
            <out>90479</out>
            <start>477</start>
            <end>479</end>
            <pixelaspectratio>Square</pixelaspectratio>
            <stillframe>TRUE</stillframe>
            <anamorphic>FALSE</anamorphic>
            <alphatype>straight</alphatype>
            <masterclipid>B.png148</masterclipid>
            <file id="B">
              <name>B.png</name>
              <pathurl>D:/Codes/SynthLip/SynthLipN/bin/Debug/net6.0-windows/Skin/template/B.png</pathurl>
              <rate>
                <ntsc>FALSE</ntsc>
                <timebase>25</timebase>
              </rate>
              <duration>2</duration>
              <width>1920</width>
              <height>1080</height>
              <media>
                <video>
                  <duration>2</duration>
                  <stillframe>TRUE</stillframe>
                  <samplecharacteristics>
                    <rate>
                      <ntsc>FALSE</ntsc>
                      <timebase>25</timebase>
                    </rate>
                    <width>1920</width>
                    <height>1080</height>
                    <pixelaspectratio>Square</pixelaspectratio>
                    <anamorphic>FALSE</anamorphic>
                  </samplecharacteristics>
                </video>
              </media>
            </file>
            <sourcetrack>
              <mediatype>video</mediatype>
            </sourcetrack>
            <fielddominance>none</fielddominance>
          </clipitem>
          <clipitem id="D.png144">
            <name>D.png</name>
            <duration>2</duration>
            <rate>
              <ntsc>FALSE</ntsc>
              <timebase>25</timebase>
            </rate>
            <in>90470</in>
            <out>90471</out>
            <start>470</start>
            <end>471</end>
            <pixelaspectratio>Square</pixelaspectratio>
            <stillframe>TRUE</stillframe>
            <anamorphic>FALSE</anamorphic>
            <alphatype>straight</alphatype>
            <masterclipid>D.png144</masterclipid>
            <file id="D">
              <name>D.png</name>
              <pathurl>D:/Codes/SynthLip/SynthLipN/bin/Debug/net6.0-windows/Skin/template/D.png</pathurl>
              <rate>
                <ntsc>FALSE</ntsc>
                <timebase>25</timebase>
              </rate>
              <duration>2</duration>
              <width>1920</width>
              <height>1080</height>
              <media>
                <video>
                  <duration>2</duration>
                  <stillframe>TRUE</stillframe>
                  <samplecharacteristics>
                    <rate>
                      <ntsc>FALSE</ntsc>
                      <timebase>25</timebase>
                    </rate>
                    <width>1920</width>
                    <height>1080</height>
                    <pixelaspectratio>Square</pixelaspectratio>
                    <anamorphic>FALSE</anamorphic>
                  </samplecharacteristics>
                </video>
              </media>
            </file>
            <sourcetrack>
              <mediatype>video</mediatype>
            </sourcetrack>
            <fielddominance>none</fielddominance>
          </clipitem>
          <clipitem id="B.png143">
            <name>B.png</name>
            <duration>2</duration>
            <rate>
              <ntsc>FALSE</ntsc>
              <timebase>25</timebase>
            </rate>
            <in>90468</in>
            <out>90469</out>
            <start>468</start>
            <end>469</end>
            <pixelaspectratio>Square</pixelaspectratio>
            <stillframe>TRUE</stillframe>
            <anamorphic>FALSE</anamorphic>
            <alphatype>straight</alphatype>
            <masterclipid>B.png143</masterclipid>
            <file id="B">
              <name>B.png</name>
              <pathurl>D:/Codes/SynthLip/SynthLipN/bin/Debug/net6.0-windows/Skin/template/B.png</pathurl>
              <rate>
                <ntsc>FALSE</ntsc>
                <timebase>25</timebase>
              </rate>
              <duration>2</duration>
              <width>1920</width>
              <height>1080</height>
              <media>
                <video>
                  <duration>2</duration>
                  <stillframe>TRUE</stillframe>
                  <samplecharacteristics>
                    <rate>
                      <ntsc>FALSE</ntsc>
                      <timebase>25</timebase>
                    </rate>
                    <width>1920</width>
                    <height>1080</height>
                    <pixelaspectratio>Square</pixelaspectratio>
                    <anamorphic>FALSE</anamorphic>
                  </samplecharacteristics>
                </video>
              </media>
            </file>
            <sourcetrack>
              <mediatype>video</mediatype>
            </sourcetrack>
            <fielddominance>none</fielddominance>
          </clipitem>
          <clipitem id="B.png142">
            <name>B.png</name>
            <duration>2</duration>
            <rate>
              <ntsc>FALSE</ntsc>
              <timebase>25</timebase>
            </rate>
            <in>90466</in>
            <out>90467</out>
            <start>466</start>
            <end>467</end>
            <pixelaspectratio>Square</pixelaspectratio>
            <stillframe>TRUE</stillframe>
            <anamorphic>FALSE</anamorphic>
            <alphatype>straight</alphatype>
            <masterclipid>B.png142</masterclipid>
            <file id="B">
              <name>B.png</name>
              <pathurl>D:/Codes/SynthLip/SynthLipN/bin/Debug/net6.0-windows/Skin/template/B.png</pathurl>
              <rate>
                <ntsc>FALSE</ntsc>
                <timebase>25</timebase>
              </rate>
              <duration>2</duration>
              <width>1920</width>
              <height>1080</height>
              <media>
                <video>
                  <duration>2</duration>
                  <stillframe>TRUE</stillframe>
                  <samplecharacteristics>
                    <rate>
                      <ntsc>FALSE</ntsc>
                      <timebase>25</timebase>
                    </rate>
                    <width>1920</width>
                    <height>1080</height>
                    <pixelaspectratio>Square</pixelaspectratio>
                    <anamorphic>FALSE</anamorphic>
                  </samplecharacteristics>
                </video>
              </media>
            </file>
            <sourcetrack>
              <mediatype>video</mediatype>
            </sourcetrack>
            <fielddominance>none</fielddominance>
          </clipitem>
          <clipitem id="D.png141">
            <name>D.png</name>
            <duration>2</duration>
            <rate>
              <ntsc>FALSE</ntsc>
              <timebase>25</timebase>
            </rate>
            <in>90463</in>
            <out>90464</out>
            <start>463</start>
            <end>464</end>
            <pixelaspectratio>Square</pixelaspectratio>
            <stillframe>TRUE</stillframe>
            <anamorphic>FALSE</anamorphic>
            <alphatype>straight</alphatype>
            <masterclipid>D.png141</masterclipid>
            <file id="D">
              <name>D.png</name>
              <pathurl>D:/Codes/SynthLip/SynthLipN/bin/Debug/net6.0-windows/Skin/template/D.png</pathurl>
              <rate>
                <ntsc>FALSE</ntsc>
                <timebase>25</timebase>
              </rate>
              <duration>2</duration>
              <width>1920</width>
              <height>1080</height>
              <media>
                <video>
                  <duration>2</duration>
                  <stillframe>TRUE</stillframe>
                  <samplecharacteristics>
                    <rate>
                      <ntsc>FALSE</ntsc>
                      <timebase>25</timebase>
                    </rate>
                    <width>1920</width>
                    <height>1080</height>
                    <pixelaspectratio>Square</pixelaspectratio>
                    <anamorphic>FALSE</anamorphic>
                  </samplecharacteristics>
                </video>
              </media>
            </file>
            <sourcetrack>
              <mediatype>video</mediatype>
            </sourcetrack>
            <fielddominance>none</fielddominance>
          </clipitem>
          <clipitem id="B.png140">
            <name>B.png</name>
            <duration>2</duration>
            <rate>
              <ntsc>FALSE</ntsc>
              <timebase>25</timebase>
            </rate>
            <in>90461</in>
            <out>90462</out>
            <start>461</start>
            <end>462</end>
            <pixelaspectratio>Square</pixelaspectratio>
            <stillframe>TRUE</stillframe>
            <anamorphic>FALSE</anamorphic>
            <alphatype>straight</alphatype>
            <masterclipid>B.png140</masterclipid>
            <file id="B">
              <name>B.png</name>
              <pathurl>D:/Codes/SynthLip/SynthLipN/bin/Debug/net6.0-windows/Skin/template/B.png</pathurl>
              <rate>
                <ntsc>FALSE</ntsc>
                <timebase>25</timebase>
              </rate>
              <duration>2</duration>
              <width>1920</width>
              <height>1080</height>
              <media>
                <video>
                  <duration>2</duration>
                  <stillframe>TRUE</stillframe>
                  <samplecharacteristics>
                    <rate>
                      <ntsc>FALSE</ntsc>
                      <timebase>25</timebase>
                    </rate>
                    <width>1920</width>
                    <height>1080</height>
                    <pixelaspectratio>Square</pixelaspectratio>
                    <anamorphic>FALSE</anamorphic>
                  </samplecharacteristics>
                </video>
              </media>
            </file>
            <sourcetrack>
              <mediatype>video</mediatype>
            </sourcetrack>
            <fielddominance>none</fielddominance>
          </clipitem>
          <clipitem id="A.png139">
            <name>A.png</name>
            <duration>2</duration>
            <rate>
              <ntsc>FALSE</ntsc>
              <timebase>25</timebase>
            </rate>
            <in>90458</in>
            <out>90459</out>
            <start>458</start>
            <end>459</end>
            <pixelaspectratio>Square</pixelaspectratio>
            <stillframe>TRUE</stillframe>
            <anamorphic>FALSE</anamorphic>
            <alphatype>straight</alphatype>
            <masterclipid>A.png139</masterclipid>
            <file id="A">
              <name>A.png</name>
              <pathurl>D:/Codes/SynthLip/SynthLipN/bin/Debug/net6.0-windows/Skin/template/A.png</pathurl>
              <rate>
                <ntsc>FALSE</ntsc>
                <timebase>25</timebase>
              </rate>
              <duration>2</duration>
              <width>1920</width>
              <height>1080</height>
              <media>
                <video>
                  <duration>2</duration>
                  <stillframe>TRUE</stillframe>
                  <samplecharacteristics>
                    <rate>
                      <ntsc>FALSE</ntsc>
                      <timebase>25</timebase>
                    </rate>
                    <width>1920</width>
                    <height>1080</height>
                    <pixelaspectratio>Square</pixelaspectratio>
                    <anamorphic>FALSE</anamorphic>
                  </samplecharacteristics>
                </video>
              </media>
            </file>
            <sourcetrack>
              <mediatype>video</mediatype>
            </sourcetrack>
            <fielddominance>none</fielddominance>
          </clipitem>
          <clipitem id="E.png138">
            <name>E.png</name>
            <duration>5</duration>
            <rate>
              <ntsc>FALSE</ntsc>
              <timebase>25</timebase>
            </rate>
            <in>90452</in>
            <out>90456</out>
            <start>452</start>
            <end>456</end>
            <pixelaspectratio>Square</pixelaspectratio>
            <stillframe>TRUE</stillframe>
            <anamorphic>FALSE</anamorphic>
            <alphatype>straight</alphatype>
            <masterclipid>E.png138</masterclipid>
            <file id="E">
              <name>E.png</name>
              <pathurl>D:/Codes/SynthLip/SynthLipN/bin/Debug/net6.0-windows/Skin/template/E.png</pathurl>
              <rate>
                <ntsc>FALSE</ntsc>
                <timebase>25</timebase>
              </rate>
              <duration>2</duration>
              <width>1920</width>
              <height>1080</height>
              <media>
                <video>
                  <duration>2</duration>
                  <stillframe>TRUE</stillframe>
                  <samplecharacteristics>
                    <rate>
                      <ntsc>FALSE</ntsc>
                      <timebase>25</timebase>
                    </rate>
                    <width>1920</width>
                    <height>1080</height>
                    <pixelaspectratio>Square</pixelaspectratio>
                    <anamorphic>FALSE</anamorphic>
                  </samplecharacteristics>
                </video>
              </media>
            </file>
            <sourcetrack>
              <mediatype>video</mediatype>
            </sourcetrack>
            <fielddominance>none</fielddominance>
          </clipitem>
          <clipitem id="B.png136">
            <name>B.png</name>
            <duration>8</duration>
            <rate>
              <ntsc>FALSE</ntsc>
              <timebase>25</timebase>
            </rate>
            <in>90443</in>
            <out>90450</out>
            <start>443</start>
            <end>450</end>
            <pixelaspectratio>Square</pixelaspectratio>
            <stillframe>TRUE</stillframe>
            <anamorphic>FALSE</anamorphic>
            <alphatype>straight</alphatype>
            <masterclipid>B.png136</masterclipid>
            <file id="B">
              <name>B.png</name>
              <pathurl>D:/Codes/SynthLip/SynthLipN/bin/Debug/net6.0-windows/Skin/template/B.png</pathurl>
              <rate>
                <ntsc>FALSE</ntsc>
                <timebase>25</timebase>
              </rate>
              <duration>2</duration>
              <width>1920</width>
              <height>1080</height>
              <media>
                <video>
                  <duration>2</duration>
                  <stillframe>TRUE</stillframe>
                  <samplecharacteristics>
                    <rate>
                      <ntsc>FALSE</ntsc>
                      <timebase>25</timebase>
                    </rate>
                    <width>1920</width>
                    <height>1080</height>
                    <pixelaspectratio>Square</pixelaspectratio>
                    <anamorphic>FALSE</anamorphic>
                  </samplecharacteristics>
                </video>
              </media>
            </file>
            <sourcetrack>
              <mediatype>video</mediatype>
            </sourcetrack>
            <fielddominance>none</fielddominance>
          </clipitem>
          <clipitem id="C.png135">
            <name>C.png</name>
            <duration>2</duration>
            <rate>
              <ntsc>FALSE</ntsc>
              <timebase>25</timebase>
            </rate>
            <in>90440</in>
            <out>90441</out>
            <start>440</start>
            <end>441</end>
            <pixelaspectratio>Square</pixelaspectratio>
            <stillframe>TRUE</stillframe>
            <anamorphic>FALSE</anamorphic>
            <alphatype>straight</alphatype>
            <masterclipid>C.png135</masterclipid>
            <file id="C">
              <name>C.png</name>
              <pathurl>D:/Codes/SynthLip/SynthLipN/bin/Debug/net6.0-windows/Skin/template/C.png</pathurl>
              <rate>
                <ntsc>FALSE</ntsc>
                <timebase>25</timebase>
              </rate>
              <duration>2</duration>
              <width>1920</width>
              <height>1080</height>
              <media>
                <video>
                  <duration>2</duration>
                  <stillframe>TRUE</stillframe>
                  <samplecharacteristics>
                    <rate>
                      <ntsc>FALSE</ntsc>
                      <timebase>25</timebase>
                    </rate>
                    <width>1920</width>
                    <height>1080</height>
                    <pixelaspectratio>Square</pixelaspectratio>
                    <anamorphic>FALSE</anamorphic>
                  </samplecharacteristics>
                </video>
              </media>
            </file>
            <sourcetrack>
              <mediatype>video</mediatype>
            </sourcetrack>
            <fielddominance>none</fielddominance>
          </clipitem>
          <clipitem id="B.png134">
            <name>B.png</name>
            <duration>2</duration>
            <rate>
              <ntsc>FALSE</ntsc>
              <timebase>25</timebase>
            </rate>
            <in>90438</in>
            <out>90439</out>
            <start>438</start>
            <end>439</end>
            <pixelaspectratio>Square</pixelaspectratio>
            <stillframe>TRUE</stillframe>
            <anamorphic>FALSE</anamorphic>
            <alphatype>straight</alphatype>
            <masterclipid>B.png134</masterclipid>
            <file id="B">
              <name>B.png</name>
              <pathurl>D:/Codes/SynthLip/SynthLipN/bin/Debug/net6.0-windows/Skin/template/B.png</pathurl>
              <rate>
                <ntsc>FALSE</ntsc>
                <timebase>25</timebase>
              </rate>
              <duration>2</duration>
              <width>1920</width>
              <height>1080</height>
              <media>
                <video>
                  <duration>2</duration>
                  <stillframe>TRUE</stillframe>
                  <samplecharacteristics>
                    <rate>
                      <ntsc>FALSE</ntsc>
                      <timebase>25</timebase>
                    </rate>
                    <width>1920</width>
                    <height>1080</height>
                    <pixelaspectratio>Square</pixelaspectratio>
                    <anamorphic>FALSE</anamorphic>
                  </samplecharacteristics>
                </video>
              </media>
            </file>
            <sourcetrack>
              <mediatype>video</mediatype>
            </sourcetrack>
            <fielddominance>none</fielddominance>
          </clipitem>
          <clipitem id="A.png133">
            <name>A.png</name>
            <duration>2</duration>
            <rate>
              <ntsc>FALSE</ntsc>
              <timebase>25</timebase>
            </rate>
            <in>90435</in>
            <out>90436</out>
            <start>435</start>
            <end>436</end>
            <pixelaspectratio>Square</pixelaspectratio>
            <stillframe>TRUE</stillframe>
            <anamorphic>FALSE</anamorphic>
            <alphatype>straight</alphatype>
            <masterclipid>A.png133</masterclipid>
            <file id="A">
              <name>A.png</name>
              <pathurl>D:/Codes/SynthLip/SynthLipN/bin/Debug/net6.0-windows/Skin/template/A.png</pathurl>
              <rate>
                <ntsc>FALSE</ntsc>
                <timebase>25</timebase>
              </rate>
              <duration>2</duration>
              <width>1920</width>
              <height>1080</height>
              <media>
                <video>
                  <duration>2</duration>
                  <stillframe>TRUE</stillframe>
                  <samplecharacteristics>
                    <rate>
                      <ntsc>FALSE</ntsc>
                      <timebase>25</timebase>
                    </rate>
                    <width>1920</width>
                    <height>1080</height>
                    <pixelaspectratio>Square</pixelaspectratio>
                    <anamorphic>FALSE</anamorphic>
                  </samplecharacteristics>
                </video>
              </media>
            </file>
            <sourcetrack>
              <mediatype>video</mediatype>
            </sourcetrack>
            <fielddominance>none</fielddominance>
          </clipitem>
          <clipitem id="A.png132">
            <name>A.png</name>
            <duration>3</duration>
            <rate>
              <ntsc>FALSE</ntsc>
              <timebase>25</timebase>
            </rate>
            <in>90432</in>
            <out>90434</out>
            <start>432</start>
            <end>434</end>
            <pixelaspectratio>Square</pixelaspectratio>
            <stillframe>TRUE</stillframe>
            <anamorphic>FALSE</anamorphic>
            <alphatype>straight</alphatype>
            <masterclipid>A.png132</masterclipid>
            <file id="A">
              <name>A.png</name>
              <pathurl>D:/Codes/SynthLip/SynthLipN/bin/Debug/net6.0-windows/Skin/template/A.png</pathurl>
              <rate>
                <ntsc>FALSE</ntsc>
                <timebase>25</timebase>
              </rate>
              <duration>2</duration>
              <width>1920</width>
              <height>1080</height>
              <media>
                <video>
                  <duration>2</duration>
                  <stillframe>TRUE</stillframe>
                  <samplecharacteristics>
                    <rate>
                      <ntsc>FALSE</ntsc>
                      <timebase>25</timebase>
                    </rate>
                    <width>1920</width>
                    <height>1080</height>
                    <pixelaspectratio>Square</pixelaspectratio>
                    <anamorphic>FALSE</anamorphic>
                  </samplecharacteristics>
                </video>
              </media>
            </file>
            <sourcetrack>
              <mediatype>video</mediatype>
            </sourcetrack>
            <fielddominance>none</fielddominance>
          </clipitem>
          <clipitem id="B.png124">
            <name>B.png</name>
            <duration>3</duration>
            <rate>
              <ntsc>FALSE</ntsc>
              <timebase>25</timebase>
            </rate>
            <in>90417</in>
            <out>90419</out>
            <start>417</start>
            <end>419</end>
            <pixelaspectratio>Square</pixelaspectratio>
            <stillframe>TRUE</stillframe>
            <anamorphic>FALSE</anamorphic>
            <alphatype>straight</alphatype>
            <masterclipid>B.png124</masterclipid>
            <file id="B">
              <name>B.png</name>
              <pathurl>D:/Codes/SynthLip/SynthLipN/bin/Debug/net6.0-windows/Skin/template/B.png</pathurl>
              <rate>
                <ntsc>FALSE</ntsc>
                <timebase>25</timebase>
              </rate>
              <duration>2</duration>
              <width>1920</width>
              <height>1080</height>
              <media>
                <video>
                  <duration>2</duration>
                  <stillframe>TRUE</stillframe>
                  <samplecharacteristics>
                    <rate>
                      <ntsc>FALSE</ntsc>
                      <timebase>25</timebase>
                    </rate>
                    <width>1920</width>
                    <height>1080</height>
                    <pixelaspectratio>Square</pixelaspectratio>
                    <anamorphic>FALSE</anamorphic>
                  </samplecharacteristics>
                </video>
              </media>
            </file>
            <sourcetrack>
              <mediatype>video</mediatype>
            </sourcetrack>
            <fielddominance>none</fielddominance>
          </clipitem>
          <clipitem id="A.png120">
            <name>A.png</name>
            <duration>3</duration>
            <rate>
              <ntsc>FALSE</ntsc>
              <timebase>25</timebase>
            </rate>
            <in>90409</in>
            <out>90411</out>
            <start>409</start>
            <end>411</end>
            <pixelaspectratio>Square</pixelaspectratio>
            <stillframe>TRUE</stillframe>
            <anamorphic>FALSE</anamorphic>
            <alphatype>straight</alphatype>
            <masterclipid>A.png120</masterclipid>
            <file id="A">
              <name>A.png</name>
              <pathurl>D:/Codes/SynthLip/SynthLipN/bin/Debug/net6.0-windows/Skin/template/A.png</pathurl>
              <rate>
                <ntsc>FALSE</ntsc>
                <timebase>25</timebase>
              </rate>
              <duration>2</duration>
              <width>1920</width>
              <height>1080</height>
              <media>
                <video>
                  <duration>2</duration>
                  <stillframe>TRUE</stillframe>
                  <samplecharacteristics>
                    <rate>
                      <ntsc>FALSE</ntsc>
                      <timebase>25</timebase>
                    </rate>
                    <width>1920</width>
                    <height>1080</height>
                    <pixelaspectratio>Square</pixelaspectratio>
                    <anamorphic>FALSE</anamorphic>
                  </samplecharacteristics>
                </video>
              </media>
            </file>
            <sourcetrack>
              <mediatype>video</mediatype>
            </sourcetrack>
            <fielddominance>none</fielddominance>
          </clipitem>
          <clipitem id="C.png119">
            <name>C.png</name>
            <duration>3</duration>
            <rate>
              <ntsc>FALSE</ntsc>
              <timebase>25</timebase>
            </rate>
            <in>90405</in>
            <out>90407</out>
            <start>405</start>
            <end>407</end>
            <pixelaspectratio>Square</pixelaspectratio>
            <stillframe>TRUE</stillframe>
            <anamorphic>FALSE</anamorphic>
            <alphatype>straight</alphatype>
            <masterclipid>C.png119</masterclipid>
            <file id="C">
              <name>C.png</name>
              <pathurl>D:/Codes/SynthLip/SynthLipN/bin/Debug/net6.0-windows/Skin/template/C.png</pathurl>
              <rate>
                <ntsc>FALSE</ntsc>
                <timebase>25</timebase>
              </rate>
              <duration>2</duration>
              <width>1920</width>
              <height>1080</height>
              <media>
                <video>
                  <duration>2</duration>
                  <stillframe>TRUE</stillframe>
                  <samplecharacteristics>
                    <rate>
                      <ntsc>FALSE</ntsc>
                      <timebase>25</timebase>
                    </rate>
                    <width>1920</width>
                    <height>1080</height>
                    <pixelaspectratio>Square</pixelaspectratio>
                    <anamorphic>FALSE</anamorphic>
                  </samplecharacteristics>
                </video>
              </media>
            </file>
            <sourcetrack>
              <mediatype>video</mediatype>
            </sourcetrack>
            <fielddominance>none</fielddominance>
          </clipitem>
          <clipitem id="H.png118">
            <name>H.png</name>
            <duration>3</duration>
            <rate>
              <ntsc>FALSE</ntsc>
              <timebase>25</timebase>
            </rate>
            <in>90402</in>
            <out>90404</out>
            <start>402</start>
            <end>404</end>
            <pixelaspectratio>Square</pixelaspectratio>
            <stillframe>TRUE</stillframe>
            <anamorphic>FALSE</anamorphic>
            <alphatype>straight</alphatype>
            <masterclipid>H.png118</masterclipid>
            <file id="H">
              <name>H.png</name>
              <pathurl>D:/Codes/SynthLip/SynthLipN/bin/Debug/net6.0-windows/Skin/template/H.png</pathurl>
              <rate>
                <ntsc>FALSE</ntsc>
                <timebase>25</timebase>
              </rate>
              <duration>2</duration>
              <width>1920</width>
              <height>1080</height>
              <media>
                <video>
                  <duration>2</duration>
                  <stillframe>TRUE</stillframe>
                  <samplecharacteristics>
                    <rate>
                      <ntsc>FALSE</ntsc>
                      <timebase>25</timebase>
                    </rate>
                    <width>1920</width>
                    <height>1080</height>
                    <pixelaspectratio>Square</pixelaspectratio>
                    <anamorphic>FALSE</anamorphic>
                  </samplecharacteristics>
                </video>
              </media>
            </file>
            <sourcetrack>
              <mediatype>video</mediatype>
            </sourcetrack>
            <fielddominance>none</fielddominance>
          </clipitem>
          <clipitem id="A.png117">
            <name>A.png</name>
            <duration>3</duration>
            <rate>
              <ntsc>FALSE</ntsc>
              <timebase>25</timebase>
            </rate>
            <in>90398</in>
            <out>90400</out>
            <start>398</start>
            <end>400</end>
            <pixelaspectratio>Square</pixelaspectratio>
            <stillframe>TRUE</stillframe>
            <anamorphic>FALSE</anamorphic>
            <alphatype>straight</alphatype>
            <masterclipid>A.png117</masterclipid>
            <file id="A">
              <name>A.png</name>
              <pathurl>D:/Codes/SynthLip/SynthLipN/bin/Debug/net6.0-windows/Skin/template/A.png</pathurl>
              <rate>
                <ntsc>FALSE</ntsc>
                <timebase>25</timebase>
              </rate>
              <duration>2</duration>
              <width>1920</width>
              <height>1080</height>
              <media>
                <video>
                  <duration>2</duration>
                  <stillframe>TRUE</stillframe>
                  <samplecharacteristics>
                    <rate>
                      <ntsc>FALSE</ntsc>
                      <timebase>25</timebase>
                    </rate>
                    <width>1920</width>
                    <height>1080</height>
                    <pixelaspectratio>Square</pixelaspectratio>
                    <anamorphic>FALSE</anamorphic>
                  </samplecharacteristics>
                </video>
              </media>
            </file>
            <sourcetrack>
              <mediatype>video</mediatype>
            </sourcetrack>
            <fielddominance>none</fielddominance>
          </clipitem>
          <clipitem id="A.png116">
            <name>A.png</name>
            <duration>5</duration>
            <rate>
              <ntsc>FALSE</ntsc>
              <timebase>25</timebase>
            </rate>
            <in>90392</in>
            <out>90396</out>
            <start>392</start>
            <end>396</end>
            <pixelaspectratio>Square</pixelaspectratio>
            <stillframe>TRUE</stillframe>
            <anamorphic>FALSE</anamorphic>
            <alphatype>straight</alphatype>
            <masterclipid>A.png116</masterclipid>
            <file id="A">
              <name>A.png</name>
              <pathurl>D:/Codes/SynthLip/SynthLipN/bin/Debug/net6.0-windows/Skin/template/A.png</pathurl>
              <rate>
                <ntsc>FALSE</ntsc>
                <timebase>25</timebase>
              </rate>
              <duration>2</duration>
              <width>1920</width>
              <height>1080</height>
              <media>
                <video>
                  <duration>2</duration>
                  <stillframe>TRUE</stillframe>
                  <samplecharacteristics>
                    <rate>
                      <ntsc>FALSE</ntsc>
                      <timebase>25</timebase>
                    </rate>
                    <width>1920</width>
                    <height>1080</height>
                    <pixelaspectratio>Square</pixelaspectratio>
                    <anamorphic>FALSE</anamorphic>
                  </samplecharacteristics>
                </video>
              </media>
            </file>
            <sourcetrack>
              <mediatype>video</mediatype>
            </sourcetrack>
            <fielddominance>none</fielddominance>
          </clipitem>
          <clipitem id="B.png112">
            <name>B.png</name>
            <duration>7</duration>
            <rate>
              <ntsc>FALSE</ntsc>
              <timebase>25</timebase>
            </rate>
            <in>90383</in>
            <out>90389</out>
            <start>383</start>
            <end>389</end>
            <pixelaspectratio>Square</pixelaspectratio>
            <stillframe>TRUE</stillframe>
            <anamorphic>FALSE</anamorphic>
            <alphatype>straight</alphatype>
            <masterclipid>B.png112</masterclipid>
            <file id="B">
              <name>B.png</name>
              <pathurl>D:/Codes/SynthLip/SynthLipN/bin/Debug/net6.0-windows/Skin/template/B.png</pathurl>
              <rate>
                <ntsc>FALSE</ntsc>
                <timebase>25</timebase>
              </rate>
              <duration>2</duration>
              <width>1920</width>
              <height>1080</height>
              <media>
                <video>
                  <duration>2</duration>
                  <stillframe>TRUE</stillframe>
                  <samplecharacteristics>
                    <rate>
                      <ntsc>FALSE</ntsc>
                      <timebase>25</timebase>
                    </rate>
                    <width>1920</width>
                    <height>1080</height>
                    <pixelaspectratio>Square</pixelaspectratio>
                    <anamorphic>FALSE</anamorphic>
                  </samplecharacteristics>
                </video>
              </media>
            </file>
            <sourcetrack>
              <mediatype>video</mediatype>
            </sourcetrack>
            <fielddominance>none</fielddominance>
          </clipitem>
          <clipitem id="C.png111">
            <name>C.png</name>
            <duration>2</duration>
            <rate>
              <ntsc>FALSE</ntsc>
              <timebase>25</timebase>
            </rate>
            <in>90380</in>
            <out>90381</out>
            <start>380</start>
            <end>381</end>
            <pixelaspectratio>Square</pixelaspectratio>
            <stillframe>TRUE</stillframe>
            <anamorphic>FALSE</anamorphic>
            <alphatype>straight</alphatype>
            <masterclipid>C.png111</masterclipid>
            <file id="C">
              <name>C.png</name>
              <pathurl>D:/Codes/SynthLip/SynthLipN/bin/Debug/net6.0-windows/Skin/template/C.png</pathurl>
              <rate>
                <ntsc>FALSE</ntsc>
                <timebase>25</timebase>
              </rate>
              <duration>2</duration>
              <width>1920</width>
              <height>1080</height>
              <media>
                <video>
                  <duration>2</duration>
                  <stillframe>TRUE</stillframe>
                  <samplecharacteristics>
                    <rate>
                      <ntsc>FALSE</ntsc>
                      <timebase>25</timebase>
                    </rate>
                    <width>1920</width>
                    <height>1080</height>
                    <pixelaspectratio>Square</pixelaspectratio>
                    <anamorphic>FALSE</anamorphic>
                  </samplecharacteristics>
                </video>
              </media>
            </file>
            <sourcetrack>
              <mediatype>video</mediatype>
            </sourcetrack>
            <fielddominance>none</fielddominance>
          </clipitem>
          <clipitem id="B.png110">
            <name>B.png</name>
            <duration>2</duration>
            <rate>
              <ntsc>FALSE</ntsc>
              <timebase>25</timebase>
            </rate>
            <in>90378</in>
            <out>90379</out>
            <start>378</start>
            <end>379</end>
            <pixelaspectratio>Square</pixelaspectratio>
            <stillframe>TRUE</stillframe>
            <anamorphic>FALSE</anamorphic>
            <alphatype>straight</alphatype>
            <masterclipid>B.png110</masterclipid>
            <file id="B">
              <name>B.png</name>
              <pathurl>D:/Codes/SynthLip/SynthLipN/bin/Debug/net6.0-windows/Skin/template/B.png</pathurl>
              <rate>
                <ntsc>FALSE</ntsc>
                <timebase>25</timebase>
              </rate>
              <duration>2</duration>
              <width>1920</width>
              <height>1080</height>
              <media>
                <video>
                  <duration>2</duration>
                  <stillframe>TRUE</stillframe>
                  <samplecharacteristics>
                    <rate>
                      <ntsc>FALSE</ntsc>
                      <timebase>25</timebase>
                    </rate>
                    <width>1920</width>
                    <height>1080</height>
                    <pixelaspectratio>Square</pixelaspectratio>
                    <anamorphic>FALSE</anamorphic>
                  </samplecharacteristics>
                </video>
              </media>
            </file>
            <sourcetrack>
              <mediatype>video</mediatype>
            </sourcetrack>
            <fielddominance>none</fielddominance>
          </clipitem>
          <clipitem id="A.png109">
            <name>A.png</name>
            <duration>2</duration>
            <rate>
              <ntsc>FALSE</ntsc>
              <timebase>25</timebase>
            </rate>
            <in>90375</in>
            <out>90376</out>
            <start>375</start>
            <end>376</end>
            <pixelaspectratio>Square</pixelaspectratio>
            <stillframe>TRUE</stillframe>
            <anamorphic>FALSE</anamorphic>
            <alphatype>straight</alphatype>
            <masterclipid>A.png109</masterclipid>
            <file id="A">
              <name>A.png</name>
              <pathurl>D:/Codes/SynthLip/SynthLipN/bin/Debug/net6.0-windows/Skin/template/A.png</pathurl>
              <rate>
                <ntsc>FALSE</ntsc>
                <timebase>25</timebase>
              </rate>
              <duration>2</duration>
              <width>1920</width>
              <height>1080</height>
              <media>
                <video>
                  <duration>2</duration>
                  <stillframe>TRUE</stillframe>
                  <samplecharacteristics>
                    <rate>
                      <ntsc>FALSE</ntsc>
                      <timebase>25</timebase>
                    </rate>
                    <width>1920</width>
                    <height>1080</height>
                    <pixelaspectratio>Square</pixelaspectratio>
                    <anamorphic>FALSE</anamorphic>
                  </samplecharacteristics>
                </video>
              </media>
            </file>
            <sourcetrack>
              <mediatype>video</mediatype>
            </sourcetrack>
            <fielddominance>none</fielddominance>
          </clipitem>
          <clipitem id="B.png108">
            <name>B.png</name>
            <duration>3</duration>
            <rate>
              <ntsc>FALSE</ntsc>
              <timebase>25</timebase>
            </rate>
            <in>90372</in>
            <out>90374</out>
            <start>372</start>
            <end>374</end>
            <pixelaspectratio>Square</pixelaspectratio>
            <stillframe>TRUE</stillframe>
            <anamorphic>FALSE</anamorphic>
            <alphatype>straight</alphatype>
            <masterclipid>B.png108</masterclipid>
            <file id="B">
              <name>B.png</name>
              <pathurl>D:/Codes/SynthLip/SynthLipN/bin/Debug/net6.0-windows/Skin/template/B.png</pathurl>
              <rate>
                <ntsc>FALSE</ntsc>
                <timebase>25</timebase>
              </rate>
              <duration>2</duration>
              <width>1920</width>
              <height>1080</height>
              <media>
                <video>
                  <duration>2</duration>
                  <stillframe>TRUE</stillframe>
                  <samplecharacteristics>
                    <rate>
                      <ntsc>FALSE</ntsc>
                      <timebase>25</timebase>
                    </rate>
                    <width>1920</width>
                    <height>1080</height>
                    <pixelaspectratio>Square</pixelaspectratio>
                    <anamorphic>FALSE</anamorphic>
                  </samplecharacteristics>
                </video>
              </media>
            </file>
            <sourcetrack>
              <mediatype>video</mediatype>
            </sourcetrack>
            <fielddominance>none</fielddominance>
          </clipitem>
          <clipitem id="D.png104">
            <name>D.png</name>
            <duration>2</duration>
            <rate>
              <ntsc>FALSE</ntsc>
              <timebase>25</timebase>
            </rate>
            <in>90365</in>
            <out>90366</out>
            <start>365</start>
            <end>366</end>
            <pixelaspectratio>Square</pixelaspectratio>
            <stillframe>TRUE</stillframe>
            <anamorphic>FALSE</anamorphic>
            <alphatype>straight</alphatype>
            <masterclipid>D.png104</masterclipid>
            <file id="D">
              <name>D.png</name>
              <pathurl>D:/Codes/SynthLip/SynthLipN/bin/Debug/net6.0-windows/Skin/template/D.png</pathurl>
              <rate>
                <ntsc>FALSE</ntsc>
                <timebase>25</timebase>
              </rate>
              <duration>2</duration>
              <width>1920</width>
              <height>1080</height>
              <media>
                <video>
                  <duration>2</duration>
                  <stillframe>TRUE</stillframe>
                  <samplecharacteristics>
                    <rate>
                      <ntsc>FALSE</ntsc>
                      <timebase>25</timebase>
                    </rate>
                    <width>1920</width>
                    <height>1080</height>
                    <pixelaspectratio>Square</pixelaspectratio>
                    <anamorphic>FALSE</anamorphic>
                  </samplecharacteristics>
                </video>
              </media>
            </file>
            <sourcetrack>
              <mediatype>video</mediatype>
            </sourcetrack>
            <fielddominance>none</fielddominance>
          </clipitem>
          <clipitem id="A.png103">
            <name>A.png</name>
            <duration>2</duration>
            <rate>
              <ntsc>FALSE</ntsc>
              <timebase>25</timebase>
            </rate>
            <in>90363</in>
            <out>90364</out>
            <start>363</start>
            <end>364</end>
            <pixelaspectratio>Square</pixelaspectratio>
            <stillframe>TRUE</stillframe>
            <anamorphic>FALSE</anamorphic>
            <alphatype>straight</alphatype>
            <masterclipid>A.png103</masterclipid>
            <file id="A">
              <name>A.png</name>
              <pathurl>D:/Codes/SynthLip/SynthLipN/bin/Debug/net6.0-windows/Skin/template/A.png</pathurl>
              <rate>
                <ntsc>FALSE</ntsc>
                <timebase>25</timebase>
              </rate>
              <duration>2</duration>
              <width>1920</width>
              <height>1080</height>
              <media>
                <video>
                  <duration>2</duration>
                  <stillframe>TRUE</stillframe>
                  <samplecharacteristics>
                    <rate>
                      <ntsc>FALSE</ntsc>
                      <timebase>25</timebase>
                    </rate>
                    <width>1920</width>
                    <height>1080</height>
                    <pixelaspectratio>Square</pixelaspectratio>
                    <anamorphic>FALSE</anamorphic>
                  </samplecharacteristics>
                </video>
              </media>
            </file>
            <sourcetrack>
              <mediatype>video</mediatype>
            </sourcetrack>
            <fielddominance>none</fielddominance>
          </clipitem>
          <clipitem id="A.png102">
            <name>A.png</name>
            <duration>2</duration>
            <rate>
              <ntsc>FALSE</ntsc>
              <timebase>25</timebase>
            </rate>
            <in>90360</in>
            <out>90361</out>
            <start>360</start>
            <end>361</end>
            <pixelaspectratio>Square</pixelaspectratio>
            <stillframe>TRUE</stillframe>
            <anamorphic>FALSE</anamorphic>
            <alphatype>straight</alphatype>
            <masterclipid>A.png102</masterclipid>
            <file id="A">
              <name>A.png</name>
              <pathurl>D:/Codes/SynthLip/SynthLipN/bin/Debug/net6.0-windows/Skin/template/A.png</pathurl>
              <rate>
                <ntsc>FALSE</ntsc>
                <timebase>25</timebase>
              </rate>
              <duration>2</duration>
              <width>1920</width>
              <height>1080</height>
              <media>
                <video>
                  <duration>2</duration>
                  <stillframe>TRUE</stillframe>
                  <samplecharacteristics>
                    <rate>
                      <ntsc>FALSE</ntsc>
                      <timebase>25</timebase>
                    </rate>
                    <width>1920</width>
                    <height>1080</height>
                    <pixelaspectratio>Square</pixelaspectratio>
                    <anamorphic>FALSE</anamorphic>
                  </samplecharacteristics>
                </video>
              </media>
            </file>
            <sourcetrack>
              <mediatype>video</mediatype>
            </sourcetrack>
            <fielddominance>none</fielddominance>
          </clipitem>
          <clipitem id="C.png101">
            <name>C.png</name>
            <duration>5</duration>
            <rate>
              <ntsc>FALSE</ntsc>
              <timebase>25</timebase>
            </rate>
            <in>90355</in>
            <out>90359</out>
            <start>355</start>
            <end>359</end>
            <pixelaspectratio>Square</pixelaspectratio>
            <stillframe>TRUE</stillframe>
            <anamorphic>FALSE</anamorphic>
            <alphatype>straight</alphatype>
            <masterclipid>C.png101</masterclipid>
            <file id="C">
              <name>C.png</name>
              <pathurl>D:/Codes/SynthLip/SynthLipN/bin/Debug/net6.0-windows/Skin/template/C.png</pathurl>
              <rate>
                <ntsc>FALSE</ntsc>
                <timebase>25</timebase>
              </rate>
              <duration>2</duration>
              <width>1920</width>
              <height>1080</height>
              <media>
                <video>
                  <duration>2</duration>
                  <stillframe>TRUE</stillframe>
                  <samplecharacteristics>
                    <rate>
                      <ntsc>FALSE</ntsc>
                      <timebase>25</timebase>
                    </rate>
                    <width>1920</width>
                    <height>1080</height>
                    <pixelaspectratio>Square</pixelaspectratio>
                    <anamorphic>FALSE</anamorphic>
                  </samplecharacteristics>
                </video>
              </media>
            </file>
            <sourcetrack>
              <mediatype>video</mediatype>
            </sourcetrack>
            <fielddominance>none</fielddominance>
          </clipitem>
          <clipitem id="C.png98">
            <name>C.png</name>
            <duration>5</duration>
            <rate>
              <ntsc>FALSE</ntsc>
              <timebase>25</timebase>
            </rate>
            <in>90347</in>
            <out>90351</out>
            <start>347</start>
            <end>351</end>
            <pixelaspectratio>Square</pixelaspectratio>
            <stillframe>TRUE</stillframe>
            <anamorphic>FALSE</anamorphic>
            <alphatype>straight</alphatype>
            <masterclipid>C.png98</masterclipid>
            <file id="C">
              <name>C.png</name>
              <pathurl>D:/Codes/SynthLip/SynthLipN/bin/Debug/net6.0-windows/Skin/template/C.png</pathurl>
              <rate>
                <ntsc>FALSE</ntsc>
                <timebase>25</timebase>
              </rate>
              <duration>2</duration>
              <width>1920</width>
              <height>1080</height>
              <media>
                <video>
                  <duration>2</duration>
                  <stillframe>TRUE</stillframe>
                  <samplecharacteristics>
                    <rate>
                      <ntsc>FALSE</ntsc>
                      <timebase>25</timebase>
                    </rate>
                    <width>1920</width>
                    <height>1080</height>
                    <pixelaspectratio>Square</pixelaspectratio>
                    <anamorphic>FALSE</anamorphic>
                  </samplecharacteristics>
                </video>
              </media>
            </file>
            <sourcetrack>
              <mediatype>video</mediatype>
            </sourcetrack>
            <fielddominance>none</fielddominance>
          </clipitem>
          <clipitem id="A.png94">
            <name>A.png</name>
            <duration>3</duration>
            <rate>
              <ntsc>FALSE</ntsc>
              <timebase>25</timebase>
            </rate>
            <in>90342</in>
            <out>90344</out>
            <start>342</start>
            <end>344</end>
            <pixelaspectratio>Square</pixelaspectratio>
            <stillframe>TRUE</stillframe>
            <anamorphic>FALSE</anamorphic>
            <alphatype>straight</alphatype>
            <masterclipid>A.png94</masterclipid>
            <file id="A">
              <name>A.png</name>
              <pathurl>D:/Codes/SynthLip/SynthLipN/bin/Debug/net6.0-windows/Skin/template/A.png</pathurl>
              <rate>
                <ntsc>FALSE</ntsc>
                <timebase>25</timebase>
              </rate>
              <duration>2</duration>
              <width>1920</width>
              <height>1080</height>
              <media>
                <video>
                  <duration>2</duration>
                  <stillframe>TRUE</stillframe>
                  <samplecharacteristics>
                    <rate>
                      <ntsc>FALSE</ntsc>
                      <timebase>25</timebase>
                    </rate>
                    <width>1920</width>
                    <height>1080</height>
                    <pixelaspectratio>Square</pixelaspectratio>
                    <anamorphic>FALSE</anamorphic>
                  </samplecharacteristics>
                </video>
              </media>
            </file>
            <sourcetrack>
              <mediatype>video</mediatype>
            </sourcetrack>
            <fielddominance>none</fielddominance>
          </clipitem>
          <clipitem id="A.png93">
            <name>A.png</name>
            <duration>3</duration>
            <rate>
              <ntsc>FALSE</ntsc>
              <timebase>25</timebase>
            </rate>
            <in>90338</in>
            <out>90340</out>
            <start>338</start>
            <end>340</end>
            <pixelaspectratio>Square</pixelaspectratio>
            <stillframe>TRUE</stillframe>
            <anamorphic>FALSE</anamorphic>
            <alphatype>straight</alphatype>
            <masterclipid>A.png93</masterclipid>
            <file id="A">
              <name>A.png</name>
              <pathurl>D:/Codes/SynthLip/SynthLipN/bin/Debug/net6.0-windows/Skin/template/A.png</pathurl>
              <rate>
                <ntsc>FALSE</ntsc>
                <timebase>25</timebase>
              </rate>
              <duration>2</duration>
              <width>1920</width>
              <height>1080</height>
              <media>
                <video>
                  <duration>2</duration>
                  <stillframe>TRUE</stillframe>
                  <samplecharacteristics>
                    <rate>
                      <ntsc>FALSE</ntsc>
                      <timebase>25</timebase>
                    </rate>
                    <width>1920</width>
                    <height>1080</height>
                    <pixelaspectratio>Square</pixelaspectratio>
                    <anamorphic>FALSE</anamorphic>
                  </samplecharacteristics>
                </video>
              </media>
            </file>
            <sourcetrack>
              <mediatype>video</mediatype>
            </sourcetrack>
            <fielddominance>none</fielddominance>
          </clipitem>
          <clipitem id="B.png92">
            <name>B.png</name>
            <duration>5</duration>
            <rate>
              <ntsc>FALSE</ntsc>
              <timebase>25</timebase>
            </rate>
            <in>90332</in>
            <out>90336</out>
            <start>332</start>
            <end>336</end>
            <pixelaspectratio>Square</pixelaspectratio>
            <stillframe>TRUE</stillframe>
            <anamorphic>FALSE</anamorphic>
            <alphatype>straight</alphatype>
            <masterclipid>B.png92</masterclipid>
            <file id="B">
              <name>B.png</name>
              <pathurl>D:/Codes/SynthLip/SynthLipN/bin/Debug/net6.0-windows/Skin/template/B.png</pathurl>
              <rate>
                <ntsc>FALSE</ntsc>
                <timebase>25</timebase>
              </rate>
              <duration>2</duration>
              <width>1920</width>
              <height>1080</height>
              <media>
                <video>
                  <duration>2</duration>
                  <stillframe>TRUE</stillframe>
                  <samplecharacteristics>
                    <rate>
                      <ntsc>FALSE</ntsc>
                      <timebase>25</timebase>
                    </rate>
                    <width>1920</width>
                    <height>1080</height>
                    <pixelaspectratio>Square</pixelaspectratio>
                    <anamorphic>FALSE</anamorphic>
                  </samplecharacteristics>
                </video>
              </media>
            </file>
            <sourcetrack>
              <mediatype>video</mediatype>
            </sourcetrack>
            <fielddominance>none</fielddominance>
          </clipitem>
          <clipitem id="F.png88">
            <name>F.png</name>
            <duration>9</duration>
            <rate>
              <ntsc>FALSE</ntsc>
              <timebase>25</timebase>
            </rate>
            <in>90321</in>
            <out>90329</out>
            <start>321</start>
            <end>329</end>
            <pixelaspectratio>Square</pixelaspectratio>
            <stillframe>TRUE</stillframe>
            <anamorphic>FALSE</anamorphic>
            <alphatype>straight</alphatype>
            <masterclipid>F.png88</masterclipid>
            <file id="F">
              <name>F.png</name>
              <pathurl>D:/Codes/SynthLip/SynthLipN/bin/Debug/net6.0-windows/Skin/template/F.png</pathurl>
              <rate>
                <ntsc>FALSE</ntsc>
                <timebase>25</timebase>
              </rate>
              <duration>2</duration>
              <width>1920</width>
              <height>1080</height>
              <media>
                <video>
                  <duration>2</duration>
                  <stillframe>TRUE</stillframe>
                  <samplecharacteristics>
                    <rate>
                      <ntsc>FALSE</ntsc>
                      <timebase>25</timebase>
                    </rate>
                    <width>1920</width>
                    <height>1080</height>
                    <pixelaspectratio>Square</pixelaspectratio>
                    <anamorphic>FALSE</anamorphic>
                  </samplecharacteristics>
                </video>
              </media>
            </file>
            <sourcetrack>
              <mediatype>video</mediatype>
            </sourcetrack>
            <fielddominance>none</fielddominance>
          </clipitem>
          <clipitem id="B.png87">
            <name>B.png</name>
            <duration>2</duration>
            <rate>
              <ntsc>FALSE</ntsc>
              <timebase>25</timebase>
            </rate>
            <in>90318</in>
            <out>90319</out>
            <start>318</start>
            <end>319</end>
            <pixelaspectratio>Square</pixelaspectratio>
            <stillframe>TRUE</stillframe>
            <anamorphic>FALSE</anamorphic>
            <alphatype>straight</alphatype>
            <masterclipid>B.png87</masterclipid>
            <file id="B">
              <name>B.png</name>
              <pathurl>D:/Codes/SynthLip/SynthLipN/bin/Debug/net6.0-windows/Skin/template/B.png</pathurl>
              <rate>
                <ntsc>FALSE</ntsc>
                <timebase>25</timebase>
              </rate>
              <duration>2</duration>
              <width>1920</width>
              <height>1080</height>
              <media>
                <video>
                  <duration>2</duration>
                  <stillframe>TRUE</stillframe>
                  <samplecharacteristics>
                    <rate>
                      <ntsc>FALSE</ntsc>
                      <timebase>25</timebase>
                    </rate>
                    <width>1920</width>
                    <height>1080</height>
                    <pixelaspectratio>Square</pixelaspectratio>
                    <anamorphic>FALSE</anamorphic>
                  </samplecharacteristics>
                </video>
              </media>
            </file>
            <sourcetrack>
              <mediatype>video</mediatype>
            </sourcetrack>
            <fielddominance>none</fielddominance>
          </clipitem>
          <clipitem id="A.png86">
            <name>A.png</name>
            <duration>2</duration>
            <rate>
              <ntsc>FALSE</ntsc>
              <timebase>25</timebase>
            </rate>
            <in>90315</in>
            <out>90316</out>
            <start>315</start>
            <end>316</end>
            <pixelaspectratio>Square</pixelaspectratio>
            <stillframe>TRUE</stillframe>
            <anamorphic>FALSE</anamorphic>
            <alphatype>straight</alphatype>
            <masterclipid>A.png86</masterclipid>
            <file id="A">
              <name>A.png</name>
              <pathurl>D:/Codes/SynthLip/SynthLipN/bin/Debug/net6.0-windows/Skin/template/A.png</pathurl>
              <rate>
                <ntsc>FALSE</ntsc>
                <timebase>25</timebase>
              </rate>
              <duration>2</duration>
              <width>1920</width>
              <height>1080</height>
              <media>
                <video>
                  <duration>2</duration>
                  <stillframe>TRUE</stillframe>
                  <samplecharacteristics>
                    <rate>
                      <ntsc>FALSE</ntsc>
                      <timebase>25</timebase>
                    </rate>
                    <width>1920</width>
                    <height>1080</height>
                    <pixelaspectratio>Square</pixelaspectratio>
                    <anamorphic>FALSE</anamorphic>
                  </samplecharacteristics>
                </video>
              </media>
            </file>
            <sourcetrack>
              <mediatype>video</mediatype>
            </sourcetrack>
            <fielddominance>none</fielddominance>
          </clipitem>
          <clipitem id="A.png85">
            <name>A.png</name>
            <duration>3</duration>
            <rate>
              <ntsc>FALSE</ntsc>
              <timebase>25</timebase>
            </rate>
            <in>90312</in>
            <out>90314</out>
            <start>312</start>
            <end>314</end>
            <pixelaspectratio>Square</pixelaspectratio>
            <stillframe>TRUE</stillframe>
            <anamorphic>FALSE</anamorphic>
            <alphatype>straight</alphatype>
            <masterclipid>A.png85</masterclipid>
            <file id="A">
              <name>A.png</name>
              <pathurl>D:/Codes/SynthLip/SynthLipN/bin/Debug/net6.0-windows/Skin/template/A.png</pathurl>
              <rate>
                <ntsc>FALSE</ntsc>
                <timebase>25</timebase>
              </rate>
              <duration>2</duration>
              <width>1920</width>
              <height>1080</height>
              <media>
                <video>
                  <duration>2</duration>
                  <stillframe>TRUE</stillframe>
                  <samplecharacteristics>
                    <rate>
                      <ntsc>FALSE</ntsc>
                      <timebase>25</timebase>
                    </rate>
                    <width>1920</width>
                    <height>1080</height>
                    <pixelaspectratio>Square</pixelaspectratio>
                    <anamorphic>FALSE</anamorphic>
                  </samplecharacteristics>
                </video>
              </media>
            </file>
            <sourcetrack>
              <mediatype>video</mediatype>
            </sourcetrack>
            <fielddominance>none</fielddominance>
          </clipitem>
          <clipitem id="C.png81">
            <name>C.png</name>
            <duration>2</duration>
            <rate>
              <ntsc>FALSE</ntsc>
              <timebase>25</timebase>
            </rate>
            <in>90305</in>
            <out>90306</out>
            <start>305</start>
            <end>306</end>
            <pixelaspectratio>Square</pixelaspectratio>
            <stillframe>TRUE</stillframe>
            <anamorphic>FALSE</anamorphic>
            <alphatype>straight</alphatype>
            <masterclipid>C.png81</masterclipid>
            <file id="C">
              <name>C.png</name>
              <pathurl>D:/Codes/SynthLip/SynthLipN/bin/Debug/net6.0-windows/Skin/template/C.png</pathurl>
              <rate>
                <ntsc>FALSE</ntsc>
                <timebase>25</timebase>
              </rate>
              <duration>2</duration>
              <width>1920</width>
              <height>1080</height>
              <media>
                <video>
                  <duration>2</duration>
                  <stillframe>TRUE</stillframe>
                  <samplecharacteristics>
                    <rate>
                      <ntsc>FALSE</ntsc>
                      <timebase>25</timebase>
                    </rate>
                    <width>1920</width>
                    <height>1080</height>
                    <pixelaspectratio>Square</pixelaspectratio>
                    <anamorphic>FALSE</anamorphic>
                  </samplecharacteristics>
                </video>
              </media>
            </file>
            <sourcetrack>
              <mediatype>video</mediatype>
            </sourcetrack>
            <fielddominance>none</fielddominance>
          </clipitem>
          <clipitem id="B.png80">
            <name>B.png</name>
            <duration>2</duration>
            <rate>
              <ntsc>FALSE</ntsc>
              <timebase>25</timebase>
            </rate>
            <in>90303</in>
            <out>90304</out>
            <start>303</start>
            <end>304</end>
            <pixelaspectratio>Square</pixelaspectratio>
            <stillframe>TRUE</stillframe>
            <anamorphic>FALSE</anamorphic>
            <alphatype>straight</alphatype>
            <masterclipid>B.png80</masterclipid>
            <file id="B">
              <name>B.png</name>
              <pathurl>D:/Codes/SynthLip/SynthLipN/bin/Debug/net6.0-windows/Skin/template/B.png</pathurl>
              <rate>
                <ntsc>FALSE</ntsc>
                <timebase>25</timebase>
              </rate>
              <duration>2</duration>
              <width>1920</width>
              <height>1080</height>
              <media>
                <video>
                  <duration>2</duration>
                  <stillframe>TRUE</stillframe>
                  <samplecharacteristics>
                    <rate>
                      <ntsc>FALSE</ntsc>
                      <timebase>25</timebase>
                    </rate>
                    <width>1920</width>
                    <height>1080</height>
                    <pixelaspectratio>Square</pixelaspectratio>
                    <anamorphic>FALSE</anamorphic>
                  </samplecharacteristics>
                </video>
              </media>
            </file>
            <sourcetrack>
              <mediatype>video</mediatype>
            </sourcetrack>
            <fielddominance>none</fielddominance>
          </clipitem>
          <clipitem id="A.png79">
            <name>A.png</name>
            <duration>2</duration>
            <rate>
              <ntsc>FALSE</ntsc>
              <timebase>25</timebase>
            </rate>
            <in>90300</in>
            <out>90301</out>
            <start>300</start>
            <end>301</end>
            <pixelaspectratio>Square</pixelaspectratio>
            <stillframe>TRUE</stillframe>
            <anamorphic>FALSE</anamorphic>
            <alphatype>straight</alphatype>
            <masterclipid>A.png79</masterclipid>
            <file id="A">
              <name>A.png</name>
              <pathurl>D:/Codes/SynthLip/SynthLipN/bin/Debug/net6.0-windows/Skin/template/A.png</pathurl>
              <rate>
                <ntsc>FALSE</ntsc>
                <timebase>25</timebase>
              </rate>
              <duration>2</duration>
              <width>1920</width>
              <height>1080</height>
              <media>
                <video>
                  <duration>2</duration>
                  <stillframe>TRUE</stillframe>
                  <samplecharacteristics>
                    <rate>
                      <ntsc>FALSE</ntsc>
                      <timebase>25</timebase>
                    </rate>
                    <width>1920</width>
                    <height>1080</height>
                    <pixelaspectratio>Square</pixelaspectratio>
                    <anamorphic>FALSE</anamorphic>
                  </samplecharacteristics>
                </video>
              </media>
            </file>
            <sourcetrack>
              <mediatype>video</mediatype>
            </sourcetrack>
            <fielddominance>none</fielddominance>
          </clipitem>
          <clipitem id="D.png78">
            <name>D.png</name>
            <duration>3</duration>
            <rate>
              <ntsc>FALSE</ntsc>
              <timebase>25</timebase>
            </rate>
            <in>90297</in>
            <out>90299</out>
            <start>297</start>
            <end>299</end>
            <pixelaspectratio>Square</pixelaspectratio>
            <stillframe>TRUE</stillframe>
            <anamorphic>FALSE</anamorphic>
            <alphatype>straight</alphatype>
            <masterclipid>D.png78</masterclipid>
            <file id="D">
              <name>D.png</name>
              <pathurl>D:/Codes/SynthLip/SynthLipN/bin/Debug/net6.0-windows/Skin/template/D.png</pathurl>
              <rate>
                <ntsc>FALSE</ntsc>
                <timebase>25</timebase>
              </rate>
              <duration>2</duration>
              <width>1920</width>
              <height>1080</height>
              <media>
                <video>
                  <duration>2</duration>
                  <stillframe>TRUE</stillframe>
                  <samplecharacteristics>
                    <rate>
                      <ntsc>FALSE</ntsc>
                      <timebase>25</timebase>
                    </rate>
                    <width>1920</width>
                    <height>1080</height>
                    <pixelaspectratio>Square</pixelaspectratio>
                    <anamorphic>FALSE</anamorphic>
                  </samplecharacteristics>
                </video>
              </media>
            </file>
            <sourcetrack>
              <mediatype>video</mediatype>
            </sourcetrack>
            <fielddominance>none</fielddominance>
          </clipitem>
          <clipitem id="F.png74">
            <name>F.png</name>
            <duration>2</duration>
            <rate>
              <ntsc>FALSE</ntsc>
              <timebase>25</timebase>
            </rate>
            <in>90290</in>
            <out>90291</out>
            <start>290</start>
            <end>291</end>
            <pixelaspectratio>Square</pixelaspectratio>
            <stillframe>TRUE</stillframe>
            <anamorphic>FALSE</anamorphic>
            <alphatype>straight</alphatype>
            <masterclipid>F.png74</masterclipid>
            <file id="F">
              <name>F.png</name>
              <pathurl>D:/Codes/SynthLip/SynthLipN/bin/Debug/net6.0-windows/Skin/template/F.png</pathurl>
              <rate>
                <ntsc>FALSE</ntsc>
                <timebase>25</timebase>
              </rate>
              <duration>2</duration>
              <width>1920</width>
              <height>1080</height>
              <media>
                <video>
                  <duration>2</duration>
                  <stillframe>TRUE</stillframe>
                  <samplecharacteristics>
                    <rate>
                      <ntsc>FALSE</ntsc>
                      <timebase>25</timebase>
                    </rate>
                    <width>1920</width>
                    <height>1080</height>
                    <pixelaspectratio>Square</pixelaspectratio>
                    <anamorphic>FALSE</anamorphic>
                  </samplecharacteristics>
                </video>
              </media>
            </file>
            <sourcetrack>
              <mediatype>video</mediatype>
            </sourcetrack>
            <fielddominance>none</fielddominance>
          </clipitem>
          <clipitem id="B.png73">
            <name>B.png</name>
            <duration>2</duration>
            <rate>
              <ntsc>FALSE</ntsc>
              <timebase>25</timebase>
            </rate>
            <in>90288</in>
            <out>90289</out>
            <start>288</start>
            <end>289</end>
            <pixelaspectratio>Square</pixelaspectratio>
            <stillframe>TRUE</stillframe>
            <anamorphic>FALSE</anamorphic>
            <alphatype>straight</alphatype>
            <masterclipid>B.png73</masterclipid>
            <file id="B">
              <name>B.png</name>
              <pathurl>D:/Codes/SynthLip/SynthLipN/bin/Debug/net6.0-windows/Skin/template/B.png</pathurl>
              <rate>
                <ntsc>FALSE</ntsc>
                <timebase>25</timebase>
              </rate>
              <duration>2</duration>
              <width>1920</width>
              <height>1080</height>
              <media>
                <video>
                  <duration>2</duration>
                  <stillframe>TRUE</stillframe>
                  <samplecharacteristics>
                    <rate>
                      <ntsc>FALSE</ntsc>
                      <timebase>25</timebase>
                    </rate>
                    <width>1920</width>
                    <height>1080</height>
                    <pixelaspectratio>Square</pixelaspectratio>
                    <anamorphic>FALSE</anamorphic>
                  </samplecharacteristics>
                </video>
              </media>
            </file>
            <sourcetrack>
              <mediatype>video</mediatype>
            </sourcetrack>
            <fielddominance>none</fielddominance>
          </clipitem>
          <clipitem id="A.png72">
            <name>A.png</name>
            <duration>2</duration>
            <rate>
              <ntsc>FALSE</ntsc>
              <timebase>25</timebase>
            </rate>
            <in>90285</in>
            <out>90286</out>
            <start>285</start>
            <end>286</end>
            <pixelaspectratio>Square</pixelaspectratio>
            <stillframe>TRUE</stillframe>
            <anamorphic>FALSE</anamorphic>
            <alphatype>straight</alphatype>
            <masterclipid>A.png72</masterclipid>
            <file id="A">
              <name>A.png</name>
              <pathurl>D:/Codes/SynthLip/SynthLipN/bin/Debug/net6.0-windows/Skin/template/A.png</pathurl>
              <rate>
                <ntsc>FALSE</ntsc>
                <timebase>25</timebase>
              </rate>
              <duration>2</duration>
              <width>1920</width>
              <height>1080</height>
              <media>
                <video>
                  <duration>2</duration>
                  <stillframe>TRUE</stillframe>
                  <samplecharacteristics>
                    <rate>
                      <ntsc>FALSE</ntsc>
                      <timebase>25</timebase>
                    </rate>
                    <width>1920</width>
                    <height>1080</height>
                    <pixelaspectratio>Square</pixelaspectratio>
                    <anamorphic>FALSE</anamorphic>
                  </samplecharacteristics>
                </video>
              </media>
            </file>
            <sourcetrack>
              <mediatype>video</mediatype>
            </sourcetrack>
            <fielddominance>none</fielddominance>
          </clipitem>
          <clipitem id="F.png71">
            <name>F.png</name>
            <duration>5</duration>
            <rate>
              <ntsc>FALSE</ntsc>
              <timebase>25</timebase>
            </rate>
            <in>90280</in>
            <out>90284</out>
            <start>280</start>
            <end>284</end>
            <pixelaspectratio>Square</pixelaspectratio>
            <stillframe>TRUE</stillframe>
            <anamorphic>FALSE</anamorphic>
            <alphatype>straight</alphatype>
            <masterclipid>F.png71</masterclipid>
            <file id="F">
              <name>F.png</name>
              <pathurl>D:/Codes/SynthLip/SynthLipN/bin/Debug/net6.0-windows/Skin/template/F.png</pathurl>
              <rate>
                <ntsc>FALSE</ntsc>
                <timebase>25</timebase>
              </rate>
              <duration>2</duration>
              <width>1920</width>
              <height>1080</height>
              <media>
                <video>
                  <duration>2</duration>
                  <stillframe>TRUE</stillframe>
                  <samplecharacteristics>
                    <rate>
                      <ntsc>FALSE</ntsc>
                      <timebase>25</timebase>
                    </rate>
                    <width>1920</width>
                    <height>1080</height>
                    <pixelaspectratio>Square</pixelaspectratio>
                    <anamorphic>FALSE</anamorphic>
                  </samplecharacteristics>
                </video>
              </media>
            </file>
            <sourcetrack>
              <mediatype>video</mediatype>
            </sourcetrack>
            <fielddominance>none</fielddominance>
          </clipitem>
          <clipitem id="C.png68">
            <name>C.png</name>
            <duration>3</duration>
            <rate>
              <ntsc>FALSE</ntsc>
              <timebase>25</timebase>
            </rate>
            <in>90274</in>
            <out>90276</out>
            <start>274</start>
            <end>276</end>
            <pixelaspectratio>Square</pixelaspectratio>
            <stillframe>TRUE</stillframe>
            <anamorphic>FALSE</anamorphic>
            <alphatype>straight</alphatype>
            <masterclipid>C.png68</masterclipid>
            <file id="C">
              <name>C.png</name>
              <pathurl>D:/Codes/SynthLip/SynthLipN/bin/Debug/net6.0-windows/Skin/template/C.png</pathurl>
              <rate>
                <ntsc>FALSE</ntsc>
                <timebase>25</timebase>
              </rate>
              <duration>2</duration>
              <width>1920</width>
              <height>1080</height>
              <media>
                <video>
                  <duration>2</duration>
                  <stillframe>TRUE</stillframe>
                  <samplecharacteristics>
                    <rate>
                      <ntsc>FALSE</ntsc>
                      <timebase>25</timebase>
                    </rate>
                    <width>1920</width>
                    <height>1080</height>
                    <pixelaspectratio>Square</pixelaspectratio>
                    <anamorphic>FALSE</anamorphic>
                  </samplecharacteristics>
                </video>
              </media>
            </file>
            <sourcetrack>
              <mediatype>video</mediatype>
            </sourcetrack>
            <fielddominance>none</fielddominance>
          </clipitem>
          <clipitem id="F.png66">
            <name>F.png</name>
            <duration>9</duration>
            <rate>
              <ntsc>FALSE</ntsc>
              <timebase>25</timebase>
            </rate>
            <in>90263</in>
            <out>90271</out>
            <start>263</start>
            <end>271</end>
            <pixelaspectratio>Square</pixelaspectratio>
            <stillframe>TRUE</stillframe>
            <anamorphic>FALSE</anamorphic>
            <alphatype>straight</alphatype>
            <masterclipid>F.png66</masterclipid>
            <file id="F">
              <name>F.png</name>
              <pathurl>D:/Codes/SynthLip/SynthLipN/bin/Debug/net6.0-windows/Skin/template/F.png</pathurl>
              <rate>
                <ntsc>FALSE</ntsc>
                <timebase>25</timebase>
              </rate>
              <duration>2</duration>
              <width>1920</width>
              <height>1080</height>
              <media>
                <video>
                  <duration>2</duration>
                  <stillframe>TRUE</stillframe>
                  <samplecharacteristics>
                    <rate>
                      <ntsc>FALSE</ntsc>
                      <timebase>25</timebase>
                    </rate>
                    <width>1920</width>
                    <height>1080</height>
                    <pixelaspectratio>Square</pixelaspectratio>
                    <anamorphic>FALSE</anamorphic>
                  </samplecharacteristics>
                </video>
              </media>
            </file>
            <sourcetrack>
              <mediatype>video</mediatype>
            </sourcetrack>
            <fielddominance>none</fielddominance>
          </clipitem>
          <clipitem id="B.png65">
            <name>B.png</name>
            <duration>3</duration>
            <rate>
              <ntsc>FALSE</ntsc>
              <timebase>25</timebase>
            </rate>
            <in>90259</in>
            <out>90261</out>
            <start>259</start>
            <end>261</end>
            <pixelaspectratio>Square</pixelaspectratio>
            <stillframe>TRUE</stillframe>
            <anamorphic>FALSE</anamorphic>
            <alphatype>straight</alphatype>
            <masterclipid>B.png65</masterclipid>
            <file id="B">
              <name>B.png</name>
              <pathurl>D:/Codes/SynthLip/SynthLipN/bin/Debug/net6.0-windows/Skin/template/B.png</pathurl>
              <rate>
                <ntsc>FALSE</ntsc>
                <timebase>25</timebase>
              </rate>
              <duration>2</duration>
              <width>1920</width>
              <height>1080</height>
              <media>
                <video>
                  <duration>2</duration>
                  <stillframe>TRUE</stillframe>
                  <samplecharacteristics>
                    <rate>
                      <ntsc>FALSE</ntsc>
                      <timebase>25</timebase>
                    </rate>
                    <width>1920</width>
                    <height>1080</height>
                    <pixelaspectratio>Square</pixelaspectratio>
                    <anamorphic>FALSE</anamorphic>
                  </samplecharacteristics>
                </video>
              </media>
            </file>
            <sourcetrack>
              <mediatype>video</mediatype>
            </sourcetrack>
            <fielddominance>none</fielddominance>
          </clipitem>
          <clipitem id="A.png64">
            <name>A.png</name>
            <duration>3</duration>
            <rate>
              <ntsc>FALSE</ntsc>
              <timebase>25</timebase>
            </rate>
            <in>90255</in>
            <out>90257</out>
            <start>255</start>
            <end>257</end>
            <pixelaspectratio>Square</pixelaspectratio>
            <stillframe>TRUE</stillframe>
            <anamorphic>FALSE</anamorphic>
            <alphatype>straight</alphatype>
            <masterclipid>A.png64</masterclipid>
            <file id="A">
              <name>A.png</name>
              <pathurl>D:/Codes/SynthLip/SynthLipN/bin/Debug/net6.0-windows/Skin/template/A.png</pathurl>
              <rate>
                <ntsc>FALSE</ntsc>
                <timebase>25</timebase>
              </rate>
              <duration>2</duration>
              <width>1920</width>
              <height>1080</height>
              <media>
                <video>
                  <duration>2</duration>
                  <stillframe>TRUE</stillframe>
                  <samplecharacteristics>
                    <rate>
                      <ntsc>FALSE</ntsc>
                      <timebase>25</timebase>
                    </rate>
                    <width>1920</width>
                    <height>1080</height>
                    <pixelaspectratio>Square</pixelaspectratio>
                    <anamorphic>FALSE</anamorphic>
                  </samplecharacteristics>
                </video>
              </media>
            </file>
            <sourcetrack>
              <mediatype>video</mediatype>
            </sourcetrack>
            <fielddominance>none</fielddominance>
          </clipitem>
          <clipitem id="A.png63">
            <name>A.png</name>
            <duration>3</duration>
            <rate>
              <ntsc>FALSE</ntsc>
              <timebase>25</timebase>
            </rate>
            <in>90252</in>
            <out>90254</out>
            <start>252</start>
            <end>254</end>
            <pixelaspectratio>Square</pixelaspectratio>
            <stillframe>TRUE</stillframe>
            <anamorphic>FALSE</anamorphic>
            <alphatype>straight</alphatype>
            <masterclipid>A.png63</masterclipid>
            <file id="A">
              <name>A.png</name>
              <pathurl>D:/Codes/SynthLip/SynthLipN/bin/Debug/net6.0-windows/Skin/template/A.png</pathurl>
              <rate>
                <ntsc>FALSE</ntsc>
                <timebase>25</timebase>
              </rate>
              <duration>2</duration>
              <width>1920</width>
              <height>1080</height>
              <media>
                <video>
                  <duration>2</duration>
                  <stillframe>TRUE</stillframe>
                  <samplecharacteristics>
                    <rate>
                      <ntsc>FALSE</ntsc>
                      <timebase>25</timebase>
                    </rate>
                    <width>1920</width>
                    <height>1080</height>
                    <pixelaspectratio>Square</pixelaspectratio>
                    <anamorphic>FALSE</anamorphic>
                  </samplecharacteristics>
                </video>
              </media>
            </file>
            <sourcetrack>
              <mediatype>video</mediatype>
            </sourcetrack>
            <fielddominance>none</fielddominance>
          </clipitem>
          <clipitem id="A.png59">
            <name>A.png</name>
            <duration>3</duration>
            <rate>
              <ntsc>FALSE</ntsc>
              <timebase>25</timebase>
            </rate>
            <in>90244</in>
            <out>90246</out>
            <start>244</start>
            <end>246</end>
            <pixelaspectratio>Square</pixelaspectratio>
            <stillframe>TRUE</stillframe>
            <anamorphic>FALSE</anamorphic>
            <alphatype>straight</alphatype>
            <masterclipid>A.png59</masterclipid>
            <file id="A">
              <name>A.png</name>
              <pathurl>D:/Codes/SynthLip/SynthLipN/bin/Debug/net6.0-windows/Skin/template/A.png</pathurl>
              <rate>
                <ntsc>FALSE</ntsc>
                <timebase>25</timebase>
              </rate>
              <duration>2</duration>
              <width>1920</width>
              <height>1080</height>
              <media>
                <video>
                  <duration>2</duration>
                  <stillframe>TRUE</stillframe>
                  <samplecharacteristics>
                    <rate>
                      <ntsc>FALSE</ntsc>
                      <timebase>25</timebase>
                    </rate>
                    <width>1920</width>
                    <height>1080</height>
                    <pixelaspectratio>Square</pixelaspectratio>
                    <anamorphic>FALSE</anamorphic>
                  </samplecharacteristics>
                </video>
              </media>
            </file>
            <sourcetrack>
              <mediatype>video</mediatype>
            </sourcetrack>
            <fielddominance>none</fielddominance>
          </clipitem>
          <clipitem id="A.png58">
            <name>A.png</name>
            <duration>3</duration>
            <rate>
              <ntsc>FALSE</ntsc>
              <timebase>25</timebase>
            </rate>
            <in>90240</in>
            <out>90242</out>
            <start>240</start>
            <end>242</end>
            <pixelaspectratio>Square</pixelaspectratio>
            <stillframe>TRUE</stillframe>
            <anamorphic>FALSE</anamorphic>
            <alphatype>straight</alphatype>
            <masterclipid>A.png58</masterclipid>
            <file id="A">
              <name>A.png</name>
              <pathurl>D:/Codes/SynthLip/SynthLipN/bin/Debug/net6.0-windows/Skin/template/A.png</pathurl>
              <rate>
                <ntsc>FALSE</ntsc>
                <timebase>25</timebase>
              </rate>
              <duration>2</duration>
              <width>1920</width>
              <height>1080</height>
              <media>
                <video>
                  <duration>2</duration>
                  <stillframe>TRUE</stillframe>
                  <samplecharacteristics>
                    <rate>
                      <ntsc>FALSE</ntsc>
                      <timebase>25</timebase>
                    </rate>
                    <width>1920</width>
                    <height>1080</height>
                    <pixelaspectratio>Square</pixelaspectratio>
                    <anamorphic>FALSE</anamorphic>
                  </samplecharacteristics>
                </video>
              </media>
            </file>
            <sourcetrack>
              <mediatype>video</mediatype>
            </sourcetrack>
            <fielddominance>none</fielddominance>
          </clipitem>
          <clipitem id="B.png57">
            <name>B.png</name>
            <duration>3</duration>
            <rate>
              <ntsc>FALSE</ntsc>
              <timebase>25</timebase>
            </rate>
            <in>90237</in>
            <out>90239</out>
            <start>237</start>
            <end>239</end>
            <pixelaspectratio>Square</pixelaspectratio>
            <stillframe>TRUE</stillframe>
            <anamorphic>FALSE</anamorphic>
            <alphatype>straight</alphatype>
            <masterclipid>B.png57</masterclipid>
            <file id="B">
              <name>B.png</name>
              <pathurl>D:/Codes/SynthLip/SynthLipN/bin/Debug/net6.0-windows/Skin/template/B.png</pathurl>
              <rate>
                <ntsc>FALSE</ntsc>
                <timebase>25</timebase>
              </rate>
              <duration>2</duration>
              <width>1920</width>
              <height>1080</height>
              <media>
                <video>
                  <duration>2</duration>
                  <stillframe>TRUE</stillframe>
                  <samplecharacteristics>
                    <rate>
                      <ntsc>FALSE</ntsc>
                      <timebase>25</timebase>
                    </rate>
                    <width>1920</width>
                    <height>1080</height>
                    <pixelaspectratio>Square</pixelaspectratio>
                    <anamorphic>FALSE</anamorphic>
                  </samplecharacteristics>
                </video>
              </media>
            </file>
            <sourcetrack>
              <mediatype>video</mediatype>
            </sourcetrack>
            <fielddominance>none</fielddominance>
          </clipitem>
          <clipitem id="D.png53">
            <name>D.png</name>
            <duration>2</duration>
            <rate>
              <ntsc>FALSE</ntsc>
              <timebase>25</timebase>
            </rate>
            <in>90231</in>
            <out>90232</out>
            <start>231</start>
            <end>232</end>
            <pixelaspectratio>Square</pixelaspectratio>
            <stillframe>TRUE</stillframe>
            <anamorphic>FALSE</anamorphic>
            <alphatype>straight</alphatype>
            <masterclipid>D.png53</masterclipid>
            <file id="D">
              <name>D.png</name>
              <pathurl>D:/Codes/SynthLip/SynthLipN/bin/Debug/net6.0-windows/Skin/template/D.png</pathurl>
              <rate>
                <ntsc>FALSE</ntsc>
                <timebase>25</timebase>
              </rate>
              <duration>2</duration>
              <width>1920</width>
              <height>1080</height>
              <media>
                <video>
                  <duration>2</duration>
                  <stillframe>TRUE</stillframe>
                  <samplecharacteristics>
                    <rate>
                      <ntsc>FALSE</ntsc>
                      <timebase>25</timebase>
                    </rate>
                    <width>1920</width>
                    <height>1080</height>
                    <pixelaspectratio>Square</pixelaspectratio>
                    <anamorphic>FALSE</anamorphic>
                  </samplecharacteristics>
                </video>
              </media>
            </file>
            <sourcetrack>
              <mediatype>video</mediatype>
            </sourcetrack>
            <fielddominance>none</fielddominance>
          </clipitem>
          <clipitem id="B.png52">
            <name>B.png</name>
            <duration>2</duration>
            <rate>
              <ntsc>FALSE</ntsc>
              <timebase>25</timebase>
            </rate>
            <in>90228</in>
            <out>90229</out>
            <start>228</start>
            <end>229</end>
            <pixelaspectratio>Square</pixelaspectratio>
            <stillframe>TRUE</stillframe>
            <anamorphic>FALSE</anamorphic>
            <alphatype>straight</alphatype>
            <masterclipid>B.png52</masterclipid>
            <file id="B">
              <name>B.png</name>
              <pathurl>D:/Codes/SynthLip/SynthLipN/bin/Debug/net6.0-windows/Skin/template/B.png</pathurl>
              <rate>
                <ntsc>FALSE</ntsc>
                <timebase>25</timebase>
              </rate>
              <duration>2</duration>
              <width>1920</width>
              <height>1080</height>
              <media>
                <video>
                  <duration>2</duration>
                  <stillframe>TRUE</stillframe>
                  <samplecharacteristics>
                    <rate>
                      <ntsc>FALSE</ntsc>
                      <timebase>25</timebase>
                    </rate>
                    <width>1920</width>
                    <height>1080</height>
                    <pixelaspectratio>Square</pixelaspectratio>
                    <anamorphic>FALSE</anamorphic>
                  </samplecharacteristics>
                </video>
              </media>
            </file>
            <sourcetrack>
              <mediatype>video</mediatype>
            </sourcetrack>
            <fielddominance>none</fielddominance>
          </clipitem>
          <clipitem id="B.png51">
            <name>B.png</name>
            <duration>2</duration>
            <rate>
              <ntsc>FALSE</ntsc>
              <timebase>25</timebase>
            </rate>
            <in>90225</in>
            <out>90226</out>
            <start>225</start>
            <end>226</end>
            <pixelaspectratio>Square</pixelaspectratio>
            <stillframe>TRUE</stillframe>
            <anamorphic>FALSE</anamorphic>
            <alphatype>straight</alphatype>
            <masterclipid>B.png51</masterclipid>
            <file id="B">
              <name>B.png</name>
              <pathurl>D:/Codes/SynthLip/SynthLipN/bin/Debug/net6.0-windows/Skin/template/B.png</pathurl>
              <rate>
                <ntsc>FALSE</ntsc>
                <timebase>25</timebase>
              </rate>
              <duration>2</duration>
              <width>1920</width>
              <height>1080</height>
              <media>
                <video>
                  <duration>2</duration>
                  <stillframe>TRUE</stillframe>
                  <samplecharacteristics>
                    <rate>
                      <ntsc>FALSE</ntsc>
                      <timebase>25</timebase>
                    </rate>
                    <width>1920</width>
                    <height>1080</height>
                    <pixelaspectratio>Square</pixelaspectratio>
                    <anamorphic>FALSE</anamorphic>
                  </samplecharacteristics>
                </video>
              </media>
            </file>
            <sourcetrack>
              <mediatype>video</mediatype>
            </sourcetrack>
            <fielddominance>none</fielddominance>
          </clipitem>
          <clipitem id="D.png50">
            <name>D.png</name>
            <duration>2</duration>
            <rate>
              <ntsc>FALSE</ntsc>
              <timebase>25</timebase>
            </rate>
            <in>90223</in>
            <out>90224</out>
            <start>223</start>
            <end>224</end>
            <pixelaspectratio>Square</pixelaspectratio>
            <stillframe>TRUE</stillframe>
            <anamorphic>FALSE</anamorphic>
            <alphatype>straight</alphatype>
            <masterclipid>D.png50</masterclipid>
            <file id="D">
              <name>D.png</name>
              <pathurl>D:/Codes/SynthLip/SynthLipN/bin/Debug/net6.0-windows/Skin/template/D.png</pathurl>
              <rate>
                <ntsc>FALSE</ntsc>
                <timebase>25</timebase>
              </rate>
              <duration>2</duration>
              <width>1920</width>
              <height>1080</height>
              <media>
                <video>
                  <duration>2</duration>
                  <stillframe>TRUE</stillframe>
                  <samplecharacteristics>
                    <rate>
                      <ntsc>FALSE</ntsc>
                      <timebase>25</timebase>
                    </rate>
                    <width>1920</width>
                    <height>1080</height>
                    <pixelaspectratio>Square</pixelaspectratio>
                    <anamorphic>FALSE</anamorphic>
                  </samplecharacteristics>
                </video>
              </media>
            </file>
            <sourcetrack>
              <mediatype>video</mediatype>
            </sourcetrack>
            <fielddominance>none</fielddominance>
          </clipitem>
          <clipitem id="B.png49">
            <name>B.png</name>
            <duration>2</duration>
            <rate>
              <ntsc>FALSE</ntsc>
              <timebase>25</timebase>
            </rate>
            <in>90220</in>
            <out>90221</out>
            <start>220</start>
            <end>221</end>
            <pixelaspectratio>Square</pixelaspectratio>
            <stillframe>TRUE</stillframe>
            <anamorphic>FALSE</anamorphic>
            <alphatype>straight</alphatype>
            <masterclipid>B.png49</masterclipid>
            <file id="B">
              <name>B.png</name>
              <pathurl>D:/Codes/SynthLip/SynthLipN/bin/Debug/net6.0-windows/Skin/template/B.png</pathurl>
              <rate>
                <ntsc>FALSE</ntsc>
                <timebase>25</timebase>
              </rate>
              <duration>2</duration>
              <width>1920</width>
              <height>1080</height>
              <media>
                <video>
                  <duration>2</duration>
                  <stillframe>TRUE</stillframe>
                  <samplecharacteristics>
                    <rate>
                      <ntsc>FALSE</ntsc>
                      <timebase>25</timebase>
                    </rate>
                    <width>1920</width>
                    <height>1080</height>
                    <pixelaspectratio>Square</pixelaspectratio>
                    <anamorphic>FALSE</anamorphic>
                  </samplecharacteristics>
                </video>
              </media>
            </file>
            <sourcetrack>
              <mediatype>video</mediatype>
            </sourcetrack>
            <fielddominance>none</fielddominance>
          </clipitem>
          <clipitem id="F.png48">
            <name>F.png</name>
            <duration>2</duration>
            <rate>
              <ntsc>FALSE</ntsc>
              <timebase>25</timebase>
            </rate>
            <in>90218</in>
            <out>90219</out>
            <start>218</start>
            <end>219</end>
            <pixelaspectratio>Square</pixelaspectratio>
            <stillframe>TRUE</stillframe>
            <anamorphic>FALSE</anamorphic>
            <alphatype>straight</alphatype>
            <masterclipid>F.png48</masterclipid>
            <file id="F">
              <name>F.png</name>
              <pathurl>D:/Codes/SynthLip/SynthLipN/bin/Debug/net6.0-windows/Skin/template/F.png</pathurl>
              <rate>
                <ntsc>FALSE</ntsc>
                <timebase>25</timebase>
              </rate>
              <duration>2</duration>
              <width>1920</width>
              <height>1080</height>
              <media>
                <video>
                  <duration>2</duration>
                  <stillframe>TRUE</stillframe>
                  <samplecharacteristics>
                    <rate>
                      <ntsc>FALSE</ntsc>
                      <timebase>25</timebase>
                    </rate>
                    <width>1920</width>
                    <height>1080</height>
                    <pixelaspectratio>Square</pixelaspectratio>
                    <anamorphic>FALSE</anamorphic>
                  </samplecharacteristics>
                </video>
              </media>
            </file>
            <sourcetrack>
              <mediatype>video</mediatype>
            </sourcetrack>
            <fielddominance>none</fielddominance>
          </clipitem>
          <clipitem id="A.png47">
            <name>A.png</name>
            <duration>3</duration>
            <rate>
              <ntsc>FALSE</ntsc>
              <timebase>25</timebase>
            </rate>
            <in>90214</in>
            <out>90216</out>
            <start>214</start>
            <end>216</end>
            <pixelaspectratio>Square</pixelaspectratio>
            <stillframe>TRUE</stillframe>
            <anamorphic>FALSE</anamorphic>
            <alphatype>straight</alphatype>
            <masterclipid>A.png47</masterclipid>
            <file id="A">
              <name>A.png</name>
              <pathurl>D:/Codes/SynthLip/SynthLipN/bin/Debug/net6.0-windows/Skin/template/A.png</pathurl>
              <rate>
                <ntsc>FALSE</ntsc>
                <timebase>25</timebase>
              </rate>
              <duration>2</duration>
              <width>1920</width>
              <height>1080</height>
              <media>
                <video>
                  <duration>2</duration>
                  <stillframe>TRUE</stillframe>
                  <samplecharacteristics>
                    <rate>
                      <ntsc>FALSE</ntsc>
                      <timebase>25</timebase>
                    </rate>
                    <width>1920</width>
                    <height>1080</height>
                    <pixelaspectratio>Square</pixelaspectratio>
                    <anamorphic>FALSE</anamorphic>
                  </samplecharacteristics>
                </video>
              </media>
            </file>
            <sourcetrack>
              <mediatype>video</mediatype>
            </sourcetrack>
            <fielddominance>none</fielddominance>
          </clipitem>
          <clipitem id="B.png44">
            <name>B.png</name>
            <duration>8</duration>
            <rate>
              <ntsc>FALSE</ntsc>
              <timebase>25</timebase>
            </rate>
            <in>90203</in>
            <out>90210</out>
            <start>203</start>
            <end>210</end>
            <pixelaspectratio>Square</pixelaspectratio>
            <stillframe>TRUE</stillframe>
            <anamorphic>FALSE</anamorphic>
            <alphatype>straight</alphatype>
            <masterclipid>B.png44</masterclipid>
            <file id="B">
              <name>B.png</name>
              <pathurl>D:/Codes/SynthLip/SynthLipN/bin/Debug/net6.0-windows/Skin/template/B.png</pathurl>
              <rate>
                <ntsc>FALSE</ntsc>
                <timebase>25</timebase>
              </rate>
              <duration>2</duration>
              <width>1920</width>
              <height>1080</height>
              <media>
                <video>
                  <duration>2</duration>
                  <stillframe>TRUE</stillframe>
                  <samplecharacteristics>
                    <rate>
                      <ntsc>FALSE</ntsc>
                      <timebase>25</timebase>
                    </rate>
                    <width>1920</width>
                    <height>1080</height>
                    <pixelaspectratio>Square</pixelaspectratio>
                    <anamorphic>FALSE</anamorphic>
                  </samplecharacteristics>
                </video>
              </media>
            </file>
            <sourcetrack>
              <mediatype>video</mediatype>
            </sourcetrack>
            <fielddominance>none</fielddominance>
          </clipitem>
          <clipitem id="D.png43">
            <name>D.png</name>
            <duration>2</duration>
            <rate>
              <ntsc>FALSE</ntsc>
              <timebase>25</timebase>
            </rate>
            <in>90200</in>
            <out>90201</out>
            <start>200</start>
            <end>201</end>
            <pixelaspectratio>Square</pixelaspectratio>
            <stillframe>TRUE</stillframe>
            <anamorphic>FALSE</anamorphic>
            <alphatype>straight</alphatype>
            <masterclipid>D.png43</masterclipid>
            <file id="D">
              <name>D.png</name>
              <pathurl>D:/Codes/SynthLip/SynthLipN/bin/Debug/net6.0-windows/Skin/template/D.png</pathurl>
              <rate>
                <ntsc>FALSE</ntsc>
                <timebase>25</timebase>
              </rate>
              <duration>2</duration>
              <width>1920</width>
              <height>1080</height>
              <media>
                <video>
                  <duration>2</duration>
                  <stillframe>TRUE</stillframe>
                  <samplecharacteristics>
                    <rate>
                      <ntsc>FALSE</ntsc>
                      <timebase>25</timebase>
                    </rate>
                    <width>1920</width>
                    <height>1080</height>
                    <pixelaspectratio>Square</pixelaspectratio>
                    <anamorphic>FALSE</anamorphic>
                  </samplecharacteristics>
                </video>
              </media>
            </file>
            <sourcetrack>
              <mediatype>video</mediatype>
            </sourcetrack>
            <fielddominance>none</fielddominance>
          </clipitem>
          <clipitem id="B.png42">
            <name>B.png</name>
            <duration>2</duration>
            <rate>
              <ntsc>FALSE</ntsc>
              <timebase>25</timebase>
            </rate>
            <in>90198</in>
            <out>90199</out>
            <start>198</start>
            <end>199</end>
            <pixelaspectratio>Square</pixelaspectratio>
            <stillframe>TRUE</stillframe>
            <anamorphic>FALSE</anamorphic>
            <alphatype>straight</alphatype>
            <masterclipid>B.png42</masterclipid>
            <file id="B">
              <name>B.png</name>
              <pathurl>D:/Codes/SynthLip/SynthLipN/bin/Debug/net6.0-windows/Skin/template/B.png</pathurl>
              <rate>
                <ntsc>FALSE</ntsc>
                <timebase>25</timebase>
              </rate>
              <duration>2</duration>
              <width>1920</width>
              <height>1080</height>
              <media>
                <video>
                  <duration>2</duration>
                  <stillframe>TRUE</stillframe>
                  <samplecharacteristics>
                    <rate>
                      <ntsc>FALSE</ntsc>
                      <timebase>25</timebase>
                    </rate>
                    <width>1920</width>
                    <height>1080</height>
                    <pixelaspectratio>Square</pixelaspectratio>
                    <anamorphic>FALSE</anamorphic>
                  </samplecharacteristics>
                </video>
              </media>
            </file>
            <sourcetrack>
              <mediatype>video</mediatype>
            </sourcetrack>
            <fielddominance>none</fielddominance>
          </clipitem>
          <clipitem id="A.png41">
            <name>A.png</name>
            <duration>2</duration>
            <rate>
              <ntsc>FALSE</ntsc>
              <timebase>25</timebase>
            </rate>
            <in>90195</in>
            <out>90196</out>
            <start>195</start>
            <end>196</end>
            <pixelaspectratio>Square</pixelaspectratio>
            <stillframe>TRUE</stillframe>
            <anamorphic>FALSE</anamorphic>
            <alphatype>straight</alphatype>
            <masterclipid>A.png41</masterclipid>
            <file id="A">
              <name>A.png</name>
              <pathurl>D:/Codes/SynthLip/SynthLipN/bin/Debug/net6.0-windows/Skin/template/A.png</pathurl>
              <rate>
                <ntsc>FALSE</ntsc>
                <timebase>25</timebase>
              </rate>
              <duration>2</duration>
              <width>1920</width>
              <height>1080</height>
              <media>
                <video>
                  <duration>2</duration>
                  <stillframe>TRUE</stillframe>
                  <samplecharacteristics>
                    <rate>
                      <ntsc>FALSE</ntsc>
                      <timebase>25</timebase>
                    </rate>
                    <width>1920</width>
                    <height>1080</height>
                    <pixelaspectratio>Square</pixelaspectratio>
                    <anamorphic>FALSE</anamorphic>
                  </samplecharacteristics>
                </video>
              </media>
            </file>
            <sourcetrack>
              <mediatype>video</mediatype>
            </sourcetrack>
            <fielddominance>none</fielddominance>
          </clipitem>
          <clipitem id="A.png40">
            <name>A.png</name>
            <duration>3</duration>
            <rate>
              <ntsc>FALSE</ntsc>
              <timebase>25</timebase>
            </rate>
            <in>90192</in>
            <out>90194</out>
            <start>192</start>
            <end>194</end>
            <pixelaspectratio>Square</pixelaspectratio>
            <stillframe>TRUE</stillframe>
            <anamorphic>FALSE</anamorphic>
            <alphatype>straight</alphatype>
            <masterclipid>A.png40</masterclipid>
            <file id="A">
              <name>A.png</name>
              <pathurl>D:/Codes/SynthLip/SynthLipN/bin/Debug/net6.0-windows/Skin/template/A.png</pathurl>
              <rate>
                <ntsc>FALSE</ntsc>
                <timebase>25</timebase>
              </rate>
              <duration>2</duration>
              <width>1920</width>
              <height>1080</height>
              <media>
                <video>
                  <duration>2</duration>
                  <stillframe>TRUE</stillframe>
                  <samplecharacteristics>
                    <rate>
                      <ntsc>FALSE</ntsc>
                      <timebase>25</timebase>
                    </rate>
                    <width>1920</width>
                    <height>1080</height>
                    <pixelaspectratio>Square</pixelaspectratio>
                    <anamorphic>FALSE</anamorphic>
                  </samplecharacteristics>
                </video>
              </media>
            </file>
            <sourcetrack>
              <mediatype>video</mediatype>
            </sourcetrack>
            <fielddominance>none</fielddominance>
          </clipitem>
          <clipitem id="C.png36">
            <name>C.png</name>
            <duration>2</duration>
            <rate>
              <ntsc>FALSE</ntsc>
              <timebase>25</timebase>
            </rate>
            <in>90185</in>
            <out>90186</out>
            <start>185</start>
            <end>186</end>
            <pixelaspectratio>Square</pixelaspectratio>
            <stillframe>TRUE</stillframe>
            <anamorphic>FALSE</anamorphic>
            <alphatype>straight</alphatype>
            <masterclipid>C.png36</masterclipid>
            <file id="C">
              <name>C.png</name>
              <pathurl>D:/Codes/SynthLip/SynthLipN/bin/Debug/net6.0-windows/Skin/template/C.png</pathurl>
              <rate>
                <ntsc>FALSE</ntsc>
                <timebase>25</timebase>
              </rate>
              <duration>2</duration>
              <width>1920</width>
              <height>1080</height>
              <media>
                <video>
                  <duration>2</duration>
                  <stillframe>TRUE</stillframe>
                  <samplecharacteristics>
                    <rate>
                      <ntsc>FALSE</ntsc>
                      <timebase>25</timebase>
                    </rate>
                    <width>1920</width>
                    <height>1080</height>
                    <pixelaspectratio>Square</pixelaspectratio>
                    <anamorphic>FALSE</anamorphic>
                  </samplecharacteristics>
                </video>
              </media>
            </file>
            <sourcetrack>
              <mediatype>video</mediatype>
            </sourcetrack>
            <fielddominance>none</fielddominance>
          </clipitem>
          <clipitem id="B.png35">
            <name>B.png</name>
            <duration>2</duration>
            <rate>
              <ntsc>FALSE</ntsc>
              <timebase>25</timebase>
            </rate>
            <in>90183</in>
            <out>90184</out>
            <start>183</start>
            <end>184</end>
            <pixelaspectratio>Square</pixelaspectratio>
            <stillframe>TRUE</stillframe>
            <anamorphic>FALSE</anamorphic>
            <alphatype>straight</alphatype>
            <masterclipid>B.png35</masterclipid>
            <file id="B">
              <name>B.png</name>
              <pathurl>D:/Codes/SynthLip/SynthLipN/bin/Debug/net6.0-windows/Skin/template/B.png</pathurl>
              <rate>
                <ntsc>FALSE</ntsc>
                <timebase>25</timebase>
              </rate>
              <duration>2</duration>
              <width>1920</width>
              <height>1080</height>
              <media>
                <video>
                  <duration>2</duration>
                  <stillframe>TRUE</stillframe>
                  <samplecharacteristics>
                    <rate>
                      <ntsc>FALSE</ntsc>
                      <timebase>25</timebase>
                    </rate>
                    <width>1920</width>
                    <height>1080</height>
                    <pixelaspectratio>Square</pixelaspectratio>
                    <anamorphic>FALSE</anamorphic>
                  </samplecharacteristics>
                </video>
              </media>
            </file>
            <sourcetrack>
              <mediatype>video</mediatype>
            </sourcetrack>
            <fielddominance>none</fielddominance>
          </clipitem>
          <clipitem id="A.png34">
            <name>A.png</name>
            <duration>2</duration>
            <rate>
              <ntsc>FALSE</ntsc>
              <timebase>25</timebase>
            </rate>
            <in>90180</in>
            <out>90181</out>
            <start>180</start>
            <end>181</end>
            <pixelaspectratio>Square</pixelaspectratio>
            <stillframe>TRUE</stillframe>
            <anamorphic>FALSE</anamorphic>
            <alphatype>straight</alphatype>
            <masterclipid>A.png34</masterclipid>
            <file id="A">
              <name>A.png</name>
              <pathurl>D:/Codes/SynthLip/SynthLipN/bin/Debug/net6.0-windows/Skin/template/A.png</pathurl>
              <rate>
                <ntsc>FALSE</ntsc>
                <timebase>25</timebase>
              </rate>
              <duration>2</duration>
              <width>1920</width>
              <height>1080</height>
              <media>
                <video>
                  <duration>2</duration>
                  <stillframe>TRUE</stillframe>
                  <samplecharacteristics>
                    <rate>
                      <ntsc>FALSE</ntsc>
                      <timebase>25</timebase>
                    </rate>
                    <width>1920</width>
                    <height>1080</height>
                    <pixelaspectratio>Square</pixelaspectratio>
                    <anamorphic>FALSE</anamorphic>
                  </samplecharacteristics>
                </video>
              </media>
            </file>
            <sourcetrack>
              <mediatype>video</mediatype>
            </sourcetrack>
            <fielddominance>none</fielddominance>
          </clipitem>
          <clipitem id="B.png33">
            <name>B.png</name>
            <duration>3</duration>
            <rate>
              <ntsc>FALSE</ntsc>
              <timebase>25</timebase>
            </rate>
            <in>90177</in>
            <out>90179</out>
            <start>177</start>
            <end>179</end>
            <pixelaspectratio>Square</pixelaspectratio>
            <stillframe>TRUE</stillframe>
            <anamorphic>FALSE</anamorphic>
            <alphatype>straight</alphatype>
            <masterclipid>B.png33</masterclipid>
            <file id="B">
              <name>B.png</name>
              <pathurl>D:/Codes/SynthLip/SynthLipN/bin/Debug/net6.0-windows/Skin/template/B.png</pathurl>
              <rate>
                <ntsc>FALSE</ntsc>
                <timebase>25</timebase>
              </rate>
              <duration>2</duration>
              <width>1920</width>
              <height>1080</height>
              <media>
                <video>
                  <duration>2</duration>
                  <stillframe>TRUE</stillframe>
                  <samplecharacteristics>
                    <rate>
                      <ntsc>FALSE</ntsc>
                      <timebase>25</timebase>
                    </rate>
                    <width>1920</width>
                    <height>1080</height>
                    <pixelaspectratio>Square</pixelaspectratio>
                    <anamorphic>FALSE</anamorphic>
                  </samplecharacteristics>
                </video>
              </media>
            </file>
            <sourcetrack>
              <mediatype>video</mediatype>
            </sourcetrack>
            <fielddominance>none</fielddominance>
          </clipitem>
          <clipitem id="B.png29">
            <name>B.png</name>
            <duration>3</duration>
            <rate>
              <ntsc>FALSE</ntsc>
              <timebase>25</timebase>
            </rate>
            <in>90169</in>
            <out>90171</out>
            <start>169</start>
            <end>171</end>
            <pixelaspectratio>Square</pixelaspectratio>
            <stillframe>TRUE</stillframe>
            <anamorphic>FALSE</anamorphic>
            <alphatype>straight</alphatype>
            <masterclipid>B.png29</masterclipid>
            <file id="B">
              <name>B.png</name>
              <pathurl>D:/Codes/SynthLip/SynthLipN/bin/Debug/net6.0-windows/Skin/template/B.png</pathurl>
              <rate>
                <ntsc>FALSE</ntsc>
                <timebase>25</timebase>
              </rate>
              <duration>2</duration>
              <width>1920</width>
              <height>1080</height>
              <media>
                <video>
                  <duration>2</duration>
                  <stillframe>TRUE</stillframe>
                  <samplecharacteristics>
                    <rate>
                      <ntsc>FALSE</ntsc>
                      <timebase>25</timebase>
                    </rate>
                    <width>1920</width>
                    <height>1080</height>
                    <pixelaspectratio>Square</pixelaspectratio>
                    <anamorphic>FALSE</anamorphic>
                  </samplecharacteristics>
                </video>
              </media>
            </file>
            <sourcetrack>
              <mediatype>video</mediatype>
            </sourcetrack>
            <fielddominance>none</fielddominance>
          </clipitem>
          <clipitem id="A.png28">
            <name>A.png</name>
            <duration>3</duration>
            <rate>
              <ntsc>FALSE</ntsc>
              <timebase>25</timebase>
            </rate>
            <in>90165</in>
            <out>90167</out>
            <start>165</start>
            <end>167</end>
            <pixelaspectratio>Square</pixelaspectratio>
            <stillframe>TRUE</stillframe>
            <anamorphic>FALSE</anamorphic>
            <alphatype>straight</alphatype>
            <masterclipid>A.png28</masterclipid>
            <file id="A">
              <name>A.png</name>
              <pathurl>D:/Codes/SynthLip/SynthLipN/bin/Debug/net6.0-windows/Skin/template/A.png</pathurl>
              <rate>
                <ntsc>FALSE</ntsc>
                <timebase>25</timebase>
              </rate>
              <duration>2</duration>
              <width>1920</width>
              <height>1080</height>
              <media>
                <video>
                  <duration>2</duration>
                  <stillframe>TRUE</stillframe>
                  <samplecharacteristics>
                    <rate>
                      <ntsc>FALSE</ntsc>
                      <timebase>25</timebase>
                    </rate>
                    <width>1920</width>
                    <height>1080</height>
                    <pixelaspectratio>Square</pixelaspectratio>
                    <anamorphic>FALSE</anamorphic>
                  </samplecharacteristics>
                </video>
              </media>
            </file>
            <sourcetrack>
              <mediatype>video</mediatype>
            </sourcetrack>
            <fielddominance>none</fielddominance>
          </clipitem>
          <clipitem id="F.png27">
            <name>F.png</name>
            <duration>5</duration>
            <rate>
              <ntsc>FALSE</ntsc>
              <timebase>25</timebase>
            </rate>
            <in>90160</in>
            <out>90164</out>
            <start>160</start>
            <end>164</end>
            <pixelaspectratio>Square</pixelaspectratio>
            <stillframe>TRUE</stillframe>
            <anamorphic>FALSE</anamorphic>
            <alphatype>straight</alphatype>
            <masterclipid>F.png27</masterclipid>
            <file id="F">
              <name>F.png</name>
              <pathurl>D:/Codes/SynthLip/SynthLipN/bin/Debug/net6.0-windows/Skin/template/F.png</pathurl>
              <rate>
                <ntsc>FALSE</ntsc>
                <timebase>25</timebase>
              </rate>
              <duration>2</duration>
              <width>1920</width>
              <height>1080</height>
              <media>
                <video>
                  <duration>2</duration>
                  <stillframe>TRUE</stillframe>
                  <samplecharacteristics>
                    <rate>
                      <ntsc>FALSE</ntsc>
                      <timebase>25</timebase>
                    </rate>
                    <width>1920</width>
                    <height>1080</height>
                    <pixelaspectratio>Square</pixelaspectratio>
                    <anamorphic>FALSE</anamorphic>
                  </samplecharacteristics>
                </video>
              </media>
            </file>
            <sourcetrack>
              <mediatype>video</mediatype>
            </sourcetrack>
            <fielddominance>none</fielddominance>
          </clipitem>
          <clipitem id="C.png24">
            <name>C.png</name>
            <duration>3</duration>
            <rate>
              <ntsc>FALSE</ntsc>
              <timebase>25</timebase>
            </rate>
            <in>90154</in>
            <out>90156</out>
            <start>154</start>
            <end>156</end>
            <pixelaspectratio>Square</pixelaspectratio>
            <stillframe>TRUE</stillframe>
            <anamorphic>FALSE</anamorphic>
            <alphatype>straight</alphatype>
            <masterclipid>C.png24</masterclipid>
            <file id="C">
              <name>C.png</name>
              <pathurl>D:/Codes/SynthLip/SynthLipN/bin/Debug/net6.0-windows/Skin/template/C.png</pathurl>
              <rate>
                <ntsc>FALSE</ntsc>
                <timebase>25</timebase>
              </rate>
              <duration>2</duration>
              <width>1920</width>
              <height>1080</height>
              <media>
                <video>
                  <duration>2</duration>
                  <stillframe>TRUE</stillframe>
                  <samplecharacteristics>
                    <rate>
                      <ntsc>FALSE</ntsc>
                      <timebase>25</timebase>
                    </rate>
                    <width>1920</width>
                    <height>1080</height>
                    <pixelaspectratio>Square</pixelaspectratio>
                    <anamorphic>FALSE</anamorphic>
                  </samplecharacteristics>
                </video>
              </media>
            </file>
            <sourcetrack>
              <mediatype>video</mediatype>
            </sourcetrack>
            <fielddominance>none</fielddominance>
          </clipitem>
          <clipitem id="B.png22">
            <name>B.png</name>
            <duration>9</duration>
            <rate>
              <ntsc>FALSE</ntsc>
              <timebase>25</timebase>
            </rate>
            <in>90143</in>
            <out>90151</out>
            <start>143</start>
            <end>151</end>
            <pixelaspectratio>Square</pixelaspectratio>
            <stillframe>TRUE</stillframe>
            <anamorphic>FALSE</anamorphic>
            <alphatype>straight</alphatype>
            <masterclipid>B.png22</masterclipid>
            <file id="B">
              <name>B.png</name>
              <pathurl>D:/Codes/SynthLip/SynthLipN/bin/Debug/net6.0-windows/Skin/template/B.png</pathurl>
              <rate>
                <ntsc>FALSE</ntsc>
                <timebase>25</timebase>
              </rate>
              <duration>2</duration>
              <width>1920</width>
              <height>1080</height>
              <media>
                <video>
                  <duration>2</duration>
                  <stillframe>TRUE</stillframe>
                  <samplecharacteristics>
                    <rate>
                      <ntsc>FALSE</ntsc>
                      <timebase>25</timebase>
                    </rate>
                    <width>1920</width>
                    <height>1080</height>
                    <pixelaspectratio>Square</pixelaspectratio>
                    <anamorphic>FALSE</anamorphic>
                  </samplecharacteristics>
                </video>
              </media>
            </file>
            <sourcetrack>
              <mediatype>video</mediatype>
            </sourcetrack>
            <fielddominance>none</fielddominance>
          </clipitem>
          <clipitem id="D.png21">
            <name>D.png</name>
            <duration>2</duration>
            <rate>
              <ntsc>FALSE</ntsc>
              <timebase>25</timebase>
            </rate>
            <in>90140</in>
            <out>90141</out>
            <start>140</start>
            <end>141</end>
            <pixelaspectratio>Square</pixelaspectratio>
            <stillframe>TRUE</stillframe>
            <anamorphic>FALSE</anamorphic>
            <alphatype>straight</alphatype>
            <masterclipid>D.png21</masterclipid>
            <file id="D">
              <name>D.png</name>
              <pathurl>D:/Codes/SynthLip/SynthLipN/bin/Debug/net6.0-windows/Skin/template/D.png</pathurl>
              <rate>
                <ntsc>FALSE</ntsc>
                <timebase>25</timebase>
              </rate>
              <duration>2</duration>
              <width>1920</width>
              <height>1080</height>
              <media>
                <video>
                  <duration>2</duration>
                  <stillframe>TRUE</stillframe>
                  <samplecharacteristics>
                    <rate>
                      <ntsc>FALSE</ntsc>
                      <timebase>25</timebase>
                    </rate>
                    <width>1920</width>
                    <height>1080</height>
                    <pixelaspectratio>Square</pixelaspectratio>
                    <anamorphic>FALSE</anamorphic>
                  </samplecharacteristics>
                </video>
              </media>
            </file>
            <sourcetrack>
              <mediatype>video</mediatype>
            </sourcetrack>
            <fielddominance>none</fielddominance>
          </clipitem>
          <clipitem id="B.png20">
            <name>B.png</name>
            <duration>2</duration>
            <rate>
              <ntsc>FALSE</ntsc>
              <timebase>25</timebase>
            </rate>
            <in>90138</in>
            <out>90139</out>
            <start>138</start>
            <end>139</end>
            <pixelaspectratio>Square</pixelaspectratio>
            <stillframe>TRUE</stillframe>
            <anamorphic>FALSE</anamorphic>
            <alphatype>straight</alphatype>
            <masterclipid>B.png20</masterclipid>
            <file id="B">
              <name>B.png</name>
              <pathurl>D:/Codes/SynthLip/SynthLipN/bin/Debug/net6.0-windows/Skin/template/B.png</pathurl>
              <rate>
                <ntsc>FALSE</ntsc>
                <timebase>25</timebase>
              </rate>
              <duration>2</duration>
              <width>1920</width>
              <height>1080</height>
              <media>
                <video>
                  <duration>2</duration>
                  <stillframe>TRUE</stillframe>
                  <samplecharacteristics>
                    <rate>
                      <ntsc>FALSE</ntsc>
                      <timebase>25</timebase>
                    </rate>
                    <width>1920</width>
                    <height>1080</height>
                    <pixelaspectratio>Square</pixelaspectratio>
                    <anamorphic>FALSE</anamorphic>
                  </samplecharacteristics>
                </video>
              </media>
            </file>
            <sourcetrack>
              <mediatype>video</mediatype>
            </sourcetrack>
            <fielddominance>none</fielddominance>
          </clipitem>
          <clipitem id="A.png19">
            <name>A.png</name>
            <duration>2</duration>
            <rate>
              <ntsc>FALSE</ntsc>
              <timebase>25</timebase>
            </rate>
            <in>90135</in>
            <out>90136</out>
            <start>135</start>
            <end>136</end>
            <pixelaspectratio>Square</pixelaspectratio>
            <stillframe>TRUE</stillframe>
            <anamorphic>FALSE</anamorphic>
            <alphatype>straight</alphatype>
            <masterclipid>A.png19</masterclipid>
            <file id="A">
              <name>A.png</name>
              <pathurl>D:/Codes/SynthLip/SynthLipN/bin/Debug/net6.0-windows/Skin/template/A.png</pathurl>
              <rate>
                <ntsc>FALSE</ntsc>
                <timebase>25</timebase>
              </rate>
              <duration>2</duration>
              <width>1920</width>
              <height>1080</height>
              <media>
                <video>
                  <duration>2</duration>
                  <stillframe>TRUE</stillframe>
                  <samplecharacteristics>
                    <rate>
                      <ntsc>FALSE</ntsc>
                      <timebase>25</timebase>
                    </rate>
                    <width>1920</width>
                    <height>1080</height>
                    <pixelaspectratio>Square</pixelaspectratio>
                    <anamorphic>FALSE</anamorphic>
                  </samplecharacteristics>
                </video>
              </media>
            </file>
            <sourcetrack>
              <mediatype>video</mediatype>
            </sourcetrack>
            <fielddominance>none</fielddominance>
          </clipitem>
          <clipitem id="A.png18">
            <name>A.png</name>
            <duration>3</duration>
            <rate>
              <ntsc>FALSE</ntsc>
              <timebase>25</timebase>
            </rate>
            <in>90132</in>
            <out>90134</out>
            <start>132</start>
            <end>134</end>
            <pixelaspectratio>Square</pixelaspectratio>
            <stillframe>TRUE</stillframe>
            <anamorphic>FALSE</anamorphic>
            <alphatype>straight</alphatype>
            <masterclipid>A.png18</masterclipid>
            <file id="A">
              <name>A.png</name>
              <pathurl>D:/Codes/SynthLip/SynthLipN/bin/Debug/net6.0-windows/Skin/template/A.png</pathurl>
              <rate>
                <ntsc>FALSE</ntsc>
                <timebase>25</timebase>
              </rate>
              <duration>2</duration>
              <width>1920</width>
              <height>1080</height>
              <media>
                <video>
                  <duration>2</duration>
                  <stillframe>TRUE</stillframe>
                  <samplecharacteristics>
                    <rate>
                      <ntsc>FALSE</ntsc>
                      <timebase>25</timebase>
                    </rate>
                    <width>1920</width>
                    <height>1080</height>
                    <pixelaspectratio>Square</pixelaspectratio>
                    <anamorphic>FALSE</anamorphic>
                  </samplecharacteristics>
                </video>
              </media>
            </file>
            <sourcetrack>
              <mediatype>video</mediatype>
            </sourcetrack>
            <fielddominance>none</fielddominance>
          </clipitem>
          <clipitem id="A.png14">
            <name>A.png</name>
            <duration>3</duration>
            <rate>
              <ntsc>FALSE</ntsc>
              <timebase>25</timebase>
            </rate>
            <in>90124</in>
            <out>90126</out>
            <start>124</start>
            <end>126</end>
            <pixelaspectratio>Square</pixelaspectratio>
            <stillframe>TRUE</stillframe>
            <anamorphic>FALSE</anamorphic>
            <alphatype>straight</alphatype>
            <masterclipid>A.png14</masterclipid>
            <file id="A">
              <name>A.png</name>
              <pathurl>D:/Codes/SynthLip/SynthLipN/bin/Debug/net6.0-windows/Skin/template/A.png</pathurl>
              <rate>
                <ntsc>FALSE</ntsc>
                <timebase>25</timebase>
              </rate>
              <duration>2</duration>
              <width>1920</width>
              <height>1080</height>
              <media>
                <video>
                  <duration>2</duration>
                  <stillframe>TRUE</stillframe>
                  <samplecharacteristics>
                    <rate>
                      <ntsc>FALSE</ntsc>
                      <timebase>25</timebase>
                    </rate>
                    <width>1920</width>
                    <height>1080</height>
                    <pixelaspectratio>Square</pixelaspectratio>
                    <anamorphic>FALSE</anamorphic>
                  </samplecharacteristics>
                </video>
              </media>
            </file>
            <sourcetrack>
              <mediatype>video</mediatype>
            </sourcetrack>
            <fielddominance>none</fielddominance>
          </clipitem>
          <clipitem id="A.png13">
            <name>A.png</name>
            <duration>3</duration>
            <rate>
              <ntsc>FALSE</ntsc>
              <timebase>25</timebase>
            </rate>
            <in>90120</in>
            <out>90122</out>
            <start>120</start>
            <end>122</end>
            <pixelaspectratio>Square</pixelaspectratio>
            <stillframe>TRUE</stillframe>
            <anamorphic>FALSE</anamorphic>
            <alphatype>straight</alphatype>
            <masterclipid>A.png13</masterclipid>
            <file id="A">
              <name>A.png</name>
              <pathurl>D:/Codes/SynthLip/SynthLipN/bin/Debug/net6.0-windows/Skin/template/A.png</pathurl>
              <rate>
                <ntsc>FALSE</ntsc>
                <timebase>25</timebase>
              </rate>
              <duration>2</duration>
              <width>1920</width>
              <height>1080</height>
              <media>
                <video>
                  <duration>2</duration>
                  <stillframe>TRUE</stillframe>
                  <samplecharacteristics>
                    <rate>
                      <ntsc>FALSE</ntsc>
                      <timebase>25</timebase>
                    </rate>
                    <width>1920</width>
                    <height>1080</height>
                    <pixelaspectratio>Square</pixelaspectratio>
                    <anamorphic>FALSE</anamorphic>
                  </samplecharacteristics>
                </video>
              </media>
            </file>
            <sourcetrack>
              <mediatype>video</mediatype>
            </sourcetrack>
            <fielddominance>none</fielddominance>
          </clipitem>
          <clipitem id="B.png12">
            <name>B.png</name>
            <duration>3</duration>
            <rate>
              <ntsc>FALSE</ntsc>
              <timebase>25</timebase>
            </rate>
            <in>90117</in>
            <out>90119</out>
            <start>117</start>
            <end>119</end>
            <pixelaspectratio>Square</pixelaspectratio>
            <stillframe>TRUE</stillframe>
            <anamorphic>FALSE</anamorphic>
            <alphatype>straight</alphatype>
            <masterclipid>B.png12</masterclipid>
            <file id="B">
              <name>B.png</name>
              <pathurl>D:/Codes/SynthLip/SynthLipN/bin/Debug/net6.0-windows/Skin/template/B.png</pathurl>
              <rate>
                <ntsc>FALSE</ntsc>
                <timebase>25</timebase>
              </rate>
              <duration>2</duration>
              <width>1920</width>
              <height>1080</height>
              <media>
                <video>
                  <duration>2</duration>
                  <stillframe>TRUE</stillframe>
                  <samplecharacteristics>
                    <rate>
                      <ntsc>FALSE</ntsc>
                      <timebase>25</timebase>
                    </rate>
                    <width>1920</width>
                    <height>1080</height>
                    <pixelaspectratio>Square</pixelaspectratio>
                    <anamorphic>FALSE</anamorphic>
                  </samplecharacteristics>
                </video>
              </media>
            </file>
            <sourcetrack>
              <mediatype>video</mediatype>
            </sourcetrack>
            <fielddominance>none</fielddominance>
          </clipitem>
          <clipitem id="D.png8">
            <name>D.png</name>
            <duration>2</duration>
            <rate>
              <ntsc>FALSE</ntsc>
              <timebase>25</timebase>
            </rate>
            <in>90111</in>
            <out>90112</out>
            <start>111</start>
            <end>112</end>
            <pixelaspectratio>Square</pixelaspectratio>
            <stillframe>TRUE</stillframe>
            <anamorphic>FALSE</anamorphic>
            <alphatype>straight</alphatype>
            <masterclipid>D.png8</masterclipid>
            <file id="D">
              <name>D.png</name>
              <pathurl>D:/Codes/SynthLip/SynthLipN/bin/Debug/net6.0-windows/Skin/template/D.png</pathurl>
              <rate>
                <ntsc>FALSE</ntsc>
                <timebase>25</timebase>
              </rate>
              <duration>2</duration>
              <width>1920</width>
              <height>1080</height>
              <media>
                <video>
                  <duration>2</duration>
                  <stillframe>TRUE</stillframe>
                  <samplecharacteristics>
                    <rate>
                      <ntsc>FALSE</ntsc>
                      <timebase>25</timebase>
                    </rate>
                    <width>1920</width>
                    <height>1080</height>
                    <pixelaspectratio>Square</pixelaspectratio>
                    <anamorphic>FALSE</anamorphic>
                  </samplecharacteristics>
                </video>
              </media>
            </file>
            <sourcetrack>
              <mediatype>video</mediatype>
            </sourcetrack>
            <fielddominance>none</fielddominance>
          </clipitem>
          <clipitem id="B.png7">
            <name>B.png</name>
            <duration>2</duration>
            <rate>
              <ntsc>FALSE</ntsc>
              <timebase>25</timebase>
            </rate>
            <in>90108</in>
            <out>90109</out>
            <start>108</start>
            <end>109</end>
            <pixelaspectratio>Square</pixelaspectratio>
            <stillframe>TRUE</stillframe>
            <anamorphic>FALSE</anamorphic>
            <alphatype>straight</alphatype>
            <masterclipid>B.png7</masterclipid>
            <file id="B">
              <name>B.png</name>
              <pathurl>D:/Codes/SynthLip/SynthLipN/bin/Debug/net6.0-windows/Skin/template/B.png</pathurl>
              <rate>
                <ntsc>FALSE</ntsc>
                <timebase>25</timebase>
              </rate>
              <duration>2</duration>
              <width>1920</width>
              <height>1080</height>
              <media>
                <video>
                  <duration>2</duration>
                  <stillframe>TRUE</stillframe>
                  <samplecharacteristics>
                    <rate>
                      <ntsc>FALSE</ntsc>
                      <timebase>25</timebase>
                    </rate>
                    <width>1920</width>
                    <height>1080</height>
                    <pixelaspectratio>Square</pixelaspectratio>
                    <anamorphic>FALSE</anamorphic>
                  </samplecharacteristics>
                </video>
              </media>
            </file>
            <sourcetrack>
              <mediatype>video</mediatype>
            </sourcetrack>
            <fielddominance>none</fielddominance>
          </clipitem>
          <clipitem id="B.png6">
            <name>B.png</name>
            <duration>2</duration>
            <rate>
              <ntsc>FALSE</ntsc>
              <timebase>25</timebase>
            </rate>
            <in>90105</in>
            <out>90106</out>
            <start>105</start>
            <end>106</end>
            <pixelaspectratio>Square</pixelaspectratio>
            <stillframe>TRUE</stillframe>
            <anamorphic>FALSE</anamorphic>
            <alphatype>straight</alphatype>
            <masterclipid>B.png6</masterclipid>
            <file id="B">
              <name>B.png</name>
              <pathurl>D:/Codes/SynthLip/SynthLipN/bin/Debug/net6.0-windows/Skin/template/B.png</pathurl>
              <rate>
                <ntsc>FALSE</ntsc>
                <timebase>25</timebase>
              </rate>
              <duration>2</duration>
              <width>1920</width>
              <height>1080</height>
              <media>
                <video>
                  <duration>2</duration>
                  <stillframe>TRUE</stillframe>
                  <samplecharacteristics>
                    <rate>
                      <ntsc>FALSE</ntsc>
                      <timebase>25</timebase>
                    </rate>
                    <width>1920</width>
                    <height>1080</height>
                    <pixelaspectratio>Square</pixelaspectratio>
                    <anamorphic>FALSE</anamorphic>
                  </samplecharacteristics>
                </video>
              </media>
            </file>
            <sourcetrack>
              <mediatype>video</mediatype>
            </sourcetrack>
            <fielddominance>none</fielddominance>
          </clipitem>
          <clipitem id="D.png5">
            <name>D.png</name>
            <duration>2</duration>
            <rate>
              <ntsc>FALSE</ntsc>
              <timebase>25</timebase>
            </rate>
            <in>90103</in>
            <out>90104</out>
            <start>103</start>
            <end>104</end>
            <pixelaspectratio>Square</pixelaspectratio>
            <stillframe>TRUE</stillframe>
            <anamorphic>FALSE</anamorphic>
            <alphatype>straight</alphatype>
            <masterclipid>D.png5</masterclipid>
            <file id="D">
              <name>D.png</name>
              <pathurl>D:/Codes/SynthLip/SynthLipN/bin/Debug/net6.0-windows/Skin/template/D.png</pathurl>
              <rate>
                <ntsc>FALSE</ntsc>
                <timebase>25</timebase>
              </rate>
              <duration>2</duration>
              <width>1920</width>
              <height>1080</height>
              <media>
                <video>
                  <duration>2</duration>
                  <stillframe>TRUE</stillframe>
                  <samplecharacteristics>
                    <rate>
                      <ntsc>FALSE</ntsc>
                      <timebase>25</timebase>
                    </rate>
                    <width>1920</width>
                    <height>1080</height>
                    <pixelaspectratio>Square</pixelaspectratio>
                    <anamorphic>FALSE</anamorphic>
                  </samplecharacteristics>
                </video>
              </media>
            </file>
            <sourcetrack>
              <mediatype>video</mediatype>
            </sourcetrack>
            <fielddominance>none</fielddominance>
          </clipitem>
          <clipitem id="B.png4">
            <name>B.png</name>
            <duration>2</duration>
            <rate>
              <ntsc>FALSE</ntsc>
              <timebase>25</timebase>
            </rate>
            <in>90100</in>
            <out>90101</out>
            <start>100</start>
            <end>101</end>
            <pixelaspectratio>Square</pixelaspectratio>
            <stillframe>TRUE</stillframe>
            <anamorphic>FALSE</anamorphic>
            <alphatype>straight</alphatype>
            <masterclipid>B.png4</masterclipid>
            <file id="B">
              <name>B.png</name>
              <pathurl>D:/Codes/SynthLip/SynthLipN/bin/Debug/net6.0-windows/Skin/template/B.png</pathurl>
              <rate>
                <ntsc>FALSE</ntsc>
                <timebase>25</timebase>
              </rate>
              <duration>2</duration>
              <width>1920</width>
              <height>1080</height>
              <media>
                <video>
                  <duration>2</duration>
                  <stillframe>TRUE</stillframe>
                  <samplecharacteristics>
                    <rate>
                      <ntsc>FALSE</ntsc>
                      <timebase>25</timebase>
                    </rate>
                    <width>1920</width>
                    <height>1080</height>
                    <pixelaspectratio>Square</pixelaspectratio>
                    <anamorphic>FALSE</anamorphic>
                  </samplecharacteristics>
                </video>
              </media>
            </file>
            <sourcetrack>
              <mediatype>video</mediatype>
            </sourcetrack>
            <fielddominance>none</fielddominance>
          </clipitem>
          <clipitem id="A.png3">
            <name>A.png</name>
            <duration>2</duration>
            <rate>
              <ntsc>FALSE</ntsc>
              <timebase>25</timebase>
            </rate>
            <in>90098</in>
            <out>90099</out>
            <start>98</start>
            <end>99</end>
            <pixelaspectratio>Square</pixelaspectratio>
            <stillframe>TRUE</stillframe>
            <anamorphic>FALSE</anamorphic>
            <alphatype>straight</alphatype>
            <masterclipid>A.png3</masterclipid>
            <file id="A">
              <name>A.png</name>
              <pathurl>D:/Codes/SynthLip/SynthLipN/bin/Debug/net6.0-windows/Skin/template/A.png</pathurl>
              <rate>
                <ntsc>FALSE</ntsc>
                <timebase>25</timebase>
              </rate>
              <duration>2</duration>
              <width>1920</width>
              <height>1080</height>
              <media>
                <video>
                  <duration>2</duration>
                  <stillframe>TRUE</stillframe>
                  <samplecharacteristics>
                    <rate>
                      <ntsc>FALSE</ntsc>
                      <timebase>25</timebase>
                    </rate>
                    <width>1920</width>
                    <height>1080</height>
                    <pixelaspectratio>Square</pixelaspectratio>
                    <anamorphic>FALSE</anamorphic>
                  </samplecharacteristics>
                </video>
              </media>
            </file>
            <sourcetrack>
              <mediatype>video</mediatype>
            </sourcetrack>
            <fielddominance>none</fielddominance>
          </clipitem>
          <clipitem id="E.png2">
            <name>E.png</name>
            <duration>5</duration>
            <rate>
              <ntsc>FALSE</ntsc>
              <timebase>25</timebase>
            </rate>
            <in>90092</in>
            <out>90096</out>
            <start>92</start>
            <end>96</end>
            <pixelaspectratio>Square</pixelaspectratio>
            <stillframe>TRUE</stillframe>
            <anamorphic>FALSE</anamorphic>
            <alphatype>straight</alphatype>
            <masterclipid>E.png2</masterclipid>
            <file id="E">
              <name>E.png</name>
              <pathurl>D:/Codes/SynthLip/SynthLipN/bin/Debug/net6.0-windows/Skin/template/E.png</pathurl>
              <rate>
                <ntsc>FALSE</ntsc>
                <timebase>25</timebase>
              </rate>
              <duration>2</duration>
              <width>1920</width>
              <height>1080</height>
              <media>
                <video>
                  <duration>2</duration>
                  <stillframe>TRUE</stillframe>
                  <samplecharacteristics>
                    <rate>
                      <ntsc>FALSE</ntsc>
                      <timebase>25</timebase>
                    </rate>
                    <width>1920</width>
                    <height>1080</height>
                    <pixelaspectratio>Square</pixelaspectratio>
                    <anamorphic>FALSE</anamorphic>
                  </samplecharacteristics>
                </video>
              </media>
            </file>
            <sourcetrack>
              <mediatype>video</mediatype>
            </sourcetrack>
            <fielddominance>none</fielddominance>
          </clipitem>
          <clipitem id="A.png0">
            <name>A.png</name>
            <duration>90</duration>
            <rate>
              <ntsc>FALSE</ntsc>
              <timebase>25</timebase>
            </rate>
            <in>90000</in>
            <out>90089</out>
            <start>0</start>
            <end>89</end>
            <pixelaspectratio>Square</pixelaspectratio>
            <stillframe>TRUE</stillframe>
            <anamorphic>FALSE</anamorphic>
            <alphatype>straight</alphatype>
            <masterclipid>A.png0</masterclipid>
            <file id="A">
              <name>A.png</name>
              <pathurl>D:/Codes/SynthLip/SynthLipN/bin/Debug/net6.0-windows/Skin/template/A.png</pathurl>
              <rate>
                <ntsc>FALSE</ntsc>
                <timebase>25</timebase>
              </rate>
              <duration>2</duration>
              <width>1920</width>
              <height>1080</height>
              <media>
                <video>
                  <duration>2</duration>
                  <stillframe>TRUE</stillframe>
                  <samplecharacteristics>
                    <rate>
                      <ntsc>FALSE</ntsc>
                      <timebase>25</timebase>
                    </rate>
                    <width>1920</width>
                    <height>1080</height>
                    <pixelaspectratio>Square</pixelaspectratio>
                    <anamorphic>FALSE</anamorphic>
                  </samplecharacteristics>
                </video>
              </media>
            </file>
            <sourcetrack>
              <mediatype>video</mediatype>
            </sourcetrack>
            <fielddominance>none</fielddominance>
          </clipitem>
          <enabled>TRUE</enabled>
          <locked>FALSE</locked>
        </track>
      </video>
    </media>
    <ismasterclip>FALSE</ismasterclip>
  </sequence>
</xmeml>